<svg xmlns="http://www.w3.org/2000/svg" xmlns:xlink="http://www.w3.org/1999/xlink" width="375" height="812" viewBox="0 0 375 812"><defs><style>.a{fill:none;}.b,.j,.k{isolation:isolate;}.c{clip-path:url(#a);}.d{fill:url(#b);}.e{opacity:0.47;fill:url(#c);}.f{fill:url(#d);}.g{fill:url(#e);}.h{fill:url(#f);}.i{opacity:0.38;fill:url(#g);}.j,.k{mix-blend-mode:luminosity;}.j{fill:url(#h);}.l{opacity:0.07;fill:url(#i);}.m{opacity:0.11;}.n{fill:url(#j);}.o{fill:url(#k);}.p{fill:url(#l);}.q{fill:url(#m);}.r{fill:url(#o);}.s{fill:url(#p);}.t{fill:url(#q);}.u{fill:url(#t);}.v{fill:url(#u);}.w{fill:url(#v);}.x{fill:url(#w);}.y{fill:url(#z);}.z{fill:url(#aa);}.aa{fill:url(#ac);}.ab{fill:url(#ad);}.ac{fill:url(#ae);}.ad{fill:url(#ah);}</style><clipPath id="a"><rect class="a" width="375" height="812"/></clipPath><linearGradient id="b" x1="0.468" y1="0.121" x2="0.536" y2="0.926" gradientUnits="objectBoundingBox"><stop offset="0" stop-color="#1d3d7a"/><stop offset="1" stop-color="#213a7b"/></linearGradient><linearGradient id="c" x1="0.505" y1="-0.068" x2="0.498" y2="0.954" gradientUnits="objectBoundingBox"><stop offset="0" stop-color="#00568f"/><stop offset="0.07" stop-color="#07508b"/><stop offset="0.31" stop-color="#154482"/><stop offset="0.58" stop-color="#1e3c7d"/><stop offset="1" stop-color="#213a7b"/></linearGradient><linearGradient id="d" x1="0.322" y1="0.874" x2="0.756" y2="-0.073" gradientUnits="objectBoundingBox"><stop offset="0" stop-color="#19407f"/><stop offset="1" stop-color="#386fa2"/></linearGradient><linearGradient id="e" x1="-0.23" y1="0.768" x2="0.486" y2="0.505" gradientUnits="objectBoundingBox"><stop offset="0.34" stop-color="#50327b"/><stop offset="1" stop-color="#50327b" stop-opacity="0"/></linearGradient><linearGradient id="f" x1="0.917" y1="0.222" x2="-0.968" y2="1.267" gradientUnits="objectBoundingBox"><stop offset="0" stop-color="#fbfbfb" stop-opacity="0.2"/><stop offset="0.14" stop-color="#b7c3d6" stop-opacity="0.231"/><stop offset="0.39" stop-color="#5e7aa5" stop-opacity="0.271"/><stop offset="0.66" stop-color="#2a4e88" stop-opacity="0.29"/><stop offset="1" stop-color="#19407f" stop-opacity="0.302"/></linearGradient><linearGradient id="g" x1="1.603" y1="0.016" x2="-7.25" y2="2.689" xlink:href="#d"/><linearGradient id="h" x1="0.249" y1="0.769" x2="0.903" y2="0.07" gradientUnits="objectBoundingBox"><stop offset="0" stop-color="#4e2975"/><stop offset="1" stop-color="#422c85" stop-opacity="0"/></linearGradient><linearGradient id="i" x1="1.139" y1="0.409" x2="0.17" y2="0.755" gradientUnits="objectBoundingBox"><stop offset="0" stop-color="#29235c"/><stop offset="0.46" stop-color="#29235d" stop-opacity="0.98"/><stop offset="0.62" stop-color="#2a2360" stop-opacity="0.91"/><stop offset="0.74" stop-color="#2b2465" stop-opacity="0.78"/><stop offset="0.83" stop-color="#2c256c" stop-opacity="0.588"/><stop offset="0.92" stop-color="#2e2675" stop-opacity="0.349"/><stop offset="0.99" stop-color="#302780" stop-opacity="0.071"/><stop offset="1" stop-color="#312783" stop-opacity="0"/></linearGradient><linearGradient id="j" y1="0.5" x2="1" y2="0.5" gradientUnits="objectBoundingBox"><stop offset="0" stop-color="#312783" stop-opacity="0"/><stop offset="0.09" stop-color="#3e3f94" stop-opacity="0.231"/><stop offset="0.2" stop-color="#4955a3" stop-opacity="0.431"/><stop offset="0.3" stop-color="#5368b0" stop-opacity="0.612"/><stop offset="0.42" stop-color="#5b78ba" stop-opacity="0.749"/><stop offset="0.53" stop-color="#6184c3" stop-opacity="0.859"/><stop offset="0.66" stop-color="#668cc8" stop-opacity="0.941"/><stop offset="0.81" stop-color="#6891cc" stop-opacity="0.988"/><stop offset="1" stop-color="#6993cd"/></linearGradient><linearGradient id="k" x1="0" y1="0.5" x2="1" y2="0.5" xlink:href="#j"/><linearGradient id="l" x1="0" y1="0.5" x2="1" y2="0.5" xlink:href="#j"/><linearGradient id="m" x1="0" y1="0.5" x2="1" y2="0.5" xlink:href="#j"/><linearGradient id="o" x1="0" y1="0.5" x2="1" y2="0.5" xlink:href="#j"/><linearGradient id="p" x1="0" y1="0.5" x2="1" y2="0.5" xlink:href="#j"/><linearGradient id="q" x1="0" y1="0.5" x2="1" y2="0.5" xlink:href="#j"/><linearGradient id="t" x1="0" y1="0.5" x2="1" y2="0.5" xlink:href="#j"/><linearGradient id="u" x1="0" y1="0.5" x2="1" y2="0.5" xlink:href="#j"/><linearGradient id="v" x1="0" y1="0.5" x2="1" y2="0.5" xlink:href="#j"/><linearGradient id="w" x1="0" y1="0.499" x2="1" y2="0.499" xlink:href="#j"/><linearGradient id="z" x1="0" y1="0.5" x2="1" y2="0.5" xlink:href="#j"/><linearGradient id="aa" x1="0" y1="0.5" x2="1" y2="0.5" xlink:href="#j"/><linearGradient id="ac" x1="0" y1="0.5" x2="1" y2="0.5" xlink:href="#j"/><linearGradient id="ad" x1="0" y1="0.5" x2="1" y2="0.5" xlink:href="#j"/><linearGradient id="ae" x1="0" y1="0.5" x2="1" y2="0.5" xlink:href="#j"/><linearGradient id="ah" x1="0" y1="0.5" x2="1" y2="0.5" xlink:href="#j"/></defs><g class="b" transform="translate(-0.199)"><g transform="translate(0.2)"><g class="c"><path class="d" d="M375.2,812.04.2,812V0h375Z" transform="translate(-0.2)"/><path class="e" d="M0,500.452c138.08-3.279,266.15-44.469,375-114.052V812.135H0Z" transform="translate(0 -0.095)"/><path class="f" d="M0,0V37.741A378.149,378.149,0,0,0,308.24,195.4,382.483,382.483,0,0,0,375,189.553V0Z"/><path class="g" d="M.2,205.34V812.051H362.45Z" transform="translate(-0.2 -0.051)"/><path class="h" d="M50.87,242.86A71.379,71.379,0,0,0,0,264.085V364.82A71.592,71.592,0,1,0,50.87,242.85Z" transform="translate(0 -0.06)"/><path class="i" d="M84.72,0H-.2V182.5A232.92,232.92,0,0,0,84.8,2.409C84.75,1.61,84.73.8,84.72,0Z"/><ellipse class="j" cx="62.27" cy="62.255" rx="62.27" ry="62.255" transform="translate(43.43 670.375)"/><g class="k" transform="translate(212.62 496.288)"><path class="l" d="M375,496.41C283.56,507.2,212.62,584.978,212.62,679.275a183.633,183.633,0,0,0,57,133.217H375Z" transform="translate(-212.62 -496.41)"/><g class="m" transform="translate(0)"><path class="n" d="M214.56,652.5c-.41,2.849-.76,5.709-1,8.6,14.68-10.757,29.86-21.785,46.08-32.992l15-12c20-14.057,38.75-27.673,56.88-40.85,14.11-10.247,28.68-20.815,43.55-31.392V535.76c-31.46,22.644-63.1,45.739-93.75,68.123C259.38,619.9,237,636.225,214.56,652.5Z" transform="translate(-212.62 -496.42)"/><path class="o" d="M213,690.821q.25,4.1.67,8.128c51.87-37.351,105-76.031,161.34-117.411V573.4c-31.78,23.374-64.4,46.888-96,69.673C257.29,658.729,235.08,674.745,213,690.821Z" transform="translate(-212.62 -496.429)"/><path class="p" d="M289.59,624.143c17.61-12.107,33.91-24.054,49.66-35.6,11.57-8.488,23.51-17.216,35.75-25.874V554.42c-4,2.789-58.88,42.989-82.25,60.185-15.51,11.377-31.55,23.184-48.58,35.371-8.51,6.2-17.15,12.327-25.5,18.246l-5.91,4.2c-.08,2.289-.14,4.589-.14,6.9v1.42c8-5.859,16-11.8,24.17-17.866C253.78,650.256,271.33,637.25,289.59,624.143Z" transform="translate(-212.62 -496.424)"/><path class="q" d="M375,572.158V563.9c-12,8.508-23.78,17.106-35.16,25.444-15.76,11.557-32.06,23.5-49.68,35.621-18.24,13.1-35.79,26.1-52.75,38.68-8.4,6.218-16.59,12.3-24.75,18.3q0,3.869.25,7.7c21.93-16,44-31.842,65.52-47.378C310.21,619.336,343,595.672,375,572.158Z" transform="translate(-212.62 -496.427)"/><path class="q" d="M375,534.568V526.45l-5.66,4.119c-27.58,20-53.62,38.99-82.16,60.385-21,14.916-41,29.393-60.38,43.4l-10.36,7.488c-.63,3.069-1.19,6.158-1.66,9.268,22.18-16.086,44.27-32.212,65.88-47.988C311.5,580.607,343.34,557.352,375,534.568Z" transform="translate(-212.62 -496.417)"/><path class="r" d="M243.59,649.134C260.62,636.977,375,553.208,375,553.208V545.15c-14.66,10.437-29,20.865-43,30.992-18.13,13.177-36.89,26.793-56.87,40.84l-15,12c-16.49,11.367-31.9,22.574-46.8,33.492-.26,2.879-.46,5.779-.58,8.7l5.28-3.749C226.44,661.451,235.07,655.323,243.59,649.134Z" transform="translate(-212.62 -496.422)"/><path class="s" d="M234.09,693.133c8.11-5.9,16.5-12,25.51-18l15-12c20.6-14.476,39.88-28.493,58.52-42.05,13.59-9.878,27.61-20.065,41.91-30.263V582.76c-56.27,41.34-109.38,79.98-161.2,117.3.25,2.319.56,4.609.9,6.9C221.44,702.331,227.84,697.672,234.09,693.133Z" transform="translate(-212.62 -496.431)"/><path class="t" d="M359.31,499q-8.93,1.85-17.53,4.529c-22.24,16.126-44.38,32.292-66,48.108q-14.57,10.637-29.39,21.445-5.19,7.348-9.67,15.186,19.41-14.126,38.47-28.053C302.69,540.06,331,519.395,359.31,499Z" transform="translate(-212.62 -496.411)"/><path class="o" d="M375,648.43l-8,5.839c-26.78,19.485-52.08,37.9-79.8,58.686-20.28,14.406-39.64,28.393-58.36,41.94q1.38,3.079,2.86,6.078c46-33.222,93.33-67.693,143.32-104.374Z" transform="translate(-212.62 -496.447)"/><path class="q" d="M375,723.64c-28.95,22.095-59,43.639-88.18,64.5-7.95,5.689-16.09,11.517-24.18,17.336,1.45,1.55,2.93,3.059,4.44,4.559,41.68-30.692,75.23-55.086,107.92-78.461Z" transform="translate(-212.62 -496.466)"/><path class="u" d="M273.2,758.6q17.94-13.107,35.9-26.194c26.21-19.105,46.75-33.992,65.9-47.728v-8c-20.48,15.3-42.8,31.672-69.78,51.2-17.33,12.537-35,25.234-52.07,37.511l-13.63,9.8c1.13,1.84,2.28,3.669,3.47,5.479Z" transform="translate(-212.62 -496.454)"/><path class="v" d="M290.16,699.985c-4.47,3.479-8.8,6.788-13,10s-8.49,6.5-13,10c-11.45,7.448-21.74,15-31.69,22.284l-6.91,5.059c.89,2.249,1.83,4.469,2.81,6.678,18.67-13.507,38-27.463,58.19-41.82,27.71-20.785,53-39.19,79.8-58.686l8.61-6.268V639c-12.24,8.638-24.18,17.366-35.74,25.834C323.68,676.2,307.57,687.988,290.16,699.985Z" transform="translate(-212.62 -496.445)"/><path class="w" d="M252.57,764.546c17.08-12.267,34.74-24.994,52.07-37.5,27.23-19.715,49.72-36.211,70.36-51.637V667.13c-14.49,10.317-28.69,20.625-42.45,30.622-18.3,13.287-37.21,26.993-57.38,41.21l-15,12c-8.48,5.849-16.66,11.647-24.65,17.386q1.68,3,3.46,6Z" transform="translate(-212.62 -496.452)"/><path class="x" d="M259.6,750.137l15-12c20.15-14.156,39.07-27.913,57.4-41.15,14-10.138,28.34-20.585,43-31.042V657.89c-49.82,36.551-97,70.923-142.86,104.044.94,1.87,1.92,3.719,2.92,5.559C243,761.724,251.16,755.976,259.6,750.137Z" transform="translate(-212.62 -496.45)"/><path class="u" d="M275.17,589.982c-11.95,8.688-23.9,17.086-35.47,25.2-6.86,4.809-13.58,9.538-20.24,14.266-1,3.609-1.93,7.268-2.72,11l9.47-6.848c19.36-14,39.38-28.483,60.38-43.4,28.53-21.395,54.58-40.33,82.16-60.385l6.25-4.539V517c-21.31,15.236-41.44,30.043-62.66,45.659C300.4,571.467,288.05,580.554,275.17,589.982Z" transform="translate(-212.62 -496.415)"/><path class="p" d="M266.59,791.139c20.74-14,40.09-28.433,58.8-42.39,16-12,32.56-24.264,49.61-35.991v-8c-16,11.747-33.7,24.614-55.24,40.16q-16.29,11.757-32.59,23.474l-26.86,19.345-8,5.779c1.39,1.76,2.82,3.5,4.27,5.209C259.71,796.227,263,793.678,266.59,791.139Z" transform="translate(-212.62 -496.461)"/><path class="y" d="M375,722.378V713.94c-16.84,11.637-33.17,23.8-49,35.621-18.72,14-38.08,28.393-58.83,42.4-3.59,2.519-6.82,5-9.93,7.518,1.54,1.79,3.12,3.539,4.72,5.259,8.13-5.839,16.3-11.7,24.29-17.406C315.58,766.327,345.87,744.632,375,722.378Z" transform="translate(-212.62 -496.464)"/><path class="z" d="M277.09,765.21q18.69-13.467,37.37-26.993c23.66-17.116,43-31.222,60.54-44.109V685.88c-19,13.637-39.36,28.393-65.31,47.3l-35.9,26.194q-15.12,11.047-30.25,22.075,1.8,2.679,3.68,5.289l2.49-1.8Z" transform="translate(-212.62 -496.457)"/><path class="p" d="M259.73,786.917l26.86-19.345q16.29-11.727,32.58-23.474c21.81-15.736,39.68-28.733,55.83-40.59V695.38c-17.36,12.767-36.56,26.753-60,43.679q-18.66,13.5-37.36,26.993l-27.35,19.725-2.48,1.8q1.89,2.609,3.88,5.149Z" transform="translate(-212.62 -496.459)"/><path class="aa" d="M369.23,811.98l-2.45.54,8.22-5.909v-8.088L356.55,812.03l-1.88.14c6.35-4.639,14-10.237,20.33-14.886v-8.238c-11.45,8.168-22.68,16.3-32.33,23.3l-1.95.17c9.83-7.138,22.62-16.4,34.28-24.694v-8.058c-15.11,11.1-30,21.995-44.43,32.552l-1.47-.17c14.58-10.657,30.59-22.375,45.9-33.622v-8.138c-22,16-40.35,29.343-57.38,41.64h-1.76q25.78-18.615,59.14-42.919v-8.118q-26.82,19.605-53.66,39.16l-16.49,12h-1.28c5.49-4,11.69-8.808,17.18-12.807q27.13-19.775,54.25-39.59v-7.9c-17.71,13.9-36.25,26.993-54.24,39.77-9.42,6.668-19.17,13.567-28.65,20.475l-1.71.05c9.48-6.908,20.36-14.666,29.79-21.345,18.18-12.817,36.93-26.134,54.81-40.19v-8.438c-14.7,10.447-29.45,21.145-43.77,31.532-10,7.248-20.29,14.736-30.47,22.055-8.33,6-15.95,11.407-23.31,16.586l-1.52-.15c7.36-5.179,15.92-11.277,24.24-17.256,10.19-7.308,20.5-14.8,30.48-22.045,14.5-10.527,29.45-21.375,44.35-31.992V732.77c-32.46,23.224-65.83,47.478-107.2,77.981.61.6,1.22.84,1.84,1.43H375v-4.349Z" transform="translate(-212.62 -496.468)"/><path class="ab" d="M286.59,665.142c30.39-22.794,58.16-42.929,87.55-64.254l.86-.62v-8.2c-14.1,10.068-27.92,20.105-41.32,29.843-18.68,13.567-37.93,27.583-58.51,42.07l-15,12c-9,6-17.41,12.107-25.52,18-6.37,4.639-12.93,9.4-19.81,14.137.4,2.579.88,5.139,1.39,7.678l7.7-5.569C244,695.654,264.79,680.628,286.59,665.142Z" transform="translate(-212.62 -496.434)"/><path class="ac" d="M272.17,703.982c-5,3.5-9.56,7-14,10.487s-9,7-14,10.517c-7.1,5.159-14.3,10.177-21.31,15,.74,2.129,1.54,4.229,2.35,6.318,2.26-1.64,4.49-3.279,6.7-4.9,10-7.308,20.26-14.866,31.7-22.294,4.46-3.479,8.79-6.778,13-10s8.49-6.5,13-10c17.42-12,33.52-23.764,49.1-35.171,11.75-8.618,23.88-17.486,36.33-26.254V629.9c-20.32,16-41,30.462-62.76,45.649C299.18,684.7,285.67,694.1,272.17,703.982Z" transform="translate(-212.62 -496.443)"/><path class="x" d="M275.15,550.789C296,535.562,317.29,520,338.69,504.5a184.557,184.557,0,0,0-90.45,65.984Z" transform="translate(-212.62 -496.412)"/><path class="q" d="M375,619.068V610.86c-32.72,23.524-65.62,47.548-97.49,70.813-19.43,14.187-39.26,28.673-59.2,43.149.56,2.2,1.14,4.389,1.78,6.558,18.13-13.157,36.28-26.244,54.09-39.08C307.37,668.366,341.63,643.662,375,619.068Z" transform="translate(-212.62 -496.438)"/><path class="ad" d="M257.57,713.647c4.43-3.439,9-7,14-10.507,13.5-9.848,27-19.265,40.08-28.373,22-15.326,42.83-29.883,63.33-46.109V620.32c-33.18,24.444-67.24,48.988-100.24,72.792-17.9,12.907-36.14,26.054-54.36,39.28q1,3.329,2.13,6.628c6.93-4.819,14-9.778,21.06-14.886C248.58,720.635,253.15,717.086,257.57,713.647Z" transform="translate(-212.62 -496.441)"/><path class="p" d="M375,609.628V601.5l-.27.2c-29.39,21.295-57.15,41.46-87.55,64.284-21.81,15.486-42.57,30.512-62.64,45.049l-8.08,5.839q.72,3.5,1.58,6.928c19.83-14.4,39.56-28.793,58.88-42.909C309,657.456,342.08,633.292,375,609.628Z" transform="translate(-212.62 -496.436)"/><path class="q" d="M274.59,589.14c12.87-9.388,25.22-18.475,37.16-27.263,21.41-15.756,41.72-30.7,63.25-46.089V507.67c-28.36,20.465-56.88,41.29-84.5,61.465-22.17,16.2-44.79,32.712-67.54,49.208q-1.65,4.709-3.07,9.538c6.33-4.489,12.72-9,19.24-13.547C250.69,606.216,262.64,597.828,274.59,589.14Z" transform="translate(-212.62 -496.413)"/><path class="q" d="M375,497.1v-.69q-6.74.79-13.32,2.069c-28.9,20.855-57.82,41.99-85.94,62.495Q255.85,575.5,235.5,590.337q-3.36,6.068-6.26,12.427,23.295-16.886,46.31-33.442C308.28,545.718,342.08,521.344,375,497.1Z" transform="translate(-212.62 -496.41)"/><path class="q" d="M228.39,604.6q-2.62,5.939-4.85,12.077c22.35-16.206,44.58-32.442,66.37-48.348,27.82-20.315,56.54-41.29,85.09-61.9V498.34c-32.73,24.1-66.33,48.328-98.87,71.792C260.4,581.47,244.41,592.977,228.39,604.6Z" transform="translate(-212.62 -496.41)"/></g></g></g></g></g></svg>