<svg width="240" height="209" viewBox="0 0 240 209" fill="none" xmlns="http://www.w3.org/2000/svg">
<g clip-path="url(#clip0_509_34813)">
<path d="M240 208.696H30.2609V0H240V208.696Z" fill="white"/>
<path d="M240 208.696H26.0869V0H240V208.696ZM29.2475 205.612H236.839V3.08347H29.2475V205.612Z" fill="#BCBEBE"/>
<path d="M193.054 32.1869H113.729C112.582 32.1869 111.652 33.1166 111.652 34.2635C111.652 35.4103 112.582 36.34 113.729 36.34H193.054C194.201 36.34 195.13 35.4103 195.13 34.2635C195.13 33.1166 194.201 32.1869 193.054 32.1869Z" fill="#BCBEBE"/>
<path d="M193.054 40.4932H113.729C112.582 40.4932 111.652 41.4229 111.652 42.5697C111.652 43.7166 112.582 44.6463 113.729 44.6463H193.054C194.201 44.6463 195.13 43.7166 195.13 42.5697C195.13 41.4229 194.201 40.4932 193.054 40.4932Z" fill="#BCBEBE"/>
<path d="M172.184 47.7612H113.729C112.582 47.7612 111.652 48.6909 111.652 49.8378C111.652 50.9847 112.582 51.9144 113.729 51.9144H172.184C173.331 51.9144 174.261 50.9847 174.261 49.8378C174.261 48.6909 173.331 47.7612 172.184 47.7612Z" fill="#BCBEBE"/>
<path d="M193.054 95.5223H113.729C112.582 95.5223 111.652 96.4521 111.652 97.5989C111.652 98.7458 112.582 99.6755 113.729 99.6755H193.054C194.201 99.6755 195.13 98.7458 195.13 97.5989C195.13 96.4521 194.201 95.5223 193.054 95.5223Z" fill="#BCBEBE"/>
<path d="M193.054 102.79H113.729C112.582 102.79 111.652 103.72 111.652 104.867C111.652 106.014 112.582 106.944 113.729 106.944H193.054C194.201 106.944 195.13 106.014 195.13 104.867C195.13 103.72 194.201 102.79 193.054 102.79Z" fill="#BCBEBE"/>
<path d="M172.184 110.058H113.729C112.582 110.058 111.652 110.988 111.652 112.135C111.652 113.282 112.582 114.211 113.729 114.211H172.184C173.331 114.211 174.261 113.282 174.261 112.135C174.261 110.988 173.331 110.058 172.184 110.058Z" fill="#BCBEBE"/>
<path d="M193.054 158.858H113.729C112.582 158.858 111.652 159.788 111.652 160.934C111.652 162.081 112.582 163.011 113.729 163.011H193.054C194.201 163.011 195.13 162.081 195.13 160.934C195.13 159.788 194.201 158.858 193.054 158.858Z" fill="#BCBEBE"/>
<path d="M193.054 166.126H113.729C112.582 166.126 111.652 167.056 111.652 168.202C111.652 169.349 112.582 170.279 113.729 170.279H193.054C194.201 170.279 195.13 169.349 195.13 168.202C195.13 167.056 194.201 166.126 193.054 166.126Z" fill="#BCBEBE"/>
<path d="M172.184 173.394H113.729C112.582 173.394 111.652 174.324 111.652 175.47C111.652 176.617 112.582 177.547 113.729 177.547H172.184C173.331 177.547 174.261 176.617 174.261 175.47C174.261 174.324 173.331 173.394 172.184 173.394Z" fill="#BCBEBE"/>
<path d="M75.2241 55.2785C73.6724 54.4425 72.0526 53.7457 70.3831 53.1959L70.1702 50.7886L61.5365 49.8378L60.4392 52.9147L57.3408 54.1033C57.2299 54.1462 57.1244 54.2024 57.0264 54.2707H57.023C56.8501 54.3901 56.7028 54.5444 56.5902 54.724C56.4776 54.9036 56.4019 55.1048 56.3679 55.3153C56.3348 55.5246 56.3427 55.7385 56.391 55.9447L56.5547 56.6311C56.7905 56.775 57.0329 56.9123 57.2752 57.0429L57.4292 57.1233C57.783 57.3107 58.1433 57.4882 58.5134 57.6522C58.5887 57.6857 58.6706 57.7192 58.7459 57.7527C58.7525 57.756 58.7557 57.756 58.7622 57.7594C58.9359 57.8331 59.1094 57.9034 59.2863 57.9703C59.8673 58.1972 60.4599 58.3916 61.0615 58.5529C62.5969 58.9712 64.1792 59.1828 65.7682 59.1823C66.3479 59.1823 66.9211 59.1556 67.4877 59.0986C68.7824 58.9765 70.0606 58.7127 71.3003 58.3118C71.3035 58.3118 71.3068 58.3085 71.31 58.3085C72.0931 58.0535 72.8581 57.7436 73.5996 57.3811C73.6028 57.3777 73.6093 57.3777 73.6127 57.3744C73.7796 57.294 73.9402 57.207 74.104 57.1233L74.1825 57.0831C74.3135 57.0128 74.4446 56.9424 74.5756 56.8688C74.9031 56.6846 75.2241 56.4905 75.5417 56.2829C75.6302 56.2293 75.7154 56.1724 75.8038 56.1121C75.9283 56.0284 76.0527 55.9413 76.1739 55.8509C75.8693 55.6501 75.5516 55.4592 75.2241 55.2785Z" fill="#357ABA"/>
<path d="M59.2291 56.7885L58.7216 53.991H57.3959C57.3825 53.9912 57.3692 53.9924 57.3559 53.9947H57.3528C56.8763 54.0439 56.4175 54.2376 56.0179 54.558C55.7468 54.7692 55.5058 55.0331 55.3044 55.339C55.698 55.7033 56.1071 56.0412 56.5285 56.3642L56.547 56.3754C56.6669 56.4656 56.79 56.5557 56.913 56.6421C57.1344 56.8035 57.3621 56.9575 57.5896 57.1039L57.7343 57.1941C58.0665 57.4044 58.4049 57.6034 58.7524 57.7874C58.8231 57.8249 58.9 57.8625 58.9708 57.9C58.9769 57.9038 58.9799 57.9038 58.9861 57.9075C59.1492 57.9902 59.3122 58.069 59.4783 58.1441L59.2291 56.7885Z" fill="#357ABA"/>
<path d="M65.7391 48.7995C69.1969 48.7995 72 46.0104 72 42.5698C72 39.1292 69.1969 36.3401 65.7391 36.3401C62.2814 36.3401 59.4783 39.1292 59.4783 42.5698C59.4783 46.0104 62.2814 48.7995 65.7391 48.7995Z" fill="#FFB8B8"/>
<path d="M61.364 39.0906C62.0482 39.8561 63.2062 40.0721 64.2744 40.1607C66.7718 40.2911 69.2763 40.0978 71.7182 39.586C71.8695 40.9726 71.457 42.4675 72.3208 43.6081C72.7257 42.2273 72.9612 40.807 73.0225 39.3753C73.087 38.761 73.0022 38.1409 72.7745 37.5624C72.6528 37.2724 72.4474 37.0206 72.1819 36.8355C71.9163 36.6504 71.6011 36.5394 71.2721 36.5152C71.7646 36.162 72.3414 35.9289 72.9517 35.8364L70.8529 34.8392L71.3919 34.3161L67.5921 34.0963L68.6927 33.4352C67.0363 33.2201 65.3605 33.1701 63.6931 33.286C62.9139 33.2864 62.1494 33.4873 61.4818 33.8671C60.8544 34.2913 60.4919 35.1343 60.8814 35.757C60.3938 35.8327 59.9347 36.0249 59.5476 36.3152C59.1605 36.6056 58.8582 36.9846 58.6694 37.4163C58.4307 38.1026 58.373 38.8336 58.5015 39.5457C58.6447 40.6882 58.9255 41.8115 59.3386 42.8937L61.364 39.0906Z" fill="#032A4E"/>
<path d="M83.5056 35.0394C82.6325 32.5435 81.2228 30.2671 79.3748 28.3691C77.5268 26.4711 75.2849 24.997 72.8056 24.0497C70.3263 23.1024 67.6691 22.7047 65.0194 22.8843C62.3697 23.0639 59.7913 23.8165 57.4639 25.0895C55.1366 26.3626 53.1163 28.1255 51.544 30.2554C49.9717 32.3853 48.8852 34.8308 48.3602 37.4214C47.8353 40.012 47.8846 42.6854 48.5047 45.2552C49.1247 47.8249 50.3006 50.2291 51.9504 52.3002C52.1143 52.5057 52.2847 52.7111 52.4586 52.9101C52.4717 52.9231 52.4814 52.9362 52.4946 52.9492C52.9218 53.4391 53.3759 53.9052 53.8548 54.3452C53.9795 54.4594 54.1106 54.5768 54.2416 54.6877C54.4907 54.9095 54.7464 55.1215 55.0119 55.3237C55.1168 55.4053 55.2184 55.4868 55.3266 55.5651C55.7461 55.8815 56.1821 56.175 56.6311 56.4555L56.6508 56.4653C56.7786 56.5436 56.9098 56.6219 57.0409 56.6969C57.2768 56.8372 57.5194 56.9709 57.7619 57.0981L57.916 57.1764C58.27 57.359 58.6306 57.5319 59.001 57.6917C59.0764 57.7243 59.1583 57.757 59.2337 57.7896C59.2403 57.7928 59.2435 57.7928 59.25 57.7961C59.4238 57.8679 59.5975 57.9364 59.7745 58.0016C60.3559 58.2226 60.949 58.412 61.551 58.5691C63.0876 58.9766 64.671 59.1828 66.2612 59.1823C66.8414 59.1823 67.415 59.1562 67.9821 59.1008C69.2778 58.9818 70.5569 58.7248 71.7975 58.3343C71.8007 58.3343 71.804 58.331 71.8072 58.331C72.5909 58.0826 73.3565 57.7807 74.0985 57.4275C74.1017 57.4243 74.1082 57.4243 74.1116 57.421C74.2787 57.3427 74.4394 57.2579 74.6033 57.1764L74.6818 57.1372C74.8129 57.0687 74.9442 57.0002 75.0752 56.9285C75.403 56.7491 75.7242 56.5599 76.0421 56.3577C76.1306 56.3055 76.2159 56.2501 76.3044 56.1913C76.4289 56.1098 76.5534 56.025 76.6748 55.9369C76.8353 55.826 76.996 55.7119 77.1533 55.5945C77.2024 55.5586 77.2549 55.5227 77.3041 55.4836C80.3749 53.1642 82.6289 49.9368 83.743 46.2641C84.8571 42.5915 84.774 38.6621 83.5056 35.0394ZM76.701 54.691C76.5928 54.7758 76.4814 54.8573 76.3699 54.9323C76.2617 55.0139 76.1537 55.0922 76.0421 55.1639C75.947 55.2324 75.852 55.2976 75.7537 55.3596L75.7242 55.3792C75.6521 55.4281 75.58 55.4738 75.5079 55.5194C75.2358 55.689 74.9604 55.8521 74.6818 56.0087L74.5933 56.0576C74.4688 56.1261 74.3443 56.1914 74.2198 56.2566C74.2033 56.2664 74.1836 56.2729 74.1673 56.2827L74.1476 56.2925C73.9903 56.374 73.8296 56.4523 73.6691 56.5273C73.0493 56.8243 72.411 57.0814 71.7581 57.2971C71.6728 57.3264 71.5877 57.3558 71.5025 57.3819C70.3283 57.7535 69.1173 57.9985 67.8904 58.1125C67.3528 58.1614 66.8086 58.1875 66.2612 58.1875C64.7572 58.1906 63.2593 57.9954 61.8068 57.6069C61.0613 57.4133 60.3307 57.167 59.6205 56.8698C59.5844 56.8535 59.545 56.8404 59.509 56.8241C59.4698 56.8078 59.4336 56.7948 59.3976 56.7785C59.3582 56.7622 59.3222 56.7458 59.2828 56.7263C58.9747 56.5925 58.6699 56.4458 58.3717 56.2925L58.2275 56.2175C57.8635 56.0283 57.5063 55.8261 57.1588 55.6108C57.0572 55.5488 56.9524 55.4836 56.8539 55.4151C56.8279 55.3988 56.8048 55.3825 56.7786 55.3661C56.5459 55.2128 56.3132 55.053 56.087 54.8867C55.933 54.7725 55.7789 54.6584 55.6281 54.5409C55.3757 54.3518 55.1331 54.1495 54.8972 53.9408C54.7727 53.8364 54.6514 53.7223 54.5334 53.6146C54.0687 53.1876 53.6287 52.7346 53.2157 52.2578C53.0781 52.1012 52.9437 51.9446 52.8158 51.7816C52.7867 51.7493 52.7593 51.7156 52.7338 51.6805C50.6042 49.0063 49.3232 45.7615 49.0543 42.3599C48.7853 38.9583 49.5407 35.5541 51.2239 32.5814C52.9072 29.6087 55.4421 27.2023 58.5053 25.669C61.5685 24.1357 65.0213 23.5451 68.4233 23.9724C71.8252 24.3997 75.0221 25.8256 77.6064 28.0683C80.1906 30.311 82.045 33.2687 82.9331 36.5644C83.8212 39.8601 83.7027 43.3443 82.5928 46.5727C81.4828 49.8011 79.4317 52.6273 76.701 54.691Z" fill="#357ABA"/>
<path d="M83.5057 98.3749C82.6327 95.8791 81.2229 93.6027 79.3749 91.7047C77.5269 89.8066 75.285 88.3326 72.8057 87.3853C70.3263 86.438 67.6692 86.0403 65.0195 86.2199C62.3698 86.3994 59.7914 87.152 57.464 88.4251C55.1366 89.6982 53.1163 91.4611 51.544 93.591C49.9717 95.7208 48.8852 98.1663 48.3602 100.757C47.8353 103.348 47.8846 106.021 48.5047 108.591C49.1247 111.16 50.3006 113.565 51.9504 115.636C52.1143 115.841 52.2847 116.047 52.4584 116.246C52.4715 116.259 52.4813 116.272 52.4944 116.285C52.9218 116.775 53.3759 117.241 53.8548 117.681C53.9793 117.795 54.1104 117.912 54.2415 118.023C54.4907 118.245 54.7463 118.457 55.0118 118.659C55.5302 119.066 56.0708 119.444 56.631 119.791L56.6507 119.801C57.0145 120.026 57.3848 120.235 57.7619 120.434L57.9159 120.512C58.2699 120.695 58.6305 120.867 59.0009 121.027C59.0762 121.06 59.1582 121.093 59.2336 121.125C59.2401 121.128 59.2435 121.128 59.2501 121.132C59.9984 121.441 60.7672 121.7 61.5511 121.905C63.0876 122.312 64.671 122.518 66.2612 122.518C66.8413 122.518 67.4149 122.492 67.982 122.436C69.2777 122.317 70.5568 122.06 71.7974 121.67C71.8008 121.67 71.804 121.667 71.8072 121.667C72.5909 121.418 73.3564 121.116 74.0984 120.763C74.1016 120.76 74.1083 120.76 74.1115 120.757C74.2786 120.678 74.4393 120.594 74.6032 120.512L74.6819 120.473C74.813 120.404 74.9441 120.336 75.0752 120.264C75.403 120.085 75.7242 119.895 76.0422 119.693C76.1307 119.641 76.2159 119.586 76.3044 119.527C76.5928 119.338 76.878 119.135 77.1533 118.93C77.2026 118.894 77.2549 118.858 77.3042 118.819C80.3749 116.5 82.6289 113.272 83.743 109.6C84.857 105.927 84.774 101.998 83.5057 98.3749Z" fill="white"/>
<path d="M72 112.135C73.7289 112.135 75.1304 110.74 75.1304 109.02C75.1304 107.3 73.7289 105.905 72 105.905C70.2711 105.905 68.8696 107.3 68.8696 109.02C68.8696 110.74 70.2711 112.135 72 112.135Z" fill="#032A4E"/>
<path d="M73.1234 106.287C73.6038 106.287 74.076 106.402 74.4938 106.62C74.9115 106.839 75.2606 107.153 75.5069 107.534C75.7531 107.914 75.8881 108.346 75.8986 108.789C75.9091 109.231 75.7948 109.669 75.5669 110.058C75.8074 109.781 75.9827 109.46 76.0814 109.117C76.1801 108.774 76.2001 108.415 76.1401 108.065C76.0802 107.714 75.9416 107.378 75.7332 107.08C75.5248 106.781 75.2512 106.525 74.9297 106.33C74.6083 106.134 74.2461 106.002 73.8662 105.942C73.4863 105.882 73.0971 105.896 72.7233 105.982C72.3495 106.069 71.9994 106.226 71.6952 106.444C71.391 106.662 71.1394 106.936 70.9565 107.249C71.216 106.948 71.5456 106.706 71.9208 106.54C72.2961 106.373 72.7069 106.287 73.1234 106.287Z" fill="#032A4E"/>
<path d="M66.7826 109.02C71.393 109.02 75.1304 105.534 75.1304 101.233C75.1304 96.9322 71.393 93.4458 66.7826 93.4458C62.1722 93.4458 58.4348 96.9322 58.4348 101.233C58.4348 105.534 62.1722 109.02 66.7826 109.02Z" fill="#032A4E"/>
<path d="M60.8891 96.365C62.2705 94.8888 64.2015 93.9803 66.2746 93.8312C68.3476 93.6821 70.4005 94.3042 72 95.5661C71.9346 95.5068 71.8692 95.4472 71.8016 95.3897C70.2179 94.0416 68.1354 93.3465 66.0123 93.4573C63.8892 93.5681 61.8993 94.4758 60.4806 95.9807C59.0618 97.4856 58.3302 99.4644 58.4469 101.482C58.5635 103.499 59.5188 105.39 61.1025 106.738C61.1177 106.751 61.133 106.764 61.1483 106.777C61.2163 106.834 61.2863 106.889 61.3559 106.944C59.8497 105.582 58.9591 103.718 58.872 101.744C58.785 99.7702 59.508 97.8416 60.8891 96.365Z" fill="#032A4E"/>
<path d="M66.7826 109.02C69.6641 109.02 72 106.696 72 103.829C72 100.961 69.6641 98.6372 66.7826 98.6372C63.9011 98.6372 61.5652 100.961 61.5652 103.829C61.5652 106.696 63.9011 109.02 66.7826 109.02Z" fill="#A0616A"/>
<path d="M76.1739 116.923V118.653C75.8498 118.855 75.5224 119.045 75.1883 119.224C75.0547 119.296 74.9212 119.364 74.7875 119.433L74.7073 119.472C74.5403 119.554 74.3765 119.639 74.2062 119.717C74.2029 119.72 74.1961 119.72 74.1928 119.724C73.4366 120.077 72.6563 120.379 71.8575 120.628C71.8543 120.628 71.851 120.631 71.8476 120.631C70.5832 121.022 69.2795 121.279 67.9589 121.398C67.381 121.453 66.7964 121.48 66.205 121.48C64.5844 121.48 62.9705 121.274 61.4045 120.866C60.6056 120.661 59.822 120.402 59.0593 120.092C59.0526 120.089 59.0492 120.089 59.0425 120.086C58.9657 120.053 58.8822 120.021 58.8053 119.988C58.4279 119.828 58.0603 119.655 57.6995 119.472L57.5426 119.394C57.1583 119.195 56.7808 118.986 56.41 118.761L56.39 118.751C55.819 118.403 55.2681 118.025 54.7397 117.618C54.4691 117.416 54.2086 117.204 53.9546 116.982C53.821 116.871 53.6874 116.753 53.5605 116.639C53.0724 116.199 52.6095 115.732 52.1739 115.242C52.2317 114.902 52.3166 114.567 52.4279 114.24L52.4312 114.237C52.4512 114.181 52.4746 114.127 52.5013 114.074C52.5197 114.027 52.5409 113.981 52.5648 113.936C53.1628 112.843 54.2453 112.572 55.5882 112.513C56.3466 112.481 57.185 112.517 58.0705 112.507C58.5381 112.504 59.0224 112.487 59.5069 112.445C62.5637 112.174 62.0092 110.411 62.1461 109.462C62.2831 108.541 63.1317 109.338 63.1884 109.39L63.1917 109.393C64.9215 110.184 66.8353 110.512 68.7374 110.343C69.0648 110.304 69.3921 110.281 69.7195 110.271C70.5815 110.261 70.3944 110.503 70.0971 110.702C69.9529 110.795 69.8022 110.878 69.6461 110.95C69.6461 110.95 69.5091 111.766 69.3688 112.987C69.2352 114.155 71.5269 114.704 71.7173 114.746C71.7212 114.749 71.7259 114.75 71.7307 114.749C72.5676 114.537 73.4487 114.56 74.2731 114.814H74.2764C74.7474 114.984 75.1677 115.265 75.499 115.633C75.8304 116.002 76.0624 116.445 76.1739 116.923Z" fill="#851263"/>
<path d="M59.4745 119.349C59.4745 119.596 59.4688 119.832 59.4601 120.055C59.4572 120.188 59.4515 120.318 59.4457 120.441C59.4399 120.438 59.4369 120.438 59.4311 120.435C59.3646 120.401 59.2923 120.368 59.2258 120.335C58.8989 120.172 58.5808 119.995 58.2683 119.809L58.1325 119.729C57.7997 119.526 57.4729 119.313 57.1519 119.083C57.1605 118.967 57.1751 118.85 57.1895 118.734C57.2212 118.477 57.2474 118.218 57.2647 117.961C57.3784 116.16 57.0949 114.356 56.4404 112.715V112.711C56.3824 112.578 56.3478 112.505 56.3478 112.505C56.3478 112.505 57.1895 111.673 58.3898 112.505C58.4665 112.557 58.5342 112.624 58.5895 112.705C59.3126 113.687 59.5092 116.989 59.4745 119.349Z" fill="#032A4E"/>
<path d="M74.0334 118.407C74.0231 118.769 74.0076 119.147 73.9896 119.532V119.536C73.9871 119.539 73.9818 119.539 73.9793 119.542C73.3953 119.892 72.7928 120.192 72.176 120.438C72.1734 120.438 72.1709 120.441 72.1683 120.441L72.1399 119.532L72.1373 119.413L72.0006 114.988C71.997 114.888 72.0095 114.788 72.0376 114.694C72.0656 114.6 72.1085 114.514 72.1637 114.441C72.2189 114.369 72.2853 114.311 72.3588 114.272C72.4323 114.232 72.5114 114.212 72.5914 114.212H73.8993C73.9638 114.212 74.0103 114.377 74.0413 114.674V114.677C74.1047 115.919 74.1021 117.165 74.0334 118.407Z" fill="#032A4E"/>
<path d="M62.6087 97.599V102.79H63.7216L65.1379 101.152L64.9483 102.79H69.8679L69.5637 101.152L70.1722 102.79H70.9565V97.599H62.6087Z" fill="#032A4E"/>
<path d="M72.5217 103.829C72.8099 103.829 73.0435 103.364 73.0435 102.79C73.0435 102.217 72.8099 101.752 72.5217 101.752C72.2336 101.752 72 102.217 72 102.79C72 103.364 72.2336 103.829 72.5217 103.829Z" fill="#A0616A"/>
<path d="M77.2174 118.066C76.9849 118.244 76.7441 118.419 76.5005 118.583C76.4258 118.634 76.3539 118.682 76.2791 118.727C76.0106 118.903 75.7393 119.067 75.4625 119.222C75.3518 119.284 75.2411 119.344 75.1304 119.403V116.288C75.1304 116.288 75.5732 116.65 76.2791 117.252C76.3676 117.328 76.459 117.407 76.5559 117.492C76.7607 117.667 76.9822 117.86 77.2174 118.066Z" fill="#851263"/>
<path d="M83.5057 98.3749C82.6327 95.8791 81.2229 93.6027 79.3749 91.7047C77.5269 89.8066 75.285 88.3326 72.8057 87.3853C70.3263 86.438 67.6692 86.0403 65.0195 86.2199C62.3698 86.3994 59.7914 87.152 57.464 88.4251C55.1366 89.6982 53.1163 91.4611 51.544 93.591C49.9717 95.7208 48.8852 98.1663 48.3602 100.757C47.8353 103.348 47.8846 106.021 48.5047 108.591C49.1247 111.16 50.3006 113.565 51.9504 115.636C52.1143 115.841 52.2847 116.047 52.4584 116.246C52.4715 116.259 52.4813 116.272 52.4944 116.285C52.9218 116.775 53.3759 117.241 53.8548 117.681C53.9793 117.795 54.1104 117.912 54.2415 118.023C54.4907 118.245 54.7463 118.457 55.0118 118.659C55.5302 119.066 56.0708 119.444 56.631 119.791L56.6507 119.801C57.0145 120.026 57.3848 120.235 57.7619 120.434L57.9159 120.512C58.2699 120.695 58.6305 120.867 59.0009 121.027C59.0762 121.06 59.1582 121.093 59.2336 121.125C59.2401 121.128 59.2435 121.128 59.2501 121.132C59.9984 121.441 60.7672 121.7 61.5511 121.905C63.0876 122.312 64.671 122.518 66.2612 122.518C66.8413 122.518 67.4149 122.492 67.982 122.436C69.2777 122.317 70.5568 122.06 71.7974 121.67C71.8008 121.67 71.804 121.667 71.8072 121.667C72.5909 121.418 73.3564 121.116 74.0984 120.763C74.1016 120.76 74.1083 120.76 74.1115 120.757C74.2786 120.678 74.4393 120.594 74.6032 120.512L74.6819 120.473C74.813 120.404 74.9441 120.336 75.0752 120.264C75.403 120.085 75.7242 119.895 76.0422 119.693C76.1307 119.641 76.2159 119.586 76.3044 119.527C76.5928 119.338 76.878 119.135 77.1533 118.93C77.2026 118.894 77.2549 118.858 77.3042 118.819C80.3749 116.5 82.6289 113.272 83.743 109.6C84.857 105.927 84.774 101.998 83.5057 98.3749ZM76.701 118.027C76.5928 118.111 76.4814 118.193 76.37 118.268C76.2618 118.349 76.1536 118.428 76.0422 118.499C75.9471 118.568 75.8521 118.633 75.7537 118.695C75.6717 118.751 75.5898 118.803 75.5078 118.855C75.2359 119.025 74.9606 119.188 74.6819 119.344L74.5933 119.393C74.4688 119.462 74.3442 119.527 74.2197 119.592C74.2032 119.602 74.1836 119.608 74.1673 119.618L74.1476 119.628C73.9902 119.71 73.8297 119.788 73.669 119.863C73.0492 120.16 72.4109 120.417 71.758 120.633C71.6729 120.662 71.5876 120.691 71.5024 120.717C70.3282 121.089 69.1172 121.334 67.8903 121.448C67.3527 121.497 66.8085 121.523 66.2612 121.523C64.7571 121.526 63.2592 121.331 61.8067 120.943C61.0612 120.749 60.3306 120.503 59.6204 120.205C59.545 120.176 59.4696 120.143 59.3975 120.114C59.3582 120.098 59.3221 120.081 59.2827 120.062C58.9746 119.928 58.6699 119.781 58.3716 119.628L58.2274 119.553C57.8636 119.364 57.5062 119.162 57.1587 118.946C57.031 118.868 56.9031 118.787 56.7786 118.702C56.3852 118.444 56.0017 118.167 55.628 117.877C55.3756 117.687 55.1331 117.485 54.8971 117.276C54.7725 117.172 54.6512 117.058 54.5333 116.95C54.0685 116.523 53.6286 116.07 53.2156 115.593C53.078 115.437 52.9435 115.28 52.8156 115.117C52.7866 115.085 52.7592 115.051 52.7337 115.016C50.604 112.342 49.323 109.097 49.0541 105.695C48.7852 102.294 49.5405 98.8896 51.2238 95.9169C52.907 92.9443 55.4419 90.5378 58.5052 89.0045C61.5684 87.4713 65.0212 86.8806 68.4232 87.3079C71.8251 87.7353 75.0221 89.1612 77.6063 91.4038C80.1906 93.6465 82.045 96.6043 82.9331 99.9C83.8212 103.196 83.7027 106.68 82.5927 109.908C81.4828 113.137 79.4317 115.963 76.701 118.027Z" fill="#357ABA"/>
<path d="M66.2609 175.47C70.0068 175.47 73.0435 172.216 73.0435 168.202C73.0435 164.188 70.0068 160.934 66.2609 160.934C62.515 160.934 59.4783 164.188 59.4783 168.202C59.4783 172.216 62.515 175.47 66.2609 175.47Z" fill="#032A4E"/>
<path d="M60.577 164.385C61.7328 163.235 61.967 161.604 61.1002 160.741C60.2334 159.879 58.5937 160.112 57.4379 161.262C56.2821 162.412 56.0479 164.043 56.9147 164.906C57.7816 165.769 59.4212 165.535 60.577 164.385Z" fill="#032A4E"/>
<path d="M73.6144 162.126C74.0959 161.004 73.2678 159.577 71.7647 158.938C70.2615 158.299 68.6526 158.69 68.1711 159.812C67.6895 160.934 68.5176 162.361 70.0208 163C71.5239 163.639 73.1328 163.247 73.6144 162.126Z" fill="#032A4E"/>
<path d="M74.6215 181.745L73.8227 180.469C73.4838 179.7 72.8587 179.098 72.0842 178.797C71.3097 178.495 70.449 178.517 69.6907 178.859C68.9323 179.2 68.3381 179.833 68.0382 180.618C67.7383 181.404 67.7571 182.278 68.0905 183.049L68.3176 183.877L68.5761 184.815C69.6226 184.681 70.6551 184.452 71.6614 184.131C71.6644 184.131 71.6672 184.129 71.6692 184.127C72.4131 183.888 73.1393 183.596 73.8424 183.252C73.8463 183.248 73.8501 183.248 73.8541 183.244C74.0107 183.169 74.1634 183.089 74.32 183.01C74.3456 182.998 74.3704 182.985 74.3944 182.97C74.5196 182.906 74.645 182.839 74.7664 182.771C74.8916 182.703 75.013 182.632 75.1304 182.556L74.6215 181.745Z" fill="#CACACA"/>
<path d="M66.2609 175.47C69.4305 175.47 72 172.914 72 169.76C72 166.606 69.4305 164.049 66.2609 164.049C63.0912 164.049 60.5217 166.606 60.5217 169.76C60.5217 172.914 63.0912 175.47 66.2609 175.47Z" fill="#FFB6B6"/>
<path d="M74.6697 181.876C74.0312 180.643 73.2388 179.526 72.3181 178.563C71.6876 177.908 70.8715 177.547 70.0258 177.547H61.8724C61.4026 177.547 60.9378 177.659 60.5066 177.875C60.0754 178.092 59.6871 178.409 59.3655 178.807C59.044 179.205 58.7962 179.676 58.6373 180.189C58.4784 180.703 58.4118 181.249 58.4418 181.794C58.4596 182.101 58.5072 182.405 58.5837 182.7C58.6418 182.914 58.7142 183.122 58.8003 183.322L59.202 184.256C59.2335 184.27 59.2651 184.288 59.2964 184.302C59.3043 184.306 59.3084 184.306 59.3122 184.311C59.4776 184.389 59.6432 184.467 59.8124 184.54C60.3667 184.786 60.9321 184.997 61.5062 185.171C62.4303 185.46 63.3737 185.657 64.3263 185.762C64.8817 185.821 65.4371 185.853 65.9964 185.853C66.5518 185.853 67.0953 185.821 67.6388 185.762C67.8162 185.743 67.9933 185.721 68.1706 185.698C69.2233 185.543 70.262 185.28 71.2743 184.911C71.2773 184.91 71.2801 184.908 71.2822 184.906C72.0305 184.631 72.761 184.294 73.4684 183.899C73.4722 183.895 73.4761 183.895 73.4801 183.89C73.6376 183.803 73.7913 183.712 73.9488 183.62C73.9745 183.607 73.9995 183.591 74.0236 183.574C74.1496 183.501 74.2757 183.423 74.3979 183.345C74.5238 183.268 74.6459 183.185 74.764 183.098C74.8902 183.02 75.0083 182.934 75.1304 182.847C74.9809 182.503 74.8272 182.183 74.6697 181.876Z" fill="#CACACA"/>
<path d="M62.9498 178.878C62.2245 178.53 61.3943 178.491 60.6408 178.769C59.8872 179.047 59.2717 179.621 58.9287 180.363L58.2318 181.444L57.8986 181.961L57.3913 182.747C57.4972 182.805 57.5995 182.863 57.7056 182.922L57.8456 182.996C58.1713 183.167 58.5006 183.33 58.8416 183.482C58.8793 183.501 58.9211 183.517 58.9627 183.536C58.993 183.548 59.0233 183.563 59.0535 183.575C59.061 183.579 59.0649 183.579 59.0686 183.583C59.2276 183.649 59.3868 183.715 59.5495 183.777C60.0824 183.986 60.6259 184.165 61.1778 184.314C62.0662 184.558 62.9731 184.726 63.8889 184.815L64.154 183.894L64.4116 183.015C64.751 182.267 64.7878 181.412 64.5137 180.636C64.2397 179.861 63.6773 179.229 62.9498 178.878Z" fill="#CACACA"/>
<path d="M60.5217 166.441C61.8669 167.45 63.4635 167.987 65.0972 167.979C64.5145 168.419 63.851 168.716 63.1526 168.85C65.3248 169.357 67.5697 169.371 69.7469 168.89C70.2309 168.806 70.6979 168.631 71.1274 168.374C71.3414 168.244 71.5279 168.067 71.6747 167.853C71.8215 167.639 71.9253 167.395 71.9795 167.134C72.1241 166.235 71.4801 165.418 70.8108 164.867C69.7861 164.037 68.6046 163.465 67.3518 163.193C66.0989 162.92 64.8061 162.954 63.5669 163.292C62.7412 163.473 61.9898 163.935 61.4215 164.612C61.1465 164.956 60.9805 165.387 60.9479 165.842C60.9154 166.297 61.0182 166.751 61.2409 167.137L60.5217 166.441Z" fill="#032A4E"/>
<path d="M83.5093 161.711C82.6363 159.216 81.2266 156.939 79.3785 155.041C77.5303 153.143 75.2883 151.668 72.8086 150.721C70.329 149.774 67.6715 149.376 65.0214 149.555C62.3714 149.735 59.7926 150.487 57.4649 151.76C55.1372 153.033 53.1166 154.796 51.5441 156.926C49.9716 159.056 48.885 161.502 48.3601 164.092C47.8352 166.683 47.8846 169.356 48.505 171.926C49.1253 174.496 50.3015 176.9 51.9517 178.971C52.1127 179.177 52.2864 179.382 52.46 179.579C52.4699 179.594 52.481 179.608 52.4931 179.621C52.921 180.11 53.3762 180.575 53.8566 181.014C53.9805 181.129 54.1086 181.249 54.241 181.36C54.4887 181.582 54.745 181.791 55.0135 181.993C55.1169 182.075 55.2202 182.157 55.3277 182.235C55.745 182.552 56.183 182.844 56.6293 183.128C56.637 183.128 56.6443 183.131 56.6499 183.136C56.778 183.214 56.9104 183.292 57.0425 183.366C57.1664 183.44 57.2945 183.514 57.4186 183.584C57.5342 183.646 57.6458 183.707 57.7616 183.769L57.9144 183.847C58.2699 184.028 58.6292 184.201 59.0013 184.361C59.0425 184.381 59.0881 184.398 59.1335 184.418C59.1665 184.431 59.1996 184.447 59.2325 184.46C59.2408 184.464 59.245 184.464 59.249 184.468C59.4226 184.538 59.5963 184.608 59.7738 184.673C60.3553 184.895 60.9485 185.084 61.5508 185.241C62.5203 185.5 63.51 185.677 64.5093 185.771C65.0921 185.825 65.6748 185.853 66.2615 185.853C66.8442 185.853 67.4144 185.825 67.9846 185.771C68.1706 185.755 68.3565 185.734 68.5425 185.714C69.6469 185.575 70.7366 185.338 71.7986 185.006C71.8018 185.006 71.8047 185.005 71.8069 185.002C72.5919 184.755 73.3583 184.453 74.1004 184.098C74.1044 184.094 74.1085 184.094 74.1127 184.09C74.2779 184.011 74.4391 183.929 74.6044 183.847C74.6314 183.835 74.6576 183.821 74.6829 183.806C74.815 183.74 74.9474 183.67 75.0755 183.6C75.2077 183.53 75.3357 183.456 75.4597 183.378C75.5921 183.308 75.7159 183.23 75.8441 183.152C75.9102 183.111 75.9764 183.07 76.0424 183.029C76.1334 182.975 76.2159 182.922 76.3069 182.86C76.4308 182.782 76.5549 182.696 76.6746 182.609C76.8358 182.498 76.997 182.383 77.154 182.264C77.2069 182.23 77.2579 182.193 77.3069 182.153C80.3756 179.832 82.628 176.605 83.742 172.934C84.856 169.262 84.7745 165.334 83.5093 161.711ZM76.7036 181.36C76.5961 181.446 76.4845 181.528 76.3731 181.602C76.2613 181.684 76.154 181.763 76.0424 181.837C75.9474 181.902 75.8524 181.968 75.7533 182.03C75.7443 182.038 75.7346 182.044 75.7242 182.05C75.654 182.1 75.5796 182.145 75.5094 182.19C75.4597 182.219 75.4103 182.252 75.3607 182.281C75.216 182.371 75.0713 182.457 74.9226 182.54C74.8441 182.589 74.7614 182.634 74.6829 182.679C74.6541 182.696 74.625 182.712 74.5961 182.729C74.468 182.799 74.3441 182.86 74.22 182.926C74.2037 182.938 74.1829 182.943 74.1706 182.955C74.1629 182.955 74.1555 182.958 74.1498 182.963C73.9929 183.045 73.8317 183.123 73.6706 183.197C73.0502 183.495 72.4111 183.751 71.7573 183.966C71.6747 183.995 71.588 184.028 71.5053 184.053C70.4514 184.385 69.3679 184.617 68.2697 184.743C68.1458 184.76 68.0177 184.772 67.8896 184.784C67.3525 184.834 66.8111 184.858 66.2615 184.858C65.7738 184.858 65.2821 184.838 64.7987 184.797C63.788 184.713 62.7868 184.54 61.8071 184.279C61.0613 184.085 60.3307 183.838 59.6211 183.539C59.5838 183.522 59.5467 183.51 59.5096 183.493C59.4682 183.477 59.4351 183.465 59.398 183.448C59.3566 183.432 59.3235 183.415 59.2822 183.395C59.0136 183.28 58.7451 183.152 58.4848 183.021C58.4475 183 58.4103 182.984 58.3732 182.963L58.2286 182.889C58.1418 182.844 58.055 182.799 57.9723 182.753C57.6955 182.605 57.4227 182.445 57.1584 182.281C57.0591 182.219 56.9518 182.153 56.8525 182.087L56.778 182.038C56.5466 181.882 56.3154 181.726 56.088 181.557C55.9351 181.442 55.7781 181.331 55.6294 181.212C55.3774 181.023 55.1334 180.821 54.898 180.611C54.7739 180.509 54.65 180.393 54.5344 180.287C54.0691 179.86 53.6289 179.407 53.2162 178.93C53.0799 178.774 52.9435 178.617 52.8153 178.453C52.7865 178.42 52.7617 178.387 52.7326 178.35C50.6023 175.676 49.3208 172.431 49.0516 169.029C48.7824 165.627 49.5377 162.223 51.2211 159.25C52.9045 156.277 55.4397 153.87 58.5035 152.337C61.5673 150.803 65.0207 150.212 68.4234 150.639C71.826 151.067 75.0237 152.493 77.6086 154.735C80.1934 156.978 82.0483 159.936 82.9367 163.232C83.825 166.528 83.7066 170.012 82.5965 173.241C81.4864 176.469 79.4348 179.296 76.7036 181.36Z" fill="#357ABA"/>
<path d="M45.6971 81.2312C50.4158 77.2469 56.1902 74.721 62.3175 73.9607C68.4448 73.2004 74.6608 74.2385 80.2092 76.9488C85.7576 79.659 90.3992 83.9245 93.569 89.2263C96.7389 94.528 98.3004 100.637 98.0635 106.811C97.8267 112.985 95.8017 118.956 92.2349 123.999C88.6682 129.042 83.7135 132.939 77.9738 135.216C72.234 137.492 65.9567 138.05 59.9057 136.822C53.8547 135.594 48.2909 132.633 43.8913 128.298L4.82349 161.284C4.22873 161.784 3.46004 162.028 2.68589 161.962C1.91174 161.896 1.19533 161.526 0.69371 160.932C0.192085 160.338 -0.0538177 159.57 0.00991058 158.795C0.0736465 158.02 0.441818 157.302 1.0337 156.799L1.03802 156.795L40.1058 123.809C35.5674 117.291 33.6249 109.313 34.6592 101.436C35.6935 93.5603 39.6299 86.3545 45.6971 81.2312ZM48.2156 120.633C51.2592 124.242 55.304 126.867 59.8385 128.176C64.3731 129.485 69.1937 129.419 73.6909 127.987C78.188 126.554 82.1597 123.82 85.1036 120.129C88.0475 116.437 89.8314 111.956 90.2298 107.25C90.6282 102.545 89.6232 97.8264 87.3418 93.6924C85.0604 89.5583 81.6052 86.194 77.4129 84.025C73.2207 81.8559 68.4799 80.9795 63.7899 81.5065C59.0998 82.0335 54.6713 83.9403 51.0644 86.9858C46.2275 91.0696 43.2101 96.9088 42.6759 103.219C42.1416 109.529 44.1343 115.793 48.2156 120.633Z" fill="#696A6B"/>
<path opacity="0.3" d="M47.1892 127.7C41.0114 122.574 37.02 115.352 36.0077 107.468C34.9954 99.5836 37.0361 91.6132 41.7246 85.1395C41.1089 85.7491 40.5136 86.3876 39.9389 87.0549C37.2117 90.2323 35.1478 93.9068 33.865 97.8685C32.5823 101.83 32.1058 106.001 32.4628 110.144C32.8198 114.287 34.0033 118.32 35.9457 122.013C37.888 125.706 40.5513 128.986 43.7834 131.668C47.0154 134.349 50.753 136.378 54.7827 137.639C58.8124 138.9 63.0554 139.368 67.2692 139.017C71.483 138.666 75.5853 137.503 79.3418 135.593C83.0983 133.684 86.4354 131.066 89.1626 127.888C89.736 127.22 90.276 126.536 90.7826 125.835C85.0803 131.468 77.4319 134.787 69.356 135.132C61.2801 135.477 53.3674 132.824 47.1892 127.7Z" fill="#121516"/>
</g>
<defs>
<clipPath id="clip0_509_34813">
<rect width="240" height="208.696" fill="white"/>
</clipPath>
</defs>
</svg>
