<svg width="83" height="96" viewBox="0 0 83 96" fill="none" xmlns="http://www.w3.org/2000/svg">
<g id="vectors" clip-path="url(#clip0_2047_14449)">
<path id="Path 3" d="M62.3437 75.4484C62.3086 75.4046 62.2739 75.3607 62.2394 75.3167C62.205 75.2727 62.1706 75.2285 62.1364 75.1843C62.1023 75.1401 62.0683 75.0957 62.0344 75.0512C62.0006 75.0067 61.9669 74.962 61.9333 74.917C61.8772 73.6277 61.8764 72.3497 61.931 71.083C61.9843 69.8254 62.0921 68.5829 62.2544 67.3555C62.4146 66.1373 62.627 64.9379 62.8915 63.7573C63.1538 62.5858 63.4664 61.4363 63.8295 60.309C63.8709 60.179 63.913 60.0496 63.9558 59.9206C63.9987 59.7917 64.0423 59.6636 64.0868 59.5363C64.1311 59.4085 64.1761 59.2812 64.2219 59.1545C64.2677 59.0277 64.3141 58.9015 64.3612 58.7757C64.7109 57.8344 65.0957 56.9161 65.5158 56.0209C65.9329 55.1319 66.3834 54.2674 66.8673 53.4276C67.3475 52.5937 67.8594 51.7854 68.4031 51.0029C68.943 50.2262 69.5129 49.4766 70.1128 48.7542L70.2073 48.6408L70.3022 48.5282L70.3974 48.416L70.4928 48.3045L70.5616 48.2245L70.6311 48.1447C70.6544 48.1183 70.6777 48.0919 70.7012 48.0656C70.7247 48.0394 70.7485 48.0134 70.7727 47.9877L70.8296 47.9569L70.8863 47.9263L70.9427 47.8959L70.9989 47.8655L71.0024 47.8644L71.006 47.8627L71.0095 47.8611L71.0131 47.8598L71.0358 47.8475L71.0581 47.8352L71.0801 47.8228L71.1015 47.8104L71.1995 47.7585L71.2971 47.7074L71.3947 47.6565L71.4915 47.6051L71.4177 47.5685L71.2321 47.4773L71.2333 47.4766C71.2493 47.4833 71.2651 47.4904 71.2808 47.4979C71.2964 47.5053 71.3122 47.5126 71.328 47.5195C71.344 47.5268 71.3597 47.5342 71.3752 47.5414C71.3907 47.5487 71.4063 47.5562 71.4221 47.5639L71.44 47.5714L71.4582 47.5791L71.4766 47.5868C71.4828 47.5892 71.4887 47.5921 71.4944 47.5955C71.4995 47.5982 71.5048 47.6004 71.5104 47.6022L71.5263 47.6089L71.5423 47.6157L71.5583 47.6224C72.2344 47.9283 72.9124 48.2389 73.5815 48.5646C74.2506 48.8903 74.9094 49.2297 75.5504 49.595C76.1897 49.9575 76.8092 50.3529 77.4064 50.7796C78.002 51.2042 78.5656 51.6708 79.093 52.1757C79.6495 52.7125 80.1472 53.3056 80.578 53.9452C81.004 54.5736 81.3544 55.249 81.622 55.9575C81.8793 56.632 82.0327 57.3408 82.0769 58.0603C82.1196 58.7523 82.021 59.4457 81.787 60.0993C81.7554 60.1845 81.7213 60.2686 81.6847 60.3514C81.6481 60.4343 81.609 60.5159 81.5676 60.5962C81.5262 60.6766 81.4823 60.7555 81.4359 60.833C81.3895 60.9105 81.3408 60.9866 81.2899 61.0613C81.2686 61.0924 81.2468 61.1233 81.2247 61.1538C81.2025 61.1844 81.1801 61.2147 81.1574 61.2447C81.1346 61.2748 81.1115 61.3047 81.0882 61.3345C81.0648 61.3643 81.0412 61.3938 81.0173 61.4232C80.5745 61.9727 80.0118 62.4165 79.371 62.7214C78.7268 63.0253 78.0267 63.1967 77.3132 63.2252C76.5635 63.2561 75.8145 63.1488 75.1046 62.9087C74.3432 62.6521 73.6357 62.2603 73.0169 61.7525C72.8031 61.578 72.6004 61.3906 72.4101 61.1914C72.2215 60.9939 72.0456 60.7851 71.8833 60.5661C71.7223 60.349 71.5754 60.122 71.4433 59.8867C71.3123 59.6531 71.1969 59.4113 71.0976 59.1629C71.0509 59.9344 71.1722 60.7069 71.4533 61.4283C71.7499 62.1867 72.153 62.9001 72.6509 63.5475C73.1768 64.2369 73.7603 64.8816 74.3953 65.4748C75.0345 66.08 75.7136 66.6472 76.3843 67.1697C77.0549 67.6921 77.7493 68.2264 78.4216 68.7837C79.0932 69.3316 79.7326 69.9169 80.3365 70.5368C80.9222 71.1357 81.4404 71.7956 81.8817 72.505C82.3153 73.2052 82.6287 73.9713 82.8093 74.7724C83.0027 75.6451 82.9929 76.5496 82.7807 77.418C82.6776 77.8404 82.5306 78.2513 82.3422 78.6441C82.1523 79.04 81.9247 79.4173 81.6626 79.7708L81.638 79.8031L81.6135 79.8353L81.5885 79.8674L81.5629 79.8993C80.9232 80.7248 80.1201 81.4132 79.2025 81.9227C78.7406 82.179 78.2537 82.3889 77.7493 82.5492C77.2329 82.7133 76.7013 82.8263 76.1622 82.8864C75.1367 82.9797 74.1029 82.9213 73.0948 82.713C72.0569 82.4984 71.0478 82.1651 70.088 81.7198C69.0957 81.2613 68.1471 80.7156 67.2538 80.0893C66.3526 79.4596 65.4993 78.7656 64.701 78.0127C64.4889 77.8131 64.2806 77.6098 64.0761 77.4029C63.8716 77.1959 63.671 76.9856 63.4744 76.7718C63.2774 76.5578 63.0849 76.3406 62.8967 76.1202C62.7085 75.8997 62.5241 75.6758 62.3437 75.4484Z" fill="#EFC6E3"/>
<path id="Path 4" d="M78.831 60.5094C78.1972 60.1847 77.5878 59.8155 77.0075 59.4047C75.8483 58.5844 74.8127 57.606 73.9316 56.4987C73.4947 55.9493 73.099 55.3692 72.7476 54.7629C72.4544 54.2507 72.1942 53.7208 71.9684 53.1764C71.7479 52.6452 71.5626 52.1005 71.4135 51.5457C71.2679 51.0037 71.1594 50.4527 71.0888 49.8964C71.0194 49.3515 70.989 48.8025 70.9977 48.2533C70.9986 48.2224 70.9993 48.1916 70.9999 48.161C71.0006 48.1305 71.0013 48.0997 71.0021 48.0687C71.0029 48.0378 71.0041 48.0072 71.0057 47.9771L71.0103 47.8858C70.9837 47.9065 70.9571 47.9274 70.9306 47.9485L70.8513 48.0122L70.7724 48.0764L70.6937 48.1407L70.6432 48.1821L70.5925 48.2237L70.5421 48.2656L70.4922 48.3076L70.5609 48.2277L70.6315 48.1453C70.6548 48.1188 70.6782 48.0924 70.7017 48.0662C70.7251 48.0399 70.749 48.0139 70.7732 47.9882L70.8301 47.9574L70.8868 47.9269L70.942 47.8965L70.9982 47.8661L71.0017 47.865L71.0053 47.8633L71.0088 47.8617L71.0124 47.8604L71.0351 47.8481L71.0576 47.8358L71.0795 47.8235L71.101 47.8111L71.199 47.7592L71.2966 47.7081L71.3942 47.6572L71.4918 47.6061L71.4155 47.5686L71.2299 47.4773L71.2312 47.4766C71.2472 47.4833 71.263 47.4904 71.2786 47.4979C71.2943 47.5053 71.31 47.5126 71.3259 47.5195C71.3419 47.5268 71.3576 47.5342 71.3731 47.5414C71.3885 47.5487 71.4042 47.5562 71.42 47.5639L71.4379 47.5714L71.4561 47.5791L71.4745 47.5868C71.4806 47.5892 71.4865 47.5921 71.4921 47.5954L71.4904 47.6245L71.4883 47.6517L71.4867 47.6789L71.4852 47.7064C71.4167 48.6313 71.4656 49.5611 71.6305 50.4741C71.8001 51.414 72.0786 52.3314 72.4603 53.2085C72.8548 54.1164 73.3479 54.9793 73.931 55.782C74.5335 56.6125 75.2238 57.3772 75.9902 58.0634C76.7617 58.7445 77.6032 59.344 78.501 59.8522C78.9445 60.1031 79.4011 60.3305 79.8689 60.5336C80.3328 60.7347 80.8074 60.9107 81.2906 61.061C81.2693 61.0922 81.2476 61.123 81.2255 61.1536C81.2033 61.1841 81.1809 61.2144 81.1582 61.2445C81.1354 61.2745 81.1123 61.3044 81.0889 61.3342C81.0656 61.364 81.042 61.3936 81.0181 61.4229C80.8317 61.3619 80.6463 61.2971 80.4619 61.2284C80.2776 61.1597 80.0941 61.0872 79.9116 61.011C79.7291 60.9347 79.5478 60.8547 79.3678 60.7709C79.1878 60.6872 79.0089 60.6 78.831 60.5094Z" fill="white"/>
<path id="Path 5" d="M66.2927 67.4243C66.0852 67.1184 65.8893 66.8068 65.7051 66.4896C65.5209 66.1724 65.3487 65.8508 65.1886 65.5246C65.0285 65.1984 64.8807 64.8682 64.745 64.5338C64.6094 64.1995 64.4866 63.8622 64.3765 63.5219C64.3203 63.3415 64.2684 63.1604 64.2209 62.9787C64.1734 62.797 64.1304 62.615 64.0919 62.4327C64.0533 62.2504 64.0191 62.0676 63.9892 61.8845C63.9593 61.7014 63.9341 61.5184 63.9135 61.3356C63.903 61.2504 63.8936 61.1651 63.8853 61.0795C63.877 60.994 63.8697 60.9086 63.8632 60.8232C63.8567 60.7377 63.8513 60.6523 63.8468 60.567C63.8423 60.4817 63.8387 60.3966 63.8359 60.3115C63.8773 60.1816 63.9194 60.0521 63.9623 59.9232C64.0051 59.7942 64.0487 59.6658 64.0929 59.538C64.1372 59.4101 64.1822 59.2828 64.228 59.1561C64.2738 59.0294 64.3203 58.9031 64.3677 58.7773C64.3574 58.8827 64.3485 58.9884 64.3412 59.0943C64.3339 59.2002 64.3281 59.3064 64.3238 59.4129C64.3195 59.5195 64.3166 59.6263 64.3154 59.7334C64.3141 59.8405 64.3143 59.9478 64.316 60.0553C64.3158 60.1138 64.3163 60.1724 64.3176 60.231C64.3188 60.2895 64.3204 60.3481 64.3223 60.4067C64.3244 60.4653 64.327 60.5238 64.3301 60.5824C64.3332 60.641 64.3367 60.6996 64.3407 60.7582C64.3863 61.4155 64.4908 62.0676 64.6528 62.7068C64.817 63.3536 65.0311 63.9872 65.2933 64.6018C65.5604 65.2282 65.8686 65.8368 66.2157 66.4237C66.5687 67.021 66.9547 67.5986 67.3719 68.154C67.821 68.7535 68.2957 69.3373 68.796 69.9053C69.2963 70.4733 69.8156 71.0257 70.3539 71.5626C70.8927 72.099 71.4473 72.6188 72.0177 73.122C72.5881 73.6252 73.168 74.111 73.7575 74.5794C74.361 75.0603 74.9768 75.523 75.6049 75.9674C76.2329 76.4118 76.8712 76.8367 77.5197 77.2421C78.1679 77.6474 78.8259 78.0329 79.4936 78.3988C80.1614 78.7646 80.8367 79.1095 81.5195 79.4334C81.5508 79.4486 81.5791 79.4692 81.603 79.4944C81.6263 79.519 81.6452 79.5474 81.6588 79.5783C81.6723 79.6089 81.6803 79.6415 81.6824 79.6748C81.6845 79.7082 81.6801 79.7418 81.6693 79.7736C81.6658 79.7874 81.6609 79.8007 81.6546 79.8135C81.6486 79.8259 81.6413 79.8377 81.6328 79.8487C81.6244 79.8595 81.6149 79.8695 81.6045 79.8785C81.5939 79.8872 81.5825 79.8949 81.5704 79.9014C81.5576 79.9071 81.5441 79.9113 81.5303 79.9137C81.5164 79.9161 81.5022 79.9169 81.4882 79.9159C81.4738 79.915 81.4596 79.9123 81.4458 79.9081C81.4316 79.9039 81.4179 79.8981 81.405 79.8909C81.3205 79.8509 81.2362 79.8108 81.1519 79.7705C81.0676 79.7302 80.9835 79.6897 80.8995 79.649C80.8155 79.6082 80.7316 79.567 80.6479 79.5255C80.5641 79.4839 80.4805 79.4418 80.3969 79.3991C79.7009 79.0461 79.0142 78.672 78.3368 78.2767C77.6594 77.8815 76.9922 77.4656 76.3352 77.0291C75.6784 76.5927 75.0334 76.1367 74.4004 75.6611C73.7673 75.1855 73.1476 74.691 72.5412 74.1776C71.9555 73.6833 71.3773 73.1723 70.8129 72.644C70.2485 72.1156 69.6982 71.5703 69.1685 71.0076C68.6388 70.4448 68.1301 69.865 67.6483 69.2677C67.1664 68.6703 66.7128 68.0562 66.2927 67.4243Z" fill="white"/>
<path id="Path 1" d="M79.4019 18.3247L78.9034 18.3887L82.2459 6.00315C82.4922 5.17612 82.5323 4.30256 82.3628 3.45692C82.2157 2.76597 81.852 2.13828 81.3232 1.66292C80.7693 1.18763 80.0906 0.876643 79.3654 0.765838C78.4821 0.630791 77.5804 0.670649 76.7129 0.883093L53.9959 5.99064C53.203 6.18056 52.4441 6.48879 51.7453 6.90469C50.9854 7.35083 50.2787 7.87987 49.6384 8.48184C48.9797 9.09568 48.3884 9.77642 47.8744 10.5128C47.3723 11.2255 46.963 11.9977 46.6561 12.8113L22.8874 77.3539C22.4922 78.4152 22.2355 79.5218 22.1234 80.6471C22.0194 81.6461 22.0685 82.6548 22.269 83.6394C22.4365 84.4948 22.7862 85.3054 23.2949 86.0173C23.7615 86.6646 24.4189 87.1541 25.1775 87.4192L49.1795 95.5768C50.2457 95.9352 51.3902 96.0025 52.492 95.7715C53.6698 95.5182 54.7776 95.0146 55.7382 94.2957C56.8169 93.4955 57.7445 92.5141 58.4786 91.3963C59.2916 90.1683 59.899 88.819 60.2777 87.4003L76.3693 27.7761L76.8742 27.7362L79.4019 18.3247Z" fill="#2F2E41"/>
<path id="Path 1_2" d="M77.6675 17.6372L77.169 17.7012L80.5116 5.31565C80.7579 4.48862 80.798 3.61506 80.6284 2.76942C80.4814 2.07847 80.1176 1.45078 79.5888 0.975421C79.035 0.500132 78.3563 0.189143 77.631 0.0783376C76.7477 -0.0567091 75.8461 -0.0168508 74.9785 0.195593L52.2615 5.30314C51.4686 5.49306 50.7097 5.80129 50.011 6.21719C49.251 6.66333 48.5443 7.19237 47.904 7.79434C47.2453 8.40818 46.654 9.08892 46.14 9.82525C45.6379 10.538 45.2286 11.3102 44.9217 12.1238L21.153 76.6664C20.7579 77.7277 20.5011 78.8343 20.389 79.9596C20.285 80.9586 20.3341 81.9673 20.5347 82.9519C20.7021 83.8073 21.0518 84.6179 21.5605 85.3298C22.0271 85.9771 22.6845 86.4666 23.4431 86.7317L47.4451 94.8893C48.5113 95.2477 49.6558 95.315 50.7576 95.084C51.9354 94.8307 53.0432 94.3271 54.0038 93.6082C55.0825 92.808 56.0102 91.8266 56.7442 90.7088C57.5572 89.4808 58.1646 88.1315 58.5433 86.7128L74.6349 27.0886L75.1398 27.0487L77.6675 17.6372Z" fill="#3F3D56"/>
<path id="Path 2" d="M74.7778 1.81096L71.4385 2.53319C71.475 2.81842 71.4462 3.1081 71.3543 3.3809C71.2502 3.69999 71.0993 4.00229 70.9065 4.27816C70.4722 4.90443 69.8927 5.41924 69.2162 5.7797C69.1352 5.82222 69.0545 5.86147 68.974 5.89747C68.8936 5.93347 68.8131 5.96616 68.7327 5.99553C68.6525 6.0249 68.573 6.05085 68.4939 6.07336C68.4148 6.09587 68.3367 6.11485 68.2595 6.13027L55.2035 8.74027C54.9612 8.79584 54.709 8.79302 54.4681 8.73205C54.2741 8.68066 54.1031 8.56689 53.9819 8.40873C53.8598 8.23891 53.7909 8.03744 53.7836 7.8293C53.7736 7.5638 53.8161 7.29891 53.9088 7.04947C53.932 6.98216 53.9584 6.91439 53.988 6.84616C54.0176 6.77793 54.0499 6.7097 54.0849 6.64147C54.1196 6.5729 54.1575 6.50467 54.1986 6.43679C54.2397 6.3689 54.2831 6.30107 54.3287 6.2333L51.8566 6.76799C51.2612 6.90584 50.6909 7.13367 50.166 7.44342C49.5924 7.77701 49.059 8.17383 48.5762 8.62627C48.0784 9.08851 47.6319 9.60181 47.2443 10.1575C46.8664 10.6944 46.5592 11.2766 46.3301 11.8901L22.606 76.9937C22.3109 77.7937 22.1215 78.6279 22.0424 79.4756C21.9692 80.224 22.0124 80.979 22.1704 81.7145C22.3019 82.3502 22.5706 82.9504 22.9582 83.4744C23.3134 83.9497 23.8087 84.305 24.3763 84.4918L48.5548 92.2469C49.3525 92.4994 50.2041 92.5371 51.0215 92.3561C51.8921 92.1593 52.7098 91.7806 53.4195 91.2454C54.2133 90.6519 54.8967 89.9269 55.4393 89.1026C56.0397 88.1971 56.4902 87.2031 56.7741 86.1578L78.8656 5.67513C79.051 5.06077 79.0853 4.41162 78.9658 3.78153C78.862 3.26518 78.5975 2.7937 78.2092 2.4329C77.8023 2.07218 77.2999 1.83311 76.7606 1.74359C76.1017 1.63437 75.4274 1.65728 74.7778 1.81096Z" fill="#EAF1F8"/>
<path id="Vector" d="M61.8085 32.6459H13.7109V16.5547H61.8085V32.6459Z" fill="white"/>
<path id="Vector_2" d="M47.7482 38.3242H0.609375V60.8835H47.7482V38.3242Z" fill="white"/>
<path id="Vector_3" d="M8.2613 49.1584C10.1444 49.1584 11.671 47.6512 11.671 45.7921C11.671 43.9329 10.1444 42.4258 8.2613 42.4258C6.37815 42.4258 4.85156 43.9329 4.85156 45.7921C4.85156 47.6512 6.37815 49.1584 8.2613 49.1584Z" fill="#065BAA"/>
<path id="Vector_4" d="M16.1386 43.5469C15.9879 43.5469 15.8433 43.606 15.7368 43.7112C15.6302 43.8164 15.5703 43.9591 15.5703 44.1079C15.5703 44.2567 15.6302 44.3994 15.7368 44.5046C15.8433 44.6099 15.9879 44.669 16.1386 44.669H42.9293C43.0798 44.6686 43.224 44.6093 43.3303 44.5042C43.4365 44.399 43.4962 44.2565 43.4962 44.1079C43.4962 43.9594 43.4365 43.8169 43.3303 43.7117C43.224 43.6065 43.0798 43.5472 42.9293 43.5469H16.1386Z" fill="#E6E6E6"/>
<path id="Vector_5" d="M16.1405 46.9141C16.0658 46.9138 15.9918 46.9281 15.9227 46.9561C15.8536 46.9841 15.7908 47.0253 15.7379 47.0773C15.6849 47.1293 15.6428 47.1911 15.6141 47.2591C15.5853 47.3272 15.5705 47.4002 15.5703 47.4739C15.5702 47.5477 15.5847 47.6207 15.6132 47.6889C15.6416 47.7571 15.6834 47.819 15.7362 47.8713C15.7889 47.9235 15.8515 47.9649 15.9205 47.9932C15.9895 48.0215 16.0634 48.0361 16.1381 48.0362H27.6687C27.7433 48.0362 27.8172 48.0217 27.8861 47.9935C27.9551 47.9653 28.0177 47.9239 28.0705 47.8718C28.1233 47.8197 28.1651 47.7579 28.1937 47.6898C28.2222 47.6218 28.237 47.5488 28.237 47.4751C28.237 47.4014 28.2222 47.3285 28.1937 47.2604C28.1651 47.1923 28.1233 47.1305 28.0705 47.0784C28.0177 47.0263 27.9551 46.985 27.8861 46.9568C27.8172 46.9286 27.7433 46.9141 27.6687 46.9141H16.1405Z" fill="#E6E6E6"/>
<path id="Vector_6" d="M5.65125 52.2969C5.21897 52.2969 4.86719 52.5486 4.86719 52.8579C4.86719 53.1673 5.21897 53.419 5.65125 53.419H42.6142C43.0465 53.419 43.3983 53.1673 43.3983 52.8579C43.3983 52.5486 43.0465 52.2969 42.6142 52.2969H5.65125Z" fill="#E6E6E6"/>
<path id="Vector_7" d="M5.65125 55.6602C5.21897 55.6602 4.86719 55.9119 4.86719 56.2212C4.86719 56.5305 5.21897 56.7822 5.65125 56.7822H34.1059C34.5381 56.7822 34.8899 56.5305 34.8899 56.2212C34.8899 55.9119 34.5381 55.6602 34.1059 55.6602H5.65125Z" fill="#E6E6E6"/>
<path id="Vector_8" d="M48.2226 61.3574H0.125V37.8516H48.2226V61.3574ZM1.08375 60.4109H47.2638V38.7981H1.08375V60.4109Z" fill="#E6E6E6"/>
<path id="Vector_9" d="M21.8472 27.8615C23.7304 27.8615 25.257 26.3544 25.257 24.4952C25.257 22.6361 23.7304 21.1289 21.8472 21.1289C19.9641 21.1289 18.4375 22.6361 18.4375 24.4952C18.4375 26.3544 19.9641 27.8615 21.8472 27.8615Z" fill="#065BAA"/>
<path id="Vector_10" d="M29.7245 22.25C29.5738 22.25 29.4293 22.3091 29.3227 22.4143C29.2161 22.5195 29.1562 22.6623 29.1562 22.8111C29.1562 22.9599 29.2161 23.1026 29.3227 23.2078C29.4293 23.313 29.5738 23.3721 29.7245 23.3721H56.5153C56.6657 23.3717 56.8099 23.3125 56.9162 23.2073C57.0225 23.1021 57.0822 22.9596 57.0822 22.8111C57.0822 22.6625 57.0225 22.52 56.9162 22.4148C56.8099 22.3096 56.6657 22.2504 56.5153 22.25H29.7245Z" fill="#E6E6E6"/>
<path id="Vector_11" d="M29.7187 25.6172C29.644 25.6169 29.57 25.6312 29.5009 25.6592C29.4318 25.6872 29.369 25.7284 29.316 25.7804C29.263 25.8324 29.221 25.8942 29.1922 25.9623C29.1635 26.0303 29.1486 26.1033 29.1484 26.1771C29.1483 26.2508 29.1628 26.3238 29.1913 26.392C29.2198 26.4602 29.2616 26.5222 29.3143 26.5744C29.367 26.6266 29.4297 26.668 29.4986 26.6963C29.5676 26.7246 29.6416 26.7392 29.7163 26.7393H50.797C50.9477 26.7393 51.0923 26.6802 51.1988 26.575C51.3054 26.4697 51.3653 26.327 51.3653 26.1782C51.3653 26.0294 51.3054 25.8867 51.1988 25.7815C51.0923 25.6763 50.9477 25.6172 50.797 25.6172H29.7187Z" fill="#E6E6E6"/>
<path id="Vector_12" d="M61.8085 32.6459H13.7109V16.5547H61.8085V32.6459ZM14.6697 31.6994H60.8498V17.5012H14.6697V31.6994Z" fill="#E6E6E6"/>
<path id="Ellipse 1" d="M80.0552 44.1375C80.1944 44.1322 80.3333 44.1555 80.4629 44.206C80.586 44.2547 80.6975 44.3279 80.7905 44.4212C80.884 44.515 80.9569 44.6267 81.0048 44.7495C81.0554 44.8796 81.0784 45.0185 81.0725 45.1578C81.0669 45.3007 81.0333 45.4411 80.9734 45.5713C80.915 45.699 80.8335 45.8152 80.7331 45.9141C80.6333 46.0126 80.5162 46.0923 80.3875 46.1493C80.2569 46.2072 80.1159 46.2391 79.9727 46.2429C79.8333 46.2471 79.6946 46.2225 79.5653 46.1708C79.4429 46.1214 79.332 46.0475 79.2398 45.9539C79.1472 45.8598 79.0751 45.7481 79.0279 45.6255C78.9782 45.4958 78.9558 45.3575 78.9619 45.219C78.9677 45.0769 79.0013 44.9371 79.0607 44.8076C79.1189 44.6811 79.1996 44.566 79.299 44.4678C79.398 44.3695 79.5142 44.2897 79.6421 44.2324C79.7721 44.1743 79.9125 44.142 80.0552 44.1375Z" fill="#F2F2F2"/>
</g>
<defs>
<clipPath id="clip0_2047_14449">
<rect width="83" height="96" fill="white"/>
</clipPath>
</defs>
</svg>
