<svg width="241" height="188" viewBox="0 0 241 188" fill="none" xmlns="http://www.w3.org/2000/svg">
<g id="Group 70003">
<path id="Ellipse 968" opacity="0.1" fill-rule="evenodd" clip-rule="evenodd" d="M85.177 184.15C108.298 184.15 127.041 180.6 127.041 176.22C127.041 171.84 108.298 168.289 85.177 168.289C62.0559 168.289 43.3125 171.84 43.3125 176.22C43.3125 180.6 62.0559 184.15 85.177 184.15Z" fill="#D8000C"/>
<path id="Path 42001" opacity="0.152574" fill-rule="evenodd" clip-rule="evenodd" d="M140.427 26.4825C125.041 25.9499 110.387 20.9814 96.394 15.5468C82.4012 10.1123 68.5414 4.09293 53.5239 1.21401C43.8649 -0.637922 32.8176 -0.901801 25.0366 4.27124C17.5457 9.2636 15.1256 17.8576 13.8252 25.8382C12.8458 31.8433 12.2705 38.1646 14.9521 43.7869C16.8159 47.6905 20.1203 50.9711 22.4073 54.7107C30.3642 67.7193 24.7395 83.7614 16.1193 96.4634C12.0779 102.421 7.3827 108.112 4.26128 114.448C1.13988 120.783 -0.303151 128.067 2.42838 134.548C5.13376 140.967 11.5834 145.778 18.5703 149.166C32.7605 156.048 49.4754 158.017 65.7861 159.134C101.881 161.602 138.166 160.534 174.356 159.462C187.749 159.068 201.2 158.666 214.375 156.595C221.693 155.445 229.245 153.619 234.559 149.211C241.301 143.617 242.972 134.146 238.453 127.133C230.874 115.365 209.925 112.444 204.621 99.8178C201.707 92.8665 204.7 85.126 208.938 78.6811C218.029 64.8523 233.265 52.7209 234.066 36.9165C234.618 26.0617 227.294 15.1902 215.968 10.0529C204.098 4.66827 187.635 5.3458 178.882 14.2584C169.86 23.4253 154.013 26.9556 140.427 26.4825V26.4825Z" fill="#FF5C8A"/>
<path id="Path 42002" fill-rule="evenodd" clip-rule="evenodd" d="M128.203 85.999L120.921 81.0899L124.594 75.622L105.362 74.0886L98.4508 79.4329L89.7997 74.5832L82.5846 75.4509L82.499 73.549C82.4097 71.5663 82.2105 69.5901 81.9023 67.6295C81.9332 67.0352 81.9546 66.3529 81.9522 65.6112C81.9522 62.485 81.529 58.3414 79.67 55.5789L80.0979 51.7325L76.627 47.6316C77.1844 46.5213 77.82 45.452 78.5289 44.4317C78.6478 44.2605 78.7666 44.0941 78.895 43.9325C83.4 43.6068 86.9541 39.9029 86.9541 35.3742C86.9541 35.165 86.9541 34.9558 86.9303 34.7489C86.9303 34.6657 86.9137 34.5801 86.9042 34.4969C87.344 34.7347 87.7885 34.9724 88.2331 35.2101C88.3163 35.329 88.4114 35.4478 88.516 35.5881L88.5374 35.6143L88.6705 35.7783L88.7133 35.8282C88.7609 35.8853 88.8108 35.94 88.8607 35.997L88.894 36.0351C89.02 36.1753 89.1531 36.318 89.2957 36.4582C89.3128 36.472 89.3287 36.4871 89.3433 36.5034L89.5216 36.6698L89.5715 36.715C89.7236 36.8505 89.8853 36.9812 90.047 37.1048L90.0993 37.1429L90.3037 37.2831L90.3703 37.3259C90.4487 37.3735 90.5296 37.4234 90.608 37.4686L90.6366 37.4852C90.7292 37.5351 90.8243 37.5827 90.9194 37.6278L90.967 37.6469C91.0478 37.6817 91.1271 37.715 91.2047 37.7467L91.2784 37.7729C91.3616 37.8014 91.4424 37.8275 91.528 37.8513L91.5803 37.8656C91.685 37.8917 91.7896 37.9131 91.8965 37.9298H91.9084C92.0091 37.9461 92.1108 37.9564 92.2127 37.9607L92.2816 37.9607C92.3727 37.9655 92.4639 37.9655 92.5551 37.9607H92.6144C92.7285 37.9541 92.842 37.9406 92.9544 37.9203C93.4863 37.8503 93.997 37.6671 94.4521 37.383C94.568 37.3055 94.6707 37.21 94.7564 37.1001C95.2319 36.4773 94.7089 35.795 94.7089 35.795C94.5234 35.3528 93.3205 35.0414 93.3205 35.0414C93.3205 35.0414 89.5168 33.4533 89.5168 32.1886C89.5168 30.9239 88.5659 24.3625 78.75 22.8624C78.75 22.8624 72.3645 22.5034 70.5696 25.922L70.5316 26.3214C70.0038 26.6518 69.5664 27.3151 69.0458 27.51C68.8208 27.5583 68.6039 27.6384 68.4015 27.7477L68.4015 27.7026C68.3414 27.7551 68.2922 27.8189 68.2565 27.8904C68.1446 28.1129 68.0776 28.3552 68.0592 28.6036C68.0056 28.907 67.9003 29.1989 67.7478 29.4665C67.7052 29.5426 67.6576 29.6157 67.6051 29.6853L67.5647 29.7495C67.8407 29.771 68.1178 29.7261 68.373 29.6187C68.3328 29.9442 68.2529 30.2635 68.1353 30.5696C68.4439 30.5796 68.73 30.4087 68.8675 30.1322V30.1132L68.8984 30.0704C68.9582 29.9604 69.0075 29.8449 69.0458 29.7257L69.0196 29.7542C69.0672 29.5997 69.11 29.4428 69.1623 29.2906C69.1862 29.2049 69.2257 29.1244 69.2787 29.0529C69.4074 28.9232 69.5901 28.8623 69.7709 28.8889L69.6734 30.95H69.7162C69.6589 31.0999 69.5889 31.2447 69.507 31.3827C69.1694 31.9295 68.556 32.3027 68.3302 32.9018C68.2328 33.1907 68.1956 33.4965 68.2208 33.8004C68.2208 33.9787 68.2422 34.1594 68.2565 34.3377V34.3234C68.2898 34.7989 68.2993 35.2506 68.0426 35.6333C67.8666 35.8948 67.5837 36.0921 67.4863 36.3893C67.4593 36.4721 67.4472 36.559 67.4506 36.646C67.4697 36.9065 67.5241 37.1633 67.6123 37.4091C67.6133 37.4044 67.6133 37.3996 67.6123 37.3949C67.6716 37.5757 67.6854 37.7684 67.6527 37.9559C67.5457 38.4314 66.968 38.8284 66.9966 39.2825C66.9949 39.3422 67.0038 39.4017 67.0227 39.4584C67.1339 39.6802 67.3263 39.8505 67.56 39.9339C67.9265 40.1423 68.3475 40.2351 68.7677 40.2001C68.9251 40.1717 69.0774 40.1196 69.2193 40.0456C69.0529 40.4283 68.8818 40.8063 68.7082 41.1653C68.6821 41.2224 68.6535 41.2794 68.625 41.3365C68.625 41.3365 67.1558 40.3547 66.3214 42.3563C66.0778 42.7723 65.9036 43.2252 65.8055 43.6972C65.7637 43.886 65.7048 44.0706 65.6296 44.2487C65.2592 44.8759 64.7047 45.3738 64.0415 45.6751C62.3394 46.4548 55.4642 55.0298 55.343 57.2502C55.2835 58.117 55.1369 58.9756 54.9055 59.813C54.3643 61.785 54.2253 63.8458 54.4966 65.8727C54.5816 66.5278 54.7223 67.1744 54.9174 67.8055C55.6473 70.0235 56.1346 74.1624 56.1346 74.1624L56.9239 81.3466C56.8946 82.3382 56.9375 83.3306 57.0522 84.3159C56.2464 85.2359 53.0108 89.0705 54.247 90.1142C55.198 90.9367 56.8621 90.8012 57.7964 90.6324C57.0095 92.5794 55.7709 95.9647 55.6069 98.2897C55.3691 101.73 56.0134 106.287 57.0332 108.037C58.0531 109.786 61.4527 114.275 61.4527 114.275C61.4527 114.275 61.2934 120.432 62.5082 122.669C63.723 124.906 64.2127 129.547 64.2127 129.547C64.2127 129.547 65.3467 133.464 64.7785 134.905C64.2104 136.346 65.8317 137.544 64.1295 138.502C62.4274 139.46 60.2498 161.053 60.2498 161.053C60.2498 161.053 59.3725 175.205 60.2498 175.926C60.2967 175.96 60.3469 175.989 60.3995 176.014V180.768C60.3995 180.768 59.791 181.767 62.2657 181.969C63.9608 182.104 68.7653 182.411 71.6157 182.589L73.8242 182.727C73.8242 182.727 79.0543 183.768 81.365 182.727C83.6758 181.686 87.7719 181.71 87.1633 178.959C87.0826 178.585 86.9746 178.217 86.84 177.858C86.172 176.151 85.038 175.957 82.9483 175.481C82.8271 175.455 82.7106 175.431 82.6036 175.412C80.4023 175.029 79.6796 176.054 78.4457 174.72C77.3735 173.567 73.9597 172.276 72.7972 171.868C72.8258 171.782 72.8614 171.699 72.8899 171.611C72.5607 171.555 72.2546 171.406 72.0079 171.18L75.1579 171.38L77.0336 171.497C77.0336 171.497 81.4792 172.383 83.4523 171.497C85.4255 170.61 88.8964 170.634 88.3782 168.297C88.3099 167.978 88.2185 167.665 88.1048 167.36C87.5366 165.91 86.5714 165.751 84.7955 165.349C84.6933 165.328 84.5982 165.306 84.5031 165.29C82.6322 164.964 82.0188 165.834 80.9704 164.702C80.0718 163.737 77.2357 162.655 76.2158 162.287C76.2158 161.759 75.5026 161.008 75.0533 160.254C74.5256 159.375 75.5002 156.296 75.5002 156.296L76.0565 143.523C76.2684 143.428 76.4924 143.364 76.7222 143.333C76.7222 143.333 79.2374 140.932 78.6692 138.374C78.5534 137.6 78.493 136.819 78.4885 136.037C79.3158 135.269 80.4545 134.135 80.7779 133.436C81.3056 132.297 80.7779 126.779 80.7779 126.779V105.681L84.9857 106.106L88.8036 106.499L89.9662 106.617L93.7842 107.003L102.559 107.889L110.466 106.392L113.887 105.745L120.921 104.414V87.202L128.203 85.999ZM70.7927 29.9099L69.7969 28.9141C70.1256 29.0498 70.4737 29.6386 70.7927 29.9099Z" fill="url(#paint0_linear_5484_111663)"/>
<path id="Path 42003" fill-rule="evenodd" clip-rule="evenodd" d="M111.126 97.1677C108.749 100.57 100.202 98.7676 100.202 98.7676L93.579 92.57L92.6875 91.7308L94.1828 88.5547C94.1828 88.5547 94.6583 88.6855 95.4737 88.9185C99.7552 90.1618 113.132 94.3078 111.126 97.1677L111.126 97.1677Z" fill="#EFC6E3"/>
<path id="Path 42004" opacity="0.1" fill-rule="evenodd" clip-rule="evenodd" d="M95.4689 88.9185C95.1766 89.9359 94.3754 91.4598 93.579 92.57L92.6875 91.7308L94.1828 88.5547C94.1828 88.5547 94.6631 88.6855 95.4689 88.9185V88.9185Z" fill="#121516"/>
<path id="Path 42005" fill-rule="evenodd" clip-rule="evenodd" d="M72.7614 53.1077C72.7614 53.1077 66.6564 55.8155 66.956 62.4648C67.1715 66.7487 67.6383 71.0162 68.3538 75.2453C68.3538 75.2453 67.1058 85.2514 72.3026 87.8307C77.4994 90.4101 82.3087 92.5307 82.3087 92.5307C82.3087 92.5307 90.4391 93.4055 91.4494 93.7669C92.4598 94.1283 95.6168 88.6034 95.0344 87.7428C94.4519 86.8822 86.9896 85.0778 86.0387 83.6419C85.0877 82.206 82.8887 81.3193 82.8887 81.3193C82.8887 81.3193 80.6184 79.9452 80.4639 78.7042C80.3093 77.4633 80.9084 76.5385 81.0606 75.9941C81.2127 75.4497 81.5979 70.1935 81.5979 70.1935C81.5979 70.1935 84.1606 51.484 72.7614 53.1077L72.7614 53.1077Z" fill="#EAF1F8"/>
<path id="Path 42006" opacity="0.1" fill-rule="evenodd" clip-rule="evenodd" d="M76.7917 74.9688C76.7917 74.9688 68.4165 76.3714 69.2271 79.3026C69.2271 79.3026 72.2677 76.1384 76.7917 74.9688Z" fill="#121516"/>
<path id="Path 42007" opacity="0.1" fill-rule="evenodd" clip-rule="evenodd" d="M76.852 76.1562C76.852 76.1562 72.2471 79.9148 73.1481 80.1073C74.0491 80.2999 76.852 76.1562 76.852 76.1562Z" fill="#121516"/>
<path id="Path 42008" opacity="0.1" fill-rule="evenodd" clip-rule="evenodd" d="M79.2731 77.4609C79.2731 77.4609 77.6847 79.988 78.661 79.8169C79.6373 79.6457 79.2731 77.4609 79.2731 77.4609Z" fill="#121516"/>
<path id="Path 42009" opacity="0.1" fill-rule="evenodd" clip-rule="evenodd" d="M95.7835 89.1923L95.2748 89.0473C95.4198 88.5718 95.4602 88.1867 95.3413 88.0084C94.7589 87.1478 87.3013 85.3458 86.3527 83.9075C85.4042 82.4693 83.2028 81.5849 83.2028 81.5849C83.2028 81.5849 80.9324 80.2108 80.7779 78.9698C80.6234 77.7289 81.2225 76.8041 81.3746 76.2597C81.5268 75.7153 81.9119 70.4567 81.9119 70.4567C81.9119 70.4567 84.4675 51.7496 73.0683 53.3733C73.0683 53.3733 66.9633 56.0835 67.2605 62.7328C67.4762 67.0167 67.9437 71.2842 68.6607 75.5132C68.6607 75.5132 67.4127 85.5193 72.6095 88.0987C77.8062 90.6781 82.6156 92.7986 82.6156 92.7986C82.6156 92.7986 90.7436 93.6712 91.7564 94.0348C92.1391 94.1727 92.8309 93.4619 93.5084 92.4848L93.8936 92.8438L100.517 99.0391C100.517 99.0391 109.063 100.843 111.441 97.4415C113.449 94.5793 100.075 90.4332 95.7835 89.1922V89.1923Z" fill="#121516"/>
<path id="Path 42010" fill-rule="evenodd" clip-rule="evenodd" d="M69.2437 28.1485C69.0109 28.194 68.788 28.2801 68.5852 28.4029C68.3474 28.6002 68.3474 28.9378 68.288 29.2326C68.2182 29.6426 68.0555 30.0313 67.8125 30.3689C68.083 30.3888 68.3544 30.3439 68.6042 30.2382C68.5635 30.5635 68.4837 30.8828 68.3664 31.1891C68.669 31.1968 68.948 31.0266 69.0796 30.754C69.2054 30.4862 69.3049 30.2067 69.3768 29.9196C69.3991 29.8337 69.4379 29.753 69.4909 29.6819C69.7096 29.4227 70.1161 29.5392 70.4537 29.5725C71.0258 29.6208 71.5791 29.355 71.8991 28.8783C72.2581 28.3339 72.2795 26.9408 71.4237 26.7935C70.5298 26.6461 69.9735 27.8775 69.2437 28.1485V28.1485Z" fill="#851263"/>
<g id="Group 70001" opacity="0.1">
<path id="Path 42011" fill-rule="evenodd" clip-rule="evenodd" d="M69.0348 28.698C69.0837 28.5815 69.116 28.4602 69.1755 28.3438C68.6614 28.5411 68.6343 28.8763 68.499 29.1734C68.4309 29.3449 68.3239 29.5129 68.1797 29.6751C68.6059 29.3767 68.8963 29.0449 69.0348 28.698Z" fill="#121516"/>
<path id="Path 42012" fill-rule="evenodd" clip-rule="evenodd" d="M68.6331 30.6619C68.7514 30.356 68.8313 30.0365 68.8708 29.7109C68.6328 29.8111 68.375 29.8558 68.1171 29.8417C68.0421 30.0089 67.9505 30.1682 67.8438 30.3171C68.1133 30.338 68.384 30.294 68.633 30.1888C68.5936 30.5144 68.5137 30.8338 68.3953 31.1397C68.6977 31.1468 68.9764 30.9768 69.1085 30.7046C69.1677 30.5966 69.2155 30.4827 69.2511 30.3647C69.1094 30.5628 68.8763 30.6749 68.6331 30.6619Z" fill="#121516"/>
<path id="Path 42013" fill-rule="evenodd" clip-rule="evenodd" d="M70.7223 29.0434C70.3847 29.0101 69.9758 28.8936 69.7571 29.1527C69.705 29.2245 69.6664 29.305 69.643 29.3905C69.6216 29.4523 69.6026 29.5165 69.5859 29.5807C69.8118 29.4024 70.1779 29.4974 70.4846 29.5284C71.0564 29.575 71.6089 29.3097 71.93 28.8342C72.002 28.7187 72.0558 28.5928 72.0892 28.4609C71.7586 28.8701 71.2464 29.0884 70.7223 29.0434V29.0434Z" fill="#121516"/>
</g>
<path id="Path 42014" fill-rule="evenodd" clip-rule="evenodd" d="M76.4009 47.7812L80.0263 52.1412L79.5533 56.5416L75.1719 49.6831L76.4009 47.7812Z" fill="#EAF1F8"/>
<path id="Path 42015" opacity="0.1" fill-rule="evenodd" clip-rule="evenodd" d="M80.024 52.1412L79.5794 56.2801L79.5509 56.5417L75.5974 50.3511L75.1719 49.6831L75.2955 49.4905L76.3986 47.7812L76.6434 48.076L80.024 52.1412Z" fill="#121516"/>
<path id="Path 42016" fill-rule="evenodd" clip-rule="evenodd" d="M81.9082 41.8834C80.6815 42.2352 79.5095 43.4429 78.4897 44.9097C77.8003 45.9218 77.1838 46.9816 76.6448 48.081C76.3097 48.7515 76.0149 49.3957 75.77 49.9568L75.5988 50.3562C75.1852 51.3332 74.9546 51.987 74.9546 51.987C74.9546 51.987 65.5642 44.9264 67.05 44.4509C67.5493 44.2916 68.2054 43.2218 68.8544 41.8739L68.9352 41.7027C69.3465 40.8374 69.7507 39.8722 70.1096 38.9641C70.8442 37.0979 71.3886 35.4766 71.3886 35.4766C71.3886 35.4766 85.6525 40.8136 81.9082 41.8834V41.8834Z" fill="#EFC6E3"/>
<path id="Path 42017" fill-rule="evenodd" clip-rule="evenodd" d="M87.5234 35.0781C87.5234 35.0781 89.6915 39.0007 92.6038 38.4658C95.516 37.9309 94.3178 36.3595 94.3178 36.3595L87.5234 35.0781Z" fill="#121516"/>
<path id="Path 42018" fill-rule="evenodd" clip-rule="evenodd" d="M83.3231 170.851C81.4022 171.728 77.0588 170.851 77.0588 170.851L75.2283 170.737C72.851 170.585 68.8714 170.328 67.464 170.214C65.41 170.045 65.914 169.204 65.914 169.204V164.118L75.8797 161.594C75.8797 161.594 79.8189 162.942 80.8982 164.118C81.9228 165.241 82.5219 164.378 84.35 164.701C84.4404 164.718 84.5355 164.737 84.6353 164.76C86.3708 165.157 87.3122 165.314 87.8684 166.752C87.9802 167.055 88.07 167.365 88.1371 167.68C88.6506 169.995 85.2416 169.979 83.3231 170.851Z" fill="#851263"/>
<path id="Path 42019" opacity="0.1" fill-rule="evenodd" clip-rule="evenodd" d="M87.8685 166.755C87.5114 166.978 87.136 167.17 86.7464 167.33C85.4389 167.927 84.1955 168.654 82.8737 169.218C81.552 169.781 80.128 170.183 78.6968 170.076C77.948 170.021 77.1825 169.838 76.4669 170.052C76.0243 170.223 75.6076 170.454 75.2283 170.739C72.851 170.587 68.8714 170.33 67.464 170.216C65.41 170.047 65.914 169.206 65.914 169.206V168.611C65.9877 168.611 66.0709 168.59 66.166 168.583C66.658 168.575 67.1479 168.648 67.6161 168.799C68.6479 169.08 69.6749 169.356 70.7066 169.631C70.8782 168.984 71.3079 168.436 71.8953 168.115C72.4842 167.802 73.1451 167.65 73.8114 167.675C75.4114 167.696 76.9257 168.455 78.5233 168.531C78.9699 168.572 79.4196 168.496 79.8284 168.312C80.0471 168.203 80.2397 168.043 80.4537 167.922C80.7961 167.756 81.1578 167.634 81.5306 167.558C82.5782 167.297 83.6068 166.965 84.6092 166.565C84.8945 166.453 85.2273 166.251 85.1893 165.946C85.1393 165.542 84.5046 165.495 84.3382 165.124C84.2787 164.988 84.2857 164.833 84.3572 164.703C84.4475 164.72 84.5426 164.739 84.6425 164.763C86.3708 165.16 87.3122 165.316 87.8685 166.755V166.755Z" fill="#121516"/>
<path id="Path 42020" fill-rule="evenodd" clip-rule="evenodd" d="M81.2951 181.981C79.0366 183.013 73.9254 181.981 73.9254 181.981L71.774 181.855C68.9877 181.677 64.2949 181.38 62.638 181.24C60.2202 181.04 60.8146 180.051 60.8146 180.051V174.058L72.5418 171.086C72.5418 171.086 77.1776 172.672 78.4471 174.058C79.6524 175.377 80.3489 174.362 82.5099 174.742C82.6169 174.761 82.7286 174.785 82.8451 174.811C84.8872 175.287 85.995 175.465 86.6488 177.158C86.7811 177.513 86.8868 177.878 86.965 178.249C87.5545 180.973 83.5535 180.952 81.2951 181.981V181.981Z" fill="#851263"/>
<path id="Path 42021" opacity="0.1" fill-rule="evenodd" clip-rule="evenodd" d="M86.6441 177.153C86.224 177.416 85.7826 177.642 85.3247 177.831C83.7865 178.532 82.3221 179.388 80.7673 180.051C79.2126 180.715 77.5366 181.185 75.851 181.062C74.9714 180.998 74.0704 180.776 73.236 181.033C72.7132 181.237 72.2211 181.512 71.774 181.851C68.9877 181.673 64.2949 181.376 62.638 181.235C60.2202 181.036 60.8146 180.047 60.8146 180.047V179.348C60.913 179.332 61.0122 179.321 61.1117 179.314C61.6909 179.304 62.2677 179.39 62.8186 179.569L66.4536 180.548C66.6582 179.785 67.1681 179.139 67.8633 178.763C68.5562 178.394 69.3347 178.215 70.1193 178.245C72.0022 178.271 73.7828 179.162 75.6633 179.253C76.1869 179.3 76.7142 179.213 77.1943 178.998C77.4533 178.868 77.6697 178.68 77.9312 178.539C78.3333 178.343 78.7592 178.199 79.1983 178.112C80.4243 177.802 81.6283 177.411 82.8023 176.942C83.1375 176.809 83.5298 176.571 83.4846 176.214C83.4252 175.739 82.6787 175.682 82.4814 175.245C82.414 175.085 82.4227 174.903 82.5051 174.75C82.6121 174.769 82.7238 174.793 82.8404 174.819C84.8825 175.275 85.9903 175.461 86.6441 177.153Z" fill="#121516"/>
<path id="Path 42022" fill-rule="evenodd" clip-rule="evenodd" d="M76.1811 140.852L75.5463 155.788C75.5463 155.788 74.5954 158.838 75.1113 159.711C75.6272 160.583 76.4973 161.453 76.1811 161.969C75.8649 162.485 72.0612 168.062 70.8322 165.923C69.6031 163.783 68.3906 154.512 68.3906 154.512L69.5246 143.06L76.1811 140.852Z" fill="#121516"/>
<path id="Path 42023" fill-rule="evenodd" clip-rule="evenodd" d="M78.9332 103.641L80.6971 105.999V126.51C80.6971 126.51 81.213 131.978 80.6971 133.107C80.1813 134.237 77.5662 136.495 77.5662 136.495L75.3672 125.203L75.8427 113.257L78.9332 103.641Z" fill="#121516"/>
<path id="Path 42024" opacity="0.1" fill-rule="evenodd" clip-rule="evenodd" d="M76.1811 140.852L75.5463 155.788C75.5463 155.788 74.5954 158.838 75.1113 159.711C75.6272 160.583 76.4973 161.453 76.1811 161.969C75.8649 162.485 72.0612 168.062 70.8322 165.923C69.6031 163.783 68.3906 154.512 68.3906 154.512L69.5246 143.06L76.1811 140.852Z" fill="#121516"/>
<path id="Path 42025" opacity="0.1" fill-rule="evenodd" clip-rule="evenodd" d="M78.9332 103.641L80.6971 105.999V126.51C80.6971 126.51 81.213 131.978 80.6971 133.107C80.1813 134.237 77.5662 136.495 77.5662 136.495L75.3672 125.203L75.8427 113.257L78.9332 103.641Z" fill="#121516"/>
<path id="Path 42026" fill-rule="evenodd" clip-rule="evenodd" d="M80.7029 94.893V105.988L78.7225 114.625C78.7225 114.625 78.0879 135.467 78.6418 138.001C79.1957 140.535 76.7399 142.915 76.7399 142.915C76.7399 142.915 75.3135 143.074 75.3135 144.182C75.3135 145.29 72.9362 148.461 72.9362 148.461L73.0147 154.642C73.0147 154.642 74.0464 166.212 72.4608 168.43C70.8751 170.648 73.0147 170.967 73.0147 170.967C71.0344 177.464 61.5251 175.959 60.6669 175.246C59.8087 174.533 60.6669 160.507 60.6669 160.507C60.6669 160.507 62.7922 139.111 64.4563 138.16C66.1204 137.209 64.5371 136.021 65.0911 134.594C65.645 133.168 64.5371 129.286 64.5371 129.286C64.5371 129.286 64.0617 124.688 62.8731 122.47C61.6844 120.252 61.8413 114.149 61.8413 114.149C61.8413 114.149 58.5131 109.711 57.5241 107.968C56.5352 106.226 55.8981 101.709 56.1358 98.2997C56.2974 95.9961 57.5074 92.6417 58.2754 90.7114C58.6438 89.7866 58.9101 89.1875 58.9101 89.1875L59.136 89.2469L72.1208 92.6465L80.7029 94.893Z" fill="#121516"/>
<path id="Path 42027" opacity="0.1" fill-rule="evenodd" clip-rule="evenodd" d="M81.9103 41.8766C80.6837 42.2284 79.5116 43.4361 78.4918 44.9029H78.2255C75.1827 44.9051 72.3713 43.279 70.8558 40.6404C70.5447 40.1033 70.2943 39.5332 70.1094 38.9406C70.844 37.0744 71.3883 35.4531 71.3883 35.4531C71.3883 35.4531 85.6546 40.8068 81.9103 41.8766V41.8766Z" fill="#121516"/>
<path id="Path 42028" fill-rule="evenodd" clip-rule="evenodd" d="M86.7166 35.935C86.7224 39.4997 84.503 42.6891 81.1586 43.9226C77.8141 45.1561 74.0553 44.1714 71.7451 41.4567C69.435 38.7419 69.0644 34.874 70.8171 31.77C71.0748 31.3097 71.3757 30.8751 71.7158 30.4719C72.2764 29.804 72.9353 29.2253 73.6699 28.7555C76.1941 27.1515 79.3756 26.9922 82.0473 28.3361C84.719 29.68 86.4878 32.3293 86.7047 35.3121C86.7095 35.5213 86.7166 35.7282 86.7166 35.935H86.7166Z" fill="#EFC6E3"/>
<path id="Path 42029" opacity="0.1" fill-rule="evenodd" clip-rule="evenodd" d="M79.5808 56.2855L79.5523 56.5471L75.5988 50.366C75.1852 51.3431 74.9546 51.9969 74.9546 51.9969C74.9546 51.9969 65.5642 44.9267 67.05 44.4513C67.5493 44.292 68.2054 43.2222 68.8544 41.8743L68.9352 41.7031C69.6247 43.7571 73.6304 47.8627 75.2969 49.5078C75.4895 49.698 75.6488 49.8549 75.7724 49.969L76.0268 50.2068L76.1599 50.3399C76.7661 50.9651 79.3241 53.7228 79.5808 56.2855V56.2855Z" fill="#121516"/>
<path id="Path 42030" fill-rule="evenodd" clip-rule="evenodd" d="M82.5398 77.257L82.1071 91.1809L82.0311 93.6604C82.0311 93.6604 76.9056 93.1849 72.1224 92.662C68.2712 92.2412 64.641 91.7871 64.0824 91.5208C63.3692 91.1856 61.8406 90.9265 60.6353 90.7625C59.7034 90.6365 58.9712 90.5699 58.9712 90.5699C58.9712 90.5699 58.6978 90.6507 58.277 90.7268C57.3593 90.8932 55.7475 91.0287 54.8085 90.2133C53.6079 89.1697 56.7626 85.3778 57.5495 84.4673L57.7231 84.27L57.4259 81.5242L56.6533 74.4042C56.6533 74.4042 56.1778 70.3033 55.4646 68.1043C55.274 67.4791 55.1364 66.8389 55.0534 66.1906C54.7884 64.1822 54.9241 62.1411 55.4528 60.1855C55.6786 59.3545 55.8219 58.5033 55.8807 57.6441C55.9995 55.4451 62.7154 46.9462 64.3795 46.1736C65.1281 45.8245 65.7305 45.2238 66.0817 44.4762C66.1976 44.2411 66.2847 43.9929 66.3408 43.7369C67.054 40.6463 68.8584 41.8731 68.8584 41.8731C69.2935 44.2908 76.0284 50.6905 76.0284 50.6905L76.1615 50.8236C76.8295 51.5083 79.8059 54.7224 79.5943 57.4658C79.5521 58.4869 79.7046 59.5067 80.0437 60.4708C81.4136 64.7843 82.2011 69.2616 82.3853 73.7837L82.5398 77.257Z" fill="#EAF1F8"/>
<path id="Path 42031" opacity="0.1" fill-rule="evenodd" clip-rule="evenodd" d="M72.9892 60.7188C72.9892 60.7188 71.325 64.7602 70.0769 65.4139C68.8288 66.0677 73.5835 66.7928 72.9892 60.7188Z" fill="#121516"/>
<path id="Path 42032" opacity="0.1" fill-rule="evenodd" clip-rule="evenodd" d="M74.2412 68.2656C74.2412 68.2656 70.4375 68.7411 70.4375 69.4543C70.4375 70.1675 74.2412 68.2656 74.2412 68.2656Z" fill="#121516"/>
<path id="Path 42033" opacity="0.1" fill-rule="evenodd" clip-rule="evenodd" d="M78.2189 72.8984C78.2189 72.8984 72.6917 84.6661 71.1464 85.0227C69.6012 85.3793 78.2189 72.8984 78.2189 72.8984Z" fill="#121516"/>
<path id="Path 42034" opacity="0.1" fill-rule="evenodd" clip-rule="evenodd" d="M75.9174 51.2846L71.3459 53.272L65.8281 44.9371C65.9441 44.7021 66.0311 44.4538 66.0872 44.1978C66.8004 41.1073 68.6048 42.334 68.6048 42.334C69.0399 44.7517 75.7748 51.1514 75.7748 51.1514L75.9174 51.2846Z" fill="#121516"/>
<path id="Path 42035" fill-rule="evenodd" clip-rule="evenodd" d="M76.1596 50.808L71.5881 52.7954L66.0703 44.4606C66.1863 44.2255 66.2733 43.9772 66.3294 43.7212C67.0426 40.6307 68.847 41.8574 68.847 41.8574C69.2821 44.2751 76.017 50.6749 76.017 50.6749L76.1596 50.808Z" fill="#EAF1F8"/>
<path id="Path 42036" opacity="0.1" fill-rule="evenodd" clip-rule="evenodd" d="M82.0297 93.6605C82.0297 93.6605 76.9042 93.185 72.121 92.662L80.7031 94.9086V97.5236C80.3275 97.8636 80.0018 98.0395 79.7902 97.9492C78.8013 97.5331 70.7303 96.2257 70.7303 96.2257C70.7303 96.2257 66.0423 93.8483 60.9833 90.9955C60.8606 90.9275 60.7415 90.8529 60.6268 90.772C60.0369 90.3716 59.5286 89.8625 59.129 89.272C58.1948 87.9193 57.7383 86.1815 57.541 84.4769C57.4301 83.5 57.3887 82.5166 57.4174 81.5338C57.4419 80.4195 57.5435 79.3082 57.7216 78.208C57.2324 73.9465 56.9942 69.6599 57.0084 65.3705C57.0679 58.714 63.3083 56.3367 63.3083 56.3367C74.7789 55.3263 71.2224 73.8694 71.2224 73.8694C71.2224 73.8694 70.5591 79.0995 70.3785 79.6343C70.1978 80.1693 69.5488 81.0607 69.6367 82.3088C69.7247 83.5569 71.9166 85.0499 71.9166 85.0499C71.9166 85.0499 74.0562 86.0531 74.9381 87.5389C75.58 88.6349 79.7498 90.1207 82.1057 91.181L82.0297 93.6605Z" fill="#121516"/>
<path id="Path 42037" opacity="0.1" fill-rule="evenodd" clip-rule="evenodd" d="M85.8721 30.662C85.8765 31.0535 85.7954 31.4414 85.6344 31.7983C85.5125 32.0896 85.3711 32.3724 85.2112 32.6447C84.961 33.1455 84.6059 33.5866 84.17 33.9379C83.6208 34.3302 82.9267 34.4395 82.2681 34.5988C81.6096 34.7581 80.9249 35.0125 80.5493 35.5735C80.3458 35.9342 80.2096 36.3289 80.1476 36.7384C80.0846 37.1475 79.9213 37.5347 79.6721 37.8653C79.4053 38.1972 78.9477 38.3067 78.5595 38.1315C78.3607 37.9975 78.2099 37.8034 78.1292 37.5776C77.8582 36.9666 77.7893 36.2891 77.6799 35.6306C77.5705 34.9721 77.416 34.2945 77.0119 33.7644C76.6078 33.2342 75.8922 32.8848 75.2574 33.0916C74.8281 33.2569 74.4848 33.59 74.3065 34.014C74.1308 34.4341 74.0102 34.8752 73.9475 35.3263C73.6528 36.9397 73.3049 38.5436 72.9039 40.138C72.8917 40.2033 72.8649 40.2651 72.8254 40.3186C72.7623 40.3816 72.6769 40.4175 72.5877 40.4185C72.0552 40.4898 71.5441 40.1166 71.0068 40.157C70.9515 40.1607 70.8965 40.1694 70.8428 40.1831C69.0634 37.0906 69.4062 33.2157 71.701 30.4837L71.7438 30.4718C72.1012 30.3449 72.426 30.1403 72.6947 29.8727C73.0379 29.5293 73.3557 29.1614 73.6456 28.772L73.8358 28.5343C74.3823 27.876 75.0047 27.2847 75.6901 26.7727C75.8772 26.6194 76.0918 26.5032 76.3225 26.4304C76.5198 26.3919 76.7221 26.3855 76.9215 26.4114C77.7425 26.5099 78.5702 26.5409 79.3964 26.5041C79.9719 26.4136 80.5521 26.3548 81.1342 26.3281C82.639 26.3709 83.9227 27.4336 84.8737 28.5985C85.3848 29.1952 85.8413 29.8822 85.8722 30.662H85.8721Z" fill="#121516"/>
<path id="Path 42038" fill-rule="evenodd" clip-rule="evenodd" d="M69.7107 31.9966C69.3802 32.5386 68.7835 32.9071 68.56 33.5014C68.232 34.3644 68.7859 35.439 68.2771 36.2092C68.1084 36.4683 67.8302 36.6609 67.7351 36.958C67.5735 37.4597 68.0156 37.9945 67.9015 38.5104C67.7874 39.0263 67.1075 39.4614 67.2882 39.9653C67.3949 40.1852 67.5822 40.3554 67.8112 40.4408C68.1714 40.6475 68.586 40.7395 68.9998 40.7047C69.6489 40.5977 70.1314 39.9606 70.79 39.9131C71.3249 39.875 71.836 40.2459 72.3685 40.1769C72.4577 40.1738 72.5426 40.1374 72.6062 40.0747C72.6466 40.0217 72.6736 39.9597 72.6847 39.894C73.0841 38.3012 73.4327 36.6973 73.7307 35.0823C73.7914 34.6312 73.9113 34.1899 74.0873 33.7701C74.2669 33.347 74.6098 33.0143 75.0382 32.8477C75.673 32.6432 76.3862 32.9903 76.7927 33.5204C77.1992 34.0506 77.3537 34.7281 77.4631 35.3866C77.5724 36.0451 77.6414 36.7227 77.91 37.3337C77.9916 37.5603 78.1431 37.7551 78.3427 37.89C78.6993 38.0968 79.1795 37.9327 79.4529 37.6237C79.7034 37.293 79.8668 36.9047 79.9284 36.4945C79.9904 36.0858 80.1266 35.6918 80.3301 35.332C80.7058 34.7709 81.3928 34.5166 82.0489 34.3573C82.7051 34.198 83.3968 34.0863 83.9508 33.694C84.3861 33.3431 84.7412 32.9029 84.9921 32.4031C85.3439 31.7898 85.672 31.1241 85.6434 30.4181C85.6125 29.6478 85.1561 28.9608 84.6687 28.3617C83.7178 27.1968 82.4316 26.1342 80.9268 26.0938C80.3446 26.1181 79.7643 26.1768 79.189 26.2697C78.3629 26.3068 77.5351 26.275 76.7142 26.1746C76.5146 26.1507 76.3125 26.1579 76.1152 26.196C75.8842 26.2665 75.6699 26.3829 75.4852 26.5383C74.799 27.0494 74.1758 27.6399 73.6285 28.2975C73.2756 28.7655 72.8928 29.2102 72.4826 29.6288C72.2138 29.8968 71.8891 30.1022 71.5317 30.2303C71.2939 30.2968 71.0562 30.2493 70.8304 30.323C70.129 30.5441 70.0364 31.4593 69.7106 31.9966H69.7107Z" fill="#851263"/>
<path id="Path 42039" opacity="0.1" fill-rule="evenodd" clip-rule="evenodd" d="M92.6038 38.4634C90.7019 38.8129 89.1257 37.2748 88.2533 36.1527C87.9853 35.8119 87.7414 35.4529 87.5234 35.0781L94.0515 36.3096L94.3154 36.3595C94.3154 36.3595 95.516 37.9309 92.6038 38.4634Z" fill="#121516"/>
<g id="Group 70002" opacity="0.1">
<path id="Path 42040" fill-rule="evenodd" clip-rule="evenodd" d="M68.6569 37.8348C68.7832 37.5239 68.5591 37.2111 68.0023 36.9219C68.0023 36.9456 67.9011 36.9694 67.867 36.9932C67.3818 37.3117 68.0364 37.6422 68.4538 37.9726C68.5435 37.9283 68.6116 37.8821 68.6569 37.8348Z" fill="#121516"/>
<path id="Path 42041" fill-rule="evenodd" clip-rule="evenodd" d="M68.7467 33.9453C68.2405 34.2771 68.3721 34.6105 69.1407 34.9412C69.6456 34.6093 69.514 34.2759 68.7467 33.9453Z" fill="#121516"/>
<path id="Path 42042" fill-rule="evenodd" clip-rule="evenodd" d="M84.9737 31.7209C84.7235 32.2217 84.3683 32.6628 83.9324 33.0141C83.3833 33.4064 82.6915 33.5157 82.0306 33.675C81.3697 33.8343 80.6874 34.0887 80.3118 34.6497C80.1086 35.0105 79.9724 35.4052 79.91 35.8146C79.8481 36.2248 79.6847 36.6129 79.4346 36.9438C79.1612 37.2529 78.6809 37.4193 78.3244 37.2101C78.1248 37.0752 77.9733 36.8804 77.8917 36.6538C77.623 36.0428 77.5517 35.3677 77.4448 34.7068C77.3378 34.0459 77.1785 33.3707 76.7743 32.8406C76.3702 32.3105 75.6547 31.961 75.0199 32.1678C74.5911 32.3338 74.2479 32.6667 74.0689 33.0902C73.893 33.5101 73.7731 33.9513 73.7124 34.4025C73.416 36.0175 73.0673 37.6214 72.6663 39.2142C72.6552 39.2799 72.6283 39.3419 72.5879 39.3948C72.5243 39.4575 72.4394 39.494 72.3502 39.4971C71.8176 39.566 71.3065 39.1951 70.7717 39.2332C70.1131 39.2807 69.6305 39.9178 68.9815 40.0225C68.5675 40.0596 68.1522 39.9674 67.7929 39.7586C67.6276 39.6875 67.4794 39.5821 67.3579 39.4495C67.2451 39.6109 67.2127 39.8151 67.2698 40.0034C67.3746 40.2247 67.5626 40.3957 67.7929 40.4789C68.1523 40.6877 68.5675 40.7799 68.9815 40.7428C69.6305 40.6382 70.1131 40.001 70.7717 39.9535C71.3065 39.9155 71.8176 40.2863 72.3502 40.2174C72.4394 40.2143 72.5243 40.1778 72.5879 40.1151C72.6283 40.0622 72.6552 40.0002 72.6663 39.9345C73.0657 38.3496 73.4144 36.7457 73.7124 35.1228C73.7731 34.6716 73.893 34.2304 74.0689 33.8105C74.2479 33.3869 74.5911 33.0541 75.0199 32.8881C75.6547 32.6813 76.3678 33.0308 76.7743 33.5609C77.1808 34.091 77.3354 34.7686 77.4448 35.4271C77.5542 36.0856 77.623 36.7631 77.8917 37.3741C77.9733 37.6007 78.1248 37.7955 78.3244 37.9304C78.681 38.1372 79.1612 37.9732 79.4346 37.6641C79.6847 37.3332 79.8481 36.9451 79.9101 36.5349C79.9724 36.1255 80.1086 35.7309 80.3118 35.37C80.6874 34.809 81.3745 34.557 82.0306 34.3953C82.6868 34.2337 83.3786 34.1267 83.9324 33.7344C84.3684 33.3831 84.7235 32.9421 84.9737 32.4412C85.3255 31.8302 85.6536 31.1646 85.6251 30.4585C85.6204 30.3677 85.6109 30.2773 85.5966 30.1875C85.4819 30.7316 85.2709 31.2509 84.9737 31.7209H84.9737Z" fill="#121516"/>
</g>
<path id="Path 42043" opacity="0.1" fill-rule="evenodd" clip-rule="evenodd" d="M85.6374 31.7925C86.2471 32.8764 86.6084 34.0822 86.6953 35.3228C84.5772 34.1341 82.5849 32.829 81.5793 32.3749C79.8273 31.5833 73.2754 31.7021 70.8125 31.7758C71.0702 31.3156 71.3711 30.881 71.7111 30.4778C72.2739 29.8094 72.9353 29.2306 73.6724 28.7614C75.6454 27.5093 78.0467 27.1242 80.3122 27.6967C82.5778 28.2691 84.5079 29.7487 85.6493 31.7877L85.6374 31.7925Z" fill="#121516"/>
<path id="Path 42044" opacity="0.1" fill-rule="evenodd" clip-rule="evenodd" d="M93.1981 37.4554C92.0546 37.8073 90.1884 37.1274 88.2533 36.1527C87.9853 35.8119 87.7414 35.4529 87.5234 35.0781L94.0515 36.3096C94.4842 36.6044 94.5936 37.0251 93.1981 37.4554V37.4554Z" fill="#121516"/>
<path id="Path 42045" fill-rule="evenodd" clip-rule="evenodd" d="M78.7234 23.5498C78.7234 23.5498 72.4829 23.1933 70.7284 26.5809L70.4455 29.5835L69.9701 29.5312L69.875 31.5733C69.875 31.5733 79.4128 31.1572 81.5833 32.1367C83.7537 33.1162 90.4982 38.0515 93.2012 37.2194C95.9042 36.3873 92.9634 35.6147 92.9634 35.6147C92.9634 35.6147 89.2429 34.0386 89.2429 32.8024C89.2429 31.5662 88.3206 25.0357 78.7233 23.5499L78.7234 23.5498Z" fill="#065BAA"/>
<path id="Path 42046" opacity="0.1" fill-rule="evenodd" clip-rule="evenodd" d="M66.6953 134.844C66.6953 134.844 70.6773 138.707 72.4009 138.41C72.4009 138.41 67.5274 137.994 66.6953 134.844Z" fill="#121516"/>
<path id="Path 42047" opacity="0.1" fill-rule="evenodd" clip-rule="evenodd" d="M65.8594 136.641C65.8594 136.641 66.2159 138.628 67.1669 138.433C68.1178 138.238 65.8594 136.641 65.8594 136.641Z" fill="#121516"/>
<path id="Path 42048" opacity="0.1" fill-rule="evenodd" clip-rule="evenodd" d="M72.1051 169.852C72.1051 169.852 66.4519 174.25 67.4052 174.368C68.3585 174.487 72.1051 169.852 72.1051 169.852Z" fill="#121516"/>
<path id="Path 42049" fill-rule="evenodd" clip-rule="evenodd" d="M79.6562 82.5647L97.9616 79.5859V96.9165L80.5692 96.006L79.6562 82.5647Z" fill="#065BAA"/>
<path id="Path 42050" fill-rule="evenodd" clip-rule="evenodd" d="M79.6562 82.5647L97.9616 79.5859V96.9165L80.5692 96.006L79.6562 82.5647Z" fill="#9D9F9F"/>
<path id="Path 42051" fill-rule="evenodd" clip-rule="evenodd" d="M97.9688 79.5859L119.921 81.2287L118.706 96.3103L97.9688 96.9165V79.5859Z" fill="#065BAA"/>
<path id="Path 42052" fill-rule="evenodd" clip-rule="evenodd" d="M97.9688 79.5859L119.921 81.2287L118.706 96.3103L97.9688 96.9165V79.5859Z" fill="#696A6B"/>
<path id="Path 42053" fill-rule="evenodd" clip-rule="evenodd" d="M104.718 74.2969L97.9688 79.5864L119.921 81.2291L123.508 75.816L104.718 74.2969Z" fill="#D8000C"/>
<path id="Path 42054" fill-rule="evenodd" clip-rule="evenodd" d="M73.0391 76.7955L89.5186 74.7891L97.9723 79.5936L79.667 82.5724L73.0391 76.7955Z" fill="#D8000C"/>
<path id="Path 42055" fill-rule="evenodd" clip-rule="evenodd" d="M101.982 84.084V107.779L93.4073 106.899L89.6773 106.519L88.541 106.4L84.8133 106.017L79.6641 105.489V82.5625L97.967 83.8082L101.982 84.084Z" fill="#BD1A8D"/>
<path id="Path 42056" fill-rule="evenodd" clip-rule="evenodd" d="M119.916 81.2266V104.334L113.043 105.653L109.7 106.295L101.977 107.779V84.0841L119.916 81.2266Z" fill="#065BAA"/>
<path id="Path 42057" fill-rule="evenodd" clip-rule="evenodd" d="M119.916 81.2266V104.334L113.043 105.653L109.7 106.295L101.977 107.779V84.0841L119.916 81.2266Z" fill="#BD1A8D"/>
<path id="Path 42058" fill-rule="evenodd" clip-rule="evenodd" d="M73.0312 87.5501L79.6592 82.5625L101.977 84.084L98.692 89.6184L73.0312 87.5501Z" fill="#065BAA"/>
<path id="Path 42059" fill-rule="evenodd" clip-rule="evenodd" d="M73.0312 87.5501L79.6592 82.5625L101.977 84.084L98.692 89.6184L73.0312 87.5501Z" fill="#D8000C"/>
<path id="Path 42060" fill-rule="evenodd" clip-rule="evenodd" d="M119.916 81.2266L101.977 84.0841L107.815 89.3142L127.031 86.0906L119.916 81.2266Z" fill="#065BAA"/>
<path id="Path 42061" fill-rule="evenodd" clip-rule="evenodd" d="M119.916 81.2266L101.977 84.0841L107.815 89.3142L127.031 86.0906L119.916 81.2266Z" fill="#D8000C"/>
<path id="Path 42062" opacity="0.995281" fill-rule="evenodd" clip-rule="evenodd" d="M113.046 105.655L109.703 106.297V101.36L112.834 100.57L113.046 105.655Z" fill="#FF5C8A"/>
<path id="Path 42063" fill-rule="evenodd" clip-rule="evenodd" d="M93.4019 103.633V106.899L89.6719 106.519V103.633H93.4019Z" fill="#FF5C8A"/>
<path id="Path 42064" opacity="0.1" fill-rule="evenodd" clip-rule="evenodd" d="M88.5401 104.664V106.402L84.8125 106.019V104.664H88.5401Z" fill="white"/>
<path id="Path 42065" opacity="0.1" fill-rule="evenodd" clip-rule="evenodd" d="M99.7425 101.908C97.1869 105.176 88.7475 102.918 88.7475 102.918L82.4761 96.3757L81.625 95.4889L83.2891 92.3984C83.2891 92.3984 83.7646 92.5554 84.5586 92.8311C88.7617 94.3003 101.894 99.1572 99.7425 101.908V101.908Z" fill="#121516"/>
<path id="Path 42066" fill-rule="evenodd" clip-rule="evenodd" d="M99.4925 101.431C96.9368 104.7 88.4974 102.442 88.4974 102.442L82.2261 95.8991L81.375 95.0124L83.0391 91.9219C83.0391 91.9219 83.5146 92.0788 84.3086 92.3546C88.5116 93.8238 101.644 98.6806 99.4925 101.431V101.431Z" fill="#EFC6E3"/>
<path id="Path 42067" opacity="0.1" fill-rule="evenodd" clip-rule="evenodd" d="M84.3086 92.3545C83.9615 93.353 83.0795 94.8317 82.2261 95.8991L81.375 95.0124L83.0391 91.9219C83.0391 91.9219 83.517 92.0788 84.3086 92.3546V92.3545Z" fill="#121516"/>
<path id="Path 42068" fill-rule="evenodd" clip-rule="evenodd" d="M63.5427 55.3845C63.5427 55.3845 57.3022 57.7618 57.2428 64.4183C57.2286 68.7077 57.4667 72.9943 57.956 77.2558C57.956 77.2558 56.173 87.181 61.2248 90.0338C66.2766 92.8866 70.9718 95.2639 70.9718 95.2639C70.9718 95.2639 79.0428 96.5714 80.0341 96.9875C81.0254 97.4035 84.4702 92.0546 83.9352 91.163C83.4004 90.2716 76.0521 88.0726 75.1796 86.5867C74.3072 85.1009 72.1581 84.1001 72.1581 84.1001C72.1581 84.1001 69.9662 82.6047 69.8782 81.3566C69.7903 80.1086 70.4369 79.217 70.62 78.6822C70.803 78.1473 71.4663 72.9172 71.4663 72.9172C71.4663 72.9172 75.0132 54.3623 63.5427 55.3845H63.5427Z" fill="#EAF1F8"/>
<path id="Path 42069" opacity="0.1" fill-rule="evenodd" clip-rule="evenodd" d="M66.3999 77.4219C66.3999 77.4219 57.9605 78.3728 58.6142 81.3444C58.6142 81.3444 61.8212 78.3466 66.3999 77.4219Z" fill="#121516"/>
<path id="Path 42070" opacity="0.1" fill-rule="evenodd" clip-rule="evenodd" d="M66.3935 78.6016C66.3935 78.6016 61.6032 82.1081 62.4828 82.3458C63.3624 82.5836 66.3935 78.6016 66.3935 78.6016Z" fill="#121516"/>
<path id="Path 42071" opacity="0.1" fill-rule="evenodd" clip-rule="evenodd" d="M68.6781 80.0312C68.6781 80.0312 67.0742 82.4894 67.9808 82.361C68.8873 82.2326 68.6781 80.0312 68.6781 80.0312Z" fill="#121516"/>
<path id="Path 42072" fill-rule="evenodd" clip-rule="evenodd" d="M156.4 26.7148C156.4 26.7148 147.366 26.1704 148.422 32.5083C148.422 32.5083 148.21 33.628 149.225 34.1368C149.225 34.1368 149.242 33.6613 150.152 33.8254C150.477 33.8799 150.806 33.8959 151.134 33.8729C151.579 33.8432 152.001 33.6687 152.337 33.376C152.337 33.376 154.879 32.3276 155.867 28.1721C155.867 28.1721 156.6 27.264 156.581 27.031L155.054 27.6848C155.054 27.6848 155.575 28.7854 155.164 29.7007C155.164 29.7007 155.116 27.7252 154.821 27.7703C154.762 27.7703 154.03 28.1531 154.03 28.1531C154.03 28.1531 154.926 30.0692 154.248 31.4647C154.248 31.4647 154.505 29.1016 153.749 28.291L152.675 28.9186C152.675 28.9186 153.723 30.8989 153.012 32.5154C153.012 32.5154 153.195 30.0359 152.449 29.0707L151.474 29.8291C151.474 29.8291 152.461 31.7832 151.859 33.124C151.859 33.124 151.781 30.238 151.263 30.0192C151.263 30.0192 150.412 30.7705 150.283 31.0795C150.283 31.0795 150.956 32.5059 150.538 33.2453C150.538 33.2453 150.281 31.322 150.062 31.3125C150.062 31.3125 149.213 32.5867 149.125 33.4521C149.167 32.6453 149.418 31.8634 149.855 31.1841C149.366 31.2767 148.915 31.5106 148.557 31.8569C148.557 31.8569 148.688 30.9559 150.064 30.8775C150.064 30.8775 150.778 29.9099 150.954 29.8505C150.954 29.8505 149.584 29.7363 148.755 30.1048C148.755 30.1048 149.484 29.2561 151.206 29.6294L152.157 28.8449C152.157 28.8449 150.354 28.6071 149.589 28.871C149.589 28.871 150.469 28.1198 152.416 28.6665L153.462 28.0413C153.462 28.0413 151.926 27.7085 151.011 27.8297C151.011 27.8297 151.976 27.3091 153.768 27.8725L154.517 27.5373C154.517 27.5373 153.39 27.3162 153.062 27.2806C152.734 27.2449 152.715 27.1546 152.715 27.1546C153.428 27.0359 154.16 27.1182 154.829 27.3923C154.829 27.3923 156.433 26.8146 156.4 26.7148L156.4 26.7148Z" fill="#BD1A8D"/>
<path id="Path 42073" opacity="0.1" fill-rule="evenodd" clip-rule="evenodd" d="M183.853 58.418C183.853 58.418 174.819 57.8735 175.875 64.2115C175.875 64.2115 175.663 65.3312 176.678 65.8399C176.678 65.8399 176.695 65.3644 177.608 65.5285C177.932 65.5831 178.262 65.599 178.59 65.5761C179.029 65.5442 179.446 65.3707 179.778 65.0816C179.778 65.0816 182.322 64.0308 183.311 59.8753C183.311 59.8753 184.041 58.9695 184.012 58.7365L182.486 59.3879C182.486 59.3879 183.007 60.4886 182.598 61.4038C182.598 61.4038 182.548 59.4283 182.256 59.4735C182.196 59.4735 181.461 59.8562 181.461 59.8562C181.461 59.8562 182.36 61.7747 181.683 63.1678C181.683 63.1678 181.939 60.8048 181.181 59.9941L180.118 60.6146C180.118 60.6146 181.167 62.5949 180.456 64.2115C180.456 64.2115 180.639 61.7319 179.892 60.7667L178.92 61.5275C178.92 61.5275 179.904 63.4792 179.305 64.8201C179.305 64.8201 179.227 61.934 178.709 61.7153C178.709 61.7153 177.857 62.4665 177.727 62.7756C177.727 62.7756 178.402 64.202 177.983 64.9413C177.983 64.9413 177.727 63.0181 177.508 63.0085C177.508 63.0085 176.659 64.2828 176.571 65.1481C176.614 64.3413 176.866 63.5595 177.304 62.8801C176.814 62.9729 176.362 63.2067 176.003 63.5529C176.003 63.5529 176.136 62.6519 177.513 62.5735C177.513 62.5735 178.214 61.6059 178.402 61.5465C178.402 61.5465 177.033 61.4324 176.203 61.8009C176.203 61.8009 176.933 60.9522 178.651 61.3373L179.602 60.5527C179.602 60.5527 177.798 60.315 177.035 60.5789C177.035 60.5789 177.915 59.8277 179.862 60.3745L180.908 59.7492C180.908 59.7492 179.369 59.4188 178.454 59.5376C178.454 59.5376 179.422 59.017 181.214 59.5805L181.963 59.2452C181.963 59.2452 180.836 59.0241 180.506 58.9885C180.175 58.9529 180.159 58.8625 180.159 58.8625C180.872 58.7438 181.605 58.8261 182.274 59.1002C182.274 59.1002 183.882 58.5178 183.853 58.4179L183.853 58.418Z" fill="#065BAA"/>
<path id="Path 42074" opacity="0.1" fill-rule="evenodd" clip-rule="evenodd" d="M128.971 52.7869C128.971 52.7869 131.051 43.9694 124.622 43.9385C124.622 43.9385 123.555 43.5391 122.882 44.452C122.882 44.452 123.341 44.5495 123.03 45.4196C122.922 45.7273 122.85 46.0464 122.816 46.3705C122.77 46.8124 122.869 47.2573 123.099 47.6377C123.099 47.6377 123.7 50.324 127.616 52.0071C127.616 52.0071 128.386 52.882 128.619 52.8915L128.238 51.2773C128.238 51.2773 127.064 51.603 126.232 51.0396C126.232 51.0396 128.188 51.3272 128.191 51.0396C128.191 50.9801 127.953 50.1932 127.953 50.1932C127.953 50.1932 125.911 50.7495 124.651 49.8438C124.651 49.8438 126.936 50.4999 127.865 49.8937L127.437 48.7241C127.437 48.7241 125.298 49.4206 123.833 48.4435C123.833 48.4435 126.246 49.0474 127.325 48.4768L126.743 47.388C126.743 47.388 124.651 48.0252 123.431 47.205C123.431 47.205 126.284 47.6186 126.593 47.1479C126.593 47.1479 125.999 46.1803 125.716 45.9997C125.716 45.9997 124.204 46.4228 123.538 45.8832C123.538 45.8832 125.476 45.9569 125.521 45.7524C125.521 45.7524 124.411 44.6993 123.565 44.4616C124.353 44.6411 125.082 45.0229 125.678 45.5694C125.669 45.0711 125.516 44.5862 125.236 44.1739C125.236 44.1739 126.101 44.4592 125.949 45.838C125.949 45.838 126.781 46.6939 126.807 46.8888C126.807 46.8888 127.152 45.5599 126.931 44.6779C126.931 44.6779 127.644 45.5432 126.971 47.1717L127.58 48.2534C127.58 48.2534 128.131 46.5179 127.991 45.7192C127.991 45.7192 128.583 46.7129 127.711 48.5387L128.15 49.6774C128.15 49.6774 128.738 48.2177 128.776 47.3001C128.776 47.3001 129.125 48.3413 128.262 50.0126L128.467 50.8066C128.467 50.8066 128.875 49.7345 128.966 49.4159C129.056 49.0973 129.149 49.0949 129.149 49.0949C129.145 49.8182 128.94 50.5261 128.557 51.1394C128.557 51.1394 128.868 52.7988 128.971 52.7869L128.971 52.7869Z" fill="#065BAA"/>
<path id="Path 42075" opacity="0.1" fill-rule="evenodd" clip-rule="evenodd" d="M109.184 55.7915C109.184 55.7915 101.929 50.3641 99.335 56.2432C99.335 56.2432 98.5433 57.0634 99.1115 58.0452C99.1115 58.0452 99.3825 57.6625 100.062 58.2972C100.303 58.5212 100.57 58.7159 100.856 58.8773C101.245 59.0935 101.693 59.1769 102.133 59.115C102.133 59.115 104.834 59.6356 107.943 56.7092C107.943 56.7092 109.053 56.3526 109.158 56.1434L107.52 55.8557C107.52 55.8557 107.349 57.061 106.505 57.6006C106.505 57.6006 107.549 55.9223 107.278 55.801C107.223 55.7749 106.405 55.6822 106.405 55.6822C106.405 55.6822 106.101 57.779 104.769 58.5706C104.769 58.5706 106.284 56.7377 106.096 55.6441L104.853 55.5775C104.853 55.5775 104.641 57.8099 103.158 58.7703C103.158 58.7703 104.672 56.7995 104.584 55.5823L103.353 55.6822C103.353 55.6822 103.103 57.8527 101.864 58.6419C101.864 58.6419 103.384 56.1886 103.072 55.7226C103.072 55.7226 101.948 55.8819 101.669 56.0673C101.669 56.0673 101.453 57.6221 100.692 58.0167C100.692 58.0167 101.536 56.2694 101.365 56.1481C101.365 56.1481 99.9555 56.7448 99.4016 57.4248C99.8807 56.7738 100.522 56.2591 101.261 55.9318C100.801 55.7407 100.295 55.6878 99.8057 55.7796C99.8057 55.7796 100.409 55.0997 101.603 55.7915C101.603 55.7915 102.72 55.3707 102.91 55.423C102.91 55.423 101.829 54.5743 100.933 54.4269C100.933 54.4269 102.012 54.1179 103.236 55.3779L104.47 55.2519C104.47 55.2519 103.098 54.0632 102.311 53.8635C102.311 53.8635 103.46 53.7185 104.784 55.2448L106.001 55.2994C106.001 55.2994 104.9 54.1773 104.071 53.7732C104.071 53.7732 105.162 53.8683 106.35 55.3256L107.161 55.4563C107.161 55.4563 106.341 54.6528 106.084 54.4436C105.827 54.2344 105.863 54.1464 105.863 54.1464C106.524 54.4393 107.091 54.91 107.501 55.5062C107.501 55.5062 109.153 55.889 109.184 55.7915Z" fill="#065BAA"/>
<path id="Path 42076" opacity="0.1" fill-rule="evenodd" clip-rule="evenodd" d="M133.348 5.3707C133.348 5.3707 126.093 -0.0590727 123.499 5.8224C123.499 5.8224 122.707 6.64257 123.276 7.6244C123.276 7.6244 123.547 7.24166 124.227 7.8764C124.469 8.09928 124.736 8.29316 125.023 8.45408C125.411 8.67046 125.859 8.75393 126.3 8.69182C126.3 8.69182 129 9.21245 132.11 6.2836C132.11 6.2836 133.22 5.92938 133.322 5.71781L131.684 5.43491C131.684 5.43491 131.515 6.6402 130.669 7.17985C130.669 7.17985 131.715 5.50146 131.444 5.38022C131.389 5.35407 130.572 5.26136 130.572 5.26136C130.572 5.26136 130.258 7.3629 128.926 8.14979C128.926 8.14979 130.438 6.31688 130.253 5.22333L129.01 5.15677C129.01 5.15677 128.796 7.38906 127.315 8.34711C127.315 8.34711 128.829 6.37632 128.741 5.15914L127.512 5.25899C127.512 5.25899 127.26 7.43185 126.021 8.22113C126.021 8.22113 127.543 5.76774 127.231 5.30178C127.231 5.30178 126.107 5.46106 125.829 5.64649C125.829 5.64649 125.612 7.20125 124.852 7.59588C124.852 7.59588 125.696 5.84856 125.525 5.72494C125.525 5.72494 124.115 6.32402 123.561 7.00392C124.039 6.35223 124.68 5.83744 125.42 5.51097C124.96 5.31842 124.453 5.26551 123.963 5.35882C123.963 5.35882 124.569 4.67892 125.762 5.37071C125.762 5.37071 126.88 4.94755 127.07 5.00223C127.07 5.00223 125.988 4.15352 125.092 4.00375C125.092 4.00375 126.169 3.69708 127.393 4.95468L128.627 4.82868C128.627 4.82868 127.258 3.64003 126.468 3.43796C126.468 3.43796 127.617 3.29533 128.943 4.82155L130.16 4.87386C130.16 4.87386 129.06 3.75176 128.228 3.35001C128.228 3.35001 129.321 3.4451 130.51 4.9024L131.318 5.03314C131.318 5.03314 130.495 4.23912 130.239 4.03466C129.982 3.83022 130.018 3.73988 130.018 3.73988C130.679 4.03242 131.246 4.50326 131.656 5.0997C131.656 5.09971 133.308 5.46107 133.348 5.37072L133.348 5.3707Z" fill="#065BAA"/>
<path id="Path 42077" opacity="0.1" fill-rule="evenodd" clip-rule="evenodd" d="M161.068 12.2465C161.068 12.2465 158.168 3.66207 152.697 7.03547C152.697 7.03547 151.58 7.2732 151.492 8.39292C151.492 8.39292 151.932 8.23125 152.127 9.13463C152.199 9.45598 152.309 9.76788 152.453 10.0642C152.649 10.4629 152.969 10.7873 153.365 10.9889C153.365 10.9889 155.296 12.9502 159.518 12.3012C159.518 12.3012 160.633 12.6388 160.837 12.5223L159.649 11.355C159.649 11.355 158.826 12.2513 157.823 12.2156C157.823 12.2156 159.637 11.4264 159.487 11.172C159.456 11.1221 158.836 10.5824 158.836 10.5824C158.836 10.5824 157.395 12.1348 155.85 12.0326C155.85 12.0326 158.134 11.3812 158.6 10.3684L157.616 9.61009C157.616 9.61009 156.175 11.3265 154.409 11.2742C154.409 11.2742 156.786 10.5111 157.388 9.45557L156.318 8.83983C156.318 8.83983 154.892 10.4873 153.413 10.435C153.413 10.435 156.057 9.27727 156.064 8.71622C156.064 8.71622 155.049 8.20985 154.713 8.20509C154.713 8.20509 153.653 9.36284 152.812 9.25824C152.812 9.25824 154.495 8.29542 154.423 8.09812C154.423 8.09812 152.926 7.79145 152.082 8.03869C152.845 7.77291 153.665 7.71144 154.459 7.86038C154.188 7.44173 153.8 7.11126 153.344 6.90944C153.344 6.90946 154.228 6.69311 154.82 7.93883C154.82 7.93883 155.981 8.22649 156.104 8.37626C156.104 8.37626 155.695 7.06635 155.042 6.434C155.042 6.434 156.104 6.79297 156.394 8.53078L157.483 9.1251C157.483 9.1251 157.034 7.36351 156.492 6.7478C156.492 6.7478 157.521 7.28032 157.745 9.28914L158.719 10.0237C158.719 10.0237 158.448 8.47373 157.992 7.67019C157.992 7.67019 158.838 8.36912 158.99 10.2448L159.582 10.8106C159.582 10.8106 159.363 9.68378 159.273 9.36522C159.183 9.04665 159.256 9.02526 159.256 9.02526C159.634 9.64197 159.834 10.3512 159.834 11.0745C159.834 11.0745 160.985 12.3083 161.068 12.2465V12.2465Z" fill="#065BAA"/>
<path id="Path 42078" opacity="0.1" fill-rule="evenodd" clip-rule="evenodd" d="M142.138 12.6666C142.138 12.6666 133.128 11.6634 133.872 18.056C133.872 18.056 133.603 19.1638 134.585 19.7201C134.585 19.7201 134.625 19.2446 135.536 19.4586C135.858 19.5278 136.186 19.5605 136.515 19.5561C136.96 19.5481 137.39 19.3953 137.74 19.121C137.74 19.121 140.333 18.201 141.543 14.1001C141.543 14.1001 142.318 13.2324 142.302 12.9971L140.745 13.5724C140.745 13.5724 141.22 14.6969 140.745 15.5907C140.745 15.5907 140.795 13.6152 140.507 13.6461C140.447 13.6461 139.696 13.9884 139.696 13.9884C139.696 13.9884 140.495 15.9497 139.749 17.3166C139.749 17.3166 140.124 14.9679 139.409 14.1216L138.303 14.6921C138.303 14.6921 139.254 16.7247 138.458 18.3032C138.458 18.3032 138.767 15.8356 138.07 14.8347L137.06 15.5479C137.06 15.5479 137.944 17.5473 137.276 18.8571C137.276 18.8571 137.345 15.9711 136.839 15.7262C136.839 15.7262 135.95 16.4394 135.805 16.7342C135.805 16.7342 136.406 18.1844 135.952 18.9095C135.952 18.9095 135.793 16.9767 135.583 16.9577C135.583 16.9577 134.671 18.1867 134.537 19.0545C134.62 18.25 134.912 17.4811 135.384 16.8245C134.89 16.8927 134.428 17.1034 134.052 17.4308C134.052 17.4308 134.228 16.5393 135.607 16.5298C135.607 16.5298 136.356 15.6002 136.558 15.5503C136.558 15.5503 135.196 15.3672 134.347 15.6929C134.347 15.6929 135.12 14.8799 136.817 15.353L137.818 14.6184C137.818 14.6184 136.009 14.2523 135.244 14.49C135.244 14.49 136.161 13.7768 138.077 14.4306L139.154 13.8576C139.154 13.8576 137.635 13.4487 136.715 13.5224C136.715 13.5224 137.706 13.047 139.468 13.7055L140.233 13.4083C140.233 13.4083 139.119 13.1302 138.79 13.0779C138.462 13.0256 138.451 12.9352 138.451 12.9352C139.169 12.8528 139.897 12.9713 140.552 13.2776C140.552 13.2776 142.154 12.7665 142.138 12.6666L142.138 12.6666Z" fill="#065BAA"/>
<path id="Path 42079" opacity="0.1" fill-rule="evenodd" clip-rule="evenodd" d="M220.961 82.5964C220.961 82.5964 211.956 81.5932 212.7 87.9787C212.7 87.9787 212.431 89.0865 213.413 89.6428C213.413 89.6428 213.454 89.1673 214.364 89.3789C214.685 89.4505 215.014 89.4832 215.344 89.4764C215.788 89.4696 216.218 89.3167 216.568 89.0413C216.568 89.0413 219.161 88.1213 220.36 84.0228C220.36 84.0228 221.135 83.1527 221.118 82.9198L219.561 83.4927C219.561 83.4927 220.036 84.6195 219.561 85.5134C219.561 85.5134 219.611 83.5355 219.323 83.5688C219.264 83.5688 218.512 83.9087 218.512 83.9087C218.512 83.9087 219.311 85.87 218.565 87.237C218.565 87.237 218.94 84.8905 218.225 84.0418L217.119 84.6148C217.119 84.6148 218.07 86.6474 217.276 88.2259C217.276 88.2259 217.583 85.7583 216.886 84.7551L215.876 85.4682C215.876 85.4682 216.76 87.4676 216.092 88.775C216.092 88.775 216.161 85.889 215.655 85.6465C215.655 85.6465 214.768 86.3597 214.621 86.6545C214.621 86.6545 215.225 88.1047 214.768 88.8298C214.768 88.8298 214.609 86.897 214.4 86.878C214.4 86.878 213.487 88.1071 213.354 88.9748C213.436 88.1703 213.728 87.4014 214.2 86.7448C213.706 86.8118 213.243 87.0227 212.869 87.3511C212.869 87.3511 213.045 86.4572 214.423 86.4476C214.423 86.4476 215.175 85.5182 215.374 85.4706C215.374 85.4706 214.012 85.2851 213.164 85.6109C213.164 85.6109 213.936 84.8002 215.636 85.2733L216.634 84.5387C216.634 84.5387 214.847 84.2012 214.069 84.4341C214.069 84.4341 214.987 83.7209 216.903 84.3723L217.98 83.8017C217.98 83.8017 216.461 83.3928 215.541 83.4665C215.541 83.4665 216.532 82.9911 218.294 83.6496L219.059 83.35C219.059 83.35 217.944 83.0719 217.616 83.022C217.288 82.972 217.276 82.8793 217.276 82.8793C217.995 82.7953 218.722 82.9131 219.378 83.2193C219.378 83.2193 220.985 82.6986 220.961 82.5964L220.961 82.5964Z" fill="#065BAA"/>
<path id="Path 42080" opacity="0.1" fill-rule="evenodd" clip-rule="evenodd" d="M234.735 91.0102C234.735 91.0102 225.729 90.0093 226.473 96.3924C226.473 96.3924 226.207 97.5002 227.187 98.0565C227.187 98.0565 227.227 97.5811 228.137 97.795C228.458 97.8648 228.786 97.8968 229.115 97.8902C229.557 97.8811 229.985 97.7293 230.334 97.4575C230.334 97.4575 232.925 96.5374 234.124 92.4365C234.124 92.4365 234.901 91.5689 234.882 91.3335L233.325 91.9065C233.325 91.9065 233.8 93.0333 233.325 93.9271C233.325 93.9271 233.375 91.9516 233.087 91.9825C233.028 91.9825 232.276 92.3224 232.276 92.3224C232.276 92.3224 233.075 94.2837 232.329 95.6507C232.329 95.6507 232.704 93.3043 231.989 92.458L230.883 93.0285C230.883 93.0285 231.834 95.0611 231.04 96.6396C231.04 96.6396 231.347 94.172 230.65 93.1712L229.64 93.8844C229.64 93.8844 230.524 95.8837 229.859 97.1936C229.859 97.1936 229.925 94.3052 229.419 94.0627C229.419 94.0627 228.532 94.7758 228.385 95.0706C228.385 95.0706 228.989 96.5208 228.532 97.2459C228.532 97.2459 228.373 95.3132 228.164 95.2941C228.164 95.2941 227.251 96.5232 227.12 97.3909C227.202 96.5868 227.493 95.8181 227.964 95.161C227.471 95.2292 227.008 95.4398 226.633 95.7672C226.633 95.7672 226.811 94.8733 228.19 94.8662C228.19 94.8662 228.939 93.9366 229.141 93.8867C229.141 93.8867 227.778 93.7037 226.93 94.0294C226.93 94.0294 227.703 93.2164 229.402 93.6894L230.401 92.9548C230.401 92.9548 228.613 92.6172 227.836 92.8502C227.836 92.8502 228.753 92.1371 230.669 92.7908L231.746 92.2178C231.746 92.2178 230.227 91.809 229.307 91.8827C229.307 91.8827 230.298 91.4072 232.06 92.0657L232.826 91.7685C232.826 91.7685 231.711 91.4904 231.385 91.4381C231.059 91.3858 231.043 91.2955 231.043 91.2955C231.761 91.213 232.489 91.3315 233.144 91.6378C233.144 91.6378 234.758 91.1124 234.735 91.0102V91.0102Z" fill="#065BAA"/>
<path id="Path 42081" opacity="0.1" fill-rule="evenodd" clip-rule="evenodd" d="M204.169 20.1665C204.169 20.1665 196.913 14.7391 194.319 20.6182C194.319 20.6182 193.528 21.4384 194.096 22.4202C194.096 22.4202 194.367 22.0375 195.047 22.6722C195.288 22.8963 195.554 23.091 195.841 23.2523C196.229 23.4683 196.677 23.5518 197.117 23.49C197.117 23.49 199.818 24.0106 202.93 21.0842C202.93 21.0842 204.038 20.7276 204.142 20.5184L202.509 20.2236C202.509 20.2236 202.338 21.4289 201.494 21.9685C201.494 21.9685 202.538 20.2901 202.267 20.1689C202.212 20.1427 201.397 20.05 201.397 20.05C201.397 20.05 201.09 22.1468 199.759 22.9385C199.759 22.9385 201.273 21.1055 201.085 20.012L199.842 19.9454C199.842 19.9454 199.63 22.1777 198.147 23.1382C198.147 23.1382 199.664 21.1674 199.573 19.9502L198.342 20.05C198.342 20.05 198.104 22.2205 196.854 23.0098C196.854 23.0098 198.375 20.5564 198.061 20.0905C198.061 20.0905 196.937 20.2497 196.659 20.4352C196.659 20.4352 196.445 21.9899 195.684 22.3846C195.684 22.3846 196.525 20.6372 196.354 20.516C196.354 20.516 194.945 21.1127 194.391 21.7926C194.87 21.1416 195.511 20.627 196.25 20.2997C195.79 20.1085 195.284 20.0556 194.795 20.1475C194.795 20.1475 195.401 19.4676 196.594 20.1594C196.594 20.1594 197.709 19.7386 197.9 19.7909C197.9 19.7909 196.818 18.9422 195.922 18.7948C195.922 18.7948 197.001 18.4858 198.225 19.7458L199.459 19.6198C199.459 19.6198 198.09 18.4311 197.3 18.2314C197.3 18.2314 198.449 18.0864 199.773 19.6126L200.992 19.6673C200.992 19.6673 199.889 18.5452 199.06 18.1411C199.06 18.1411 200.153 18.2362 201.34 19.6935L202.15 19.8242C202.15 19.8242 201.33 19.0207 201.073 18.8115C200.817 18.6023 200.855 18.5333 200.855 18.5333C201.515 18.8267 202.081 19.2974 202.49 19.8932C202.49 19.8931 204.138 20.264 204.169 20.1665L204.169 20.1665Z" fill="#065BAA"/>
<path id="Path 42082" opacity="0.1" fill-rule="evenodd" clip-rule="evenodd" d="M209.776 59.3531C209.776 59.3531 207.275 50.645 201.65 53.7712C201.65 53.7712 200.523 53.9447 200.383 55.0716C200.383 55.0716 200.83 54.9313 200.984 55.8418C201.042 56.1689 201.137 56.4881 201.27 56.7927C201.446 57.2024 201.751 57.5431 202.14 57.7627C202.14 57.7627 203.98 59.8072 208.226 59.3507C208.226 59.3507 209.324 59.7359 209.533 59.6313L208.409 58.4093C208.409 58.4093 207.546 59.2699 206.547 59.1891C206.547 59.1891 208.392 58.4759 208.249 58.2215C208.221 58.1692 207.626 57.601 207.626 57.601C207.626 57.601 206.119 59.0893 204.579 58.9157C204.579 58.9157 206.892 58.3689 207.401 57.3847L206.45 56.5812C206.45 56.5812 204.933 58.2311 203.171 58.1027C203.171 58.1027 205.568 57.4441 206.229 56.4195L205.187 55.7563C205.187 55.7563 203.678 57.3372 202.213 57.2183C202.213 57.2183 204.907 56.1794 204.94 55.6207C204.94 55.6207 203.946 55.0692 203.611 55.0502C203.611 55.0502 202.501 56.158 201.657 56.0154C201.657 56.0154 203.383 55.1286 203.321 54.9289C203.321 54.9289 201.838 54.5557 200.984 54.7625C201.757 54.5333 202.577 54.5095 203.362 54.6936C203.11 54.2634 202.738 53.9163 202.292 53.6951C202.292 53.6951 203.186 53.5168 203.718 54.7887C203.718 54.7887 204.862 55.1263 204.981 55.2831C204.981 55.2831 204.631 53.9542 204.006 53.2957C204.006 53.2957 205.052 53.6999 205.263 55.4495L206.324 56.0938C206.324 56.0938 205.953 54.3108 205.439 53.6832C205.439 53.6832 206.443 54.2609 206.578 56.2768L207.529 57.0542C207.529 57.0542 207.327 55.4947 206.909 54.6769C206.909 54.6769 207.724 55.4139 207.791 57.292L208.356 57.8863C208.356 57.8863 208.19 56.7499 208.119 56.4266C208.047 56.1033 208.119 56.0581 208.119 56.0581C208.47 56.6905 208.639 57.4083 208.606 58.1311C208.606 58.1311 209.69 59.4102 209.776 59.3531L209.776 59.3531Z" fill="#065BAA"/>
<path id="Path 42083" opacity="0.1" fill-rule="evenodd" clip-rule="evenodd" d="M154.044 78.9694C154.044 78.9694 149.187 71.3193 144.677 75.8979C144.677 75.8979 143.645 76.3734 143.826 77.5026C143.826 77.5026 144.218 77.2411 144.622 78.0731C144.767 78.3681 144.948 78.6442 145.16 78.8957C145.443 79.2389 145.831 79.4795 146.265 79.5803C146.265 79.5803 148.607 81.0258 152.553 79.3902C152.553 79.3902 153.716 79.452 153.887 79.2927L152.46 78.4369C152.46 78.4369 151.873 79.5067 150.891 79.7088C150.891 79.7088 152.465 78.5201 152.253 78.3014C152.213 78.2586 151.481 77.8829 151.481 77.8829C151.481 77.8829 150.451 79.7325 148.925 80.0011C148.925 80.0011 150.991 78.8244 151.205 77.7356L150.066 77.234C150.066 77.234 149.075 79.2428 147.349 79.6113C147.349 79.6113 149.465 78.3061 149.81 77.1365L148.621 76.7942C148.621 76.7942 147.618 78.7364 146.179 79.0336C146.179 79.0336 148.471 77.2791 148.345 76.7324C148.345 76.7324 147.237 76.4827 146.919 76.5588C146.919 76.5588 146.165 77.9353 145.314 78.0351C145.314 78.0351 146.722 76.699 146.605 76.5231C146.605 76.5231 145.076 76.5826 144.316 77.0224C144.994 76.5828 145.776 76.3286 146.584 76.2854C146.222 75.9433 145.768 75.7144 145.278 75.6269C145.278 75.6269 146.084 75.2061 146.943 76.2759C146.943 76.2759 148.131 76.2759 148.295 76.3948C148.295 76.3948 147.582 75.2061 146.8 74.7616C146.8 74.7616 147.917 74.8567 148.611 76.4756L149.812 76.7942C149.812 76.7942 148.954 75.1895 148.286 74.7306C148.286 74.7306 149.41 75.0017 150.107 76.9012L151.229 77.3766C151.229 77.3766 150.596 75.9384 149.962 75.2656C149.962 75.2656 150.951 75.741 151.543 77.5264L152.256 77.9377C152.256 77.9377 151.78 76.894 151.612 76.6064C151.443 76.3187 151.509 76.2522 151.509 76.2522C152.024 76.7603 152.387 77.4015 152.558 78.1041C152.558 78.1041 153.979 79.0502 154.044 78.9694V78.9694Z" fill="#065BAA"/>
<path id="Path 42084" fill-rule="evenodd" clip-rule="evenodd" d="M185.966 39.8883C185.966 39.8883 181.346 32.0931 176.694 36.5292C176.694 36.5292 175.648 36.9809 175.795 38.1077C175.795 38.1077 176.193 37.8557 176.573 38.6997C176.709 38.9997 176.88 39.2822 177.084 39.5412C177.357 39.8918 177.738 40.1425 178.168 40.2544H178.168C178.168 40.2544 180.462 41.7711 184.458 40.2544C184.458 40.2544 185.619 40.3519 185.794 40.1974L184.399 39.2988C184.399 39.2988 183.781 40.3471 182.792 40.5207C182.792 40.5207 184.401 39.3725 184.199 39.1561C184.156 39.1109 183.439 38.7115 183.439 38.7115C183.439 38.7115 182.352 40.5302 180.824 40.7513C180.824 40.7513 182.925 39.6387 183.17 38.5594L182.048 38.0316C182.048 38.0316 180.995 40.0119 179.257 40.3281C179.257 40.3281 181.413 39.0896 181.793 37.9318L180.619 37.5514C180.619 37.5514 179.554 39.4533 178.109 39.7148C178.109 39.7148 180.453 38.0316 180.343 37.4825C180.343 37.4825 179.245 37.1972 178.917 37.2638C178.917 37.2638 178.12 38.6165 177.267 38.6901C177.267 38.6901 178.715 37.4016 178.605 37.221C178.605 37.221 177.075 37.2329 176.302 37.6489C176.994 37.2314 177.783 37.002 178.591 36.9832C178.24 36.6299 177.793 36.3869 177.305 36.2843C177.305 36.2843 178.125 35.8873 178.969 36.9832C178.969 36.9832 180.158 37.0237 180.317 37.1449C180.317 37.1449 179.644 35.9562 178.874 35.4665C178.874 35.4665 179.987 35.5949 180.631 37.2352L181.82 37.5918C181.82 37.5918 181.014 35.961 180.357 35.4808C180.357 35.4808 181.475 35.7875 182.112 37.7059L183.217 38.2218C183.217 38.2218 182.63 36.7645 182.029 36.0823C182.029 36.0823 183.001 36.5886 183.541 38.3906L184.237 38.8233C184.237 38.8233 183.79 37.7654 183.633 37.473C183.477 37.1806 183.543 37.1164 183.543 37.1164C184.041 37.6401 184.385 38.2919 184.534 38.9992C184.534 38.9992 185.897 39.9668 185.966 39.8883H185.966Z" fill="#BD1A8D"/>
<path id="Path 42085" fill-rule="evenodd" clip-rule="evenodd" d="M156.743 56.2792C156.743 56.2792 156.981 47.2217 150.688 48.4983C150.688 48.4983 149.561 48.3247 149.086 49.3565C149.086 49.3565 149.561 49.3565 149.428 50.2718C149.385 50.5981 149.38 50.9285 149.414 51.256C149.457 51.7002 149.645 52.1179 149.949 52.4446C149.949 52.4446 151.083 54.9503 155.269 55.8014C155.269 55.8014 156.199 56.5027 156.432 56.4647L155.719 54.9622C155.719 54.9622 154.637 55.5185 153.707 55.1405C153.707 55.1405 155.681 55.024 155.626 54.734C155.626 54.6745 155.217 53.9519 155.217 53.9519C155.217 53.9519 153.329 54.9147 151.915 54.2823C151.915 54.2823 154.292 54.4606 155.07 53.6785L154.406 52.6253C154.406 52.6253 152.462 53.7379 150.821 53.0818C150.821 53.0818 153.306 53.1816 154.247 52.4042L153.455 51.4533C153.455 51.4533 151.537 52.5041 150.177 51.9478C150.177 51.9478 153.058 51.7742 153.268 51.2489C153.268 51.2489 152.488 50.4239 152.174 50.2979C152.174 50.2979 150.781 51.0111 150.02 50.626C150.02 50.626 151.922 50.3074 151.934 50.0959C151.934 50.0959 150.634 49.2899 149.756 49.2305C150.565 49.245 151.356 49.4712 152.051 49.8866C151.942 49.4007 151.694 48.957 151.337 48.61C151.337 48.61 152.243 48.7122 152.367 50.084C152.367 50.084 153.358 50.7544 153.422 50.9398C153.422 50.9398 153.491 49.5681 153.094 48.7503C153.094 48.7503 153.969 49.4516 153.641 51.1823L154.456 52.1189C154.456 52.1189 154.642 50.3074 154.345 49.5538C154.345 49.5538 155.124 50.4073 154.644 52.3709L155.303 53.3956C155.303 53.3956 155.583 51.8479 155.433 50.9374C155.433 50.9374 155.985 51.8883 155.481 53.6975L155.842 54.4344C155.842 54.4344 156.025 53.3005 156.049 52.97C156.073 52.6396 156.163 52.6182 156.163 52.6182C156.306 53.3274 156.25 54.0624 155.999 54.7411C155.999 54.7411 156.639 56.3102 156.743 56.2792V56.2792Z" fill="#BD1A8D"/>
<path id="Ellipse 969" opacity="0.1" fill-rule="evenodd" clip-rule="evenodd" d="M167.144 171.366C170.68 171.366 173.546 170.882 173.546 170.285C173.546 169.687 170.68 169.203 167.144 169.203C163.609 169.203 160.742 169.687 160.742 170.285C160.742 170.882 163.609 171.366 167.144 171.366Z" fill="#065BAA"/>
<path id="Ellipse 970" opacity="0.1" fill-rule="evenodd" clip-rule="evenodd" d="M143.808 187.788C147.344 187.788 150.21 187.304 150.21 186.707C150.21 186.109 147.344 185.625 143.808 185.625C140.273 185.625 137.406 186.109 137.406 186.707C137.406 187.304 140.273 187.788 143.808 187.788Z" fill="#065BAA"/>
<path id="Ellipse 971" opacity="0.1" fill-rule="evenodd" clip-rule="evenodd" d="M23.1287 179.374C26.6644 179.374 29.5308 178.89 29.5308 178.293C29.5308 177.695 26.6644 177.211 23.1287 177.211C19.5929 177.211 16.7266 177.695 16.7266 178.293C16.7266 178.89 19.5929 179.374 23.1287 179.374Z" fill="#065BAA"/>
<path id="Ellipse 972" opacity="0.1" fill-rule="evenodd" clip-rule="evenodd" d="M192.371 186.702C195.907 186.702 198.773 186.218 198.773 185.621C198.773 185.023 195.907 184.539 192.371 184.539C188.835 184.539 185.969 185.023 185.969 185.621C185.969 186.218 188.835 186.702 192.371 186.702Z" fill="#065BAA"/>
<path id="Ellipse 973" fill-rule="evenodd" clip-rule="evenodd" d="M199.036 173.514C204.315 173.514 208.595 172.791 208.595 171.898C208.595 171.005 204.315 170.281 199.036 170.281C193.756 170.281 189.477 171.005 189.477 171.898C189.477 172.791 193.756 173.514 199.036 173.514Z" fill="#D8000C"/>
<path id="Path 42086" fill-rule="evenodd" clip-rule="evenodd" d="M202.999 169.254C203.435 168.9 203.753 168.42 203.909 167.88C204.028 167.334 203.795 166.68 203.274 166.48C202.69 166.257 202.064 166.661 201.589 167.07C201.113 167.479 200.574 167.947 199.953 167.861C200.601 167.273 200.893 166.388 200.724 165.529C200.697 165.354 200.623 165.19 200.51 165.054C200.184 164.707 199.597 164.856 199.207 165.13C197.971 166 197.626 167.678 197.619 169.19C197.495 168.646 197.6 168.078 197.597 167.526C197.595 166.975 197.441 166.337 196.967 166.047C196.677 165.885 196.349 165.803 196.017 165.81C195.46 165.791 194.84 165.845 194.462 166.252C193.986 166.756 194.112 167.605 194.521 168.154C194.93 168.703 195.555 169.057 196.131 169.442C196.591 169.717 196.984 170.092 197.281 170.538C197.315 170.6 197.343 170.666 197.364 170.733H200.85C201.63 170.34 202.353 169.843 202.999 169.254L202.999 169.254Z" fill="#FF5C8A"/>
<path id="Path 42087" fill-rule="evenodd" clip-rule="evenodd" d="M18.8281 173.262C18.8281 173.262 22.4773 173.15 23.5828 172.366C24.6882 171.581 29.2003 170.647 29.4737 171.904C29.7471 173.162 34.9606 178.154 30.8383 178.188C26.7161 178.221 21.2601 177.546 20.1618 176.875C19.0635 176.205 18.8281 173.262 18.8281 173.262L18.8281 173.262Z" fill="#696A6B"/>
<path id="Path 42088" opacity="0.2" fill-rule="evenodd" clip-rule="evenodd" d="M30.9073 177.751C26.785 177.784 21.329 177.109 20.2307 176.439C19.3939 175.93 19.0611 174.102 18.9493 173.258H18.8281C18.8281 173.258 19.0659 176.203 20.157 176.871C21.2482 177.539 26.7113 178.217 30.8336 178.184C32.0222 178.184 32.4335 177.751 32.4121 177.123C32.2457 177.506 31.7916 177.744 30.9073 177.751Z" fill="#121516"/>
</g>
<defs>
<linearGradient id="paint0_linear_5484_111663" x1="53.9998" y1="103.04" x2="128.203" y2="103.04" gradientUnits="userSpaceOnUse">
<stop stop-color="#808080" stop-opacity="0.25098"/>
<stop offset="0.54" stop-color="#808080" stop-opacity="0.121569"/>
<stop offset="1" stop-color="#808080" stop-opacity="0.101961"/>
</linearGradient>
</defs>
</svg>
