<svg xmlns="http://www.w3.org/2000/svg" width="255.898" height="219.588" viewBox="0 0 255.898 219.588"><defs><style>.a{fill:#e6e6e6;}.b{fill:#f2f2f2;}.c{fill:#fff;}.d{fill:#cacaca;}.e{fill:#e4e4e4;}.f{fill:#9e9e9e;}.g{fill:#a0616a;}.h{fill:#3f3d56;}.i{fill:#2f2e41;}</style></defs><g transform="translate(0 0)"><path class="a" d="M309.112,654.2a9.1,9.1,0,0,0,8.789-1.548c3.078-2.584,4.043-6.839,4.829-10.78l2.323-11.658-4.863,3.348c-3.5,2.408-7.073,4.893-9.494,8.381s-3.478,8.249-1.533,12.023" transform="translate(-289.896 -452.683)"/><path class="b" d="M311.121,685.633c-.612-4.459-1.242-8.976-.811-13.483a21.207,21.207,0,0,1,4.089-11.118,18.5,18.5,0,0,1,4.745-4.3c.474-.3.911.452.439.751a17.582,17.582,0,0,0-6.955,8.391,28.183,28.183,0,0,0-1.5,12.14c.158,2.474.493,4.932.829,7.387a.45.45,0,0,1-.3.535.437.437,0,0,1-.535-.3Z" transform="translate(-291.154 -469.193)"/><path class="a" d="M324.424,702.658a6.7,6.7,0,0,0,5.838,3.014c2.956-.14,5.419-2.2,7.636-4.161l6.559-5.792-4.341-.208c-3.122-.15-6.324-.29-9.3.674s-5.716,3.28-6.26,6.358" transform="translate(-300.052 -493.374)"/><path class="b" d="M308.005,718.215c2.947-5.214,6.364-11.008,12.471-12.86a13.916,13.916,0,0,1,5.245-.542c.557.048.418.906-.138.859a12.929,12.929,0,0,0-8.371,2.215,21.757,21.757,0,0,0-5.754,6.209c-.953,1.451-1.806,2.963-2.66,4.474C308.527,719.052,307.73,718.7,308.005,718.215Z" transform="translate(-289.769 -499.212)"/><path class="c" d="M662.5,312.524H500.045a1.891,1.891,0,0,1-1.888-1.888V159.772a1.891,1.891,0,0,1,1.888-1.888H662.5a1.891,1.891,0,0,1,1.888,1.888V310.635a1.89,1.89,0,0,1-1.888,1.888Z" transform="translate(-408.487 -157.884)"/><path class="d" d="M662.5,312.524H500.045a1.891,1.891,0,0,1-1.888-1.888V159.772a1.891,1.891,0,0,1,1.888-1.888H662.5a1.891,1.891,0,0,1,1.888,1.888V310.635a1.89,1.89,0,0,1-1.888,1.888ZM500.045,158.638a1.134,1.134,0,0,0-1.132,1.132V310.635a1.134,1.134,0,0,0,1.132,1.132H662.5a1.134,1.134,0,0,0,1.132-1.132V159.772a1.134,1.134,0,0,0-1.132-1.132Z" transform="translate(-408.487 -157.884)"/><path class="e" d="M705.282,262.185a1.282,1.282,0,1,0,0,2.564h70.339a1.282,1.282,0,0,0,0-2.564Z" transform="translate(-536.962 -222.983)"/><path class="e" d="M705.282,282.65a1.282,1.282,0,1,0,0,2.564h35.909a1.282,1.282,0,1,0,0-2.564Z" transform="translate(-536.962 -235.756)"/><path class="e" d="M541.713,392.7a1.282,1.282,0,0,0,0,2.564H673.6a1.282,1.282,0,0,0,0-2.564Z" transform="translate(-434.871 -304.446)"/><path class="e" d="M541.713,413.17a1.282,1.282,0,0,0,0,2.564h97.457a1.282,1.282,0,0,0,0-2.564Z" transform="translate(-434.871 -317.219)"/><path class="e" d="M541.713,433.172a1.282,1.282,0,0,0,0,2.564H673.6a1.282,1.282,0,0,0,0-2.564Z" transform="translate(-434.871 -329.703)"/><path class="e" d="M541.713,453.637a1.282,1.282,0,0,0,0,2.564h97.457a1.282,1.282,0,0,0,0-2.564Z" transform="translate(-434.871 -342.476)"/><path class="e" d="M541.713,474.172a1.282,1.282,0,0,0,0,2.564H673.6a1.282,1.282,0,0,0,0-2.564Z" transform="translate(-434.871 -355.293)"/><path class="e" d="M541.713,494.637a1.282,1.282,0,0,0,0,2.564h97.457a1.282,1.282,0,0,0,0-2.564Z" transform="translate(-434.871 -368.066)"/><path class="f" d="M568.836,263.662a18.417,18.417,0,1,1,18.417-18.417A18.417,18.417,0,0,1,568.836,263.662Z" transform="translate(-441.105 -200.915)"/><path class="g" d="M421.081,488.763a4.6,4.6,0,0,0-5.62-4.271l-6.087-8.579-6.116,2.428,8.767,11.995a4.628,4.628,0,0,0,9.056-1.573Z" transform="translate(-349.256 -356.379)"/><path class="h" d="M388.524,420.862l-18.42-23.9,6.9-21.691c.506-5.453,3.918-6.976,4.064-7.038l.222-.1,6.006,16.016-4.41,11.759,10.823,18.2Z" transform="translate(-328.563 -289.114)"/><path class="g" d="M569.537,312.353a4.6,4.6,0,0,0-3.823,5.934l-8.083,6.733,2.893,5.91,11.281-9.668a4.628,4.628,0,0,0-2.268-8.908Z" transform="translate(-445.607 -254.27)"/><path class="h" d="M503.706,336.3l-22.4,20.212-22.16-5.2c-5.476-.083-7.258-3.367-7.332-3.507l-.112-.214,15.5-7.226,12.065,3.487,17.312-12.2Z" transform="translate(-379.492 -266.34)"/><path class="g" d="M227.246,529.887h6.019l2.863-23.214h-8.883Z" transform="translate(-141.833 -316.236)"/><path class="i" d="M0,0H18.915V7.308H5.307A5.307,5.307,0,0,1,0,2V0Z" transform="translate(103.038 219.24) rotate(179.997)"/><path class="g" d="M163.246,529.887h6.019l2.863-23.214h-8.883Z" transform="translate(-101.888 -316.236)"/><path class="i" d="M0,0H18.915V7.308H5.307A5.307,5.307,0,0,1,0,2Z" transform="translate(78.982 219.24) rotate(179.997)"/><path class="i" d="M157.552,342.991l.491,34.364.491,45.164,10.8-.982,5.4-62.346,6.873,62.346h11.15L193.88,358.7l-3.927-13.746Z" transform="translate(-98.335 -214.075)"/><path class="h" d="M422.328,399.916c-11.751,0-22.568-5.318-22.714-5.391l-.121-.061-.986-23.666c-.286-.836-5.917-17.339-6.871-22.584-.966-5.314,13.038-9.978,14.738-10.523l.386-4.275,15.693-1.691,1.989,5.47,5.63,2.111a2.785,2.785,0,0,1,1.726,3.272L428.669,355.3l7.642,42.1-1.645.071A29.878,29.878,0,0,1,422.328,399.916Z" transform="translate(-341.972 -266.385)"/><circle class="g" cx="11.299" cy="11.299" r="11.299" transform="translate(57.914 46.838) rotate(-28.663)"/><path class="i" d="M420.96,280.746a3.728,3.728,0,0,0,6.433-2.071,3.786,3.786,0,0,0,0-.731c-.145-1.388-.947-2.648-.755-4.114a2.157,2.157,0,0,1,.395-1.01c1.716-2.3,5.744,1.028,7.364-1.052.993-1.276-.174-3.284.588-4.709,1.006-1.882,3.985-.953,5.853-1.984,2.079-1.146,1.954-4.336.586-6.275a9.871,9.871,0,0,0-7.483-3.81,20.074,20.074,0,0,0-8.456,1.65c-3.065,1.194-6.1,2.845-7.99,5.54-2.294,3.277-2.514,7.683-1.367,11.515C416.82,276.025,419.2,278.873,420.96,280.746Z" transform="translate(-356.863 -218.475)"/><path class="d" d="M403.158,740.714h-143.2a.376.376,0,0,1,0-.752h143.2a.376.376,0,0,1,0,.752Z" transform="translate(-259.581 -521.184)"/><path class="c" d="M584.321,271.579a1.311,1.311,0,0,1-.9-.352l-6.073-5.641a1.315,1.315,0,0,1,1.79-1.928l5.144,4.778,10.177-10.177a1.315,1.315,0,0,1,1.86,1.861l-11.073,11.073A1.313,1.313,0,0,1,584.321,271.579Z" transform="translate(-457.654 -220.292)"/></g></svg>