<svg xmlns="http://www.w3.org/2000/svg" width="240" height="205.946" viewBox="0 0 240 205.946"><defs><style>.a{fill:#e6e6e6;}.b{fill:#f2f2f2;}.c{fill:#fff;}.d{fill:#cacaca;}.e{fill:#e4e4e4;}.f{fill:#d8000c;}.g{fill:#a0616a;}.h{fill:#3f3d56;}.i{fill:#2f2e41;}.j{fill:none;}</style></defs><g transform="translate(0 0)"><path class="a" d="M309.169,655.633a9.646,9.646,0,0,0,9.315-1.641c3.262-2.738,4.285-7.249,5.118-11.426l2.462-12.356-5.154,3.549c-3.707,2.552-7.5,5.186-10.063,8.883s-3.686,8.743-1.624,12.743" transform="translate(-288.803 -468.844)"/><path class="b" d="M311.178,687.367c-.649-4.726-1.316-9.513-.86-14.29a22.476,22.476,0,0,1,4.333-11.783,19.6,19.6,0,0,1,5.029-4.557c.5-.317.966.479.465.8a18.635,18.635,0,0,0-7.371,8.894,29.871,29.871,0,0,0-1.586,12.867c.167,2.622.522,5.227.879,7.829a.477.477,0,0,1-.322.567.463.463,0,0,1-.567-.322Z" transform="translate(-290.016 -484.759)"/><path class="a" d="M324.424,703.092a7.1,7.1,0,0,0,6.187,3.194c3.133-.149,5.744-2.334,8.094-4.41l6.952-6.138-4.6-.22c-3.309-.159-6.7-.307-9.855.714s-6.058,3.476-6.634,6.738" transform="translate(-298.593 -508.067)"/><path class="b" d="M308.009,719.02c3.123-5.526,6.745-11.667,13.218-13.63a14.749,14.749,0,0,1,5.559-.574c.59.051.443.961-.146.91a13.7,13.7,0,0,0-8.872,2.347,23.06,23.06,0,0,0-6.1,6.58c-1.01,1.538-1.914,3.141-2.819,4.742C308.562,719.907,307.716,719.538,308.009,719.02Z" transform="translate(-288.681 -513.695)"/><path class="c" d="M672.335,321.782H500.159a2,2,0,0,1-2-2v-159.9a2,2,0,0,1,2-2H672.335a2,2,0,0,1,2,2V319.78a2,2,0,0,1-2,2Z" transform="translate(-434.336 -157.884)"/><path class="d" d="M672.335,321.782H500.159a2,2,0,0,1-2-2v-159.9a2,2,0,0,1,2-2H672.335a2,2,0,0,1,2,2V319.78a2,2,0,0,1-2,2Zm-172.177-163.1a1.2,1.2,0,0,0-1.2,1.2v159.9a1.2,1.2,0,0,0,1.2,1.2H672.335a1.2,1.2,0,0,0,1.2-1.2V159.885a1.2,1.2,0,0,0-1.2-1.2Z" transform="translate(-434.336 -157.884)"/><path class="e" d="M705.358,262.185a1.359,1.359,0,1,0,0,2.717h74.55a1.359,1.359,0,1,0,0-2.717Z" transform="translate(-558.18 -220.636)"/><path class="e" d="M705.358,282.65a1.359,1.359,0,1,0,0,2.717h38.059a1.359,1.359,0,0,0,0-2.717Z" transform="translate(-550.945 -238.737)"/><path class="e" d="M541.789,392.7a1.359,1.359,0,0,0,0,2.717H681.571a1.359,1.359,0,0,0,0-2.717Z" transform="translate(-459.77 -310.056)"/><path class="e" d="M541.789,413.17a1.359,1.359,0,1,0,0,2.717H645.08a1.359,1.359,0,1,0,0-2.717Z" transform="translate(-449.692 -323.318)"/><path class="e" d="M541.789,433.172a1.359,1.359,0,1,0,0,2.717H681.571a1.359,1.359,0,1,0,0-2.717Z" transform="translate(-459.77 -336.28)"/><path class="e" d="M541.789,453.637a1.359,1.359,0,1,0,0,2.717H645.08a1.359,1.359,0,1,0,0-2.717Z" transform="translate(-449.692 -349.542)"/><path class="e" d="M541.789,474.172a1.359,1.359,0,0,0,0,2.717H681.571a1.359,1.359,0,0,0,0-2.717Z" transform="translate(-459.77 -362.85)"/><path class="e" d="M541.789,494.637a1.359,1.359,0,1,0,0,2.717H645.08a1.359,1.359,0,1,0,0-2.717Z" transform="translate(-449.692 -376.112)"/><path class="f" d="M569.939,265.867a19.52,19.52,0,1,1,19.519-19.52A19.52,19.52,0,0,1,569.939,265.867Z" transform="translate(-450.139 -199.364)"/><path class="g" d="M422.148,489.532a4.879,4.879,0,0,0-5.957-4.526l-6.452-9.093-6.482,2.573,9.292,12.713a4.905,4.905,0,0,0,9.6-1.667Z" transform="translate(-353.104 -365.086)"/><path class="h" d="M389.627,424.018,370.1,398.691l7.315-22.99c.536-5.78,4.153-7.394,4.307-7.46l.235-.1,6.365,16.975-4.674,12.463,11.471,19.293Z" transform="translate(-331.659 -297.07)"/><path class="g" d="M570.25,312.356a4.879,4.879,0,0,0-4.052,6.289l-8.567,7.136,3.067,6.263L572.654,321.8a4.905,4.905,0,0,0-2.4-9.441Z" transform="translate(-453.548 -258.532)"/><path class="h" d="M506.819,336.58,483.077,358l-23.487-5.516c-5.8-.088-7.693-3.569-7.77-3.717l-.119-.226,16.432-7.659,12.787,3.7,18.349-12.929Z" transform="translate(-386.225 -271.415)"/><path class="g" d="M227.246,531.277h6.379l3.034-24.6h-9.414Z" transform="translate(-147.514 -331.623)"/><path class="i" d="M0,0H20.048V7.746H5.624A5.624,5.624,0,0,1,0,2.121V0Z" transform="translate(98.125 205.577) rotate(179.997)"/><path class="g" d="M163.246,531.277h6.379l3.035-24.6h-9.414Z" transform="translate(-105.969 -331.623)"/><path class="i" d="M0,0H20.048V7.746H5.624A5.624,5.624,0,0,1,0,2.121Z" transform="translate(75.798 205.577) rotate(179.997)"/><path class="i" d="M157.552,342.991l.52,36.422.521,47.868,11.446-1.041,5.724-66.079,7.284,66.079h11.817l1.19-66.6-4.162-14.569Z" transform="translate(-103.209 -233.146)"/><path class="h" d="M424.168,404c-12.455,0-23.919-5.636-24.074-5.713l-.129-.064-1.045-25.083c-.3-.886-6.271-18.377-7.282-23.936-1.024-5.632,13.818-10.575,15.621-11.153l.409-4.531,16.633-1.792,2.108,5.8,5.967,2.237a2.952,2.952,0,0,1,1.829,3.467l-3.317,13.487,8.1,44.621-1.744.076A31.666,31.666,0,0,1,424.168,404Z" transform="translate(-346.336 -274.035)"/><circle class="g" cx="11.976" cy="11.976" r="11.976" transform="translate(53.354 44.537) rotate(-28.663)"/><path class="i" d="M421.29,282.289a3.952,3.952,0,0,0,6.818-2.2,4.009,4.009,0,0,0-.005-.775c-.154-1.471-1-2.807-.8-4.36a2.286,2.286,0,0,1,.418-1.07c1.819-2.435,6.088,1.089,7.8-1.115,1.052-1.352-.185-3.48.623-4.991,1.066-1.994,4.223-1.01,6.2-2.1,2.2-1.215,2.071-4.6.621-6.651a10.462,10.462,0,0,0-7.932-4.038,21.276,21.276,0,0,0-8.962,1.749c-3.248,1.266-6.469,3.015-8.468,5.871-2.431,3.473-2.665,8.143-1.449,12.2C416.9,277.286,419.426,280.3,421.29,282.289Z" transform="translate(-361.345 -221.365)"/><path class="d" d="M411.754,740.759H259.979a.4.4,0,0,1,0-.8H411.754a.4.4,0,0,1,0,.8Z" transform="translate(-259.581 -534.875)"/><g transform="translate(108 33.75)"><path class="j" d="M0,0H24V24H0Z"/><path class="c" d="M21.016,6.613,19.4,5l-6.395,6.395L6.613,5,5,6.613l6.395,6.395L5,19.4l1.613,1.613,6.395-6.395L19.4,21.016,21.016,19.4l-6.395-6.395Z" transform="translate(-1.008 -1.008)"/></g></g></svg>