<svg width="24" height="24" viewBox="0 0 24 24" fill="none" xmlns="http://www.w3.org/2000/svg">
<path d="M10.7998 11.9969L14.6998 15.8969C14.8831 16.0802 14.9748 16.3135 14.9748 16.5969C14.9748 16.8802 14.8831 17.1135 14.6998 17.2969C14.5165 17.4802 14.2831 17.5719 13.9998 17.5719C13.7165 17.5719 13.4831 17.4802 13.2998 17.2969L8.6998 12.6969C8.5998 12.5969 8.52897 12.4885 8.4873 12.3719C8.44564 12.2552 8.4248 12.1302 8.4248 11.9969C8.4248 11.8635 8.44564 11.7385 8.4873 11.6219C8.52897 11.5052 8.5998 11.3969 8.6998 11.2969L13.2998 6.69688C13.4831 6.51354 13.7165 6.42188 13.9998 6.42188C14.2831 6.42188 14.5165 6.51354 14.6998 6.69688C14.8831 6.88021 14.9748 7.11354 14.9748 7.39688C14.9748 7.68021 14.8831 7.91354 14.6998 8.09688L10.7998 11.9969Z" fill="#105FAE"/>
</svg>
