<svg width="241" height="189" viewBox="0 0 241 189" fill="none" xmlns="http://www.w3.org/2000/svg">
<g id="Group 70003">
<path id="Ellipse 968" opacity="0.1" fill-rule="evenodd" clip-rule="evenodd" d="M84.6929 184.756C107.814 184.756 126.557 181.206 126.557 176.826C126.557 172.446 107.814 168.895 84.6929 168.895C61.5718 168.895 42.8285 172.446 42.8285 176.826C42.8285 181.206 61.5718 184.756 84.6929 184.756Z" fill="#D8000C"/>
<path id="Path 42001" opacity="0.152574" fill-rule="evenodd" clip-rule="evenodd" d="M139.943 27.0883C124.557 26.5558 109.903 21.5872 95.91 16.1527C81.9171 10.7181 68.0574 4.69876 53.0399 1.81984C43.3809 -0.0320868 32.3335 -0.295966 24.5526 4.87707C17.0617 9.86943 14.6416 18.4634 13.3412 26.444C12.3617 32.4491 11.7864 38.7704 14.4681 44.3927C16.3319 48.2963 19.6363 51.577 21.9233 55.3165C29.8802 68.3251 24.2554 84.3672 15.6353 97.0692C11.5939 103.027 6.89869 108.718 3.77727 115.054C0.655872 121.389 -0.78716 128.673 1.94437 135.154C4.64975 141.573 11.0994 146.384 18.0863 149.772C32.2765 156.654 48.9914 158.623 65.3021 159.74C101.397 162.208 137.682 161.14 173.872 160.068C187.265 159.673 200.716 159.272 213.891 157.201C221.209 156.05 228.761 154.225 234.075 149.817C240.817 144.223 242.488 134.752 237.969 127.739C230.39 115.971 209.441 113.05 204.137 100.424C201.223 93.4724 204.216 85.7318 208.454 79.2869C217.545 65.4581 232.781 53.3267 233.582 37.5223C234.134 26.6675 226.81 15.7961 215.484 10.6587C203.614 5.2741 187.151 5.95164 178.398 14.8642C169.376 24.0311 153.529 27.5614 139.943 27.0883V27.0883Z" fill="#FF5C8A"/>
<path id="Path 42002" fill-rule="evenodd" clip-rule="evenodd" d="M127.719 86.6048L120.437 81.6957L124.11 76.2279L104.878 74.6945L97.9667 80.0387L89.3157 75.189L82.1005 76.0567L82.015 74.1549C81.9257 72.1722 81.7265 70.196 81.4183 68.2354C81.4492 67.641 81.4706 66.9587 81.4682 66.217C81.4682 63.0908 81.045 58.9472 79.186 56.1848L79.6139 52.3383L76.143 48.2374C76.7004 47.1271 77.336 46.0578 78.0449 45.0376C78.1637 44.8664 78.2826 44.7 78.411 44.5383C82.916 44.2126 86.4701 40.5088 86.4701 35.98C86.4701 35.7708 86.4701 35.5616 86.4463 35.3548C86.4463 35.2715 86.4297 35.186 86.4202 35.1028C86.86 35.3405 87.3045 35.5782 87.7491 35.816C87.8323 35.9348 87.9274 36.0537 88.032 36.194L88.0534 36.2201L88.1865 36.3841L88.2293 36.4341C88.2768 36.4911 88.3267 36.5458 88.3767 36.6029L88.41 36.6409C88.536 36.7811 88.6691 36.9238 88.8117 37.0641C88.8287 37.0779 88.8446 37.093 88.8593 37.1092L89.0376 37.2756L89.0875 37.3208C89.2396 37.4563 89.4013 37.587 89.563 37.7107L89.6153 37.7487L89.8197 37.889L89.8863 37.9318C89.9647 37.9793 90.0456 38.0292 90.124 38.0744L90.1525 38.091C90.2452 38.141 90.3403 38.1885 90.4354 38.2337L90.483 38.2527C90.5638 38.2876 90.6431 38.3208 90.7207 38.3525L90.7944 38.3787C90.8776 38.4072 90.9584 38.4334 91.044 38.4572L91.0963 38.4714C91.2009 38.4976 91.3055 38.519 91.4125 38.5356H91.4244C91.5251 38.5519 91.6267 38.5622 91.7287 38.5665L91.7976 38.5665C91.8887 38.5713 91.9799 38.5713 92.0711 38.5665H92.1304C92.2445 38.56 92.358 38.5465 92.4704 38.5261C93.0023 38.4562 93.513 38.273 93.9681 37.9888C94.084 37.9114 94.1867 37.8158 94.2724 37.7059C94.7479 37.0831 94.2249 36.4008 94.2249 36.4008C94.0394 35.9586 92.8365 35.6472 92.8365 35.6472C92.8365 35.6472 89.0328 34.0591 89.0328 32.7944C89.0328 31.5297 88.0819 24.9683 78.2659 23.4682C78.2659 23.4682 71.8805 23.1092 70.0856 26.5278L70.0476 26.9272C69.5198 27.2577 69.0824 27.9209 68.5618 28.1158C68.3368 28.1642 68.1199 28.2442 67.9175 28.3536L67.9175 28.3084C67.8574 28.361 67.8082 28.4248 67.7725 28.4962C67.6606 28.7187 67.5936 28.961 67.5752 29.2094C67.5216 29.5128 67.4163 29.8047 67.2638 30.0724C67.2212 30.1485 67.1736 30.2215 67.1211 30.2911L67.0807 30.3553C67.3567 30.3768 67.6338 30.332 67.889 30.2245C67.8488 30.55 67.7689 30.8694 67.6513 31.1755C67.9599 31.1854 68.246 31.0145 68.3835 30.738V30.719L68.4144 30.6762C68.4742 30.5662 68.5235 30.4508 68.5618 30.3315L68.5356 30.3601C68.5832 30.2055 68.626 30.0486 68.6783 29.8965C68.7022 29.8108 68.7417 29.7302 68.7947 29.6588C68.9234 29.529 69.1061 29.4681 69.2869 29.4947L69.1894 31.5558H69.2322C69.1749 31.7058 69.1049 31.8505 69.0229 31.9885C68.6854 32.5353 68.072 32.9085 67.8462 33.5076C67.7488 33.7966 67.7116 34.1024 67.7368 34.4062C67.7368 34.5845 67.7582 34.7652 67.7725 34.9435V34.9292C67.8058 35.4047 67.8153 35.8564 67.5585 36.2391C67.3826 36.5006 67.0997 36.698 67.0023 36.9951C66.9753 37.0779 66.9632 37.1648 66.9666 37.2519C66.9857 37.5124 67.0401 37.7691 67.1283 38.015C67.1293 38.0103 67.1293 38.0054 67.1283 38.0007C67.1876 38.1816 67.2014 38.3743 67.1687 38.5618C67.0617 39.0372 66.484 39.4342 66.5126 39.8883C66.5109 39.948 66.5198 40.0076 66.5387 40.0642C66.6499 40.286 66.8423 40.4563 67.076 40.5397C67.4425 40.7481 67.8635 40.8409 68.2836 40.8059C68.4411 40.7775 68.5934 40.7254 68.7353 40.6514C68.5689 41.0342 68.3978 41.4122 68.2242 41.7712C68.1981 41.8282 68.1695 41.8853 68.141 41.9423C68.141 41.9423 66.6718 40.9605 65.8374 42.9622C65.5938 43.3782 65.4196 43.831 65.3215 44.303C65.2797 44.4918 65.2208 44.6764 65.1456 44.8545C64.7752 45.4817 64.2207 45.9797 63.5575 46.2809C61.8554 47.0607 54.9802 55.6356 54.859 57.856C54.7995 58.7228 54.6529 59.5814 54.4215 60.4188C53.8803 62.3909 53.7413 64.4517 54.0126 66.4786C54.0976 67.1336 54.2383 67.7802 54.4334 68.4113C55.1633 70.6293 55.6506 74.7682 55.6506 74.7682L56.4399 81.9525C56.4106 82.944 56.4535 83.9364 56.5682 84.9217C55.7624 85.8418 52.5268 89.6764 53.763 90.72C54.714 91.5425 56.3781 91.407 57.3124 91.2383C56.5255 93.1853 55.2869 96.5706 55.1229 98.8956C54.8851 102.336 55.5294 106.893 56.5492 108.643C57.5691 110.392 60.9686 114.881 60.9686 114.881C60.9686 114.881 60.8094 121.038 62.0242 123.275C63.239 125.512 63.7287 130.152 63.7287 130.152C63.7287 130.152 64.8627 134.07 64.2945 135.511C63.7264 136.952 65.3477 138.15 63.6455 139.108C61.9434 140.066 59.7658 161.659 59.7658 161.659C59.7658 161.659 58.8885 175.811 59.7658 176.531C59.8127 176.566 59.8629 176.595 59.9155 176.619V181.374C59.9155 181.374 59.3069 182.372 61.7817 182.575C63.4767 182.71 68.2813 183.017 71.1317 183.195L73.3402 183.333C73.3402 183.333 78.5703 184.374 80.881 183.333C83.1918 182.292 87.2879 182.315 86.6793 179.565C86.5986 179.191 86.4906 178.823 86.356 178.464C85.688 176.757 84.554 176.562 82.4643 176.087C82.3431 176.061 82.2266 176.037 82.1196 176.018C79.9182 175.635 79.1956 176.66 77.9617 175.326C76.8895 174.173 73.4757 172.882 72.3132 172.473C72.3418 172.388 72.3774 172.305 72.4059 172.217C72.0767 172.161 71.7706 172.011 71.5239 171.786L74.6739 171.986L76.5496 172.103C76.5496 172.103 80.9952 172.989 82.9683 172.103C84.9415 171.216 88.4124 171.24 87.8941 168.903C87.8259 168.584 87.7345 168.271 87.6207 167.966C87.0526 166.516 86.0874 166.357 84.3115 165.955C84.2093 165.933 84.1142 165.912 84.0191 165.895C82.1482 165.57 81.5348 166.44 80.4864 165.308C79.5878 164.343 76.7517 163.261 75.7318 162.893C75.7318 162.365 75.0186 161.614 74.5693 160.86C74.0415 159.981 75.0162 156.902 75.0162 156.902L75.5725 144.129C75.7844 144.034 76.0084 143.97 76.2382 143.938C76.2382 143.938 78.7534 141.537 78.1852 138.979C78.0694 138.206 78.009 137.425 78.0045 136.643C78.8318 135.875 79.9705 134.741 80.2938 134.042C80.8216 132.903 80.2938 127.385 80.2938 127.385V106.287L84.5017 106.712L88.3196 107.104L89.4822 107.223L93.3001 107.608L102.075 108.495L109.982 106.997L113.403 106.351L120.437 105.02V87.8078L127.719 86.6048ZM70.3087 30.5157L69.3129 29.5199C69.6416 29.6557 69.9896 30.2444 70.3087 30.5157Z" fill="url(#paint0_linear_642_4837)"/>
<path id="Path 42003" fill-rule="evenodd" clip-rule="evenodd" d="M110.642 97.7735C108.265 101.175 99.7182 99.3735 99.7182 99.3735L93.095 93.1758L92.2035 92.3367L93.6988 89.1605C93.6988 89.1605 94.1743 89.2913 94.9897 89.5243C99.2712 90.7676 112.648 94.9136 110.642 97.7735L110.642 97.7735Z" fill="#EFC6E3"/>
<path id="Path 42004" opacity="0.1" fill-rule="evenodd" clip-rule="evenodd" d="M94.9849 89.5243C94.6926 90.5418 93.8914 92.0656 93.095 93.1758L92.2035 92.3367L93.6988 89.1605C93.6988 89.1605 94.1791 89.2913 94.9849 89.5243V89.5243Z" fill="#121516"/>
<path id="Path 42005" fill-rule="evenodd" clip-rule="evenodd" d="M72.2774 53.7136C72.2774 53.7136 66.1724 56.4213 66.472 63.0707C66.6875 67.3545 67.1543 71.622 67.8698 75.8511C67.8698 75.8511 66.6217 85.8572 71.8186 88.4366C77.0154 91.016 81.8246 93.1365 81.8246 93.1365C81.8246 93.1365 89.9551 94.0114 90.9654 94.3727C91.9758 94.7341 95.1328 89.2092 94.5504 88.3486C93.9679 87.488 86.5056 85.6836 85.5547 84.2477C84.6037 82.8119 82.4047 81.9251 82.4047 81.9251C82.4047 81.9251 80.1344 80.551 79.9798 79.3101C79.8253 78.0691 80.4244 77.1443 80.5766 76.5999C80.7287 76.0555 81.1138 70.7993 81.1138 70.7993C81.1138 70.7993 83.6765 52.0898 72.2773 53.7135L72.2774 53.7136Z" fill="#EAF1F8"/>
<path id="Path 42006" opacity="0.1" fill-rule="evenodd" clip-rule="evenodd" d="M76.3077 75.5746C76.3077 75.5746 67.9325 76.9772 68.7431 79.9084C68.7431 79.9084 71.7837 76.7442 76.3077 75.5746Z" fill="#121516"/>
<path id="Path 42007" opacity="0.1" fill-rule="evenodd" clip-rule="evenodd" d="M76.368 76.7621C76.368 76.7621 71.7631 80.5206 72.6641 80.7132C73.5651 80.9057 76.368 76.7621 76.368 76.7621Z" fill="#121516"/>
<path id="Path 42008" opacity="0.1" fill-rule="evenodd" clip-rule="evenodd" d="M78.7891 78.0668C78.7891 78.0668 77.2007 80.5939 78.177 80.4227C79.1533 80.2515 78.7891 78.0668 78.7891 78.0668Z" fill="#121516"/>
<path id="Path 42009" opacity="0.1" fill-rule="evenodd" clip-rule="evenodd" d="M95.2995 89.7981L94.7908 89.6531C94.9358 89.1776 94.9762 88.7925 94.8573 88.6142C94.2749 87.7536 86.8173 85.9516 85.8687 84.5133C84.9201 83.0751 82.7187 82.1907 82.7187 82.1907C82.7187 82.1907 80.4484 80.8166 80.2939 79.5757C80.1394 78.3347 80.7385 77.4099 80.8906 76.8655C81.0427 76.3211 81.4279 71.0625 81.4279 71.0625C81.4279 71.0625 83.9835 52.3554 72.5843 53.9792C72.5843 53.9792 66.4793 56.6893 66.7765 63.3386C66.9921 67.6226 67.4597 71.8901 68.1767 76.1191C68.1767 76.1191 66.9287 86.1251 72.1255 88.7046C77.3222 91.2839 82.1316 93.4045 82.1316 93.4045C82.1316 93.4045 90.2596 94.277 91.2724 94.6407C91.6551 94.7786 92.3469 94.0678 93.0244 93.0907L93.4096 93.4497L100.033 99.645C100.033 99.645 108.579 101.449 110.957 98.0474C112.965 95.1851 99.5906 91.0391 95.2995 89.7981V89.7981Z" fill="#121516"/>
<path id="Path 42010" fill-rule="evenodd" clip-rule="evenodd" d="M68.7597 28.7543C68.5269 28.7998 68.304 28.8859 68.1011 29.0087C67.8634 29.206 67.8634 29.5436 67.804 29.8384C67.7341 30.2485 67.5715 30.6372 67.3285 30.9747C67.599 30.9946 67.8704 30.9498 68.1202 30.844C68.0794 31.1694 67.9996 31.4887 67.8824 31.7949C68.185 31.8026 68.464 31.6324 68.5956 31.3599C68.7214 31.092 68.8209 30.8125 68.8928 30.5254C68.9151 30.4396 68.9539 30.3588 69.0069 30.2877C69.2256 30.0286 69.6321 30.1451 69.9697 30.1784C70.5418 30.2266 71.0951 29.9609 71.4151 29.4842C71.7741 28.9398 71.7955 27.5467 70.9397 27.3993C70.0458 27.2519 69.4895 28.4833 68.7597 28.7543V28.7543Z" fill="#851263"/>
<g id="Group 70001" opacity="0.1">
<path id="Path 42011" fill-rule="evenodd" clip-rule="evenodd" d="M68.5508 29.3038C68.5997 29.1873 68.632 29.0661 68.6915 28.9496C68.1774 29.1469 68.1503 29.4821 68.0149 29.7793C67.9469 29.9507 67.8399 30.1188 67.6957 30.2809C68.1219 29.9825 68.4123 29.6507 68.5508 29.3038Z" fill="#121516"/>
<path id="Path 42012" fill-rule="evenodd" clip-rule="evenodd" d="M68.1488 31.2675C68.2672 30.9616 68.347 30.6421 68.3865 30.3165C68.1485 30.4167 67.8908 30.4614 67.6329 30.4473C67.5578 30.6145 67.4662 30.7738 67.3595 30.9227C67.6291 30.9436 67.8997 30.8996 68.1487 30.7944C68.1093 31.12 68.0294 31.4394 67.911 31.7453C68.2134 31.7524 68.4922 31.5824 68.6242 31.3102C68.6834 31.2022 68.7313 31.0883 68.7668 30.9703C68.6251 31.1684 68.3921 31.2805 68.1488 31.2675Z" fill="#121516"/>
<path id="Path 42013" fill-rule="evenodd" clip-rule="evenodd" d="M70.2383 29.6492C69.9007 29.6159 69.4918 29.4995 69.2731 29.7586C69.221 29.8303 69.1824 29.9108 69.159 29.9963C69.1376 30.0581 69.1186 30.1223 69.1019 30.1865C69.3278 30.0082 69.6939 30.1033 70.0006 30.1342C70.5724 30.1809 71.1249 29.9155 71.446 29.44C71.518 29.3246 71.5718 29.1987 71.6052 29.0668C71.2746 29.476 70.7624 29.6942 70.2383 29.6492V29.6492Z" fill="#121516"/>
</g>
<path id="Path 42014" fill-rule="evenodd" clip-rule="evenodd" d="M75.9169 48.3871L79.5423 52.7471L79.0693 57.1475L74.6879 50.2889L75.9169 48.3871Z" fill="#EAF1F8"/>
<path id="Path 42015" opacity="0.1" fill-rule="evenodd" clip-rule="evenodd" d="M79.54 52.7471L79.0954 56.886L79.0669 57.1475L75.1134 50.957L74.6879 50.2889L74.8115 50.0964L75.9146 48.3871L76.1594 48.6819L79.54 52.7471Z" fill="#121516"/>
<path id="Path 42016" fill-rule="evenodd" clip-rule="evenodd" d="M81.4242 42.4892C80.1975 42.8411 79.0255 44.0488 78.0057 45.5156C77.3163 46.5276 76.6998 47.5874 76.1608 48.6869C75.8257 49.3573 75.5309 50.0015 75.286 50.5626L75.1148 50.962C74.7012 51.9391 74.4706 52.5928 74.4706 52.5928C74.4706 52.5928 65.0802 45.5322 66.566 45.0567C67.0653 44.8975 67.7214 43.8277 68.3704 42.4797L68.4512 42.3086C68.8625 41.4432 69.2667 40.478 69.6256 39.5699C70.3602 37.7037 70.9046 36.0824 70.9046 36.0824C70.9046 36.0824 85.1685 41.4195 81.4242 42.4893V42.4892Z" fill="#EFC6E3"/>
<path id="Path 42017" fill-rule="evenodd" clip-rule="evenodd" d="M87.0394 35.684C87.0394 35.684 89.2075 39.6065 92.1197 39.0716C95.0319 38.5367 93.8338 36.9653 93.8338 36.9653L87.0394 35.684Z" fill="#121516"/>
<path id="Path 42018" fill-rule="evenodd" clip-rule="evenodd" d="M82.8391 171.457C80.9182 172.334 76.5748 171.457 76.5748 171.457L74.7443 171.343C72.367 171.191 68.3874 170.934 66.98 170.82C64.926 170.651 65.43 169.809 65.43 169.809V164.724L75.3957 162.2C75.3957 162.2 79.3349 163.548 80.4142 164.724C81.4388 165.846 82.0379 164.983 83.866 165.307C83.9564 165.323 84.0515 165.342 84.1513 165.366C85.8868 165.763 86.8282 165.92 87.3844 167.358C87.4962 167.661 87.586 167.97 87.6531 168.286C88.1666 170.601 84.7575 170.584 82.8391 171.457Z" fill="#851263"/>
<path id="Path 42019" opacity="0.1" fill-rule="evenodd" clip-rule="evenodd" d="M87.3845 167.361C87.0274 167.584 86.652 167.776 86.2624 167.936C84.9548 168.533 83.7115 169.26 82.3897 169.823C81.068 170.387 79.644 170.789 78.2128 170.682C77.464 170.627 76.6984 170.444 75.9829 170.658C75.5403 170.829 75.1236 171.06 74.7443 171.345C72.367 171.193 68.3874 170.936 66.98 170.822C64.926 170.653 65.43 169.812 65.43 169.812V169.217C65.5037 169.217 65.5869 169.196 65.682 169.189C66.1739 169.181 66.6639 169.254 67.1321 169.405C68.1639 169.686 69.1909 169.961 70.2226 170.237C70.3942 169.59 70.8239 169.042 71.4113 168.72C72.0002 168.408 72.6611 168.256 73.3274 168.281C74.9274 168.302 76.4417 169.06 78.0393 169.136C78.4859 169.178 78.9356 169.102 79.3444 168.918C79.5631 168.808 79.7557 168.649 79.9697 168.528C80.3121 168.362 80.6738 168.24 81.0466 168.164C82.0942 167.903 83.1228 167.571 84.1252 167.17C84.4105 167.059 84.7433 166.857 84.7052 166.552C84.6553 166.148 84.0206 166.101 83.8542 165.73C83.7947 165.594 83.8017 165.439 83.8732 165.309C83.9635 165.326 84.0586 165.345 84.1585 165.368C85.8867 165.765 86.8282 165.922 87.3845 167.361V167.361Z" fill="#121516"/>
<path id="Path 42020" fill-rule="evenodd" clip-rule="evenodd" d="M80.8111 182.587C78.5526 183.619 73.4414 182.587 73.4414 182.587L71.2899 182.461C68.5037 182.283 63.8109 181.986 62.1539 181.845C59.7362 181.646 60.3306 180.657 60.3306 180.657V174.664L72.0578 171.692C72.0578 171.692 76.6936 173.277 77.9631 174.664C79.1684 175.983 79.8649 174.968 82.0259 175.348C82.1329 175.367 82.2446 175.391 82.3611 175.417C84.4032 175.893 85.511 176.071 86.1648 177.763C86.2971 178.119 86.4028 178.484 86.481 178.855C87.0705 181.579 83.0695 181.558 80.8111 182.587V182.587Z" fill="#851263"/>
<path id="Path 42021" opacity="0.1" fill-rule="evenodd" clip-rule="evenodd" d="M86.1601 177.759C85.74 178.022 85.2986 178.248 84.8406 178.437C83.3025 179.138 81.8381 179.994 80.2833 180.657C78.7286 181.321 77.0525 181.791 75.367 181.668C74.4874 181.603 73.5864 181.382 72.752 181.639C72.2292 181.843 71.7371 182.118 71.2899 182.457C68.5037 182.279 63.8109 181.981 62.1539 181.841C59.7362 181.641 60.3306 180.652 60.3306 180.652V179.954C60.429 179.938 60.5282 179.926 60.6277 179.92C61.2068 179.91 61.7837 179.996 62.3346 180.175L65.9696 181.154C66.1742 180.391 66.684 179.745 67.3793 179.369C68.0722 178.999 68.8507 178.821 69.6353 178.85C71.5182 178.877 73.2988 179.768 75.1793 179.858C75.7029 179.906 76.2301 179.819 76.7103 179.604C76.9693 179.473 77.1857 179.285 77.4472 179.145C77.8493 178.948 78.2752 178.805 78.7143 178.717C79.9403 178.408 81.1443 178.017 82.3183 177.548C82.6535 177.415 83.0458 177.177 83.0006 176.82C82.9412 176.345 82.1947 176.288 81.9974 175.85C81.93 175.69 81.9387 175.509 82.0211 175.356C82.1281 175.375 82.2398 175.399 82.3563 175.425C84.3985 175.881 85.5063 176.067 86.1601 177.759Z" fill="#121516"/>
<path id="Path 42022" fill-rule="evenodd" clip-rule="evenodd" d="M75.6971 141.457L75.0623 156.394C75.0623 156.394 74.1114 159.444 74.6273 160.317C75.1432 161.189 76.0132 162.059 75.6971 162.575C75.3809 163.091 71.5772 168.668 70.3482 166.529C69.1191 164.389 67.9066 155.117 67.9066 155.117L69.0406 143.666L75.6971 141.457Z" fill="#121516"/>
<path id="Path 42023" fill-rule="evenodd" clip-rule="evenodd" d="M78.4492 104.246L80.2131 106.605V127.116C80.2131 127.116 80.729 132.584 80.2131 133.713C79.6973 134.842 77.0822 137.101 77.0822 137.101L74.8832 125.809L75.3587 113.863L78.4492 104.246Z" fill="#121516"/>
<path id="Path 42024" opacity="0.1" fill-rule="evenodd" clip-rule="evenodd" d="M75.6971 141.457L75.0623 156.394C75.0623 156.394 74.1114 159.444 74.6273 160.317C75.1432 161.189 76.0132 162.059 75.6971 162.575C75.3809 163.091 71.5772 168.668 70.3482 166.529C69.1191 164.389 67.9066 155.117 67.9066 155.117L69.0406 143.666L75.6971 141.457Z" fill="#121516"/>
<path id="Path 42025" opacity="0.1" fill-rule="evenodd" clip-rule="evenodd" d="M78.4492 104.246L80.2131 106.605V127.116C80.2131 127.116 80.729 132.584 80.2131 133.713C79.6973 134.842 77.0822 137.101 77.0822 137.101L74.8832 125.809L75.3587 113.863L78.4492 104.246Z" fill="#121516"/>
<path id="Path 42026" fill-rule="evenodd" clip-rule="evenodd" d="M80.2189 95.4989V106.594L78.2385 115.231C78.2385 115.231 77.6039 136.072 78.1578 138.607C78.7117 141.141 76.2559 143.521 76.2559 143.521C76.2559 143.521 74.8295 143.68 74.8295 144.788C74.8295 145.895 72.4522 149.067 72.4522 149.067L72.5307 155.248C72.5307 155.248 73.5624 166.818 71.9768 169.036C70.3911 171.254 72.5307 171.573 72.5307 171.573C70.5504 178.07 61.0411 176.565 60.1829 175.852C59.3247 175.139 60.1829 161.113 60.1829 161.113C60.1829 161.113 62.3082 139.717 63.9723 138.766C65.6364 137.815 64.0531 136.626 64.6071 135.2C65.161 133.774 64.0531 129.891 64.0531 129.891C64.0531 129.891 63.5777 125.294 62.3891 123.076C61.2004 120.858 61.3573 114.755 61.3573 114.755C61.3573 114.755 58.0291 110.317 57.0401 108.574C56.0512 106.831 55.4141 102.315 55.6518 98.9056C55.8134 96.602 57.0234 93.2476 57.7914 91.3172C58.1598 90.3924 58.4261 89.7933 58.4261 89.7933L58.652 89.8527L71.6368 93.2523L80.2189 95.4989Z" fill="#121516"/>
<path id="Path 42027" opacity="0.1" fill-rule="evenodd" clip-rule="evenodd" d="M81.4263 42.4824C80.1997 42.8343 79.0276 44.0419 78.0078 45.5088H77.7415C74.6987 45.5109 71.8873 43.8848 70.3718 41.2462C70.0607 40.7091 69.8103 40.139 69.6254 39.5465C70.36 37.6803 70.9043 36.059 70.9043 36.059C70.9043 36.059 85.1706 41.4127 81.4263 42.4824V42.4824Z" fill="#121516"/>
<path id="Path 42028" fill-rule="evenodd" clip-rule="evenodd" d="M86.2326 36.5408C86.2384 40.1055 84.019 43.295 80.6746 44.5285C77.3301 45.7619 73.5713 44.7773 71.2611 42.0625C68.951 39.3477 68.5804 35.4798 70.3331 32.3758C70.5908 31.9155 70.8917 31.4809 71.2318 31.0778C71.7924 30.4099 72.4513 29.8311 73.1859 29.3614C75.7101 27.7573 78.8915 27.598 81.5633 28.942C84.235 30.2859 86.0038 32.9351 86.2207 35.918C86.2255 36.1272 86.2326 36.334 86.2326 36.5408H86.2326Z" fill="#EFC6E3"/>
<path id="Path 42029" opacity="0.1" fill-rule="evenodd" clip-rule="evenodd" d="M79.0968 56.8914L79.0683 57.1529L75.1148 50.9719C74.7012 51.949 74.4706 52.6027 74.4706 52.6027C74.4706 52.6027 65.0802 45.5326 66.566 45.0571C67.0653 44.8978 67.7214 43.828 68.3704 42.4801L68.4512 42.309C69.1406 44.363 73.1464 48.4686 74.8129 50.1137C75.0055 50.3038 75.1647 50.4608 75.2883 50.5749L75.5427 50.8126L75.6759 50.9457C76.2821 51.571 78.8401 54.3286 79.0968 56.8914V56.8914Z" fill="#121516"/>
<path id="Path 42030" fill-rule="evenodd" clip-rule="evenodd" d="M82.0558 77.8628L81.6231 91.7867L81.5471 94.2662C81.5471 94.2662 76.4216 93.7908 71.6384 93.2678C67.7872 92.847 64.157 92.3929 63.5984 92.1267C62.8852 91.7915 61.3566 91.5323 60.1513 91.3683C59.2194 91.2423 58.4872 91.1757 58.4872 91.1757C58.4872 91.1757 58.2138 91.2566 57.793 91.3326C56.8753 91.499 55.2635 91.6345 54.3245 90.8191C53.1239 89.7755 56.2786 85.9837 57.0655 85.0732L57.2391 84.8758L56.9419 82.1301L56.1693 75.01C56.1693 75.01 55.6938 70.9091 54.9806 68.7101C54.79 68.0849 54.6524 67.4447 54.5694 66.7964C54.3044 64.788 54.4401 62.747 54.9688 60.7913C55.1946 59.9603 55.3379 59.1091 55.3967 58.25C55.5155 56.051 62.2314 47.5521 63.8955 46.7794C64.6441 46.4303 65.2465 45.8296 65.5977 45.082C65.7136 44.847 65.8007 44.5987 65.8568 44.3427C66.57 41.2522 68.3744 42.4789 68.3744 42.4789C68.8094 44.8966 75.5444 51.2963 75.5444 51.2963L75.6775 51.4295C76.3455 52.1141 79.3219 55.3283 79.1103 58.0717C79.0681 59.0927 79.2206 60.1126 79.5597 61.0766C80.9296 65.3902 81.7171 69.8674 81.9013 74.3896L82.0558 77.8628Z" fill="#EAF1F8"/>
<path id="Path 42031" opacity="0.1" fill-rule="evenodd" clip-rule="evenodd" d="M72.5052 61.3246C72.5052 61.3246 70.841 65.366 69.5929 66.0198C68.3448 66.6735 73.0995 67.3986 72.5052 61.3246Z" fill="#121516"/>
<path id="Path 42032" opacity="0.1" fill-rule="evenodd" clip-rule="evenodd" d="M73.7572 68.8715C73.7572 68.8715 69.9535 69.3469 69.9535 70.0601C69.9535 70.7733 73.7572 68.8715 73.7572 68.8715Z" fill="#121516"/>
<path id="Path 42033" opacity="0.1" fill-rule="evenodd" clip-rule="evenodd" d="M77.7349 73.5043C77.7349 73.5043 72.2077 85.272 70.6624 85.6286C69.1172 85.9852 77.7349 73.5043 77.7349 73.5043Z" fill="#121516"/>
<path id="Path 42034" opacity="0.1" fill-rule="evenodd" clip-rule="evenodd" d="M75.4334 51.8904L70.8618 53.8778L65.3441 45.543C65.4601 45.3079 65.5471 45.0596 65.6032 44.8036C66.3164 41.7131 68.1208 42.9398 68.1208 42.9398C68.5559 45.3575 75.2908 51.7573 75.2908 51.7573L75.4334 51.8904Z" fill="#121516"/>
<path id="Path 42035" fill-rule="evenodd" clip-rule="evenodd" d="M75.6756 51.4138L71.1041 53.4013L65.5863 45.0664C65.7023 44.8313 65.7893 44.5831 65.8454 44.3271C66.5586 41.2366 68.363 42.4633 68.363 42.4633C68.7981 44.881 75.533 51.2807 75.533 51.2807L75.6756 51.4138Z" fill="#EAF1F8"/>
<path id="Path 42036" opacity="0.1" fill-rule="evenodd" clip-rule="evenodd" d="M81.5457 94.2663C81.5457 94.2663 76.4202 93.7909 71.637 93.2679L80.2191 95.5144V98.1294C79.8435 98.4694 79.5178 98.6453 79.3062 98.555C78.3173 98.139 70.2463 96.8315 70.2463 96.8315C70.2463 96.8315 65.5582 94.4541 60.4993 91.6013C60.3765 91.5333 60.2575 91.4588 60.1428 91.3779C59.5529 90.9774 59.0446 90.4683 58.645 89.8778C57.7108 88.5251 57.2543 86.7873 57.057 85.0828C56.9461 84.1059 56.9047 83.1224 56.9333 82.1397C56.9578 81.0253 57.0595 79.9141 57.2376 78.8138C56.7484 74.5523 56.5102 70.2658 56.5244 65.9763C56.5839 59.3198 62.8243 56.9425 62.8243 56.9425C74.2949 55.9322 70.7384 74.4752 70.7384 74.4752C70.7384 74.4752 70.0751 79.7053 69.8945 80.2402C69.7138 80.7751 69.0648 81.6666 69.1527 82.9147C69.2407 84.1628 71.4326 85.6557 71.4326 85.6557C71.4326 85.6557 73.5721 86.659 74.4541 88.1448C75.096 89.2407 79.2658 90.7265 81.6217 91.7868L81.5457 94.2663Z" fill="#121516"/>
<path id="Path 42037" opacity="0.1" fill-rule="evenodd" clip-rule="evenodd" d="M85.3881 31.2678C85.3925 31.6594 85.3114 32.0472 85.1504 32.4042C85.0285 32.6955 84.8871 32.9782 84.7272 33.2505C84.477 33.7513 84.1219 34.1924 83.686 34.5438C83.1368 34.936 82.4426 35.0454 81.7841 35.2047C81.1256 35.3639 80.4409 35.6183 80.0653 36.1794C79.8618 36.54 79.7256 36.9348 79.6636 37.3442C79.6006 37.7534 79.4372 38.1405 79.1881 38.4711C78.9213 38.8031 78.4637 38.9126 78.0755 38.7374C77.8767 38.6033 77.7259 38.4092 77.6452 38.1834C77.3742 37.5725 77.3053 36.8949 77.1959 36.2364C77.0865 35.5779 76.932 34.9004 76.5279 34.3702C76.1238 33.8401 75.4082 33.4906 74.7734 33.6974C74.3441 33.8627 74.0008 34.1958 73.8225 34.6198C73.6468 35.04 73.5262 35.4811 73.4635 35.9321C73.1688 37.5455 72.8208 39.1494 72.4199 40.7438C72.4077 40.8092 72.3809 40.8709 72.3414 40.9245C72.2782 40.9875 72.1929 41.0233 72.1037 41.0243C71.5712 41.0956 71.0601 40.7224 70.5228 40.7628C70.4674 40.7665 70.4125 40.7753 70.3588 40.789C68.5794 37.6965 68.9222 33.8216 71.217 31.0896L71.2598 31.0776C71.6172 30.9508 71.942 30.7462 72.2107 30.4786C72.5539 30.1351 72.8717 29.7673 73.1616 29.3779L73.3518 29.1401C73.8983 28.4818 74.5207 27.8905 75.2061 27.3785C75.3932 27.2253 75.6078 27.1091 75.8385 27.0362C76.0358 26.9977 76.2381 26.9913 76.4375 27.0172C77.2585 27.1157 78.0862 27.1468 78.9123 27.1099C79.4879 27.0194 80.0681 26.9607 80.6502 26.934C82.155 26.9768 83.4387 28.0394 84.3897 29.2043C84.9008 29.801 85.3572 30.4881 85.3882 31.2678H85.3881Z" fill="#121516"/>
<path id="Path 42038" fill-rule="evenodd" clip-rule="evenodd" d="M69.2267 32.6024C68.8962 33.1445 68.2995 33.513 68.076 34.1073C67.748 34.9702 68.3019 36.0448 67.7931 36.815C67.6244 37.0742 67.3462 37.2667 67.2511 37.5639C67.0895 38.0655 67.5316 38.6004 67.4175 39.1163C67.3034 39.6322 66.6235 40.0672 66.8042 40.5712C66.9109 40.791 67.0982 40.9613 67.3272 41.0466C67.6874 41.2533 68.102 41.3453 68.5158 41.3105C69.1649 41.2035 69.6474 40.5664 70.3059 40.5189C70.8409 40.4809 71.352 40.8517 71.8845 40.7828C71.9737 40.7797 72.0586 40.7432 72.1222 40.6805C72.1626 40.6276 72.1895 40.5656 72.2007 40.4999C72.6001 38.9071 72.9487 37.3032 73.2467 35.6882C73.3074 35.237 73.4273 34.7958 73.6033 34.3759C73.7829 33.9528 74.1258 33.6202 74.5542 33.4535C75.189 33.2491 75.9022 33.5961 76.3087 34.1263C76.7152 34.6564 76.8697 35.334 76.979 35.9925C77.0884 36.651 77.1574 37.3285 77.426 37.9395C77.5076 38.1661 77.6591 38.3609 77.8587 38.4958C78.2153 38.7026 78.6955 38.5386 78.9689 38.2295C79.2193 37.8988 79.3828 37.5106 79.4444 37.1003C79.5064 36.6916 79.6425 36.2976 79.8461 35.9378C80.2218 35.3768 80.9088 35.1224 81.5649 34.9631C82.2211 34.8038 82.9128 34.6921 83.4668 34.2998C83.9021 33.9489 84.2572 33.5087 84.508 33.009C84.8599 32.3956 85.1879 31.73 85.1594 31.0239C85.1285 30.2537 84.6721 29.5666 84.1847 28.9675C83.2338 27.8027 81.9476 26.74 80.4428 26.6996C79.8606 26.7239 79.2803 26.7827 78.705 26.8755C77.8788 26.9127 77.0511 26.8809 76.2302 26.7804C76.0306 26.7565 75.8285 26.7638 75.6311 26.8018C75.4002 26.8723 75.1859 26.9888 75.0012 27.1441C74.315 27.6553 73.6918 28.2458 73.1445 28.9033C72.7916 29.3713 72.4088 29.816 71.9986 30.2346C71.7298 30.5027 71.4051 30.708 71.0477 30.8361C70.8099 30.9027 70.5722 30.8551 70.3464 30.9288C69.645 31.1499 69.5523 32.0652 69.2266 32.6024H69.2267Z" fill="#851263"/>
<path id="Path 42039" opacity="0.1" fill-rule="evenodd" clip-rule="evenodd" d="M92.1198 39.0693C90.2179 39.4187 88.6417 37.8806 87.7693 36.7585C87.5013 36.4177 87.2574 36.0587 87.0394 35.684L93.5675 36.9154L93.8314 36.9653C93.8314 36.9653 95.0319 38.5367 92.1198 39.0693Z" fill="#121516"/>
<g id="Group 70002" opacity="0.1">
<path id="Path 42040" fill-rule="evenodd" clip-rule="evenodd" d="M68.1729 38.4406C68.2992 38.1297 68.0751 37.8169 67.5183 37.5277C67.5183 37.5515 67.4171 37.5753 67.383 37.599C66.8978 37.9176 67.5524 38.248 67.9698 38.5785C68.0595 38.5341 68.1276 38.4879 68.1729 38.4406Z" fill="#121516"/>
<path id="Path 42041" fill-rule="evenodd" clip-rule="evenodd" d="M68.2627 34.5511C67.7565 34.8829 67.8881 35.2164 68.6567 35.547C69.1616 35.2152 69.03 34.8818 68.2627 34.5511Z" fill="#121516"/>
<path id="Path 42042" fill-rule="evenodd" clip-rule="evenodd" d="M84.4897 32.3267C84.2395 32.8275 83.8843 33.2686 83.4484 33.62C82.8993 34.0122 82.2075 34.1216 81.5466 34.2809C80.8857 34.4401 80.2034 34.6945 79.8278 35.2556C79.6246 35.6164 79.4884 36.0111 79.426 36.4204C79.3641 36.8306 79.2007 37.2187 78.9506 37.5497C78.6772 37.8587 78.1969 38.0251 77.8404 37.8159C77.6408 37.681 77.4893 37.4862 77.4077 37.2596C77.139 36.6487 77.0677 35.9735 76.9608 35.3126C76.8538 34.6517 76.6945 33.9766 76.2903 33.4464C75.8862 32.9163 75.1707 32.5668 74.5359 32.7736C74.1071 32.9396 73.7639 33.2725 73.5849 33.696C73.409 34.1159 73.289 34.5571 73.2284 35.0083C72.932 36.6233 72.5833 38.2272 72.1823 39.82C72.1712 39.8857 72.1443 39.9477 72.1039 40.0007C72.0403 40.0633 71.9554 40.0998 71.8661 40.1029C71.3336 40.1718 70.8225 39.801 70.2876 39.839C69.6291 39.8866 69.1465 40.5237 68.4975 40.6283C68.0835 40.6654 67.6682 40.5732 67.3089 40.3644C67.1436 40.2933 66.9953 40.188 66.8738 40.0554C66.7611 40.2167 66.7287 40.4209 66.7858 40.6093C66.8906 40.8306 67.0786 41.0015 67.3089 41.0847C67.6683 41.2935 68.0835 41.3857 68.4975 41.3486C69.1465 41.244 69.6291 40.6069 70.2876 40.5593C70.8225 40.5213 71.3336 40.8921 71.8662 40.8232C71.9554 40.8201 72.0403 40.7836 72.1039 40.721C72.1443 40.668 72.1712 40.606 72.1823 40.5403C72.5817 38.9554 72.9304 37.3515 73.2284 35.7286C73.2891 35.2774 73.409 34.8362 73.5849 34.4163C73.7639 33.9928 74.107 33.6599 74.5359 33.494C75.1707 33.2871 75.8838 33.6366 76.2903 34.1667C76.6968 34.6969 76.8514 35.3744 76.9608 36.0329C77.0702 36.6914 77.139 37.369 77.4077 37.9799C77.4893 38.2065 77.6408 38.4013 77.8404 38.5362C78.197 38.7431 78.6772 38.579 78.9506 38.27C79.2007 37.9391 79.3641 37.5509 79.4261 37.1408C79.4884 36.7314 79.6246 36.3367 79.8278 35.9759C80.2034 35.4148 80.8905 35.1628 81.5466 35.0012C82.2027 34.8395 82.8946 34.7326 83.4484 34.3403C83.8844 33.989 84.2395 33.5479 84.4897 33.047C84.8415 32.436 85.1696 31.7704 85.1411 31.0643C85.1364 30.9736 85.1269 30.8831 85.1126 30.7933C84.9978 31.3375 84.7869 31.8567 84.4897 32.3267H84.4897Z" fill="#121516"/>
</g>
<path id="Path 42043" opacity="0.1" fill-rule="evenodd" clip-rule="evenodd" d="M85.1534 32.3983C85.7631 33.4823 86.1244 34.688 86.2113 35.9286C84.0931 34.74 82.1009 33.4348 81.0953 32.9808C79.3433 32.1891 72.7914 32.308 70.3285 32.3817C70.5861 31.9214 70.887 31.4868 71.2271 31.0837C71.7899 30.4152 72.4513 29.8364 73.1884 29.3672C75.1614 28.1151 77.5627 27.73 79.8282 28.3025C82.0938 28.8749 84.0239 30.3545 85.1653 32.3935L85.1534 32.3983Z" fill="#121516"/>
<path id="Path 42044" opacity="0.1" fill-rule="evenodd" clip-rule="evenodd" d="M92.7141 38.0613C91.5706 38.4131 89.7044 37.7332 87.7693 36.7585C87.5013 36.4177 87.2574 36.0587 87.0394 35.684L93.5675 36.9154C94.0002 37.2102 94.1096 37.631 92.7141 38.0613V38.0613Z" fill="#121516"/>
<path id="Path 42045" fill-rule="evenodd" clip-rule="evenodd" d="M78.2394 24.1557C78.2394 24.1557 71.9989 23.7991 70.2444 27.1867L69.9615 30.1893L69.4861 30.137L69.391 32.1791C69.391 32.1791 78.9288 31.7631 81.0992 32.7425C83.2697 33.722 90.0142 38.6573 92.7172 37.8252C95.4202 36.9932 92.4794 36.2206 92.4794 36.2206C92.4794 36.2206 88.7589 34.6444 88.7589 33.4082C88.7589 32.172 87.8366 25.6415 78.2393 24.1557L78.2394 24.1557Z" fill="#065BAA"/>
<path id="Path 42046" opacity="0.1" fill-rule="evenodd" clip-rule="evenodd" d="M66.2113 135.45C66.2113 135.45 70.1933 139.313 71.9168 139.016C71.9168 139.016 67.0433 138.6 66.2113 135.45Z" fill="#121516"/>
<path id="Path 42047" opacity="0.1" fill-rule="evenodd" clip-rule="evenodd" d="M65.3754 137.246C65.3754 137.246 65.7319 139.234 66.6829 139.039C67.6338 138.844 65.3754 137.246 65.3754 137.246Z" fill="#121516"/>
<path id="Path 42048" opacity="0.1" fill-rule="evenodd" clip-rule="evenodd" d="M71.6211 170.457C71.6211 170.457 65.9679 174.855 66.9212 174.974C67.8745 175.093 71.6211 170.457 71.6211 170.457Z" fill="#121516"/>
<path id="Path 42049" fill-rule="evenodd" clip-rule="evenodd" d="M79.1722 83.1705L97.4776 80.1918V97.5224L80.0851 96.6118L79.1722 83.1705Z" fill="#065BAA"/>
<path id="Path 42050" fill-rule="evenodd" clip-rule="evenodd" d="M79.1722 83.1705L97.4776 80.1918V97.5224L80.0851 96.6118L79.1722 83.1705Z" fill="#9D9F9F"/>
<path id="Path 42051" fill-rule="evenodd" clip-rule="evenodd" d="M97.4847 80.1918L119.437 81.8345L118.222 96.9162L97.4847 97.5224V80.1918Z" fill="#065BAA"/>
<path id="Path 42052" fill-rule="evenodd" clip-rule="evenodd" d="M97.4847 80.1918L119.437 81.8345L118.222 96.9162L97.4847 97.5224V80.1918Z" fill="#696A6B"/>
<path id="Path 42053" fill-rule="evenodd" clip-rule="evenodd" d="M104.234 74.9027L97.4847 80.1922L119.437 81.835L123.024 76.4218L104.234 74.9027Z" fill="#D8000C"/>
<path id="Path 42054" fill-rule="evenodd" clip-rule="evenodd" d="M72.5551 77.4014L89.0346 75.3949L97.4883 80.1994L79.183 83.1782L72.5551 77.4014Z" fill="#D8000C"/>
<path id="Path 42055" fill-rule="evenodd" clip-rule="evenodd" d="M101.498 84.6898V108.384L92.9233 107.505L89.1933 107.124L88.0569 107.006L84.3293 106.623L79.1801 106.095V83.1683L97.483 84.4141L101.498 84.6898Z" fill="#BD1A8D"/>
<path id="Path 42056" fill-rule="evenodd" clip-rule="evenodd" d="M119.432 81.8324V104.94L112.559 106.259L109.216 106.901L101.493 108.385V84.6899L119.432 81.8324Z" fill="#065BAA"/>
<path id="Path 42057" fill-rule="evenodd" clip-rule="evenodd" d="M119.432 81.8324V104.94L112.559 106.259L109.216 106.901L101.493 108.385V84.6899L119.432 81.8324Z" fill="#BD1A8D"/>
<path id="Path 42058" fill-rule="evenodd" clip-rule="evenodd" d="M72.5472 88.1559L79.1752 83.1683L101.493 84.6898L98.208 90.2242L72.5472 88.1559Z" fill="#065BAA"/>
<path id="Path 42059" fill-rule="evenodd" clip-rule="evenodd" d="M72.5472 88.1559L79.1752 83.1683L101.493 84.6898L98.208 90.2242L72.5472 88.1559Z" fill="#D8000C"/>
<path id="Path 42060" fill-rule="evenodd" clip-rule="evenodd" d="M119.432 81.8324L101.493 84.6899L107.331 89.92L126.547 86.6964L119.432 81.8324Z" fill="#065BAA"/>
<path id="Path 42061" fill-rule="evenodd" clip-rule="evenodd" d="M119.432 81.8324L101.493 84.6899L107.331 89.92L126.547 86.6964L119.432 81.8324Z" fill="#D8000C"/>
<path id="Path 42062" opacity="0.995281" fill-rule="evenodd" clip-rule="evenodd" d="M112.562 106.261L109.219 106.903V101.965L112.35 101.176L112.562 106.261Z" fill="#FF5C8A"/>
<path id="Path 42063" fill-rule="evenodd" clip-rule="evenodd" d="M92.9179 104.239V107.505L89.1879 107.125V104.239H92.9179Z" fill="#FF5C8A"/>
<path id="Path 42064" opacity="0.1" fill-rule="evenodd" clip-rule="evenodd" d="M88.0561 105.27V107.008L84.3285 106.625V105.27H88.0561Z" fill="white"/>
<path id="Path 42065" opacity="0.1" fill-rule="evenodd" clip-rule="evenodd" d="M99.2585 102.514C96.7029 105.782 88.2634 103.524 88.2634 103.524L81.9921 96.9815L81.141 96.0948L82.8051 93.0043C82.8051 93.0043 83.2806 93.1612 84.0746 93.437C88.2777 94.9062 101.41 99.763 99.2585 102.514V102.514Z" fill="#121516"/>
<path id="Path 42066" fill-rule="evenodd" clip-rule="evenodd" d="M99.0085 102.037C96.4528 105.306 88.0134 103.047 88.0134 103.047L81.7421 96.505L80.891 95.6182L82.5551 92.5277C82.5551 92.5277 83.0306 92.6846 83.8246 92.9604C88.0276 94.4296 101.16 99.2864 99.0085 102.037V102.037Z" fill="#EFC6E3"/>
<path id="Path 42067" opacity="0.1" fill-rule="evenodd" clip-rule="evenodd" d="M83.8246 92.9604C83.4775 93.9589 82.5955 95.4376 81.7421 96.505L80.891 95.6182L82.5551 92.5277C82.5551 92.5277 83.033 92.6846 83.8246 92.9604V92.9604Z" fill="#121516"/>
<path id="Path 42068" fill-rule="evenodd" clip-rule="evenodd" d="M63.0587 55.9903C63.0587 55.9903 56.8182 58.3677 56.7588 65.0241C56.7446 69.3135 56.9827 73.6001 57.472 77.8616C57.472 77.8616 55.689 87.7869 60.7408 90.6396C65.7926 93.4924 70.4878 95.8697 70.4878 95.8697C70.4878 95.8697 78.5588 97.1773 79.5501 97.5933C80.5414 98.0093 83.9861 92.6604 83.4512 91.7689C82.9164 90.8774 75.5681 88.6784 74.6956 87.1926C73.8232 85.7067 71.6741 84.7059 71.6741 84.7059C71.6741 84.7059 69.4822 83.2106 69.3942 81.9625C69.3062 80.7144 69.9529 79.8229 70.1359 79.288C70.319 78.7531 70.9823 73.523 70.9823 73.523C70.9823 73.523 74.5292 54.9681 63.0587 55.9903H63.0587Z" fill="#EAF1F8"/>
<path id="Path 42069" opacity="0.1" fill-rule="evenodd" clip-rule="evenodd" d="M65.9159 78.0277C65.9159 78.0277 57.4765 78.9786 58.1302 81.9503C58.1302 81.9503 61.3372 78.9525 65.9159 78.0277Z" fill="#121516"/>
<path id="Path 42070" opacity="0.1" fill-rule="evenodd" clip-rule="evenodd" d="M65.9095 79.2074C65.9095 79.2074 61.1192 82.7139 61.9988 82.9517C62.8784 83.1894 65.9095 79.2074 65.9095 79.2074Z" fill="#121516"/>
<path id="Path 42071" opacity="0.1" fill-rule="evenodd" clip-rule="evenodd" d="M68.1941 80.6371C68.1941 80.6371 66.5902 83.0952 67.4967 82.9668C68.4033 82.8384 68.1941 80.6371 68.1941 80.6371Z" fill="#121516"/>
<path id="Path 42072" fill-rule="evenodd" clip-rule="evenodd" d="M155.916 27.3207C155.916 27.3207 146.882 26.7762 147.938 33.1142C147.938 33.1142 147.726 34.2339 148.741 34.7426C148.741 34.7426 148.758 34.2672 149.668 34.4312C149.993 34.4858 150.322 34.5017 150.65 34.4787C151.095 34.4491 151.517 34.2746 151.853 33.9819C151.853 33.9819 154.395 32.9335 155.383 28.7779C155.383 28.7779 156.116 27.8698 156.097 27.6368L154.57 28.2906C154.57 28.2906 155.091 29.3913 154.68 30.3065C154.68 30.3065 154.632 28.331 154.337 28.3762C154.278 28.3762 153.546 28.7589 153.546 28.7589C153.546 28.7589 154.442 30.675 153.764 32.0705C153.764 32.0705 154.021 29.7075 153.265 28.8968L152.191 29.5244C152.191 29.5244 153.239 31.5047 152.528 33.1213C152.528 33.1213 152.711 30.6417 151.965 29.6765L150.99 30.4349C150.99 30.4349 151.977 32.3891 151.375 33.7299C151.375 33.7299 151.297 30.8438 150.779 30.6251C150.779 30.6251 149.928 31.3763 149.799 31.6854C149.799 31.6854 150.472 33.1118 150.054 33.8511C150.054 33.8511 149.797 31.9279 149.578 31.9183C149.578 31.9183 148.729 33.1926 148.641 34.0579C148.683 33.2512 148.934 32.4693 149.371 31.79C148.882 31.8825 148.431 32.1164 148.073 32.4627C148.073 32.4627 148.204 31.5618 149.58 31.4833C149.58 31.4833 150.294 30.5157 150.47 30.4563C150.47 30.4563 149.1 30.3422 148.271 30.7107C148.271 30.7107 149 29.862 150.722 30.2352L151.672 29.4507C151.672 29.4507 149.87 29.213 149.105 29.4768C149.105 29.4768 149.985 28.7256 151.932 29.2724L152.978 28.6472C152.978 28.6472 151.442 28.3143 150.527 28.4356C150.527 28.4356 151.492 27.9149 153.284 28.4784L154.033 28.1432C154.033 28.1432 152.906 27.9221 152.578 27.8864C152.25 27.8508 152.231 27.7604 152.231 27.7604C152.944 27.6418 153.676 27.7241 154.345 27.9981C154.345 27.9981 155.949 27.4205 155.916 27.3206L155.916 27.3207Z" fill="#BD1A8D"/>
<path id="Path 42073" opacity="0.1" fill-rule="evenodd" clip-rule="evenodd" d="M183.369 59.0238C183.369 59.0238 174.335 58.4794 175.391 64.8173C175.391 64.8173 175.179 65.937 176.194 66.4458C176.194 66.4458 176.211 65.9703 177.124 66.1343C177.448 66.1889 177.778 66.2049 178.106 66.1819C178.545 66.15 178.962 65.9765 179.294 65.6874C179.294 65.6874 181.838 64.6366 182.827 60.4811C182.827 60.4811 183.557 59.5753 183.528 59.3424L182.002 59.9937C182.002 59.9937 182.523 61.0944 182.114 62.0097C182.114 62.0097 182.064 60.0342 181.772 60.0793C181.712 60.0793 180.977 60.4621 180.977 60.4621C180.977 60.4621 181.876 62.3806 181.199 63.7737C181.199 63.7737 181.455 61.4106 180.697 60.5999L179.634 61.2204C179.634 61.2204 180.683 63.2007 179.972 64.8173C179.972 64.8173 180.155 62.3378 179.408 61.3726L178.436 62.1333C178.436 62.1333 179.42 64.0851 178.821 65.4259C178.821 65.4259 178.743 62.5399 178.225 62.3211C178.225 62.3211 177.373 63.0724 177.243 63.3814C177.243 63.3814 177.918 64.8078 177.499 65.5471C177.499 65.5471 177.243 63.6239 177.024 63.6144C177.024 63.6144 176.175 64.8886 176.087 65.754C176.13 64.9471 176.382 64.1654 176.82 63.486C176.33 63.5788 175.878 63.8126 175.519 64.1588C175.519 64.1588 175.652 63.2578 177.029 63.1793C177.029 63.1793 177.73 62.2117 177.918 62.1523C177.918 62.1523 176.549 62.0382 175.719 62.4067C175.719 62.4067 176.449 61.558 178.167 61.9431L179.118 61.1586C179.118 61.1586 177.314 60.9209 176.551 61.1847C176.551 61.1847 177.43 60.4335 179.378 60.9803L180.424 60.355C180.424 60.355 178.885 60.0246 177.97 60.1435C177.97 60.1435 178.938 59.6229 180.73 60.1863L181.479 59.8511C181.479 59.8511 180.352 59.63 180.022 59.5943C179.691 59.5587 179.675 59.4683 179.675 59.4683C180.388 59.3496 181.121 59.4319 181.79 59.7061C181.79 59.7061 183.398 59.1236 183.369 59.0238L183.369 59.0238Z" fill="#065BAA"/>
<path id="Path 42074" opacity="0.1" fill-rule="evenodd" clip-rule="evenodd" d="M128.487 53.3927C128.487 53.3927 130.567 44.5753 124.138 44.5444C124.138 44.5444 123.071 44.145 122.398 45.0579C122.398 45.0579 122.857 45.1553 122.546 46.0254C122.438 46.3331 122.366 46.6522 122.332 46.9764C122.286 47.4183 122.385 47.8631 122.615 48.2435C122.615 48.2435 123.216 50.9298 127.132 52.613C127.132 52.613 127.902 53.4878 128.135 53.4973L127.754 51.8831C127.754 51.8831 126.58 52.2088 125.748 51.6454C125.748 51.6454 127.704 51.933 127.707 51.6454C127.707 51.586 127.469 50.7991 127.469 50.7991C127.469 50.7991 125.427 51.3554 124.167 50.4496C124.167 50.4496 126.452 51.1058 127.381 50.4995L126.953 49.3299C126.953 49.3299 124.814 50.0265 123.349 49.0494C123.349 49.0494 125.762 49.6532 126.841 49.0827L126.259 47.9939C126.259 47.9939 124.167 48.631 122.947 47.8108C122.947 47.8108 125.8 48.2245 126.109 47.7538C126.109 47.7538 125.515 46.7862 125.232 46.6055C125.232 46.6055 123.72 47.0287 123.054 46.489C123.054 46.489 124.992 46.5627 125.037 46.3583C125.037 46.3583 123.927 45.3051 123.081 45.0674C123.869 45.247 124.598 45.6288 125.194 46.1752C125.185 45.677 125.032 45.1921 124.752 44.7797C124.752 44.7797 125.617 45.065 125.465 46.4439C125.465 46.4439 126.297 47.2997 126.323 47.4946C126.323 47.4946 126.668 46.1657 126.447 45.2837C126.447 45.2837 127.16 46.1491 126.487 47.7775L127.096 48.8592C127.096 48.8592 127.647 47.1238 127.507 46.325C127.507 46.325 128.099 47.3187 127.227 49.1445L127.666 50.2832C127.666 50.2832 128.254 48.8235 128.292 47.9059C128.292 47.9059 128.641 48.9472 127.778 50.6184L127.983 51.4124C127.983 51.4124 128.391 50.3403 128.482 50.0217C128.572 49.7032 128.665 49.7008 128.665 49.7008C128.661 50.424 128.456 51.132 128.073 51.7453C128.073 51.7453 128.384 53.4046 128.487 53.3927L128.487 53.3927Z" fill="#065BAA"/>
<path id="Path 42075" opacity="0.1" fill-rule="evenodd" clip-rule="evenodd" d="M108.7 56.3974C108.7 56.3974 101.445 50.97 98.8509 56.8491C98.8509 56.8491 98.0593 57.6692 98.6275 58.6511C98.6275 58.6511 98.8985 58.2683 99.5784 58.903C99.8193 59.1271 100.086 59.3218 100.372 59.4831C100.761 59.6993 101.209 59.7828 101.649 59.7208C101.649 59.7208 104.35 60.2415 107.459 57.315C107.459 57.315 108.569 56.9584 108.674 56.7492L107.036 56.4615C107.036 56.4615 106.865 57.6668 106.021 58.2065C106.021 58.2065 107.065 56.5281 106.794 56.4069C106.739 56.3807 105.921 56.288 105.921 56.288C105.921 56.288 105.617 58.3848 104.285 59.1764C104.285 59.1764 105.8 57.3435 105.612 56.25L104.369 56.1834C104.369 56.1834 104.157 58.4157 102.674 59.3761C102.674 59.3761 104.188 57.4053 104.1 56.1882L102.869 56.288C102.869 56.288 102.619 58.4585 101.38 59.2478C101.38 59.2478 102.9 56.7944 102.588 56.3284C102.588 56.3284 101.464 56.4877 101.185 56.6731C101.185 56.6731 100.969 58.2279 100.208 58.6225C100.208 58.6225 101.052 56.8752 100.881 56.754C100.881 56.754 99.4714 57.3507 98.9175 58.0306C99.3967 57.3796 100.038 56.865 100.777 56.5376C100.317 56.3465 99.8111 56.2936 99.3217 56.3855C99.3217 56.3855 99.9255 55.7055 101.119 56.3974C101.119 56.3974 102.236 55.9766 102.426 56.0289C102.426 56.0289 101.345 55.1802 100.449 55.0328C100.449 55.0328 101.528 54.7237 102.752 55.9837L103.986 55.8577C103.986 55.8577 102.614 54.6691 101.827 54.4693C101.827 54.4693 102.976 54.3243 104.3 55.8506L105.517 55.9053C105.517 55.9053 104.416 54.7831 103.587 54.379C103.587 54.379 104.678 54.4741 105.866 55.9314L106.677 56.0622C106.677 56.0622 105.857 55.2586 105.6 55.0494C105.343 54.8402 105.379 54.7523 105.379 54.7523C106.04 55.0451 106.607 55.5159 107.017 56.1121C107.017 56.1121 108.669 56.4948 108.7 56.3974Z" fill="#065BAA"/>
<path id="Path 42076" opacity="0.1" fill-rule="evenodd" clip-rule="evenodd" d="M132.864 5.97654C132.864 5.97654 125.609 0.546762 123.015 6.42823C123.015 6.42823 122.223 7.2484 122.792 8.23024C122.792 8.23024 123.063 7.8475 123.743 8.48224C123.985 8.70512 124.252 8.89899 124.539 9.05992C124.927 9.2763 125.375 9.35977 125.816 9.29766C125.816 9.29766 128.516 9.81829 131.626 6.88943C131.626 6.88943 132.736 6.53522 132.838 6.32364L131.2 6.04074C131.2 6.04074 131.031 7.24603 130.185 7.78568C130.185 7.78568 131.231 6.10729 130.96 5.98606C130.905 5.95991 130.088 5.86719 130.088 5.86719C130.088 5.86719 129.774 7.96874 128.442 8.75563C128.442 8.75563 129.954 6.92271 129.769 5.82916L128.526 5.7626C128.526 5.7626 128.312 7.99489 126.831 8.95295C126.831 8.95295 128.345 6.98215 128.257 5.76497L127.028 5.86482C127.028 5.86482 126.776 8.03768 125.537 8.82696C125.537 8.82696 127.059 6.37357 126.747 5.90762C126.747 5.90762 125.623 6.06689 125.345 6.25233C125.345 6.25233 125.128 7.80708 124.368 8.20172C124.368 8.20172 125.212 6.4544 125.041 6.33077C125.041 6.33077 123.631 6.92985 123.077 7.60976C123.555 6.95806 124.196 6.44327 124.936 6.1168C124.476 5.92426 123.969 5.87135 123.479 5.96466C123.479 5.96466 124.085 5.28475 125.278 5.97655C125.278 5.97655 126.396 5.55338 126.586 5.60806C126.586 5.60806 125.504 4.75935 124.608 4.60959C124.608 4.60959 125.685 4.30292 126.909 5.56051L128.143 5.43452C128.143 5.43452 126.774 4.24587 125.984 4.0438C125.984 4.0438 127.133 3.90116 128.459 5.42739L129.676 5.47969C129.676 5.47969 128.576 4.3576 127.744 3.95585C127.744 3.95585 128.837 4.05094 130.026 5.50823L130.834 5.63898C130.834 5.63898 130.011 4.84496 129.755 4.6405C129.498 4.43605 129.534 4.34572 129.534 4.34572C130.195 4.63826 130.762 5.1091 131.172 5.70554C131.172 5.70555 132.824 6.0669 132.864 5.97656L132.864 5.97654Z" fill="#065BAA"/>
<path id="Path 42077" opacity="0.1" fill-rule="evenodd" clip-rule="evenodd" d="M160.584 12.8524C160.584 12.8524 157.684 4.2679 152.213 7.6413C152.213 7.6413 151.096 7.87903 151.008 8.99875C151.008 8.99875 151.448 8.83709 151.643 9.74047C151.715 10.0618 151.825 10.3737 151.969 10.67C152.165 11.0687 152.485 11.3932 152.881 11.5948C152.881 11.5948 154.812 13.5561 159.034 12.9071C159.034 12.9071 160.149 13.2446 160.353 13.1281L159.165 11.9609C159.165 11.9609 158.342 12.8571 157.339 12.8215C157.339 12.8215 159.153 12.0322 159.003 11.7778C158.972 11.7279 158.352 11.1883 158.352 11.1883C158.352 11.1883 156.911 12.7406 155.366 12.6384C155.366 12.6384 157.65 11.987 158.116 10.9743L157.132 10.2159C157.132 10.2159 155.691 11.9323 153.925 11.88C153.925 11.88 156.302 11.1169 156.904 10.0614L155.834 9.44567C155.834 9.44567 154.408 11.0932 152.929 11.0409C152.929 11.0409 155.573 9.88311 155.58 9.32205C155.58 9.32205 154.565 8.81569 154.229 8.81093C154.229 8.81093 153.169 9.96868 152.328 9.86407C152.328 9.86407 154.011 8.90126 153.939 8.70395C153.939 8.70395 152.442 8.39728 151.598 8.64452C152.361 8.37875 153.181 8.31728 153.975 8.46621C153.704 8.04757 153.316 7.7171 152.86 7.51528C152.86 7.5153 153.744 7.29894 154.336 8.54467C154.336 8.54467 155.497 8.83233 155.62 8.98209C155.62 8.98209 155.211 7.67219 154.558 7.03983C154.558 7.03983 155.62 7.39881 155.91 9.13662L156.999 9.73094C156.999 9.73094 156.55 7.96935 156.008 7.35363C156.008 7.35363 157.037 7.88615 157.261 9.89498L158.235 10.6296C158.235 10.6296 157.964 9.07957 157.508 8.27603C157.508 8.27603 158.354 8.97495 158.506 10.8507L159.098 11.4165C159.098 11.4165 158.879 10.2896 158.789 9.97106C158.699 9.65249 158.772 9.6311 158.772 9.6311C159.15 10.2478 159.35 10.957 159.35 11.6803C159.35 11.6803 160.501 12.9142 160.584 12.8524V12.8524Z" fill="#065BAA"/>
<path id="Path 42078" opacity="0.1" fill-rule="evenodd" clip-rule="evenodd" d="M141.654 13.2725C141.654 13.2725 132.644 12.2692 133.388 18.6618C133.388 18.6618 133.119 19.7697 134.101 20.3259C134.101 20.3259 134.141 19.8505 135.052 20.0644C135.374 20.1337 135.702 20.1664 136.031 20.1619C136.476 20.1539 136.906 20.0012 137.256 19.7269C137.256 19.7269 139.849 18.8069 141.059 14.706C141.059 14.706 141.834 13.8383 141.818 13.6029L140.261 14.1782C140.261 14.1782 140.736 15.3027 140.261 16.1965C140.261 16.1965 140.311 14.221 140.023 14.2519C139.963 14.2519 139.212 14.5943 139.212 14.5943C139.212 14.5943 140.011 16.5555 139.265 17.9225C139.265 17.9225 139.64 15.5737 138.925 14.7274L137.819 15.2979C137.819 15.2979 138.77 17.3305 137.974 18.9091C137.974 18.9091 138.283 16.4414 137.586 15.4406L136.576 16.1538C136.576 16.1538 137.46 18.1531 136.792 19.463C136.792 19.463 136.861 16.5769 136.355 16.3321C136.355 16.3321 135.466 17.0453 135.321 17.3401C135.321 17.3401 135.922 18.7902 135.468 19.5153C135.468 19.5153 135.309 17.5825 135.099 17.5635C135.099 17.5635 134.187 18.7926 134.053 19.6603C134.136 18.8558 134.428 18.087 134.9 17.4304C134.406 17.4985 133.944 17.7092 133.568 18.0366C133.568 18.0366 133.744 17.1451 135.123 17.1356C135.123 17.1356 135.872 16.2061 136.074 16.1561C136.074 16.1561 134.712 15.9731 133.863 16.2988C133.863 16.2988 134.636 15.4857 136.333 15.9588L137.334 15.2242C137.334 15.2242 135.525 14.8581 134.76 15.0958C134.76 15.0958 135.677 14.3826 137.593 15.0364L138.67 14.4635C138.67 14.4635 137.151 14.0546 136.231 14.1283C136.231 14.1283 137.222 13.6528 138.984 14.3113L139.749 14.0142C139.749 14.0142 138.635 13.736 138.306 13.6837C137.978 13.6314 137.967 13.5411 137.967 13.5411C138.685 13.4586 139.413 13.5771 140.068 13.8834C140.068 13.8834 141.67 13.3723 141.654 13.2724L141.654 13.2725Z" fill="#065BAA"/>
<path id="Path 42079" opacity="0.1" fill-rule="evenodd" clip-rule="evenodd" d="M220.477 83.2022C220.477 83.2022 211.472 82.199 212.216 88.5845C212.216 88.5845 211.947 89.6923 212.929 90.2487C212.929 90.2487 212.97 89.7732 213.88 89.9847C214.201 90.0563 214.53 90.0891 214.86 90.0822C215.304 90.0754 215.734 89.9226 216.084 89.6472C216.084 89.6472 218.677 88.7271 219.876 84.6287C219.876 84.6287 220.651 83.7586 220.634 83.5256L219.077 84.0985C219.077 84.0985 219.552 85.2254 219.077 86.1192C219.077 86.1192 219.127 84.1413 218.839 84.1746C218.78 84.1746 218.028 84.5145 218.028 84.5145C218.028 84.5145 218.827 86.4758 218.081 87.8428C218.081 87.8428 218.456 85.4964 217.741 84.6477L216.635 85.2206C216.635 85.2206 217.586 87.2532 216.792 88.8317C216.792 88.8317 217.099 86.3641 216.402 85.3609L215.392 86.074C215.392 86.074 216.276 88.0734 215.608 89.3809C215.608 89.3809 215.677 86.4948 215.171 86.2523C215.171 86.2523 214.284 86.9655 214.137 87.2603C214.137 87.2603 214.741 88.7105 214.284 89.4356C214.284 89.4356 214.125 87.5028 213.916 87.4838C213.916 87.4838 213.003 88.7129 212.87 89.5806C212.952 88.7762 213.244 88.0073 213.716 87.3507C213.222 87.4176 212.759 87.6285 212.385 87.9569C212.385 87.9569 212.561 87.063 213.939 87.0535C213.939 87.0535 214.691 86.124 214.89 86.0764C214.89 86.0764 213.528 85.891 212.68 86.2167C212.68 86.2167 213.452 85.4061 215.152 85.8791L216.15 85.1445C216.15 85.1445 214.363 84.807 213.585 85.0399C213.585 85.0399 214.503 84.3268 216.419 84.9781L217.496 84.4075C217.496 84.4075 215.977 83.9987 215.057 84.0723C215.057 84.0723 216.048 83.5969 217.81 84.2554L218.575 83.9559C218.575 83.9559 217.46 83.6777 217.132 83.6278C216.804 83.5779 216.792 83.4852 216.792 83.4852C217.511 83.4012 218.238 83.5189 218.894 83.8251C218.894 83.8251 220.501 83.3045 220.477 83.2022L220.477 83.2022Z" fill="#065BAA"/>
<path id="Path 42080" opacity="0.1" fill-rule="evenodd" clip-rule="evenodd" d="M234.251 91.616C234.251 91.616 225.245 90.6152 225.989 96.9983C225.989 96.9983 225.723 98.1061 226.703 98.6624C226.703 98.6624 226.743 98.1869 227.653 98.4009C227.974 98.4707 228.302 98.5026 228.631 98.496C229.073 98.4869 229.501 98.3352 229.85 98.0633C229.85 98.0633 232.441 97.1432 233.64 93.0424C233.64 93.0424 234.417 92.1747 234.398 91.9394L232.841 92.5123C232.841 92.5123 233.316 93.6391 232.841 94.533C232.841 94.533 232.891 92.5575 232.603 92.5883C232.544 92.5883 231.792 92.9283 231.792 92.9283C231.792 92.9283 232.591 94.8896 231.845 96.2565C231.845 96.2565 232.22 93.9101 231.505 93.0638L230.399 93.6344C230.399 93.6344 231.35 95.667 230.556 97.2455C230.556 97.2455 230.863 94.7779 230.166 93.777L229.156 94.4902C229.156 94.4902 230.04 96.4895 229.375 97.7994C229.375 97.7994 229.441 94.911 228.935 94.6685C228.935 94.6685 228.048 95.3817 227.901 95.6765C227.901 95.6765 228.505 97.1267 228.048 97.8517C228.048 97.8517 227.889 95.919 227.68 95.9C227.68 95.9 226.767 97.129 226.636 97.9968C226.718 97.1926 227.009 96.424 227.48 95.7668C226.987 95.835 226.524 96.0457 226.149 96.373C226.149 96.373 226.327 95.4792 227.706 95.472C227.706 95.472 228.455 94.5425 228.657 94.4926C228.657 94.4926 227.294 94.3095 226.446 94.6352C226.446 94.6352 227.219 93.8222 228.918 94.2953L229.917 93.5607C229.917 93.5607 228.129 93.2231 227.352 93.4561C227.352 93.4561 228.269 92.7429 230.185 93.3967L231.262 92.8237C231.262 92.8237 229.743 92.4148 228.823 92.4885C228.823 92.4885 229.814 92.013 231.576 92.6715L232.342 92.3744C232.342 92.3744 231.227 92.0962 230.901 92.0439C230.575 91.9916 230.559 91.9013 230.559 91.9013C231.277 91.8188 232.005 91.9374 232.66 92.2436C232.66 92.2436 234.274 91.7182 234.251 91.616V91.616Z" fill="#065BAA"/>
<path id="Path 42081" opacity="0.1" fill-rule="evenodd" clip-rule="evenodd" d="M203.685 20.7724C203.685 20.7724 196.429 15.345 193.835 21.2241C193.835 21.2241 193.044 22.0442 193.612 23.0261C193.612 23.0261 193.883 22.6433 194.563 23.278C194.804 23.5021 195.07 23.6968 195.357 23.8581C195.745 24.0741 196.193 24.1576 196.633 24.0958C196.633 24.0958 199.334 24.6165 202.446 21.69C202.446 21.69 203.554 21.3334 203.658 21.1242L202.025 20.8294C202.025 20.8294 201.854 22.0347 201.01 22.5744C201.01 22.5744 202.054 20.896 201.783 20.7747C201.728 20.7486 200.913 20.6559 200.913 20.6559C200.913 20.6559 200.606 22.7527 199.275 23.5443C199.275 23.5443 200.789 21.7114 200.601 20.6178L199.358 20.5513C199.358 20.5513 199.146 22.7836 197.663 23.744C197.663 23.744 199.179 21.7732 199.089 20.556L197.858 20.6559C197.858 20.6559 197.62 22.8263 196.37 23.6156C196.37 23.6156 197.891 21.1622 197.577 20.6963C197.577 20.6963 196.453 20.8556 196.175 21.041C196.175 21.041 195.961 22.5958 195.2 22.9904C195.2 22.9904 196.041 21.2431 195.87 21.1218C195.87 21.1218 194.461 21.7185 193.907 22.3984C194.386 21.7475 195.027 21.2328 195.766 20.9055C195.306 20.7144 194.8 20.6615 194.311 20.7533C194.311 20.7533 194.917 20.0734 196.11 20.7652C196.11 20.7652 197.225 20.3444 197.416 20.3967C197.416 20.3967 196.334 19.5481 195.438 19.4007C195.438 19.4007 196.517 19.0916 197.741 20.3516L198.975 20.2256C198.975 20.2256 197.606 19.0369 196.816 18.8372C196.816 18.8372 197.965 18.6922 199.289 20.2184L200.508 20.2731C200.508 20.2731 199.405 19.151 198.576 18.7469C198.576 18.7469 199.669 18.842 200.856 20.2993L201.666 20.43C201.666 20.43 200.846 19.6265 200.589 19.4173C200.333 19.2081 200.371 19.1392 200.371 19.1392C201.031 19.4325 201.597 19.9032 202.006 20.499C202.006 20.499 203.654 20.8698 203.685 20.7724L203.685 20.7724Z" fill="#065BAA"/>
<path id="Path 42082" opacity="0.1" fill-rule="evenodd" clip-rule="evenodd" d="M209.292 59.959C209.292 59.959 206.791 51.2508 201.166 54.377C201.166 54.377 200.039 54.5506 199.899 55.6774C199.899 55.6774 200.346 55.5371 200.5 56.4476C200.558 56.7748 200.653 57.094 200.786 57.3986C200.962 57.8082 201.267 58.1489 201.656 58.3685C201.656 58.3685 203.496 60.413 207.742 59.9566C207.742 59.9566 208.84 60.3417 209.049 60.2371L207.925 59.0152C207.925 59.0152 207.062 59.8757 206.063 59.7949C206.063 59.7949 207.908 59.0817 207.765 58.8273C207.737 58.775 207.142 58.2068 207.142 58.2068C207.142 58.2068 205.635 59.6951 204.095 59.5215C204.095 59.5215 206.408 58.9748 206.917 57.9905L205.966 57.187C205.966 57.187 204.449 58.8369 202.687 58.7085C202.687 58.7085 205.084 58.05 205.745 57.0253L204.703 56.3621C204.703 56.3621 203.194 57.943 201.729 57.8241C201.729 57.8241 204.423 56.7852 204.456 56.2265C204.456 56.2265 203.462 55.675 203.127 55.656C203.127 55.656 202.017 56.7638 201.173 56.6212C201.173 56.6212 202.899 55.7345 202.837 55.5348C202.837 55.5348 201.354 55.1615 200.5 55.3683C201.273 55.1391 202.093 55.1154 202.878 55.2994C202.626 54.8693 202.254 54.5221 201.808 54.3009C201.808 54.3009 202.702 54.1226 203.234 55.3945C203.234 55.3945 204.378 55.7321 204.497 55.889C204.497 55.889 204.147 54.5601 203.522 53.9015C203.522 53.9015 204.568 54.3057 204.779 56.0554L205.84 56.6996C205.84 56.6996 205.469 54.9166 204.955 54.289C204.955 54.289 205.959 54.8667 206.094 56.8827L207.045 57.66C207.045 57.66 206.843 56.1005 206.425 55.2827C206.425 55.2827 207.24 56.0197 207.307 57.8978L207.872 58.4921C207.872 58.4921 207.706 57.3557 207.635 57.0324C207.563 56.7091 207.635 56.664 207.635 56.664C207.986 57.2963 208.155 58.0141 208.122 58.737C208.122 58.737 209.206 60.016 209.292 59.959L209.292 59.959Z" fill="#065BAA"/>
<path id="Path 42083" opacity="0.1" fill-rule="evenodd" clip-rule="evenodd" d="M153.56 79.5753C153.56 79.5753 148.703 71.9251 144.193 76.5038C144.193 76.5038 143.161 76.9792 143.342 78.1084C143.342 78.1084 143.734 77.8469 144.138 78.679C144.283 78.9739 144.464 79.25 144.676 79.5015C144.959 79.8448 145.347 80.0853 145.781 80.1862C145.781 80.1862 148.123 81.6316 152.069 79.9961C152.069 79.9961 153.232 80.0578 153.403 79.8986L151.976 79.0427C151.976 79.0427 151.389 80.1125 150.407 80.3146C150.407 80.3146 151.981 79.1259 151.769 78.9072C151.729 78.8644 150.997 78.4888 150.997 78.4888C150.997 78.4888 149.967 80.3384 148.441 80.607C148.441 80.607 150.507 79.4302 150.721 78.3414L149.582 77.8398C149.582 77.8398 148.591 79.8486 146.865 80.2171C146.865 80.2171 148.981 78.9119 149.326 77.7423L148.137 77.4C148.137 77.4 147.134 79.3423 145.695 79.6394C145.695 79.6394 147.987 77.885 147.861 77.3382C147.861 77.3382 146.753 77.0886 146.435 77.1647C146.435 77.1647 145.681 78.5411 144.83 78.6409C144.83 78.6409 146.238 77.3049 146.121 77.129C146.121 77.129 144.592 77.1884 143.832 77.6282C144.51 77.1886 145.292 76.9345 146.1 76.8913C145.738 76.5491 145.284 76.3202 144.794 76.2327C144.794 76.2327 145.6 75.812 146.458 76.8818C146.458 76.8818 147.647 76.8818 147.811 77.0006C147.811 77.0006 147.098 75.812 146.316 75.3674C146.316 75.3674 147.433 75.4625 148.127 77.0814L149.328 77.4C149.328 77.4 148.47 75.7953 147.802 75.3365C147.802 75.3365 148.926 75.6075 149.623 77.507L150.745 77.9824C150.745 77.9824 150.112 76.5442 149.478 75.8714C149.478 75.8714 150.467 76.3469 151.059 78.1322L151.772 78.5435C151.772 78.5435 151.296 77.4999 151.128 77.2122C150.959 76.9245 151.025 76.858 151.025 76.858C151.54 77.3662 151.903 78.0073 152.074 78.7099C152.074 78.7099 153.495 79.656 153.56 79.5753V79.5753Z" fill="#065BAA"/>
<path id="Path 42084" fill-rule="evenodd" clip-rule="evenodd" d="M185.482 40.4941C185.482 40.4941 180.862 32.699 176.21 37.135C176.21 37.135 175.164 37.5867 175.311 38.7135C175.311 38.7135 175.708 38.4615 176.089 39.3055C176.225 39.6055 176.396 39.8881 176.6 40.1471C176.873 40.4976 177.254 40.7483 177.684 40.8603H177.684C177.684 40.8603 179.978 42.377 183.974 40.8603C183.974 40.8603 185.135 40.9577 185.31 40.8032L183.915 39.9046C183.915 39.9046 183.297 40.953 182.308 41.1265C182.308 41.1265 183.917 39.9783 183.715 39.7619C183.672 39.7168 182.955 39.3174 182.955 39.3174C182.955 39.3174 181.868 41.136 180.339 41.3571C180.339 41.3571 182.441 40.2445 182.686 39.1652L181.564 38.6375C181.564 38.6375 180.511 40.6178 178.773 40.934C178.773 40.934 180.929 39.6954 181.309 38.5376L180.135 38.1573C180.135 38.1573 179.07 40.0591 177.625 40.3206C177.625 40.3206 179.969 38.6375 179.859 38.0883C179.859 38.0883 178.761 37.803 178.433 37.8696C178.433 37.8696 177.636 39.2223 176.783 39.296C176.783 39.296 178.231 38.0075 178.121 37.8268C178.121 37.8268 176.59 37.8387 175.818 38.2547C176.51 37.8373 177.299 37.6078 178.107 37.5891C177.756 37.2357 177.309 36.9927 176.821 36.8902C176.821 36.8902 177.641 36.4932 178.485 37.5891C178.485 37.5891 179.674 37.6295 179.833 37.7507C179.833 37.7507 179.16 36.5621 178.39 36.0723C178.39 36.0723 179.503 36.2007 180.147 37.8411L181.336 38.1977C181.336 38.1977 180.53 36.5669 179.873 36.0866C179.873 36.0866 180.991 36.3933 181.628 38.3118L182.733 38.8277C182.733 38.8277 182.146 37.3704 181.545 36.6881C181.545 36.6881 182.517 37.1945 183.057 38.9965L183.753 39.4291C183.753 39.4291 183.306 38.3712 183.149 38.0788C182.993 37.7864 183.059 37.7222 183.059 37.7222C183.557 38.246 183.901 38.8978 184.05 39.605C184.05 39.6051 185.413 40.5726 185.482 40.4941H185.482Z" fill="#BD1A8D"/>
<path id="Path 42085" fill-rule="evenodd" clip-rule="evenodd" d="M156.259 56.8851C156.259 56.8851 156.497 47.8275 150.204 49.1041C150.204 49.1041 149.077 48.9306 148.602 49.9623C148.602 49.9623 149.077 49.9623 148.944 50.8776C148.901 51.204 148.896 51.5343 148.93 51.8618C148.973 52.306 149.161 52.7237 149.465 53.0504C149.465 53.0504 150.599 55.5562 154.785 56.4072C154.785 56.4072 155.715 57.1085 155.948 57.0705L155.235 55.5681C155.235 55.5681 154.153 56.1243 153.223 55.7463C153.223 55.7463 155.197 55.6299 155.142 55.3398C155.142 55.2804 154.733 54.5577 154.733 54.5577C154.733 54.5577 152.845 55.5205 151.431 54.8881C151.431 54.8881 153.808 55.0664 154.586 54.2843L153.922 53.2312C153.922 53.2312 151.978 54.3437 150.337 53.6876C150.337 53.6876 152.822 53.7874 153.763 53.0101L152.971 52.0591C152.971 52.0591 151.053 53.1099 149.693 52.5536C149.693 52.5536 152.574 52.38 152.784 51.8547C152.784 51.8547 152.004 51.0298 151.69 50.9038C151.69 50.9038 150.297 51.6169 149.536 51.2318C149.536 51.2318 151.438 50.9133 151.45 50.7017C151.45 50.7017 150.15 49.8957 149.272 49.8363C150.081 49.8508 150.872 50.077 151.566 50.4925C151.458 50.0065 151.21 49.5628 150.853 49.2158C150.853 49.2158 151.759 49.3181 151.883 50.6898C151.883 50.6898 152.874 51.3602 152.938 51.5456C152.938 51.5456 153.007 50.1739 152.61 49.3561C152.61 49.3561 153.485 50.0574 153.157 51.7881L153.972 52.7248C153.972 52.7248 154.158 50.9133 153.861 50.1597C153.861 50.1597 154.64 51.0131 154.16 52.9768L154.819 54.0014C154.819 54.0014 155.099 52.4538 154.949 51.5432C154.949 51.5432 155.501 52.4942 154.997 54.3033L155.358 55.0403C155.358 55.0403 155.541 53.9063 155.565 53.5758C155.589 53.2454 155.679 53.224 155.679 53.224C155.822 53.9332 155.766 54.6682 155.515 55.347C155.515 55.347 156.155 56.916 156.259 56.8851V56.8851Z" fill="#BD1A8D"/>
<path id="Ellipse 969" opacity="0.1" fill-rule="evenodd" clip-rule="evenodd" d="M166.66 171.972C170.196 171.972 173.062 171.488 173.062 170.891C173.062 170.293 170.196 169.809 166.66 169.809C163.124 169.809 160.258 170.293 160.258 170.891C160.258 171.488 163.124 171.972 166.66 171.972Z" fill="#065BAA"/>
<path id="Ellipse 970" opacity="0.1" fill-rule="evenodd" clip-rule="evenodd" d="M143.324 188.394C146.86 188.394 149.726 187.91 149.726 187.313C149.726 186.715 146.86 186.231 143.324 186.231C139.789 186.231 136.922 186.715 136.922 187.313C136.922 187.91 139.789 188.394 143.324 188.394Z" fill="#065BAA"/>
<path id="Ellipse 971" opacity="0.1" fill-rule="evenodd" clip-rule="evenodd" d="M22.6447 179.98C26.1804 179.98 29.0468 179.496 29.0468 178.898C29.0468 178.301 26.1804 177.817 22.6447 177.817C19.1089 177.817 16.2426 178.301 16.2426 178.898C16.2426 179.496 19.1089 179.98 22.6447 179.98Z" fill="#065BAA"/>
<path id="Ellipse 972" opacity="0.1" fill-rule="evenodd" clip-rule="evenodd" d="M191.887 187.308C195.423 187.308 198.289 186.824 198.289 186.227C198.289 185.629 195.423 185.145 191.887 185.145C188.351 185.145 185.485 185.629 185.485 186.227C185.485 186.824 188.351 187.308 191.887 187.308Z" fill="#065BAA"/>
<path id="Ellipse 973" fill-rule="evenodd" clip-rule="evenodd" d="M198.552 174.12C203.831 174.12 208.111 173.396 208.111 172.504C208.111 171.611 203.831 170.887 198.552 170.887C193.272 170.887 188.993 171.611 188.993 172.504C188.993 173.396 193.272 174.12 198.552 174.12Z" fill="#D8000C"/>
<path id="Path 42086" fill-rule="evenodd" clip-rule="evenodd" d="M202.515 169.86C202.951 169.506 203.269 169.026 203.425 168.486C203.544 167.939 203.311 167.286 202.79 167.086C202.206 166.862 201.58 167.267 201.105 167.675C200.629 168.084 200.09 168.553 199.469 168.467C200.117 167.879 200.409 166.994 200.24 166.135C200.213 165.96 200.139 165.796 200.026 165.66C199.7 165.312 199.113 165.462 198.723 165.736C197.487 166.606 197.142 168.284 197.135 169.796C197.011 169.252 197.116 168.683 197.113 168.132C197.111 167.58 196.957 166.943 196.483 166.653C196.193 166.491 195.865 166.409 195.533 166.416C194.976 166.396 194.356 166.451 193.978 166.858C193.502 167.362 193.628 168.21 194.037 168.76C194.446 169.309 195.071 169.663 195.647 170.048C196.107 170.323 196.5 170.697 196.797 171.144C196.831 171.206 196.859 171.271 196.88 171.339H200.366C201.146 170.946 201.869 170.448 202.515 169.86L202.515 169.86Z" fill="#FF5C8A"/>
<path id="Path 42087" fill-rule="evenodd" clip-rule="evenodd" d="M18.3441 173.868C18.3441 173.868 21.9933 173.756 23.0987 172.972C24.2042 172.187 28.7163 171.253 28.9897 172.51C29.2631 173.768 34.4766 178.76 30.3543 178.794C26.232 178.827 20.7761 178.152 19.6778 177.481C18.5795 176.811 18.3441 173.868 18.3441 173.868L18.3441 173.868Z" fill="#696A6B"/>
<path id="Path 42088" opacity="0.2" fill-rule="evenodd" clip-rule="evenodd" d="M30.4232 178.357C26.301 178.39 20.845 177.715 19.7467 177.045C18.9099 176.536 18.5771 174.708 18.4653 173.864H18.3441C18.3441 173.864 18.5818 176.809 19.673 177.477C20.7642 178.145 26.2273 178.823 30.3495 178.789C31.5382 178.789 31.9495 178.357 31.9281 177.729C31.7617 178.112 31.3076 178.35 30.4232 178.357Z" fill="#121516"/>
</g>
<defs>
<linearGradient id="paint0_linear_642_4837" x1="53.5158" y1="103.645" x2="127.719" y2="103.645" gradientUnits="userSpaceOnUse">
<stop stop-color="#808080" stop-opacity="0.25098"/>
<stop offset="0.54" stop-color="#808080" stop-opacity="0.121569"/>
<stop offset="1" stop-color="#808080" stop-opacity="0.101961"/>
</linearGradient>
</defs>
</svg>
