<svg xmlns="http://www.w3.org/2000/svg" width="240" height="152" viewBox="0 0 240 152"><defs><style>.a{fill:#e6e6e6;}.b{fill:#3f3d56;}.c{fill:#a0616a;}.d{fill:#2f2e41;}.e{fill:#105fae;}.f{fill:#ccc;}.g{fill:#b20784;}</style></defs><g transform="translate(0 -0.048)"><path class="a" d="M909.136,653.625,903,635.108s6.749,6.749,6.749,12.287l-1.211-12.806a19.543,19.543,0,0,1,3.115,11.768C911.307,653.452,909.136,653.625,909.136,653.625Z" transform="translate(-688.019 -501.99)"/><path class="a" d="M424.988,592.85,419,574.779s6.587,6.587,6.587,11.992l-1.182-12.5a19.074,19.074,0,0,1,3.04,11.485C427.107,592.681,424.988,592.85,424.988,592.85Z" transform="translate(-353.708 -458.075)"/><path class="a" d="M504.874,634.626c.01,11.888-23.568,8.231-52.433,8.256s-52.087,3.722-52.1-8.166S423.9,620.222,452.768,620.2,504.863,622.738,504.874,634.626Z" transform="translate(-335.102 -491.511)"/><rect class="b" width="240" height="0.544" transform="translate(0 151.364)"/><path class="c" d="M5.57,14.556H1.8L0,0H5.57Z" transform="translate(151.981 112.861) rotate(16)"/><path class="d" d="M468.86,416.357h7.7v4.582H464.7v-.419a4.163,4.163,0,0,1,4.163-4.163Z" transform="translate(-322.658 -290.376)"/><path class="c" d="M592.425,460.353h-3.774l-1.8-14.556h5.57Z" transform="translate(-408.072 -311.809)"/><path class="d" d="M570.86,495.357h7.7v4.582H566.7v-.419a4.163,4.163,0,0,1,4.163-4.163Z" transform="translate(-393.481 -347.892)"/><path class="c" d="M835.768,427.295a2.805,2.805,0,0,0-.787-4.229l-8.765-35.7-5.6,2.411L831.036,424.3a2.821,2.821,0,0,0,4.731,3Z" transform="translate(-628.035 -327.908)"/><path class="c" d="M802.209,266.3a3.1,3.1,0,0,0-4.736.313l-13.566,1.557,2.064,5.233,12.338-2.309a3.112,3.112,0,0,0,3.9-4.794Z" transform="translate(-606.229 -245.88)"/><path class="e" d="M769,509.668l5.92,44.429,7.368-1.517s-1.083-32.356,2.6-36.257-4.738-10.734-4.738-10.734Z" transform="translate(-596.132 -408.07)"/><path class="e" d="M710.225,463.51l-2.719,4.079s-20.94-8.7-20.94,5.167-1.2,23.281-1.632,23.931,5.014,2.337,7.614,1.9c0,0,3.208-22.359,2.991-23.659,0,0,20.541,10.071,24.442,9.2s4.822-3.935,5.472-5.669-.272-15.5-.272-15.5l-13-3.968Z" transform="translate(-535.534 -377.666)"/><path class="f" d="M761.037,301.118l-.775-.93s-8.681-19.533-5.271-24.8,18.293-6.046,18.758-5.736-1.111,4.336-.026,6.2c0,0-11.529,2.5-12.3,2.81s5.974,11.768,5.974,11.768l-.775,6.976Z" transform="translate(-585.592 -248.97)"/><path class="f" d="M785.131,347.279s-8.061.93-8.371.93-.465-2.015-.465-2.015l-7.131,9.767s-3.513,28.334-2.583,27.869,18.086,2.206,18.241.966-.155-7.441.31-7.751,8.061-19.533,8.061-19.533-.775-4.031-3.411-5.426S785.131,347.279,785.131,347.279Z" transform="translate(-593.319 -299.494)"/><path class="f" d="M840.381,378.118l2.48,2.635s3.685,30.284,1.67,31.214-5.983.816-5.983.816l-3.9-14.357Z" transform="translate(-642.331 -321.895)"/><circle class="c" cx="7.135" cy="7.135" r="7.135" transform="translate(176.137 29.024)"/><path class="d" d="M779.366,285.783c-.1-1.481-1.964-1.531-3.448-1.545s-3.257.039-4.1-1.184a2.765,2.765,0,0,1,.01-2.8,7.95,7.95,0,0,1,1.954-2.175,27.083,27.083,0,0,1,6.187-4.358,9.922,9.922,0,0,1,7.377-.637c2.929,1.045,6.888,6.425,7.23,9.516s-3.747,2.36-6.746,3.182c1.823-2.581-5.456.3-8.377-.906Z" transform="translate(-597.18 -249.028)"/><circle class="g" cx="17.13" cy="17.13" r="17.13" transform="translate(92.559 105.357)"/><path class="g" d="M418.1,285.315a12.281,12.281,0,0,1-11.219-7.285L379.7,216.818a16.271,16.271,0,1,1,30.422-11.385L429.8,269.452a12.259,12.259,0,0,1-11.7,15.863Z" transform="translate(-323.886 -193.896)"/></g></svg>