<svg xmlns="http://www.w3.org/2000/svg" width="240" height="145.823" viewBox="0 0 240 145.823"><defs><style>.a{fill:#ff6584;}.b{fill:#e6e6e6;}.c{fill:#6c63ff;}.d{fill:#3f3d56;}.e{fill:#fff;}.f{fill:#ffb8b8;}.g{fill:#2f2e41;}</style></defs><g transform="translate(0 0.005)"><circle class="a" cx="12.489" cy="12.489" r="12.489" transform="translate(7.574 6.873)"/><ellipse class="b" cx="119.375" cy="4.887" rx="119.375" ry="4.887" transform="translate(0 136.044)"/><circle class="c" cx="30.678" cy="30.678" r="30.678" transform="translate(0 19.332)"/><path class="d" d="M107.031,264.226h-6.284l2.864-97.025Z" transform="translate(-73.395 -122.813)"/><path class="d" d="M111.109,209.89l6.746-9.333L111.016,212.2l-.739-1.294Z" transform="translate(-80.338 -146.515)"/><path class="d" d="M92.516,244.607l-6.745-9.333,6.838,11.643.739-1.294Z" transform="translate(-62.485 -171.876)"/><path class="d" d="M810.644,264.6h-6.283l2.865-97.025Z" transform="translate(-588.321 -123.086)"/><path class="d" d="M814.723,210.266l6.746-9.333-6.838,11.643-.74-1.294Z" transform="translate(-595.263 -146.789)"/><path class="d" d="M796.13,244.983l-6.745-9.333,6.838,11.643.739-1.294Z" transform="translate(-577.411 -172.151)"/><circle class="d" cx="57.15" cy="57.15" r="57.15" transform="translate(66.248 27.2)"/><circle class="e" cx="52.419" cy="52.419" r="52.419" transform="translate(70.983 31.931)"/><circle class="d" cx="7.002" cy="7.002" r="7.002" transform="translate(116.237 77.947)"/><rect class="d" width="3.028" height="5.677" transform="translate(121.726 35.329)"/><rect class="d" width="3.028" height="5.677" transform="translate(121.726 128.821)"/><rect class="d" width="3.028" height="5.677" transform="translate(79.423 83.441) rotate(90)"/><rect class="d" width="3.028" height="5.677" transform="translate(172.733 83.441) rotate(90)"/><path class="d" d="M450.924,310.41l2.588-5.917,32.423,17.957Z" transform="translate(-329.882 -222.472)"/><rect class="d" width="14.761" height="17.031" transform="translate(116.045 14.387)"/><ellipse class="d" cx="17.031" cy="4.731" rx="17.031" ry="4.731" transform="translate(106.391 9.656)"/><path class="f" d="M715.452,527.729l-.946,1.325s-4.352,5.109-4.542,2.649,3.217-4.163,3.217-4.163l1.892-1.135Z" transform="translate(-560.426 -432.923)"/><path class="f" d="M825.771,547.142l.792,1.422s2.755,6.12.451,5.239-2.386-4.689-2.386-4.689l-.216-2.2Z" transform="translate(-644.099 -447.911)"/><circle class="g" cx="5.762" cy="5.762" r="5.762" transform="translate(171.675 62.737)"/><path class="f" d="M811.751,607.188l.757,4.92v1.514h4.352v-1.892s.189-3.406-.568-4.353S811.751,607.188,811.751,607.188Z" transform="translate(-634.854 -491.725)"/><path class="f" d="M783.173,607.188l.757,4.92v1.514h4.353v-1.892s.189-3.406-.568-4.353S783.173,607.188,783.173,607.188Z" transform="translate(-613.958 -491.725)"/><path class="c" d="M791.465,462.384s-1.674.882-.531,2.889,7.852,22.772,7.852,22.772l3.87-1.1-3.413-13.132-1.954-8.254Z" transform="translate(-619.393 -386.248)"/><circle class="f" cx="4.352" cy="4.352" r="4.352" transform="translate(172.467 65.758)"/><path class="f" d="M806.534,442.063l-.568,8.894-3.974-2.839s1.325-5.3.946-5.677Z" transform="translate(-627.714 -371.328)"/><path class="c" d="M794.184,462.674,789.9,459.5s-1.964-.8-2.531.142-3.406,14.95-1.892,17.6c0,0,8.137,1.7,9.84.757l.757-4.92s.946-3.028-.568-4.92Z" transform="translate(-615.368 -383.879)"/><path class="c" d="M743.984,460.674s-1.514-1.135-2.839.757-17.221,16.842-17.221,16.842l2.649,3.028,10.408-8.7,6.623-5.3Z" transform="translate(-570.74 -384.728)"/><path class="g" d="M791.621,525.571s-9.367-1.8-10.313-.473l-.189,2.082s-2.082,3.974-.946,10.408A31.685,31.685,0,0,1,780.551,548a41.843,41.843,0,0,1,8.894,0c3.785.568,4.353,0,4.353,0Z" transform="translate(-611.581 -431.708)"/><path class="g" d="M817.239,628.868l-5.488.189,1.892,14.193s-1.514,6.056.189,6.434a19.206,19.206,0,0,0,3.6.378,5.215,5.215,0,0,0,3.6,1.514,10.6,10.6,0,0,0,3.6-1.135,1.176,1.176,0,0,0-.946-1.514c-1.324-.379-4.92-1.514-5.677-5.488Z" transform="translate(-634.914 -507.901)"/><path class="g" d="M788.661,628.868l-5.488.189,1.892,14.193s-1.514,6.056.189,6.434a19.208,19.208,0,0,0,3.6.378,5.214,5.214,0,0,0,3.6,1.514,10.6,10.6,0,0,0,3.6-1.135,1.176,1.176,0,0,0-.946-1.514c-1.325-.379-4.92-1.514-5.677-5.488Z" transform="translate(-614.015 -507.901)"/><circle class="g" cx="2.384" cy="2.384" r="2.384" transform="translate(177.066 60.091)"/><path class="g" d="M827.129,400.148a2.384,2.384,0,0,0-2.136-2.371,2.411,2.411,0,0,1,.248-.013,2.384,2.384,0,1,1-.248,4.756A2.384,2.384,0,0,0,827.129,400.148Z" transform="translate(-644.518 -338.955)"/><ellipse class="g" cx="3.974" cy="2.384" rx="3.974" ry="2.384" transform="translate(172.809 64.9)"/><path class="b" d="M918.245,191.039a12.129,12.129,0,0,0-23.8-2.557c-.147-.005-.294-.011-.442-.011a12.132,12.132,0,0,0-11.637,8.71,8.572,8.572,0,0,0-10.172,2.532h37.836a8.2,8.2,0,0,0,8.222-8.495C918.251,191.158,918.248,191.1,918.245,191.039Z" transform="translate(-679.465 -179.599)"/><circle class="b" cx="3.258" cy="3.258" r="3.258" transform="translate(203.892 30.234)"/><circle class="b" cx="2.713" cy="2.713" r="2.713" transform="translate(214.274 23.316)"/><circle class="b" cx="3.258" cy="3.258" r="3.258" transform="translate(226.968 37.243)"/><circle class="b" cx="3.258" cy="3.258" r="3.258" transform="translate(202.263 52.068)"/><circle class="b" cx="3.258" cy="3.258" r="3.258" transform="translate(226.968 70.667)"/><path class="b" d="M954.862,673.929c0-.036.005-.07.005-.105a5.144,5.144,0,0,0-10.267-.269l-.049,0a4.91,4.91,0,0,0,7.59,6.163,3.255,3.255,0,1,0,2.721-5.786Z" transform="translate(-729.799 -537.677)"/><circle class="b" cx="1.357" cy="1.357" r="1.357" transform="translate(231.855 59.627)"/><circle class="b" cx="1.357" cy="1.357" r="1.357" transform="translate(223.168 27.274)"/><circle class="b" cx="1.357" cy="1.357" r="1.357" transform="translate(218.552 60.705)"/><circle class="b" cx="1.357" cy="1.357" r="1.357" transform="translate(219.638 59.357)"/><circle class="b" cx="1.357" cy="1.357" r="1.357" transform="translate(220.453 58.009)"/><circle class="b" cx="1.357" cy="1.357" r="1.357" transform="translate(217.195 69.333)"/><circle class="b" cx="1.357" cy="1.357" r="1.357" transform="translate(237.285 84.43)"/><circle class="b" cx="1.357" cy="1.357" r="1.357" transform="translate(208.236 85.239)"/><circle class="b" cx="1.357" cy="1.357" r="1.357" transform="translate(209.865 43.72)"/><circle class="b" cx="1.357" cy="1.357" r="1.357" transform="translate(216.109 67.985)"/><circle class="b" cx="1.357" cy="1.357" r="1.357" transform="translate(214.751 65.828)"/></g></svg>