<svg xmlns="http://www.w3.org/2000/svg" width="158" height="96" viewBox="0 0 158 96"><defs><style>.a{fill:#ff6584;}.b{fill:#e6e6e6;}.c{fill:#6c63ff;}.d{fill:#3f3d56;}.e{fill:#fff;}.f{fill:#ffb8b8;}.g{fill:#2f2e41;}</style></defs><g transform="translate(0 0.005)"><circle class="a" cx="8.204" cy="8.204" r="8.204" transform="translate(4.975 4.513)"/><ellipse class="b" cx="78.589" cy="3.21" rx="78.589" ry="3.21" transform="translate(0 89.575)"/><circle class="c" cx="20.153" cy="20.153" r="20.153" transform="translate(0 12.697)"/><path class="d" d="M104.875,230.938h-4.128l1.882-63.737Z" transform="translate(-82.779 -137.836)"/><path class="d" d="M110.823,206.688l4.431-6.131-4.492,7.648-.486-.85Z" transform="translate(-90.61 -164.974)"/><path class="d" d="M90.2,241.4l-4.431-6.131,4.492,7.648.486-.85Z" transform="translate(-70.474 -193.531)"/><path class="d" d="M808.489,231.314h-4.128l1.882-63.737Z" transform="translate(-662.1 -138.144)"/><path class="d" d="M814.437,207.064l4.431-6.131-4.492,7.648-.486-.85Z" transform="translate(-669.931 -165.283)"/><path class="d" d="M793.816,241.781l-4.431-6.131,4.492,7.648.485-.85Z" transform="translate(-649.795 -193.84)"/><circle class="d" cx="37.542" cy="37.542" r="37.542" transform="translate(43.699 18.074)"/><circle class="e" cx="34.434" cy="34.434" r="34.434" transform="translate(46.809 21.182)"/><circle class="d" cx="4.6" cy="4.6" r="4.6" transform="translate(76.533 51.325)"/><rect class="d" width="1.989" height="3.729" transform="translate(80.139 23.259)"/><rect class="d" width="1.989" height="3.729" transform="translate(80.139 84.83)"/><rect class="d" width="1.989" height="3.729" transform="translate(52.281 54.933) rotate(90)"/><rect class="d" width="1.989" height="3.729" transform="translate(113.714 54.933) rotate(90)"/><path class="d" d="M450.924,308.38l1.7-3.887,21.3,11.8Z" transform="translate(-371.208 -250.481)"/><rect class="d" width="9.696" height="11.188" transform="translate(76.407 9.449)"/><ellipse class="d" cx="11.188" cy="3.108" rx="11.188" ry="3.108" transform="translate(70.066 6.341)"/><path class="f" d="M713.566,527.274l-.622.87s-2.859,3.357-2.984,1.74,2.113-2.735,2.113-2.735l1.243-.746Z" transform="translate(-611.51 -464.858)"/><path class="f" d="M825.3,547.065l.521.934s1.81,4.021.3,3.441-1.567-3.08-1.567-3.08l-.142-1.443Z" transform="translate(-705.702 -481.733)"/><circle class="g" cx="3.785" cy="3.785" r="3.785" transform="translate(113.032 41.308)"/><path class="f" d="M811.751,607.089l.5,3.232v.995h2.859v-1.243s.124-2.238-.373-2.859S811.751,607.089,811.751,607.089Z" transform="translate(-695.289 -531.071)"/><path class="f" d="M783.173,607.089l.5,3.232v.995h2.859v-1.243s.124-2.238-.373-2.859S783.173,607.089,783.173,607.089Z" transform="translate(-671.768 -531.071)"/><path class="c" d="M791.146,462.384a1.272,1.272,0,0,0-.349,1.9c.751,1.319,5.158,14.959,5.158,14.959l2.542-.722-2.242-8.627-1.284-5.422Z" transform="translate(-677.853 -412.24)"/><circle class="f" cx="2.859" cy="2.859" r="2.859" transform="translate(113.55 43.295)"/><path class="f" d="M804.976,442.063l-.373,5.843-2.611-1.865s.87-3.481.622-3.729Z" transform="translate(-687.255 -395.491)"/><path class="c" d="M791.047,461.477l-2.812-2.083s-1.29-.528-1.663.094-2.238,9.821-1.243,11.561c0,0,5.345,1.119,6.464.5l.5-3.232a3.961,3.961,0,0,0-.373-3.232Z" transform="translate(-673.327 -409.594)"/><path class="c" d="M737.1,460.558a1.272,1.272,0,0,0-1.865.5c-.87,1.243-11.312,11.064-11.312,11.064l1.74,1.989,6.837-5.718,4.351-3.481Z" transform="translate(-623.058 -410.545)"/><path class="g" d="M787.577,525.241s-6.153-1.181-6.775-.311l-.124,1.367a11.419,11.419,0,0,0-.622,6.837,20.814,20.814,0,0,1,.249,6.837,27.485,27.485,0,0,1,5.843,0c2.486.373,2.859,0,2.859,0Z" transform="translate(-669.053 -463.426)"/><path class="g" d="M815.356,628.868l-3.605.124,1.243,9.323s-.994,3.978.124,4.227a12.622,12.622,0,0,0,2.362.249,3.426,3.426,0,0,0,2.362.994,6.965,6.965,0,0,0,2.362-.746.773.773,0,0,0-.622-.995,4.8,4.8,0,0,1-3.729-3.605Z" transform="translate(-695.319 -549.197)"/><path class="g" d="M786.778,628.868l-3.6.124,1.243,9.323s-.994,3.978.124,4.227a12.624,12.624,0,0,0,2.362.249,3.425,3.425,0,0,0,2.362.994,6.965,6.965,0,0,0,2.362-.746.773.773,0,0,0-.622-.995,4.8,4.8,0,0,1-3.729-3.605Z" transform="translate(-671.797 -549.197)"/><circle class="g" cx="1.566" cy="1.566" r="1.566" transform="translate(116.573 39.561)"/><path class="g" d="M826.4,399.33a1.566,1.566,0,0,0-1.4-1.558,1.583,1.583,0,0,1,.163-.008,1.566,1.566,0,1,1-.163,3.124A1.566,1.566,0,0,0,826.4,399.33Z" transform="translate(-706.178 -359.047)"/><ellipse class="g" cx="2.61" cy="1.566" rx="2.61" ry="1.566" transform="translate(113.774 42.727)"/><path class="b" d="M902.446,187.112a7.968,7.968,0,0,0-15.633-1.68c-.1,0-.193-.007-.29-.007a7.969,7.969,0,0,0-7.645,5.721,5.631,5.631,0,0,0-6.682,1.663H897.05a5.39,5.39,0,0,0,5.4-5.58Q902.449,187.171,902.446,187.112Z" transform="translate(-745.248 -179.599)"/><circle class="b" cx="2.14" cy="2.14" r="2.14" transform="translate(134.28 19.905)"/><circle class="b" cx="1.782" cy="1.782" r="1.782" transform="translate(141.1 15.315)"/><circle class="b" cx="2.14" cy="2.14" r="2.14" transform="translate(149.439 24.519)"/><circle class="b" cx="2.14" cy="2.14" r="2.14" transform="translate(133.21 34.28)"/><circle class="b" cx="2.14" cy="2.14" r="2.14" transform="translate(149.439 46.526)"/><path class="b" d="M950.2,672.492c0-.023,0-.046,0-.069a3.379,3.379,0,0,0-6.745-.177l-.032,0a5.989,5.989,0,1,0,6.774.248Z" transform="translate(-802.017 -582.781)"/><circle class="b" cx="0.892" cy="0.892" r="0.892" transform="translate(152.65 39.254)"/><circle class="b" cx="0.892" cy="0.892" r="0.892" transform="translate(146.943 17.955)"/><circle class="b" cx="0.892" cy="0.892" r="0.892" transform="translate(143.911 39.964)"/><circle class="b" cx="0.892" cy="0.892" r="0.892" transform="translate(144.624 39.077)"/><circle class="b" cx="0.892" cy="0.892" r="0.892" transform="translate(145.159 38.189)"/><circle class="b" cx="0.892" cy="0.892" r="0.892" transform="translate(143.019 45.644)"/><circle class="b" cx="0.892" cy="0.892" r="0.892" transform="translate(156.217 55.584)"/><circle class="b" cx="0.892" cy="0.892" r="0.892" transform="translate(137.134 56.116)"/><circle class="b" cx="0.892" cy="0.892" r="0.892" transform="translate(138.204 28.782)"/><circle class="b" cx="0.892" cy="0.892" r="0.892" transform="translate(142.306 44.757)"/><circle class="b" cx="0.892" cy="0.892" r="0.892" transform="translate(141.414 43.337)"/></g></svg>