<svg width="241" height="197" viewBox="0 0 241 197" fill="none" xmlns="http://www.w3.org/2000/svg">
<g id="travel-histort-emty-state">
<path id="Path 44477" fill-rule="evenodd" clip-rule="evenodd" d="M37.7017 44.9844C30.2756 44.9874 27.0855 55.74 19.8183 57.268C16.5726 57.9505 13.2609 56.5919 9.94468 56.5331C6.62846 56.4744 2.66181 58.8823 3.36256 62.1241L66.5848 61.171C60.05 60.4925 53.9375 57.6211 49.2431 53.0247C45.8165 49.6169 42.5342 44.9824 37.7017 44.9844L37.7017 44.9844Z" fill="#E8E9E8"/>
<path id="Path 44478" fill-rule="evenodd" clip-rule="evenodd" d="M145.116 165.515C126.043 165.515 109.76 151.727 106.616 132.91L106.603 132.831L106.651 132.773C109.149 129.782 111.167 126.423 112.635 122.814C110.888 125.054 108.778 126.984 106.392 128.524L106.147 128.688L106.133 128.394C106.102 127.747 106.086 127.105 106.086 126.484C106.042 112.989 113.012 100.439 124.493 93.3443C114.613 83.0915 109.105 69.3994 109.133 55.1609C109.133 24.7451 133.883 5.55296e-05 164.305 5.55296e-05C188.097 -0.0335745 209.221 15.211 216.686 37.8009L216.735 37.9492L216.59 38.0078C212.834 39.5286 209.377 40.2593 206.071 40.2237C209.839 41.2908 213.751 41.7637 217.665 41.6255L217.799 41.6209L217.832 41.7516C218.926 46.1375 219.478 50.6407 219.477 55.1609C219.477 55.324 219.476 55.487 219.475 55.6498C219.454 62.7581 222.457 69.5397 227.736 74.3004C236.174 81.9775 240.831 92.9622 240.48 104.365C240.13 115.767 234.808 126.445 225.915 133.59L225.835 133.654L225.742 133.612C219.971 130.994 215.953 128.071 213.215 124.483C215.066 129.001 217.764 133.124 221.165 136.628L221.313 136.78L221.129 136.887C209.264 143.799 194.641 143.973 182.615 137.346C177.738 154.007 162.477 165.471 145.116 165.515L145.116 165.515Z" fill="#FCF4FA"/>
<path id="Path 44479" fill-rule="evenodd" clip-rule="evenodd" d="M142.925 196.852C142.572 196.851 142.273 196.592 142.224 196.242C142.194 196.031 139.243 174.748 141.893 146.462C144.341 120.339 152.201 82.7124 175.747 51.8106C175.984 51.4991 176.429 51.439 176.741 51.6764C177.052 51.9138 177.113 52.3587 176.875 52.6703C153.532 83.3052 145.735 120.655 143.305 146.594C140.67 174.715 143.598 195.832 143.628 196.042C143.657 196.246 143.596 196.452 143.461 196.607C143.326 196.763 143.13 196.852 142.925 196.852H142.925Z" fill="#357ABA"/>
<path id="Path 44480" fill-rule="evenodd" clip-rule="evenodd" d="M142.983 107.963C142.676 107.963 142.403 107.766 142.308 107.473C142.213 107.181 142.317 106.861 142.566 106.68C142.651 106.618 151.265 100.412 164.143 95.6964C176.047 91.3381 194.15 87.387 212.786 93.3183C213.159 93.437 213.365 93.8358 213.246 94.209C213.128 94.5822 212.729 94.7884 212.356 94.6696C194.101 88.8603 176.327 92.746 164.63 97.0284C151.937 101.676 143.483 107.767 143.4 107.828C143.279 107.916 143.133 107.963 142.983 107.963V107.963Z" fill="#357ABA"/>
<path id="Path 44481" fill-rule="evenodd" clip-rule="evenodd" d="M37.5312 177.525L39.9274 178.275L56.0063 126.895C54.6411 126.547 53.2422 127.327 52.8198 128.671L37.5312 177.525Z" fill="#357ABA"/>
<path id="Path 44482" fill-rule="evenodd" clip-rule="evenodd" d="M78.889 124.047H68.2891V92.8906H78.889C83.1114 92.8953 86.5332 96.3171 86.538 100.54V116.398C86.5332 120.621 83.1114 124.043 78.889 124.047Z" fill="#065BAA"/>
<path id="Path 44483" fill-rule="evenodd" clip-rule="evenodd" d="M76.9993 108.603C76.2622 108.602 75.6649 108.005 75.6641 107.268V95.6953H78.3346V107.268C78.3338 108.005 77.7365 108.602 76.9993 108.603H76.9993Z" fill="#357ABA"/>
<path id="Path 44484" fill-rule="evenodd" clip-rule="evenodd" d="M80.5198 120.519H72.7639C71.8333 120.518 71.0792 119.764 71.0781 118.834V114.194C71.0792 113.263 71.8333 112.509 72.7639 112.508L80.5198 112.508C81.4504 112.509 82.2045 113.263 82.2055 114.194V118.834C82.2045 119.764 81.4504 120.518 80.5198 120.519Z" fill="#357ABA"/>
<path id="Path 44486" fill-rule="evenodd" clip-rule="evenodd" d="M59.9281 189.496H56.2975L54.5703 175.492H59.9288L59.9281 189.496Z" fill="#FCF4FA"/>
<path id="Path 44487" fill-rule="evenodd" clip-rule="evenodd" d="M62.3953 196.387H59.8191L59.3592 193.954L58.1815 196.387H51.3487C50.6764 196.387 50.0822 195.95 49.8822 195.308C49.6822 194.666 49.9227 193.969 50.4759 193.587L55.9324 189.818V187.359L61.6717 187.702L62.3953 196.387Z" fill="#121516"/>
<path id="Path 44488" fill-rule="evenodd" clip-rule="evenodd" d="M96.3751 186.386L93.0281 187.793L86.0078 175.553L90.9476 173.477L96.3751 186.386Z" fill="#FCF4FA"/>
<path id="Path 44489" fill-rule="evenodd" clip-rule="evenodd" d="M100.385 191.983L98.01 192.982L96.6433 190.918L96.5004 193.616L90.2018 196.265C89.5821 196.526 88.8649 196.353 88.4317 195.839C87.9985 195.325 87.95 194.589 88.3119 194.022L91.8812 188.433L90.928 186.167L96.3514 184.258L100.385 191.983Z" fill="#121516"/>
<path id="Path 44490" fill-rule="evenodd" clip-rule="evenodd" d="M59.0479 104.997L58.0074 118.935L51.1072 139.751L48.3359 138.14L52.0956 116.971L53.3724 104.758L59.0479 104.997Z" fill="#FCF4FA"/>
<path id="Ellipse 1134" fill-rule="evenodd" clip-rule="evenodd" d="M49.8807 140.933C51.4846 140.933 52.7849 139.633 52.7849 138.029C52.7849 136.425 51.4846 135.125 49.8807 135.125C48.2768 135.125 46.9766 136.425 46.9766 138.029C46.9766 139.633 48.2768 140.933 49.8807 140.933Z" fill="#FCF4FA"/>
<path id="Path 44491" fill-rule="evenodd" clip-rule="evenodd" d="M74.9045 110.171V114.016C74.9045 114.016 80.8558 124.503 78.4324 129.004L87.3673 153.444C87.3673 153.444 99.4839 165.561 98.4453 174.216L99.1377 176.985L91.1753 180.447L89.4444 178.024L75.9431 154.829L64.5189 133.712L62.4418 158.637C62.4418 158.637 63.8265 178.024 60.0185 180.101L59.6723 183.216H51.5914V180.255C51.5914 180.255 48.5943 169.715 50.3252 161.753L49.6328 128.173C49.6328 128.173 52.7485 113.979 56.5566 111.556L57.9414 108.094L74.9045 110.171Z" fill="#121516"/>
<path id="Path 44492" fill-rule="evenodd" clip-rule="evenodd" d="M81.4726 96.7195L73.9265 93.1863L71.7485 89.3906L64.4241 89.8059L62.2078 93.4238L55.6885 94.7446L56.6466 118.308C56.2198 119.046 56.0676 119.912 56.2171 120.752C56.4458 122.229 57.6074 121.068 56.4458 122.229C55.2841 123.391 54.4085 122.807 54.9915 123.825C55.5746 124.843 54.1406 126.43 54.1406 126.43C54.1406 126.43 72.6859 135.876 77.9249 123.825C77.9249 123.825 78.9578 120.3 77.2128 112.915C75.4679 105.53 81.4727 96.7195 81.4727 96.7195H81.4726Z" fill="#BCD3E8"/>
<path id="Path 44493" fill-rule="evenodd" clip-rule="evenodd" d="M59.0093 97.4225L56.8668 95.9219C56.8668 95.9219 53.9033 97.1384 53.8034 99.5998C53.7034 102.061 52 109.427 52 109.427L58.7651 113.064L59.0093 97.4225Z" fill="#BCD3E8"/>
<path id="Path 44494" fill-rule="evenodd" clip-rule="evenodd" d="M81.7174 106.333L80.6773 120.271L69.1303 137.602L66.3594 135.991L74.7655 118.307L76.0422 106.094L81.7174 106.333Z" fill="#FCF4FA"/>
<path id="Path 44495" fill-rule="evenodd" clip-rule="evenodd" d="M75.6405 98.3191L79.1701 97.5312C79.1701 97.5312 81.297 98.2105 81.5874 101.405C81.8778 104.6 82.1214 110.16 82.1214 110.16L74.7141 115.607L72.875 107.794L75.6405 98.3191Z" fill="#BCD3E8"/>
<path id="Ellipse 1135" fill-rule="evenodd" clip-rule="evenodd" d="M67.9041 138.933C69.5081 138.933 70.8083 137.633 70.8083 136.029C70.8083 134.425 69.5081 133.125 67.9041 133.125C66.3002 133.125 65 134.425 65 136.029C65 137.633 66.3002 138.933 67.9041 138.933Z" fill="#FCF4FA"/>
<path id="Ellipse 1136" fill-rule="evenodd" clip-rule="evenodd" d="M66.9933 92.5021C70.7304 92.5021 73.7599 89.4726 73.7599 85.7354C73.7599 81.9983 70.7304 78.9688 66.9933 78.9688C63.2561 78.9688 60.2266 81.9983 60.2266 85.7354C60.2266 89.4726 63.2561 92.5021 66.9933 92.5021Z" fill="#FCF4FA"/>
<path id="Path 44496" fill-rule="evenodd" clip-rule="evenodd" d="M61.6423 85.4603H61.642C60.78 85.4599 59.917 85.4587 59.0528 85.4569C58.8447 85.4559 58.6459 85.3711 58.5012 85.2216C58.3587 85.0754 58.2822 84.8772 58.2895 84.6731C58.4189 81.7627 59.9651 79.1 62.4288 77.5451V77.5451C65.025 75.9618 68.2622 75.8595 70.9532 77.2756C73.6442 78.6917 75.393 81.4178 75.5582 84.4542C75.5696 84.6579 75.499 84.8576 75.3619 85.0087C75.2248 85.1598 75.0329 85.2497 74.8291 85.258C71.8345 85.3847 68.5126 85.4462 64.0581 85.4577H64.0559C63.7458 85.4586 63.4662 85.2709 63.3497 84.9835L63.278 84.8081C63.2006 84.6187 63.0098 84.5008 62.8057 84.5163C62.6016 84.5318 62.4308 84.6772 62.383 84.8762C62.3014 85.2191 61.9948 85.4609 61.6423 85.4603L61.6423 85.4603Z" fill="#121516"/>
<path id="Path 44497" fill-rule="evenodd" clip-rule="evenodd" d="M75.1221 115.378C73.3035 113.667 72.5218 111.184 72.5093 108.732C72.495 105.931 73.5087 103.271 74.8197 100.836C75.6126 99.3633 76.516 97.954 77.42 96.548C77.7241 96.075 76.9703 95.6376 76.6677 96.1082C73.6092 100.865 70.2411 106.5 72.2135 112.346C72.6661 113.732 73.4535 114.985 74.5061 115.994C74.9142 116.378 75.5315 115.763 75.1221 115.378Z" fill="#357ABA"/>
<path id="Path 44498" fill-rule="evenodd" clip-rule="evenodd" d="M37.5803 153.277C36.0818 152.805 34.4803 152.764 32.96 153.161C32.9565 153.163 32.9539 153.162 32.9504 153.164C31.7722 153.47 30.6738 154.027 29.7301 154.796C29.6753 154.84 29.6232 154.885 29.571 154.93C28.3753 155.956 27.4925 157.297 27.0238 158.801L20.5585 179.461C20.0775 180.991 20.0446 182.626 20.4637 184.173C20.4891 184.26 20.5145 184.347 20.5399 184.433C20.8537 185.459 21.3588 186.415 22.0285 187.252C22.0327 187.257 22.036 187.262 22.0384 187.267C23.0837 188.565 24.4915 189.523 26.0827 190.018L38.2762 193.834L49.7738 157.093L37.5803 153.277Z" fill="#065BAA"/>
<path id="Path 44499" fill-rule="evenodd" clip-rule="evenodd" d="M56.8085 127.141L41.1045 177.323C40.8974 177.984 41.266 178.689 41.9276 178.896C42.5893 179.103 43.2935 178.734 43.5006 178.073L58.4142 130.416C58.8332 129.071 58.1283 127.633 56.8085 127.141Z" fill="#357ABA"/>
<path id="Ellipse 1137" fill-rule="evenodd" clip-rule="evenodd" d="M37.2249 196.583C38.4666 196.583 39.4732 195.576 39.4732 194.334C39.4732 193.093 38.4666 192.086 37.2249 192.086C35.9832 192.086 34.9766 193.093 34.9766 194.334C34.9766 195.576 35.9832 196.583 37.2249 196.583Z" fill="#357ABA"/>
<path id="Ellipse 1138" fill-rule="evenodd" clip-rule="evenodd" d="M22.5764 192.004C23.8181 192.004 24.8247 190.998 24.8247 189.756C24.8247 188.514 23.8181 187.508 22.5764 187.508C21.3347 187.508 20.3281 188.514 20.3281 189.756C20.3281 190.998 21.3347 192.004 22.5764 192.004Z" fill="#357ABA"/>
<path id="Path 44500" fill-rule="evenodd" clip-rule="evenodd" d="M32.9572 153.156C30.6286 160.457 24.5287 179.548 22.0356 187.262C22.0332 187.257 22.0299 187.252 22.0257 187.247C21.356 186.41 20.8509 185.454 20.5371 184.428C20.5118 184.342 20.4864 184.255 20.4609 184.168C23.134 175.785 27.6109 161.647 29.5682 154.925C29.6204 154.88 29.6725 154.835 29.7273 154.791C30.671 154.022 31.7694 153.465 32.9476 153.159C32.9511 153.157 32.9537 153.158 32.9572 153.156Z" fill="#357ABA"/>
<path id="Path 44501" fill-rule="evenodd" clip-rule="evenodd" d="M216.681 196.938H0.89693C0.67772 196.938 0.5 196.714 0.5 196.437C0.5 196.161 0.67772 195.938 0.89693 195.938H216.681C216.9 195.938 217.078 196.161 217.078 196.437C217.078 196.714 216.9 196.938 216.681 196.938Z" fill="#BCBEBE"/>
<path id="Path 44502" fill-rule="evenodd" clip-rule="evenodd" d="M94.9384 19.3997C91.5118 15.992 88.2295 11.3574 83.397 11.3594C75.9709 11.3624 72.7808 22.115 65.5136 23.643C62.2679 24.3255 58.9562 22.9669 55.64 22.9081C52.3238 22.8494 48.3571 25.2573 49.0579 28.4991L112.28 27.546C105.745 26.8675 99.6328 23.9962 94.9384 19.3998V19.3997Z" fill="#E8E9E8"/>
<path id="Path 44503" fill-rule="evenodd" clip-rule="evenodd" d="M208.46 5.1875C201.033 5.19054 197.843 15.9432 190.576 17.4712C187.33 18.1536 184.019 16.795 180.703 16.7363C177.386 16.6775 173.42 19.0854 174.12 22.3273L237.343 21.3741C230.808 20.6956 224.695 17.8243 220.001 13.2279C216.574 9.82008 213.292 5.18551 208.46 5.1875H208.46Z" fill="#E8E9E8"/>
</g>
</svg>
