<svg xmlns="http://www.w3.org/2000/svg" viewBox="0 0 48 48"><g id="Layer_2" ><g id="Layer_1-2"><rect width="24" height="24" rx="24" fill="none"/><path d="M20.64,5.71a10.21,10.21,0,0,1,1.74-.3,12.86,12.86,0,0,0-3.12,1.21,10.6,10.6,0,0,0-3.61,3.11,10.33,10.33,0,0,0-1.78,6.93,10.7,10.7,0,0,0,.61,2.8,7,7,0,0,0,.65,1.38,12.83,12.83,0,0,0,2.52,3.07,11.3,11.3,0,0,0,3.41,1.89,3.43,3.43,0,0,1,1.83,1.45A7.92,7.92,0,0,1,24,30.34c0,.21.06.42.08.63s-.1.22-.18.3a3,3,0,0,1-1.24.59,12.43,12.43,0,0,0-2,.6c-.75.35-1.45.78-2.2,1.12a10.48,10.48,0,0,1-2.55.85,3.66,3.66,0,0,1-1.32,0,4,4,0,0,1-.9-.32,11.25,11.25,0,0,1-2.63-1.61,10.74,10.74,0,0,1-1.63-1.74,13.83,13.83,0,0,1-2.24-4.2,10.14,10.14,0,0,1-.33-4.95A4.55,4.55,0,0,1,7.06,21a16,16,0,0,0,1.63,4.68A14.09,14.09,0,0,0,11.19,29a14.06,14.06,0,0,0,2.17,1.69,1.1,1.1,0,0,0,1.13.09c0-.2-.21-.28-.36-.37a10.36,10.36,0,0,1-1.88-1.34,15,15,0,0,1-3-3.61,14.24,14.24,0,0,1-1.59-3.77,10.32,10.32,0,0,1-.14-2.15A9,9,0,0,1,8,16.69a13.31,13.31,0,0,1,3.49-5.33,12.67,12.67,0,0,0-1.38,4,12.06,12.06,0,0,0,.11,4.86,12.3,12.3,0,0,0,2.52,5,14.47,14.47,0,0,0,5.11,3.9,1.41,1.41,0,0,0,1,.22.33.33,0,0,0,.14-.54,2.91,2.91,0,0,0-.64-.31A15.42,15.42,0,0,1,13.57,25a11.27,11.27,0,0,1-2.65-5.28,9.29,9.29,0,0,1-.23-2,10.92,10.92,0,0,1,.61-3.84,11.78,11.78,0,0,1,2.9-4.55,13.81,13.81,0,0,1,6.44-3.63Z" fill="blue"/><path d="M25.86,5.41a4.48,4.48,0,0,1,.81.1A14.16,14.16,0,0,1,32.53,8a13.12,13.12,0,0,1,3.84,4.47,11.22,11.22,0,0,1,1.16,6.16,12.15,12.15,0,0,1-1.94,5.28,13.4,13.4,0,0,1-4,3.64,13.06,13.06,0,0,1-2.2,1.13.37.37,0,0,0-.18.57.82.82,0,0,0,.83,0A14.36,14.36,0,0,0,36,24.67a12.15,12.15,0,0,0,2.27-5.5,13,13,0,0,0-1.39-7.71,6,6,0,0,1,.94.94,12.86,12.86,0,0,1,1.83,2.78,10.13,10.13,0,0,1,.93,2.55,11.67,11.67,0,0,1,.11,3.49,7.08,7.08,0,0,1-.41,1.63,15.13,15.13,0,0,1-4.37,6.35,15.1,15.1,0,0,1-5.09,2.69c-.58.18-1.17.34-1.77.47a1,1,0,0,0-.63.34.32.32,0,0,0,.09.49,1.3,1.3,0,0,0,.87,0,25.52,25.52,0,0,0,4.66-2,15.45,15.45,0,0,0,2.25-1.5A13.74,13.74,0,0,0,39.87,25a15.12,15.12,0,0,0,1.32-4.1s.05.1.07.16a10.23,10.23,0,0,1-.49,6.23,14.09,14.09,0,0,1-1.68,3A10.61,10.61,0,0,1,38,31.69a22.18,22.18,0,0,1-4.24,2.95,21.11,21.11,0,0,1-5.16,1.87,2.24,2.24,0,0,0-1.06.39.35.35,0,0,0,0,.55,1.16,1.16,0,0,0,.78.09A19,19,0,0,0,33.42,36a22.56,22.56,0,0,0,5.16-3.68,5.15,5.15,0,0,1-.49,1,12.87,12.87,0,0,1-4,4.08,18.47,18.47,0,0,1-5.72,2.39,16.46,16.46,0,0,1-7.29.14,22.14,22.14,0,0,1-3.68-1.06,20,20,0,0,1-2.21-1,5.68,5.68,0,0,0-1.45-.69c-.48-.15-1-.19-1.47-.3A14.42,14.42,0,0,1,9,35.8,18.59,18.59,0,0,1,6.46,34c.89-.23,1.73-.62,2.64-.78a3,3,0,0,1,2.48.52,5.43,5.43,0,0,0,1.13.69,5.82,5.82,0,0,0,2.86.67,7.86,7.86,0,0,0,2.89-.74,21.76,21.76,0,0,1,4.6-1.77A2.81,2.81,0,0,0,24.52,32a2.17,2.17,0,0,0,.24-1.5,7.26,7.26,0,0,1,.67-3,3.4,3.4,0,0,1,1.95-1.75A12.15,12.15,0,0,0,30,24.36a11.61,11.61,0,0,0,3-3.4,9.3,9.3,0,0,0,1.2-3.3,10.54,10.54,0,0,0-.75-6.34,9.67,9.67,0,0,0-3.23-3.91,12.54,12.54,0,0,0-4.42-2Z" fill="blue"/></g></g></svg>