<svg xmlns="http://www.w3.org/2000/svg" viewBox="0 0 48 48"><g id="Layer_2" ><g id="Layer_1-2"><rect width="24" height="24" rx="24" fill="none"/><path d="M39.91,41.59a14.81,14.81,0,0,1-3.75-.45c-.85-.19-1.67-.44-2.49-.7a30.35,30.35,0,0,1-4.14-1.67,14,14,0,0,1-4.28-3.27,17,17,0,0,1-2.88-4.63,13.93,13.93,0,0,1-1.06-4.22,12.68,12.68,0,0,1,.11-3.14A11.26,11.26,0,0,1,25,16.94a7.53,7.53,0,0,1,1.93-1.2,9.59,9.59,0,0,1,3.43-1,9.26,9.26,0,0,1,3.39.35,17.44,17.44,0,0,1,3.34,1.39,5.32,5.32,0,0,0,.79.4,10.29,10.29,0,0,0,.13-2,7.88,7.88,0,0,0-.3-2.05,7.24,7.24,0,0,0-2.35-3.57,7.23,7.23,0,0,0-1.14-.83A.38.38,0,0,1,34,8.07a1.31,1.31,0,0,1,.23-.66l.51-.67c.09-.11.12-.19,0-.3a5.53,5.53,0,0,0-.7-.58,8.62,8.62,0,0,0-4.9-1.51,6.35,6.35,0,0,0-4,1.35c-.25.19-.26.19-.45,0a4.72,4.72,0,0,1-1-2,2.78,2.78,0,0,0-.08-.49,5.58,5.58,0,0,0-3.19,1.94A6.32,6.32,0,0,0,19,8.46c0,.27,0,.27-.31.2a7.77,7.77,0,0,0-2.92-.18.34.34,0,0,0-.35.29,6.12,6.12,0,0,0-.09,2.76,7.17,7.17,0,0,1,.18.83,5.07,5.07,0,0,0-3.67,1.83l.3.14a11.94,11.94,0,0,1,2.51,1.36,10.17,10.17,0,0,1,2.47,2.72,2.4,2.4,0,0,1,.31.82,1.28,1.28,0,0,1-.18.93.91.91,0,0,1-1,.4,1.44,1.44,0,0,1-1-.76c-.24-.4-.48-.81-.76-1.19a5.73,5.73,0,0,0-2.05-1.8,7.19,7.19,0,0,0-2.34-.7,4.19,4.19,0,0,0-2.26.32,4.33,4.33,0,0,0-1.41,1,3.77,3.77,0,0,0-.74,1,.68.68,0,0,0,.36.08,1.64,1.64,0,0,1,.44,0,3,3,0,0,1,2,1.55,8.47,8.47,0,0,1,.85,2.33c.28,1.17.43,2.37.62,3.57a15.45,15.45,0,0,0,.45,2.23,26.23,26.23,0,0,0,1.94,4.68A20.19,20.19,0,0,0,17.29,39a23,23,0,0,0,7.12,4.18,19.94,19.94,0,0,0,5.49,1.17,18,18,0,0,0,3.59-.1,15.36,15.36,0,0,0,5.21-1.58,6.84,6.84,0,0,0,1.57-1C40.15,41.59,40,41.58,39.91,41.59ZM37,42.43a13.26,13.26,0,0,1-3.16.89,17.1,17.1,0,0,1-3.85.2,20.33,20.33,0,0,1-4.63-.86,21.71,21.71,0,0,1-7.69-4.3,19.79,19.79,0,0,1-4.25-5.13,23.56,23.56,0,0,1-2.57-6.18,17.41,17.41,0,0,1-.38-2.49,13.39,13.39,0,0,0-.91-4,5.1,5.1,0,0,0-2-2.47.43.43,0,0,1-.21-.17,3.22,3.22,0,0,1,1.8-.9,4.7,4.7,0,0,1,4.09,1.24,7.42,7.42,0,0,1,1.39,1.85,2.7,2.7,0,0,0,1.25,1.18,1.74,1.74,0,0,0,2.46-1.57A2.44,2.44,0,0,0,18,18.47a11.38,11.38,0,0,0-1-1.62,11,11,0,0,0-3.23-2.65.44.44,0,0,1-.24-.18,4.43,4.43,0,0,1,3.21-.9,7,7,0,0,1-.59-1.94,5.12,5.12,0,0,1,0-1.61c0-.24.06-.28.32-.31a5.47,5.47,0,0,1,2.09.19,4.41,4.41,0,0,1,1.16.44.17.17,0,0,0,.19,0V9.35a6.35,6.35,0,0,1,.91-3.23,4.47,4.47,0,0,1,2.18-1.84A7,7,0,0,0,25,6.93a7,7,0,0,1,1.69-1.18,6,6,0,0,1,2.53-.6,7.58,7.58,0,0,1,3.94,1,5.5,5.5,0,0,1,.5.34c.09.06.1.12,0,.22a3.18,3.18,0,0,0-.6,1.71c0,.26,0,.28.24.41a7.18,7.18,0,0,1,2,1.44A6.3,6.3,0,0,1,37,13.55a5.92,5.92,0,0,1,.13,1,4.88,4.88,0,0,1,0,1c-.08.05-.14,0-.21-.05A13.82,13.82,0,0,0,33,14.09a11.4,11.4,0,0,0-1.43-.18,9.61,9.61,0,0,0-4,.57,9.88,9.88,0,0,0-3.35,2.08,11.67,11.67,0,0,0-3.2,5,12.42,12.42,0,0,0-.58,3,13.63,13.63,0,0,0,.38,4,13.76,13.76,0,0,0,1.25,3.64,15.91,15.91,0,0,0,2.35,3.35A18.74,18.74,0,0,0,28,38.64a24.35,24.35,0,0,0,4,2.07A24.55,24.55,0,0,0,35.88,42a8.89,8.89,0,0,0,1.4.24C37.22,42.37,37.11,42.39,37,42.43Z" fill="#d3010a"/><path d="M20.94,11.42a12.43,12.43,0,0,1-.32-1.34,4.73,4.73,0,0,1,1-3.78,4.37,4.37,0,0,1,.86-.8c.12-.08.18-.08.27,0A9.23,9.23,0,0,0,25,7.81l.09.06c.09.08.16.07.24,0A4.39,4.39,0,0,1,26.15,7a4.78,4.78,0,0,1,2.93-1.1,6.42,6.42,0,0,1,3.22.69c.42.2.41.21.27.64a5.08,5.08,0,0,0-.2,1.82c0,.17.12.22.25.27a6.58,6.58,0,0,1,1.46.82,5.82,5.82,0,0,1,2.36,4c0,.11.08.21,0,.35a.53.53,0,0,1-.31-.13,10.58,10.58,0,0,0-3-1,11.89,11.89,0,0,0-2.85-.19A9.52,9.52,0,0,0,25,14.84a13.13,13.13,0,0,0-2.67,2.54,11.58,11.58,0,0,0-1.7,3.15,15.9,15.9,0,0,0-.79,3.39,1,1,0,0,1-.08.29,8.65,8.65,0,0,1-2,2.31,2.68,2.68,0,0,1-1.66.64,3,3,0,0,1-2-.81,2.71,2.71,0,0,1-.91-1.46A2.36,2.36,0,0,1,15.47,22a2.19,2.19,0,0,1,.72.14,1.83,1.83,0,0,0,2.1-.53,2.65,2.65,0,0,0,.56-2.85,8.75,8.75,0,0,0-2.8-3.83c-.31-.25-.62-.48-1-.74A4.17,4.17,0,0,1,16.9,14a7.77,7.77,0,0,1,1.33.31c.08,0,.1,0,.08-.07a9.85,9.85,0,0,1-.81-1.11,4.65,4.65,0,0,1-.67-2.46v-.44c0-.2,0-.23.24-.22a5.35,5.35,0,0,1,3.05,1.08c.24.18.48.36.73.53S20.94,11.49,20.94,11.42Z" fill="#d3010a"/><path d="M34.41,42.32a10.82,10.82,0,0,1-1.38.26,16.23,16.23,0,0,1-3.48.13,18.09,18.09,0,0,1-4.88-1,20.14,20.14,0,0,1-6.53-3.92,21.82,21.82,0,0,1-4.31-5.26,21,21,0,0,1-2.25-5.59,11.94,11.94,0,0,1-.21-1.46c-.15-1.12-.27-2.24-.53-3.34a8.11,8.11,0,0,0-2.17-4,.49.49,0,0,1-.15-.19c.13-.11.29-.08.44-.1a4.54,4.54,0,0,1,2.79.28,3.87,3.87,0,0,1,1.45,1.27,13,13,0,0,1,1,1.81c.06.1,0,.15-.07.21a4,4,0,0,0-.7.52,2.89,2.89,0,0,0-.82,3.31,4,4,0,0,0,2.16,2.45,3.3,3.3,0,0,0,3.53-.5,4.84,4.84,0,0,0,1.2-1.31,2.22,2.22,0,0,1,.19-.27c.1.05.05.14.06.21a14,14,0,0,0,1.47,6.12,17.85,17.85,0,0,0,2.37,3.69A18.39,18.39,0,0,0,28.76,40a26.66,26.66,0,0,0,5.36,2.21l.29.09s0,0,0,0A0,0,0,0,1,34.41,42.32Z" fill="#d3010a"/><path d="M20.94,11.42a.54.54,0,0,1,.13.35.29.29,0,0,1-.22-.19C20.92,11.55,20.93,11.48,20.94,11.42Z" fill="#f9dfdf"/><path d="M18.31,14.2s.14.06.09.13-.12,0-.17-.06Z" fill="#f3babc"/><path d="M34.41,42.32v-.06s.1,0,.1,0S34.46,42.34,34.41,42.32Z" fill="#e2585e"/></g></g></svg>