<svg xmlns="http://www.w3.org/2000/svg" viewBox="0 0 48 48"><g id="Layer_2" data-name="Layer 2"><g id="Layer_1-2" data-name="Layer 1"><rect width="24" height="24" rx="24" fill="none"/><path d="M44.27,23.5A15.44,15.44,0,1,1,28.84,8.07,15.43,15.43,0,0,1,44.27,23.5Z" fill="#f29100"/><path d="M9.45,6.71c1.58-.08,2,.91,2,2.06,0,2,.07,2.94,1.24,2.94s1.21-.78,1.4-1.36a5,5,0,0,1,1.75-2.72,5.9,5.9,0,0,1,5.44,0c2.18,1,6,3.11,6.79,3.55a7.28,7.28,0,0,0,4.13,1,3.43,3.43,0,0,1-3,.82,19,19,0,0,1-4-2c-.78-.53-1.22-.73-1.85-.48A17.54,17.54,0,0,0,26.25,13c.58.29,1.31.78,1.89.58-.68.54-1.16.73-2.43.2a31.24,31.24,0,0,1-3.64-2.09c-.53-.34-2-1-2.5-.19a2.37,2.37,0,0,1,1.29.29c.44.24,2,1.6,2.52,1.84a4.93,4.93,0,0,0,2,.73,3,3,0,0,1-2.52.19,18.34,18.34,0,0,1-2.38-1.4,2,2,0,0,0-1.89.09,2.43,2.43,0,0,1,1.7.88c.29.34.77,1.16,1.69,1.11a2.7,2.7,0,0,1-2.57-.14,3.1,3.1,0,0,0-3.06.39,2.75,2.75,0,0,0,0,3.73c1.17,1.12,2.63,1.12,3.5,1.41a15.08,15.08,0,0,1,4,2.53c1.5,1.26,4.12,3.73,4.71,4.17a2,2,0,0,0,2.47.14c.83-.67.78-1.21.29-2.71s-.19-2.28.25-3.84c.24.34-.2,1.31-.05,2.33s.84,2.67.77,3.3a2.35,2.35,0,0,1-1.6,2.09c-1,.19-2.13-.1-3.74-1.65s-3.69-3.45-4.51-4.08-1.38-1-2-.94c.39.38,2.37,1.57,3.18,2.35a59,59,0,0,0,4.37,4.13c1.12.77,3,1.69,6.7.72a6.07,6.07,0,0,1-4.9.78c-2-.49-3.45-2.09-4.81-3.4S21.2,23,19,22.44c-.83-.17,2.62,1.31,6,4.75a35.39,35.39,0,0,1,4.36,5.54c.59.92,2.77,3.35,3.21,3.93-.88-.15-1.8-1.36-2.72-2.43s-2.43-3.4-3.64-4.61a40.89,40.89,0,0,0-5.73-5.05c-1.94-1.21-5.87-3.15-7.81-4.51a9.76,9.76,0,0,1-4.08-4.95,8,8,0,0,1,.49-4.95c.34-1,1.21-2,.38-3.45Zm.49,16h0a19.24,19.24,0,0,0,4,1.26,24.59,24.59,0,0,0,5.14,9.85A20.75,20.75,0,0,0,30.23,40.4C27.12,41,20.76,39,16.44,34.91a23.86,23.86,0,0,1-6.5-12.23Zm-1-.53h0c.92,3.78,2.28,8.68,6.84,13.05A21.44,21.44,0,0,0,30,41.12c-2.71.59-10.19-.14-16.55-5S4.5,23.84,3.73,17c3.59,1.46,2.86,4.52,5.19,5.2Z" fill="#312782"/></g></g></svg>