<svg xmlns="http://www.w3.org/2000/svg" viewBox="0 0 48 48"><g id="Layer_2" data-name="Layer 2"><g id="Layer_1-2" data-name="Layer 1"><rect width="24" height="24" rx="24" fill="none"/><path d="M7,20.28v.45c0,.83,0,1.65,0,2.48,0,.2,0,3.3,0,3.3h.67V20.28Z" fill="#c7b273"/><path d="M4.49,21.39a.66.66,0,0,1,.66-.67H6.28V20.3s-.88,0-1,0a1.7,1.7,0,0,0-1,.26,1.62,1.62,0,0,0-.46,1.4H2.93v.57h.9c0,.52,0,1,0,1.55,0,.15,0,2.45,0,2.45h.67v-4h.85v-.57H4.49Z" fill="#c7b273"/><path d="M10.87,28.32a1.54,1.54,0,0,0,.7-.17A1,1,0,0,0,12,27.3V26.16a1.53,1.53,0,0,1-1,.3l-1.17,0c-.89-.12-1.48-.57-1.48-1.39V22.57h.7V25c0,.56.41.87,1,.95l.8,0c.73,0,1.09-.31,1.09-1.06V22.57h.64v4.71a1.61,1.61,0,0,1-1.31,1.55,3.85,3.85,0,0,1-1.69,0,3.85,3.85,0,0,1-.47-.19l.2-.61c0,.05.34.2.38.21a2.74,2.74,0,0,0,1,.14Z" fill="#c7b273"/><path d="M14.91,23.49s2.74.31,3-.54V21.52s-.08-.61-1.34-.61H15.53s-1.33-.11-1.55.64v5h-.65V21.7A1.31,1.31,0,0,1,14,20.56a2.67,2.67,0,0,1,1.3-.28h1.22a4,4,0,0,1,.91.1c.52.13,1.16.4,1.16,1V23s0,1-1.32,1.15a8.86,8.86,0,0,1-2.45,0Z" fill="#6a6e71"/><path d="M27.44,23.21h1l.24-.62-.32,0H27.18a2.66,2.66,0,0,0-1.3.29A1.31,1.31,0,0,0,25.24,24v2.51h.65V23.84C26.11,23.1,27.44,23.21,27.44,23.21Z" fill="#6a6e71"/><rect x="35.25" y="22.57" width="0.65" height="3.94" fill="#6a6e71"/><path d="M23.26,25.81v.7H21.6a4,4,0,0,1-1.13-.15c-.54-.16-1.15-.46-1.15-1V23.72s.09-1.15,2-1.15h1.37s1.83.11,1.83,1.18v.66a.33.33,0,0,1-.16.28,4.35,4.35,0,0,1-1.85.24A10.23,10.23,0,0,1,21,24.8l.12-.64a9.53,9.53,0,0,0,2.73,0v-.28s.14-.59-1.36-.67h-1.2S20,23.22,20,24v1.12s-.07.55,1.68.7Z" fill="#6a6e71"/><path d="M34.26,22.89,34,23.5a11.08,11.08,0,0,1-1.09-.22,7,7,0,0,0-1.77-.12c-.32,0-1,.06-1.09.48,0,0-.12.38.91.4a10.19,10.19,0,0,1,2.94.35,1,1,0,0,1,.38,1.53,1.92,1.92,0,0,1-1,.47,7,7,0,0,1-3.92-.33l.28-.63.64.18a7,7,0,0,0,1,.21,4.45,4.45,0,0,0,2.17-.16c.23-.09.54-.37.23-.59a.69.69,0,0,0-.25-.1c-1-.26-2-.12-3-.32-.53-.1-1.06-.39-1.07-1C29.4,23.66,29.26,21.68,34.26,22.89Z" fill="#6a6e71"/><path d="M40.94,24.09V25c0,.88-1.33.86-1.33.86h-1c-1.46,0-1.36-.73-1.36-.73v-.72a6,6,0,0,1,1.44-.11l-1.2-.46a2.2,2.2,0,0,0-.74.19.33.33,0,0,0-.17.28v.94c0,1.06,1.84,1.17,1.84,1.17h1.18c1.89,0,2-1.15,2-1.15V24Z" fill="#6a6e71"/><path d="M40.94,22.62v.32l.63-.12v-.35c0-.57-.62-.87-1.15-1a4,4,0,0,0-1.13-.15H37.81v.62h1.44C41,22,40.94,22.62,40.94,22.62Z" fill="#6a6e71"/><path d="M37.69,23.72l1.14.39a1.36,1.36,0,0,0,.72.07l4.71-.78a1.41,1.41,0,0,0,.68-.46.06.06,0,0,0,0-.08l-.13-.08a1.07,1.07,0,0,0-.72-.14l-4.83.75-1.81-1.16-.21.18.59,1.23Z" fill="#c7b273"/><circle cx="35.57" cy="20.8" r="0.56" fill="#c7b273"/></g></g></svg>