<svg xmlns="http://www.w3.org/2000/svg" viewBox="0 0 48 48"><g id="Layer_2" data-name="Layer 2"><g id="Layer_1-2" data-name="Layer 1"><rect width="24" height="24" rx="24" fill="none"/><path d="M28.86,18.57a6,6,0,0,0-2.35,2.69,3.84,3.84,0,0,0,0,3,6.37,6.37,0,0,0,2.56,2.48c.21.14.51-.06.69-.17a4.63,4.63,0,0,0,.68-.48A4.41,4.41,0,0,0,32,22.76,4.36,4.36,0,0,0,28.86,18.57Z" fill="#f02137" fill-rule="evenodd"/><path d="M35.17,16.14c-5.5.89-9.06,2.93-9.28,6.62H12.09c2.25-4.41,7.76-6.71,12.5-6.68l10.58.06Z" fill="#f02137" fill-rule="evenodd"/><path d="M2.93,23.38H25.87c.45,3.42,6.5,6.11,19.08,8.54l-42-8.54Z" fill="#f02137" fill-rule="evenodd"/></g></g></svg>