<svg xmlns="http://www.w3.org/2000/svg" viewBox="0 0 48 48"><g id="Layer_2" data-name="Layer 2"><g id="Layer_1-2" data-name="Layer 1"><rect width="24" height="24" rx="24" fill="none"/><path d="M12.51,6.5A20.93,20.93,0,0,1,36.07,41.1a2.81,2.81,0,0,0-.31.29l-.18-.46a2.39,2.39,0,0,1-.8,1,22.32,22.32,0,0,1-4,1.86,13.27,13.27,0,0,0,.55-7,15.34,15.34,0,0,0-2.09-5.32,13.9,13.9,0,0,0,7.06-1.65,4.5,4.5,0,0,1,1.49,2.88,10.13,10.13,0,0,1-1,6.09,17.63,17.63,0,0,1-1.1,1.91l.2.29c.39-.66.72-1.39,1.14-2a20.22,20.22,0,0,0,5-6.67,19.83,19.83,0,0,0,1.78-10A19.46,19.46,0,0,0,43,17.81c-1.15.79-2.62.61-3.62,1.84a2.48,2.48,0,0,1-2-1.28c.44-.38.85-.89,1.37-1a7.58,7.58,0,0,1,2.28,0,6.5,6.5,0,0,0,1.75-.21A19.88,19.88,0,1,0,20.46,43.52a1.6,1.6,0,0,0,.24,1c-.27.23-.58.07-.87,0a20.93,20.93,0,0,1-7.32-38Z" fill="#05164c"/><path d="M11.18,14.39A1,1,0,0,1,13,13.65a2,2,0,0,1,.17,1.08,18.33,18.33,0,0,0,1.21,6.44l-.58.55A20.32,20.32,0,0,1,11.18,14.39Z" fill="#05164c"/><path d="M13.63,14.2a1,1,0,0,1,1.38-1,1,1,0,0,1,.6,1.27,10.2,10.2,0,0,0-.53,3,9.47,9.47,0,0,0,.68,3.07,5.41,5.41,0,0,0-1,.35A18,18,0,0,1,13.63,14.2Z" fill="#05164c"/><path d="M8.85,14.92a1,1,0,0,1,1.9-.18c.13.38.18.81.28,1.2a21,21,0,0,0,2.55,6.13l-.34.59a19.92,19.92,0,0,1-4.35-7A1,1,0,0,1,8.85,14.92Z" fill="#05164c"/><path d="M15.91,14.94a.91.91,0,0,1,1.53-.36,1.22,1.22,0,0,1,.28,1.24A9.18,9.18,0,0,0,17,17.25a4.58,4.58,0,0,0,.26,3.56,5.43,5.43,0,0,0-1-.25A7.94,7.94,0,0,1,15.91,14.94Z" fill="#05164c"/><path d="M34.32,15.91a.58.58,0,0,1,1,0,.59.59,0,0,1,1,.13c.3-.14.72-.2.88.26,0,.62-.05,1.23,0,1.85a5.64,5.64,0,0,0-6.3,1.41c-.58,0-1.16-.07-1.75-.12a7.64,7.64,0,0,0,.67,1.41,15.66,15.66,0,0,0-2.64,7.58c-.83-.19-1.43-1.11-2.13-1.67l.35-.14a4.38,4.38,0,0,1-.28-.42.58.58,0,0,1,.4-.58,1.45,1.45,0,0,1-.27-.47.89.89,0,0,1,.39-.52.62.62,0,0,1,.38-1l-.24-.25a.76.76,0,0,1,.54-.65l-.16-.43a.86.86,0,0,1,.59-.45.58.58,0,0,1,.46-.89.6.6,0,0,1,.46-.85.63.63,0,0,1,.64-.77.55.55,0,0,1,.63-.77.59.59,0,0,1,.76-.71.64.64,0,0,1,.86-.59.61.61,0,0,1,.86-.44.61.61,0,0,1,.93-.43.59.59,0,0,1,1-.33A.6.6,0,0,1,34.32,15.91Z" fill="#05164c"/><path d="M7,16.46a1,1,0,0,1,1.52-.27,7,7,0,0,1,.39.83,19.8,19.8,0,0,0,4.15,6c0,.16-.08.49-.11.65a25.56,25.56,0,0,1-5.89-5.9A1.23,1.23,0,0,1,7,16.46Z" fill="#05164c"/><path d="M31.18,19.72a5.15,5.15,0,0,1,5-1.51,1.84,1.84,0,0,1,1.16.67,2.68,2.68,0,0,0,1.92,1c0,.27-.07.53-.1.8a5.31,5.31,0,0,0-.91-.54l-.31.27a2,2,0,0,1,1.36.88,2.4,2.4,0,0,0-2.5-.56c0,.08-.14.22-.18.3a2.18,2.18,0,0,1,2.79,1,2.58,2.58,0,0,0-2.21-.83c-.27,0-.61.25-.84,0-.11-.47.32-.62.57-.72s.84.05,1.17-.36a2.24,2.24,0,0,0-1.93.52c-.24.3-.05.69.12,1A1.26,1.26,0,0,0,36,22.71a1.35,1.35,0,0,0,1.24.73c.49,0,.87-.47,1.33-.6,0,.95-.17,2.18-1,2.42-1.21.25-2.61-.3-3.66.83-.13-.14-.26-.26-.39-.39a.91.91,0,0,0-.28-.64.81.81,0,0,0-.23-.7l.15-.26-.24-.39.16-.3L32.92,23a.54.54,0,0,0,0-.76,1.92,1.92,0,0,0,1.83-.57c.47-.63,0-1.74-.62-1.72C33.17,19.84,32.17,19.8,31.18,19.72Z" fill="#05164c"/><path d="M6,19.16a1.05,1.05,0,0,1,1.06-.59,25.23,25.23,0,0,0,6,5.66c.05.21.09.42.14.63a21.81,21.81,0,0,1-6.93-4.27A1.21,1.21,0,0,1,6,19.16Z" fill="#05164c"/><path d="M29.73,19.91c1.47.12,2.95.16,4.41.35.44,0,.72.85.4,1.27s-.76.42-1.15.49c-.19-.58-.72-.44-1-.12A3.18,3.18,0,0,1,29.73,19.91Z" fill="#05164c"/><path d="M14.8,21.85c.09-.78.93-1,1.3-.47a7.2,7.2,0,0,0,2.33,2.22l-.23.59a8.84,8.84,0,0,1-3-1.65A.88.88,0,0,1,14.8,21.85Z" fill="#05164c"/><path d="M16.3,21a2.29,2.29,0,0,1,1.53.65,7.27,7.27,0,0,0,1.51,1.24,5.56,5.56,0,0,0-.73.43A6.58,6.58,0,0,1,16.3,21Z" fill="#05164c"/><path d="M30,21.14a5.32,5.32,0,0,0,2.5,1.05.62.62,0,0,0-.13.81l-.22.4.19.34a.69.69,0,0,0,.13.78.57.57,0,0,0,.21.74l0,.42L33,26a.57.57,0,0,0,.44.65.56.56,0,0,0,.54.56c.11.42.42.46.71.46a3.47,3.47,0,0,0,.45.41c-2.48.82-5.08,1.48-7.62.79A16.62,16.62,0,0,1,30,21.14Z" fill="#05164c"/><path d="M6.06,22.7a1.47,1.47,0,0,1,.61-1.06,22.17,22.17,0,0,0,6.68,3.7c.11.19.23.38.35.57a22.07,22.07,0,0,1-7-2.06A1.19,1.19,0,0,1,6.06,22.7Z" fill="#05164c"/><path d="M36.25,22a1,1,0,0,1,.94-.44c.52,0,.86.65,1.35.83-.51.43-1.11.86-1.73.66A.88.88,0,0,1,36.25,22Z" fill="#05164c"/><path d="M38.71,21.85a2.44,2.44,0,0,1,.8,1.11c.16.59.25,1.2.36,1.8a3.5,3.5,0,0,1-1.29,0A7.28,7.28,0,0,0,38.71,21.85Z" fill="#05164c"/><path d="M13.55,23.11a.82.82,0,0,1,1.3-.31,9.3,9.3,0,0,0,3.31,1.75l.18.63a8.4,8.4,0,0,1-4.48-.86A1,1,0,0,1,13.55,23.11Z" fill="#05164c"/><path d="M18.73,24c.3-.63,1-1,1.48-.55a42.6,42.6,0,0,1,7.22,6.07,16.13,16.13,0,0,1,3.75,8.09,12.27,12.27,0,0,1-.76,6.33,19.44,19.44,0,0,1-2.58.64A11.17,11.17,0,0,0,29,38.31a12.13,12.13,0,0,0-1.91-5.2c-2.16-3.4-5.11-5.59-8-7.58A1.42,1.42,0,0,1,18.73,24Z" fill="#05164c"/><path d="M7.82,26.39a1.18,1.18,0,0,1-.54-1.77,22.49,22.49,0,0,0,6.61,1.64,5.24,5.24,0,0,1,.64.54A19,19,0,0,1,7.82,26.39Z" fill="#05164c"/><path d="M14.19,24.86a9.37,9.37,0,0,0,4.26.65,4.14,4.14,0,0,1,.56.55c-1.24.18-2.48.35-3.73.46A1.27,1.27,0,0,1,14.19,24.86Z" fill="#05164c"/><path d="M38.43,25A3.71,3.71,0,0,0,40,25c.21,1.06.47,2.11.61,3.2a1.71,1.71,0,0,1-1.36,1.14,3.32,3.32,0,0,1-1.79-.2c-.25-.21-.59-.45-.55-.91s.66-.92.37-1.47-.89-.24-1.17.2a5.32,5.32,0,0,0,.94-.17,1.86,1.86,0,0,1-.41,1.31,2,2,0,0,0-1.68-1.07.9.9,0,0,0-.56-.29c-.07-.18-.15-.37-.23-.55a3.6,3.6,0,0,1,2.81-.59,2.35,2.35,0,0,0,1.19-.33,5.24,5.24,0,0,0,.44,1.75c-.22.17-.52.32-.58.7-.15.9.91,1.44,1.29.76.17-.51-.32-.88-.61-.61.15.12.31.23.46.36-.23.59-.86.14-1-.35a1.14,1.14,0,0,1,.58-.6,2.93,2.93,0,0,0,1.77.56c0-.09-.11-.27-.15-.36-.54,0-1.24,0-1.55-.73A4.12,4.12,0,0,1,38.43,25Z" fill="#05164c"/><path d="M16,26.85c1.15-.24,2.32-.36,3.47-.56.4.25.8.47,1.19.75-1.44.21-2.88.45-4.32.64C16,27.79,15.64,27.16,16,26.85Z" fill="#05164c"/><path d="M9.1,27.1a21.93,21.93,0,0,0,5.78,0c.23.18.45.37.67.56-1.52.27-3.05.45-4.58.69-.48.06-1,.19-1.44-.23A1.93,1.93,0,0,1,9.1,27.1Z" fill="#05164c"/><path d="M17.13,27.88c1.29-.15,2.57-.4,3.86-.55a5,5,0,0,1,1,.73c-1.52.25-3.05.48-4.57.69C17.08,28.76,16.92,28.25,17.13,27.88Z" fill="#05164c"/><path d="M11.48,28.63c1.44-.23,2.89-.44,4.33-.64a3.8,3.8,0,0,1,.91.76c-1.71.23-3.42.56-5.13.75C11.21,29.57,11,28.65,11.48,28.63Z" fill="#05164c"/><path d="M27.46,29.13a13.57,13.57,0,0,0,7.81-.86l.84,1.38a13.83,13.83,0,0,1-7,1.58A17.06,17.06,0,0,0,27.46,29.13Z" fill="#05164c"/><path d="M18.43,29c1.31-.21,2.63-.41,3.94-.59.28.24.55.48.82.74-1.41.29-2.83.44-4.25.68-.24,0-.55.13-.72-.19S18.18,28.93,18.43,29Z" fill="#05164c"/><path d="M12.65,29.72c1.46-.29,2.93-.44,4.39-.69l.83.78c-1.63.25-3.26.51-4.88.74C12.67,30.58,12.43,30.07,12.65,29.72Z" fill="#05164c"/><path d="M19.39,30.08c1.38-.26,2.76-.41,4.14-.65.27.25.53.51.78.79-1.53.25-3.06.49-4.6.7C19.39,31,19.09,30.4,19.39,30.08Z" fill="#05164c"/><path d="M13.94,30.77c1.41-.26,2.84-.43,4.26-.65l.81.78c-1.58.23-3.16.5-4.75.7C13.94,31.67,13.66,31.1,13.94,30.77Z" fill="#05164c"/><path d="M20.6,31.13l3.8-.56c.39-.08.62.49.92.75-1.49.26-3,.46-4.47.69-.26.09-.44-.21-.59-.46C20.37,31.41,20.42,31.12,20.6,31.13Z" fill="#05164c"/><path d="M15.07,31.86c1.42-.25,2.84-.45,4.26-.65.25.26.51.52.76.79l-4.68.7C15.07,32.81,14.73,32.17,15.07,31.86Z" fill="#05164c"/><path d="M21.39,32.3c1.38-.27,2.77-.41,4.15-.65.22.26.43.54.64.82-1.48.21-3,.46-4.44.66C21.41,33.23,21.09,32.63,21.39,32.3Z" fill="#05164c"/><path d="M16.07,33c1.41-.32,2.85-.44,4.27-.69l.68.82c-1.54.19-3.07.49-4.61.66C16.11,33.83,15.87,33.34,16.07,33Z" fill="#05164c"/><path d="M22.24,33.43c1.38-.27,2.77-.42,4.16-.64.17.27.34.55.5.83-1.43.19-2.85.45-4.28.63C22.28,34.38,21.94,33.78,22.24,33.43Z" fill="#05164c"/><path d="M17.42,34c1.28-.18,2.56-.41,3.84-.55a4.51,4.51,0,0,1,.62.79c-1.44.22-2.88.44-4.32.64a.46.46,0,0,1-.55-.57C17,34,17.26,34,17.42,34Z" fill="#05164c"/><path d="M23,34.53l4.1-.61.44.83c-1.42.2-2.83.46-4.25.63C23,35.35,22.82,34.88,23,34.53Z" fill="#05164c"/><path d="M17.9,35.16l4.22-.61c.18.26.36.53.53.81-1.48.2-3,.48-4.44.66C17.86,36,17.73,35.52,17.9,35.16Z" fill="#05164c"/><path d="M23.78,35.65c1.3-.2,2.6-.4,3.89-.57l.33.84c-1.24.2-2.49.38-3.73.57-.2,0-.45.09-.61-.13S23.53,35.67,23.78,35.65Z" fill="#05164c"/><path d="M18.7,36.31c1.38-.27,2.77-.41,4.15-.65l.45.84c-1.45.22-2.9.48-4.35.64C18.62,37.23,18.36,36.51,18.7,36.31Z" fill="#05164c"/><path d="M24.2,36.86c1.29-.28,2.61-.38,3.9-.62.1.29.18.58.27.88-1.28.17-2.56.42-3.85.56C24.21,37.75,23.93,37.18,24.2,36.86Z" fill="#05164c"/><path d="M19.6,37.39c1.29-.18,2.57-.36,3.86-.58l.39.86c-1.38.22-2.76.43-4.13.62-.26.1-.62-.26-.49-.63S19.47,37.43,19.6,37.39Z" fill="#05164c"/><path d="M24.64,38c1.26-.21,2.54-.38,3.8-.58.06.29.11.59.16.89-1.2.17-2.39.37-3.58.53C24.67,38.91,24.47,38.42,24.64,38Z" fill="#05164c"/><path d="M20,38.59,24,38c.11.28.22.57.32.85l-3.85.59c-.2,0-.45.1-.61-.13S19.73,38.62,20,38.59Z" fill="#05164c"/><path d="M25.23,39.16c1.13-.16,2.27-.35,3.41-.5,0,.3,0,.6,0,.9l-3,.46c-.21,0-.47.09-.62-.17S25,39.14,25.23,39.16Z" fill="#05164c"/><path d="M20.34,39.81c1.35-.26,2.72-.42,4.08-.63.09.28.17.57.25.86-1.35.21-2.71.43-4.06.6C20.28,40.71,20,40.06,20.34,39.81Z" fill="#05164c"/><path d="M25.42,40.42c1.08-.22,2.17-.33,3.25-.51,0,.3,0,.61-.05.91-1,.14-2,.34-3,.43C25.3,41.36,25,40.55,25.42,40.42Z" fill="#05164c"/><path d="M20.73,41c1.35-.2,2.69-.43,4-.58.06.28.11.57.16.85-1.36.2-2.71.45-4.07.6C20.46,41.92,20.31,41,20.73,41Z" fill="#05164c"/><path d="M25.6,41.6c1-.18,2-.3,3-.45l-.18.92c-.87.14-1.73.3-2.6.39C25.46,42.48,25.23,41.77,25.6,41.6Z" fill="#05164c"/><path d="M21.1,42.16c1.3-.18,2.58-.4,3.88-.56l.09.88c-1.32.19-2.64.42-4,.59-.23,0-.54-.28-.42-.63S21,42.24,21.1,42.16Z" fill="#05164c"/><path d="M25.56,42.87c.9-.22,1.82-.28,2.73-.44-.11.32-.22.65-.34,1-.68.08-1.35.24-2,.29C25.6,43.77,25.29,43.22,25.56,42.87Z" fill="#05164c"/><path d="M21,43.41c1.36-.21,2.73-.42,4.1-.6,0,.3,0,.6,0,.9-1.29.17-2.57.39-3.85.57-.25.08-.42-.2-.57-.43C20.75,43.7,20.79,43.4,21,43.41Z" fill="#05164c"/><path d="M25.4,44.09c.8-.15,1.61-.25,2.41-.37l-.48.94c-.61.09-1.21.17-1.82.21A1.1,1.1,0,0,1,25.4,44.09Z" fill="#05164c"/><path d="M20.87,44.63c1.4-.14,2.79-.4,4.18-.59l-.12.87A15,15,0,0,1,20.87,44.63Z" fill="#05164c"/></g></g></svg>