<svg xmlns="http://www.w3.org/2000/svg" viewBox="0 0 48 48"><g id="Layer_2" data-name="Layer 2"><g id="Layer_1-2" data-name="Layer 1"><rect width="24" height="24" rx="24" fill="none"/><path d="M41.75,9.28H40.52v0h0a2.16,2.16,0,0,0-1.75.72c-.75.82-1.51,1.62-2.27,2.42a.91.91,0,0,0-.19.74.23.23,0,0,0,.39.13,1.08,1.08,0,0,0,.28-.39c.1-.25.17-.29.43-.25a.73.73,0,0,1,.29.11.74.74,0,0,0,.8,0c.85-.7,1.7-1.42,2.49-2.2a12,12,0,0,0,.91-1V9.51C41.87,9.42,42,9.24,41.75,9.28Z" fill="#0d2355"/><path d="M25.36,37.31c.31-.34.6-.66.88-1a11.45,11.45,0,0,0,2.05-3.57,6.17,6.17,0,0,0-1.24-6.27,9.55,9.55,0,0,0-3.79-2.62,15.47,15.47,0,0,0-3.43-.9,27,27,0,0,0-4.41-.22c-.56,0-1.12.05-1.67.08a.3.3,0,0,1-.23-.07,6.14,6.14,0,0,1-.51-.51c-.28-.3-.55-.6-.82-.92A2.64,2.64,0,0,1,13,21a8.9,8.9,0,0,1,2.36-.19,19.86,19.86,0,0,1,5.14.83,2.67,2.67,0,0,1,1,.5v-.61c0-.09-.06-.1-.11-.12a11,11,0,0,0-2.75-1.09A13.61,13.61,0,0,0,14.32,20a11.25,11.25,0,0,0-2.43.42s-.09,0-.12,0-.26,0-.37-.1a9.19,9.19,0,0,1-.87-1.44c0-.09,0-.09.07-.11a3.56,3.56,0,0,1,1-.24,13.73,13.73,0,0,1,3.45.05,29.18,29.18,0,0,1,4.44.83,10.82,10.82,0,0,1,1.58.52,1.66,1.66,0,0,1,.51.32c0-.28,0-.52,0-.77,0-.08-.06-.08-.11-.1a25.52,25.52,0,0,0-2.82-1,22.87,22.87,0,0,0-3.85-.79,16.83,16.83,0,0,0-4.37.05,1.45,1.45,0,0,0-.3,0c-.15,0-.23,0-.32-.12a4.38,4.38,0,0,1-.45-.89c-.07-.18-.13-.36-.21-.53s0-.12.07-.14a12.26,12.26,0,0,1,1.48-.21,18.15,18.15,0,0,1,6.82.93,27.09,27.09,0,0,1,3.91,1.58l.12.06h.06c0-.2,0-.41,0-.62s-.07-.09-.11-.12a24.49,24.49,0,0,0-2.43-1.15A23,23,0,0,0,13.91,15a16.06,16.06,0,0,0-3.73-.15,11.58,11.58,0,0,0-1.42.21A.12.12,0,0,1,8.6,15a13.12,13.12,0,0,1-.7-1.52c0-.1,0-.09.09-.1a17.75,17.75,0,0,1,2.63-.26,20.45,20.45,0,0,1,10.57,2.57,23.47,23.47,0,0,1,3,1.88.19.19,0,0,1,.1.2,10.2,10.2,0,0,0,1.17,5.42,7.72,7.72,0,0,0,2.86,3.11,5.56,5.56,0,0,0,5.31.28,9,9,0,0,0,2.67-1.86c.1-.1.13-.1.21,0A5.59,5.59,0,0,1,36.65,30a9.58,9.58,0,0,1-2.15,3,16.29,16.29,0,0,1-7,4,10.74,10.74,0,0,1-2,.33Z" fill="#0d2355"/><path d="M34.74,15.32a4.16,4.16,0,0,0-.78,2,4.9,4.9,0,0,0,.24,2.12,3.54,3.54,0,0,0,.68,1.07A12.12,12.12,0,0,0,36.52,22a9.48,9.48,0,0,1,.89.79,3.85,3.85,0,0,1,1.07,2.34,16,16,0,0,1,.1,2.4,10.05,10.05,0,0,1-2.3,6A13.81,13.81,0,0,1,31.89,37a22.82,22.82,0,0,1-6,2.1l-1.14.22a3.49,3.49,0,0,1-.56,0l-5.74,0a.11.11,0,0,1-.07,0l.42-.15a14.82,14.82,0,0,0,6.07-4,8.34,8.34,0,0,0,1.95-3.43A6.33,6.33,0,0,0,26.24,27a9.61,9.61,0,0,0-.74-1.14.64.64,0,0,1,.22.13,5.18,5.18,0,0,1,2,2.9,5.93,5.93,0,0,1,0,2.84A10.93,10.93,0,0,1,26,35.42a14.89,14.89,0,0,1-2.82,3.16s-.07.05-.08.11c.54,0,1.08-.09,1.61-.17a21.48,21.48,0,0,0,4.8-1.32A17.55,17.55,0,0,0,34,34.63a10.48,10.48,0,0,0,3.07-3.79,7.8,7.8,0,0,0,.67-4.18A10.15,10.15,0,0,0,37,23.84a.15.15,0,0,0-.15-.11.65.65,0,0,0-.55.2,7.27,7.27,0,0,1-3.21,1.83,6.72,6.72,0,0,1-3.87-.17.16.16,0,0,1-.13-.13A15.75,15.75,0,0,1,28.66,23a16.76,16.76,0,0,1-.06-2.65A12,12,0,0,1,30,15a6.53,6.53,0,0,1,3.66-3.07,8,8,0,0,1,2.65-.4s.12,0,.14.05a.17.17,0,0,1-.07.22,1.85,1.85,0,0,0-.56.52,1.75,1.75,0,0,0,0,2,1,1,0,0,0,1.29.34.75.75,0,0,1,.53-.05c.19.05.23.12.22.31a4.63,4.63,0,0,0,0,1.34,1.18,1.18,0,0,0,.76.91,2.91,2.91,0,0,0,.86.2.2.2,0,0,1,.14.06.43.43,0,0,0,.49.11c.2-.08.4,0,.59,0a.05.05,0,0,1,0,0,.43.43,0,0,1,0,.63,1.47,1.47,0,0,1-.62.17,6.64,6.64,0,0,0-.88.12.44.44,0,0,0-.23.09l.19.08a1.08,1.08,0,0,1,.7,1c0,.24,0,.47,0,.71a.24.24,0,0,1-.21.24.29.29,0,0,1-.23-.24l-.06-.94a.21.21,0,0,0-.1-.19,4,4,0,0,0-1.94-.66l-.51,0,.32.28,1.22,1.08a.85.85,0,0,1,.32.82c-.3-.1-.6-.21-.91-.28a4.09,4.09,0,0,0-.93-.13.19.19,0,0,1-.21-.17,20.09,20.09,0,0,0-1.82-4.63Z" fill="#0d2355"/><path d="M27.41,24.52c-.06,0-.08,0-.11-.07a8,8,0,0,1-2.38-4.39,9.91,9.91,0,0,1-.14-2.72.31.31,0,0,0-.12-.29,20.47,20.47,0,0,0-8.16-4.31A25.31,25.31,0,0,0,9,12c-.58,0-1.16.05-1.73.11A.13.13,0,0,1,7.12,12a14.49,14.49,0,0,1-.78-2.3c0-.12,0-.13.11-.13,1.34,0,2.67.13,4,.29a39.41,39.41,0,0,1,7.66,1.69,25.9,25.9,0,0,1,5.28,2.32,9.56,9.56,0,0,1,2.17,1.68,3.18,3.18,0,0,1,.46.63.34.34,0,0,1,0,.22,12.49,12.49,0,0,0,0,4.27,11,11,0,0,0,1.28,3.61A.61.61,0,0,1,27.41,24.52Z" fill="#0d2355"/><path d="M39,14.64a2.14,2.14,0,0,0-.62,0c-.09,0-.14,0-.13-.1A.76.76,0,0,0,38,14c-.08-.08-.06-.11,0-.16l1.25-1a.53.53,0,0,1,.64,0,4.06,4.06,0,0,1,1.4,3.07,1.93,1.93,0,0,1-.21.91.83.83,0,0,1-1,.46c-.1,0-.16-.08-.16-.19S39.94,17,40,17a.93.93,0,0,0,.61-1,1.46,1.46,0,0,0-.29-.78,1.22,1.22,0,0,0-1-.5Z" fill="#0d2355"/><path d="M34.71,16.25q.85,2.2,1.69,4.41l0,.09c0,.25-.06.33-.3.28a1.09,1.09,0,0,1-.6-.38,4.17,4.17,0,0,1-.88-4.3A.14.14,0,0,1,34.71,16.25Z" fill="#0d2355"/><path d="M40.19,19.25c0-.15,0-.3,0-.44s0-.12.1-.13a1.53,1.53,0,0,0,.61-.24s.07,0,.1,0a.35.35,0,0,1,0,.47,1.85,1.85,0,0,0-.5.81.17.17,0,0,1-.21.12c-.1,0-.11-.09-.11-.17S40.19,19.39,40.19,19.25Z" fill="#0d2355"/><path d="M34.21,11.05a.9.9,0,0,1-.06.37s0,.08-.07.08a.09.09,0,0,1-.08-.07,1,1,0,0,1,0-.72s0-.08.08-.08.07,0,.09.08A1,1,0,0,1,34.21,11.05Z" fill="#0d2355"/><path d="M28,23.93a.92.92,0,0,1-.43-.09.09.09,0,0,1-.07-.08c0-.05,0-.06.08-.07a1,1,0,0,1,.72,0s.07,0,.06.08,0,.06-.07.07A.7.7,0,0,1,28,23.93Z" fill="#0d2355"/><path d="M29.13,15.72a1,1,0,0,1-.6-.41c-.05-.07,0-.13.07-.12a1,1,0,0,1,.63.42C29.28,15.68,29.25,15.72,29.13,15.72Z" fill="#0d2355"/><path d="M35.92,10.74a1,1,0,0,1-.06.36s0,.08-.08.08a.1.1,0,0,1-.07-.07,1.11,1.11,0,0,1,0-.74s0-.07.09-.07a.11.11,0,0,1,.07.08A.91.91,0,0,1,35.92,10.74Z" fill="#0d2355"/><path d="M27.92,24.55a1.06,1.06,0,0,1,.43.08s.07,0,.07.09,0,.06-.08.07a1,1,0,0,1-.73-.06.07.07,0,0,1-.06-.07.1.1,0,0,1,.07-.07A.63.63,0,0,1,27.92,24.55Z" fill="#0d2355"/><path d="M27.81,24.14a1,1,0,0,1,.41.08c.05,0,.09,0,.09.09s0,.07-.09.08a1.06,1.06,0,0,1-.7-.06.08.08,0,0,1-.07-.08c0-.05.05-.06.08-.07A.68.68,0,0,1,27.81,24.14Z" fill="#0d2355"/><path d="M28,22.37a1.25,1.25,0,0,1-.42-.08s-.08,0-.08-.09.05-.07.09-.08a1.08,1.08,0,0,1,.69.05s.09,0,.08.09,0,.06-.09.07A.84.84,0,0,1,28,22.37Z" fill="#0d2355"/><path d="M31.54,12.82c0,.06,0,.1,0,.12s-.07,0-.1,0a1.13,1.13,0,0,1-.36-.62s0-.08,0-.11.08,0,.11,0A1.17,1.17,0,0,1,31.54,12.82Z" fill="#0d2355"/><path d="M40.92,12.36a1.11,1.11,0,0,1-.36.61s-.06,0-.1,0a.08.08,0,0,1,0-.1,1,1,0,0,1,.37-.64s.06,0,.09,0S40.92,12.3,40.92,12.36Z" fill="#0d2355"/><path d="M41.26,12.8a1.14,1.14,0,0,1-.38.62.07.07,0,0,1-.09,0,.1.1,0,0,1,0-.1,1.12,1.12,0,0,1,.36-.63s.07-.06.11,0S41.26,12.74,41.26,12.8Z" fill="#0d2355"/><path d="M34.74,11a.91.91,0,0,1-.06.36.11.11,0,0,1-.07.08s-.07,0-.08-.08a1.18,1.18,0,0,1,0-.72s0-.08.08-.08.07.05.09.09A1,1,0,0,1,34.74,11Z" fill="#0d2355"/><path d="M37.49,10.52a.88.88,0,0,1-.06.36s0,.08-.08.07a.07.07,0,0,1-.07-.06,1,1,0,0,1,0-.74s0-.07.07-.07.07,0,.08.08A.91.91,0,0,1,37.49,10.52Z" fill="#0d2355"/><path d="M33.46,11.24a.88.88,0,0,1,.06-.36s0-.08.08-.08a.09.09,0,0,1,.08.07,1.14,1.14,0,0,1,0,.73.09.09,0,0,1-.08.07c-.05,0-.07,0-.08-.08A1.07,1.07,0,0,1,33.46,11.24Z" fill="#0d2355"/><path d="M29.51,15.16c0,.06,0,.06-.08.06a1,1,0,0,1-.61-.51c0-.07,0-.1.08-.09a1,1,0,0,1,.6.51Z" fill="#0d2355"/><path d="M28.22,16.42a1.17,1.17,0,0,1,.58.21.11.11,0,0,1,.07.11c0,.06-.08.06-.13.06a1.15,1.15,0,0,1-.59-.19s-.13-.07-.1-.14S28.15,16.42,28.22,16.42Z" fill="#0d2355"/><path d="M29.75,14.8c0,.09-.05.11-.12.07a1,1,0,0,1-.45-.6c0-.08,0-.12.09-.1A1.16,1.16,0,0,1,29.75,14.8Z" fill="#0d2355"/><path d="M28.41,17.78a1.11,1.11,0,0,1-.56-.17s-.08-.05-.07-.1.06-.06.11-.06a1.08,1.08,0,0,1,.66.16s.08.06.07.11-.07.06-.12.06Z" fill="#0d2355"/><path d="M28.39,15.84A1.14,1.14,0,0,1,29,16c.05,0,.11.07.09.14s-.09,0-.15,0a1.14,1.14,0,0,1-.56-.19s-.13-.06-.11-.14S28.33,15.85,28.39,15.84Z" fill="#0d2355"/><path d="M27.78,23.14a1,1,0,0,1,.45.08s.09,0,.08.09a.11.11,0,0,1-.08.07,1.08,1.08,0,0,1-.71-.05.1.1,0,0,1-.07-.08c0-.06.05-.07.09-.08A.54.54,0,0,1,27.78,23.14Z" fill="#0d2355"/><path d="M28.09,16.89a1.1,1.1,0,0,1,.59.22s.08.05.06.1-.07.06-.12.06a1.07,1.07,0,0,1-.6-.19c-.05,0-.12-.06-.09-.13S28,16.9,28.09,16.89Z" fill="#0d2355"/><path d="M40.55,12a1.06,1.06,0,0,1-.37.63.07.07,0,0,1-.09,0s0-.06,0-.1a1.1,1.1,0,0,1,.35-.62.09.09,0,0,1,.11,0S40.55,11.93,40.55,12Z" fill="#0d2355"/><path d="M36.75,10.58a.72.72,0,0,1,.06-.36s0-.07.06-.07.07,0,.09.07A1.14,1.14,0,0,1,37,11s0,.07-.07.07-.07,0-.08-.07A.78.78,0,0,1,36.75,10.58Z" fill="#0d2355"/><path d="M30.09,14.32c0,.06-.05.09-.11,0a1.08,1.08,0,0,1-.46-.61c0-.07,0-.11.1-.09A1.09,1.09,0,0,1,30.09,14.32Z" fill="#0d2355"/><path d="M41.5,13.28a1.13,1.13,0,0,1-.38.63c-.07.06-.13,0-.12-.07a1,1,0,0,1,.38-.66C41.45,13.13,41.49,13.17,41.5,13.28Z" fill="#0d2355"/><path d="M28.1,19.25a1.13,1.13,0,0,1-.47-.08s-.08,0-.08-.08,0-.07.08-.08a1.08,1.08,0,0,1,.73,0s.06,0,.06.08,0,.06-.08.07A.45.45,0,0,1,28.1,19.25Z" fill="#0d2355"/><path d="M31.92,12.51c0,.07,0,.12-.05.14s-.08,0-.11-.05A1.18,1.18,0,0,1,31.5,12s0-.1.05-.13.08,0,.11.06A1.19,1.19,0,0,1,31.92,12.51Z" fill="#0d2355"/><path d="M32.75,11.88c0,.09,0,.24-.1.26s-.13-.14-.16-.23a1.18,1.18,0,0,1,0-.53s0-.09.07-.1.08,0,.1.08A1.52,1.52,0,0,1,32.75,11.88Z" fill="#0d2355"/><path d="M31.14,13.19c0,.06,0,.09,0,.11a.09.09,0,0,1-.1,0,1.1,1.1,0,0,1-.37-.65s0-.07,0-.09a.08.08,0,0,1,.1,0A1.12,1.12,0,0,1,31.14,13.19Z" fill="#0d2355"/><path d="M28.26,18.29a1.17,1.17,0,0,1-.52-.12s-.1,0-.09-.1.07-.07.11-.07a1.2,1.2,0,0,1,.67.1s.08,0,.08.1-.07.07-.12.08Z" fill="#0d2355"/><path d="M30.78,13.52c0,.06,0,.09,0,.12a.08.08,0,0,1-.09,0,1.11,1.11,0,0,1-.38-.65.09.09,0,0,1,0-.09s.06,0,.09,0A1.06,1.06,0,0,1,30.78,13.52Z" fill="#0d2355"/><path d="M36.39,10.65a1,1,0,0,1,0,.34s0,.09-.09.09-.06-.05-.07-.08a1.15,1.15,0,0,1,0-.71s0-.09.09-.09.07.06.08.1A1,1,0,0,1,36.39,10.65Z" fill="#0d2355"/><path d="M35.35,10.85a1.19,1.19,0,0,1-.06.37s0,.07-.09.07-.05,0-.06-.07a1,1,0,0,1,0-.73s0-.07.06-.07.07,0,.09.07A1,1,0,0,1,35.35,10.85Z" fill="#0d2355"/><path d="M30.47,13.91c0,.06,0,.1,0,.12s-.07,0-.1,0a1.1,1.1,0,0,1-.37-.65.09.09,0,0,1,0-.09s.06,0,.09,0A1.12,1.12,0,0,1,30.47,13.91Z" fill="#0d2355"/><path d="M32.32,12.22s0,.12,0,.15-.1,0-.13-.08a1.31,1.31,0,0,1-.24-.6s0-.11.05-.13.09,0,.12.06A1.23,1.23,0,0,1,32.32,12.22Z" fill="#0d2355"/><path d="M33,11.45a1.12,1.12,0,0,1,.05-.36s0-.07.08-.08a.08.08,0,0,1,.08.07,1.14,1.14,0,0,1,0,.73.08.08,0,0,1-.07.07s-.07,0-.08-.07A.88.88,0,0,1,33,11.45Z" fill="#0d2355"/><path d="M41.68,13.8a1.15,1.15,0,0,1-.38.64c-.08.05-.13,0-.12-.08a1.06,1.06,0,0,1,.36-.64.1.1,0,0,1,.1,0S41.67,13.75,41.68,13.8Z" fill="#0d2355"/><path d="M28,19.76a1,1,0,0,1-.42-.09s-.08,0-.07-.09,0,0,.07-.06a1,1,0,0,1,.73.05s.07,0,.06.08,0,.06-.07.07A1,1,0,0,1,28,19.76Z" fill="#0d2355"/><path d="M28,20.34a1.05,1.05,0,0,1-.43-.07s-.08,0-.08-.1,0-.06.08-.07a1.11,1.11,0,0,1,.72,0s.06,0,.06.08,0,.06-.07.08A.89.89,0,0,1,28,20.34Z" fill="#0d2355"/><path d="M28.09,18.72a.94.94,0,0,1-.44-.09s-.07,0-.06-.08a.1.1,0,0,1,.07-.07,1.11,1.11,0,0,1,.72.05.08.08,0,0,1,.07.08c0,.05,0,.07-.08.08A.67.67,0,0,1,28.09,18.72Z" fill="#0d2355"/><path d="M27.94,20.93a1.05,1.05,0,0,1-.4-.07s-.09,0-.09-.09.05-.07.09-.08a1.08,1.08,0,0,1,.69,0s.09,0,.08.1,0,.06-.1.07A.83.83,0,0,1,27.94,20.93Z" fill="#0d2355"/><path d="M27.94,21.4a1,1,0,0,1-.41-.08s-.09,0-.08-.09.05-.06.09-.07a1.09,1.09,0,0,1,.69,0s.08,0,.08.09,0,.07-.09.08A.86.86,0,0,1,27.94,21.4Z" fill="#0d2355"/><path d="M28,21.87a1.06,1.06,0,0,1-.43-.08s-.07,0-.07-.08,0-.07.08-.08a1.11,1.11,0,0,1,.72.05s.07,0,.06.09,0,.05-.07.07A1,1,0,0,1,28,21.87Z" fill="#0d2355"/><path d="M28,22.9a1,1,0,0,1-.43-.08s-.08,0-.08-.09.05-.06.08-.07a1.15,1.15,0,0,1,.71,0s.07,0,.07.09,0,.07-.09.08A.8.8,0,0,1,28,22.9Z" fill="#0d2355"/><path d="M37,14.21c0,.09-.07.15-.18.15a.27.27,0,0,1-.27-.25.15.15,0,0,1,.17-.16A.28.28,0,0,1,37,14.21Z" fill="#0d2355"/><path d="M37,13.38c0-.09.05-.17.16-.16a.14.14,0,0,1,.15.16.15.15,0,0,1-.16.17C37.09,13.55,37.05,13.48,37,13.38Z" fill="#0d2355"/><path d="M40.07,15.18a1.19,1.19,0,0,0-.74-.31,1.33,1.33,0,0,0-.53.09,1,1,0,0,0-.67.77.93.93,0,0,0,.39.92,1.24,1.24,0,0,0,1.4.05A.94.94,0,0,0,40.07,15.18Zm-.39,1.23a.71.71,0,0,1-1-.58.5.5,0,0,1,.25-.44.74.74,0,0,1,1,.31A.54.54,0,0,1,39.68,16.41Z" fill="#0d2355"/><path d="M39.31,15.67c.19,0,.38.15.37.3a.25.25,0,0,1-.27.22c-.18,0-.36-.15-.36-.3A.24.24,0,0,1,39.31,15.67Z" fill="#0d2355"/></g></g></svg>