<svg xmlns="http://www.w3.org/2000/svg" viewBox="0 0 48 48"><g id="Layer_2" data-name="Layer 2"><g id="Layer_1-2" data-name="Layer 1"><rect width="24" height="24" rx="24" fill="none"/><path d="M41.83,37.16c-4,.62-8.34,1.38-12.43.66-5.65-.8-11.12-4.5-12.83-10.11a15,15,0,0,1-.74-4.14c.08-1.95.78-3.93.46-5.86-1.14-2.51-5.33-.07-6.22-2.81-.27-1.12,1.11-1.92.67-3.07-.15-.79-1-1.23-.94-2.08-.2-1.79-1.7-1.07-1.53.4a.22.22,0,0,1-.12.25c-2.18,1.14-.28,2.44-.82,4.06-.88,3.75-2,5.66-.64,9.64a18.43,18.43,0,0,0,2.94,5.6,20.68,20.68,0,0,0,1.65,2,5.47,5.47,0,0,0-.48-1.33c-.42-1.37-1.46-2.65-1.41-4.11.24-.86,1.06,0,1.16.5a25.23,25.23,0,0,0,5.68,8.62c.34.34,3,2.89,3.09,2.17-.93-1.11-1.94-2.16-2.87-3.28a16.91,16.91,0,0,1-2.83-4.53c-.2-.36-.2-1.12.39-1,.88.22,1,1.28,1.46,1.92C18.39,35.2,23.62,37.94,28.8,39A21,21,0,0,0,41.83,37.16Z" fill="#018dd0"/></g></g></svg>