<svg xmlns="http://www.w3.org/2000/svg" viewBox="0 0 48 48"><g id="Layer_2" data-name="Layer 2"><g id="Layer_1-2" data-name="Layer 1"><rect width="24" height="24" rx="24" fill="none"/><path d="M36.06,14.28c2.5-.27,5-.47,7.5-.71a10.46,10.46,0,0,1-4.62,6.23,9.64,9.64,0,0,1-2.89,1.05,54.52,54.52,0,0,0-9.19,2.33,13.41,13.41,0,0,0-4.74,2.92c-2.4,2.59-4.57,5.39-6.78,8.14a6.74,6.74,0,0,1-4.43,2.57,6.36,6.36,0,0,1-5-1.2,5.62,5.62,0,0,1-1.43-4.68,10.92,10.92,0,0,1,6-8.68,29.37,29.37,0,0,1,.86-3.35c.53-.91,1.7-.65,2.57-.66s1.65-.16,2.15.51c.63.83.24,1.93.11,2.86a3.46,3.46,0,0,1-2.24,2.61,18.52,18.52,0,0,0-6.5,3.49A5.37,5.37,0,0,0,5.6,31.65a3.73,3.73,0,0,0,1.14,2.9,4.66,4.66,0,0,0,4,.93,8.09,8.09,0,0,0,5-3.37l8-11.16a14.49,14.49,0,0,1,3.23-3.31A19.34,19.34,0,0,1,36.06,14.28Z" fill="#004846"/><path d="M27.67,23.64a70.79,70.79,0,0,1,8.27-1.91A6.63,6.63,0,0,1,34,25.48a9.78,9.78,0,0,1-5.8,2.27c-2.77.38-5.77.95-7.87,3-1.39,1.46-2.65,3-4,4.53a5.44,5.44,0,0,1-2.62,1.47,20.07,20.07,0,0,0,2.08-1.82c.92-1,1.61-2.26,2.46-3.36a37.81,37.81,0,0,1,4.95-5.25A13.47,13.47,0,0,1,27.67,23.64Z" fill="#004846"/><path d="M21.6,31.18a6.09,6.09,0,0,1,5.16-.08,4.57,4.57,0,0,1,1.81,1.81,5.09,5.09,0,0,0-2.65-.45c-.74.24-1.11,1-1.47,1.61A7,7,0,0,1,22,36.87a2.75,2.75,0,0,1-3.32-.4,2.32,2.32,0,0,1-.21-2.57A6.17,6.17,0,0,1,21.6,31.18Z" fill="#004846"/></g></g></svg>