<svg xmlns="http://www.w3.org/2000/svg" viewBox="0 0 48 48"><g id="Layer_2" data-name="Layer 2"><g id="Layer_1-2" data-name="Layer 1"><rect width="24" height="24" rx="24" fill="none"/><path d="M25.46,4.81c0,.07.09,0,.14,0A18.1,18.1,0,0,1,34,7.63a19.47,19.47,0,0,1,6.69,7.07,18.95,18.95,0,0,1,2.19,12.57,19.14,19.14,0,0,1-2.48,6.6,19.49,19.49,0,0,1-5,5.56,17.11,17.11,0,0,1-7.12,3.24.45.45,0,0,1-.41-.11c-1-.89-1.92-1.85-2.85-2.82-1.17-1.2-2.34-2.39-3.56-3.54a10.09,10.09,0,0,1-1.25-1.44,5.11,5.11,0,0,1-1.07-3.33,5.44,5.44,0,0,1,.8-2.35,19.08,19.08,0,0,1,2.75-3.57c.3-.31.61-.61.91-.93,1.31-1.4,2.75-2.66,4.13-4,2.1-2,4.19-4.06,6.18-6.19A17.6,17.6,0,0,0,35.11,13a1.88,1.88,0,0,0,.17-2,4.55,4.55,0,0,0-1.4-1.65,12,12,0,0,0-3.59-1.89A17.89,17.89,0,0,0,27,6.62a20.27,20.27,0,0,0-4.26-.18,17.9,17.9,0,0,0-5,1A17.24,17.24,0,0,0,12.4,10.7a16.71,16.71,0,0,0-3,3.3c-.27.4-.51.82-.74,1.24A21.87,21.87,0,0,0,6.9,19.55a15.07,15.07,0,0,0-.57,5.26c0,.25.06.49.09.74l.06.69a8.23,8.23,0,0,0,.24,1.5A18.54,18.54,0,0,0,8.23,32a15.14,15.14,0,0,0,1.31,2.14,20.49,20.49,0,0,0,4.72,4.62,16.25,16.25,0,0,0,4.27,2.08,20.5,20.5,0,0,0,3.62.86,1.27,1.27,0,0,1,.73.34c.41.39.86.73,1.27,1.12h-.53c-.05,0-.11,0-.17,0a24.49,24.49,0,0,1-3.07-.37A18.37,18.37,0,0,1,16,41.46a18.88,18.88,0,0,1-4.2-2.69,18.51,18.51,0,0,1-4.1-4.59c-.27-.44-.55-.88-.79-1.33a18.33,18.33,0,0,1-2-7,19.69,19.69,0,0,1,.34-5.73,19.29,19.29,0,0,1,2-5.5,18.66,18.66,0,0,1,9.41-8.33,20.94,20.94,0,0,1,3.8-1.11,19.71,19.71,0,0,1,2.43-.33s.13,0,.16,0ZM39,14.91a1.19,1.19,0,0,0,0,.19,7.39,7.39,0,0,1-.38,2.8,12.26,12.26,0,0,1-1.68,3.23,26.1,26.1,0,0,1-3.17,3.63c-2,2-4.08,3.88-6.12,5.81a20,20,0,0,0-2.47,2.73c-.19.27-.37.54-.55.82a4.59,4.59,0,0,0-.38.88A3.28,3.28,0,0,0,24,36.86a3.44,3.44,0,0,0,.82,1.45c.77.87,1.63,1.64,2.45,2.45a1.33,1.33,0,0,0,.89.39,2.57,2.57,0,0,0,1-.16,20.2,20.2,0,0,0,3.94-1.84A17.86,17.86,0,0,0,38.58,34a17.34,17.34,0,0,0,2.89-7.33c.09-.61.14-1.22.21-1.82,0-.3,0-.6,0-.9a11.83,11.83,0,0,0,0-1.19,22.87,22.87,0,0,0-.55-3.19,15.75,15.75,0,0,0-1.19-3.42A3.44,3.44,0,0,0,39,14.91Z" fill="#242a7a"/><path d="M6.48,26.24l-.06-.69c1,.4,1.95.83,2.9,1.3a18,18,0,0,1,3.24,2,29.52,29.52,0,0,1,3.13,2.89c2.37,2.44,4.81,4.81,7.2,7.22,1.1,1.12,2.21,2.23,3.26,3.41.16.17.3.35.44.53s.06.15-.08.15l-.84,0A.21.21,0,0,1,25.5,43c-1.43-1.6-2.94-3.12-4.46-4.62-1.26-1.23-2.53-2.45-3.89-3.57a15,15,0,0,0-2.07-1.35c-1.23-.71-2.53-1.31-3.78-2a11,11,0,0,1-3-2.28,6.55,6.55,0,0,1-1.16-1.82A7.16,7.16,0,0,0,6.48,26.24Z" fill="#a42833"/></g></g></svg>