<svg xmlns="http://www.w3.org/2000/svg" viewBox="0 0 48 48"><g id="Layer_2" data-name="Layer 2"><g id="Layer_1-2" data-name="Layer 1"><rect width="24" height="24" rx="24" fill="none"/><path d="M20.11,28.9l-8.44,7.74a3.43,3.43,0,0,1-1.75.85l-1.28.21h1.74a7.29,7.29,0,0,0,3.42-.86L22.93,32a6.62,6.62,0,0,1,3.18-.78,12,12,0,0,1,3.12.64,6.84,6.84,0,0,0,2.29.25,7.11,7.11,0,0,0,4.2-1.66l.9-.76s0-.05,0,0a12.54,12.54,0,0,1-4.21,1.45Z" fill="#012e70"/><path d="M44.12,31.18l-12.91-.57A10.7,10.7,0,0,1,23,26l-9.3-13.62a3.85,3.85,0,0,0-1.26-1.18A29.15,29.15,0,0,0,6.8,8.62h0a6.59,6.59,0,0,1,3.32,2.77l6.75,13.76a11.56,11.56,0,0,0,10.26,6l14.67.16a6.92,6.92,0,0,0,.91,0Z" fill="#ed1d24"/><path d="M12.28,11.38a2.7,2.7,0,0,1,1.16.69,4.1,4.1,0,0,0-1-.89A29.15,29.15,0,0,0,6.8,8.62a7.28,7.28,0,0,1,3,2.17Z" fill="#012e70"/></g></g></svg>