<svg xmlns="http://www.w3.org/2000/svg" viewBox="0 0 48 48"><g id="Layer_2" data-name="Layer 2"><g id="Layer_1-2" data-name="Layer 1"><rect width="24" height="24" rx="24" fill="none"/><path d="M4.52,12.68C11.15,15.42,5.66,30,28,29.08c0,0,10.91-.2,15.33,7.88,0,0-2.35-8.36-17.54-10.43-2.65-.36-5.94-1.71-5.71-4.93.16-2.19,2.3-3,4.19-3.14a11.69,11.69,0,0,1,6,1.32,19.33,19.33,0,0,1,7.23,6.65s-5.41-10.58-16.2-11.77a13.67,13.67,0,0,0-3.67.11c-1.44.23-4,.37-5.3-1.23a4.13,4.13,0,0,0-.64-.68A4.49,4.49,0,0,0,6,12.27,2.64,2.64,0,0,0,4.52,12.68Z" fill="#023c86"/><path d="M14.49,26.55c8,5.13,17.2,2.21,22,9.93a12,12,0,0,0,1.29-1C31.83,27.36,20.57,30.68,14.49,26.55Z" fill="#c81924"/><path d="M14.49,26.55c9.08,5.48,19.34,0,25.73,11l1.66-.85C33.72,25.14,22.27,31.68,14.49,26.55Z" fill="#019702"/><path d="M39.37,23.56a15.74,15.74,0,0,1-1.71,7.15,3.5,3.5,0,0,1,.49.29l.28.2A16.18,16.18,0,0,0,23.94,7.82h-.16A15.74,15.74,0,0,1,39.37,23.56Z" fill="#023c86"/><path d="M34.27,35.21l0,0a15.75,15.75,0,0,1-25.6-16.5A16.18,16.18,0,0,0,34.8,36Z" fill="#023c86"/></g></g></svg>