<svg xmlns="http://www.w3.org/2000/svg" viewBox="0 0 48 48"><g id="Layer_2" data-name="Layer 2"><g id="Layer_1-2" data-name="Layer 1"><rect width="24" height="24" rx="24" fill="none"/><path d="M42.64,10.58C26.21,14.83,26.56,34.28,14.7,34.16c-6.38,0-7.33-6.56-10.25-6.08,4.13-4.5,7.27,5.23,15.25-1.22a8.24,8.24,0,0,1-7.39,2.69c5.23,2.69,9.31-1.36,14-7C30.22,17.79,34.72,12.36,42.64,10.58Z" fill="#0c0d47"/><path d="M35.07,19.59c-8.54,3.16-9.13,16.2-17.53,14.72C24.63,33,27.86,21.34,35.07,19.59Z" fill="#b7883e"/><path d="M32.61,23.94c-4.79,1.56-5.26,9.41-10,10.05C26.24,32.07,26.9,25.27,32.61,23.94Z" fill="#b7883e"/><path d="M30.87,27.57c-1.51.56-2.24,4.61-4.41,4.82C28.21,31.06,28.48,28,30.87,27.57Z" fill="#b7883e"/><path d="M29.7,33c-1,.5-3.29-.79-4.64.63C25.82,33.13,28.75,34.43,29.7,33Z" fill="#b7883e"/></g></g></svg>