<svg xmlns="http://www.w3.org/2000/svg" viewBox="0 0 48 48"><g id="Layer_2" data-name="Layer 2"><g id="Layer_1-2" data-name="Layer 1"><rect width="24" height="24" rx="24" fill="none"/><path d="M31,12.24c-.41.1-.83.19-1.24.31a11.25,11.25,0,0,0-5.94,4.14,45.69,45.69,0,0,0-2.72,4q-.66,1-1.38,2.07a4.11,4.11,0,0,1-1.27,1.15c-.08-.07-.08-.16-.11-.24a.65.65,0,0,0-1-.38,2.62,2.62,0,0,0-.81.78,7.18,7.18,0,0,0-1,2,1.31,1.31,0,0,1-.12.27,8.42,8.42,0,0,1,0-2.07c0-.28.07-.55.12-.83s.3-.56.69-.41c.16.05.18,0,.22-.12a3.45,3.45,0,0,0,.3-.87c0-.12.06-.2.23-.16a1.69,1.69,0,0,0,1.42-.43A9.09,9.09,0,0,0,20,19.88a38.45,38.45,0,0,1,3.86-4.3,12.51,12.51,0,0,1,5.71-3.16A5.53,5.53,0,0,1,31,12.24Z" fill="#fe691f"/><path d="M28.18,12.42c.06-.12.19-.16.28-.22a44.58,44.58,0,0,0,3.9-2.79,10.11,10.11,0,0,0,3-4.09c.1-.27.17-.56.28-.84a14.64,14.64,0,0,1-.24,3.37,3.37,3.37,0,0,1-.95,1.56,7.84,7.84,0,0,1-3.27,2.05c-1,.3-1.91.61-2.84,1A.14.14,0,0,1,28.18,12.42Z" fill="#fe691f"/><path d="M39.22,5.8a1.08,1.08,0,0,1-.11.53,17.58,17.58,0,0,1-.8,2.35c0,.09-.08.17-.11.25a4.1,4.1,0,0,1-3.26,2.55,17.77,17.77,0,0,1-3.1.25l.37-.19a16.77,16.77,0,0,0,6.46-5c.2-.25.37-.51.56-.76Z" fill="#fe691f"/><path d="M26.38,17.88a.84.84,0,0,1,.59,0A8.25,8.25,0,0,1,29.22,19l1.12.76a8.76,8.76,0,0,0,4.5,1.56l.44,0c-1.16,1.15-2,1.38-3.44.82a7.36,7.36,0,0,1-2.35-1.65c-.66-.62-1.28-1.3-2-1.88A5.22,5.22,0,0,0,26.38,17.88Z" fill="#fe691f"/><path d="M37.87,17.37a6.56,6.56,0,0,1-1,1.12,2.08,2.08,0,0,1-2,.32A12.65,12.65,0,0,1,32,17.47a17.31,17.31,0,0,0-3-1.55c-.23-.08-.46-.15-.69-.25a5.22,5.22,0,0,1,1.58.07,13.4,13.4,0,0,1,3.46,1,10.42,10.42,0,0,0,2.56.74,3.76,3.76,0,0,0,1.7-.1.63.63,0,0,1,.33,0Z" fill="#fe691f"/><path d="M17.74,31.05a.24.24,0,0,1,.22,0,36.47,36.47,0,0,0,5.32,2.23c.73.27,1.47.51,2.19.81a11.22,11.22,0,0,1,6.94,8.14,3.65,3.65,0,0,1,.07.46s0,0,0,0a11.33,11.33,0,0,0-1.25-3.12,10.92,10.92,0,0,0-5.88-4.7,31.32,31.32,0,0,1-6.57-3.1c-.29-.18-.57-.4-.85-.61Z" fill="#fe691f"/><path d="M30.48,45a12.93,12.93,0,0,0-.64-2.61,10.71,10.71,0,0,0-5.07-5.75,35,35,0,0,1-5.92-3.94,15.6,15.6,0,0,1-1.16-1.14c.08-.05.14,0,.2,0a34.47,34.47,0,0,0,4.77,3c.74.41,1.48.79,2.2,1.22a11.28,11.28,0,0,1,5.6,8.58c0,.13,0,.26,0,.4S30.48,44.9,30.48,45Z" fill="#fe691f"/><path d="M27.32,16.85a.57.57,0,0,1,.44,0q3.64,1.19,7.29,2.4a1.94,1.94,0,0,0,.63.11h.88a3.19,3.19,0,0,1-1.67,1.22,1.94,1.94,0,0,1-1.38-.09,10.45,10.45,0,0,1-2.09-1.17A18.17,18.17,0,0,0,27.32,16.85Z" fill="#fe691f"/><path d="M16.65,25.82A7.09,7.09,0,0,0,16.23,29a2.69,2.69,0,0,1-.57-1.9A5.57,5.57,0,0,1,17,24.32a1.22,1.22,0,0,1,.63-.41c.21,0,.35,0,.4.25.1.46.12.47.54.31.26-.1.38,0,.5.21.3.71.64,1.39,1,2.09.05.1.14.21.08.36L19,25.59c-.12-.16-.24-.35-.45-.4s-.32-.09-.27.22a8.72,8.72,0,0,0,.43,1.34A3.07,3.07,0,0,1,19,28.08c-.18-.41-.3-.77-.48-1.1a3.44,3.44,0,0,0-.94-1.47c-.13-.09,0-.31-.08-.49-.13.16-.09.34-.12.5-.09.47-.13.94-.22,1.4a3.09,3.09,0,0,0,.1,1.51,12.54,12.54,0,0,1,.34,1.5l-1-1.49a.54.54,0,0,1-.05-.33C16.54,27.35,16.62,26.58,16.65,25.82Z" fill="#fe691f"/><path d="M39.11,15.22l-1.34,1.13a2.53,2.53,0,0,1-2.5.5A12.33,12.33,0,0,1,33.14,16a13.18,13.18,0,0,0-2.63-1.1.49.49,0,0,1-.31-.16,3.37,3.37,0,0,1,1.38,0c1.28.19,2.55.41,3.83.59A7.36,7.36,0,0,0,39,15.21l.09,0Z" fill="#fe691f"/><path d="M31.29,12.66a9.62,9.62,0,0,1,1.63-.33,17.67,17.67,0,0,1,2.72-.18,4.8,4.8,0,0,0,3.06-1.1,14.26,14.26,0,0,0,1.4-1.29c.1-.11.19-.24.29-.36l.08.07c-.07.15-.13.31-.2.46-.23.49-.45,1-.67,1.48a2.67,2.67,0,0,1-2.93,1.8c-.76,0-1.5-.19-2.25-.27Z" fill="#fe691f"/><path d="M25.56,19.18a.28.28,0,0,1,.24,0,15.13,15.13,0,0,1,2.92,1.91A7.63,7.63,0,0,0,32.3,23a7.81,7.81,0,0,0,1.82.15c0,.1-.12.11-.19.14l-1.71.76a.86.86,0,0,1-.57.06,5.73,5.73,0,0,1-2.52-1.35,20.09,20.09,0,0,1-1.82-1.87A15.74,15.74,0,0,0,25.56,19.18Z" fill="#fe691f"/><path d="M31.39,26.44a2.55,2.55,0,0,1-1.48.83A1.56,1.56,0,0,1,28.6,27a11.42,11.42,0,0,1-2.45-2.6,14.66,14.66,0,0,0-2-2.54c-.08-.07-.27-.17-.16-.3s.21.06.31.12a17.1,17.1,0,0,1,2.38,2c.41.4.83.79,1.27,1.16A6.59,6.59,0,0,0,31.39,26.44Z" fill="#fe691f"/><path d="M23.06,22.55a14.81,14.81,0,0,1,3.07,2.95,9.27,9.27,0,0,0,1.55,1.58,6.7,6.7,0,0,0,1,.69,4.22,4.22,0,0,0,1.19.42,2,2,0,0,1-2.11.58,2.27,2.27,0,0,1-.95-.66A11.36,11.36,0,0,1,25.32,26a17.78,17.78,0,0,0-2.2-3.24.78.78,0,0,1-.1-.15Z" fill="#fe691f"/><path d="M16.08,30.47a10.08,10.08,0,0,0-1,1.66c-.07.14-.1.39-.28.35s-.14-.29-.14-.45a9,9,0,0,1,.12-1.93s0-.05,0-.13l-.39,1.45c-.53-.8-.27-1.85-.92-2.56l-.09,0,.28,1.67c-.32-.09-.65-.51-1-1.12s.07-1.36.11-2c.14,0,.11.1.12.15.08.27.21.43.53.4s.65,0,1,0c-.19.26-.33.51-.18.81s.5.11.76.22a4.56,4.56,0,0,0-.13.53c0,.16-.21.28-.09.49l.31-.44c0,.25-.1.49,0,.75a1.38,1.38,0,0,0,.49-.69c0-.12,0-.25.22-.23s.3.05.34.24a3.35,3.35,0,0,1,0,.55h0c-.09,0-.08.12-.07.19h0c-.09,0-.08.06-.07.12Z" fill="#fe691f"/><path d="M30.57,13.78a24,24,0,0,1,5.22,0,6.2,6.2,0,0,0,3.68-.71,1,1,0,0,1,.43-.16c-.43.57-.8,1.14-1.25,1.66a1.37,1.37,0,0,1-1.16.44,12,12,0,0,1-2.68-.35A25.29,25.29,0,0,0,30.57,13.78Z" fill="#fe691f"/><path d="M24.82,20.41c.13-.06.21,0,.29.08a14.88,14.88,0,0,1,2.44,1.91,8.75,8.75,0,0,0,4.37,2.35c.19,0,.49,0,.51.19s-.23.33-.4.45a1.82,1.82,0,0,1-2.23.06,10.9,10.9,0,0,1-2.23-2.06A26.68,26.68,0,0,0,24.82,20.41Z" fill="#fe691f"/><path d="M16.42,21.51c-.27-.24-.35-.09-.4.17s-.21.81-.34,1.3l-.2-.89-.54,1.42c-.41-.72-.8-1.39-1.14-2.09a.22.22,0,0,1,0-.17,2.73,2.73,0,0,0,.07-1.14l.91,1.66c.1-.37.19-.68.27-1,0-.06,0-.14.09-.15s.11.07.14.13.05.2.14.26c.22-.46.12-.71-.49-1.2l-.27.59a.38.38,0,0,1-.08-.26.61.61,0,0,0-.49-.62.74.74,0,0,0-.85.39,2.78,2.78,0,0,1-.55.88.58.58,0,0,1-.13.1,6,6,0,0,1,.19-1A1.53,1.53,0,0,1,13.88,19a1.67,1.67,0,0,1,1.93.79A5.47,5.47,0,0,1,16.42,21.51Z" fill="#fe691f"/><path d="M28.43,29.62a3,3,0,0,1-.87.47,1.45,1.45,0,0,1-1.64-.46,10.54,10.54,0,0,1-1.93-3,11.35,11.35,0,0,0-2.06-3.25,1.26,1.26,0,0,1-.13-.17c.12,0,.17.08.23.12a14.3,14.3,0,0,1,2.43,2.72c.43.59.85,1.18,1.33,1.73a6.38,6.38,0,0,0,2.41,1.7Z" fill="#fe691f"/><path d="M20,11.88a3.35,3.35,0,0,1,1.2-.29c1.16-.15,2.33-.11,3.5-.25a9.29,9.29,0,0,0,3.53-1c.23-.13.3-.09.33.17.14,1.12-.23,1.58-1.36,1.65a22.43,22.43,0,0,1-3.38-.13c-1.2-.12-2.4-.14-3.6-.18Z" fill="#fe691f"/><path d="M28,7.91c.05.34.13.68.16,1a1,1,0,0,1-.69,1.12,5.12,5.12,0,0,1-1.55.34c-1.88.15-3.77.23-5.66.26l-.15,0c1.1-.25,2.13-.52,3.18-.65a12.13,12.13,0,0,0,2.58-.56,4.13,4.13,0,0,0,2-1.43S27.88,7.91,28,7.91Z" fill="#fe691f"/><path d="M24.46,30.3a2.11,2.11,0,0,1-1.12-1,6.36,6.36,0,0,1-.58-1.24,16.63,16.63,0,0,0-1.62-3.63c.77.73,4.78,5.73,4.89,5.86A3.21,3.21,0,0,1,24.46,30.3Z" fill="#fe691f"/><path d="M19.84,8.58a19.15,19.15,0,0,0-1.66,1.59,5.71,5.71,0,0,0-1.32,5.12.38.38,0,0,1-.25.51c-.23.09-.45.2-.67.3s-.17,0-.15-.09c.09-1,0-2,.12-3a5,5,0,0,1,1.67-3A10.25,10.25,0,0,1,19.8,8.54S19.83,8.57,19.84,8.58Z" fill="#fe691f"/><path d="M12.69,25.34c.26,1.06-.22,2-.35,2.93,0,.31-.12.62-.2,1a1.53,1.53,0,0,1-.5-1.13,6.62,6.62,0,0,1,.26-1.82.41.41,0,0,0,0-.33l-.36.71-.07,0,.64-2.51h.05c0,.15.05.3.08.45s0,.2.11.22a.3.3,0,0,0,.28-.09,1.44,1.44,0,0,0,.29-.53c.07-.17.13-.34.21-.55l.5.87c.36-.31.37-.77.55-1.16a3.92,3.92,0,0,1-.66,2.37c-.11.15-.2.17-.34,0S12.88,25.5,12.69,25.34Z" fill="#fe691f"/><path d="M23.15,36.52a1.44,1.44,0,0,1-2.24.13,9.32,9.32,0,0,1-1.81-2.24,9,9,0,0,0-2-2.44c.15-.06.22.05.31.11a10.83,10.83,0,0,1,2,1.76,16.1,16.1,0,0,0,1.54,1.55,5.21,5.21,0,0,0,2,1.06A.8.8,0,0,1,23.15,36.52Z" fill="#fe691f"/><path d="M27.29,12.74a1.41,1.41,0,0,1-.7.51,4.93,4.93,0,0,0-1.14.59c-.18.16-.41.09-.62.06-1.11-.18-2.21-.42-3.33-.56-.62-.07-1.25-.08-1.88-.13A44.41,44.41,0,0,1,27.29,12.74Z" fill="#fe691f"/><path d="M20,25.57c.15,0,.17.09.23.17a15.61,15.61,0,0,1,2.24,3.49,4.16,4.16,0,0,0,.73,1c.06.08.16.16.12.26s-.17,0-.25.05H22.4a.93.93,0,0,1-1-.82c-.13-.48-.22-1-.33-1.46A11.7,11.7,0,0,0,20,25.57Z" fill="#fe691f"/><path d="M20.85,9.4a19.49,19.49,0,0,1,2.54-.77,3.6,3.6,0,0,0,2.77-2.31,4.78,4.78,0,0,1,.28-.61,10.55,10.55,0,0,1,.06,1.86,1.4,1.4,0,0,1-.78,1.08,3.61,3.61,0,0,1-1.5.4,21.47,21.47,0,0,0-3.11.37A.3.3,0,0,1,20.85,9.4Z" fill="#fe691f"/><path d="M15.67,28.83a3,3,0,0,0-.76-.38c-.12,0-.13-.16-.17-.25-.19-.5-.38-1-.58-1.52-.19.29-.18.36.12.85-.64.15-1-.22-.82-.85a1.35,1.35,0,0,1,.22-.47,5.08,5.08,0,0,0,.85-2.05,1.55,1.55,0,0,1,.06-.23l.1-.11A17.06,17.06,0,0,0,15.67,28.83Z" fill="#fe691f"/><path d="M18.54,8.7c0-.13.05-.21.11-.3a6.86,6.86,0,0,0,1.07-4.66,2.75,2.75,0,0,1,0-.41c.11,0,.09.11.1.16.21.67.41,1.33.61,2a3.24,3.24,0,0,1,.09,1.16,1.78,1.78,0,0,1-.82,1.46,4.54,4.54,0,0,1-1.14.58Z" fill="#fe691f"/><path d="M12.29,21.74l.38.46.1-.6c.15.08.17.27.34.38.2-.53-.09-1.15.28-1.67.26.62.07,1.29.32,1.89l.16-.2.06,0-.25,1.88h0l-.22-1.09-.77,1.51h0L12.76,23c-.53.47-.68,1.11-1.11,1.62a2.23,2.23,0,0,1,.25-.79A1.15,1.15,0,0,0,12,23,1.36,1.36,0,0,1,12.29,21.74Z" fill="#fe691f"/><path d="M15.76,19a6.92,6.92,0,0,1,1.66.21A2.41,2.41,0,0,0,20,18.46a.2.2,0,0,1,.08,0s0,0,0,0a4.46,4.46,0,0,1-1.48,2,.43.43,0,0,1-.41,0L16.66,20a.48.48,0,0,1-.21-.12A5.88,5.88,0,0,0,15.76,19Z" fill="#fe691f"/><path d="M19.25,16.85a5.69,5.69,0,0,1-1.54,1.78,1,1,0,0,1-.93.15,3.21,3.21,0,0,0-1.31-.14l-.34,0c-.18,0-.38-.06-.43-.23s.16-.18.26-.26a1.82,1.82,0,0,1,1.36-.34,3.55,3.55,0,0,0,2.46-.69l.32-.24S19.15,16.88,19.25,16.85Z" fill="#fe691f"/><path d="M17.37,32.8a5.8,5.8,0,0,1,1.11,1.31,12.47,12.47,0,0,0,1.77,2.38c.2.19.41.36.63.55a1.65,1.65,0,0,1-1.95-.66,4.74,4.74,0,0,1-.58-1.25,12.31,12.31,0,0,0-1-2.29Z" fill="#fe691f"/><path d="M19,26.54c.16,0,.18.1.22.18a10.61,10.61,0,0,1,1.25,2.58,3.72,3.72,0,0,0,.64,1.15c.13.18.06.23-.12.25a1.45,1.45,0,0,1-1.51-1.28c-.11-.7-.08-1.41-.24-2.1A3.88,3.88,0,0,0,19,26.54Z" fill="#fe691f"/><path d="M21.28,8.14a1.88,1.88,0,0,1,.84-.43A2.79,2.79,0,0,0,24.2,5.15l.09-.67s0,0,.07,0a10.44,10.44,0,0,1,.3,2.07,1.45,1.45,0,0,1-1.08,1.25A9.78,9.78,0,0,1,21.28,8.14Z" fill="#fe691f"/><path d="M19.45,14.35a30.46,30.46,0,0,1,5.24,0l-1.07.91c-.08.06-.2,0-.3,0a29.12,29.12,0,0,0-3.81-.74l-.05,0Z" fill="#fe691f"/><path d="M13.36,18.25a7.23,7.23,0,0,0,1.72-1.51.61.61,0,0,1,.23-.15,6.81,6.81,0,0,0,1.85-.92.77.77,0,0,1-.14.44,5.91,5.91,0,0,1-.62,1,.73.73,0,0,1-.57.32,1.85,1.85,0,0,0-1.31.67.62.62,0,0,1-.67.2C13.72,18.29,13.58,18.28,13.36,18.25Z" fill="#fe691f"/><path d="M16.2,30.17c.17-.21.18-.5.32-.72.43.24.51,1.19.35,2-.16,0-.08-.36-.33-.25a.48.48,0,0,0-.27.51c0,.35.07.71.1,1.07a2.62,2.62,0,0,1-.07,1l-.88-1.21c-.07-.1,0-.19,0-.29L16,30.76c0-.09.1-.18.07-.29h0c.08,0,.05-.08.07-.12h0c.08,0,.06-.12.07-.19Z" fill="#fe691f"/><path d="M20.64,7.69A10.67,10.67,0,0,0,22.3,3.54c0,.68.08,1.36.13,2a2.27,2.27,0,0,1-.07,1A1.63,1.63,0,0,1,20.64,7.69Z" fill="#fe691f"/><path d="M28.61,20.37c-.11,0-.18-.08-.26-.14A16.69,16.69,0,0,0,24.14,18c-.13,0-.4,0-.32-.3a.39.39,0,0,1,.53-.27,3.69,3.69,0,0,1,.77.32,12.05,12.05,0,0,1,3.43,2.5S28.63,20.3,28.61,20.37Z" fill="#fe691f"/><path d="M12.72,18.17A4.13,4.13,0,0,0,13.24,17a.68.68,0,0,1,.21-.34A5.91,5.91,0,0,0,14.88,15l.12-.16A1.5,1.5,0,0,1,15,16,4.84,4.84,0,0,1,12.72,18.17Z" fill="#fe691f"/><path d="M11.45,18.71a14.92,14.92,0,0,0,1.05-4A2.8,2.8,0,0,1,11.45,18.71Z" fill="#fe691f"/><path d="M19.22,30.35a1.24,1.24,0,0,1-1.12-.64,2.06,2.06,0,0,1-.24-1,14.43,14.43,0,0,0,0-2.18,4.54,4.54,0,0,1,.69,1.5A6,6,0,0,0,19.22,30.35Z" fill="#fe691f"/><path d="M26.55,23c-.12,0-.17-.07-.23-.12a27.37,27.37,0,0,0-3.42-2.55,3,3,0,0,1-.44-.34.32.32,0,0,1,0-.51c.08-.08.13-.1.23,0a16.91,16.91,0,0,1,3.69,3.32c.06.08.09.16.14.24Z" fill="#fe691f"/><path d="M29.79,18.8a7.85,7.85,0,0,1-1-.46,12.85,12.85,0,0,0-3.66-1.28,1.32,1.32,0,0,1-.33-.08c-.09,0-.26,0-.26-.16a.36.36,0,0,1,.23-.3.59.59,0,0,1,.45,0,13.4,13.4,0,0,1,4.14,1.89,1.55,1.55,0,0,1,.42.39Z" fill="#fe691f"/><path d="M27.37,21.67l-.69-.59a12.73,12.73,0,0,0-3.06-2,1.72,1.72,0,0,1-.37-.22c-.1-.07-.22-.15-.16-.29a.38.38,0,0,1,.31-.23.63.63,0,0,1,.46.12,13.32,13.32,0,0,1,3.45,3C27.35,21.51,27.42,21.56,27.37,21.67Z" fill="#fe691f"/><path d="M30.81,17.21a.3.3,0,0,1-.28,0,14.25,14.25,0,0,0-5-1.11c-.1,0-.26.06-.28-.1a.38.38,0,0,1,.21-.35.76.76,0,0,1,.49,0,14.8,14.8,0,0,1,4.12,1.16A2.53,2.53,0,0,1,30.81,17.21Z" fill="#fe691f"/><path d="M9.83,23.13a1.42,1.42,0,0,1-.17-1.6c.32-.38.68-.74,1.06-1.15,0,.87.72.66,1.2.77a.82.82,0,0,1-.89.5c-.75,0-.93.1-1.08.84C9.9,22.69,9.88,22.89,9.83,23.13Z" fill="#fe691f"/><path d="M21.92,27.08c-.13,0-.17-.16-.23-.25-.65-.87-1.27-1.76-2-2.57a1.09,1.09,0,0,1-.13-.17c-.08-.14-.14-.28,0-.42s.3-.1.45,0a1.94,1.94,0,0,1,.49.5A12.16,12.16,0,0,1,21.91,27,.53.53,0,0,1,21.92,27.08Z" fill="#fe691f"/><path d="M12.5,19.4a1.94,1.94,0,0,0-.18.83.61.61,0,0,1-.62.66c-.36,0-.57-.21-.62-.61a.53.53,0,0,0,0-.13c0-.13-.29-.12-.2-.28a1.68,1.68,0,0,1,.53-.7,4.7,4.7,0,0,1,1.07-.43c-.2.2-.47.33-.66.54s-.18.19-.07.34.21,0,.31,0,.26-.23.46-.21Z" fill="#fe691f"/><path d="M31.25,15.68c-.58-.1-1.08-.18-1.58-.28a9.89,9.89,0,0,0-2.24-.13,5.38,5.38,0,0,1-1.13,0c-.14,0-.34,0-.35-.17s.2-.2.35-.23a6.27,6.27,0,0,1,1.5,0,13.89,13.89,0,0,1,3.06.64A.74.74,0,0,1,31.25,15.68Z" fill="#fe691f"/><path d="M23.11,15.8l-.83.84a.15.15,0,0,1-.19,0,27.76,27.76,0,0,0-3.08-1Z" fill="#fe691f"/><path d="M24.24,25.11a18.92,18.92,0,0,0-2.72-2.65,3.18,3.18,0,0,1-.41-.41.3.3,0,0,1,0-.4c.12-.14.26-.1.39,0A1.81,1.81,0,0,1,22,22a17.2,17.2,0,0,1,2.23,2.88C24.24,24.94,24.29,25,24.24,25.11Z" fill="#fe691f"/><path d="M32.8,14.59a26.41,26.41,0,0,0-6-.09.66.66,0,0,1,.58-.46,9,9,0,0,1,1.72,0A16.86,16.86,0,0,1,32.8,14.59Z" fill="#fe691f"/><path d="M23.26,26.33a2.69,2.69,0,0,1-.46-.56,13,13,0,0,0-2.27-2.48.53.53,0,0,1-.22-.29.36.36,0,0,1,.16-.38c.14-.1.19.07.25.13a11.07,11.07,0,0,1,2.4,3.2A.7.7,0,0,1,23.26,26.33Z" fill="#fe691f"/><path d="M33.24,13.25a17.68,17.68,0,0,0-4.22.4,2,2,0,0,1-.87,0C28.77,13.09,31.81,12.67,33.24,13.25Z" fill="#fe691f"/><path d="M17,32.92c.24.46.5.91.71,1.39a7.2,7.2,0,0,0,.62,1.46c.08.12.05.19-.11.17-.75-.08-.93-.18-1-.89A7.16,7.16,0,0,0,17,33Z" fill="#fe691f"/><path d="M25.07,23.74c-1-.83-1.94-1.75-3-2.51a1.16,1.16,0,0,1-.36-.37c-.11-.17,0-.3.12-.42s.22,0,.29.11Z" fill="#fe691f"/><path d="M21.78,17.13l-.61.69c-.09.12-.18.07-.26,0a4.64,4.64,0,0,0-1.14-.66.18.18,0,0,1-.12-.24c0-.1.06-.19.18-.17A12.6,12.6,0,0,1,21.78,17.13Z" fill="#fe691f"/><path d="M17.2,21.55a.49.49,0,0,1-.44-.41c-.05-.2-.08-.42-.13-.63s.05-.14.14-.12a4.74,4.74,0,0,1,1.19.49A.1.1,0,0,1,18,21,1,1,0,0,1,17.2,21.55Z" fill="#fe691f"/><path d="M16.9,34.86c-.53-.28-.55-.44-.18-1.69C17,33.7,16.69,34.28,16.9,34.86Z" fill="#fe691f"/><polygon points="19.68 3.16 19.67 3.18 19.68 3.16 19.68 3.16" fill="#fe691f"/><path d="M29.86,18.85h.06c0,.05,0,0-.05,0Z" fill="#fe691f"/><path d="M19.8,8.54s.06,0,.07,0,0,0,0,.05S19.81,8.56,19.8,8.54Z" fill="#fe691f"/><path d="M18.54,8.69l0,0,0,0Z" fill="#fe691f"/><path d="M26.54,23h0v0Z" fill="#fe691f"/><path d="M23,22.54l-.07-.06h0c.06,0,.09,0,.08.05Z" fill="#fe691f"/><path d="M12.51,19.4v0h0l0,0Z" fill="#fe691f"/><path d="M23,22.54c0-.05.06,0,.09,0l0,.06L23,22.54Z" fill="#fe691f"/><path d="M22.9,22.48a0,0,0,0,0,0,0v0Z" fill="#fe691f"/><path d="M17.33,32.84a.2.2,0,0,0,0-.07s.05,0,.06,0Z" fill="#fe691f"/><path d="M29.87,18.84l-.08,0,0,0s.06,0,.05.07Z" fill="#fe691f"/></g></g></svg>