<svg xmlns="http://www.w3.org/2000/svg" viewBox="0 0 48 48"><g id="Layer_2" data-name="Layer 2"><g id="Layer_1-2" data-name="Layer 1"><rect width="24" height="24" rx="24" fill="none"/><path d="M2.93,31.8c9.26-2.86,21.41-8.35,24.24-15.5.66-1.68,1.8.19,1.19,1.93a14.67,14.67,0,0,1-5,7,59.77,59.77,0,0,1-5.14,3.18c-2.08,1.1-4.28,1-5.11,1.34-3.28,1.42-7.41,2.65-10.19,2Z" fill="none" stroke="#ff0" stroke-miterlimit="22.93" stroke-width="0.57"/><path d="M27.82,6.74A17.13,17.13,0,1,1,10.69,23.87,17.13,17.13,0,0,1,27.82,6.74Z" fill="#f88602" fill-rule="evenodd"/><path d="M2.93,31.8c9.26-2.86,21.41-8.35,24.24-15.5.66-1.68,1.8.19,1.19,1.93a14.67,14.67,0,0,1-5,7,59.77,59.77,0,0,1-5.14,3.18c-2.08,1.1-4.28,1-5.11,1.34-3.28,1.42-7.41,2.65-10.19,2Zm8.94,7.3A42.07,42.07,0,0,0,29.49,31c3.77-2.9,5.15-5.51,5.36-7.4.41-3.58-.83-3.47-1-2.88-1.45,4-5.49,8.6-12.31,12.14-1.36.7-2.26,2.54-3.54,3.39-1.8,1.18-4.16,1.9-6.09,2.86Zm-7-1.48c-1.54.65-.29-1,.07-1.17C12.6,33.4,19,30.11,24.06,26a23.78,23.78,0,0,0,7.32-9.2c.6-1.42.47-3.43,1.24-4.77.27-.46,1.41-.6,1.47-.07a18.33,18.33,0,0,1-.59,6.89c-1.64,5.81-7.28,10-12.91,12.77-3,1.49-10.51,3.83-15.69,6Z" fill="#110e69" fill-rule="evenodd"/></g></g></svg>