<svg xmlns="http://www.w3.org/2000/svg" viewBox="0 0 48 48"><g id="Layer_2" data-name="Layer 2"><g id="Layer_1-2" data-name="Layer 1"><rect width="24" height="24" rx="24" fill="none"/><path d="M27.89,20.64,21.4,16.69l1,3.32,5.78,3.2A10.11,10.11,0,0,1,30.91,26a13.42,13.42,0,0,1,2.19,6.49,21.32,21.32,0,0,0-.11-3C32.66,26.64,31.52,22.78,27.89,20.64Z" fill="#d9b66d"/><path d="M40.18,25.86s-3-1.6-4.12,2.37l-.42,0C39.45,11.35,17.73,16.79,17.1,4c0,0-1.11,7.65,3.9,12.1l7,4.27c3.72,2.21,4.9,6.15,5.23,9.07a21.21,21.21,0,0,1-.08,5.25A27.1,27.1,0,0,0,39.34,27l2.26-1.6Z" fill="#d9b66d"/><path d="M30.68,26.18A10,10,0,0,0,28,23.44l-5.54-3.06.68,2.28,4.33,2.47a5.87,5.87,0,0,1,3,4.84A6.24,6.24,0,0,1,30,32a1.55,1.55,0,0,1-.07.23C29,35,25.33,41.33,12.13,44c0,0,11.8-1.37,20.71-8.95A13.78,13.78,0,0,0,30.68,26.18Z" fill="#d9b66d"/><path d="M27.37,25.37,23.28,23l.33,1.1A4,4,0,0,0,26,26.71a8.74,8.74,0,0,1,3.28,2.09,3.35,3.35,0,0,1,.84,1.92,2.7,2.7,0,0,0,.1-.74A5.62,5.62,0,0,0,27.37,25.37Z" fill="#d9b66d"/></g></g></svg>