<svg xmlns="http://www.w3.org/2000/svg" viewBox="0 0 48 48"><g id="Layer_2" data-name="Layer 2"><g id="Layer_1-2" data-name="Layer 1"><rect width="24" height="24" rx="24" fill="none"/><path d="M39.87,27.75,20.06,8A8.94,8.94,0,0,1,17.79,3v8.2a6.68,6.68,0,0,0,1.89,3.6l14,14h-.57L19.39,15.06a7.26,7.26,0,0,1-1.6-2.41v5a6.69,6.69,0,0,0,1.89,3.59l7.54,7.55-.62,0-7.21-7.24a7.12,7.12,0,0,1-1.6-2.4v4.8a5.94,5.94,0,0,0,1.68,4.14l2.35,2.42H38.73A1.61,1.61,0,0,0,39.87,27.75Z" fill="#005aab"/><path d="M39.87,27.75l-.49-.48a3,3,0,0,1-3,2.47l-14.6.73,0,0H38.73A1.61,1.61,0,0,0,39.87,27.75Z" fill="#004e99"/><path d="M18,4.06A7.07,7.07,0,0,1,17.79,3v.9Z" fill="#005aab"/><path d="M30.87,39.2l9-9.2a1.68,1.68,0,0,1-1.3.5H13.38a3.41,3.41,0,0,0-3.08,2,3.4,3.4,0,0,0-2.65,3.31,3.54,3.54,0,0,0,.15,1,2.86,2.86,0,0,1,1.88-.71,2.82,2.82,0,0,1,1.47.41,3.07,3.07,0,0,0,.36.27L19.67,45h6.89l-5.62-5.62h.58L27.15,45h7.21L28.71,39.2ZM13,33.78h-.65l1.37-1.37.09.35A.83.83,0,0,1,13,33.78Z" fill="#c7ab73"/></g></g></svg>