<svg width="242" height="239" viewBox="0 0 242 239" fill="none" xmlns="http://www.w3.org/2000/svg">
<path d="M68.8603 198.103C69.6359 198.878 70.8935 198.878 71.6679 198.104C72.4423 197.329 72.4417 196.073 71.6661 195.297C70.8905 194.521 69.6336 194.521 68.8592 195.295C68.0845 196.069 68.0848 197.327 68.8603 198.103Z" fill="#A7C8FF"/>
<path d="M139.759 43.9678C140.856 43.9678 141.746 43.0795 141.746 41.9839C141.746 40.8883 140.856 40 139.759 40C138.662 40 137.773 40.8883 137.773 41.9839C137.773 43.0795 138.662 43.9678 139.759 43.9678Z" fill="#A7C8FF"/>
<path d="M84.4253 49.862C84.4418 49.7965 84.4797 49.7384 84.533 49.6968C84.5863 49.6554 84.652 49.6328 84.7196 49.6328C84.7872 49.6328 84.8528 49.6554 84.9062 49.6968C84.9595 49.7384 84.9975 49.7965 85.014 49.862L85.2669 50.9026C85.28 50.9585 85.3085 51.0097 85.3491 51.0502C85.3897 51.0908 85.4409 51.1193 85.4969 51.1323L86.5409 51.3827C86.6076 51.3983 86.667 51.436 86.7094 51.4896C86.7519 51.5432 86.7751 51.6096 86.7751 51.6779C86.7751 51.7462 86.7519 51.8126 86.7094 51.8662C86.667 51.9198 86.6076 51.9574 86.5409 51.9731L85.4969 52.2235C85.4409 52.2365 85.3897 52.265 85.3491 52.3055C85.3085 52.3462 85.28 52.3973 85.2669 52.4532L85.014 53.4939C84.9975 53.5593 84.9595 53.6174 84.9062 53.659C84.8528 53.7004 84.7872 53.723 84.7196 53.723C84.652 53.723 84.5863 53.7004 84.533 53.659C84.4797 53.6174 84.4418 53.5593 84.4253 53.4939L84.1722 52.4532C84.1597 52.3971 84.1314 52.3457 84.0907 52.305C84.05 52.2643 83.9984 52.2361 83.9423 52.2235L82.8982 51.9731C82.8316 51.9574 82.7722 51.9198 82.7297 51.8662C82.6872 51.8126 82.6641 51.7462 82.6641 51.6779C82.6641 51.6096 82.6872 51.5432 82.7297 51.4896C82.7722 51.436 82.8316 51.3983 82.8982 51.3827L83.9423 51.1323C83.9984 51.1197 84.05 51.0915 84.0907 51.0508C84.1314 51.0101 84.1597 50.9587 84.1722 50.9026L84.4253 49.862Z" fill="#A7C8FF"/>
<path d="M58.5428 188.888C58.5692 188.784 58.6302 188.691 58.7161 188.625C58.8019 188.56 58.9074 188.525 59.0153 188.527C59.1233 188.53 59.2275 188.568 59.3108 188.637C59.3941 188.706 59.4517 188.801 59.4741 188.907L59.8326 190.565C59.853 190.65 59.8968 190.729 59.9591 190.791C60.0214 190.853 60.0998 190.897 60.1855 190.917L61.8174 191.354C61.9221 191.38 62.0149 191.442 62.0805 191.527C62.1461 191.613 62.1808 191.719 62.1787 191.827C62.1767 191.935 62.1382 192.039 62.0694 192.122C62.0007 192.205 61.9057 192.263 61.8001 192.285L60.1409 192.643C60.0555 192.664 59.9774 192.708 59.9152 192.77C59.8531 192.832 59.8092 192.911 59.7884 192.996L59.3586 194.632C59.3314 194.736 59.2701 194.828 59.1844 194.893C59.0987 194.957 58.9937 194.991 58.8862 194.989C58.7788 194.987 58.6753 194.948 58.5923 194.88C58.5094 194.812 58.4518 194.717 58.4289 194.612L58.0704 192.954C58.0492 192.869 58.0049 192.79 57.9425 192.728C57.88 192.665 57.8017 192.621 57.7159 192.6L56.0872 192.17C55.9834 192.142 55.8919 192.08 55.8272 191.994C55.7626 191.908 55.7287 191.803 55.7308 191.696C55.733 191.588 55.7712 191.485 55.8392 191.401C55.9073 191.318 56.0014 191.26 56.1062 191.237L57.7638 190.88C57.8499 190.862 57.9292 190.82 57.9929 190.759C58.0566 190.699 58.1021 190.621 58.1244 190.536L58.5428 188.888Z" fill="#A7C8FF"/>
<path d="M208.837 109.521C207.501 108.548 206.088 107.767 204.613 107.145C194.552 102.905 183.375 109.056 172.595 110.782C155.761 113.476 132.895 110.402 117.118 107.07C111.551 105.895 106.296 103.609 101.449 100.63L78.8818 86.7577C77.6264 85.861 76.3855 84.9459 75.1583 84.0154C68.0531 78.6716 61.6245 74.4236 52.4047 75.064C43.4042 75.5388 34.797 78.8906 27.8581 84.6223C16.1346 94.8377 17.911 113.651 22.58 127.018C28.485 143.767 61.8936 164.916 77.6108 173.875C96.3271 182 116.407 186.984 136.551 190.031C156.851 193.099 182.921 195.341 200.514 182.125C216.687 169.987 221.119 142.274 217.16 123.563C216.194 118.028 213.236 113.035 208.837 109.521Z" fill="#EBF1FF"/>
<path d="M159.32 166.574L127.457 123.534L118.832 129.919L150.695 172.959L159.32 166.574Z" fill="#C7DBFF"/>
<path d="M172.149 178.801L147.359 145.316C147.221 145.13 146.958 145.09 146.772 145.228L133.946 154.724C133.759 154.862 133.72 155.125 133.858 155.311L158.647 188.796C158.785 188.983 159.048 189.022 159.235 188.884L172.061 179.389C172.247 179.251 172.287 178.988 172.149 178.801Z" fill="#A7C8FF"/>
<path d="M91.1925 137.057C117.088 141.08 141.34 123.348 145.363 97.4531C149.385 71.558 131.653 47.3052 105.758 43.2829C79.8632 39.2607 55.6104 56.9921 51.5882 82.8873C47.5659 108.782 65.2974 133.035 91.1925 137.057Z" fill="#A7C8FF"/>
<path d="M92.3796 129.407C114.049 132.773 134.345 117.935 137.711 96.2647C141.077 74.5949 126.239 54.2994 104.569 50.9334C82.8989 47.5675 62.6034 62.4057 59.2375 84.0756C55.8715 105.745 70.7098 126.041 92.3796 129.407Z" fill="#D5E3FF"/>
<path d="M184.329 60.0964C173.884 54.8232 161.062 59.0063 155.768 69.4937C150.494 79.9381 154.678 92.7602 165.165 98.0548C175.653 103.35 188.453 99.1025 193.727 88.6576C199.001 78.2128 194.774 65.3696 184.329 60.0964ZM179.42 69.8196C180.589 70.4098 181.556 71.334 182.2 72.4749C182.843 73.6157 183.132 74.9219 183.032 76.2276C182.932 77.5334 182.446 78.78 181.636 79.8093C180.826 80.8385 179.729 81.6041 178.484 82.0089C177.238 82.4137 175.901 82.4395 174.64 82.083C173.38 81.7265 172.254 81.0038 171.406 80.0065C170.557 79.0092 170.023 77.7823 169.873 76.4813C169.722 75.1804 169.961 73.864 170.56 72.6992C172.189 69.4724 176.193 68.1904 179.42 69.8196ZM167.137 94.1486C163.666 92.4028 160.91 89.5045 159.341 85.9502C163.559 84.35 167.707 84.3661 171.189 86.1239C174.67 87.8817 177.21 91.1884 178.363 95.5535C174.571 96.4015 170.603 95.9048 167.137 94.1486Z" fill="#A7C8FF"/>
<path d="M77.2189 146.099C75.1571 146.778 73.3427 148.052 72.0053 149.762C70.6679 151.471 69.8674 153.539 69.7051 155.703C69.5429 157.868 70.0261 160.032 71.0937 161.922C72.1612 163.811 73.7652 165.342 75.7028 166.32C77.6404 167.299 79.8246 167.68 81.9791 167.417C84.1336 167.154 86.1617 166.258 87.8069 164.842C89.4521 163.426 90.6406 161.555 91.222 159.463C91.8034 157.372 91.7516 155.156 91.0733 153.094C90.1609 150.331 88.1899 148.043 85.5925 146.731C82.9951 145.42 79.9837 145.193 77.2189 146.099ZM78.9761 151.44C79.6182 151.228 80.3087 151.213 80.9599 151.394C81.611 151.576 82.1936 151.947 82.6336 152.46C83.0736 152.973 83.3513 153.606 83.4314 154.277C83.5116 154.948 83.3905 155.628 83.0836 156.231C82.7767 156.833 82.2978 157.331 81.7077 157.66C81.1176 157.99 80.4428 158.137 79.7689 158.083C79.0951 158.029 78.4525 157.776 77.9228 157.356C77.393 156.936 76.9999 156.368 76.7934 155.724C76.5203 154.866 76.5964 153.935 77.005 153.133C77.4136 152.331 78.1218 151.723 78.9761 151.439L78.9761 151.44ZM83.3727 164.803C81.4687 165.433 79.4049 165.381 77.535 164.656C78.4904 162.532 80.0102 161.024 81.923 160.395C83.8357 159.766 85.9691 160.046 87.9832 161.218C86.9086 162.912 85.2788 164.179 83.3728 164.802L83.3727 164.803Z" fill="#A7C8FF"/>
</svg>
