<svg width="395" height="352" viewBox="0 0 395 352" fill="none" xmlns="http://www.w3.org/2000/svg">
<circle cx="255" cy="140" r="140" fill="#EAF1F8"/>
<g clip-path="url(#clip0_4477_319411)">
<path d="M165.329 214.292H64.6748C62.0182 214.289 59.4714 213.231 57.5929 211.35C55.7144 209.469 54.6578 206.92 54.6548 204.26V151.973C54.6578 149.314 55.7144 146.764 57.5929 144.883C59.4714 143.003 62.0182 141.945 64.6748 141.942H165.329C167.986 141.945 170.532 143.003 172.411 144.883C174.289 146.764 175.346 149.314 175.349 151.973V204.26C175.346 206.92 174.289 209.469 172.411 211.35C170.532 213.231 167.986 214.289 165.329 214.292Z" fill="#BCD3E8"/>
<path d="M297.867 214.292H197.213C194.556 214.289 192.009 213.231 190.131 211.35C188.253 209.469 187.196 206.92 187.193 204.26V151.973C187.196 149.314 188.253 146.764 190.131 144.883C192.009 143.003 194.556 141.945 197.213 141.942H297.867C300.524 141.945 303.071 143.003 304.949 144.883C306.827 146.764 307.884 149.314 307.887 151.973V204.26C307.884 206.92 306.827 209.469 304.949 211.35C303.071 213.231 300.524 214.289 297.867 214.292Z" fill="#BCD3E8"/>
<path d="M175.349 301.233H54.6548V234.659C54.6578 232 55.7144 229.45 57.5929 227.569C59.4714 225.688 62.0182 224.63 64.6748 224.627H165.329C167.986 224.63 170.532 225.688 172.411 227.569C174.289 229.45 175.346 232 175.349 234.659V301.233Z" fill="#BCD3E8"/>
<path d="M307.887 301.233H187.193V234.659C187.196 232 188.253 229.45 190.131 227.569C192.009 225.688 194.556 224.63 197.213 224.627H297.867C300.524 224.63 303.071 225.688 304.949 227.569C306.827 229.45 307.884 232 307.887 234.659V301.233Z" fill="#BCD3E8"/>
<path d="M297.867 131.606H197.213C194.556 131.603 192.009 130.545 190.131 128.664C188.253 126.784 187.196 124.234 187.193 121.574V65.0317C187.196 62.3721 188.253 59.8222 190.131 57.9415C192.009 56.0609 194.556 55.003 197.213 55H297.867C300.524 55.003 303.071 56.0609 304.949 57.9415C306.827 59.8222 307.884 62.3721 307.887 65.0317V121.574C307.884 124.234 306.827 126.784 304.949 128.664C303.071 130.545 300.524 131.603 297.867 131.606Z" fill="#BCD3E8"/>
<path d="M165.329 131.606H64.6748C62.0182 131.603 59.4714 130.545 57.5929 128.664C55.7144 126.784 54.6578 124.234 54.6548 121.574V65.0317C54.6578 62.3721 55.7144 59.8222 57.5929 57.9415C59.4714 56.0609 62.0182 55.003 64.6748 55H165.329C167.986 55.003 170.532 56.0609 172.411 57.9415C174.289 59.8222 175.346 62.3721 175.349 65.0317V121.574C175.346 124.234 174.289 126.784 172.411 128.664C170.532 130.545 167.986 131.603 165.329 131.606Z" fill="#BCD3E8"/>
<path d="M304.548 304.273H60.4239C58.8938 304.273 57.4264 303.665 56.3445 302.582C55.2626 301.498 54.6548 300.029 54.6548 298.498C54.6548 296.966 55.2626 295.497 56.3445 294.413C57.4264 293.33 58.8938 292.722 60.4239 292.722H304.548C306.078 292.722 307.545 293.33 308.627 294.413C309.709 295.497 310.317 296.966 310.317 298.498C310.317 300.029 309.709 301.498 308.627 302.582C307.545 303.665 306.078 304.273 304.548 304.273Z" fill="#BD1A8D"/>
<path d="M171.858 298.193H72.2656V275.09C72.2656 261.868 77.512 249.187 86.8506 239.837C96.1893 230.488 108.855 225.235 122.062 225.235C135.269 225.235 147.935 230.488 157.273 239.837C166.612 249.187 171.858 261.868 171.858 275.09V298.193Z" fill="#BD1A8D"/>
<path d="M290.884 298.193H191.291V275.09C191.291 261.868 196.537 249.187 205.876 239.837C215.215 230.488 227.881 225.235 241.087 225.235C254.294 225.235 266.96 230.488 276.299 239.837C285.637 249.187 290.884 261.868 290.884 275.09V298.193Z" fill="#BD1A8D"/>
<path d="M236.533 351.392H244.427V300.321H236.533V351.392Z" fill="#BD1A8D"/>
<path d="M214.063 351.114C214.063 351.968 226.026 351.445 240.783 351.445C255.541 351.445 267.503 351.968 267.503 351.114C267.503 350.26 255.541 343.488 240.783 343.488C226.026 343.488 214.063 350.26 214.063 351.114Z" fill="#BD1A8D"/>
<path d="M117.507 351.392H125.402V300.321H117.507V351.392Z" fill="#BD1A8D"/>
<path d="M95.0381 351.114C95.0381 351.968 107.001 351.445 121.758 351.445C136.515 351.445 148.478 351.968 148.478 351.114C148.478 350.26 136.515 343.488 121.758 343.488C107.001 343.488 95.0381 350.26 95.0381 351.114Z" fill="#BD1A8D"/>
<path d="M156.936 344.43H164.381L167.923 315.68H156.935L156.936 344.43Z" fill="#EFC6E3"/>
<path d="M178.74 351.35L155.341 351.351L155.341 342.3L169.699 342.3C170.886 342.3 172.062 342.534 173.159 342.989C174.255 343.443 175.252 344.11 176.092 344.95C176.931 345.791 177.597 346.789 178.051 347.887C178.506 348.985 178.74 350.162 178.74 351.35Z" fill="#032A4E"/>
<path d="M168.558 340.27L175.662 338.038L170.444 309.545L159.96 312.839L168.558 340.27Z" fill="#EFC6E3"/>
<path d="M191.431 340.338L169.106 347.352L166.399 338.716L180.099 334.412C182.386 333.693 184.865 333.914 186.991 335.025C189.116 336.136 190.713 338.047 191.431 340.338Z" fill="#032A4E"/>
<path d="M163.578 327.037L149.958 291.245C146.903 291.963 121.279 297.64 112.697 288.491C109.755 285.356 109.182 280.813 110.992 274.989L116 268.688L116.156 268.696C118.049 268.796 162.573 271.294 165.625 284.74C168.198 296.076 172.898 317.21 174.277 323.417C174.417 324.06 174.321 324.732 174.007 325.311C173.694 325.889 173.183 326.336 172.568 326.569L167.091 328.625C166.786 328.74 166.462 328.799 166.136 328.799C165.582 328.799 165.04 328.63 164.584 328.316C164.127 328.001 163.776 327.556 163.578 327.037Z" fill="#032A4E"/>
<path d="M155.683 331.293L142.064 295.5C139.008 296.219 113.384 301.895 104.802 292.747C101.861 289.612 101.287 285.069 103.097 279.245L108.106 272.944L108.261 272.952C110.155 273.052 154.678 275.55 157.73 288.996C160.304 300.332 165.003 321.466 166.382 327.673C166.522 328.316 166.426 328.988 166.113 329.567C165.799 330.145 165.288 330.592 164.673 330.825L159.196 332.881C158.891 332.996 158.568 333.055 158.242 333.055C157.687 333.055 157.146 332.886 156.689 332.572C156.232 332.257 155.881 331.811 155.683 331.293Z" fill="#032A4E"/>
<path d="M143.432 261.851C141.414 261.85 139.43 261.324 137.675 260.326C135.92 259.327 134.455 257.889 133.422 256.153L129.096 248.817L139.377 243.191L143.742 249.184L173.361 246.059C173.505 245.798 173.667 245.548 173.846 245.309C174.415 244.56 175.134 243.94 175.958 243.488C176.782 243.036 177.691 242.763 178.628 242.686C179.568 242.606 180.515 242.727 181.404 243.043C182.294 243.359 183.106 243.862 183.785 244.518C184.874 245.564 185.578 246.947 185.783 248.444C185.988 249.941 185.682 251.463 184.914 252.764C184.434 253.575 183.788 254.274 183.019 254.817C182.249 255.361 181.374 255.735 180.45 255.916C179.526 256.096 178.575 256.08 177.658 255.867C176.741 255.654 175.879 255.249 175.129 254.68C174.955 254.547 174.789 254.405 174.629 254.254L146.261 261.496C145.337 261.732 144.386 261.851 143.432 261.851Z" fill="#EFC6E3"/>
<path d="M102.904 281.135C102.495 280.839 102.174 280.436 101.979 279.969C101.785 279.503 101.722 278.991 101.8 278.491C103.49 267.339 101.546 251.364 99.617 239.925C99.2223 237.604 99.3759 235.223 100.066 232.973C100.755 230.722 101.962 228.664 103.589 226.964C105.216 225.265 107.218 223.97 109.434 223.184C111.651 222.398 114.02 222.143 116.353 222.439C118.383 222.707 120.393 223.104 122.373 223.627C125.661 224.456 128.57 226.38 130.62 229.084C132.671 231.787 133.742 235.109 133.657 238.503C133.369 249.54 135.607 263.312 136.583 268.72C136.65 269.092 136.639 269.473 136.552 269.84C136.465 270.207 136.303 270.553 136.077 270.855C135.855 271.153 135.573 271.402 135.249 271.586C134.926 271.769 134.567 271.882 134.197 271.919C123.383 273.024 111.721 278.304 105.732 281.352C105.347 281.551 104.92 281.656 104.487 281.657C103.918 281.655 103.363 281.472 102.904 281.135Z" fill="#065BAA"/>
<path d="M132.096 252.37C131.762 252.239 131.457 252.042 131.199 251.792C130.942 251.542 130.736 251.243 130.594 250.913L124.563 236.964C124.198 236.121 124.002 235.215 123.987 234.296C123.972 233.378 124.138 232.465 124.475 231.611C124.813 230.757 125.315 229.977 125.953 229.317C126.592 228.658 127.354 228.13 128.196 227.765C129.038 227.4 129.944 227.205 130.861 227.191C131.779 227.176 132.69 227.343 133.543 227.682C134.396 228.02 135.174 228.524 135.832 229.163C136.491 229.803 137.017 230.566 137.381 231.41L143.412 245.358C143.699 246.024 143.711 246.777 143.444 247.451C143.177 248.126 142.654 248.667 141.99 248.956L134.188 252.337C133.859 252.481 133.504 252.558 133.145 252.564C132.786 252.569 132.43 252.504 132.096 252.37Z" fill="#065BAA"/>
<path d="M115.243 217.693C123.48 217.693 130.158 211.008 130.158 202.761C130.158 194.513 123.48 187.828 115.243 187.828C107.005 187.828 100.328 194.513 100.328 202.761C100.328 211.008 107.005 217.693 115.243 217.693Z" fill="#EFC6E3"/>
<path d="M106.229 216.027C106.018 216.272 105.76 216.471 105.47 216.613C105.181 216.756 104.865 216.839 104.543 216.858C104.221 216.876 103.899 216.83 103.595 216.721C103.291 216.613 103.011 216.444 102.774 216.226C99.4478 213.531 96.81 210.082 95.0781 206.165C93.1391 201.537 92.8549 195.89 95.0617 191.553C96.9273 187.886 100.276 185.552 103.619 183.645C104.901 182.836 106.306 182.242 107.778 181.885C108.522 181.716 109.292 181.705 110.041 181.852C110.789 182 111.498 182.302 112.122 182.74C112.785 183.245 113.298 183.92 113.605 184.695C113.913 185.469 114.005 186.312 113.87 187.134C115.399 185.118 117.461 183.568 119.823 182.662C121.272 182.037 122.891 181.929 124.41 182.354C126.557 183.072 128.146 185.242 129.03 187.574C129.746 189.36 130.008 191.295 129.793 193.207C129.699 194.119 129.421 195.004 128.975 195.805C128.53 196.607 127.926 197.31 127.2 197.871C125.449 199.081 123.193 198.958 121.156 198.422C119.119 197.887 117.143 196.979 115.07 196.726C112.998 196.473 110.702 197.021 109.467 198.872C108.597 200.175 108.392 201.892 108.215 203.528L107.292 212.039C107.227 213.257 106.965 214.456 106.516 215.589C106.441 215.747 106.344 215.895 106.229 216.027Z" fill="#032A4E"/>
<path d="M138.113 277.443C137.226 277.133 136.414 276.639 135.731 275.994C135.047 275.349 134.507 274.567 134.145 273.699C134.061 273.497 133.989 273.29 133.927 273.08L102.153 264.025C100.788 263.63 99.5859 262.805 98.7259 261.672C97.8659 260.54 97.3937 259.159 97.3793 257.737L97.3018 245.454L109.014 245.768L109.777 253.146L136.947 265.358C137.202 265.205 137.469 265.07 137.743 264.954C138.744 264.534 139.832 264.364 140.913 264.459C141.994 264.554 143.036 264.911 143.948 265.499C144.861 266.087 145.616 266.889 146.15 267.835C146.684 268.781 146.98 269.843 147.012 270.929C147.044 272.015 146.811 273.093 146.335 274.069C145.858 275.045 145.151 275.89 144.275 276.531C143.399 277.172 142.38 277.59 141.306 277.749C140.233 277.908 139.137 277.803 138.113 277.443Z" fill="#EFC6E3"/>
<path d="M97.4835 250.846C97.245 250.578 97.0621 250.264 96.9453 249.924C96.8286 249.584 96.7804 249.224 96.8035 248.866L97.735 233.695C97.7898 232.777 98.0248 231.88 98.4265 231.053C98.8282 230.227 99.3888 229.487 100.076 228.878C100.763 228.269 101.564 227.801 102.432 227.502C103.3 227.202 104.219 227.077 105.135 227.134C106.051 227.19 106.947 227.427 107.772 227.831C108.597 228.234 109.334 228.797 109.942 229.486C110.549 230.175 111.015 230.977 111.313 231.847C111.61 232.716 111.734 233.636 111.676 234.554L110.744 249.724C110.699 250.448 110.368 251.124 109.826 251.605C109.283 252.085 108.572 252.331 107.849 252.287L99.3632 251.765C99.0048 251.744 98.6541 251.652 98.3314 251.494C98.0088 251.336 97.7206 251.116 97.4835 250.846Z" fill="#065BAA"/>
<path d="M180.401 258.37H171.817C171.542 258.371 171.276 258.269 171.072 258.084C170.868 257.899 170.74 257.644 170.714 257.369L168.996 239.737H183.222L181.504 257.369C181.478 257.644 181.351 257.899 181.147 258.084C180.943 258.269 180.677 258.371 180.401 258.37Z" fill="#065BAA"/>
<path d="M183.2 241.955H169.019C168.725 241.955 168.444 241.838 168.236 241.63C168.028 241.422 167.911 241.14 167.911 240.846V238.184C167.911 237.89 168.028 237.608 168.236 237.4C168.444 237.192 168.725 237.075 169.019 237.075H183.2C183.493 237.075 183.775 237.192 183.983 237.4C184.19 237.608 184.307 237.89 184.307 238.184V240.846C184.307 241.14 184.19 241.422 183.983 241.63C183.775 241.838 183.493 241.955 183.2 241.955Z" fill="#032A4E"/>
<path d="M51.3306 242.563H34.0152C33.505 242.563 33.0156 242.766 32.6548 243.127C32.294 243.488 32.0913 243.978 32.0913 244.489V281.087H34.9772V247.378C34.9772 246.868 35.1799 246.378 35.5407 246.016C35.9015 245.655 36.3909 245.452 36.9011 245.452H49.4066C49.9169 245.452 50.4063 245.655 50.7671 246.016C51.1279 246.378 51.3306 246.868 51.3306 247.378V281.087H54.2165V244.489C54.2165 243.978 54.0138 243.488 53.653 243.127C53.2922 242.766 52.8028 242.563 52.2925 242.563H51.3306Z" fill="#032A4E"/>
<path d="M62.8741 351.392H21.5097C19.3418 351.39 17.2635 350.526 15.7306 348.992C14.1977 347.457 13.3354 345.376 13.333 343.206V282.531C13.3354 280.361 14.1977 278.28 15.7306 276.745C17.2635 275.211 19.3418 274.347 21.5097 274.345H62.8741C65.0419 274.347 67.1203 275.211 68.6532 276.745C70.1861 278.28 71.0483 280.361 71.0508 282.531V343.206C71.0483 345.376 70.1861 347.457 68.6532 348.992C67.1203 350.526 65.0419 351.39 62.8741 351.392Z" fill="#032A4E"/>
<path d="M14.0866 324.837C11.275 324.837 9.75781 319.007 9.75781 313.521C9.75781 308.035 11.275 302.204 14.0866 302.204C16.8983 302.204 18.4155 308.035 18.4155 313.521C18.4155 319.007 16.8983 324.837 14.0866 324.837ZM14.0866 303.167C12.4941 303.167 10.7198 307.419 10.7198 313.521C10.7198 319.622 12.4941 323.874 14.0866 323.874C15.6792 323.874 17.4535 319.622 17.4535 313.521C17.4535 307.42 15.6792 303.167 14.0866 303.167Z" fill="#032A4E"/>
<path d="M59.9883 315.276H52.2926C51.655 315.275 51.0437 315.021 50.5929 314.57C50.142 314.119 49.8884 313.507 49.8877 312.868V307.09C49.8884 306.452 50.142 305.84 50.5929 305.388C51.0437 304.937 51.655 304.683 52.2926 304.682H59.9883C60.6259 304.683 61.2372 304.937 61.688 305.388C62.1388 305.84 62.3925 306.452 62.3932 307.09V312.868C62.3925 313.507 62.1388 314.119 61.688 314.57C61.2372 315.021 60.6259 315.275 59.9883 315.276Z" fill="white"/>
<path d="M62.3932 347.312H18.4156C18.1605 347.312 17.9158 347.211 17.7354 347.03C17.555 346.849 17.4536 346.604 17.4536 346.349V279.16C17.4536 278.905 17.555 278.66 17.7354 278.479C17.9158 278.299 18.1605 278.197 18.4156 278.197H62.3932C62.6483 278.197 62.893 278.299 63.0734 278.479C63.2538 278.66 63.3552 278.905 63.3552 279.16C63.3552 279.416 63.2538 279.661 63.0734 279.841C62.893 280.022 62.6483 280.123 62.3932 280.123H19.3775V345.386H62.3932C62.6479 345.387 62.892 345.488 63.0719 345.669C63.2517 345.849 63.3528 346.094 63.3528 346.349C63.3528 346.604 63.2517 346.849 63.0719 347.029C62.892 347.21 62.6479 347.311 62.3932 347.312Z" fill="white"/>
<path d="M294.364 167.146C293.798 166.658 293.142 166.284 292.434 166.048C290.848 165.557 289.184 165.376 287.53 165.514C286.317 165.583 285.112 165.751 283.926 166.017L228.564 181.698C227.518 181.992 226.49 182.334 225.48 182.726C221.911 181.327 211.822 177.282 210.716 175.831L206.376 177.102L213.611 187.913C213.428 187.993 213.273 188.126 213.167 188.296C213.061 188.465 213.009 188.663 213.017 188.862C213.025 189.062 213.093 189.255 213.212 189.415C213.332 189.575 213.497 189.696 213.685 189.761C222.026 192.628 234.622 188.821 234.622 188.821L282.996 174.984C282.996 174.984 297.597 170.04 294.364 167.146Z" fill="white"/>
<path d="M266.931 175.816L235.49 184.316L233.633 188.035L266.931 175.816Z" fill="#BCD3E8"/>
<path d="M333.393 352H0.607273C0.446214 352 0.291761 351.936 0.177875 351.822C0.0639891 351.708 0 351.553 0 351.392C0 351.231 0.0639891 351.076 0.177875 350.962C0.291761 350.848 0.446214 350.784 0.607273 350.784H333.393C333.554 350.784 333.708 350.848 333.822 350.962C333.936 351.076 334 351.231 334 351.392C334 351.553 333.936 351.708 333.822 351.822C333.708 351.936 333.554 352 333.393 352Z" fill="#BD1A8D"/>
<path d="M266.289 108.198C265.04 108.198 263.805 108.456 262.66 108.956C261.515 109.456 260.486 110.187 259.636 111.103C258.623 110.7 257.528 110.551 256.444 110.67C255.361 110.789 254.323 111.172 253.422 111.785C252.52 112.398 251.783 113.223 251.273 114.188C250.764 115.152 250.499 116.227 250.5 117.318H275.398C275.398 114.9 274.439 112.58 272.73 110.87C271.022 109.159 268.705 108.198 266.289 108.198Z" fill="white"/>
<path d="M132.689 78.4075C131.44 78.4072 130.205 78.665 129.06 79.1648C127.915 79.6646 126.886 80.3956 126.036 81.3121C125.023 80.9089 123.927 80.7603 122.844 80.8791C121.761 80.998 120.723 81.3808 119.822 81.994C118.92 82.6072 118.183 83.4322 117.673 84.3967C117.164 85.3613 116.898 86.4362 116.9 87.5272H141.798C141.798 85.1085 140.838 82.7889 139.13 81.0786C137.422 79.3683 135.105 78.4075 132.689 78.4075Z" fill="white"/>
<path d="M91.3946 158.053C90.1457 158.053 88.9101 158.311 87.7653 158.811C86.6205 159.31 85.5911 160.041 84.7415 160.958C83.7289 160.555 82.633 160.406 81.5497 160.525C80.4663 160.644 79.4286 161.027 78.5272 161.64C77.6258 162.253 76.8882 163.078 76.3789 164.042C75.8695 165.007 75.604 166.082 75.6055 167.173H100.504C100.504 165.975 100.268 164.789 99.8103 163.683C99.3525 162.577 98.6815 161.571 97.8357 160.724C96.9898 159.877 95.9856 159.206 94.8805 158.747C93.7753 158.289 92.5908 158.053 91.3946 158.053Z" fill="white"/>
</g>
<defs>
<clipPath id="clip0_4477_319411">
<rect width="334" height="297" fill="white" transform="translate(0 55)"/>
</clipPath>
</defs>
</svg>
