<svg width="119" height="20" viewBox="0 0 119 20" fill="none" xmlns="http://www.w3.org/2000/svg">
<g clip-path="url(#clip0_5402_62631)">
<path d="M92.1776 8.74831C94.4848 8.74831 96.3552 6.90186 96.3552 4.62416C96.3552 2.34645 94.4848 0.5 92.1776 0.5C89.8704 0.5 88 2.34645 88 4.62416C88 6.90186 89.8704 8.74831 92.1776 8.74831Z" fill="#065BAA"/>
<path d="M103.498 8.74831C105.805 8.74831 107.675 6.90186 107.675 4.62416C107.675 2.34645 105.805 0.5 103.498 0.5C101.191 0.5 99.3203 2.34645 99.3203 4.62416C99.3203 6.90186 101.191 8.74831 103.498 8.74831Z" fill="#065BAA"/>
<path d="M92.1776 18.5025C94.4848 18.5025 96.3552 16.656 96.3552 14.3783C96.3552 12.1006 94.4848 10.2542 92.1776 10.2542C89.8704 10.2542 88 12.1006 88 14.3783C88 16.656 89.8704 18.5025 92.1776 18.5025Z" fill="#BD1A8D"/>
<path d="M103.498 18.5022C105.805 18.5022 107.675 16.6558 107.675 14.3781C107.675 12.1004 105.805 10.2539 103.498 10.2539C101.191 10.2539 99.3203 12.1004 99.3203 14.3781C99.3203 16.6558 101.191 18.5022 103.498 18.5022Z" fill="#065BAA"/>
<path d="M114.826 18.5022C117.133 18.5022 119.004 16.6558 119.004 14.3781C119.004 12.1004 117.133 10.2539 114.826 10.2539C112.519 10.2539 110.648 12.1004 110.648 14.3781C110.648 16.6558 112.519 18.5022 114.826 18.5022Z" fill="#BD1A8D"/>
<path d="M9.07512 12.1785C8.94576 11.5757 8.64203 11.0555 8.22863 10.6603C7.79836 10.2025 6.52441 8.8862 5.50075 7.83711V7.8428L4.21274 6.51225C4.01026 6.30186 3.67561 6.29902 3.4675 6.50372L2.90224 7.0638C2.37916 7.58408 2.37072 8.43416 2.88255 8.96297C2.88255 8.96297 6.09695 12.3064 6.15319 12.3775C6.40348 12.639 6.22069 13.0769 5.86072 13.0769H1.44549C0.646817 13.0769 0 13.7308 0 14.5382V15.2205C0 15.5134 0.236229 15.7522 0.52589 15.7522C0.52589 15.7522 6.27693 15.7579 6.39786 15.7522C6.5441 15.7437 6.69033 15.7238 6.83938 15.6925C8.41705 15.3456 9.41821 13.7734 9.07512 12.1785Z" fill="#065BAA"/>
<path d="M51.1816 10.4728C51.1366 10.4188 49.4521 8.67884 48.6309 7.83445V7.84014L47.3429 6.50958C47.1404 6.29919 46.8058 6.29635 46.5977 6.50105L46.0324 7.06114C45.8384 7.25446 45.7174 7.49044 45.664 7.74063C45.0678 7.56151 44.4069 7.53024 43.7151 7.72357C42.4215 8.08748 41.4147 9.1849 41.1785 10.5211C41.0097 11.4622 41.2122 12.3464 41.6537 13.0657H37.4663C37.022 13.0657 36.662 12.7046 36.662 12.2554V9.76489C36.662 9.5346 36.4792 9.3498 36.2514 9.3498H35.3459C34.6119 9.3498 34.0157 9.95253 34.0157 10.6946V12.2185C34.0157 12.6876 33.6388 13.0685 33.1748 13.0685C32.7108 13.0685 32.334 12.6876 32.334 12.2185V9.76489C32.334 9.5346 32.1512 9.3498 31.9234 9.3498H31.0178C30.2838 9.3498 29.6876 9.95253 29.6876 10.6946V12.2185C29.6876 12.6876 29.3108 13.0685 28.8468 13.0685C28.3828 13.0685 28.0059 12.6876 28.0059 12.2185V9.76489C28.0059 9.5346 27.8231 9.3498 27.5953 9.3498H26.6898C25.9558 9.3498 25.3596 9.95253 25.3596 10.6946V12.2583C25.3596 12.7075 24.9996 13.0714 24.5553 13.0714H21.3634C20.9191 13.0714 20.5591 12.7075 20.5591 12.2583V9.76773C20.5591 9.53744 20.3763 9.35264 20.1485 9.35264H19.243C18.509 9.35264 17.9128 9.95537 17.9128 10.6974V12.2611C17.9128 12.7103 17.5528 13.0742 17.1085 13.0742H13.8491C13.4047 13.0742 13.0448 12.7103 13.0448 12.2611V4.44267C13.0448 4.21239 12.862 4.02759 12.6342 4.02759H11.7286C10.9946 4.02759 10.3984 4.63032 10.3984 5.37236V13.313C10.3984 14.6578 11.4755 15.7552 12.8085 15.7552H43.8839C44.0273 15.7552 44.1313 15.7239 44.2185 15.6898C44.3648 15.633 44.5982 15.5363 44.7472 15.4709C44.975 15.3714 45.0875 15.4595 45.0875 15.4595C46.4008 16.1902 47.4357 16.4091 48.0066 16.4745C48.046 16.4802 48.0854 16.483 48.1247 16.4859C48.2625 16.4973 48.361 16.5001 48.4228 16.5001C48.4678 16.5001 48.4903 16.5001 48.4903 16.5001C50.4561 16.4631 52.0422 14.8426 52.0422 12.8439C52.0422 12.0365 51.7778 11.2916 51.3391 10.6889C51.3391 10.6889 51.2548 10.5609 51.176 10.4785L51.1816 10.4728ZM46.1899 11.4281C46.0915 12.0848 45.56 12.6193 44.9103 12.7188C43.8698 12.8809 42.9867 11.9853 43.1442 10.9334C43.2427 10.2766 43.7742 9.74214 44.4238 9.64264C45.4643 9.48058 46.3474 10.3761 46.1899 11.4281ZM49.9527 13.0856C49.8543 13.7423 49.3227 14.2768 48.6731 14.3763C47.6326 14.5355 46.7495 13.6428 46.9098 12.5909C47.0083 11.9341 47.5398 11.3996 48.1866 11.2973C49.2271 11.1352 50.113 12.0308 49.9527 13.0827V13.0856Z" fill="#065BAA"/>
<path d="M61.4624 4.01318C60.7312 4.01318 60.1406 4.61023 60.1406 5.34942C60.1406 6.08862 60.7312 6.68566 61.4624 6.68566C62.1936 6.68566 62.7841 6.08862 62.7841 5.34942C62.7841 4.61023 62.1936 4.01318 61.4624 4.01318Z" fill="#065BAA"/>
<path d="M32.6889 4.01318C31.9578 4.01318 31.3672 4.61023 31.3672 5.34942C31.3672 6.08862 31.9578 6.68566 32.6889 6.68566C33.4201 6.68566 34.0107 6.08862 34.0107 5.34942C34.0107 4.61023 33.4201 4.01318 32.6889 4.01318Z" fill="#065BAA"/>
<path d="M29.8139 4.01318C29.0828 4.01318 28.4922 4.61023 28.4922 5.34942C28.4922 6.08862 29.0828 6.68566 29.8139 6.68566C30.5451 6.68566 31.1357 6.08862 31.1357 5.34942C31.1357 4.61023 30.5451 4.01318 29.8139 4.01318Z" fill="#065BAA"/>
<path d="M31.2593 1.5C30.5281 1.5 29.9375 2.09704 29.9375 2.83624C29.9375 3.57543 30.5281 4.17248 31.2593 4.17248C31.9904 4.17248 32.581 3.57543 32.581 2.83624C32.581 2.09704 31.9904 1.5 31.2593 1.5Z" fill="#065BAA"/>
<path d="M19.2046 4.01318C18.4734 4.01318 17.8828 4.61023 17.8828 5.34942C17.8828 6.08862 18.4734 6.68566 19.2046 6.68566C19.9358 6.68566 20.5263 6.08862 20.5263 5.34942C20.5263 4.61023 19.9358 4.01318 19.2046 4.01318Z" fill="#065BAA"/>
<path d="M16.3296 4.01318C15.5984 4.01318 15.0078 4.61023 15.0078 5.34942C15.0078 6.08862 15.5984 6.68566 16.3296 6.68566C17.0608 6.68566 17.6513 6.08862 17.6513 5.34942C17.6513 4.61023 17.0608 4.01318 16.3296 4.01318Z" fill="#065BAA"/>
<path d="M79.9973 12.8382C79.9973 12.0308 79.7329 11.2859 79.2942 10.6832C79.2942 10.6832 79.2099 10.5552 79.1311 10.4728C79.0861 10.4188 77.4016 8.67882 76.5804 7.83443V7.84012L75.2924 6.50956C75.0899 6.29917 74.7553 6.29633 74.5472 6.50103L73.9819 7.06112C73.7878 7.25444 73.6669 7.49042 73.6135 7.74061C73.0173 7.56149 72.3564 7.53022 71.6646 7.72355C70.371 8.08746 69.3642 9.18488 69.128 10.5211C68.9592 11.4622 69.1617 12.3464 69.6032 13.0657H67.9131H64.6452L64.4737 13.0628C64.8083 12.5141 65.0052 11.8716 65.0052 11.1807C65.0052 9.1991 63.4163 7.59277 61.4561 7.59277C59.496 7.59277 57.9071 9.1991 57.9071 11.1807C57.9071 11.8716 58.1039 12.517 58.4386 13.0628L58.4442 13.0714H54.7208C53.9868 13.0714 53.3906 13.6741 53.3906 14.4161V15.3401C53.3906 15.5704 53.5734 15.7552 53.8012 15.7552H67.9103L71.4002 15.7524H71.8361C71.9796 15.7524 72.0836 15.7211 72.1708 15.687C72.317 15.6301 72.5505 15.5334 72.6995 15.4681C72.9273 15.3685 73.0398 15.4567 73.0398 15.4567C74.3531 16.1873 75.388 16.4063 75.9589 16.4717C75.9983 16.4773 76.0376 16.4802 76.077 16.483C76.2148 16.4944 76.3132 16.4972 76.3751 16.4972C76.4201 16.4972 76.4426 16.4972 76.4426 16.4972C78.4084 16.4603 79.9945 14.8397 79.9945 12.8411L79.9973 12.8382ZM61.459 12.7387C60.6097 12.7387 59.9179 12.0422 59.9179 11.1807C59.9179 10.3193 60.6069 9.62271 61.459 9.62271C62.3111 9.62271 63.0001 10.3193 63.0001 11.1807C63.0001 12.0422 62.3111 12.7387 61.459 12.7387ZM74.1422 11.4281C74.0438 12.0848 73.5122 12.6193 72.8626 12.7188C71.8221 12.8809 70.939 11.9853 71.0965 10.9334C71.195 10.2766 71.7265 9.74212 72.3761 9.64262C73.4166 9.48056 74.2997 10.3761 74.1422 11.4281ZM77.905 13.0856C77.8065 13.7423 77.275 14.2768 76.6254 14.3763C75.5849 14.5355 74.7018 13.6428 74.8621 12.5909C74.9606 11.9341 75.4921 11.3996 76.1389 11.2973C77.1794 11.1352 78.0653 12.0308 77.905 13.0827V13.0856Z" fill="#065BAA"/>
</g>
<defs>
<clipPath id="clip0_5402_62631">
<rect width="119" height="19" fill="white" transform="translate(0 0.5)"/>
</clipPath>
</defs>
</svg>
