<svg width="139" height="25" viewBox="0 0 139 25" fill="none" xmlns="http://www.w3.org/2000/svg">
<path fill-rule="evenodd" clip-rule="evenodd" d="M13.2679 14.9473C13.7487 15.3854 14.1037 15.9633 14.2546 16.6325L14.2574 16.6379C14.6543 18.4091 13.4859 20.1535 11.6467 20.5378C11.4734 20.5728 11.3029 20.5943 11.1324 20.605C10.9926 20.6104 4.28144 20.605 4.28144 20.605C3.94043 20.605 3.6665 20.3389 3.6665 20.0137V19.2558C3.6665 18.3608 4.4212 17.6351 5.35199 17.6351H10.5091C10.9284 17.6351 11.1436 17.1486 10.8501 16.8583C10.783 16.7804 7.03468 13.0686 7.03468 13.0686C6.43652 12.4799 6.4449 11.5365 7.05704 10.9587L7.7167 10.3378C7.95709 10.1093 8.34562 10.112 8.58321 10.3459L10.087 11.8214V11.8134L10.0918 11.8181C11.2817 12.9837 12.7683 14.44 13.2679 14.9473ZM63.3824 14.7403C63.3293 14.6785 61.3643 12.7487 60.4055 11.8134V11.8214L58.9017 10.3458C58.6642 10.112 58.2756 10.1093 58.0352 10.3378L57.3756 10.9587C57.1492 11.171 57.0066 11.4344 56.9451 11.7112C56.2491 11.5123 55.4777 11.4774 54.6726 11.6924C53.1633 12.0956 51.9893 13.3131 51.7126 14.7968C51.5169 15.8423 51.7517 16.8233 52.2688 17.6216H47.3828C46.8657 17.6216 46.4465 17.2211 46.4465 16.7212V13.9582C46.4465 13.7028 46.2312 13.4986 45.9685 13.4986H44.9119C44.0566 13.4986 43.3606 14.1651 43.3606 14.9903V16.6809C43.3606 17.2023 42.9218 17.6243 42.3795 17.6243C41.8372 17.6243 41.3984 17.2023 41.3984 16.6809V13.9582C41.3984 13.7028 41.1832 13.4986 40.9204 13.4986H39.8638C39.0085 13.4986 38.3125 14.1651 38.3125 14.9903V16.6809C38.3125 17.2023 37.8737 17.6243 37.3314 17.6243C36.7892 17.6243 36.3503 17.2023 36.3503 16.6809V13.9582C36.3503 13.7028 36.1351 13.4986 35.8723 13.4986H34.8158C33.9604 13.4986 33.2644 14.1651 33.2644 14.9903V16.7239C33.2644 17.2211 32.8452 17.6243 32.3281 17.6243H28.6049C28.0878 17.6243 27.6685 17.2211 27.6685 16.7239V13.9582C27.6685 13.7028 27.4533 13.4986 27.1905 13.4986H26.134C25.2787 13.4986 24.5827 14.1651 24.5827 14.9903V16.7239C24.5827 17.2211 24.1634 17.6243 23.6463 17.6243H19.842C19.3249 17.6243 18.9057 17.2211 18.9057 16.7239V8.04781C18.9057 7.79247 18.6904 7.58821 18.4277 7.58821H17.3711C16.5158 7.58821 15.8198 8.25477 15.8198 9.07991V17.8904C15.8198 19.3821 17.0776 20.5996 18.6289 20.5996H54.8767C55.0444 20.5996 55.1674 20.5647 55.268 20.5271C55.4385 20.4626 55.7125 20.3577 55.8857 20.2852C56.1513 20.1723 56.2827 20.2717 56.2827 20.2717C57.8144 21.0834 59.0219 21.3253 59.6872 21.3979C59.7319 21.4033 59.7794 21.4086 59.8241 21.4113C59.9835 21.4248 60.1009 21.4275 60.1735 21.4275H60.2518C62.5466 21.3845 64.3942 19.5863 64.3942 17.3716C64.3942 16.4739 64.0868 15.6515 63.5725 14.9795C63.5725 14.9795 63.4746 14.8398 63.3824 14.7484V14.7403ZM57.5601 15.7993C57.4455 16.5277 56.8249 17.1217 56.0674 17.2319C54.8543 17.412 53.8229 16.4202 54.0074 15.251C54.122 14.5226 54.7425 13.9286 55.5 13.8184C56.7131 13.6383 57.7445 14.6301 57.5601 15.7993ZM61.9485 17.6377C61.8311 18.3661 61.2133 18.9601 60.4559 19.0703C59.2428 19.2477 58.2113 18.2586 58.3958 17.0894C58.5104 16.361 59.1309 15.767 59.8856 15.6542C61.1015 15.4741 62.1329 16.4685 61.9457 17.635L61.9485 17.6377ZM73.828 9.05842C73.828 8.23865 74.5184 7.57478 75.371 7.57478C76.2235 7.57478 76.9139 8.23865 76.9139 9.05842C76.9139 9.87818 76.2235 10.5421 75.371 10.5421C74.5184 10.5421 73.828 9.87818 73.828 9.05842ZM26.9479 7.21329C25.8852 7.21329 25.0269 7.99259 25.0269 8.95744C25.0269 9.92229 25.8852 10.7016 26.9479 10.7016C28.0105 10.7016 28.8688 9.92229 28.8688 8.95744C28.8688 7.99259 28.0105 7.21329 26.9479 7.21329ZM20.8502 8.95744C20.8502 7.99259 21.7085 7.21329 22.7711 7.21329C23.8338 7.21329 24.6921 7.99259 24.6921 8.95744C24.6921 9.92229 23.8338 10.7016 22.7711 10.7016C21.7085 10.7016 20.8502 9.92229 20.8502 8.95744ZM96.9998 17.3663C96.9998 16.4686 96.6924 15.6461 96.178 14.9742C96.178 14.9742 96.0802 14.8344 95.988 14.743C95.9349 14.6812 93.9699 12.7514 93.0111 11.8161V11.8241L91.5073 10.3486C91.2697 10.1147 90.8812 10.112 90.6408 10.3405L89.9812 10.9614C89.7547 11.1737 89.6122 11.4371 89.5507 11.7139C88.8547 11.515 88.0832 11.4801 87.2782 11.6951C85.7688 12.0983 84.5949 13.3158 84.3181 14.7995C84.1225 15.845 84.3573 16.826 84.8744 17.6243H79.0884L78.8871 17.6216C79.2785 17.0142 79.5077 16.2992 79.5077 15.5332C79.5077 13.3347 77.6545 11.5527 75.368 11.5527C73.0816 11.5527 71.2284 13.3347 71.2284 15.5332C71.2284 16.2992 71.4576 17.0142 71.8489 17.6216L71.8573 17.6324H67.5108C66.6555 17.6324 65.9595 18.2989 65.9595 19.1241V20.1481C65.9595 20.4035 66.1747 20.6077 66.4375 20.6077L87.4795 20.605C87.6472 20.605 87.7702 20.5701 87.8708 20.5325C88.0413 20.468 88.3152 20.3631 88.4885 20.2906C88.7541 20.1777 88.8854 20.2771 88.8854 20.2771C90.4172 21.0888 91.6247 21.3307 92.29 21.4033C92.3347 21.4087 92.3822 21.414 92.4269 21.4167C92.5863 21.4302 92.7036 21.4329 92.7763 21.4329H92.8546C95.1494 21.3899 96.997 19.5917 96.997 17.377L96.9998 17.3663ZM75.3708 17.2561C74.3785 17.2561 73.5735 16.482 73.5735 15.5279C73.5735 14.5737 74.3785 13.7996 75.3708 13.7996C76.3631 13.7996 77.1681 14.5737 77.1681 15.5279C77.1681 16.482 76.3631 17.2561 75.3708 17.2561ZM90.1656 15.802C90.051 16.5304 89.4305 17.1244 88.673 17.2346C87.4599 17.4147 86.4285 16.4229 86.613 15.2537C86.7276 14.5253 87.3481 13.9313 88.1056 13.8211C89.3187 13.6411 90.3501 14.6328 90.1656 15.802ZM94.5541 17.6404C94.4367 18.3688 93.8189 18.9628 93.0614 19.073C91.8483 19.2504 90.8169 18.2613 91.0014 17.0921C91.116 16.3638 91.7365 15.7698 92.4912 15.6569C93.7071 15.4768 94.7385 16.4713 94.5513 17.6378L94.5541 17.6404ZM41.0656 8.95737C41.0656 7.99252 41.9239 7.21322 42.9865 7.21322C44.0492 7.21322 44.9075 7.99252 44.9075 8.95737C44.9075 9.92222 44.0492 10.7015 42.9865 10.7015C41.9239 10.7015 41.0656 9.92222 41.0656 8.95737ZM38.8092 7.21322C37.7465 7.21322 36.8882 7.99252 36.8882 8.95737C36.8882 9.92222 37.7465 10.7015 38.8092 10.7015C39.8718 10.7015 40.7302 9.92222 40.7302 8.95737C40.7302 7.99252 39.8718 7.21322 38.8092 7.21322ZM38.9847 5.67701C38.9847 4.71216 39.843 3.93286 40.9057 3.93286C41.9683 3.93286 42.8266 4.71216 42.8266 5.67701C42.8266 6.64186 41.9683 7.42115 40.9057 7.42115C39.843 7.42115 38.9847 6.64186 38.9847 5.67701Z" fill="white"/>
<path d="M120.917 21.4357C123.088 21.4357 124.848 19.6405 124.848 17.426C124.848 15.2115 123.088 13.4163 120.917 13.4163C118.747 13.4163 116.987 15.2115 116.987 17.426C116.987 19.6405 118.747 21.4357 120.917 21.4357Z" fill="white"/>
<path d="M120.917 11.9523C123.088 11.9523 124.848 10.1571 124.848 7.94256C124.848 5.72807 123.088 3.93286 120.917 3.93286C118.747 3.93286 116.987 5.72807 116.987 7.94256C116.987 10.1571 118.747 11.9523 120.917 11.9523Z" fill="white"/>
<path d="M110.264 11.9523C112.434 11.9523 114.194 10.1571 114.194 7.94256C114.194 5.72807 112.434 3.93286 110.264 3.93286C108.093 3.93286 106.333 5.72807 106.333 7.94256C106.333 10.1571 108.093 11.9523 110.264 11.9523Z" fill="white"/>
<path fill-rule="evenodd" clip-rule="evenodd" d="M110.264 21.4357C112.434 21.4357 114.194 19.6405 114.194 17.426C114.194 15.2115 112.434 13.4163 110.264 13.4163C108.093 13.4163 106.333 15.2115 106.333 17.426C106.333 19.6405 108.093 21.4357 110.264 21.4357ZM110.264 20.4634C111.941 20.4634 113.263 19.0818 113.263 17.426C113.263 15.7701 111.941 14.3885 110.264 14.3885C108.586 14.3885 107.264 15.7701 107.264 17.426C107.264 19.0818 108.586 20.4634 110.264 20.4634Z" fill="white"/>
<path d="M113.263 17.426C113.263 19.0818 111.941 20.4634 110.264 20.4634C108.586 20.4634 107.264 19.0818 107.264 17.426C107.264 15.7701 108.586 14.3885 110.264 14.3885C111.941 14.3885 113.263 15.7701 113.263 17.426Z" fill="white"/>
<path d="M134.569 17.426C134.569 19.0818 133.247 20.4634 131.569 20.4634C129.891 20.4634 128.569 19.0818 128.569 17.426C128.569 15.7701 129.891 14.3885 131.569 14.3885C133.247 14.3885 134.569 15.7701 134.569 17.426Z" fill="white"/>
<path fill-rule="evenodd" clip-rule="evenodd" d="M131.569 21.4357C133.74 21.4357 135.5 19.6405 135.5 17.426C135.5 15.2115 133.74 13.4163 131.569 13.4163C129.398 13.4163 127.639 15.2115 127.639 17.426C127.639 19.6405 129.398 21.4357 131.569 21.4357ZM131.569 20.4634C133.247 20.4634 134.569 19.0818 134.569 17.426C134.569 15.7701 133.247 14.3885 131.569 14.3885C129.891 14.3885 128.569 15.7701 128.569 17.426C128.569 19.0818 129.891 20.4634 131.569 20.4634Z" fill="white"/>
</svg>
