<svg id="_780-text_Logotype-black-96px" data-name="780-text Logotype-black-96px" xmlns="http://www.w3.org/2000/svg" width="102" height="20.069">
    <defs>
        <style>
            .cls-1{fill:#b20784}
        </style>
    </defs>
    <circle id="Ellipse_915" data-name="Ellipse 915" class="cls-1" cx="2.071" cy="2.071" transform="translate(78.682 2.203)" r="2.071"/>
    <circle id="Ellipse_916" data-name="Ellipse 916" class="cls-1" cx="1.952" cy="1.952" r="1.952" transform="rotate(-45 24.967 -38.93)"/>
    <circle id="Ellipse_917" data-name="Ellipse 917" class="cls-1" cx="1.952" cy="1.952" r="1.952" transform="rotate(-9.22 48.617 -244.33)"/>
    <circle id="Ellipse_918" data-name="Ellipse 918" class="cls-1" cx="1.952" cy="1.952" r="1.952" transform="rotate(-13.28 22.595 -160.55)"/>
    <circle id="Ellipse_919" data-name="Ellipse 919" class="cls-1" cx="1.952" cy="1.952" r="1.952" transform="rotate(-45 19.272 -25.45)"/>
    <circle id="Ellipse_920" data-name="Ellipse 920" class="cls-1" cx="1.952" cy="1.952" r="1.952" transform="rotate(-13.28 30.085 -81.775)"/>
    <path id="Path_41881" data-name="Path 41881" class="cls-1" d="m399.846 222.81-2.654 2.462a4.25 4.25 0 0 0-4.963 6.476h-2.95a4.8 4.8 0 1 0-8.457 0h-7.262a2.4 2.4 0 0 0-2.4 2.4v1.223h11.852a3.243 3.243 0 0 0 2.193-.855 3.243 3.243 0 0 0 2.193.855h6.525a3.25 3.25 0 0 0 2.484-1.152l.746.8a5.021 5.021 0 0 0 7.094.267l.183-.163a5.021 5.021 0 0 0 .267-7.094zm-14.805 4.752a1.924 1.924 0 1 0 .009 0zm11.027 3.55a1.893 1.893 0 1 1 .009 0zm5.052 2.517a2.011 2.011 0 1 1 2.011-2.011 2.011 2.011 0 0 1-2.011 2.011z" transform="translate(-304.036 -216.559)"/>
    <path id="Path_41882" data-name="Path 41882" class="cls-1" d="m125.233 207.651-2.654 2.462a4.25 4.25 0 0 0-4.963 6.476h-3.868c.013-.135.02-.272.02-.413v-4.361h-1.994a1.7 1.7 0 0 0-1.7 1.7v2.422a1.11 1.11 0 0 1-.974 1.119 1.078 1.078 0 0 1-1.184-1.073v-4.166H105.9a1.7 1.7 0 0 0-1.7 1.7V216a1.042 1.042 0 0 1-.95 1.058 1 1 0 0 1-1.056-1v-4.241h-2.045a1.7 1.7 0 0 0-1.7 1.7v2.276a.983.983 0 0 1-.983.983h-2.6a.983.983 0 0 1-.983-.983v-3.974h-2.366a1.28 1.28 0 0 0-1.289 1.279v2.559a.868.868 0 0 1-.868.866h-5.435V204.26h-1.881a1.764 1.764 0 0 0-1.764 1.764v10.93a3.254 3.254 0 0 0 3.254 3.255h6.58a3.758 3.758 0 0 0 2.193-.709 4.334 4.334 0 0 0 2.818 1.038h2.7a4.347 4.347 0 0 0 2.872-1.075 4.339 4.339 0 0 0 2.861 1.075 4.342 4.342 0 0 0 2.924-1.133 4.336 4.336 0 0 0 2.925 1.133 4.348 4.348 0 0 0 3.27-1.482 1.884 1.884 0 0 0 1.738 1.153h5.685a3.246 3.246 0 0 0 2.073-.744l.366.4a5.021 5.021 0 0 0 7.094.267l.183-.163a5.019 5.019 0 0 0 .267-7.094zm-3.767 8.3a1.9 1.9 0 1 1 1.343-.554 1.9 1.9 0 0 1-1.343.554zm5.043 2.517a2.011 2.011 0 1 1 2.011-2.011 2.011 2.011 0 0 1-2.011 2.012z" transform="translate(-66.323 -201.399)"/>
    <path id="Path_41883" data-name="Path 41883" class="cls-1" d="m9.586 221.22-1.25 1.126a2.08 2.08 0 0 0-.152 2.937l4.537 5.036H6.254a2.334 2.334 0 0 0-2.334 2.334v1.417h9.322a3.378 3.378 0 0 0 3.372-3.171 4.2 4.2 0 0 0-1.075-3.078z" transform="translate(-3.92 -215.261)"/>
</svg>
