<svg width="24" height="24" fill="none" xmlns="http://www.w3.org/2000/svg"><g clip-path="url(#780_user_chance_svg__a)"><path d="M23.415 7.996v8.008a3.378 3.378 0 0 1-1.88 2.927l-7.61 4.004a4.156 4.156 0 0 1-3.804 0l-7.61-4.004a3.377 3.377 0 0 1-1.879-2.927V7.996a3.378 3.378 0 0 1 1.88-2.927l7.609-4.004a4.156 4.156 0 0 1 3.805 0l7.61 4.004a3.378 3.378 0 0 1 1.879 2.927Z" fill="#5776CD"></path><path d="M14.23 13.78a2.418 2.418 0 0 0-3.377-1.171c-.287.148-.535.36-.726.62a2.693 2.693 0 0 0-.545 1.499 2.002 2.002 0 0 0 .586 1.633 2.704 2.704 0 0 0-2.031 2.558.375.375 0 0 0 .123.275c.085.071.193.11.304.111h6.849c.111 0 .219-.04.304-.11a.374.374 0 0 0 .123-.276 2.786 2.786 0 0 0-2.025-2.529 2.436 2.436 0 0 0 .415-2.61ZM12 13.106a1.551 1.551 0 1 1 0 3.102 1.551 1.551 0 0 1 0-3.102Zm-2.927 5.42a2.113 2.113 0 0 1 2.049-1.55h1.756a2.114 2.114 0 0 1 2.09 1.545l-5.895.006ZM8.821 15.805a.41.41 0 0 0-.427-.386H4.361a2.102 2.102 0 0 1 2.078-1.54h1.943a.388.388 0 1 0 .07-.773.142.142 0 0 0-.07 0H7.305a1.755 1.755 0 0 1-1.686-1.083 1.504 1.504 0 0 1 .627-1.785 1.891 1.891 0 0 1 2.06 0 1.499 1.499 0 0 1 .586 1.791.351.351 0 0 0 .082.387.427.427 0 0 0 .41.123.41.41 0 0 0 .315-.27 2.242 2.242 0 0 0-1.276-2.81 2.722 2.722 0 0 0-3.248.744 2.172 2.172 0 0 0 .35 3.026 2.746 2.746 0 0 0-2.066 2.576.416.416 0 0 0 .428.392h4.501a.416.416 0 0 0 .433-.392ZM18.445 13.241a2.189 2.189 0 0 0 .369-3.05 2.722 2.722 0 0 0-3.273-.749 2.26 2.26 0 0 0-1.27 2.85.421.421 0 0 0 .322.27.463.463 0 0 0 .41-.123.363.363 0 0 0 .076-.386 1.475 1.475 0 0 1 .585-1.756 1.827 1.827 0 0 1 2.002 0 1.47 1.47 0 0 1 .62 1.727 1.704 1.704 0 0 1-1.615 1.065h-1.065a.389.389 0 1 0 0 .773h1.955a2.114 2.114 0 0 1 2.096 1.55h-4.04a.392.392 0 0 0-.42.352.398.398 0 0 0 .356.427h4.572a.416.416 0 0 0 .427-.386 2.757 2.757 0 0 0-2.107-2.564ZM15.489 3.934a.363.363 0 0 0-.229-.082h-.766v-.164a.31.31 0 0 0-.322-.293H9.828a.322.322 0 0 0-.222.094.27.27 0 0 0-.094.205v.164H8.74a.334.334 0 0 0-.222.082.281.281 0 0 0-.094.205 3.822 3.822 0 0 0 .685 2.253 2.248 2.248 0 0 0 1.651.99c.115.112.243.21.38.292v.656h-.228a.826.826 0 0 0-.86.784v.246a.293.293 0 0 0-.226.278c0 .053.015.105.044.15a.351.351 0 0 0 .287.14h3.694a.31.31 0 0 0 .31-.293.287.287 0 0 0-.21-.27V9.15a.825.825 0 0 0-.861-.784h-.211V7.68c.136-.082.262-.18.375-.293a2.26 2.26 0 0 0 1.65-.995 3.805 3.805 0 0 0 .691-2.247.281.281 0 0 0-.105-.211Zm-.586.497a3.19 3.19 0 0 1-.585 1.64l-.035.046c-.132.18-.294.334-.48.457.357-.664.58-1.392.655-2.143h.445ZM12.878 6.89l-.035.035c-.117.131-.258.238-.416.316h-.035a.907.907 0 0 1-.76 0h-.03a1.575 1.575 0 0 1-.416-.31l-.064-.03a2.776 2.776 0 0 1-.386-.555 5.467 5.467 0 0 1-.586-2.342h3.694a5.601 5.601 0 0 1-.585 2.377 2.886 2.886 0 0 1-.381.509Zm-1.089 1.018h.445v.422h-.445v-.422Zm-1.621-1.334a2.107 2.107 0 0 1-.515-.504 3.249 3.249 0 0 1-.586-1.639h.469c.067.748.278 1.475.62 2.143h.012Zm2.927 2.341a.217.217 0 0 1 .222.205v.2h-2.628v-.2a.217.217 0 0 1 .222-.205h2.184Z" fill="#fff"></path><path d="M21.805 4.531 14.172.527a4.741 4.741 0 0 0-4.344 0l-7.61 4.004A3.951 3.951 0 0 0 0 7.996v8.008a3.95 3.95 0 0 0 2.195 3.465l7.61 4.004a4.74 4.74 0 0 0 4.343 0l7.61-4.003A3.95 3.95 0 0 0 24 16.003V7.996a3.95 3.95 0 0 0-2.195-3.465Zm1.61 11.473a3.377 3.377 0 0 1-1.88 2.927l-7.61 4.004a4.157 4.157 0 0 1-3.804 0l-7.61-4.004a3.378 3.378 0 0 1-1.879-2.927V7.996a3.378 3.378 0 0 1 1.88-2.926l7.609-4.004a4.156 4.156 0 0 1 3.805 0l7.61 4.004a3.378 3.378 0 0 1 1.879 2.926v8.008Z" fill="#C3D0E5"></path></g><defs><clipPath id="780_user_chance_svg__a"><path fill="#fff" d="M0 0h24v24H0z"></path></clipPath></defs></svg>
