<svg width="24" height="25" viewBox="0 0 24 25" fill="none" xmlns="http://www.w3.org/2000/svg">
<g id="Property 1=android">
<path id="Vector" d="M7.2 17.5C7.2 17.9583 7.56 18.3333 8 18.3333H8.8V21.25C8.8 21.9417 9.336 22.5 10 22.5C10.664 22.5 11.2 21.9417 11.2 21.25V18.3333H12.8V21.25C12.8 21.9417 13.336 22.5 14 22.5C14.664 22.5 15.2 21.9417 15.2 21.25V18.3333H16C16.44 18.3333 16.8 17.9583 16.8 17.5V9.16667H7.2V17.5ZM5.2 9.16667C4.536 9.16667 4 9.725 4 10.4167V16.25C4 16.9417 4.536 17.5 5.2 17.5C5.864 17.5 6.4 16.9417 6.4 16.25V10.4167C6.4 9.725 5.864 9.16667 5.2 9.16667ZM18.8 9.16667C18.136 9.16667 17.6 9.725 17.6 10.4167V16.25C17.6 16.9417 18.136 17.5 18.8 17.5C19.464 17.5 20 16.9417 20 16.25V10.4167C20 9.725 19.464 9.16667 18.8 9.16667ZM14.824 4.3L15.864 3.21667C16.024 3.05 16.024 2.79167 15.864 2.625C15.704 2.45833 15.456 2.45833 15.296 2.625L14.112 3.85833C13.48 3.525 12.76 3.33333 12 3.33333C11.232 3.33333 10.512 3.525 9.872 3.85833L8.68 2.625C8.52 2.45833 8.272 2.45833 8.112 2.625C7.952 2.79167 7.952 3.05 8.112 3.21667L9.16 4.30833C7.976 5.21667 7.2 6.675 7.2 8.33333H16.8C16.8 6.675 16.024 5.20833 14.824 4.3ZM10.4 6.66667H9.6V5.83333H10.4V6.66667ZM14.4 6.66667H13.6V5.83333H14.4V6.66667Z" fill="#065BAA"/>
</g>
</svg>
