<svg width="24" height="25" viewBox="0 0 24 25" fill="none" xmlns="http://www.w3.org/2000/svg">
<g id="Property 1=ios">
<path id="Path 54179" fill-rule="evenodd" clip-rule="evenodd" d="M15.2916 2.5C14.2253 2.57375 12.979 3.2563 12.2527 4.1451C11.5901 4.9514 11.0451 6.14856 11.2576 7.3128C12.4227 7.34864 13.6265 6.65026 14.324 5.74645C14.9766 4.90515 15.4704 3.71508 15.2916 2.5Z" fill="#065BAA"/>
<path id="Path 54180" fill-rule="evenodd" clip-rule="evenodd" d="M19.5055 9.20816C18.4817 7.92474 17.0428 7.17969 15.684 7.17969C13.8902 7.17969 13.1314 8.03808 11.8851 8.03808C10.6 8.03808 9.62369 7.1822 8.07235 7.1822C6.5485 7.1822 4.9259 8.11309 3.89709 9.70569C2.45075 11.9483 2.69826 16.1653 5.04216 19.7563C5.88096 21.0414 7.00103 22.4865 8.46612 22.499C9.76995 22.5115 10.1375 21.6631 11.9038 21.6539C13.6702 21.6439 14.0052 22.5107 15.3065 22.4965C16.7728 22.4857 17.9541 20.8839 18.7929 19.5988C19.3942 18.6779 19.618 18.2137 20.0843 17.1736C16.6928 15.8827 16.149 11.0599 19.5055 9.20815V9.20816Z" fill="#065BAA"/>
</g>
</svg>
