<svg width="22" height="9" viewBox="0 0 22 9" fill="none" xmlns="http://www.w3.org/2000/svg">
<g id="Group">
<path id="Vector" d="M15.957 7.06715L16.5637 5.51492H18.3153L17.484 3.16026L18.5237 0.5L21.5016 8.49998H19.3055L18.7967 7.06715H15.957Z" fill="#065BAA"/>
<path id="Vector_2" d="M14.0817 8.49999L17.2696 0.5L15.1562 0.500011L12.9755 5.66978L11.4248 0.500021H9.8003L8.13527 5.66978L6.96106 3.31402L5.89844 6.62645L6.97731 8.49999H9.05721L10.5618 3.86382L11.9964 8.49999H14.0817Z" fill="#065BAA"/>
<path id="Vector_3" d="M2.50615 5.75372H3.80792C4.20225 5.75372 4.55339 5.70919 4.86133 5.62012L5.19799 4.57069L6.13889 1.63769C6.06719 1.52271 5.98535 1.414 5.89334 1.31157C5.41025 0.770518 4.70343 0.5 3.77288 0.5H0.5V8.49998H2.50615V5.75372ZM4.22924 2.34047C4.41794 2.53263 4.51228 2.78978 4.51228 3.11193C4.51228 3.43655 4.4293 3.69401 4.26336 3.88431C4.08144 4.09575 3.74646 4.20147 3.25844 4.20147H2.50615V2.05222H3.26397C3.7188 2.05222 4.04055 2.14831 4.22924 2.34047Z" fill="#065BAA"/>
</g>
</svg>
