<svg width="19" height="18" viewBox="0 0 19 18" fill="none" xmlns="http://www.w3.org/2000/svg">
<g id="forum">
<path id="Union" d="M17 16.5L14 13.5H6.5C6.0875 13.5 5.73438 13.3531 5.44063 13.0594C5.14688 12.7656 5 12.4125 5 12V11.25H13.25C13.6625 11.25 14.0156 11.1031 14.3094 10.8094C14.6031 10.5156 14.75 10.1625 14.75 9.75V4.5H15.5C15.9125 4.5 16.2656 4.64688 16.5594 4.94063C16.8531 5.23438 17 5.5875 17 6V16.5ZM3.5 9.13125L4.38125 8.25H11.75V3H3.5V9.13125ZM2 12.75V3C2 2.5875 2.14688 2.23438 2.44063 1.94063C2.73438 1.64688 3.0875 1.5 3.5 1.5H11.75C12.1625 1.5 12.5156 1.64688 12.8094 1.94063C13.1031 2.23438 13.25 2.5875 13.25 3V8.25C13.25 8.6625 13.1031 9.01563 12.8094 9.30938C12.5156 9.60313 12.1625 9.75 11.75 9.75H5L2 12.75Z" fill="#105FAE"/>
</g>
</svg>
