<svg width="24" height="25" viewBox="0 0 24 25" fill="none" xmlns="http://www.w3.org/2000/svg">
<g id="Actions/file_download">
<path id="Vector" d="M12 15.7492C11.8833 15.7492 11.771 15.7286 11.663 15.6872C11.5543 15.6452 11.4583 15.5742 11.375 15.4742L8.25 12.3742C8.11667 12.2409 8.05 12.0659 8.05 11.8492C8.05 11.6326 8.11667 11.4576 8.25 11.3242C8.4 11.1742 8.579 11.0949 8.787 11.0862C8.99567 11.0782 9.175 11.1492 9.325 11.2992L11.25 13.2242V5.57422C11.25 5.35755 11.321 5.17822 11.463 5.03622C11.6043 4.89489 11.7833 4.82422 12 4.82422C12.2167 4.82422 12.396 4.89489 12.538 5.03622C12.6793 5.17822 12.75 5.35755 12.75 5.57422V13.2242L14.675 11.2992C14.8083 11.1659 14.9833 11.0992 15.2 11.0992C15.4167 11.0992 15.6 11.1742 15.75 11.3242C15.8833 11.4576 15.95 11.6282 15.95 11.8362C15.95 12.0449 15.8833 12.2242 15.75 12.3742L12.625 15.4742C12.5417 15.5742 12.446 15.6452 12.338 15.6872C12.2293 15.7286 12.1167 15.7492 12 15.7492ZM6.3 19.9992C5.8 19.9992 5.375 19.8242 5.025 19.4742C4.675 19.1242 4.5 18.6992 4.5 18.1992V16.2492C4.5 16.0326 4.571 15.8532 4.713 15.7112C4.85433 15.5699 5.03333 15.4992 5.25 15.4992C5.46667 15.4992 5.64567 15.5699 5.787 15.7112C5.929 15.8532 6 16.0326 6 16.2492V18.1992C6 18.2659 6.03333 18.3326 6.1 18.3992C6.16667 18.4659 6.23333 18.4992 6.3 18.4992H17.7C17.7667 18.4992 17.8333 18.4659 17.9 18.3992C17.9667 18.3326 18 18.2659 18 18.1992V16.2492C18 16.0326 18.0707 15.8532 18.212 15.7112C18.354 15.5699 18.5333 15.4992 18.75 15.4992C18.9667 15.4992 19.146 15.5699 19.288 15.7112C19.4293 15.8532 19.5 16.0326 19.5 16.2492V18.1992C19.5 18.6992 19.325 19.1242 18.975 19.4742C18.625 19.8242 18.2 19.9992 17.7 19.9992H6.3Z" fill="#065BAA"/>
</g>
</svg>
