<svg width="44" height="44" viewBox="0 0 44 44" fill="none" xmlns="http://www.w3.org/2000/svg">
<path d="M22 32.625C22.6021 32.625 23.1068 32.4214 23.5141 32.0141C23.9214 31.6068 24.125 31.1021 24.125 30.5V22C24.125 21.3979 23.9214 20.8932 23.5141 20.4859C23.1068 20.0786 22.6021 19.875 22 19.875C21.3979 19.875 20.8932 20.0786 20.4859 20.4859C20.0786 20.8932 19.875 21.3979 19.875 22V30.5C19.875 31.1021 20.0786 31.6068 20.4859 32.0141C20.8932 32.4214 21.3979 32.625 22 32.625ZM22 15.625C22.6021 15.625 23.1068 15.4214 23.5141 15.0141C23.9214 14.6068 24.125 14.1021 24.125 13.5C24.125 12.8979 23.9214 12.3932 23.5141 11.9859C23.1068 11.5786 22.6021 11.375 22 11.375C21.3979 11.375 20.8932 11.5786 20.4859 11.9859C20.0786 12.3932 19.875 12.8979 19.875 13.5C19.875 14.1021 20.0786 14.6068 20.4859 15.0141C20.8932 15.4214 21.3979 15.625 22 15.625ZM22 43.25C19.0604 43.25 16.2979 42.6922 13.7125 41.5766C11.1271 40.4609 8.87813 38.9469 6.96563 37.0344C5.05313 35.1219 3.53906 32.8729 2.42344 30.2875C1.30781 27.7021 0.75 24.9396 0.75 22C0.75 19.0604 1.30781 16.2979 2.42344 13.7125C3.53906 11.1271 5.05313 8.87813 6.96563 6.96563C8.87813 5.05313 11.1271 3.53906 13.7125 2.42344C16.2979 1.30781 19.0604 0.75 22 0.75C24.9396 0.75 27.7021 1.30781 30.2875 2.42344C32.8729 3.53906 35.1219 5.05313 37.0344 6.96563C38.9469 8.87813 40.4609 11.1271 41.5766 13.7125C42.6922 16.2979 43.25 19.0604 43.25 22C43.25 24.9396 42.6922 27.7021 41.5766 30.2875C40.4609 32.8729 38.9469 35.1219 37.0344 37.0344C35.1219 38.9469 32.8729 40.4609 30.2875 41.5766C27.7021 42.6922 24.9396 43.25 22 43.25Z" fill="#A7C8FF"/>
</svg>
