<svg width="26" height="26" viewBox="0 0 26 26" fill="none" xmlns="http://www.w3.org/2000/svg">
<path d="M13.0412 19.3359C13.3301 19.3359 13.5692 19.2417 13.7585 19.0533C13.947 18.8639 14.0412 18.6248 14.0412 18.3359V14.0026H18.4078C18.6745 14.0026 18.9025 13.9079 19.0918 13.7186C19.2803 13.5302 19.3745 13.2915 19.3745 13.0026C19.3745 12.7137 19.2803 12.4746 19.0918 12.2853C18.9025 12.0968 18.6634 12.0026 18.3745 12.0026H14.0412V7.63594C14.0412 7.36927 13.947 7.14171 13.7585 6.95327C13.5692 6.76394 13.3301 6.66927 13.0412 6.66927C12.7523 6.66927 12.5136 6.76394 12.3252 6.95327C12.1358 7.14171 12.0412 7.38038 12.0412 7.66927V12.0026H7.67451C7.40784 12.0026 7.18029 12.0968 6.99184 12.2853C6.80251 12.4746 6.70784 12.7137 6.70784 13.0026C6.70784 13.2915 6.80251 13.5302 6.99184 13.7186C7.18029 13.9079 7.41896 14.0026 7.70784 14.0026H12.0412V18.3693C12.0412 18.6359 12.1358 18.8639 12.3252 19.0533C12.5136 19.2417 12.7523 19.3359 13.0412 19.3359ZM13.0412 25.6693C11.2856 25.6693 9.63584 25.3359 8.09184 24.6693C6.54696 24.0026 5.20784 23.1026 4.07451 21.9693C2.94118 20.8359 2.04118 19.4968 1.37451 17.9519C0.707845 16.4079 0.374512 14.7582 0.374512 13.0026C0.374512 11.247 0.707845 9.59683 1.37451 8.05194C2.04118 6.50794 2.94118 5.16927 4.07451 4.03594C5.20784 2.9026 6.54696 2.0026 8.09184 1.33594C9.63584 0.669271 11.2856 0.335938 13.0412 0.335938C14.7967 0.335938 16.447 0.669271 17.9918 1.33594C19.5358 2.0026 20.8745 2.9026 22.0078 4.03594C23.1412 5.16927 24.0412 6.50794 24.7078 8.05194C25.3745 9.59683 25.7078 11.247 25.7078 13.0026C25.7078 14.7582 25.3745 16.4079 24.7078 17.9519C24.0412 19.4968 23.1412 20.8359 22.0078 21.9693C20.8745 23.1026 19.5358 24.0026 17.9918 24.6693C16.447 25.3359 14.7967 25.6693 13.0412 25.6693ZM13.0412 23.6693C15.9967 23.6693 18.5136 22.6306 20.5918 20.5533C22.6692 18.475 23.7078 15.9582 23.7078 13.0026C23.7078 10.047 22.6692 7.53016 20.5918 5.45194C18.5136 3.3746 15.9967 2.33594 13.0412 2.33594C10.0856 2.33594 7.56918 3.3746 5.49184 5.45194C3.41362 7.53016 2.37451 10.047 2.37451 13.0026C2.37451 15.9582 3.41362 18.475 5.49184 20.5533C7.56918 22.6306 10.0856 23.6693 13.0412 23.6693Z" fill="#065BAA"/>
</svg>
