<svg xmlns="http://www.w3.org/2000/svg" width="36" height="36" viewBox="0 0 36 36" fill="none">
    <g clip-path="url(#clip0_2552_39865)">
        <path fill-rule="evenodd" clip-rule="evenodd"
            d="M8.21555 27.4053C8.19176 27.4853 8.1632 27.5639 8.13002 27.6405C8.06817 27.8446 7.96389 28.0333 7.824 28.1943C7.68412 28.3553 7.51179 28.4849 7.31831 28.5747C7.20997 28.6248 7.0964 28.6627 6.97968 28.6877L6.45555 28.82C6.42352 28.8263 6.38128 28.8327 6.32989 28.839C6.2785 28.8454 6.24963 28.8422 6.2433 28.8295C6.23696 28.8168 6.26899 28.789 6.33975 28.7447L6.46541 28.669C6.47175 28.6627 6.59096 28.5936 6.82304 28.4617C7.49325 28.0714 7.82835 27.7664 7.82835 27.5465C7.74428 27.5747 7.65579 27.5875 7.56717 27.5841C7.27736 27.5403 7.13233 27.427 7.1321 27.2445C7.15555 27.0356 7.22791 26.8351 7.3433 26.6594C7.50428 26.3828 7.64602 26.2444 7.76851 26.2444C7.90054 26.2472 8.02642 26.3007 8.12003 26.3938C8.21363 26.487 8.26776 26.6126 8.27117 26.7446C8.27846 26.809 8.28164 26.8738 8.28067 26.9386C8.38242 26.9256 8.47655 26.8778 8.54714 26.8034C8.57145 26.785 8.5923 26.7625 8.60874 26.7369C8.63725 26.6989 8.65767 26.6802 8.67069 26.6802L8.72771 26.7182C8.74746 26.7311 8.77066 26.7378 8.79424 26.7372C8.84673 26.7375 8.89832 26.7235 8.94355 26.6969C8.98878 26.6703 9.02597 26.6319 9.0512 26.5859C9.0952 26.5102 9.12371 26.4722 9.13674 26.4722C9.15575 26.4848 9.18743 26.5039 9.23178 26.5288C9.34583 26.5542 9.45682 26.4595 9.56477 26.2448C9.60667 26.2489 9.64639 26.2654 9.67882 26.2923C9.72131 26.2843 9.76276 26.2716 9.80237 26.2543C9.82783 26.3113 9.84388 26.372 9.84989 26.4342C9.85373 26.5067 9.83727 26.5788 9.80237 26.6425C9.71419 26.7322 9.61118 26.8059 9.49789 26.8604L9.20327 27.0012C9.12872 27.0217 9.05558 27.047 8.98432 27.0769L8.87872 27.1149L8.70765 27.2001L8.61261 27.2286C8.47688 27.2796 8.3443 27.3386 8.21555 27.4053ZM15.5963 27.235L15.61 27.2096C15.61 27.7301 15.7929 27.9902 16.1588 27.99C16.342 27.9911 16.5183 27.9202 16.6498 27.7925C16.7714 27.6548 16.8932 27.5201 17.0152 27.3884C17.0413 27.3745 17.0641 27.3553 17.0824 27.3321L17.1197 27.2888C17.1666 27.1659 17.2255 27.048 17.2957 26.9368C17.5431 26.5379 17.7966 26.3384 18.0564 26.3384L18.1515 26.3479C18.1573 26.366 18.1627 26.3842 18.1676 26.4025C18.2178 26.423 18.2698 26.4387 18.3229 26.4493C18.409 26.4493 18.5013 26.3702 18.5999 26.212C18.6492 26.133 18.6861 26.0965 18.7108 26.1026C18.7601 26.1149 18.7632 26.1754 18.7199 26.2849C18.6994 26.3444 18.6747 26.4024 18.646 26.4584C18.4857 26.7992 18.3104 26.9695 18.1201 26.9695V26.9643C18.0772 26.954 18.0359 26.9376 17.9976 26.9157C17.9552 26.8922 17.9107 26.8727 17.8646 26.8576C17.8207 26.8541 17.7767 26.8595 17.735 26.8736C17.6934 26.8877 17.6551 26.9102 17.6224 26.9396C17.5846 26.9609 17.5523 26.9909 17.5284 27.027C17.5044 27.0632 17.4893 27.1045 17.4844 27.1477H17.4816C17.5237 27.2379 17.5769 27.3226 17.64 27.3997C17.7488 27.5468 17.804 27.6236 17.804 27.6299C17.7848 27.7385 17.7326 27.8386 17.6544 27.9164C17.5552 28.0387 17.4702 28.0998 17.3996 28.0998C17.3281 28.0916 17.2584 28.0726 17.1926 28.0435C17.1208 28.0124 17.0443 27.9934 16.9663 27.9872C16.9181 27.9875 16.8707 27.9987 16.8274 28.0198C16.7842 28.041 16.7462 28.0716 16.7164 28.1093C16.6494 28.1992 16.5883 28.2933 16.5333 28.3909C16.4847 28.4814 16.4266 28.5665 16.3601 28.6447C16.3029 28.7268 16.2285 28.7954 16.1421 28.8458C16.0556 28.8961 15.9592 28.927 15.8596 28.9362C15.7481 28.9371 15.6388 28.9045 15.5461 28.8424C15.4535 28.7804 15.3816 28.6919 15.34 28.5884C15.2457 28.3855 15.1997 28.1636 15.2056 27.94L15.2225 27.9094C15.2168 27.9098 15.2112 27.9098 15.2056 27.9094C15.2449 27.1349 15.339 26.3642 15.4872 25.6031C15.5921 25.2902 15.7215 24.986 15.8744 24.6935L15.9127 24.6749C15.918 24.725 15.9146 24.7757 15.9029 24.8248L15.8645 25.0687L15.7001 26.2124C15.6495 26.5321 15.6204 26.8547 15.6128 27.1783L15.5963 27.235ZM21.9731 26.7397C22.0554 26.6667 22.124 26.5796 22.1755 26.4824C22.3032 26.202 22.3893 26.0107 22.4339 25.9086C22.5294 25.7047 22.6568 25.6027 22.8162 25.6027C22.8774 25.6036 22.9375 25.6198 22.9909 25.6499C23.0442 25.6799 23.0892 25.7229 23.1217 25.7749C23.2428 25.5709 23.3161 25.469 23.3417 25.469C23.3801 25.469 23.4241 25.507 23.4755 25.5837C23.5169 25.6362 23.5434 25.699 23.5518 25.7654C23.5538 25.9119 23.5106 26.0555 23.4279 26.1765C23.3907 26.24 23.3377 26.2929 23.2741 26.3299C23.2104 26.3669 23.1383 26.3868 23.0647 26.3877C23.0017 26.3832 22.9401 26.3669 22.883 26.3398C22.826 26.3128 22.7644 26.2966 22.7014 26.2919C22.6059 26.2919 22.5263 26.3558 22.4627 26.4834C22.3034 26.7958 22.2142 26.9679 22.1952 26.9998C22.0989 27.1566 21.9915 27.3064 21.8739 27.4479C21.8584 27.4913 21.8411 27.5351 21.8221 27.5792C21.7599 27.7838 21.6553 27.973 21.5149 28.1343C21.3745 28.2956 21.2016 28.4254 21.0076 28.5152C20.8989 28.5654 20.785 28.6034 20.6679 28.6285L20.1441 28.7609C20.1117 28.7672 20.0695 28.7735 20.0181 28.7799C19.9667 28.7862 19.9375 28.7831 19.9312 28.7704C19.9248 28.7577 19.9569 28.7295 20.028 28.6855L20.154 28.6099C20.1603 28.6035 20.28 28.5342 20.513 28.4018C21.1851 28.0099 21.5212 27.7038 21.5212 27.4835C21.4367 27.5118 21.3479 27.5247 21.2589 27.5215C20.9682 27.4776 20.8227 27.3641 20.8224 27.1811C20.8465 26.9716 20.9197 26.7708 21.0361 26.595C21.1975 26.3179 21.3398 26.1792 21.4627 26.179C21.5951 26.1816 21.7214 26.2352 21.8153 26.3285C21.9093 26.4219 21.9636 26.5478 21.9671 26.6802C21.9697 26.6964 21.9717 26.7162 21.9731 26.7397ZM29.1859 26.9861V27.1311C29.1859 27.5383 29.3175 27.7417 29.5805 27.7415C29.6373 27.5976 29.7063 27.4317 29.7875 27.2438C29.8643 27.2598 29.9329 27.3026 29.981 27.3645C30.0292 27.4263 30.0538 27.5033 30.0505 27.5817C30.05 27.8154 29.9987 28.0463 29.9002 28.2582C29.7626 28.5525 29.5778 28.6996 29.3458 28.6996C29.2755 28.6969 29.2067 28.6782 29.1448 28.6448C29.0829 28.6114 29.0294 28.5643 28.9885 28.5071C28.89 28.3969 28.8278 28.2592 28.81 28.1125C28.7976 27.978 28.7914 27.9013 28.7914 27.8823V27.7042L28.8058 27.6774H28.7914C28.8308 26.9062 28.9249 26.1388 29.073 25.381C29.1779 25.0693 29.3074 24.7665 29.4602 24.4753L29.4985 24.4566C29.5039 24.5065 29.5006 24.557 29.489 24.6059L29.4507 24.8487L29.2866 25.9875C29.2361 26.3057 29.2069 26.627 29.1993 26.9491L29.1859 26.9861ZM32.7334 27.6781H32.7253C32.7647 26.9069 32.8588 26.1395 33.0069 25.3817C33.1118 25.07 33.2413 24.7672 33.3941 24.476L33.4325 24.4573C33.4378 24.5073 33.4346 24.5577 33.423 24.6066L33.3846 24.8495L33.2206 25.9882C33.17 26.3064 33.1408 26.6277 33.1333 26.9498L33.1252 26.9773L33.1312 26.9833C33.1267 27.1622 33.146 27.3409 33.1885 27.5148C33.2293 27.619 33.3029 27.7072 33.3981 27.7661C33.4933 27.8249 33.6051 27.8512 33.7165 27.8411C33.8855 27.8426 34.0492 27.7829 34.1777 27.6732C34.2688 27.5844 34.3722 27.5092 34.4846 27.4497C34.5257 27.4414 34.5677 27.4382 34.6096 27.4402C34.6543 27.446 34.6993 27.4492 34.7444 27.4497C34.7878 27.4531 34.8312 27.4432 34.869 27.4215C34.9458 27.3719 35.006 27.3004 35.0418 27.2163C35.0545 27.173 35.0707 27.1262 35.0897 27.0755C35.1344 27.0817 35.1794 27.0847 35.2245 27.0847C35.3012 27.0847 35.3748 26.9852 35.4452 26.7862C35.4772 26.6992 35.5026 26.6559 35.5219 26.6559C35.5476 26.6559 35.5603 26.6837 35.5603 26.7397C35.5552 26.933 35.5025 27.1221 35.4068 27.2902C35.2853 27.5204 35.1445 27.6354 34.9844 27.6352C34.9405 27.7034 34.8924 27.7689 34.8405 27.8312C34.8138 27.8693 34.7795 27.9015 34.7399 27.9257C34.7002 27.9499 34.656 27.9657 34.6099 27.972C34.5497 27.9613 34.4887 27.955 34.4276 27.9534C34.3189 27.9534 34.1556 28.0902 33.9376 28.3638C33.8751 28.4615 33.7902 28.5429 33.69 28.6013C33.5898 28.6597 33.4772 28.6934 33.3614 28.6996C32.939 28.6996 32.7278 28.37 32.7278 27.7109L32.7334 27.6781ZM20.8738 6.69365C20.8927 6.72901 20.9084 6.766 20.9206 6.80417C21.8546 8.3092 22.1979 10.1068 21.8844 11.8501C21.7375 12.7307 21.4132 13.5724 20.9312 14.3239C20.4492 15.0754 19.8195 15.7211 19.0804 16.2219C17.636 17.2233 15.8802 17.6729 14.1323 17.4891C11.9013 17.3181 9.90832 15.9182 8.69111 14.0775C7.97352 12.8768 7.06833 11.7988 6.00992 10.8842C5.14541 10.2154 4.00599 9.73105 2.90599 10.0207C1.93975 10.2182 1.11923 10.8061 0.358563 11.4048C0.860162 9.91902 1.90736 8.45189 3.49488 8.0411C4.50055 7.72747 5.55127 7.95592 6.55341 8.1548C6.62866 7.76977 6.82498 7.41886 7.11373 7.15328C7.40249 6.8877 7.76856 6.72135 8.15853 6.67851C8.64665 6.5838 9.1459 6.56008 9.6408 6.60811C9.29197 6.90625 8.85619 7.14808 8.69498 7.60673C8.45386 8.25582 8.71645 8.94785 9.02234 9.52619C9.3937 10.2281 9.87629 10.9212 9.95021 11.7318C10.0041 12.2514 9.63341 12.6551 9.32435 13.0201C9.64085 13.6536 10.1758 14.1512 10.8306 14.4211C11.6919 14.7687 12.599 14.9901 13.5237 15.0783C15.1848 15.1135 16.961 14.7168 18.2127 13.5552C18.5892 13.1966 18.888 12.7644 19.0906 12.2855C19.2931 11.8066 19.3951 11.2912 19.3901 10.7712C19.4785 8.83521 18.0441 7.13681 16.3566 6.36593C15.3153 5.90702 14.1854 5.68381 13.0478 5.71227C12.4089 5.72424 11.5669 5.4451 11.1308 6.07624C11.1308 5.65701 11.0829 5.14696 11.4796 4.87768C11.9822 4.59188 12.5614 4.46982 13.1365 4.52849C13.1436 4.74533 13.3681 4.97518 13.5867 4.85304C13.7979 4.81361 13.8134 4.59678 13.8064 4.42078C13.4615 4.42511 13.1172 4.44744 12.7747 4.48766C12.7891 4.39333 12.8187 4.20254 12.8331 4.10821C13.2203 3.38872 14.0968 3.17893 14.8525 3.17893C15.8147 3.15714 16.7698 3.34744 17.6501 3.73629C18.5305 4.12514 19.3144 4.70302 19.9463 5.42891C20.2522 5.79557 20.5367 6.17966 20.7981 6.57925C20.8155 6.62202 20.8413 6.6609 20.8738 6.69365ZM17.5851 7.80209C18.3595 8.33256 18.5943 9.32872 18.7939 10.1957C15.8237 10.1837 12.8524 10.2087 9.88333 10.1837C9.70141 9.98437 9.55262 9.75715 9.44263 9.5107C9.18965 8.97496 9.05907 8.38963 9.06035 7.79717C11.9003 7.79822 14.7427 7.79118 17.5851 7.80209ZM35.5184 7.76689C35.4625 7.87249 35.4086 7.98232 35.3572 8.09144C35.0114 8.66357 34.4916 9.11008 33.8739 9.36568C32.7216 9.83754 31.4975 10.1105 30.2539 10.1728C27.6315 10.2207 25.0063 10.1728 22.3825 10.1943C22.3648 9.36302 22.1952 8.54201 21.8819 7.77182C26.4273 7.77675 30.9727 7.78625 35.5184 7.76478V7.76689ZM32.7598 10.5927C32.269 11.2829 31.6163 11.842 30.859 12.2211C29.5179 12.8568 28.0117 12.9251 26.5597 13.0377C25.0225 13.0508 23.4867 13.0377 21.9509 13.0437C22.3132 12.2798 22.4856 11.4397 22.4536 10.5949C25.8891 10.601 29.3244 10.5996 32.7595 10.5906L32.7598 10.5927ZM18.9164 10.7621C18.8467 11.2299 18.7373 11.6909 18.5893 12.1401C18.433 12.4868 18.205 12.7966 17.9205 13.049C15.1929 13.049 12.4645 13.037 9.73619 13.0539C9.94007 12.8548 10.1244 12.6366 10.2867 12.4024C10.5602 11.8695 10.3923 11.2696 10.1519 10.7607C13.0747 10.7668 15.9962 10.7672 18.9164 10.7621ZM32.0315 27.1301L31.9178 27.5975C31.8552 27.8053 31.7727 28.0065 31.6714 28.1984C31.5685 28.3864 31.4052 28.5343 31.2078 28.618L30.8671 28.7612C30.7268 28.8225 30.5756 28.8549 30.4225 28.8566C30.41 28.8585 30.3973 28.8556 30.3868 28.8486C30.3764 28.8415 30.3689 28.8309 30.3659 28.8186C30.3468 28.7613 30.4352 28.6565 30.6309 28.5039C30.6938 28.4532 30.8198 28.3547 31.009 28.2082C31.2563 28.0161 31.4623 27.776 31.6147 27.5025C31.7117 27.2824 31.794 27.0561 31.8611 26.8252L31.9748 26.4817C32.0377 26.2848 32.0883 26.1862 32.1266 26.186C32.1499 26.2134 32.1662 26.2462 32.1737 26.2814C32.1572 26.5686 32.11 26.8532 32.0329 27.1304L32.0315 27.1301ZM32.2909 25.0638C32.1771 25.2879 32.0697 25.4 31.9685 25.4C31.8981 25.3425 31.7968 25.2625 31.6647 25.1599C31.5326 25.0574 31.4662 24.987 31.4655 24.9487L31.4845 24.9103C31.5225 24.8273 31.5921 24.6735 31.6932 24.4489C31.7186 24.3977 31.7819 24.2857 31.8833 24.1127L31.921 24.0648C31.9614 24.102 32.0061 24.1342 32.054 24.1609C32.135 24.215 32.2084 24.2796 32.2723 24.3531C32.3347 24.429 32.38 24.5175 32.405 24.6126C32.4135 24.771 32.3742 24.9283 32.2923 25.0642L32.2909 25.0638ZM26.8508 27.1269C26.8486 27.246 26.8078 27.3613 26.7346 27.4553C26.5802 27.6681 26.4677 27.7809 26.3971 27.7936C26.3651 27.7843 26.3355 27.7683 26.3101 27.7468C26.2282 27.697 26.1507 27.6404 26.0781 27.5778C26.0275 27.5399 25.9724 27.5083 25.9141 27.4838C25.8885 27.4702 25.866 27.4516 25.8478 27.429C25.8297 27.4065 25.8163 27.3804 25.8085 27.3525L26.0306 26.8643C26.101 26.7453 26.162 26.6483 26.2137 26.5732L26.2717 26.4887C26.3164 26.5074 26.3844 26.5419 26.4745 26.5919C26.5552 26.6499 26.6326 26.7125 26.7061 26.7795C26.7794 26.8418 26.8276 26.9286 26.8416 27.0238C26.8485 27.0577 26.8516 27.0923 26.8508 27.1269ZM27.9318 28.0565C27.6926 28.8998 27.1309 29.615 26.3682 30.0471C26.0701 30.2009 25.7384 30.2783 25.403 30.2724C25.2317 30.2823 25.0604 30.255 24.9007 30.1924C24.741 30.1297 24.5968 30.0332 24.4779 29.9095C24.2509 29.6454 24.1335 29.3045 24.1499 28.9566C24.1499 28.3368 24.4233 27.5701 24.97 26.6563C25.0343 26.5497 25.0826 26.4996 25.1147 26.506C25.1274 26.5123 25.1307 26.5468 25.1246 26.6095C25.1114 26.6721 25.0985 26.7253 25.0859 26.7689L24.7691 27.4451C24.6315 27.7066 24.5524 27.9948 24.5371 28.2899C24.5371 28.947 24.9103 29.2755 25.6568 29.2755C26.0367 29.2822 26.4117 29.1885 26.7438 29.0039C27.076 28.8192 27.3535 28.5503 27.5484 28.2241C27.6984 27.9986 27.7789 27.7342 27.7801 27.4634L27.7994 26.7872C27.8156 26.5572 27.8711 26.3318 27.9635 26.1205L28.1563 25.7544C28.1888 25.6832 28.231 25.6167 28.2817 25.557C28.2976 25.5726 28.3095 25.5919 28.3162 25.6132C28.323 25.6345 28.3244 25.6571 28.3204 25.6791L28.2722 26.0075L28.2239 26.4771C28.2142 26.8257 28.1656 27.172 28.0793 27.5099C28.0197 27.7607 27.9705 27.9425 27.9318 28.0551V28.0565ZM22.8799 28.612C22.7209 28.8239 22.621 29.074 22.5902 29.3371L22.7496 29.4779C22.85 29.5708 22.8996 29.6391 22.8996 29.6824C22.8988 29.7708 22.8709 29.8568 22.8197 29.9288C22.7974 29.9646 22.7662 29.9941 22.7293 30.0145C22.6923 30.0348 22.6507 30.0453 22.6085 30.045C22.4489 30.045 22.3691 29.924 22.3691 29.6821C22.4131 29.3934 22.5041 29.1138 22.6384 28.8545C22.8247 28.4204 22.9712 28.2127 23.0777 28.2315C23.0122 28.3549 22.9463 28.4817 22.8799 28.612ZM19.8428 25.2715C19.8558 25.2465 19.8851 25.2011 19.9305 25.1307C19.9439 25.1096 19.9603 25.0906 19.979 25.074C19.9951 25.0962 20.0052 25.1221 20.0083 25.1494L19.9597 25.469L19.9012 25.997L19.7956 26.834C19.7638 27.13 19.6848 27.4191 19.5616 27.6901L19.3377 28.1417C19.2011 28.4111 19.0939 28.5459 19.016 28.5462L18.9867 28.4803C19.1585 27.9463 19.2857 27.3989 19.3669 26.8439L19.4352 26.2515L19.5408 25.9597L19.8428 25.2715ZM18.47 31.4128C18.3313 31.6064 18.2147 31.7032 18.1201 31.7032C18.1138 31.7032 18.0317 31.6283 17.8737 31.4783C17.7871 31.4051 17.7078 31.3235 17.6372 31.2347C17.703 31.0813 17.7821 30.934 17.8737 30.7944C18.0122 30.5571 18.0943 30.4384 18.1201 30.4382C18.1459 30.4379 18.2091 30.4849 18.3095 30.579C18.4577 30.6906 18.5583 30.854 18.5911 31.0366C18.5922 31.172 18.5491 31.3041 18.4683 31.4128H18.47ZM17.966 32.5935C17.8275 32.7871 17.7109 32.8839 17.6161 32.8839C17.6097 32.8839 17.5276 32.8089 17.3697 32.6589C17.2832 32.5856 17.2041 32.5041 17.1335 32.4153C17.1993 32.262 17.2783 32.1146 17.3697 31.975C17.5084 31.7375 17.5905 31.6188 17.6161 31.6188C17.6414 31.6188 17.7041 31.6656 17.8051 31.7596C17.954 31.8708 18.0553 32.0343 18.0884 32.2172C18.0898 32.3526 18.0468 32.4848 17.966 32.5935ZM17.5312 31.4128C17.3928 31.6064 17.2764 31.7032 17.182 31.7032C17.0961 31.6326 17.0138 31.5575 16.9356 31.4783C16.8492 31.405 16.7701 31.3234 16.6995 31.2347C16.7653 31.0814 16.8444 30.9341 16.9356 30.7944C17.0743 30.5571 17.1565 30.4384 17.182 30.4382C17.2067 30.4382 17.27 30.485 17.3707 30.579C17.5189 30.6905 17.6195 30.854 17.6523 31.0366C17.6543 31.1717 17.6123 31.3037 17.5326 31.4128H17.5312ZM16.1056 32.5836C15.9883 32.7995 15.8781 32.9074 15.7751 32.9074C15.7047 32.8521 15.6011 32.775 15.4643 32.6762C15.3284 32.5776 15.2601 32.5097 15.2601 32.4727L15.2795 32.4358C15.3184 32.3557 15.3897 32.2077 15.4932 31.9915C15.519 31.9423 15.5837 31.8343 15.6875 31.6677L15.7262 31.6216C15.768 31.6575 15.8139 31.6886 15.8628 31.7142C15.9451 31.7656 16.0202 31.8278 16.0863 31.899C16.1497 31.9711 16.1961 32.0565 16.2221 32.1489C16.2304 32.3021 16.1901 32.4539 16.107 32.5829L16.1056 32.5836ZM15.1042 32.6392C14.9869 32.8549 14.8768 32.9628 14.774 32.9631C14.7022 32.9077 14.5985 32.8306 14.4628 32.7318C14.3272 32.633 14.2592 32.5652 14.2587 32.5283L14.278 32.4914C14.317 32.4114 14.3882 32.2634 14.4917 32.0475C14.5175 31.9982 14.5824 31.8903 14.6864 31.7237L14.7251 31.6775C14.7669 31.7133 14.8126 31.7443 14.8613 31.7698C14.9437 31.8213 15.0189 31.8836 15.0848 31.9549C15.1483 32.0269 15.1947 32.1122 15.2207 32.2045C15.2293 32.3579 15.189 32.5101 15.1056 32.6392H15.1042ZM13.756 26.7365C13.8623 26.529 13.9343 26.3056 13.9693 26.0751C13.9336 25.9023 13.8714 25.7361 13.7849 25.5823C13.7154 25.4881 13.6628 25.3826 13.6293 25.2704C13.7217 24.9618 13.8319 24.6588 13.9595 24.363C14.0954 24.4005 14.2087 24.5391 14.2995 24.7787C14.3725 24.9524 14.412 25.1384 14.4157 25.3268C14.3926 25.6529 14.3137 25.9726 14.1823 26.2719C14.1046 26.4737 13.9785 26.7825 13.8039 27.1983C13.8039 27.2687 13.8945 27.3475 14.0756 27.4345C14.1592 27.4919 14.2264 27.57 14.2706 27.6611C14.3149 27.7523 14.3346 27.8533 14.328 27.9544C14.3154 28.4495 14.184 28.9342 13.9447 29.3677C13.7323 29.8118 13.4097 30.1942 13.0077 30.4783C12.7385 30.6603 12.4202 30.756 12.0953 30.7525C11.9176 30.763 11.7401 30.73 11.578 30.6564C11.416 30.5828 11.2743 30.4708 11.1653 30.3301C10.9598 30.0412 10.8572 29.6916 10.8739 29.3375C10.8993 28.853 11.0181 28.378 11.2237 27.9386C11.2496 27.8818 11.3271 27.7085 11.4564 27.4187C11.4696 27.3873 11.5408 27.2455 11.6701 26.9935C11.8252 26.6849 11.9191 26.5337 11.9517 26.5398C11.9843 26.5459 11.994 26.5811 11.9809 26.6454C11.9676 26.7132 11.9482 26.7796 11.9228 26.8439L11.4568 27.9027C11.3266 28.1686 11.2507 28.4579 11.2336 28.7535C11.2334 29.4056 11.5828 29.7317 12.2819 29.7317C12.667 29.7325 13.0455 29.6315 13.379 29.4388C13.5516 29.3649 13.7002 29.2444 13.8081 29.0909C13.9161 28.9373 13.9792 28.7568 13.9905 28.5694C13.8834 28.4826 13.7679 28.4067 13.6459 28.3427C13.4161 28.2042 13.3014 28.0752 13.3016 27.9555C13.3078 27.7841 13.3508 27.616 13.4276 27.4627C13.5698 27.1614 13.6798 26.9193 13.7574 26.7365H13.756ZM13.6645 32.5836C13.5472 32.7995 13.437 32.9074 13.334 32.9074C13.2636 32.8521 13.16 32.775 13.0232 32.6762C12.8873 32.5776 12.819 32.5097 12.819 32.4727L12.8384 32.4358C12.8773 32.3557 12.9485 32.2077 13.052 31.9915C13.0778 31.9423 13.1426 31.8343 13.2463 31.6677L13.2851 31.6216C13.3269 31.6575 13.3727 31.6886 13.4216 31.7142C13.5039 31.7656 13.5791 31.8278 13.6452 31.899C13.7086 31.971 13.755 32.0565 13.781 32.1489C13.7893 32.3021 13.749 32.4539 13.6659 32.5829L13.6645 32.5836ZM12.6631 32.6392C12.5457 32.8549 12.4357 32.9628 12.3329 32.9631C12.2611 32.9077 12.1574 32.8306 12.0217 32.7318C11.8861 32.633 11.818 32.5652 11.8176 32.5283L11.8369 32.4914C11.8759 32.4114 11.9471 32.2634 12.0506 32.0475C12.0764 31.9982 12.1413 31.8903 12.2452 31.7237L12.284 31.6775C12.3258 31.7133 12.3715 31.7443 12.4202 31.7698C12.5026 31.8213 12.5778 31.8836 12.6437 31.9549C12.7071 32.0269 12.7536 32.1122 12.7796 32.2045C12.7882 32.3579 12.7479 32.5101 12.6645 32.6392H12.6631ZM9.85235 26.174C9.89771 26.1435 9.93747 26.1054 9.96992 26.0614C10.1269 25.8338 10.1997 25.5586 10.1758 25.2831L10.166 24.6548C10.1479 24.4435 10.1678 24.2307 10.2248 24.0265L10.5768 23.1919C10.5927 23.1846 10.609 23.1784 10.6257 23.1732C10.634 23.1973 10.6374 23.2228 10.6356 23.2482C10.6356 23.3545 10.629 23.5014 10.6158 23.6889C10.6029 23.9079 10.5964 24.0579 10.5961 24.1391C10.5911 24.4932 10.5682 24.8468 10.5275 25.1986C10.4881 25.6002 10.3388 25.9831 10.0959 26.3053C10.0699 26.3365 9.98775 26.421 9.84954 26.5588L9.85235 26.174ZM11.8588 21.7247L13.0908 20.7515C13.3282 20.5623 13.6109 20.3197 13.9387 20.0235C14.0286 19.9419 14.2822 19.7025 14.6994 19.3055C15.1424 18.8831 15.3833 18.6499 15.422 18.606C15.4225 18.6356 15.4157 18.6648 15.4023 18.6912C15.319 19.069 14.9691 19.5604 14.3527 20.1654C14.0711 20.4428 13.6439 20.8144 13.071 21.2802C13.0455 21.2992 12.5704 21.6647 11.6458 22.3767L10.9812 22.8871C10.7111 23.095 10.5703 23.1894 10.5588 23.1704C10.6462 22.9186 10.7838 22.6871 10.9633 22.49C11.2483 22.2197 11.5472 21.9644 11.8588 21.7251V21.7247ZM9.57427 23.6551C9.45811 23.8736 9.34829 23.9828 9.2448 23.9828C9.1744 23.9267 9.07115 23.8487 8.93504 23.7487C8.79952 23.6491 8.73158 23.5801 8.73158 23.5428L8.75095 23.5052C8.78967 23.4242 8.86006 23.2743 8.96214 23.0553C8.98796 23.0056 9.05249 22.8963 9.15575 22.7276L9.19446 22.6808C9.23614 22.7171 9.28185 22.7485 9.33069 22.7744C9.41278 22.8267 9.48758 22.8897 9.55315 22.9617C9.61653 23.0349 9.66282 23.1214 9.68867 23.2148C9.69726 23.37 9.65728 23.524 9.57427 23.6555V23.6551ZM9.07056 22.4935C8.9544 22.7121 8.84422 22.8216 8.74144 22.8216C8.63019 22.7581 8.52621 22.6827 8.43133 22.5967C8.29593 22.4906 8.22823 22.4188 8.22823 22.3812L8.24759 22.3436C8.2863 22.2624 8.35671 22.1124 8.45879 21.8937C8.4846 21.844 8.54913 21.7347 8.65239 21.566L8.69111 21.5192C8.7327 21.5554 8.77828 21.5869 8.82698 21.6128C8.90911 21.6651 8.98392 21.7281 9.04944 21.8001C9.11287 21.8733 9.15917 21.9598 9.18496 22.0532C9.19354 22.2083 9.15368 22.3623 9.07091 22.4939L9.07056 22.4935ZM8.57776 23.7111C8.4616 23.9296 8.3519 24.0388 8.24864 24.0388C8.17824 23.9827 8.07487 23.9047 7.93853 23.8047C7.80219 23.7047 7.73437 23.6361 7.73507 23.5988L7.75443 23.5611C7.79315 23.4802 7.86355 23.3303 7.96563 23.1116C7.99145 23.0619 8.0561 22.9526 8.15958 22.7839L8.19831 22.7371C8.23981 22.7732 8.28527 22.8045 8.33382 22.8304C8.41599 22.8827 8.49081 22.9458 8.55629 23.018C8.61968 23.0911 8.66598 23.1775 8.69181 23.2707C8.70065 23.4264 8.66039 23.5809 8.57671 23.7125L8.57776 23.7111ZM5.94586 27.1111L5.83251 27.5796C5.76988 27.7878 5.68736 27.9894 5.58611 28.1818C5.48388 28.3701 5.32101 28.5184 5.12394 28.6025L4.78391 28.7461C4.64403 28.8076 4.49317 28.8401 4.34039 28.8418C4.32785 28.8437 4.31509 28.8408 4.3046 28.8337C4.29411 28.8266 4.28666 28.8158 4.28371 28.8035C4.26471 28.7462 4.35282 28.6406 4.54807 28.4867C4.61072 28.4357 4.73639 28.337 4.92506 28.1903C5.17187 27.9974 5.3773 27.7568 5.52909 27.4828C5.62599 27.2622 5.7083 27.0355 5.77549 26.8041L5.88883 26.4599C5.95149 26.2625 6.00194 26.1637 6.04019 26.1635C6.0636 26.191 6.07981 26.2239 6.08736 26.2592C6.07013 26.5475 6.02222 26.8332 5.94445 27.1114L5.94586 27.1111ZM4.72794 25.5461C4.66387 25.6779 4.62551 25.7533 4.61283 25.772C4.56168 25.8476 4.51697 25.8854 4.47872 25.8854C4.4397 25.8513 4.39404 25.8256 4.34461 25.8101C4.07516 25.8518 3.8283 25.9851 3.64554 26.1874C3.30034 26.4953 3.12786 26.7121 3.1281 26.8379C3.13175 26.8975 3.15545 26.954 3.19533 26.9984L3.36746 27.0832C3.48244 27.1089 3.584 27.1759 3.6529 27.2715C3.7218 27.367 3.75325 27.4845 3.74128 27.6017C3.73464 27.943 3.67661 28.2813 3.56915 28.6053C3.47205 28.9329 3.32989 29.2454 3.14675 29.5339C2.98122 29.823 2.74299 30.0638 2.45569 30.2324C2.1684 30.401 1.84201 30.4916 1.5089 30.4952C1.35091 30.5042 1.19289 30.4781 1.04624 30.4186C0.8996 30.3591 0.767994 30.2678 0.660931 30.1513C0.453033 29.9022 0.345584 29.5845 0.359619 29.2604C0.379263 28.6529 0.533003 28.0573 0.809827 27.5162L1.30755 26.4602C1.37795 26.3095 1.42911 26.2342 1.46103 26.2342C1.50573 26.2342 1.52791 26.2624 1.52791 26.3191C1.52952 26.3545 1.52302 26.3899 1.5089 26.4225C0.978786 27.56 0.713613 28.3109 0.713379 28.6753C0.707545 28.7999 0.734592 28.9239 0.791805 29.0347C0.849018 29.1456 0.934383 29.2394 1.03933 29.3068C1.25416 29.4408 1.50449 29.5065 1.75741 29.4955C1.99511 29.503 2.23168 29.4597 2.45138 29.3687C2.67109 29.2777 2.86889 29.1409 3.03165 28.9675C3.24356 28.787 3.38298 28.536 3.42413 28.2607C3.42413 28.1915 3.3156 28.1286 3.09853 28.072C2.97762 28.0568 2.86663 27.9973 2.78699 27.9051C2.70736 27.8128 2.66472 27.6944 2.66733 27.5725C2.72458 27.0047 2.9673 26.4715 3.35795 26.0554C3.50891 25.8658 3.67211 25.6862 3.84653 25.5179C4.11258 25.227 4.45357 25.015 4.83213 24.9051C4.88951 24.9427 4.9152 24.9839 4.90887 25.0276C4.87107 25.2078 4.80977 25.3822 4.72653 25.5464L4.72794 25.5461Z"
            fill="#065BAA" />
    </g>
    <defs>
        <clipPath id="clip0_2552_39865">
            <rect width="35.2" height="35.2" fill="white" transform="translate(0.400391 0.470581)" />
        </clipPath>
    </defs>
</svg>