<svg xmlns="http://www.w3.org/2000/svg" width="24" height="24" viewBox="0 0 24 24"><defs><style>.a{fill:none;}.b{fill:#242424;}</style></defs><path class="a" d="M0,0H24V24H0Z"/><path class="b" d="M7.59,5.41a2,2,0,1,1,2.83,0A2,2,0,0,1,7.59,5.41ZM6,16V7H4v9a5,5,0,0,0,5,5h6V19H9A3,3,0,0,1,6,16Zm14,4.07L14.93,15H11.5V11.32A9.522,9.522,0,0,0,17,13.48V11.32a6.754,6.754,0,0,1-4.67-2.04l-1.4-1.55a2.145,2.145,0,0,0-.69-.5A2.225,2.225,0,0,0,9.28,7H9.25A2.253,2.253,0,0,0,7,9.25V15a3,3,0,0,0,3,3h5.07l3.5,3.5Z"/></svg>