<svg xmlns="http://www.w3.org/2000/svg" width="24" height="24" viewBox="0 0 24 24"><defs><style>.a{fill:none;}.b{fill:#666;}</style></defs><path class="a" d="M0,0H24V24H0Z"/><path class="b" d="M20.19,4H4A2,2,0,0,0,2.01,6v4A2,2,0,0,1,2,14v4a2.006,2.006,0,0,0,2,2H20a2.006,2.006,0,0,0,2-2V6A1.915,1.915,0,0,0,20.19,4ZM20,18H4V15.46A4.013,4.013,0,0,0,6,12,3.992,3.992,0,0,0,4.01,8.54L4,6H20ZM8.87,15.66,7.21,12.78l.93-.25,1.26.99,2.39-.64L9.39,8.72l1.4-.38,4.01,3.74,2.44-.65a.967.967,0,0,1,1.18.68.988.988,0,0,1-.69,1.19Z"/></svg>