<svg xmlns="http://www.w3.org/2000/svg" width="20.042" height="23.999" viewBox="0 0 20.042 23.999">
    <g data-name="Group 72936">
        <path data-name="Path 55609" d="M46.842 86a1.539 1.539 0 0 0 1.5-1.5v-3.512h1a.948.948 0 0 0 1-1V69.965H38.323v10.02a.948.948 0 0 0 1 1h1V84.5a1.5 1.5 0 1 0 3 0v-3.512h2.017V84.5a1.538 1.538 0 0 0 1.502 1.5z" style="fill:#105fae" transform="translate(-34.316 -62)"/>
        <path data-name="Path 55610" d="M52.856 79.985a1.538 1.538 0 0 0 1.5-1.5v-7.019a1.5 1.5 0 0 0-3 0v7.017a1.538 1.538 0 0 0 1.5 1.502z" style="fill:#105fae" transform="translate(-34.316 -62)"/>
        <path data-name="Path 55611" d="M35.818 79.985a1.538 1.538 0 0 0 1.5-1.5v-7.019a1.5 1.5 0 0 0-3 0v7.017a1.538 1.538 0 0 0 1.5 1.502z" style="fill:#105fae" transform="translate(-34.316 -62)"/>
        <path data-name="Path 55612" d="M49.147 62.151a.48.48 0 0 0-.7 0L47.1 63.492l-.062.062a5.943 5.943 0 0 0-2.688-.6h-.029a5.942 5.942 0 0 0-2.688.6l-.062-.062-1.345-1.341a.494.494 0 0 0-.7.7l1.3 1.3a5.421 5.421 0 0 0-1.13 1.014 5.891 5.891 0 0 0-1.366 3.483v.041q-.006.135-.006.272H50.35q0-.136-.006-.272v-.041a5.888 5.888 0 0 0-1.366-3.483 5.416 5.416 0 0 0-1.13-1.015l1.3-1.3a.481.481 0 0 0-.001-.699zm-7.317 5.06a.751.751 0 1 1 .751-.751.751.751 0 0 1-.751.751zm5.014 0a.751.751 0 1 1 .751-.751.751.751 0 0 1-.751.751z" style="fill:#105fae" transform="translate(-34.316 -62)"/>
    </g>
</svg>
