<svg width="24" height="24" viewBox="0 0 24 24" fill="none" xmlns="http://www.w3.org/2000/svg">
<g id="brand logo / appstore">
<path id="Vector" d="M17.96 2H6.04C3.8075 2 2 3.8075 2 6.04V17.9625C2 20.1925 3.8075 22 6.04 22H17.9625C20.1925 22 22.0025 20.1925 22.0025 17.96V6.04C22 3.8075 20.1925 2 17.96 2Z" fill="url(#paint0_linear_458_881)"/>
<path id="Vector_2" d="M11.915 6.59497L12.32 5.89497C12.57 5.45747 13.1275 5.30997 13.565 5.55997C14.0025 5.80997 14.15 6.36747 13.9 6.80497L9.99751 13.56H12.82C13.735 13.56 14.2475 14.635 13.85 15.38H5.57501C5.07001 15.38 4.66501 14.975 4.66501 14.47C4.66501 13.965 5.07001 13.56 5.57501 13.56H7.89501L10.865 8.41247L9.93751 6.80247C9.68751 6.36498 9.83501 5.81247 10.2725 5.55747C10.71 5.30748 11.2625 5.45497 11.5175 5.89247L11.915 6.59497ZM8.40501 16.3175L7.53001 17.835C7.28001 18.2725 6.72251 18.42 6.28501 18.17C5.84751 17.92 5.70001 17.3625 5.95001 16.925L6.60001 15.8C7.33501 15.5725 7.93251 15.7475 8.40501 16.3175ZM15.94 13.565H18.3075C18.8125 13.565 19.2175 13.97 19.2175 14.475C19.2175 14.98 18.8125 15.385 18.3075 15.385H16.9925L17.88 16.925C18.13 17.3625 17.9825 17.915 17.545 18.17C17.1075 18.42 16.555 18.2725 16.3 17.835C14.805 15.2425 13.6825 13.3025 12.9375 12.01C12.175 10.695 12.72 9.37497 13.2575 8.92747C13.855 9.95247 14.7475 11.5 15.94 13.565Z" fill="white"/>
</g>
<defs>
<linearGradient id="paint0_linear_458_881" x1="12.0012" y1="2" x2="12.0012" y2="22" gradientUnits="userSpaceOnUse">
<stop stop-color="#18BFFB"/>
<stop offset="1" stop-color="#2072F3"/>
</linearGradient>
</defs>
</svg>
