<svg width="24" height="24" viewBox="0 0 24 24" fill="none" xmlns="http://www.w3.org/2000/svg">
<path d="M16.4766 13.0984C16.3266 12.9651 16.2516 12.7941 16.2516 12.5854C16.2516 12.3774 16.3266 12.1984 16.4766 12.0484L18.7766 9.74844H12.0016C11.7849 9.74844 11.6059 9.67744 11.4646 9.53544C11.3226 9.3941 11.2516 9.2151 11.2516 8.99844C11.2516 8.78177 11.3226 8.60244 11.4646 8.46044C11.6059 8.3191 11.7849 8.24844 12.0016 8.24844H18.7766L16.4766 5.94844C16.3266 5.79844 16.2516 5.6191 16.2516 5.41044C16.2516 5.20244 16.3266 5.02344 16.4766 4.87344C16.6266 4.72344 16.8016 4.64844 17.0016 4.64844C17.2016 4.64844 17.3766 4.72344 17.5266 4.87344L21.0266 8.37344C21.1099 8.45677 21.1726 8.55244 21.2146 8.66044C21.2559 8.7691 21.2766 8.88177 21.2766 8.99844C21.2766 9.1151 21.2559 9.22744 21.2146 9.33544C21.1726 9.4441 21.1099 9.5401 21.0266 9.62344L17.5266 13.1234C17.3766 13.2734 17.2016 13.3441 17.0016 13.3354C16.8016 13.3274 16.6266 13.2484 16.4766 13.0984ZM6.47656 19.1234L2.97656 15.6234C2.89323 15.5401 2.8309 15.4441 2.78956 15.3354C2.74756 15.2274 2.72656 15.1151 2.72656 14.9984C2.72656 14.8818 2.74756 14.7691 2.78956 14.6604C2.8309 14.5524 2.89323 14.4568 2.97656 14.3734L6.47656 10.8734C6.62656 10.7234 6.80156 10.6484 7.00156 10.6484C7.20156 10.6484 7.37656 10.7234 7.52656 10.8734C7.67656 11.0234 7.75156 11.2024 7.75156 11.4104C7.75156 11.6191 7.67656 11.7984 7.52656 11.9484L5.22656 14.2484H12.0016C12.2182 14.2484 12.3976 14.3191 12.5396 14.4604C12.6809 14.6024 12.7516 14.7818 12.7516 14.9984C12.7516 15.2151 12.6809 15.3941 12.5396 15.5354C12.3976 15.6774 12.2182 15.7484 12.0016 15.7484H5.22656L7.52656 18.0484C7.67656 18.1984 7.75156 18.3774 7.75156 18.5854C7.75156 18.7941 7.67656 18.9651 7.52656 19.0984C7.37656 19.2484 7.20156 19.3274 7.00156 19.3354C6.80156 19.3441 6.62656 19.2734 6.47656 19.1234Z" fill="#121516"/>
</svg>
