<svg width="7" height="12" viewBox="0 0 7 12" fill="none" xmlns="http://www.w3.org/2000/svg">
<path d="M5.4751 11.125L0.975098 6.62502C0.891764 6.54169 0.829097 6.44569 0.787097 6.33702C0.745764 6.22902 0.725098 6.11669 0.725098 6.00002C0.725098 5.88336 0.745764 5.77069 0.787097 5.66202C0.829097 5.55402 0.891764 5.45836 0.975098 5.37502L5.4751 0.875024C5.6251 0.725024 5.8001 0.650024 6.0001 0.650024C6.2001 0.650024 6.3751 0.725024 6.5251 0.875024C6.6751 1.02502 6.7501 1.20002 6.7501 1.40002C6.7501 1.60002 6.6751 1.77502 6.5251 1.92502L2.4501 6.00002L6.5251 10.075C6.6751 10.225 6.7501 10.4 6.7501 10.6C6.7501 10.8 6.6751 10.975 6.5251 11.125C6.3751 11.275 6.2001 11.35 6.0001 11.35C5.8001 11.35 5.6251 11.275 5.4751 11.125Z" fill="#105fae"/>
</svg>
