<svg width="24" height="24" viewBox="0 0 24 24" fill="none" xmlns="http://www.w3.org/2000/svg">
    <path
        d="M13.275 5.58639L19.725 12.0614C19.825 12.1447 19.8957 12.2407 19.937 12.3494C19.979 12.4574 20 12.5697 20 12.6864C20 12.8031 19.979 12.9157 19.937 13.0244C19.8957 13.1324 19.825 13.2281 19.725 13.3114L13.275 19.7864C13.125 19.9197 12.95 19.9907 12.75 19.9994C12.55 20.0074 12.375 19.9364 12.225 19.7864C12.075 19.6364 11.996 19.4614 11.988 19.2614C11.9793 19.0614 12.05 18.8781 12.2 18.7114L17.5 13.4364L5.875 13.4364C5.675 13.4364 5.5 13.3657 5.35 13.2244C5.2 13.0824 5.125 12.9031 5.125 12.6864C5.125 12.4697 5.2 12.2907 5.35 12.1494C5.5 12.0074 5.675 11.9364 5.875 11.9364L17.5 11.9364L12.2 6.63639C12.0667 6.50306 11.996 6.33239 11.988 6.12439C11.9793 5.91572 12.05 5.73639 12.2 5.58639C12.35 5.43639 12.529 5.36139 12.737 5.36139C12.9457 5.36139 13.125 5.43639 13.275 5.58639Z"
        fill="#BD1A8D" />
</svg>