<svg width="20" height="19" viewBox="0 0 20 19" fill="none" xmlns="http://www.w3.org/2000/svg">
<path d="M18.3332 8.55146C18.0784 6.79168 17.228 5.16112 15.913 3.91096C14.598 2.6608 12.8912 1.86038 11.0557 1.63302C9.22024 1.40565 7.35778 1.76395 5.75526 2.65271C4.15273 3.54147 2.89905 4.9114 2.18734 6.55146M1.6665 2.55146V6.55146H5.83317M1.6665 10.5515C1.92125 12.3112 2.77164 13.9418 4.08667 15.192C5.4017 16.4421 7.10842 17.2425 8.94393 17.4699C10.7794 17.6973 12.6419 17.339 14.2444 16.4502C15.8469 15.5615 17.1006 14.1915 17.8123 12.5515M18.3332 16.5515V12.5515H14.1665" stroke="currentColor" stroke-width="2" stroke-linecap="round" stroke-linejoin="round"/>
</svg>
