<svg width="24" height="24" viewBox="0 0 24 24" fill="currentColor" xmlns="http://www.w3.org/2000/svg">
<path d="M8.42188 17.1234L3.92188 12.6234C3.83854 12.5401 3.77621 12.4441 3.73487 12.3354C3.69287 12.2274 3.67188 12.1151 3.67188 11.9984C3.67188 11.8818 3.69287 11.7691 3.73487 11.6604C3.77621 11.5524 3.83854 11.4568 3.92188 11.3734L8.44687 6.84844C8.58021 6.7151 8.74687 6.64844 8.94687 6.64844C9.14687 6.64844 9.32188 6.72344 9.47188 6.87344C9.62188 7.02344 9.69687 7.19844 9.69687 7.39844C9.69687 7.59844 9.62188 7.77344 9.47188 7.92344L6.14688 11.2484H19.9469C20.1635 11.2484 20.3429 11.3191 20.4849 11.4604C20.6262 11.6024 20.6969 11.7818 20.6969 11.9984C20.6969 12.2151 20.6262 12.3941 20.4849 12.5354C20.3429 12.6774 20.1635 12.7484 19.9469 12.7484H6.14688L9.49687 16.0984C9.63021 16.2318 9.69687 16.3984 9.69687 16.5984C9.69687 16.7984 9.62188 16.9734 9.47188 17.1234C9.32188 17.2734 9.14687 17.3484 8.94687 17.3484C8.74687 17.3484 8.57188 17.2734 8.42188 17.1234Z"/>
</svg>
