<svg width="12" height="7" viewBox="0 0 12 7" fill="none" xmlns="http://www.w3.org/2000/svg">
<path d="M5.9999 6.89642C5.88324 6.89642 5.7709 6.87975 5.6629 6.84642C5.55424 6.81309 5.45824 6.74642 5.3749 6.64642L0.849902 2.14642C0.716569 1.99642 0.649902 1.82142 0.649902 1.62142C0.649902 1.42142 0.724902 1.24642 0.874902 1.09642C1.0249 0.963087 1.1999 0.89642 1.3999 0.89642C1.5999 0.89642 1.7749 0.963087 1.9249 1.09642L5.9999 5.17142L10.0999 1.09642C10.2332 0.94642 10.3999 0.87542 10.5999 0.88342C10.7999 0.892087 10.9749 0.963087 11.1249 1.09642C11.2749 1.24642 11.3499 1.42542 11.3499 1.63342C11.3499 1.84209 11.2749 2.01309 11.1249 2.14642L6.6249 6.64642C6.54157 6.74642 6.4459 6.81309 6.3379 6.84642C6.22924 6.87975 6.11657 6.89642 5.9999 6.89642Z" fill="#065BAA"/>
</svg>
