<svg width="24" height="24" viewBox="0 0 24 24" fill="none" xmlns="http://www.w3.org/2000/svg">
<g id="brand logo / bazar">
<path id="Vector" d="M21.8519 8.54804C21.5556 8.33452 20.963 8.04982 19.7778 7.76512C19.4074 7.69395 19.037 7.62278 18.5926 7.5516C18 7.48043 17.4074 7.40925 16.5926 7.33808H16.5185C16.3704 6.98221 16.2222 6.62633 16.0741 6.27046C16 6.05694 15.9259 5.84342 15.7778 5.62989V5.55872C15.4815 4.7758 15.1111 3.99288 14.5185 3.28114C13.7778 2.42705 12.8889 2 12 2C11.1111 2 10.2222 2.42705 9.55556 3.20996C8.88889 3.92171 8.59259 4.7758 8.22222 5.55872V5.62989C8.14815 5.84342 8 6.05694 7.92593 6.27046C7.77778 6.62633 7.62963 6.98221 7.48148 7.33808H7.40741C6.66667 7.40925 6 7.48043 5.40741 7.5516C4.96296 7.62278 4.51852 7.69395 4.22222 7.76512C3.03704 8.04982 2.44444 8.33452 2.14815 8.54804C2.07407 8.61922 2 8.76157 2 8.90391L2.07407 9.61566C2.22222 10.6833 2.37037 11.8932 2.66667 13.1744C2.88889 14.1708 3.11111 15.1673 3.48148 16.0925C3.62963 16.4484 3.77778 16.8043 3.92593 17.1601C5.11111 19.4377 7.25926 21.1459 9.92593 21.7153C10.5926 21.8577 11.2593 21.9288 12 21.9288C12.6667 21.9288 13.4074 21.8577 14.0741 21.7153C16.7407 21.1459 18.963 19.3665 20.1481 17.0178C20.2963 16.7331 20.4444 16.4484 20.5185 16.1637C21.3333 14.0285 21.6296 11.7509 21.9259 9.90036L22 8.90391C22 8.76157 21.9259 8.61922 21.8519 8.54804ZM12 7.12456C11.037 7.12456 10.2222 7.12456 9.48148 7.19573C9.55556 7.12456 9.55556 6.98221 9.62963 6.91103C9.7037 6.69751 9.85185 6.48399 9.92593 6.27046C10.1481 5.77224 10.3704 5.27402 10.5926 4.84698C10.7407 4.63345 10.8148 4.4911 10.963 4.27758C11.1852 4.06406 11.5556 3.70819 12.0741 3.70819C12.5926 3.70819 12.963 4.06406 13.1852 4.27758C13.3333 4.41993 13.4815 4.63345 13.5556 4.84698C13.7778 5.27402 14 5.77224 14.2222 6.27046C14.2963 6.48399 14.3704 6.69751 14.5185 6.91103C14.5926 6.98221 14.5926 7.12456 14.6667 7.19573C13.7778 7.19573 12.963 7.12456 12 7.12456Z" fill="url(#paint0_linear_221_638)"/>
</g>
<defs>
<linearGradient id="paint0_linear_221_638" x1="11.9992" y1="21.9732" x2="11.9992" y2="2" gradientUnits="userSpaceOnUse">
<stop stop-color="#009955"/>
<stop offset="1" stop-color="#97D701"/>
</linearGradient>
</defs>
</svg>
