
<svg width="12" height="7" viewBox="0 0 12 7" fill="none" xmlns="http://www.w3.org/2000/svg">
    <path d="M0.875391 6.52656C0.725391 6.37656 0.650391 6.20156 0.650391 6.00156C0.650391 5.80156 0.725391 5.62656 0.875391 5.47656L5.37539 0.976562C5.45872 0.893229 5.55472 0.830562 5.66339 0.788562C5.77139 0.747228 5.88372 0.726562 6.00039 0.726562C6.11706 0.726562 6.22972 0.747228 6.33839 0.788562C6.44639 0.830562 6.54206 0.893229 6.62539 0.976562L11.1254 5.47656C11.2754 5.62656 11.3504 5.80156 11.3504 6.00156C11.3504 6.20156 11.2754 6.37656 11.1254 6.52656C10.9754 6.67656 10.8004 6.75156 10.6004 6.75156C10.4004 6.75156 10.2254 6.67656 10.0754 6.52656L6.00039 2.45156L1.92539 6.52656C1.77539 6.67656 1.60039 6.75156 1.40039 6.75156C1.20039 6.75156 1.02539 6.67656 0.875391 6.52656Z" fill="#065BAA"/>
</svg>