
<svg width="12" height="7" viewBox="0 0 12 7" fill="none" xmlns="http://www.w3.org/2000/svg">
    <path d="M6.00039 6.65033C5.88372 6.65033 5.77139 6.63366 5.66339 6.60033C5.55472 6.56699 5.45872 6.50033 5.37539 6.40033L0.85039 1.90033C0.717057 1.75033 0.650391 1.57533 0.650391 1.37533C0.650391 1.17533 0.725391 1.00033 0.875391 0.850327C1.02539 0.716993 1.20039 0.650326 1.40039 0.650326C1.60039 0.650326 1.77539 0.716993 1.92539 0.850327L6.00039 4.92533L10.1004 0.850327C10.2337 0.700327 10.4004 0.629326 10.6004 0.637326C10.8004 0.645993 10.9754 0.716993 11.1254 0.850327C11.2754 1.00033 11.3504 1.17933 11.3504 1.38733C11.3504 1.59599 11.2754 1.76699 11.1254 1.90033L6.62539 6.40033C6.54206 6.50033 6.44639 6.56699 6.33839 6.60033C6.22972 6.63366 6.11706 6.65033 6.00039 6.65033Z" fill="#065BAA"/>
</svg>
