<svg xmlns="http://www.w3.org/2000/svg" width="34" height="25.128" viewBox="0 0 44 56.128">
    <g data-name="Group 72645">
        <g data-name="bus seat">
            <path data-name="Subtraction 240" d="M4186.971-2224.528h-9.631a7.824 7.824 0 0 0-3.507-1.172 6.567 6.567 0 0 0-3.292 1.172l-2.426-.264v-15.571a6.587 6.587 0 0 0-1.525-2.5 6.277 6.277 0 0 0-2.588-1.254v-7.786l.011-.005c.286-.111 1.83-.7 4.115-1.353a14.5 14.5 0 0 0 14.4 12.763 14.483 14.483 0 0 0 9.605-3.637 14.483 14.483 0 0 0 4.773-8.974c2.376.652 3.907 1.2 3.921 1.206v7.786a6.51 6.51 0 0 0-2.946 1.254 3.544 3.544 0 0 0-.811 2.5v15.162l-3.228.673a7.717 7.717 0 0 0-3.54-1.172 6.506 6.506 0 0 0-3.327 1.172z" transform="translate(-4160.522 2267.515)" style="fill:#9e9e9e"/>
            <path data-name="Path 54193" d="M-5235.038 8076.569a3.363 3.363 0 0 0-.953-1.838 4.271 4.271 0 0 0-2.122-.717 10.888 10.888 0 0 1-3.729-.913 12.8 12.8 0 0 1-3.238-2.408l-.038-19.395a4.016 4.016 0 0 1 2.187-1.078 3.287 3.287 0 0 1 2.011 1.078l.039 14.665a7.593 7.593 0 0 0 2.489 1.669 12.385 12.385 0 0 0 3.542.612 6.9 6.9 0 0 1 3.129-.945 6.419 6.419 0 0 1 3.052.945h10.216a6.913 6.913 0 0 1 3.2-.945 6.508 6.508 0 0 1 3.13.945 19.058 19.058 0 0 0 3.306-.612 16.784 16.784 0 0 0 2.983-1.251l-.039-15.083a4.443 4.443 0 0 1 2.388-1.039 4.185 4.185 0 0 1 2.333 1.039l.038 19.395a15.841 15.841 0 0 1-3.834 2.408 14.29 14.29 0 0 1-4.292.913 3.671 3.671 0 0 0-1.918.717 3.847 3.847 0 0 0-.966 1.838 49.187 49.187 0 0 1-11.584 1.652 45.749 45.749 0 0 1-11.33-1.652z" transform="translate(5245.118 -8022.093)" style="fill:#9e9e9e"/>
        </g>
        <g data-name="Group 72645">
            <path data-name="Path 55561" d="M37 25a12 12 0 1 0 12 12 11.992 11.992 0 0 0-12-12zm0 1.558A10.442 10.442 0 1 1 26.558 37 10.449 10.449 0 0 1 37 26.558zm-9.116 7.735a11.826 11.826 0 0 0-.391 2.805c7.517 1.574 6.312 3.242 7.688 9.236a9.728 9.728 0 0 0 3.636 0c1.377-5.995.171-7.662 7.688-9.236a11.948 11.948 0 0 0-.39-2.805c-4.405-1.1-6.774-1.657-9.117-1.657s-4.71.556-9.114 1.658zM37 33.208A3.792 3.792 0 1 1 33.208 37 3.8 3.8 0 0 1 37 33.208zm0 .935A2.857 2.857 0 1 0 39.857 37 2.849 2.849 0 0 0 37 34.143z" transform="translate(-15 -25)" style="fill:#666"/>
        </g>
    </g>
</svg>
