<svg width="24" height="24" viewBox="0 0 32 32" fill="none" xmlns="http://www.w3.org/2000/svg">
<path d="M25.6966 8.34797V7.33464C25.6966 5.66797 24.9467 4.4813 23.4469 3.7613C21.9471 3.0413 19.4647 2.66797 15.9997 2.66797C12.5346 2.66797 10.1815 3.0413 8.62998 3.78797C7.07846 4.53464 6.3027 5.7213 6.3027 7.33464V8.34797C5.75967 8.34797 5.33301 8.8013 5.33301 9.34797V11.548C5.33301 12.0946 5.75967 12.548 6.3027 12.548V21.068C6.3027 21.8013 6.47079 22.468 6.81988 23.0413C7.15604 23.6146 7.54392 24.068 7.94472 24.3746V27.0013C7.94472 27.2946 8.03523 27.5346 8.22917 27.7213C8.41018 27.908 8.64291 28.0013 8.91442 28.0013H9.69018C9.97462 28.0013 10.2074 27.908 10.3884 27.7213C10.5694 27.5346 10.6599 27.2946 10.6599 27.0013V25.3346H21.3265V27.0013C21.3265 27.2946 21.417 27.5346 21.611 27.7213C21.792 27.908 22.0247 28.0013 22.2962 28.0013H23.072C23.3564 28.0013 23.5892 27.908 23.7702 27.7213C23.9512 27.5346 24.0417 27.2946 24.0417 27.0013V24.3746C24.4554 24.068 24.8304 23.6146 25.1795 23.0413C25.5156 22.468 25.6966 21.8013 25.6966 21.068V12.548C26.2267 12.548 26.6663 12.0946 26.6663 11.548V9.34797C26.6663 8.8013 26.2267 8.34797 25.6966 8.34797ZM23.7572 20.668C23.7572 21.4013 23.4987 22.0413 22.9944 22.5613C22.4902 23.0813 21.8825 23.3346 21.1714 23.3346H19.3096C19.2708 22.828 18.857 22.4413 18.3528 22.4413H13.6465C13.1423 22.4413 12.7286 22.828 12.6898 23.3346H10.828C10.1168 23.3346 9.50917 23.0813 9.00493 22.5613C8.48775 22.0413 8.2421 21.4013 8.2421 20.668V16.4946C10.6082 17.0546 13.2199 17.3746 15.9997 17.3746C18.7795 17.3746 21.3912 17.0546 23.7572 16.4813V20.668ZM23.7572 8.37464V14.388C21.417 15.0146 18.7665 15.3746 15.9997 15.3746C13.2328 15.3746 10.5823 15.028 8.2421 14.4013V8.37464C8.2421 6.86797 8.59119 6.37464 8.59119 6.37464C8.91442 5.86797 9.63846 5.45464 10.7504 5.13464C11.8494 4.82797 13.6207 4.66797 16.0255 4.66797C18.4304 4.66797 20.2793 4.82797 21.3912 5.1213C22.516 5.42797 23.2013 5.8413 23.4599 6.37464C23.7831 7.21464 23.7572 8.37464 23.7572 8.37464Z"/>
<path d="M17.0601 8.34766H14.9267C14.3966 8.34766 13.957 7.89432 13.957 7.34766C13.957 6.80099 14.3966 6.34766 14.9267 6.34766H17.0601C17.5902 6.34766 18.0298 6.80099 18.0298 7.34766C18.0298 7.89432 17.5902 8.34766 17.0601 8.34766Z"/>
<path d="M21.1716 21.4134C21.5336 21.4134 21.831 21.2801 22.0767 21.0268C22.3223 20.7734 22.4516 20.4668 22.4516 20.0934C22.4516 19.7201 22.3223 19.4134 22.0767 19.1601C21.831 18.9068 21.5336 18.7734 21.1716 18.7734C20.8096 18.7734 20.5122 18.9068 20.2666 19.1601C20.0209 19.4134 19.8916 19.7201 19.8916 20.0934C19.8916 20.4668 20.0209 20.7734 20.2666 21.0268C20.5122 21.2801 20.8096 21.4134 21.1716 21.4134Z"/>
<path d="M10.8669 21.4134C11.2289 21.4134 11.5263 21.2801 11.772 21.0268C12.0176 20.7734 12.1469 20.4668 12.1469 20.0934C12.1469 19.7201 12.0176 19.4134 11.772 19.1601C11.5263 18.9068 11.2289 18.7734 10.8669 18.7734C10.5049 18.7734 10.2075 18.9068 9.96186 19.1601C9.71621 19.4134 9.58691 19.7201 9.58691 20.0934C9.58691 20.4668 9.71621 20.7734 9.96186 21.0268C10.2075 21.2801 10.5049 21.4134 10.8669 21.4134Z"/>
</svg>
