<svg xmlns="http://www.w3.org/2000/svg" width="32" height="28.5" viewBox="0 0 44 44.5">
    <g data-name="bus seat">
        <path data-name="Path 54192" d="M-5238.576 8030.047v-7.786a55.3 55.3 0 0 1 17.952-3.481c9.205 0 18.869 3.481 18.869 3.481v7.786a6.42 6.42 0 0 0-2.945 1.253 3.524 3.524 0 0 0-.811 2.5v15.161l-3.228.673a7.622 7.622 0 0 0-3.54-1.173 6.4 6.4 0 0 0-3.327 1.173h-9.63a7.829 7.829 0 0 0-3.508-1.173 6.554 6.554 0 0 0-3.292 1.173l-2.426-.264v-15.57a6.585 6.585 0 0 0-1.525-2.5 6.2 6.2 0 0 0-2.589-1.253z" transform="translate(5242.054 -8018.28)" style="fill:rgba(25,75,155,.83);stroke:#105fae"/>
        <path data-name="Path 54193" d="M-5235.038 8076.569a3.363 3.363 0 0 0-.953-1.838 4.271 4.271 0 0 0-2.122-.717 10.888 10.888 0 0 1-3.729-.913 12.8 12.8 0 0 1-3.238-2.408l-.038-19.395a4.016 4.016 0 0 1 2.187-1.078 3.287 3.287 0 0 1 2.011 1.078l.039 14.665a7.593 7.593 0 0 0 2.489 1.669 12.385 12.385 0 0 0 3.542.612 6.9 6.9 0 0 1 3.129-.945 6.419 6.419 0 0 1 3.052.945h10.216a6.913 6.913 0 0 1 3.2-.945 6.508 6.508 0 0 1 3.13.945 19.058 19.058 0 0 0 3.306-.612 16.784 16.784 0 0 0 2.983-1.251l-.039-15.083a4.443 4.443 0 0 1 2.388-1.039 4.185 4.185 0 0 1 2.333 1.039l.038 19.395a15.841 15.841 0 0 1-3.834 2.408 14.29 14.29 0 0 1-4.292.913 3.671 3.671 0 0 0-1.918.717 3.847 3.847 0 0 0-.966 1.838 49.187 49.187 0 0 1-11.584 1.652 45.749 45.749 0 0 1-11.33-1.652z" transform="translate(5245.118 -8033.721)" style="fill:#105fae"/>
    </g>
</svg>
