<svg xmlns="http://www.w3.org/2000/svg" width="24" height="24">
    <path d="M0 0h24v24H0z" style="fill:none"/>
    <g transform="translate(5 2)">
        <path data-name="Path 41910" d="M8 0C4 0 0 .5 0 4v9.5a3.464 3.464 0 0 0 1 2.44V18a1 1 0 0 0 1 1h1a1 1 0 0 0 1-1v-1h8v1a1 1 0 0 0 1 1h1a1 1 0 0 0 1-1v-2.06a3.464 3.464 0 0 0 1-2.44V4c0-3.5-3.58-4-8-4zm0 2c3.71 0 5.13.46 5.67 1H2.43c.6-.52 2.05-1 5.57-1zm6 11a2.006 2.006 0 0 1-2 2H4a2.006 2.006 0 0 1-2-2v-3h12zm0-5L2 5h12z"/>
        <circle data-name="Ellipse 926" cx="1.5" cy="1.5" r="1.5" transform="translate(3 11)"/>
        <circle data-name="Ellipse 927" cx="1.5" cy="1.5" r="1.5" transform="translate(10 11)"/>
    </g>
</svg>
