<svg width="24" height="24" viewBox="0 0 24 24" fill="none" xmlns="http://www.w3.org/2000/svg">
<path d="M3.5 20C3.08333 20 2.72933 19.854 2.438 19.562C2.146 19.2707 2 18.9167 2 18.5V14.9C2.56667 14.8 3.04167 14.525 3.425 14.075C3.80833 13.625 4 13.1 4 12.5C4 11.9 3.80833 11.375 3.425 10.925C3.04167 10.475 2.56667 10.2 2 10.1V6.5C2 6.08333 2.146 5.72933 2.438 5.438C2.72933 5.146 3.08333 5 3.5 5H19.5C19.9167 5 20.2707 5.146 20.562 5.438C20.854 5.72933 21 6.08333 21 6.5V18.5C21 18.9167 20.854 19.2707 20.562 19.562C20.2707 19.854 19.9167 20 19.5 20H3.5ZM3.5 18.5H19.5V6.5H3.5V9.05C4.11667 9.41667 4.60433 9.904 4.963 10.512C5.321 11.1207 5.5 11.7833 5.5 12.5C5.5 13.2167 5.321 13.8793 4.963 14.488C4.60433 15.096 4.11667 15.5833 3.5 15.95V18.5Z" fill="#696A6B"/>
<path d="M9.4125 17.25C9.2625 17.25 9.1375 17.198 9.0375 17.094C8.9375 16.9897 8.8875 16.8667 8.8875 16.725V15.8875C8.72917 15.7708 8.58333 15.6042 8.45 15.3875C8.31667 15.1708 8.25 14.925 8.25 14.65V10C8.25 9.39167 8.55 8.94783 9.15 8.6685C9.75 8.3895 10.7 8.25 12 8.25C13.3417 8.25 14.3022 8.38533 14.8815 8.656C15.4605 8.927 15.75 9.375 15.75 10V14.65C15.75 14.925 15.6833 15.1708 15.55 15.3875C15.4167 15.6042 15.2708 15.7708 15.1125 15.8875V16.725C15.1125 16.8667 15.0625 16.9897 14.9625 17.094C14.8625 17.198 14.7375 17.25 14.5875 17.25C14.4375 17.25 14.3125 17.198 14.2125 17.094C14.1125 16.9897 14.0625 16.8667 14.0625 16.725V16.25H9.9375V16.725C9.9375 16.8667 9.8875 16.9897 9.7875 17.094C9.6875 17.198 9.5625 17.25 9.4125 17.25ZM9 12.25H15V10.3875H9V12.25ZM10.25 14.9C10.4333 14.9 10.5875 14.8375 10.7125 14.7125C10.8375 14.5875 10.9 14.4333 10.9 14.25C10.9 14.0667 10.8375 13.9125 10.7125 13.7875C10.5875 13.6625 10.4333 13.6 10.25 13.6C10.0667 13.6 9.9125 13.6625 9.7875 13.7875C9.6625 13.9125 9.6 14.0667 9.6 14.25C9.6 14.4333 9.6625 14.5875 9.7875 14.7125C9.9125 14.8375 10.0667 14.9 10.25 14.9ZM13.75 14.9C13.9333 14.9 14.0875 14.8375 14.2125 14.7125C14.3375 14.5875 14.4 14.4333 14.4 14.25C14.4 14.0667 14.3375 13.9125 14.2125 13.7875C14.0875 13.6625 13.9333 13.6 13.75 13.6C13.5667 13.6 13.4125 13.6625 13.2875 13.7875C13.1625 13.9125 13.1 14.0667 13.1 14.25C13.1 14.4333 13.1625 14.5875 13.2875 14.7125C13.4125 14.8375 13.5667 14.9 13.75 14.9Z" fill="#696A6B"/>
</svg>