<svg width="10" height="14" viewBox="0 0 10 14" fill="none" xmlns="http://www.w3.org/2000/svg">
<path d="M1.2 13.3667C0.866667 13.3667 0.583333 13.25 0.35 13.0167C0.116667 12.7833 0 12.5 0 12.1667V4.33333C0 3.73333 0.188889 3.20822 0.566667 2.758C0.944444 2.30822 1.42222 2.02222 2 1.9V0.5H3.66667V1.83333H6.33333V0.5H8V1.9C8.57778 2.02222 9.05556 2.30822 9.43333 2.758C9.81111 3.20822 10 3.73333 10 4.33333V12.1667C10 12.5 9.88333 12.7833 9.65 13.0167C9.41667 13.25 9.13333 13.3667 8.8 13.3667H1.2ZM1.2 12.3667H8.8C8.85556 12.3667 8.90289 12.3471 8.942 12.308C8.98067 12.2693 9 12.2222 9 12.1667V4.33333C9 3.92222 8.85267 3.56933 8.558 3.27467C8.26378 2.98044 7.91111 2.83333 7.5 2.83333H2.5C2.08889 2.83333 1.736 2.98044 1.44133 3.27467C1.14711 3.56933 1 3.92222 1 4.33333V12.1667C1 12.2222 1.01956 12.2693 1.05867 12.308C1.09733 12.3471 1.14444 12.3667 1.2 12.3667ZM6.86667 9.5H7.86667V7.16667H2.13333V8.16667H6.86667V9.5ZM1.2 12.3667H1H9H8.8H1.2Z" fill="#D8000C"/>
</svg>
