<svg width="12" height="14" viewBox="0 0 12 14" fill="none" xmlns="http://www.w3.org/2000/svg">
<path d="M3.33325 8.30065C3.16659 8.30065 3.0277 8.24243 2.91659 8.12598C2.80547 8.0091 2.74992 7.86732 2.74992 7.70065C2.74992 7.5451 2.80547 7.4091 2.91659 7.29265C3.0277 7.17576 3.16659 7.11732 3.33325 7.11732C3.49992 7.11732 3.63881 7.17576 3.74992 7.29265C3.86103 7.4091 3.91659 7.5451 3.91659 7.70065C3.91659 7.86732 3.86103 8.0091 3.74992 8.12598C3.63881 8.24243 3.49992 8.30065 3.33325 8.30065ZM5.99992 8.30065C5.83325 8.30065 5.69436 8.24243 5.58325 8.12598C5.47214 8.0091 5.41659 7.86732 5.41659 7.70065C5.41659 7.5451 5.47214 7.4091 5.58325 7.29265C5.69436 7.17576 5.83325 7.11732 5.99992 7.11732C6.16659 7.11732 6.30547 7.17576 6.41659 7.29265C6.5277 7.4091 6.58325 7.5451 6.58325 7.70065C6.58325 7.86732 6.5277 8.0091 6.41659 8.12598C6.30547 8.24243 6.16659 8.30065 5.99992 8.30065ZM8.66659 8.30065C8.49992 8.30065 8.36103 8.24243 8.24992 8.12598C8.13881 8.0091 8.08325 7.86732 8.08325 7.70065C8.08325 7.5451 8.13881 7.4091 8.24992 7.29265C8.36103 7.17576 8.49992 7.11732 8.66659 7.11732C8.83325 7.11732 8.97214 7.17576 9.08325 7.29265C9.19436 7.4091 9.24992 7.5451 9.24992 7.70065C9.24992 7.86732 9.19436 8.0091 9.08325 8.12598C8.97214 8.24243 8.83325 8.30065 8.66659 8.30065ZM1.53325 13.334C1.19992 13.334 0.916585 13.2173 0.683252 12.984C0.449919 12.7507 0.333252 12.4673 0.333252 12.134V3.20065C0.333252 2.86732 0.449919 2.58398 0.683252 2.35065C0.916585 2.11732 1.19992 2.00065 1.53325 2.00065H2.46659V1.08398C2.46659 0.93954 2.5137 0.819984 2.60792 0.725318C2.70259 0.631095 2.82214 0.583984 2.96659 0.583984C3.12214 0.583984 3.24703 0.633984 3.34125 0.733984C3.43592 0.833984 3.48325 0.956207 3.48325 1.10065V2.00065H8.53325V1.06732C8.53325 0.933984 8.58325 0.819984 8.68325 0.725318C8.78325 0.631095 8.89992 0.583984 9.03325 0.583984C9.1777 0.583984 9.29703 0.633984 9.39125 0.733984C9.48592 0.833984 9.53325 0.950651 9.53325 1.08398V2.00065H10.4666C10.7999 2.00065 11.0833 2.11732 11.3166 2.35065C11.5499 2.58398 11.6666 2.86732 11.6666 3.20065V12.134C11.6666 12.4673 11.5499 12.7507 11.3166 12.984C11.0833 13.2173 10.7999 13.334 10.4666 13.334H1.53325ZM1.53325 12.334H10.4666C10.5221 12.334 10.5695 12.3147 10.6086 12.276C10.6473 12.2369 10.6666 12.1895 10.6666 12.134V5.86732H1.33325V12.134C1.33325 12.1895 1.35281 12.2369 1.39192 12.276C1.43059 12.3147 1.4777 12.334 1.53325 12.334ZM1.33325 4.86732H10.6666V3.20065C10.6666 3.1451 10.6473 3.09798 10.6086 3.05932C10.5695 3.02021 10.5221 3.00065 10.4666 3.00065H1.53325C1.4777 3.00065 1.43059 3.02021 1.39192 3.05932C1.35281 3.09798 1.33325 3.1451 1.33325 3.20065V4.86732ZM1.33325 4.86732V3.00065V4.86732Z" fill="#696A6B"/>
</svg>
