<svg width="49" height="49" viewBox="0 0 49 49" fill="none" xmlns="http://www.w3.org/2000/svg">
<g id="time/calendar_month">
<path id="Vector" d="M12.1 42.75C11.1 42.75 10.25 42.4 9.55 41.7C8.85 41 8.5 40.15 8.5 39.15V12.35C8.5 11.35 8.85 10.5 9.55 9.8C10.25 9.1 11.1 8.75 12.1 8.75H14.9V4.5H17.95V8.75H33.1V4.5H36.1V8.75H38.9C39.9 8.75 40.75 9.1 41.45 9.8C42.15 10.5 42.5 11.35 42.5 12.35V39.15C42.5 40.15 42.15 41 41.45 41.7C40.75 42.4 39.9 42.75 38.9 42.75H12.1ZM12.1 39.75H38.9C39.0333 39.75 39.1667 39.6833 39.3 39.55C39.4333 39.4167 39.5 39.2833 39.5 39.15V20.35H11.5V39.15C11.5 39.2833 11.5667 39.4167 11.7 39.55C11.8333 39.6833 11.9667 39.75 12.1 39.75ZM11.5 17.35H39.5V12.35C39.5 12.2167 39.4333 12.0833 39.3 11.95C39.1667 11.8167 39.0333 11.75 38.9 11.75H12.1C11.9667 11.75 11.8333 11.8167 11.7 11.95C11.5667 12.0833 11.5 12.2167 11.5 12.35V17.35ZM11.5 17.35V11.75V17.35ZM25.5 27.9C25 27.9 24.5833 27.7247 24.25 27.374C23.9167 27.0247 23.75 26.6167 23.75 26.15C23.75 25.65 23.9167 25.2247 24.25 24.874C24.5833 24.5247 25 24.35 25.5 24.35C26 24.35 26.4167 24.5247 26.75 24.874C27.0833 25.2247 27.25 25.65 27.25 26.15C27.25 26.6167 27.0833 27.0247 26.75 27.374C26.4167 27.7247 26 27.9 25.5 27.9ZM17.5 27.9C17 27.9 16.5833 27.7247 16.25 27.374C15.9167 27.0247 15.75 26.6167 15.75 26.15C15.75 25.65 15.9167 25.2247 16.25 24.874C16.5833 24.5247 17 24.35 17.5 24.35C18 24.35 18.4167 24.5247 18.75 24.874C19.0833 25.2247 19.25 25.65 19.25 26.15C19.25 26.6167 19.0833 27.0247 18.75 27.374C18.4167 27.7247 18 27.9 17.5 27.9ZM33.5 27.9C33 27.9 32.5833 27.7247 32.25 27.374C31.9167 27.0247 31.75 26.6167 31.75 26.15C31.75 25.65 31.9167 25.2247 32.25 24.874C32.5833 24.5247 33 24.35 33.5 24.35C34 24.35 34.4167 24.5247 34.75 24.874C35.0833 25.2247 35.25 25.65 35.25 26.15C35.25 26.6167 35.0833 27.0247 34.75 27.374C34.4167 27.7247 34 27.9 33.5 27.9ZM25.5 35.75C25 35.75 24.5833 35.5753 24.25 35.226C23.9167 34.8753 23.75 34.4667 23.75 34C23.75 33.5 23.9167 33.0753 24.25 32.726C24.5833 32.3753 25 32.2 25.5 32.2C26 32.2 26.4167 32.3753 26.75 32.726C27.0833 33.0753 27.25 33.5 27.25 34C27.25 34.4667 27.0833 34.8753 26.75 35.226C26.4167 35.5753 26 35.75 25.5 35.75ZM17.5 35.75C17 35.75 16.5833 35.5753 16.25 35.226C15.9167 34.8753 15.75 34.4667 15.75 34C15.75 33.5 15.9167 33.0753 16.25 32.726C16.5833 32.3753 17 32.2 17.5 32.2C18 32.2 18.4167 32.3753 18.75 32.726C19.0833 33.0753 19.25 33.5 19.25 34C19.25 34.4667 19.0833 34.8753 18.75 35.226C18.4167 35.5753 18 35.75 17.5 35.75ZM33.5 35.75C33 35.75 32.5833 35.5753 32.25 35.226C31.9167 34.8753 31.75 34.4667 31.75 34C31.75 33.5 31.9167 33.0753 32.25 32.726C32.5833 32.3753 33 32.2 33.5 32.2C34 32.2 34.4167 32.3753 34.75 32.726C35.0833 33.0753 35.25 33.5 35.25 34C35.25 34.4667 35.0833 34.8753 34.75 35.226C34.4167 35.5753 34 35.75 33.5 35.75Z" fill="#121516"/>
</g>
</svg>
