<svg width="36" height="36" viewBox="0 0 36 36" fill="none" xmlns="http://www.w3.org/2000/svg">
<g id="time/calendar_month">
<path id="Vector" d="M8.7 31.6875C7.95 31.6875 7.3125 31.425 6.7875 30.9C6.2625 30.375 6 29.7375 6 28.9875V8.8875C6 8.1375 6.2625 7.5 6.7875 6.975C7.3125 6.45 7.95 6.1875 8.7 6.1875H10.8V3H13.0875V6.1875H24.45V3H26.7V6.1875H28.8C29.55 6.1875 30.1875 6.45 30.7125 6.975C31.2375 7.5 31.5 8.1375 31.5 8.8875V28.9875C31.5 29.7375 31.2375 30.375 30.7125 30.9C30.1875 31.425 29.55 31.6875 28.8 31.6875H8.7ZM8.7 29.4375H28.8C28.9 29.4375 29 29.3875 29.1 29.2875C29.2 29.1875 29.25 29.0875 29.25 28.9875V14.8875H8.25V28.9875C8.25 29.0875 8.3 29.1875 8.4 29.2875C8.5 29.3875 8.6 29.4375 8.7 29.4375ZM8.25 12.6375H29.25V8.8875C29.25 8.7875 29.2 8.6875 29.1 8.5875C29 8.4875 28.9 8.4375 28.8 8.4375H8.7C8.6 8.4375 8.5 8.4875 8.4 8.5875C8.3 8.6875 8.25 8.7875 8.25 8.8875V12.6375ZM8.25 12.6375V8.4375V12.6375ZM18.75 20.55C18.375 20.55 18.0625 20.4185 17.8125 20.1555C17.5625 19.8935 17.4375 19.5875 17.4375 19.2375C17.4375 18.8625 17.5625 18.5435 17.8125 18.2805C18.0625 18.0185 18.375 17.8875 18.75 17.8875C19.125 17.8875 19.4375 18.0185 19.6875 18.2805C19.9375 18.5435 20.0625 18.8625 20.0625 19.2375C20.0625 19.5875 19.9375 19.8935 19.6875 20.1555C19.4375 20.4185 19.125 20.55 18.75 20.55ZM12.75 20.55C12.375 20.55 12.0625 20.4185 11.8125 20.1555C11.5625 19.8935 11.4375 19.5875 11.4375 19.2375C11.4375 18.8625 11.5625 18.5435 11.8125 18.2805C12.0625 18.0185 12.375 17.8875 12.75 17.8875C13.125 17.8875 13.4375 18.0185 13.6875 18.2805C13.9375 18.5435 14.0625 18.8625 14.0625 19.2375C14.0625 19.5875 13.9375 19.8935 13.6875 20.1555C13.4375 20.4185 13.125 20.55 12.75 20.55ZM24.75 20.55C24.375 20.55 24.0625 20.4185 23.8125 20.1555C23.5625 19.8935 23.4375 19.5875 23.4375 19.2375C23.4375 18.8625 23.5625 18.5435 23.8125 18.2805C24.0625 18.0185 24.375 17.8875 24.75 17.8875C25.125 17.8875 25.4375 18.0185 25.6875 18.2805C25.9375 18.5435 26.0625 18.8625 26.0625 19.2375C26.0625 19.5875 25.9375 19.8935 25.6875 20.1555C25.4375 20.4185 25.125 20.55 24.75 20.55ZM18.75 26.4375C18.375 26.4375 18.0625 26.3065 17.8125 26.0445C17.5625 25.7815 17.4375 25.475 17.4375 25.125C17.4375 24.75 17.5625 24.4315 17.8125 24.1695C18.0625 23.9065 18.375 23.775 18.75 23.775C19.125 23.775 19.4375 23.9065 19.6875 24.1695C19.9375 24.4315 20.0625 24.75 20.0625 25.125C20.0625 25.475 19.9375 25.7815 19.6875 26.0445C19.4375 26.3065 19.125 26.4375 18.75 26.4375ZM12.75 26.4375C12.375 26.4375 12.0625 26.3065 11.8125 26.0445C11.5625 25.7815 11.4375 25.475 11.4375 25.125C11.4375 24.75 11.5625 24.4315 11.8125 24.1695C12.0625 23.9065 12.375 23.775 12.75 23.775C13.125 23.775 13.4375 23.9065 13.6875 24.1695C13.9375 24.4315 14.0625 24.75 14.0625 25.125C14.0625 25.475 13.9375 25.7815 13.6875 26.0445C13.4375 26.3065 13.125 26.4375 12.75 26.4375ZM24.75 26.4375C24.375 26.4375 24.0625 26.3065 23.8125 26.0445C23.5625 25.7815 23.4375 25.475 23.4375 25.125C23.4375 24.75 23.5625 24.4315 23.8125 24.1695C24.0625 23.9065 24.375 23.775 24.75 23.775C25.125 23.775 25.4375 23.9065 25.6875 24.1695C25.9375 24.4315 26.0625 24.75 26.0625 25.125C26.0625 25.475 25.9375 25.7815 25.6875 26.0445C25.4375 26.3065 25.125 26.4375 24.75 26.4375Z" fill="#696A6B"/>
</g>
</svg>
