<svg width="25" height="24" viewBox="0 0 25 24" fill="none" xmlns="http://www.w3.org/2000/svg">
<path d="M9.84779 21C9.60074 21 9.35791 20.9516 9.11932 20.8549C8.88144 20.7575 8.67427 20.6206 8.49779 20.4441L4.36838 16.3147C4.19191 16.1382 4.05532 15.9311 3.95862 15.6932C3.86121 15.4546 3.8125 15.2118 3.8125 14.9647V9.03529C3.8125 8.78824 3.86121 8.54541 3.95862 8.30682C4.05532 8.06894 4.19191 7.86177 4.36838 7.68529L8.49779 3.55588C8.67427 3.37941 8.88144 3.24247 9.11932 3.14506C9.35791 3.04835 9.60074 3 9.84779 3H15.7772C16.0243 3 16.2671 3.04835 16.5057 3.14506C16.7436 3.24247 16.9507 3.37941 17.1272 3.55588L21.2566 7.68529C21.4331 7.86177 21.57 8.06894 21.6674 8.30682C21.7641 8.54541 21.8125 8.78824 21.8125 9.03529V14.9647C21.8125 15.2118 21.7641 15.4546 21.6674 15.6932C21.57 15.9311 21.4331 16.1382 21.2566 16.3147L17.1272 20.4441C16.9507 20.6206 16.7436 20.7575 16.5057 20.8549C16.2671 20.9516 16.0243 21 15.7772 21H9.84779ZM9.74191 19.4118H15.8831L20.2243 15.0706V8.92941L15.8831 4.58824H9.74191L5.40074 8.92941V15.0706L9.74191 19.4118Z" fill="#121516"/>
<path d="M9.96767 14.8448C10.0711 14.9483 10.1918 15 10.3297 15C10.4677 15 10.5884 14.9483 10.6918 14.8448L12.8125 12.7241L14.9504 14.8621C15.0424 14.954 15.1603 14.997 15.3042 14.991C15.4477 14.9855 15.5654 14.9368 15.6573 14.8448C15.7608 14.7414 15.8125 14.6207 15.8125 14.4828C15.8125 14.3448 15.7608 14.2241 15.6573 14.1207L13.5366 12L15.6746 9.86207C15.7665 9.77011 15.8095 9.65218 15.8035 9.50828C15.798 9.36483 15.7493 9.24713 15.6573 9.15517C15.5539 9.05172 15.4332 9 15.2953 9C15.1573 9 15.0366 9.05172 14.9332 9.15517L12.8125 11.2759L10.6746 9.13793C10.5826 9.04598 10.4649 9.00276 10.3215 9.00828C10.1776 9.01425 10.0596 9.06322 9.96767 9.15517C9.86422 9.25862 9.8125 9.37931 9.8125 9.51724C9.8125 9.65517 9.86422 9.77586 9.96767 9.87931L12.0884 12L9.95043 14.1379C9.85848 14.2299 9.81549 14.3476 9.82147 14.491C9.82698 14.6349 9.87572 14.7529 9.96767 14.8448Z" fill="#121516"/>
</svg>
