<svg width="16" height="14" viewBox="0 0 16 14" fill="none" xmlns="http://www.w3.org/2000/svg">
<path d="M2.6888 11.4193V12.2318C2.6888 12.4679 2.60547 12.6693 2.4388 12.8359C2.27214 13.0026 2.05686 13.0859 1.79297 13.0859C1.55686 13.0859 1.35186 12.9993 1.17797 12.8259C1.00464 12.652 0.917969 12.447 0.917969 12.2109V6.0651L2.6263 1.21094C2.68186 1.01649 2.79297 0.863715 2.95964 0.752604C3.1263 0.641493 3.3138 0.585938 3.52214 0.585938H12.5221C12.7166 0.585938 12.8935 0.645104 13.053 0.763437C13.213 0.881215 13.3207 1.03038 13.3763 1.21094L15.0846 6.0651V12.2318C15.0846 12.4679 15.0013 12.6693 14.8346 12.8359C14.668 13.0026 14.4596 13.0859 14.2096 13.0859C13.9596 13.0859 13.748 12.9993 13.5746 12.8259C13.4007 12.652 13.3138 12.447 13.3138 12.2109V11.4193H2.6888ZM2.66797 4.8151H13.3346L12.2721 1.83594H3.73047L2.66797 4.8151ZM2.16797 6.0651V10.1693V6.0651ZM4.23047 9.21094C4.52214 9.21094 4.77547 9.10316 4.99047 8.8876C5.20602 8.6726 5.3138 8.41233 5.3138 8.10677C5.3138 7.8151 5.20602 7.56177 4.99047 7.34677C4.77547 7.13122 4.51519 7.02344 4.20964 7.02344C3.91797 7.02344 3.66464 7.13122 3.44964 7.34677C3.23408 7.56177 3.1263 7.82205 3.1263 8.1276C3.1263 8.41927 3.23408 8.6726 3.44964 8.8876C3.66464 9.10316 3.92491 9.21094 4.23047 9.21094ZM11.793 9.21094C12.0846 9.21094 12.338 9.10316 12.553 8.8876C12.7685 8.6726 12.8763 8.41233 12.8763 8.10677C12.8763 7.8151 12.7685 7.56177 12.553 7.34677C12.338 7.13122 12.0777 7.02344 11.7721 7.02344C11.4805 7.02344 11.2271 7.13122 11.0121 7.34677C10.7966 7.56177 10.6888 7.82205 10.6888 8.1276C10.6888 8.41927 10.7966 8.6726 11.0121 8.8876C11.2271 9.10316 11.4874 9.21094 11.793 9.21094ZM2.16797 10.1693H13.8346V6.0651H2.16797V10.1693Z" fill="#9D9F9F"/>
</svg>
