<svg width="16" height="16" viewBox="0 0 16 16" fill="none" xmlns="http://www.w3.org/2000/svg">
<mask id="mask0_5143_13645" style="mask-type:alpha" maskUnits="userSpaceOnUse" x="0" y="0" width="16" height="16">
<rect width="16" height="16" fill="#D9D9D9"/>
</mask>
<g mask="url(#mask0_5143_13645)">
<path d="M10.6667 11.334C11.2222 11.334 11.6944 11.5284 12.0833 11.9173C12.4722 12.3062 12.6667 12.7784 12.6667 13.334C12.6667 13.8895 12.4722 14.3618 12.0833 14.7507C11.6944 15.1395 11.2222 15.334 10.6667 15.334C10.2444 15.334 9.86389 15.2118 9.525 14.9673C9.18611 14.7229 8.93889 14.4007 8.78333 14.0007H5.33333C4.96667 14.0007 4.65278 13.8701 4.39167 13.609C4.13056 13.3479 4 13.034 4 12.6673V6.00065C4 5.63398 4.13056 5.3201 4.39167 5.05898C4.65278 4.79787 4.96667 4.66732 5.33333 4.66732H9.33333V2.66732H8.66667C8.47778 2.66732 8.31944 2.60343 8.19167 2.47565C8.06389 2.34787 8 2.18954 8 2.00065C8 1.81176 8.06389 1.65343 8.19167 1.52565C8.31944 1.39787 8.47778 1.33398 8.66667 1.33398H10C10.1889 1.33398 10.3472 1.39787 10.475 1.52565C10.6028 1.65343 10.6667 1.81176 10.6667 2.00065V11.334ZM6 12.6673V6.00065H5.33333V12.6673H6ZM7.33333 6.00065V12.6673H8.78333C8.82778 12.5007 8.9 12.3479 9 12.209C9.1 12.0701 9.21111 11.9451 9.33333 11.834V6.00065H7.33333ZM10.6667 14.334C10.9444 14.334 11.1806 14.2368 11.375 14.0423C11.5694 13.8479 11.6667 13.6118 11.6667 13.334C11.6667 13.0562 11.5694 12.8201 11.375 12.6257C11.1806 12.4312 10.9444 12.334 10.6667 12.334C10.3889 12.334 10.1528 12.4312 9.95833 12.6257C9.76389 12.8201 9.66667 13.0562 9.66667 13.334C9.66667 13.6118 9.76389 13.8479 9.95833 14.0423C10.1528 14.2368 10.3889 14.334 10.6667 14.334Z" fill="#1E1E1E"/>
</g>
</svg>
