<svg width="18" height="18" viewBox="0 0 18 18" fill="none" xmlns="http://www.w3.org/2000/svg">
<path d="M9.12344 18V16.5H2.39844C2.33177 16.5 2.26511 16.4667 2.19844 16.4C2.13177 16.3333 2.09844 16.2667 2.09844 16.2V2.3C2.09844 2.23333 2.13177 2.16667 2.19844 2.1C2.26511 2.03333 2.33177 2 2.39844 2H9.12344V0.5H2.39844C1.89844 0.5 1.47344 0.675 1.12344 1.025C0.773438 1.375 0.598438 1.8 0.598438 2.3V16.2C0.598438 16.7 0.773438 17.125 1.12344 17.475C1.47344 17.825 1.89844 18 2.39844 18H9.12344ZM10.3734 13.525L11.4234 12.425L8.99844 10H17.3984V8.5H8.99844L11.4234 6.075L10.3734 4.975L6.12344 9.25L10.3734 13.525Z" fill="#121516"/>
</svg>
