<svg width="17" height="18" viewBox="0 0 17 18" fill="none" xmlns="http://www.w3.org/2000/svg">
<path d="M15.2 17.5C15.7 17.5 16.125 17.325 16.475 16.975C16.825 16.625 17 16.2 17 15.7V1.8C17 1.3 16.825 0.875 16.475 0.525C16.125 0.175 15.7 0 15.2 0H8.475V1.5H15.2C15.2667 1.5 15.3333 1.53333 15.4 1.6C15.4667 1.66667 15.5 1.73333 15.5 1.8V15.7C15.5 15.7667 15.4667 15.8333 15.4 15.9C15.3333 15.9667 15.2667 16 15.2 16H8.475V17.5H15.2ZM4.475 13.025L5.5 11.925L3.075 9.5H11.475V8H3.075L5.5 5.575L4.475 4.475L0.200001 8.75L4.475 13.025Z" fill="#121516"/>
</svg>
