<svg width="24" height="25" viewBox="0 0 24 25" fill="none" xmlns="http://www.w3.org/2000/svg">
<g id="Navigations/chevron_left">
<path id="Vector" d="M13.4751 17.6254L8.9751 13.1254C8.89176 13.0421 8.8291 12.9461 8.7871 12.8374C8.74576 12.7294 8.7251 12.6171 8.7251 12.5004C8.7251 12.3837 8.74576 12.2711 8.7871 12.1624C8.8291 12.0544 8.89176 11.9587 8.9751 11.8754L13.4751 7.37539C13.6251 7.22539 13.8001 7.15039 14.0001 7.15039C14.2001 7.15039 14.3751 7.22539 14.5251 7.37539C14.6751 7.52539 14.7501 7.70039 14.7501 7.90039C14.7501 8.10039 14.6751 8.27539 14.5251 8.42539L10.4501 12.5004L14.5251 16.5754C14.6751 16.7254 14.7501 16.9004 14.7501 17.1004C14.7501 17.3004 14.6751 17.4754 14.5251 17.6254C14.3751 17.7754 14.2001 17.8504 14.0001 17.8504C13.8001 17.8504 13.6251 17.7754 13.4751 17.6254Z" fill="white"/>
</g>
</svg>
