<svg width="18" height="18" viewBox="0 0 18 18" fill="none" xmlns="http://www.w3.org/2000/svg">
    <path
        d="M8.10156 9.00156L11.0266 11.9266C11.1641 12.0641 11.2328 12.2391 11.2328 12.4516C11.2328 12.6641 11.1641 12.8391 11.0266 12.9766C10.8891 13.1141 10.7141 13.1828 10.5016 13.1828C10.2891 13.1828 10.1141 13.1141 9.97656 12.9766L6.52656 9.52656C6.45156 9.45156 6.39844 9.37031 6.36719 9.28281C6.33594 9.19531 6.32031 9.10156 6.32031 9.00156C6.32031 8.90156 6.33594 8.80781 6.36719 8.72031C6.39844 8.63281 6.45156 8.55156 6.52656 8.47656L9.97656 5.02656C10.1141 4.88906 10.2891 4.82031 10.5016 4.82031C10.7141 4.82031 10.8891 4.88906 11.0266 5.02656C11.1641 5.16406 11.2328 5.33906 11.2328 5.55156C11.2328 5.76406 11.1641 5.93906 11.0266 6.07656L8.10156 9.00156Z"
        fill="#105FAE" />
</svg>