<svg width="12" height="12" viewBox="0 0 12 12" fill="none" xmlns="http://www.w3.org/2000/svg">
<path d="M7.63594 5.73594C7.42483 5.73594 7.24994 5.66371 7.11127 5.51927C6.97216 5.37483 6.9026 5.2026 6.9026 5.0026C6.9026 4.8026 6.97216 4.63038 7.11127 4.48594C7.24994 4.34149 7.42483 4.26927 7.63594 4.26927C7.83594 4.26927 8.00816 4.34149 8.1526 4.48594C8.29705 4.63038 8.36927 4.8026 8.36927 5.0026C8.36927 5.2026 8.29705 5.37483 8.1526 5.51927C8.00816 5.66371 7.83594 5.73594 7.63594 5.73594ZM4.36927 5.73594C4.16927 5.73594 3.99705 5.66371 3.8526 5.51927C3.70816 5.37483 3.63594 5.2026 3.63594 5.0026C3.63594 4.8026 3.70816 4.63038 3.8526 4.48594C3.99705 4.34149 4.16927 4.26927 4.36927 4.26927C4.58038 4.26927 4.75549 4.34149 4.8946 4.48594C5.03327 4.63038 5.1026 4.8026 5.1026 5.0026C5.1026 5.2026 5.03327 5.37483 4.8946 5.51927C4.75549 5.66371 4.58038 5.73594 4.36927 5.73594ZM6.0026 9.08594C5.4026 9.08594 4.85549 8.92483 4.36127 8.6026C3.8666 8.28038 3.48594 7.85816 3.21927 7.33594H8.78594C8.51927 7.85816 8.13883 8.28038 7.6446 8.6026C7.14994 8.92483 6.6026 9.08594 6.0026 9.08594ZM6.0026 11.6693C5.21372 11.6693 4.47772 11.5193 3.7946 11.2193C3.11105 10.9193 2.51372 10.5137 2.0026 10.0026C1.49149 9.49149 1.08594 8.89416 0.785938 8.2106C0.485938 7.52749 0.335938 6.79149 0.335938 6.0026C0.335938 5.21372 0.485938 4.47772 0.785938 3.7946C1.08594 3.11105 1.49149 2.51372 2.0026 2.0026C2.51372 1.49149 3.11105 1.08594 3.7946 0.785938C4.47772 0.485938 5.21372 0.335938 6.0026 0.335938C6.79149 0.335938 7.52749 0.485938 8.2106 0.785938C8.89416 1.08594 9.49149 1.49149 10.0026 2.0026C10.5137 2.51372 10.9193 3.11105 11.2193 3.7946C11.5193 4.47772 11.6693 5.21372 11.6693 6.0026C11.6693 6.79149 11.5193 7.52749 11.2193 8.2106C10.9193 8.89416 10.5137 9.49149 10.0026 10.0026C9.49149 10.5137 8.89416 10.9193 8.2106 11.2193C7.52749 11.5193 6.79149 11.6693 6.0026 11.6693ZM6.0026 10.6693C7.29149 10.6693 8.39149 10.2137 9.3026 9.3026C10.2137 8.39149 10.6693 7.29149 10.6693 6.0026C10.6693 4.71372 10.2137 3.61372 9.3026 2.7026C8.39149 1.79149 7.29149 1.33594 6.0026 1.33594C5.91371 1.33594 5.82216 1.3386 5.72794 1.34394C5.63327 1.34972 5.54149 1.36372 5.4526 1.38594C5.39705 1.46372 5.36371 1.53594 5.3526 1.6026C5.34149 1.66927 5.33594 1.74705 5.33594 1.83594C5.33594 2.09149 5.42771 2.31083 5.61127 2.49394C5.79438 2.67749 6.01371 2.76927 6.26927 2.76927C6.38038 2.76927 6.47483 2.7526 6.5526 2.71927C6.63038 2.68594 6.71371 2.66927 6.8026 2.66927C6.9026 2.66927 6.98883 2.70816 7.06127 2.78594C7.13327 2.86372 7.16927 2.95816 7.16927 3.06927C7.16927 3.26927 7.0666 3.4026 6.86127 3.46927C6.65549 3.53594 6.45816 3.56927 6.26927 3.56927C5.79149 3.56927 5.38305 3.39971 5.04394 3.0606C4.70527 2.72194 4.53594 2.31372 4.53594 1.83594V1.71927C4.53594 1.68594 4.54705 1.63594 4.56927 1.56927C3.62483 1.88038 2.84994 2.43594 2.2446 3.23594C1.63883 4.03594 1.33594 4.95816 1.33594 6.0026C1.33594 7.29149 1.79149 8.39149 2.7026 9.3026C3.61372 10.2137 4.71372 10.6693 6.0026 10.6693Z" fill="#D8000C"/>
</svg>
