<svg xmlns="http://www.w3.org/2000/svg" width="20" height="20">
    <path data-name="Path 41980" d="M0 0h20v20H0z" style="fill:none"/>
    <path data-name="Path 41981" d="M18.667 9V5.667A1.666 1.666 0 0 0 17 4H3.667a1.659 1.659 0 0 0-1.659 1.667V9A1.667 1.667 0 0 1 2 12.333v3.333a1.672 1.672 0 0 0 1.667 1.667H17a1.672 1.672 0 0 0 1.667-1.667v-3.333a1.667 1.667 0 0 1 0-3.333zM17 7.783a3.327 3.327 0 0 0 0 5.767v2.117H3.667V13.55a3.332 3.332 0 0 0 .008-5.767l-.008-2.116H17zm-7.5 5.384h1.667v1.667H9.5zm0-3.333h1.667V11.5H9.5zm0-3.334h1.667v1.667H9.5z" transform="translate(-.333 -.667)" />
</svg>
