<svg width="32" height="32" viewBox="0 0 32 32" fill="none" xmlns="http://www.w3.org/2000/svg">
<path fill-rule="evenodd" clip-rule="evenodd" d="M16.0007 26.6673C18.9562 26.6673 21.4731 25.6287 23.5513 23.5513C25.6287 21.4731 26.6673 18.9562 26.6673 16.0007C26.6673 13.0451 25.6287 10.5282 23.5513 8.44998C21.4731 6.37265 18.9562 5.33398 16.0007 5.33398C13.0451 5.33398 10.5287 6.37265 8.45132 8.44998C6.3731 10.5282 5.33398 13.0451 5.33398 16.0007C5.33398 18.9562 6.3731 21.4731 8.45132 23.5513C10.5287 25.6287 13.0451 26.6673 16.0007 26.6673ZM16.718 22.0513C16.5287 22.2398 16.2895 22.334 16.0007 22.334C15.7118 22.334 15.4731 22.2398 15.2847 22.0513C15.0953 21.862 15.0007 21.634 15.0007 21.3673V15.6673C15.0007 15.3784 15.0953 15.1393 15.2847 14.95C15.4731 14.7615 15.7118 14.6673 16.0007 14.6673C16.2895 14.6673 16.5287 14.7615 16.718 14.95C16.9064 15.1393 17.0007 15.3673 17.0007 15.634V21.334C17.0007 21.6229 16.9064 21.862 16.718 22.0513ZM16.7673 12.0833C16.5673 12.2949 16.3118 12.4007 16.0007 12.4007C15.6895 12.4007 15.434 12.2949 15.234 12.0833C15.034 11.8727 14.934 11.6118 14.934 11.3007C14.934 11.0118 15.034 10.7615 15.234 10.55C15.434 10.3393 15.6895 10.234 16.0007 10.234C16.3118 10.234 16.5673 10.3393 16.7673 10.55C16.9673 10.7615 17.0673 11.0118 17.0673 11.3007C17.0673 11.6118 16.9673 11.8727 16.7673 12.0833Z" fill="#F68B1F"/>
<path fill-rule="evenodd" clip-rule="evenodd" d="M16.0007 28.6673C14.2451 28.6673 12.5953 28.334 11.0513 27.6673C9.50643 27.0007 8.16732 26.1007 7.03398 24.9673C5.90065 23.834 5.00065 22.4949 4.33398 20.95C3.66732 19.406 3.33398 17.7562 3.33398 16.0007C3.33398 14.2451 3.66732 12.5949 4.33398 11.05C5.00065 9.50598 5.90065 8.16732 7.03398 7.03398C8.16732 5.90065 9.50643 5.00065 11.0513 4.33398C12.5953 3.66732 14.2451 3.33398 16.0007 3.33398C17.7562 3.33398 19.4064 3.66732 20.9513 4.33398C22.4953 5.00065 23.834 5.90065 24.9673 7.03398C26.1007 8.16732 27.0007 9.50598 27.6673 11.05C28.334 12.5949 28.6673 14.2451 28.6673 16.0007C28.6673 17.7562 28.334 19.406 27.6673 20.95C27.0007 22.4949 26.1007 23.834 24.9673 24.9673C23.834 26.1007 22.4953 27.0007 20.9513 27.6673C19.4064 28.334 17.7562 28.6673 16.0007 28.6673ZM16.0007 26.6673C18.9562 26.6673 21.4731 25.6287 23.5513 23.5513C25.6287 21.4731 26.6673 18.9562 26.6673 16.0007C26.6673 13.0451 25.6287 10.5282 23.5513 8.44998C21.4731 6.37265 18.9562 5.33398 16.0007 5.33398C13.0451 5.33398 10.5287 6.37265 8.45132 8.44998C6.3731 10.5282 5.33398 13.0451 5.33398 16.0007C5.33398 18.9562 6.3731 21.4731 8.45132 23.5513C10.5287 25.6287 13.0451 26.6673 16.0007 26.6673Z" fill="#F68B1F"/>
</svg>
