<svg xmlns="http://www.w3.org/2000/svg" width="24" height="24">
    <path data-name="Path 41603" d="M0 0h24v24H0z" style="fill:none"/>
    <path data-name="Path 41604" d="M22 3H2a2.006 2.006 0 0 0-2 2v14a2.006 2.006 0 0 0 2 2h20a2 2 0 0 0 1.99-2L24 5a2.006 2.006 0 0 0-2-2zm0 16H2V5h20zm-2.99-1.01L21 16l-1.51-2h-1.64a5.889 5.889 0 0 1 0-4h1.64L21 8l-1.99-1.99A7.474 7.474 0 0 0 16.28 10a7.283 7.283 0 0 0 0 4 7.512 7.512 0 0 0 2.73 3.99zM9 12a3 3 0 1 0-3-3 3.009 3.009 0 0 0 3 3zm0-4a1 1 0 1 1-1 1 1 1 0 0 1 1-1zm6 8.59c0-2.5-3.97-3.58-6-3.58s-6 1.08-6 3.58V18h12zM5.48 16A7.113 7.113 0 0 1 9 15a7.042 7.042 0 0 1 3.52 1z"/>
</svg>
