<svg width="1em" height="1em" viewBox="0 0 24 24" fill="currentColor" xmlns="http://www.w3.org/2000/svg">
<g id="Actions/copy">
<path id="Vector" d="M9.2752 17.8008C8.75853 17.8008 8.32519 17.6258 7.97519 17.2758C7.6252 16.9258 7.4502 16.5008 7.4502 16.0008V4.62578C7.4502 4.10911 7.6252 3.67578 7.97519 3.32578C8.32519 2.97578 8.75853 2.80078 9.2752 2.80078H17.6252C18.1252 2.80078 18.5545 2.97978 18.9132 3.33778C19.2712 3.69645 19.4502 4.12578 19.4502 4.62578V16.0008C19.4502 16.5008 19.2712 16.9258 18.9132 17.2758C18.5545 17.6258 18.1252 17.8008 17.6252 17.8008H9.2752ZM9.2752 16.3008H17.6252C17.7252 16.3008 17.8045 16.2714 17.8632 16.2128C17.9212 16.1548 17.9502 16.0841 17.9502 16.0008V4.62578C17.9502 4.52578 17.9212 4.44645 17.8632 4.38778C17.8045 4.32978 17.7252 4.30078 17.6252 4.30078H9.2752C9.1752 4.30078 9.0962 4.32978 9.0382 4.38778C8.97953 4.44645 8.9502 4.52578 8.9502 4.62578V16.0008C8.9502 16.0841 8.97953 16.1548 9.0382 16.2128C9.0962 16.2714 9.1752 16.3008 9.2752 16.3008ZM5.7502 21.3008C5.2502 21.3008 4.8252 21.1258 4.4752 20.7758C4.1252 20.4258 3.9502 20.0008 3.9502 19.5008V7.55078C3.9502 7.35078 4.02086 7.17578 4.1622 7.02578C4.3042 6.87578 4.48353 6.80078 4.7002 6.80078C4.9002 6.80078 5.0752 6.87578 5.2252 7.02578C5.3752 7.17578 5.4502 7.35078 5.4502 7.55078V19.5008C5.4502 19.5841 5.4792 19.6548 5.5372 19.7128C5.59586 19.7714 5.66686 19.8008 5.7502 19.8008H14.7002C14.9002 19.8008 15.0752 19.8758 15.2252 20.0258C15.3752 20.1758 15.4502 20.3508 15.4502 20.5508C15.4502 20.7674 15.3752 20.9464 15.2252 21.0878C15.0752 21.2298 14.9002 21.3008 14.7002 21.3008H5.7502ZM8.9502 4.30078V16.3008V4.30078Z" fill="currentColor"/>
</g>
</svg>
