<svg width="25" height="24" viewBox="0 0 25 24" fill="none" xmlns="http://www.w3.org/2000/svg">
<path d="M7.675 20.5C7.175 20.5 6.75 20.325 6.4 19.975C6.05 19.625 5.875 19.2 5.875 18.7V6H5.625C5.40833 6 5.22933 5.929 5.088 5.787C4.946 5.64567 4.875 5.46667 4.875 5.25C4.875 5.03333 4.946 4.85433 5.088 4.713C5.22933 4.571 5.40833 4.5 5.625 4.5H9.375C9.375 4.25 9.46233 4.04167 9.637 3.875C9.81233 3.70833 10.025 3.625 10.275 3.625H14.475C14.725 3.625 14.9377 3.70833 15.113 3.875C15.2877 4.04167 15.375 4.25 15.375 4.5H19.125C19.3417 4.5 19.521 4.571 19.663 4.713C19.8043 4.85433 19.875 5.03333 19.875 5.25C19.875 5.46667 19.8043 5.64567 19.663 5.787C19.521 5.929 19.3417 6 19.125 6H18.875V18.7C18.875 19.2 18.7 19.625 18.35 19.975C18 20.325 17.575 20.5 17.075 20.5H7.675ZM7.375 6V18.7C7.375 18.7833 7.40433 18.8543 7.463 18.913C7.521 18.971 7.59167 19 7.675 19H17.075C17.1583 19 17.2293 18.971 17.288 18.913C17.346 18.8543 17.375 18.7833 17.375 18.7V6H7.375ZM9.775 16.25C9.775 16.4667 9.846 16.646 9.988 16.788C10.1293 16.9293 10.3083 17 10.525 17C10.7417 17 10.921 16.9293 11.063 16.788C11.2043 16.646 11.275 16.4667 11.275 16.25V8.75C11.275 8.53333 11.2043 8.354 11.063 8.212C10.921 8.07067 10.7417 8 10.525 8C10.3083 8 10.1293 8.07067 9.988 8.212C9.846 8.354 9.775 8.53333 9.775 8.75V16.25ZM13.475 16.25C13.475 16.4667 13.5457 16.646 13.687 16.788C13.829 16.9293 14.0083 17 14.225 17C14.4417 17 14.621 16.9293 14.763 16.788C14.9043 16.646 14.975 16.4667 14.975 16.25V8.75C14.975 8.53333 14.9043 8.354 14.763 8.212C14.621 8.07067 14.4417 8 14.225 8C14.0083 8 13.829 8.07067 13.687 8.212C13.5457 8.354 13.475 8.53333 13.475 8.75V16.25ZM7.375 6V18.7C7.375 18.7833 7.40433 18.8543 7.463 18.913C7.521 18.971 7.59167 19 7.675 19H7.375V6Z" fill="#696A6B"/>
</svg>
