<svg xmlns="http://www.w3.org/2000/svg" width="24.807" height="30.124" viewBox="0 0 24.807 30.124">
    <path data-name="Path 55602" d="M205.2 128.632h-2.817v-8.86a1.777 1.777 0 0 0-1.768-1.772h-7.089a1.777 1.777 0 0 0-1.771 1.772v8.86h-2.817a1.777 1.777 0 0 0-1.259 3.03l8.133 8.133a1.765 1.765 0 0 0 2.5 0l8.133-8.133a1.772 1.772 0 0 0-1.245-3.03zm-20.537 17.719a1.777 1.777 0 0 0 1.772 1.773H207.7a1.772 1.772 0 0 0 0-3.544h-21.261a1.777 1.777 0 0 0-1.772 1.771z" transform="translate(-184.667 -118)" style="fill:#105fae"/>
</svg>
