<svg width="16" height="11" viewBox="0 0 16 11" fill="none" xmlns="http://www.w3.org/2000/svg">
<path d="M0.706974 10.4167C0.526435 10.4167 0.377282 10.3578 0.259515 10.24C0.141193 10.1217 0.0820312 9.97222 0.0820312 9.79167V5.83333C0.0820312 5.52778 0.15508 5.22917 0.301178 4.9375C0.44672 4.64583 0.651423 4.40278 0.915288 4.20833V2.08333C0.915288 1.5 1.11666 1.00694 1.5194 0.604167C1.92214 0.201389 2.41515 0 2.99843 0H6.53977C6.8453 0 7.11611 0.0591665 7.3522 0.1775C7.58829 0.295278 7.80354 0.458334 7.99797 0.666667C8.1924 0.458334 8.40766 0.295278 8.64375 0.1775C8.87983 0.0591665 9.15064 0 9.45617 0H12.9975C13.5808 0 14.0738 0.201389 14.4765 0.604167C14.8793 1.00694 15.0807 1.5 15.0807 2.08333V4.20833C15.3445 4.40278 15.5495 4.64583 15.6956 4.9375C15.8411 5.22917 15.9139 5.52778 15.9139 5.83333V9.79167C15.9139 9.97222 15.855 10.1217 15.7373 10.24C15.6189 10.3578 15.4695 10.4167 15.289 10.4167C15.1084 10.4167 14.959 10.3578 14.8407 10.24C14.7229 10.1217 14.664 9.97222 14.664 9.79167V8.75H1.33192V9.79167C1.33192 9.97222 1.27303 10.1217 1.15527 10.24C1.03694 10.3578 0.887513 10.4167 0.706974 10.4167ZM8.62291 3.75H13.8308V2.08333C13.8308 1.84722 13.7508 1.64917 13.5908 1.48917C13.4314 1.32972 13.2336 1.25 12.9975 1.25H9.45617C9.22008 1.25 9.02232 1.32972 8.86289 1.48917C8.70291 1.64917 8.62291 1.84722 8.62291 2.08333V3.75ZM2.16517 3.75H7.37303V2.08333C7.37303 1.84722 7.29331 1.64917 7.13388 1.48917C6.9739 1.32972 6.77586 1.25 6.53977 1.25H2.99843C2.76234 1.25 2.5643 1.32972 2.40432 1.48917C2.24489 1.64917 2.16517 1.84722 2.16517 2.08333V3.75Z" fill="#696A6B"/>
</svg>
