<svg width="20" height="21" viewBox="0 0 20 21" fill="none" xmlns="http://www.w3.org/2000/svg">
<path d="M4.28906 16.5456H5.33073L13.0391 8.83724L12.0182 7.79557L4.28906 15.5247V16.5456ZM15.7057 7.92057L12.8932 5.12891L13.9974 4.04557C14.2335 3.80946 14.5288 3.69141 14.8832 3.69141C15.2371 3.69141 15.5321 3.80946 15.7682 4.04557L16.7891 5.06641C17.0252 5.31641 17.1502 5.61141 17.1641 5.95141C17.178 6.29196 17.0599 6.58029 16.8099 6.81641L15.7057 7.92057ZM3.78906 17.7956C3.58073 17.7956 3.40378 17.7228 3.25823 17.5772C3.11212 17.4311 3.03906 17.2539 3.03906 17.0456V15.2956C3.03906 15.1983 3.05656 15.1047 3.09156 15.0147C3.12601 14.9242 3.1849 14.8372 3.26823 14.7539L11.9974 6.02474L14.8099 8.83724L6.08073 17.5664C5.9974 17.6497 5.91073 17.7089 5.82073 17.7439C5.73017 17.7783 5.63628 17.7956 5.53906 17.7956H3.78906ZM12.5182 8.31641L12.0182 7.79557L13.0391 8.83724L12.5182 8.31641Z" fill="#065BAA"/>
</svg>
