<svg width="20" height="20" viewBox="0 0 24 25" fill="none" xmlns="http://www.w3.org/2000/svg">
<path d="M5.96828 24.2609C5.1457 24.1332 4.35455 23.8516 3.63628 23.4309C2.01628 22.5019 0.807277 20.8379 0.419277 19.0049C0.268277 18.2879 0.249277 17.3819 0.269277 11.7979C0.288277 5.78887 0.274277 6.09887 0.560277 5.10887C0.702277 4.61587 1.09728 3.76887 1.38328 3.34187C2.43828 1.77187 3.99028 0.763873 5.91328 0.398873C6.29728 0.325873 6.85328 0.318873 11.9693 0.318873C18.2203 0.318873 18.0143 0.309873 19.0353 0.632873C20.0266 0.9536 20.9311 1.49762 21.679 2.22301C22.4269 2.94841 22.9984 3.83582 23.3493 4.81687C23.6793 5.75387 23.6953 5.90387 23.7183 8.37187L23.7383 10.6019L23.3473 10.8699C22.7893 11.2509 22.0573 11.9299 21.0313 13.0199C19.8493 14.2759 18.6553 15.4399 18.0493 15.9269C16.7403 16.9779 15.5413 17.5779 14.3233 17.7909C13.6893 17.9009 12.6413 17.8579 12.0213 17.6959C11.4683 17.5519 11.5043 17.5279 11.2953 18.1599C11.1254 18.66 11.0186 19.1793 10.9773 19.7059L10.9463 20.1129L10.8003 20.0829C9.58528 19.8419 8.38128 18.7979 7.91628 17.5829C7.75906 17.1948 7.67106 16.7823 7.65628 16.3639L7.64028 16.0239L7.33128 15.7399C6.68728 15.1499 6.26828 14.4279 6.13628 13.6789C5.92428 12.4859 6.47628 11.1369 7.67428 9.92287C8.93828 8.63987 10.8013 7.63287 12.6273 7.24287C13.2853 7.10287 14.4453 7.06587 15.0303 7.16787C16.1683 7.36587 17.0973 7.94087 17.6753 8.80687C17.8573 9.07787 17.8703 9.11687 17.8523 9.36187C17.8477 9.54195 17.7833 9.71539 17.6693 9.85487C17.2043 10.5059 15.8213 11.2029 14.3333 11.5349C11.7083 12.1199 10.0393 11.3929 10.3003 9.77587C10.3263 9.61287 10.3403 9.47187 10.3313 9.46287C10.2993 9.43087 10.0383 9.56687 9.75628 9.76287C9.27728 10.0969 8.85328 10.7469 8.70628 11.3699C8.67028 11.5259 8.65628 11.7759 8.67228 12.0199C8.69228 12.3509 8.72528 12.4739 8.86428 12.7559C8.95628 12.9419 9.13928 13.2059 9.27228 13.3449L9.51228 13.5959L9.41628 13.7179C9.13318 14.0888 8.90516 14.4987 8.73928 14.9349C8.55111 15.5212 8.51497 16.1457 8.63428 16.7499C8.73728 17.2109 9.05528 17.8449 9.37328 18.2179C9.61528 18.5029 10.1703 18.9819 10.2593 18.9819C10.2833 18.9819 10.3033 18.9339 10.3033 18.8759C10.3043 18.6459 10.4873 17.9029 10.6293 17.5489C11.0523 16.4909 11.9803 15.5889 13.4493 14.8089C13.6943 14.6789 14.4013 14.3389 15.0213 14.0519C16.3813 13.4219 17.1243 13.0369 17.5323 12.7469C18.7083 11.9139 19.4353 10.6819 19.6723 9.12187C19.7583 8.55187 19.7583 7.48787 19.6723 6.91487C19.3043 4.47687 17.4773 2.81887 14.8543 2.54487C11.9293 2.23787 8.20628 4.49787 5.91228 7.97187C4.79628 9.66187 4.04228 11.5369 3.72528 13.4149C3.60228 14.1429 3.55628 15.4949 3.63228 16.1649C3.82528 17.8689 4.45428 19.2429 5.53528 20.3209C6.07661 20.865 6.70963 21.3095 7.40528 21.6339C9.77328 22.7639 12.3953 22.7889 14.7003 21.7049C15.6963 21.2359 16.6743 20.5089 17.7233 19.4549C18.7433 18.4299 19.4333 17.5749 21.3153 14.9969C22.3553 13.5739 23.1793 12.6289 23.5873 12.3919L23.7373 12.3059L23.7183 15.3969C23.7003 18.3899 23.6963 18.5039 23.5953 18.9579C22.9953 21.6359 21.0553 23.5939 18.4003 24.1999L17.9323 24.3069L12.1573 24.3169C7.42328 24.3249 6.30828 24.3149 5.96828 24.2609Z" fill="white"/>
</svg>
