<svg width="36" height="37" viewBox="0 0 36 37" fill="none" xmlns="http://www.w3.org/2000/svg">
<g clip-path="url(#clip0_2554_41445)">
<path d="M0 27.2612C3.64746 24.5602 7.57683 22.2527 11.721 20.3783C18.1217 17.5728 24.2156 12.9822 24.2156 6.90991C24.2156 0.837618 21.6844 0.0704346 20.1854 0.0704346C18.1217 0.0704346 12.126 2.49902 10.2212 12.7733C8.31647 23.0475 12.5428 28.2206 16.1071 28.427C19.6714 28.6334 21.1061 27.832 23.3296 23.2414C25.4313 21.6878 27.2126 21.2499 27.6911 19.016C27.7162 18.8828 27.7145 18.7459 27.686 18.6133C27.6575 18.4806 27.6029 18.3549 27.5253 18.2431C27.4476 18.1313 27.3485 18.0358 27.2335 17.9619C27.1185 17.8881 26.9899 17.8373 26.855 17.8126C26.8231 17.8068 26.791 17.8026 26.7586 17.8001L25.7982 17.6797C26.0177 17.3078 26.3159 16.9871 26.6724 16.7396C27.0288 16.4921 27.4352 16.3236 27.8636 16.2457C29.2518 16.0401 30.186 13.6483 30.186 13.6483C30.186 13.6483 25.2724 14.6077 22.3354 21.5541C19.3983 28.5005 13.7357 25.1243 13.2555 22.3196C11.9819 16.6603 12.811 10.7369 15.5914 5.6321C18.8218 0.0704346 25.5057 4.41614 18.8218 12.2635C12.2849 18.6985 0.565591 21.092 0 27.2612Z" fill="url(#paint0_linear_2554_41445)"/>
<path d="M31.4243 14.3761L32.6544 16.4044C32.7615 16.5849 32.9366 16.7161 33.1414 16.769C33.3462 16.822 33.5639 16.7924 33.7467 16.6869C33.7957 16.6586 33.8414 16.6249 33.8828 16.5866L35.7427 14.9703C35.8797 14.844 35.9689 14.6752 35.9957 14.492C36.0224 14.3087 35.9851 14.1219 35.8898 13.9624L34.6572 11.9709C34.6044 11.8811 34.5342 11.8025 34.4506 11.7395C34.367 11.6766 34.2716 11.6306 34.1699 11.6042C34.0683 11.5778 33.9624 11.5715 33.8583 11.5857C33.7541 11.5999 33.6539 11.6342 33.5632 11.6868C33.5138 11.7156 33.4676 11.7495 33.4254 11.7879L31.5714 13.4259C31.4467 13.5474 31.365 13.7054 31.3385 13.8765C31.312 14.0475 31.3421 14.2225 31.4243 14.3753V14.3761Z" fill="#EB8D1E"/>
<path d="M1.36044 35.9225C1.18623 35.8351 1.04296 35.6976 0.949557 35.528C0.850369 35.3386 0.80729 35.1254 0.825279 34.9129C0.837706 34.771 0.866061 34.6308 0.909822 34.4951C0.950496 34.3543 1.00193 34.2169 1.06369 34.0839L1.07891 34.058L1.40271 34.2051L1.38411 34.2418C1.33081 34.3526 1.2867 34.4675 1.25222 34.5853C1.2216 34.6903 1.20456 34.7987 1.20149 34.9079C1.19186 35.0369 1.21973 35.1659 1.28181 35.2798C1.34147 35.3811 1.4333 35.4601 1.54305 35.5046C1.67904 35.5571 1.824 35.5832 1.96999 35.5815C2.10511 35.5799 2.23959 35.5628 2.37072 35.5305C2.48186 35.5037 2.589 35.4627 2.68945 35.4085C2.75714 35.3769 2.8154 35.3286 2.85853 35.2681C2.811 35.2258 2.7598 35.1878 2.70551 35.1544C2.6328 35.1071 2.5508 35.0586 2.45949 35.009C2.35042 34.951 2.23743 34.9004 2.12132 34.8578L2.22193 34.4081C2.42567 34.4474 2.6066 34.4767 2.763 34.4917C2.91764 34.5098 3.07312 34.5202 3.22883 34.5226H3.29731L3.32352 34.7625L3.29731 35.0032H3.22968C3.06432 35.0034 2.89922 34.9906 2.73595 34.9647C2.57306 34.9385 2.371 34.9034 2.12977 34.8594C2.12733 34.8585 2.12461 34.8585 2.12217 34.8594L2.23038 34.5644L2.2828 34.5853C2.41891 34.6472 2.55333 34.7098 2.68522 34.775C2.81307 34.8374 2.93333 34.9139 3.04368 35.0032C3.0906 35.0352 3.12999 35.0769 3.15917 35.1254C3.18834 35.1738 3.20662 35.2279 3.21277 35.284C3.20331 35.4203 3.14307 35.5483 3.04368 35.6433C2.91681 35.7721 2.76303 35.8719 2.59307 35.9358C2.39628 36.0134 2.18607 36.0523 1.97422 36.0503C1.76202 36.0592 1.55097 36.0152 1.36044 35.9225Z" fill="#000065"/>
<path d="M3.09473 34.526H3.21224C3.39591 34.5303 3.5794 34.5118 3.75839 34.4708C3.86637 34.4532 3.96458 34.3985 4.03569 34.3162C4.02919 34.2183 4.00028 34.1232 3.95114 34.0379C3.88176 33.9135 3.79652 33.7983 3.69752 33.6953C3.56165 33.5508 3.41467 33.417 3.25789 33.295L3.30608 32.8713L4.68159 32.293L4.81602 32.6757L3.70851 33.1479L3.73133 33.1663C3.85679 33.2787 3.97324 33.4005 4.07965 33.5307C4.19406 33.6691 4.28774 33.823 4.3578 33.9878C4.42574 34.1319 4.43894 34.2953 4.39499 34.4483C4.36662 34.543 4.31654 34.6299 4.24866 34.7024C4.18077 34.7749 4.0969 34.8309 4.00356 34.8661C3.75227 34.9656 3.48278 35.0123 3.21224 35.0032H3.09473V34.526ZM4.70949 34.9037C4.5887 34.8238 4.48262 34.724 4.39584 34.6087C4.26348 34.436 4.14152 34.2558 4.03061 34.0689L3.9968 34.0104L4.22675 33.7413C4.36118 33.9527 4.47277 34.1132 4.56492 34.2243C4.63203 34.3149 4.71405 34.3937 4.80756 34.4575C4.88162 34.5037 4.96771 34.5275 5.05527 34.526H5.11107L5.13728 34.7658L5.10431 35.0032H5.04851C4.92815 35.0032 4.81037 34.9686 4.70949 34.9037Z" fill="#000065"/>
<path d="M5.23194 35.7645L5.08652 35.9082C5.04748 35.8745 5.01024 35.8388 4.97493 35.8013L4.88193 35.7077C4.86164 35.6868 4.83036 35.6559 4.78809 35.6166L4.93773 35.4636L5.08314 35.3182L5.24208 35.4678L5.38919 35.6132L5.23194 35.7645ZM5.06792 34.526H5.09413C5.24563 34.5289 5.39713 34.5203 5.54728 34.5001C5.6293 34.4907 5.70786 34.462 5.77639 34.4165C5.82428 34.3808 5.85735 34.3291 5.86939 34.2711C5.88002 34.2084 5.88258 34.1447 5.877 34.0814C5.87192 34.0062 5.86093 33.9142 5.84318 33.8139V33.788L6.19403 33.7262C6.22838 33.9244 6.24451 34.1252 6.24222 34.3262C6.25561 34.3844 6.29101 34.4352 6.34114 34.4683C6.40036 34.5063 6.47013 34.525 6.54066 34.5218H6.56264L6.58885 34.7616L6.55926 35.0032H6.53728C6.42247 35.0047 6.31009 34.9705 6.21601 34.9054C6.12317 34.8419 6.04883 34.7555 6.00043 34.6547L6.08497 34.6697C6.0454 34.7502 5.98429 34.8184 5.90828 34.8669C5.81283 34.9233 5.70661 34.9594 5.59631 34.9731C5.42834 34.9969 5.25873 35.0075 5.08906 35.0048H5.06285L5.06792 34.526ZM5.89221 35.7645L5.74934 35.9082L5.59801 35.7603C5.56419 35.7286 5.51346 35.6809 5.4509 35.6166L5.60139 35.4636L5.74934 35.3182L5.89982 35.4678L6.04693 35.6132L5.89221 35.7645Z" fill="#000065"/>
<path d="M6.52148 34.526H6.71509C6.85285 34.5354 6.99088 34.5119 7.11751 34.4574C7.15549 34.4394 7.18736 34.4108 7.20926 34.3752C7.23117 34.3396 7.24217 34.2985 7.24094 34.2569C7.22988 34.149 7.20429 34.043 7.16486 33.9418C7.11328 33.7905 7.07186 33.6785 7.03973 33.6075L7.38974 33.4153C7.45153 33.5503 7.50214 33.69 7.54107 33.8331C7.58745 33.9787 7.61195 34.1302 7.61378 34.2828C7.61884 34.3837 7.60026 34.4843 7.55949 34.577C7.51873 34.6696 7.45687 34.7517 7.37875 34.8168C7.22488 34.9405 7.00338 35.0015 6.71509 35.0015H6.52148V34.526ZM6.9442 32.771L7.10145 32.6172L7.20628 32.72C7.22826 32.7425 7.26462 32.7768 7.3145 32.8236L7.41848 32.9264C7.34662 32.9983 7.29336 33.0509 7.2587 33.0869C7.22403 33.1228 7.17415 33.1746 7.10145 33.2431C7.05241 33.1972 7.01691 33.1596 6.99408 33.1387L6.88925 33.0334C6.85458 32.9966 6.81992 32.9607 6.78526 32.9264C6.85205 32.8554 6.90446 32.8027 6.94082 32.7685L6.9442 32.771Z" fill="#000065"/>
<path d="M8.56631 35.4494C8.71635 35.3894 8.85032 35.2958 8.95774 35.1761C9.04283 35.0729 9.08833 34.9433 9.08625 34.8101V34.78C9.08137 34.6422 9.05951 34.5056 9.02115 34.373C8.98885 34.2556 8.93591 34.1447 8.86475 34.0454C8.83926 34.0067 8.80612 33.9735 8.76733 33.9478C8.72854 33.9221 8.6849 33.9044 8.63902 33.8958C8.60294 33.8904 8.56604 33.8943 8.53195 33.9072C8.49786 33.9201 8.46775 33.9415 8.44457 33.9694C8.38531 34.0308 8.3436 34.1066 8.32367 34.1892C8.31207 34.2215 8.30787 34.2559 8.31138 34.29C8.31489 34.3241 8.32602 34.357 8.34396 34.3864C8.39263 34.4435 8.45882 34.4834 8.53249 34.5C8.63308 34.529 8.73716 34.5445 8.84192 34.546C8.95536 34.5505 9.06893 34.5412 9.18009 34.5184V34.9647C9.03461 35.0044 8.88356 35.0205 8.73286 35.0123C8.58671 35.007 8.44306 34.9732 8.31015 34.9129C8.18859 34.863 8.08947 34.7713 8.03116 34.6546C7.96023 34.4971 7.94447 34.3206 7.98635 34.1532C8.02368 33.9726 8.10788 33.8047 8.23068 33.666C8.27757 33.6031 8.33854 33.5517 8.40883 33.5159C8.47912 33.4801 8.55682 33.4609 8.63588 33.4597C8.71493 33.4584 8.7932 33.4753 8.86458 33.5089C8.93596 33.5425 8.99851 33.592 9.04736 33.6535C9.17344 33.797 9.26736 33.9654 9.32297 34.1474C9.38875 34.3465 9.42214 34.5547 9.42188 34.7641C9.42358 34.9751 9.36497 35.1822 9.2528 35.3617C9.13259 35.5474 8.9687 35.7017 8.77513 35.8113C8.54497 35.9413 8.29292 36.029 8.03116 36.0703L7.88574 35.6525C8.11888 35.6074 8.34687 35.5394 8.56631 35.4494Z" fill="#000065"/>
<path d="M9.90674 35.4419C10.0237 35.3675 10.1298 35.2775 10.2221 35.1745C10.2883 35.1092 10.3298 35.0233 10.3396 34.9313C10.3307 34.8169 10.3106 34.7035 10.2796 34.5929C10.2398 34.4257 10.195 34.2586 10.1494 34.0914L10.1308 34.0288L10.507 33.885C10.5663 34.0641 10.6129 34.247 10.6465 34.4324C10.6799 34.5976 10.698 34.7654 10.7006 34.9338C10.6994 35.0929 10.6538 35.2485 10.5687 35.3834C10.4727 35.5369 10.3479 35.6708 10.2009 35.7779C10.0346 35.9014 9.8513 36.0008 9.65649 36.0729L9.46289 35.6676C9.61892 35.609 9.7678 35.5333 9.90674 35.4419ZM10.6355 34.9196C10.5512 34.8588 10.4818 34.7799 10.4326 34.689C10.3707 34.5749 10.3219 34.4544 10.2872 34.3296L10.5814 34.1524C10.6013 34.2285 10.6297 34.3022 10.6659 34.3722C10.6896 34.4215 10.7275 34.4627 10.775 34.4905C10.8224 34.5184 10.8772 34.5316 10.9322 34.5285H10.9627L10.988 34.7684L10.9627 35.004H10.9322C10.8268 35.0077 10.7229 34.9781 10.6355 34.9196Z" fill="#000065"/>
<path d="M10.921 34.526H10.9463C11.0978 34.529 11.2493 34.5203 11.3995 34.5001C11.4815 34.4909 11.5601 34.4622 11.6286 34.4165C11.6763 34.3805 11.7095 34.329 11.7224 34.2711C11.7323 34.2084 11.7346 34.1447 11.7292 34.0814C11.7228 33.9918 11.7118 33.9025 11.6962 33.814V33.7881L12.0471 33.7262C12.0799 33.9273 12.0941 34.131 12.0893 34.3346C12.1034 34.3924 12.1387 34.443 12.1883 34.4767C12.2475 34.5147 12.3172 34.5334 12.3878 34.5302H12.4098L12.436 34.77L12.4098 35.0057H12.3878C12.2732 35.0072 12.1611 34.973 12.0674 34.9079C11.9743 34.8445 11.8996 34.758 11.8509 34.6572L11.9355 34.6722C11.8962 34.7529 11.835 34.8211 11.7588 34.8695C11.6636 34.9258 11.5577 34.9619 11.4477 34.9756C11.2797 34.9993 11.1101 35.0099 10.9404 35.0074H10.915L10.921 34.526ZM11.096 33.015L11.2414 32.8713L11.3919 33.0184L11.5398 33.1646C11.4722 33.234 11.4223 33.285 11.3885 33.3175L11.2439 33.4613L11.0926 33.3117L10.9429 33.1646L11.096 33.015ZM11.7554 33.015L11.9008 32.8713C11.9405 32.9055 11.9777 32.9415 12.0133 32.9782L12.1062 33.0718C12.1257 33.0927 12.157 33.1228 12.1992 33.1621L12.0504 33.315L11.905 33.4613C11.8349 33.3944 11.7833 33.3451 11.7503 33.3117L11.6032 33.1646L11.7554 33.015Z" fill="#000065"/>
<path d="M12.375 34.526H12.4908C12.6745 34.5303 12.858 34.5118 13.037 34.4708C13.1451 34.453 13.2435 34.3983 13.3151 34.3162C13.3085 34.2183 13.2796 34.1232 13.2306 34.0379C13.1612 33.9135 13.076 33.7983 12.9769 33.6953C12.8411 33.5508 12.6941 33.417 12.5373 33.295L12.5855 32.8713L13.9619 32.293L14.0954 32.6757L12.9888 33.1479L13.0108 33.1663C13.1364 33.2784 13.2529 33.4003 13.3591 33.5307C13.4738 33.6689 13.5675 33.8229 13.6372 33.9878C13.7052 34.1319 13.7184 34.2953 13.6744 34.4483C13.646 34.543 13.596 34.6299 13.5281 34.7024C13.4602 34.7749 13.3763 34.8309 13.283 34.8661C13.032 34.9658 12.7628 35.0128 12.4925 35.004H12.3767L12.375 34.526ZM13.9898 34.9037C13.869 34.8238 13.7629 34.724 13.6761 34.6087C13.5437 34.436 13.4218 34.2558 13.3109 34.0689L13.2779 34.0104L13.5053 33.7413C13.6081 33.9077 13.7193 34.0689 13.8384 34.2243C13.9058 34.3147 13.9878 34.3935 14.0811 34.4575C14.1552 34.5035 14.2412 34.5273 14.3288 34.526H14.3846L14.4108 34.7658L14.3846 35.0015H14.3288C14.2086 35.002 14.0908 34.9681 13.9898 34.9037Z" fill="#000065"/>
<path d="M14.3464 34.526H14.4622C14.5674 34.5354 14.6724 34.5056 14.7565 34.4424C14.7885 34.4072 14.8126 34.3657 14.8271 34.3206C14.8417 34.2755 14.8464 34.2278 14.841 34.1808C14.841 34.0137 14.8277 33.7125 14.8013 33.2774C14.7776 32.8428 14.7565 32.5553 14.7362 32.4149L15.1462 32.3264C15.1614 32.4617 15.18 32.7559 15.202 33.2072C15.224 33.6585 15.2375 33.9744 15.24 34.1507C15.2397 34.3016 15.2066 34.4507 15.1428 34.5878C15.0847 34.7148 14.99 34.8221 14.8707 34.8964C14.7514 34.9707 14.6125 35.0087 14.4715 35.0057H14.3447L14.3464 34.526Z" fill="#000065"/>
<path d="M15.6814 34.1984C15.6814 33.844 15.6727 33.4914 15.6552 33.1404C15.6476 32.8973 15.6264 32.6549 15.5918 32.4141L16.0018 32.3306C16.0196 32.466 16.0373 32.7117 16.0559 33.0693C16.0745 33.427 16.0838 33.7914 16.0838 34.1641C16.0882 34.4513 16.0747 34.7385 16.0433 35.0241L15.6518 34.9806C15.6754 34.7206 15.6853 34.4595 15.6814 34.1984Z" fill="#000065"/>
<path d="M17.6145 34.928C17.4936 34.8778 17.3799 34.812 17.2764 34.7324L17.459 34.3931L17.4818 34.4082C17.5692 34.4526 17.6602 34.4895 17.754 34.5185C17.8652 34.5506 17.9807 34.5655 18.0964 34.5628C18.208 34.5663 18.3194 34.5502 18.4253 34.5151C18.4632 34.5148 18.5001 34.5034 18.5314 34.4824C18.5627 34.4613 18.5871 34.4316 18.6013 34.397C18.6156 34.3623 18.6192 34.3242 18.6117 34.2876C18.6041 34.2509 18.5857 34.2172 18.5589 34.1909C18.499 34.0699 18.4189 33.9597 18.3222 33.8649C18.1723 33.7095 18.0069 33.5695 17.8284 33.4471L18.0592 33.0342C18.2749 33.1824 18.469 33.3593 18.6358 33.5599C18.7747 33.7227 18.8791 33.9114 18.9427 34.1148C18.9962 34.2789 18.9896 34.4564 18.9241 34.6162C18.8653 34.7489 18.7582 34.8548 18.624 34.9129C18.4723 34.9846 18.3059 35.0206 18.1379 35.0182C17.959 35.0239 17.7809 34.9932 17.6145 34.928Z" fill="#000065"/>
<path d="M19.7039 34.9004C19.5924 34.8296 19.5093 34.7226 19.4689 34.5979C19.4168 34.4316 19.3928 34.2579 19.3979 34.0839C19.3979 33.8014 19.3911 33.4986 19.3776 33.1755C19.3615 32.8521 19.3396 32.5988 19.3125 32.4141L19.7192 32.3306C19.7437 32.5052 19.764 32.7718 19.7783 33.1303C19.7927 33.4889 19.7995 33.7889 19.7969 34.0296C19.7899 34.1312 19.795 34.2333 19.8121 34.3338C19.8175 34.3637 19.829 34.3922 19.8461 34.4175C19.8631 34.4428 19.8852 34.4644 19.9111 34.4809C19.9831 34.5163 20.0633 34.5321 20.1436 34.5268H20.1622L20.185 34.7667L20.1622 35.0023H20.1436C19.9903 35.0096 19.838 34.9743 19.7039 34.9004Z" fill="#000065"/>
<path d="M20.125 34.5259H20.2053C20.2998 34.527 20.3921 34.4977 20.4682 34.4424C20.559 34.3726 20.6335 34.2842 20.6864 34.1833L20.7422 34.0872C20.8047 33.9788 20.8744 33.8747 20.951 33.7755C21.0116 33.6969 21.0847 33.6286 21.1674 33.5732C21.2383 33.5232 21.3222 33.4942 21.4092 33.4897C21.4792 33.4842 21.5495 33.4943 21.615 33.5191C21.6806 33.544 21.7397 33.5831 21.788 33.6334C21.8975 33.7593 21.9772 33.9078 22.0213 34.068L22.0585 34.19C22.0826 34.2555 22.1108 34.3194 22.143 34.3814C22.1613 34.4219 22.1878 34.4583 22.2208 34.4883C22.2481 34.5121 22.2833 34.5252 22.3197 34.5251H22.3603L22.3865 34.765L22.3603 35.0006H22.3197C22.2413 35.0027 22.1644 34.9786 22.1016 34.9321C22.0365 34.8818 21.9846 34.8167 21.9503 34.7424C21.919 34.8411 21.8493 34.9234 21.7567 34.9714C21.6969 35.0011 21.6314 35.018 21.5645 35.0209C21.4976 35.0238 21.4308 35.0126 21.3686 34.9881C21.1714 34.9214 20.9836 34.8301 20.8098 34.7165C20.7387 34.8076 20.6465 34.8804 20.541 34.9288C20.4335 34.9773 20.3166 35.0018 20.1986 35.0006H20.1309L20.125 34.5259ZM21.7313 34.541C21.7381 34.452 21.7318 34.3625 21.7127 34.2752C21.6947 34.1848 21.6572 34.0993 21.6028 34.0245C21.5826 33.9929 21.5548 33.9666 21.522 33.9479C21.4891 33.9293 21.4521 33.9188 21.4143 33.9175C21.3719 33.9196 21.3311 33.9338 21.2968 33.9585C21.2491 33.9918 21.2069 34.0321 21.1716 34.078C21.1228 34.1416 21.0793 34.2089 21.0414 34.2794C21.0338 34.2911 21.0288 34.3011 21.0245 34.3087C21.0203 34.3162 21.0152 34.3254 21.0085 34.3379C21.1045 34.4056 21.2067 34.4643 21.3137 34.5134C21.3948 34.5506 21.4799 34.5786 21.5673 34.597C21.6152 34.6103 21.6656 34.6123 21.7144 34.6028C21.7223 34.5828 21.7283 34.5621 21.7322 34.541H21.7313Z" fill="#000065"/>
<path d="M22.3145 34.526H22.3407C22.4922 34.5289 22.6437 34.5203 22.7938 34.5001C22.8758 34.4905 22.9543 34.4619 23.0229 34.4165C23.0703 34.3804 23.1032 34.3289 23.1159 34.2711C23.1266 34.2084 23.1291 34.1447 23.1235 34.0814C23.1185 34.0062 23.1075 33.9142 23.0897 33.814V33.7881L23.4397 33.7262C23.4744 33.9243 23.4908 34.1252 23.4888 34.3263C23.5022 34.3841 23.5372 34.4349 23.5868 34.4683C23.646 34.5063 23.7158 34.525 23.7863 34.5218H23.8092L23.8354 34.7617L23.8092 34.9973H23.7863C23.6718 34.9987 23.5597 34.9645 23.4659 34.8996C23.3728 34.8361 23.2982 34.7497 23.2495 34.6488L23.334 34.6639C23.2944 34.7445 23.2329 34.8128 23.1565 34.8611C23.0614 34.9176 22.9554 34.9537 22.8454 34.9672C22.6788 34.9908 22.5106 35.0014 22.3424 34.999H22.3161L22.3145 34.526ZM22.4886 33.015L22.634 32.8713C22.7017 32.9373 22.7515 32.9866 22.7854 33.0184L22.9325 33.1621C22.8657 33.2315 22.8149 33.2824 22.7811 33.315L22.634 33.4613L22.4886 33.3117L22.3364 33.1646L22.4886 33.015ZM23.1489 33.015L23.2943 32.8713C23.3333 32.905 23.3706 32.9407 23.4059 32.9782C23.4482 33.02 23.4795 33.051 23.4989 33.0719C23.5183 33.0927 23.5496 33.1228 23.5919 33.1621L23.4431 33.315C23.411 33.3485 23.3628 33.3986 23.2977 33.4613L23.143 33.3117L22.9959 33.1646L23.1489 33.015Z" fill="#000065"/>
<path d="M23.7686 34.526H23.8134C24.1586 34.5294 24.5038 34.5141 24.8473 34.48C25.0882 34.4566 25.3254 34.4053 25.5541 34.3271L25.6513 34.7449C25.4119 34.8374 25.1621 34.9011 24.9073 34.9346C24.5447 34.9818 24.1791 35.0033 23.8134 34.999H23.7686V34.526ZM24.5759 34.8135C24.4329 34.7602 24.3066 34.6706 24.2099 34.5535C24.1142 34.4366 24.0588 34.2926 24.0518 34.1424C24.0449 34.0067 24.0741 33.8716 24.1363 33.7504C24.1967 33.6258 24.2876 33.518 24.4009 33.437C24.5136 33.3552 24.6459 33.3037 24.7848 33.2874C24.9169 33.2754 25.0501 33.2952 25.1728 33.3451C25.2997 33.3955 25.417 33.467 25.5194 33.5565L25.3588 33.8808C25.2714 33.8383 25.1796 33.8055 25.0849 33.783C24.9988 33.763 24.9099 33.7576 24.822 33.7671C24.7447 33.7732 24.6697 33.7957 24.6021 33.8332C24.544 33.864 24.4941 33.9081 24.4567 33.9619C24.4248 34.0065 24.4085 34.0602 24.4102 34.1148C24.4173 34.1836 24.4491 34.2477 24.4998 34.2953C24.5606 34.356 24.6355 34.4011 24.718 34.4265C24.8107 34.4575 24.9086 34.4706 25.0063 34.465L25.0401 34.8828C24.8821 34.8941 24.7235 34.8704 24.5759 34.8135Z" fill="#000065"/>
<path d="M26.0565 34.1984C26.0565 33.844 26.0481 33.4914 26.0312 33.1404C26.0235 32.8973 26.0024 32.6549 25.9678 32.4141L26.3778 32.3306C26.3947 32.466 26.4133 32.7117 26.4319 33.0693C26.4505 33.427 26.4598 33.7914 26.4598 34.1641C26.464 34.4513 26.4502 34.7385 26.4184 35.0241L26.027 34.9806C26.0509 34.7206 26.0608 34.4595 26.0565 34.1984Z" fill="#000065"/>
<path d="M27.9905 34.928C27.8696 34.8778 27.7559 34.812 27.6523 34.7324L27.835 34.3931L27.8569 34.4082C27.9443 34.4526 28.0354 34.4895 28.1292 34.5185C28.2406 34.5506 28.3564 34.5655 28.4724 34.5628C28.5837 34.5663 28.6948 34.5502 28.8004 34.5151C28.8384 34.515 28.8754 34.5037 28.9069 34.4827C28.9383 34.4618 28.9628 34.4321 28.9772 34.3974C28.9915 34.3627 28.9952 34.3245 28.9877 34.2878C28.9801 34.251 28.9618 34.2173 28.9349 34.1909C28.8746 34.0701 28.7946 33.96 28.6981 33.8649C28.5478 33.7097 28.3821 33.5697 28.2036 33.4471L28.4352 33.0342C28.6505 33.1827 28.8442 33.3595 29.0109 33.5599C29.1502 33.7226 29.2548 33.9113 29.3187 34.1148C29.3718 34.279 29.3652 34.4564 29.3001 34.6162C29.241 34.7487 29.1339 34.8545 29 34.9129C28.8479 34.9844 28.6813 35.0205 28.513 35.0182C28.3344 35.0239 28.1566 34.9931 27.9905 34.928Z" fill="#000065"/>
<path d="M30.0808 34.9004C29.969 34.8298 29.8858 34.7228 29.8457 34.5979C29.7936 34.4316 29.7696 34.2579 29.7747 34.0839C29.7747 33.8014 29.7679 33.4986 29.7544 33.1755C29.7384 32.8521 29.7164 32.5988 29.6885 32.4141L30.0951 32.3306C30.1194 32.5055 30.1394 32.7721 30.1552 33.1303C30.1695 33.4889 30.1763 33.7889 30.1738 34.0296C30.1669 34.1312 30.1718 34.2332 30.1881 34.3338C30.1935 34.3637 30.205 34.3922 30.222 34.4175C30.2391 34.4428 30.2612 34.4644 30.287 34.4809C30.3594 34.5163 30.4399 34.5321 30.5204 34.5268H30.539L30.561 34.7667L30.539 35.0023H30.5204C30.3671 35.0097 30.2147 34.9744 30.0808 34.9004Z" fill="#000065"/>
<path d="M30.501 34.526H30.5796C30.6738 34.5271 30.7659 34.4977 30.8417 34.4424C30.9329 34.3731 31.0074 34.2846 31.0598 34.1833L31.1164 34.0872C31.1787 33.9789 31.2482 33.8747 31.3244 33.7755C31.3852 33.6972 31.4583 33.6289 31.5409 33.5733C31.6121 33.5232 31.6962 33.4943 31.7835 33.4897C31.8535 33.4844 31.9237 33.4946 31.9892 33.5194C32.0547 33.5443 32.1138 33.5832 32.1622 33.6334C32.2718 33.7592 32.3512 33.9077 32.3947 34.068L32.4319 34.19C32.455 34.2553 32.4818 34.3192 32.5122 34.3814C32.531 34.4219 32.5577 34.4582 32.5909 34.4884C32.618 34.5125 32.6533 34.5256 32.6898 34.5251H32.7304L32.7566 34.765L32.7304 35.0007H32.6898C32.6114 35.0028 32.5345 34.9786 32.4717 34.9321C32.4063 34.882 32.3544 34.8169 32.3203 34.7424C32.3047 34.7927 32.2784 34.8391 32.2434 34.8787C32.2117 34.9175 32.1719 34.9491 32.1267 34.9714C32.0669 35.0012 32.0014 35.018 31.9345 35.0209C31.8676 35.0238 31.8009 35.0126 31.7387 34.9881C31.5414 34.9216 31.3536 34.8303 31.1799 34.7165C31.1084 34.8073 31.0163 34.88 30.911 34.9288C30.8033 34.9772 30.6861 35.0018 30.5678 35.0007H30.501V34.526ZM32.1073 34.541C32.1138 34.452 32.1072 34.3625 32.0878 34.2753C32.0706 34.1846 32.033 34.099 31.9779 34.0246C31.9578 33.9924 31.9298 33.9657 31.8966 33.9469C31.8634 33.9281 31.826 33.9177 31.7877 33.9167C31.7453 33.9187 31.7044 33.9329 31.6702 33.9577C31.6224 33.9907 31.5801 34.0311 31.5451 34.0772C31.4963 34.1408 31.4528 34.2081 31.4149 34.2786C31.4086 34.288 31.4029 34.2977 31.398 34.3079C31.3929 34.3179 31.3872 34.3277 31.3811 34.3371C31.4774 34.4048 31.5799 34.4635 31.6871 34.5126C31.7682 34.5498 31.8533 34.5778 31.9407 34.5962C31.9886 34.6095 32.039 34.6115 32.0878 34.602C32.0966 34.5824 32.1034 34.562 32.1081 34.541H32.1073Z" fill="#000065"/>
<path d="M32.6895 34.526H32.8873C33.025 34.5353 33.1631 34.5118 33.2897 34.4574C33.3276 34.4392 33.3593 34.4106 33.3812 34.375C33.4031 34.3395 33.4142 34.2985 33.4131 34.2569C33.4016 34.1489 33.3758 34.043 33.3362 33.9418C33.2855 33.7905 33.2441 33.6785 33.2111 33.6075L33.5619 33.4195C33.6234 33.5546 33.674 33.6943 33.7133 33.8373C33.7592 33.983 33.7837 34.1344 33.786 34.2869C33.791 34.3878 33.7725 34.4885 33.7317 34.5811C33.6909 34.6738 33.6291 34.7558 33.5509 34.821C33.3945 34.9405 33.1722 35.0031 32.8873 35.0031H32.6928L32.6895 34.526ZM33.1122 32.771C33.1477 32.7359 33.2009 32.6874 33.2703 32.6197L33.3743 32.7225L33.4825 32.8261L33.5873 32.9289C33.5146 33.0008 33.4613 33.0534 33.4267 33.0894C33.392 33.1253 33.3421 33.1771 33.2703 33.2456C33.2204 33.1997 33.1857 33.1621 33.162 33.1412C33.1384 33.1203 33.1046 33.0827 33.0581 33.0359C33.0116 32.9891 32.9879 32.9632 32.9532 32.9289C33.02 32.8554 33.0733 32.8027 33.1096 32.7684L33.1122 32.771Z" fill="#000065"/>
</g>
<defs>
<linearGradient id="paint0_linear_2554_41445" x1="0" y1="14.2633" x2="30.186" y2="14.2633" gradientUnits="userSpaceOnUse">
<stop offset="0.07" stop-color="#0C0E71"/>
<stop offset="0.17" stop-color="#B5CFF4"/>
<stop offset="0.25" stop-color="#010167"/>
<stop offset="0.37" stop-color="#04056A"/>
<stop offset="0.49" stop-color="#A9C2EC"/>
<stop offset="0.62" stop-color="#030469"/>
<stop offset="0.79" stop-color="#090B6E"/>
<stop offset="0.85" stop-color="#98AFDE"/>
<stop offset="0.93" stop-color="#1C217D"/>
</linearGradient>
<clipPath id="clip0_2554_41445">
<rect width="36" height="36" fill="white" transform="translate(0 0.0704346)"/>
</clipPath>
</defs>
</svg>
