<svg width="20" height="20" viewBox="0 0 20 20" fill="none" xmlns="http://www.w3.org/2000/svg">
<g clip-path="url(#clip0_8729_28908)">
<mask id="mask0_8729_28908" style="mask-type:alpha" maskUnits="userSpaceOnUse" x="0" y="0" width="20" height="20">
<rect width="20" height="20" fill="#FCFCFC"/>
</mask>
<g mask="url(#mask0_8729_28908)">
<path d="M9.48177 12.084C9.63455 12.2368 9.80816 12.3132 10.0026 12.3132C10.197 12.3132 10.3707 12.2368 10.5234 12.084L13.0234 9.60482C13.1345 9.49371 13.1865 9.34787 13.1793 9.16732C13.1726 8.98676 13.1137 8.84093 13.0026 8.72982C12.8776 8.60482 12.7318 8.54232 12.5651 8.54232C12.3984 8.54232 12.2526 8.60482 12.1276 8.72982L10.0026 10.8548L7.85677 8.70898C7.74566 8.59787 7.59983 8.54565 7.41927 8.55232C7.23871 8.55954 7.09288 8.61871 6.98177 8.72982C6.85677 8.85482 6.79427 9.00065 6.79427 9.16732C6.79427 9.33398 6.85677 9.47982 6.98177 9.60482L9.48177 12.084ZM10.0026 17.9173C8.90538 17.9173 7.87427 17.709 6.90927 17.2923C5.94372 16.8757 5.10677 16.3132 4.39844 15.6048C3.6901 14.8965 3.1276 14.0595 2.71094 13.094C2.29427 12.129 2.08594 11.0979 2.08594 10.0007C2.08594 8.90343 2.29427 7.87204 2.71094 6.90648C3.1276 5.94148 3.6901 5.10482 4.39844 4.39648C5.10677 3.68815 5.94372 3.12565 6.90927 2.70898C7.87427 2.29232 8.90538 2.08398 10.0026 2.08398C11.0998 2.08398 12.1312 2.29232 13.0968 2.70898C14.0618 3.12565 14.8984 3.68815 15.6068 4.39648C16.3151 5.10482 16.8776 5.94148 17.2943 6.90648C17.7109 7.87204 17.9193 8.90343 17.9193 10.0007C17.9193 11.0979 17.7109 12.129 17.2943 13.094C16.8776 14.0595 16.3151 14.8965 15.6068 15.6048C14.8984 16.3132 14.0618 16.8757 13.0968 17.2923C12.1312 17.709 11.0998 17.9173 10.0026 17.9173ZM10.0026 16.6673C11.8498 16.6673 13.4229 16.0182 14.7218 14.7198C16.0201 13.4209 16.6693 11.8479 16.6693 10.0007C16.6693 8.15343 16.0201 6.58037 14.7218 5.28148C13.4229 3.98315 11.8498 3.33398 10.0026 3.33398C8.15538 3.33398 6.5826 3.98315 5.28427 5.28148C3.98538 6.58037 3.33594 8.15343 3.33594 10.0007C3.33594 11.8479 3.98538 13.4209 5.28427 14.7198C6.5826 16.0182 8.15538 16.6673 10.0026 16.6673Z" fill="#121516"/>
</g>
</g>
<defs>
<clipPath id="clip0_8729_28908">
<rect width="20" height="20" fill="white"/>
</clipPath>
</defs>
</svg>
