<svg width="33" height="33" viewBox="0 0 33 33" fill="none" xmlns="http://www.w3.org/2000/svg">
<mask id="mask0_3808_35622" style="mask-type:alpha" maskUnits="userSpaceOnUse" x="0" y="0" width="33" height="33">
<rect x="0.5" y="0.5" width="32" height="32" fill="#D9D9D9"/>
</mask>
<g mask="url(#mask0_3808_35622)">
<path d="M21.5333 17.7974L20.0333 16.2974C20.2333 15.1863 19.9168 14.1921 19.0839 13.3147C18.2502 12.4365 17.2333 12.0974 16.0333 12.2974L14.5333 10.7974C14.8444 10.6641 15.1555 10.5641 15.4666 10.4974C15.7777 10.4307 16.1222 10.3974 16.4999 10.3974C18.011 10.3974 19.2942 10.9254 20.3493 11.9814C21.4053 13.0365 21.9333 14.3196 21.9333 15.8307C21.9333 16.2085 21.8999 16.5583 21.8333 16.8801C21.7666 17.2027 21.6666 17.5085 21.5333 17.7974ZM25.7666 21.9307L24.2999 20.5641C25.1444 19.9196 25.8946 19.2138 26.5506 18.4467C27.2057 17.6805 27.7666 16.8085 28.2333 15.8307C27.1222 13.5863 25.5275 11.8027 23.4493 10.4801C21.3719 9.15828 19.0555 8.4974 16.4999 8.4974C15.8555 8.4974 15.2222 8.54184 14.5999 8.63073C13.9777 8.71962 13.3666 8.85295 12.7666 9.03073L11.1999 7.46406C12.0444 7.13073 12.9057 6.88629 13.7839 6.73073C14.6613 6.57517 15.5666 6.4974 16.4999 6.4974C19.4555 6.4974 22.1497 7.28051 24.5826 8.84673C27.0164 10.4138 28.8555 12.4752 30.0999 15.0307C30.1444 15.1196 30.1777 15.2361 30.1999 15.3801C30.2222 15.525 30.2333 15.6752 30.2333 15.8307C30.2333 15.9863 30.2222 16.1361 30.1999 16.2801C30.1777 16.425 30.1444 16.5418 30.0999 16.6307C29.5888 17.6752 28.9719 18.6418 28.2493 19.5307C27.5275 20.4196 26.6999 21.2196 25.7666 21.9307ZM26.1333 28.9641L21.4666 24.2974C20.7777 24.5641 20.0168 24.7752 19.1839 24.9307C18.3502 25.0863 17.4555 25.1641 16.4999 25.1641C13.5222 25.1641 10.8222 24.381 8.39994 22.8147C5.97771 21.2476 4.14438 19.1863 2.89993 16.6307C2.85549 16.5418 2.82216 16.425 2.79993 16.2801C2.77771 16.1361 2.7666 15.9863 2.7666 15.8307C2.7666 15.6752 2.77771 15.5307 2.79993 15.3974C2.82216 15.2641 2.85549 15.1418 2.89993 15.0307C3.41105 14.0085 4.02216 13.0641 4.73327 12.1974C5.44438 11.3307 6.21105 10.5641 7.03327 9.8974L4.03327 6.86406C3.83327 6.66406 3.73327 6.43073 3.73327 6.16406C3.73327 5.8974 3.83327 5.65295 4.03327 5.43073C4.23327 5.25295 4.47238 5.16406 4.7506 5.16406C5.02793 5.16406 5.25549 5.25295 5.43327 5.43073L27.5666 27.5641C27.7444 27.7418 27.839 27.9641 27.8506 28.2307C27.8613 28.4974 27.7666 28.7418 27.5666 28.9641C27.3666 29.1418 27.1279 29.2307 26.8506 29.2307C26.5724 29.2307 26.3333 29.1418 26.1333 28.9641ZM8.43327 11.2974C7.72216 11.853 7.03905 12.5254 6.38393 13.3147C5.72794 14.1032 5.18882 14.9418 4.7666 15.8307C5.87771 18.0752 7.47193 19.8583 9.54927 21.1801C11.6275 22.5027 13.9444 23.1641 16.4999 23.1641C17.0999 23.1641 17.6999 23.1138 18.2999 23.0134C18.8999 22.9138 19.411 22.8085 19.8333 22.6974L18.1666 20.9641C17.9222 21.053 17.6555 21.125 17.3666 21.1801C17.0777 21.2361 16.7888 21.2641 16.4999 21.2641C14.9888 21.2641 13.7057 20.7361 12.6506 19.6801C11.5946 18.625 11.0666 17.3418 11.0666 15.8307C11.0666 15.5641 11.0946 15.2805 11.1506 14.9801C11.2057 14.6805 11.2777 14.4085 11.3666 14.1641L8.43327 11.2974Z" fill="white"/>
</g>
</svg>
