<svg width="36" height="36" viewBox="0 0 36 36" fill="none" xmlns="http://www.w3.org/2000/svg">
<path d="M5.33657 27.7499C4.59092 27.7499 3.95259 27.4844 3.42156 26.9534C2.89056 26.4224 2.62506 25.7841 2.62506 25.0384V10.9616C2.62506 10.2159 2.89056 9.57754 3.42156 9.04654C3.95259 8.51551 4.59092 8.25 5.33657 8.25H19.4134C20.1591 8.25 20.7974 8.51551 21.3284 9.04654C21.8594 9.57754 22.125 10.2159 22.125 10.9616V25.0384C22.125 25.7841 21.8594 26.4224 21.3284 26.9534C20.7974 27.4844 20.1591 27.7499 19.4134 27.7499H5.33657ZM26.4879 16.5C26.0965 16.5 25.7716 16.3706 25.5129 16.112C25.2543 15.8533 25.125 15.5284 25.125 15.1371V9.6129C25.125 9.22162 25.2543 8.89666 25.5129 8.63801C25.7716 8.37934 26.0965 8.25 26.4879 8.25H32.012C32.4033 8.25 32.7283 8.37934 32.9869 8.63801C33.2456 8.89666 33.3749 9.22162 33.3749 9.6129V15.1371C33.3749 15.5284 33.2456 15.8533 32.9869 16.112C32.7283 16.3706 32.4033 16.5 32.012 16.5H26.4879ZM27.3749 14.25H31.125V10.5H27.3749V14.25ZM5.33657 25.5H19.4134C19.5481 25.5 19.6586 25.4567 19.7452 25.3701C19.8317 25.2836 19.875 25.173 19.875 25.0384V10.9616C19.875 10.8269 19.8317 10.7163 19.7452 10.6298C19.6586 10.5432 19.5481 10.5 19.4134 10.5H5.33657C5.20195 10.5 5.09137 10.5432 5.00485 10.6298C4.9183 10.7163 4.87502 10.8269 4.87502 10.9616V25.0384C4.87502 25.173 4.9183 25.2836 5.00485 25.3701C5.09137 25.4567 5.20195 25.5 5.33657 25.5ZM7.87502 22.4279H16.875C17.1413 22.4279 17.3411 22.3048 17.4743 22.0586C17.6074 21.8125 17.5885 21.574 17.4173 21.3432L14.9798 18.0807C14.8394 17.9 14.6587 17.8096 14.4375 17.8096C14.2164 17.8096 14.0356 17.9 13.8952 18.0807L11.625 21.1154L10.1048 19.0932C9.96444 18.9125 9.78367 18.8221 9.56252 18.8221C9.34137 18.8221 9.1606 18.9125 9.0202 19.0932L7.3327 21.3432C7.16155 21.574 7.14256 21.8125 7.27574 22.0586C7.40891 22.3048 7.60867 22.4279 7.87502 22.4279ZM26.4879 27.7499C26.0965 27.7499 25.7716 27.6206 25.5129 27.3619C25.2543 27.1033 25.125 26.7783 25.125 26.387V20.8629C25.125 20.4716 25.2543 20.1466 25.5129 19.8879C25.7716 19.6293 26.0965 19.5 26.4879 19.5H32.012C32.4033 19.5 32.7283 19.6293 32.9869 19.8879C33.2456 20.1466 33.3749 20.4716 33.3749 20.8629V26.387C33.3749 26.7783 33.2456 27.1033 32.9869 27.3619C32.7283 27.6206 32.4033 27.7499 32.012 27.7499H26.4879ZM27.3749 25.5H31.125V21.7499H27.3749V25.5Z" fill="#696A6B"/>
</svg>
