<svg xmlns="http://www.w3.org/2000/svg" width="32.119" height="26.792" viewBox="0 0 32.119 26.792"><defs><style>.a{fill:none;}.b{stroke:#231f20;stroke-linecap:round;stroke-linejoin:round;}</style></defs><path class="a" d="M0,0H32.119V26.792H0Z"/><g transform="translate(19998.107 14839.52)"><g transform="translate(-19989.219 -14838.312)"><path class="b" d="M160.924,103.491" transform="translate(-152.453 -93.655)"/><path d="M166.754,108.313a.356.356,0,0,1-.317-.521,9.674,9.674,0,0,0,1.1-4.087h-.945a.357.357,0,0,1,0-.714H167.9a.356.356,0,0,1,.357.357,10.333,10.333,0,0,1-1.182,4.771A.355.355,0,0,1,166.754,108.313Z" transform="translate(-153.971 -93.513)"/><path d="M159.008,98.282a9.673,9.673,0,0,1-4.6-1.155.357.357,0,1,1,.336-.63,8.972,8.972,0,0,0,4.26,1.07.357.357,0,1,1,0,.714Z" transform="translate(-150.535 -91.644)"/><path d="M160.781,96.386a.357.357,0,0,1-.357-.357V90.183a.357.357,0,0,1,.563-.291,14.05,14.05,0,0,1,4.423,4.92.357.357,0,0,1-.154.481A9.677,9.677,0,0,1,160.781,96.386Zm.357-5.494v4.773a8.959,8.959,0,0,0,3.465-.847A13.237,13.237,0,0,0,161.138,90.892Z" transform="translate(-152.31 -89.747)"/><path d="M159.008,96.364a9.674,9.674,0,0,1-4.6-1.155.357.357,0,0,1-.148-.48,14.108,14.108,0,0,1,4.466-4.915.355.355,0,0,1,.408,0,.552.552,0,0,1,.228.347v5.846A.357.357,0,0,1,159.008,96.364Zm-3.939-1.621a8.932,8.932,0,0,0,3.582.9V90.755A13.348,13.348,0,0,0,155.068,94.743Z" transform="translate(-150.535 -89.726)"/><path d="M152.714,97.257a.367.367,0,0,1-.139-.028.358.358,0,0,1-.19-.468q.115-.273.246-.542a9.863,9.863,0,0,1-1.96-1.477,9.208,9.208,0,0,0-.948,1.3.357.357,0,0,1-.611-.371,10,10,0,0,1,1.29-1.689.368.368,0,0,1,.518,0,9.176,9.176,0,0,0,2.353,1.781.357.357,0,0,1,.148.481q-.206.393-.376.8A.358.358,0,0,1,152.714,97.257Z" transform="translate(-149.06 -90.904)"/><path d="M167.219,111.932a.357.357,0,0,1-.178-.667,9.082,9.082,0,0,0,1.842-1.4,9.246,9.246,0,0,0-2.228-1.6.357.357,0,0,1-.153-.481h0a9.633,9.633,0,0,0,1.1-4.443.357.357,0,0,1,.357-.357h4.024a.356.356,0,0,1,.357.357,9.866,9.866,0,0,1-4.946,8.536A.355.355,0,0,1,167.219,111.932Zm.074-4.127a9.871,9.871,0,0,1,2.079,1.544,9.144,9.144,0,0,0,2.249-5.645h-3.308A10.321,10.321,0,0,1,167.293,107.805Z" transform="translate(-154.037 -93.513)"/><path d="M170.259,99.909h-4.024a.357.357,0,0,1-.357-.357,9.633,9.633,0,0,0-1.1-4.444h0a13.339,13.339,0,0,0-4.2-4.664.357.357,0,0,1-.151-.291v-.079a.357.357,0,0,1,.357-.357,9.847,9.847,0,0,1,9.835,9.836A.357.357,0,0,1,170.259,99.909Zm-3.672-.714H169.9a9.082,9.082,0,0,0-2.251-5.645,9.861,9.861,0,0,1-2.078,1.544A10.324,10.324,0,0,1,166.587,99.195Zm-4.768-8.706a13.839,13.839,0,0,1,3.42,3.971,9.148,9.148,0,0,0,1.915-1.427A9.1,9.1,0,0,0,161.819,90.489Z" transform="translate(-152.31 -89.716)"/><path d="M166.236,101.859a.357.357,0,0,1-.357-.357,9.575,9.575,0,0,0-.948-4.131,9.661,9.661,0,0,1-4.15.933.357.357,0,0,1,0-.714,8.968,8.968,0,0,0,4.148-1.015.358.358,0,0,1,.481.154,10.336,10.336,0,0,1,1.182,4.772A.357.357,0,0,1,166.236,101.859Z" transform="translate(-152.31 -91.667)"/><path d="M153.6,95.242a.362.362,0,0,1-.169-.042,9.876,9.876,0,0,1-2.534-1.919.357.357,0,0,1,0-.491,9.744,9.744,0,0,1,7.13-3.073.357.357,0,0,1,.357.357v.079a.359.359,0,0,1-.194.318.37.37,0,0,1-.2.038,13.317,13.317,0,0,0-4.077,4.543.357.357,0,0,1-.316.191Zm-1.942-2.207a9.191,9.191,0,0,0,1.8,1.363,13.829,13.829,0,0,1,3.356-3.888A9.016,9.016,0,0,0,151.659,93.035Z" transform="translate(-149.559 -89.716)"/><path d="M163.432,111.826a10.138,10.138,0,0,0,.839.629,11.786,11.786,0,0,0,2.429,1.265,10.947,10.947,0,0,0,3.769.751,5.824,5.824,0,0,0,4.011-1.506,4.572,4.572,0,0,0,1.177-1.933,6.058,6.058,0,0,0,.254-2.245,8.2,8.2,0,0,0-1.326-3.8,11.13,11.13,0,0,0-1.827-2.19,10.361,10.361,0,0,0-.824-.7,10.246,10.246,0,0,1,.845.671,11.138,11.138,0,0,1,1.905,2.144,8.377,8.377,0,0,1,1.47,3.845,6.36,6.36,0,0,1-.2,2.365,4.959,4.959,0,0,1-1.209,2.125,5.562,5.562,0,0,1-2.016,1.311,7.006,7.006,0,0,1-2.262.456,11.486,11.486,0,0,1-3.982-.661,12.423,12.423,0,0,1-2.607-1.253,10.481,10.481,0,0,1-.9-.634l-.026-.022a.416.416,0,0,1-.065-.566.374.374,0,0,1,.541-.068Z" transform="translate(-153.974 -93.259)"/></g><path d="M17.451,12.319l-.026-1.75L9.92,6.081,9.848,1.268A1.36,1.36,0,0,0,8.515-.065,1.265,1.265,0,0,0,7.222,1.228l.072,4.814L-.079,10.306l.026,1.75L7.354,9.98l.072,4.814-2.168,1.28.02,1.313,3.488-.823,3.514.928-.02-1.313-2.208-1.346L9.979,10.02Z" transform="translate(-19997.006 -14826.134) rotate(-45)"/></g></svg>