<svg width="24" height="24" viewBox="0 0 24 24" fill="none" xmlns="http://www.w3.org/2000/svg">
<g id="brand logo / google play">
<g id="Group 72312">
<path id="path40" d="M4.30217 3.25043C4.0901 3.4941 3.98286 3.80594 4.00223 4.12261V17.8789C3.98396 18.1954 4.09107 18.5069 4.30217 18.7511L4.35125 18.7981L12.3949 11.0895V10.9067L4.35125 3.20343L4.30217 3.25043Z" fill="url(#paint0_linear_484_1128)"/>
<path id="path42" d="M15.0777 13.6591L12.3947 11.0896V10.9068L15.0777 8.34253L15.1377 8.37387L18.317 10.1025C19.2277 10.5935 19.2277 11.403 18.317 11.8991L15.1377 13.6278L15.0777 13.6591Z" fill="url(#paint1_linear_484_1128)"/>
<path id="path44" d="M15.138 13.6279L12.4113 11.0166L4.30225 18.7512C4.48916 18.8984 4.72187 18.9818 4.96375 18.9885C5.20562 18.9951 5.44293 18.9245 5.63831 18.7878L15.1216 13.6279" fill="url(#paint2_linear_484_1128)"/>
<path id="path46" d="M15.138 8.37393L5.63831 3.20886C5.44502 3.06655 5.20614 2.99292 4.96246 3.00054C4.71878 3.00816 4.48543 3.09656 4.30225 3.25064L12.395 11.0009L15.138 8.37393Z" fill="url(#paint3_linear_484_1128)"/>
<path id="path48" opacity="0.1" d="M15.0778 13.5704L5.63807 18.699C5.44977 18.8334 5.22122 18.906 4.9864 18.906C4.75157 18.906 4.52302 18.8334 4.33472 18.699L4.28564 18.746L4.33472 18.793C4.52302 18.9274 4.75157 19 4.9864 19C5.22122 19 5.44977 18.9274 5.63807 18.793L15.1214 13.6331L15.0778 13.5704Z" fill="black"/>
<path id="path52" opacity="0.07" d="M18.3171 11.8051L15.0779 13.5702L15.1379 13.6277L18.3171 11.8782C18.5036 11.7996 18.665 11.6751 18.7848 11.5173C18.9045 11.3595 18.9784 11.174 18.9988 10.9799C18.9616 11.1593 18.8804 11.3277 18.7619 11.4712C18.6434 11.6147 18.4909 11.7291 18.3171 11.8051Z" fill="black"/>
<path id="path54" opacity="0.3" d="M5.63844 3.30274L18.3174 10.1913C18.4895 10.2654 18.6409 10.3773 18.7594 10.518C18.8778 10.6586 18.9599 10.8241 18.9991 11.0008C18.9798 10.8064 18.9063 10.6205 18.7864 10.4625C18.6665 10.3045 18.5046 10.1802 18.3174 10.1025L5.63844 3.20873C4.74409 2.71781 4.00244 3.12517 4.00244 4.12268V4.21146C4.00244 3.21917 4.74409 2.80659 5.63844 3.30274Z" fill="white"/>
</g>
</g>
<defs>
<linearGradient id="paint0_linear_484_1128" x1="11.686" y1="3.97637" x2="1.25577" y2="14.8674" gradientUnits="userSpaceOnUse">
<stop stop-color="#008EFF"/>
<stop offset="0.01" stop-color="#008FFF"/>
<stop offset="0.26" stop-color="#00ACFF"/>
<stop offset="0.51" stop-color="#00C0FF"/>
<stop offset="0.76" stop-color="#00CDFF"/>
<stop offset="1" stop-color="#00D1FF"/>
</linearGradient>
<linearGradient id="paint1_linear_484_1128" x1="18.426" y1="11.0008" x2="2.70956" y2="11.0008" gradientUnits="userSpaceOnUse">
<stop stop-color="#FFD800"/>
<stop offset="1" stop-color="#FF8A00"/>
</linearGradient>
<linearGradient id="paint2_linear_484_1128" x1="13.6492" y1="12.4267" x2="-0.490672" y2="27.1914" gradientUnits="userSpaceOnUse">
<stop stop-color="#FF3A44"/>
<stop offset="1" stop-color="#B11162"/>
</linearGradient>
<linearGradient id="paint3_linear_484_1128" x1="2.2627" y1="-1.3295" x2="8.58149" y2="5.26309" gradientUnits="userSpaceOnUse">
<stop stop-color="#328E71"/>
<stop offset="0.07" stop-color="#2D9571"/>
<stop offset="0.48" stop-color="#15BD74"/>
<stop offset="0.8" stop-color="#06D575"/>
<stop offset="1" stop-color="#00DE76"/>
</linearGradient>
</defs>
</svg>
