<svg width="48" height="48" viewBox="0 0 48 48" fill="none" xmlns="http://www.w3.org/2000/svg">
<rect width="48" height="48" rx="24" fill="#065BAA"/>
<path d="M26.3001 32.925L17.9751 24.625C17.8918 24.5417 17.8294 24.4457 17.7881 24.337C17.7461 24.229 17.7251 24.1167 17.7251 24C17.7251 23.8833 17.7461 23.7707 17.7881 23.662C17.8294 23.554 17.8918 23.4583 17.9751 23.375L26.3001 15.05C26.5001 14.85 26.7334 14.75 27.0001 14.75C27.2668 14.75 27.5084 14.8583 27.7251 15.075C27.9251 15.2583 28.0251 15.4873 28.0251 15.762C28.0251 16.0373 27.9251 16.275 27.7251 16.475L20.1751 24L27.7251 31.55C27.9084 31.7333 28.0001 31.9583 28.0001 32.225C28.0001 32.4917 27.9001 32.725 27.7001 32.925C27.5001 33.125 27.2668 33.225 27.0001 33.225C26.7334 33.225 26.5001 33.125 26.3001 32.925Z" fill="#F2F4F7"/>
</svg>
