<svg width="48" height="48" viewBox="0 0 48 48" fill="none" xmlns="http://www.w3.org/2000/svg">
<rect width="48" height="48" rx="24" fill="#065BAA"/>
<path d="M19.1248 33.0272C18.9748 32.8772 18.8998 32.6897 18.8998 32.4647C18.8998 32.2397 18.9748 32.0439 19.1248 31.8772L27.0498 23.9522L19.1248 16.0272C18.9748 15.8772 18.8956 15.6939 18.8873 15.4772C18.879 15.2606 18.9581 15.0689 19.1248 14.9022C19.2748 14.7522 19.4665 14.6731 19.6998 14.6647C19.9331 14.6564 20.1248 14.7272 20.2748 14.8772L28.8498 23.4522C28.9331 23.5356 28.9915 23.6189 29.0248 23.7022C29.0581 23.7856 29.0748 23.8689 29.0748 23.9522C29.0748 24.0522 29.0581 24.1439 29.0248 24.2272C28.9915 24.3106 28.9331 24.3939 28.8498 24.4772L20.2748 33.0522C20.1248 33.2022 19.9373 33.2772 19.7123 33.2772C19.4873 33.2772 19.2915 33.1939 19.1248 33.0272Z" fill="#F2F4F7"/>
</svg>
