<svg width="17" height="20" viewBox="0 0 17 20" fill="none" xmlns="http://www.w3.org/2000/svg">
<path d="M0.273438 19.575V6.075H5.49844V3.45L8.24844 0.75L10.9984 3.45V10.075H16.2234V19.575H0.273438ZM1.77344 18.075H4.27344V15.575H1.77344V18.075ZM1.77344 14.075H4.27344V11.575H1.77344V14.075ZM1.77344 10.075H4.27344V7.575H1.77344V10.075ZM6.99844 18.075H9.49844V15.575H6.99844V18.075ZM6.99844 14.075H9.49844V11.575H6.99844V14.075ZM6.99844 10.075H9.49844V7.575H6.99844V10.075ZM6.99844 6.075H9.49844V3.575H6.99844V6.075ZM12.2234 18.075H14.7234V15.575H12.2234V18.075ZM12.2234 14.075H14.7234V11.575H12.2234V14.075Z" fill="#121516"/>
</svg>
