<svg width="24" height="24" viewBox="0 0 24 24" fill="none" xmlns="http://www.w3.org/2000/svg">
<path d="M8.87539 17.1234C8.72539 16.9734 8.65039 16.7984 8.65039 16.5984C8.65039 16.3984 8.72539 16.2234 8.87539 16.0734L12.9504 11.9984L8.87539 7.92344C8.72539 7.77344 8.65039 7.59844 8.65039 7.39844C8.65039 7.19844 8.72539 7.02344 8.87539 6.87344C9.02539 6.72344 9.20039 6.64844 9.40039 6.64844C9.60039 6.64844 9.77539 6.72344 9.92539 6.87344L14.4254 11.3734C14.5087 11.4568 14.5714 11.5524 14.6134 11.6604C14.6547 11.7691 14.6754 11.8818 14.6754 11.9984C14.6754 12.1151 14.6547 12.2274 14.6134 12.3354C14.5714 12.4441 14.5087 12.5401 14.4254 12.6234L9.92539 17.1234C9.77539 17.2734 9.60039 17.3484 9.40039 17.3484C9.20039 17.3484 9.02539 17.2734 8.87539 17.1234Z" fill="white"/>
</svg>
