<svg width="19" height="20" viewBox="0 0 19 20" fill="none" xmlns="http://www.w3.org/2000/svg">
<path fill-rule="evenodd" clip-rule="evenodd" d="M9.75 13H13.75V9H9.75V6L4.75 11L9.75 16V13ZM16.75 2H12.57C12.15 0.84 11.05 0 9.75 0C8.45 0 7.35 0.84 6.93 2H2.75C2.61 2 2.48 2.01 2.35 2.04C1.96 2.12 1.61 2.32 1.34 2.59C1.16 2.77 1.01 2.99 0.91 3.23C0.81 3.46 0.75 3.72 0.75 4V18C0.75 18.27 0.81 18.54 0.91 18.78C1.01 19.02 1.16 19.23 1.34 19.42C1.61 19.69 1.96 19.89 2.35 19.97C2.48 19.99 2.61 20 2.75 20H16.75C17.85 20 18.75 19.1 18.75 18V4C18.75 2.9 17.85 2 16.75 2ZM9.75 1.75C10.16 1.75 10.5 2.09 10.5 2.5C10.5 2.91 10.16 3.25 9.75 3.25C9.34 3.25 9 2.91 9 2.5C9 2.09 9.34 1.75 9.75 1.75ZM16.75 18H2.75V4H16.75V18Z" fill="#121516"/>
</svg>
