<svg width="24" height="24" viewBox="0 0 24 24" fill="none" xmlns="http://www.w3.org/2000/svg">
<g id="brand logo / iapps">
<path id="Vector" d="M16.5528 20H7.44715C5.49594 20 4 18.4066 4 16.4813V7.51867C4 5.59336 5.56098 4 7.44715 4H16.5528C18.5041 4 20 5.59336 20 7.51867V16.4149C20 18.4066 18.5041 20 16.5528 20Z" fill="white"/>
<path id="Vector_2" d="M12 12.0996C11.1545 10.307 9.39837 9.04564 7.31707 9.04564H4V16.4813C4 18.473 5.56098 20 7.44715 20H16.5528C18.5041 20 20 18.4066 20 16.4813V8.97925H16.6829C14.6016 8.97925 12.8455 10.2407 12 12.0996Z" fill="url(#paint0_linear_444_1529)"/>
<path id="Vector_3" d="M14.7317 5.72614C14.6667 5.72614 14.6667 5.72614 14.7317 5.72614C11.7399 6.19087 12 8.71369 12.0651 8.97925C14.9919 8.58091 14.7317 5.9917 14.7317 5.72614Z" fill="url(#paint1_linear_444_1529)"/>
<path id="Vector_4" d="M12 16.2822C9.65855 16.2822 7.77237 14.3569 7.77237 12.0332C7.77237 11.6349 8.03253 11.3693 8.42278 11.3693C8.81302 11.3693 9.07318 11.6349 9.07318 12.0332C9.07318 13.693 10.374 14.9544 12 14.9544C13.626 14.9544 14.9268 13.6266 14.9268 12.0332C14.9268 11.6349 15.187 11.3693 15.5772 11.3693C15.9675 11.3693 16.2277 11.6349 16.2277 12.0332C16.2927 14.3569 14.3415 16.2822 12 16.2822Z" fill="white"/>
</g>
<defs>
<linearGradient id="paint0_linear_444_1529" x1="5.05197" y1="17.7107" x2="19.7177" y2="9.74659" gradientUnits="userSpaceOnUse">
<stop stop-color="#1767E6"/>
<stop offset="0.2552" stop-color="#1680EA"/>
<stop offset="0.7483" stop-color="#15AAF0"/>
<stop offset="1" stop-color="#14BBF2"/>
</linearGradient>
<linearGradient id="paint1_linear_444_1529" x1="12.0161" y1="7.35123" x2="14.7199" y2="7.35123" gradientUnits="userSpaceOnUse">
<stop stop-color="#1767E6"/>
<stop offset="0.2552" stop-color="#1680EA"/>
<stop offset="0.7483" stop-color="#15AAF0"/>
<stop offset="1" stop-color="#14BBF2"/>
</linearGradient>
</defs>
</svg>
