<svg width="32" height="32" viewBox="0 0 32 32" fill="currentColor" xmlns="http://www.w3.org/2000/svg">
<g id="Controls/info- base">
<g id="Vector">
<path fill-rule="evenodd" clip-rule="evenodd" d="M16.0026 26.6654C18.9582 26.6654 21.475 25.6267 23.5533 23.5494C25.6306 21.4711 26.6693 18.9543 26.6693 15.9987C26.6693 13.0431 25.6306 10.5263 23.5533 8.44803C21.475 6.3707 18.9582 5.33203 16.0026 5.33203C13.047 5.33203 10.5306 6.3707 8.45327 8.44803C6.37505 10.5263 5.33594 13.0431 5.33594 15.9987C5.33594 18.9543 6.37505 21.4711 8.45327 23.5494C10.5306 25.6267 13.047 26.6654 16.0026 26.6654ZM16.7199 22.0494C16.5306 22.2378 16.2915 22.332 16.0026 22.332C15.7137 22.332 15.475 22.2378 15.2866 22.0494C15.0973 21.86 15.0026 21.632 15.0026 21.3654V15.6654C15.0026 15.3765 15.0973 15.1374 15.2866 14.948C15.475 14.7596 15.7137 14.6654 16.0026 14.6654C16.2915 14.6654 16.5306 14.7596 16.7199 14.948C16.9084 15.1374 17.0026 15.3654 17.0026 15.632V21.332C17.0026 21.6209 16.9084 21.86 16.7199 22.0494ZM16.7693 12.0814C16.5693 12.2929 16.3137 12.3987 16.0026 12.3987C15.6915 12.3987 15.4359 12.2929 15.2359 12.0814C15.0359 11.8707 14.9359 11.6098 14.9359 11.2987C14.9359 11.0098 15.0359 10.7596 15.2359 10.548C15.4359 10.3374 15.6915 10.232 16.0026 10.232C16.3137 10.232 16.5693 10.3374 16.7693 10.548C16.9693 10.7596 17.0693 11.0098 17.0693 11.2987C17.0693 11.6098 16.9693 11.8707 16.7693 12.0814Z" fill="currentColor"/>
<path fill-rule="evenodd" clip-rule="evenodd" d="M16.0026 28.6654C14.247 28.6654 12.5973 28.332 11.0533 27.6654C9.50838 26.9987 8.16927 26.0987 7.03594 24.9654C5.9026 23.832 5.0026 22.4929 4.33594 20.948C3.66927 19.404 3.33594 17.7543 3.33594 15.9987C3.33594 14.2431 3.66927 12.5929 4.33594 11.048C5.0026 9.50403 5.9026 8.16536 7.03594 7.03203C8.16927 5.8987 9.50838 4.9987 11.0533 4.33203C12.5973 3.66536 14.247 3.33203 16.0026 3.33203C17.7582 3.33203 19.4084 3.66536 20.9533 4.33203C22.4973 4.9987 23.8359 5.8987 24.9693 7.03203C26.1026 8.16536 27.0026 9.50403 27.6693 11.048C28.3359 12.5929 28.6693 14.2431 28.6693 15.9987C28.6693 17.7543 28.3359 19.404 27.6693 20.948C27.0026 22.4929 26.1026 23.832 24.9693 24.9654C23.8359 26.0987 22.4973 26.9987 20.9533 27.6654C19.4084 28.332 17.7582 28.6654 16.0026 28.6654ZM16.0026 26.6654C18.9582 26.6654 21.475 25.6267 23.5533 23.5494C25.6306 21.4711 26.6693 18.9543 26.6693 15.9987C26.6693 13.0431 25.6306 10.5263 23.5533 8.44803C21.475 6.3707 18.9582 5.33203 16.0026 5.33203C13.047 5.33203 10.5306 6.3707 8.45327 8.44803C6.37505 10.5263 5.33594 13.0431 5.33594 15.9987C5.33594 18.9543 6.37505 21.4711 8.45327 23.5494C10.5306 25.6267 13.047 26.6654 16.0026 26.6654Z" fill="currentColor"/>
</g>
</g>
</svg>
