<svg width="20" height="20" viewBox="0 0 24 25" fill="none" xmlns="http://www.w3.org/2000/svg">
<path d="M6.66667 0.393188C2.99067 0.393188 0 3.36534 0 7.01858V17.6192C0 21.2724 2.99067 24.2446 6.66667 24.2446H17.3333C21.0093 24.2446 24 21.2724 24 17.6192V7.01858C24 3.36534 21.0093 0.393188 17.3333 0.393188H6.66667ZM6.66667 3.04334H17.3333C19.5387 3.04334 21.3333 4.8269 21.3333 7.01858V17.6192C21.3333 19.8109 19.5387 21.5944 17.3333 21.5944H6.66667C4.46133 21.5944 2.66667 19.8109 2.66667 17.6192V7.01858C2.66667 4.8269 4.46133 3.04334 6.66667 3.04334ZM18.6667 4.36842C18.313 4.36842 17.9739 4.50803 17.7239 4.75653C17.4738 5.00503 17.3333 5.34207 17.3333 5.6935C17.3333 6.04493 17.4738 6.38197 17.7239 6.63047C17.9739 6.87897 18.313 7.01858 18.6667 7.01858C19.0203 7.01858 19.3594 6.87897 19.6095 6.63047C19.8595 6.38197 20 6.04493 20 5.6935C20 5.34207 19.8595 5.00503 19.6095 4.75653C19.3594 4.50803 19.0203 4.36842 18.6667 4.36842ZM12 5.6935C8.324 5.6935 5.33333 8.66565 5.33333 12.3189C5.33333 15.9721 8.324 18.9443 12 18.9443C15.676 18.9443 18.6667 15.9721 18.6667 12.3189C18.6667 8.66565 15.676 5.6935 12 5.6935ZM12 8.34365C14.2053 8.34365 16 10.1272 16 12.3189C16 14.5106 14.2053 16.2941 12 16.2941C9.79467 16.2941 8 14.5106 8 12.3189C8 10.1272 9.79467 8.34365 12 8.34365Z" fill="white"/>
</svg>
