<svg xmlns="http://www.w3.org/2000/svg" width="20.5" height="24" viewBox="0 0 20.5 24">
    <g data-name="Group 72935">
        <path data-name="Path 55605" d="M198.748 62a5.631 5.631 0 0 0-3.646 1.974 4.892 4.892 0 0 0-1.194 3.8 4.752 4.752 0 0 0 3.679-1.88A5.278 5.278 0 0 0 198.748 62z" style="fill:#105fae" transform="translate(-184.001 -62)"/>
        <path data-name="Path 55606" d="M203.806 70.052a6.074 6.074 0 0 0-4.585-2.434c-2.153 0-3.063 1.03-4.559 1.03-1.542 0-2.713-1.027-4.575-1.027a6.226 6.226 0 0 0-5.01 3.028c-1.735 2.691-1.438 7.75 1.374 12.06 1.007 1.542 2.351 3.276 4.109 3.291 1.564.015 2.005-1 4.125-1.014s2.521 1.027 4.083 1.011c1.759-.013 3.177-1.935 4.183-3.477a17.3 17.3 0 0 0 1.55-2.91 5.291 5.291 0 0 1-.695-9.558z" style="fill:#105fae" transform="translate(-184.001 -62)"/>
    </g>
</svg>
