<svg width="7" height="12" viewBox="0 0 7 12" fill="none" xmlns="http://www.w3.org/2000/svg">
<path d="M5.47656 11.1234L0.976562 6.62344C0.893229 6.5401 0.830562 6.4441 0.788562 6.33544C0.747228 6.22744 0.726562 6.1151 0.726562 5.99844C0.726562 5.88177 0.747228 5.7691 0.788562 5.66044C0.830562 5.55244 0.893229 5.45677 0.976562 5.37344L5.47656 0.873437C5.62656 0.723437 5.80156 0.648438 6.00156 0.648438C6.20156 0.648438 6.37656 0.723437 6.52656 0.873437C6.67656 1.02344 6.75156 1.19844 6.75156 1.39844C6.75156 1.59844 6.67656 1.77344 6.52656 1.92344L2.45156 5.99844L6.52656 10.0734C6.67656 10.2234 6.75156 10.3984 6.75156 10.5984C6.75156 10.7984 6.67656 10.9734 6.52656 11.1234C6.37656 11.2734 6.20156 11.3484 6.00156 11.3484C5.80156 11.3484 5.62656 11.2734 5.47656 11.1234Z" fill="#121516"/>
</svg>
