<svg width="18" height="18" viewBox="0 0 22 22" fill="none" xmlns="http://www.w3.org/2000/svg">
<path d="M2.85634 0.652222C1.27914 0.652222 0.333008 1.68093 0.333008 3.05076C0.333008 4.42058 1.27925 5.4454 2.69819 5.4454C4.27539 5.4454 5.22152 4.42058 5.22152 3.05076C5.22152 1.68093 4.27528 0.652222 2.85634 0.652222ZM0.458815 8.00774V21.9856H5.1029V8.00774H0.458815ZM8.93464 8.00774V21.9856H13.5787V14.3453C13.5787 12.0709 15.0743 11.744 15.5233 11.744C15.9724 11.744 17.1732 12.2327 17.1732 14.3453V21.9856H21.6663V14.3453C21.6663 9.9583 19.8696 8.00774 17.6225 8.00774C15.3754 8.00774 14.1768 8.81957 13.5787 9.95776V8.00774H8.93464Z" fill="white"/>
</svg>
