<svg width="14" height="17" viewBox="0 0 14 17" fill="none" xmlns="http://www.w3.org/2000/svg">
<path d="M7.00071 8.79167C7.40345 8.79167 7.74731 8.64944 8.03228 8.365C8.3167 8.08 8.45891 7.73611 8.45891 7.33333C8.45891 6.93056 8.3167 6.58667 8.03228 6.30167C7.74731 6.01722 7.40345 5.875 7.00071 5.875C6.59797 5.875 6.25411 6.01722 5.96914 6.30167C5.68472 6.58667 5.54251 6.93056 5.54251 7.33333C5.54251 7.73611 5.68472 8.08 5.96914 8.365C6.25411 8.64944 6.59797 8.79167 7.00071 8.79167ZM7.00071 15.5C8.72277 13.9722 10.0213 12.5103 10.8962 11.1142C11.7711 9.71861 12.2086 8.51389 12.2086 7.5C12.2086 5.91667 11.7053 4.625 10.6987 3.625C9.69157 2.625 8.45891 2.125 7.00071 2.125C5.54251 2.125 4.30984 2.625 3.30272 3.625C2.29614 4.625 1.79285 5.91667 1.79285 7.5C1.79285 8.51389 2.23031 9.71861 3.10523 11.1142C3.98015 12.5103 5.27865 13.9722 7.00071 15.5ZM7.00071 16.875C6.9035 16.875 6.80628 16.8611 6.70907 16.8333C6.61186 16.8056 6.52159 16.7569 6.43826 16.6875C4.46622 14.8958 2.9908 13.2361 2.012 11.7083C1.03265 10.1806 0.542969 8.77778 0.542969 7.5C0.542969 5.48611 1.19235 3.87833 2.49112 2.67667C3.78934 1.47556 5.29253 0.875 7.00071 0.875C8.70889 0.875 10.2124 1.47556 11.5111 2.67667C12.8093 3.87833 13.4584 5.48611 13.4584 7.5C13.4584 8.77778 12.9691 10.1806 11.9903 11.7083C11.0109 13.2361 9.5352 14.8958 7.56316 16.6875C7.47983 16.7569 7.38956 16.8056 7.29235 16.8333C7.19514 16.8611 7.09792 16.875 7.00071 16.875Z" fill="#121516"/>
</svg>
