<svg xmlns="http://www.w3.org/2000/svg" viewBox="0.75 35.98 111.5 11.05">
    <path d="M111.5 42.25C111.914 42.25 112.25 41.9142 112.25 41.5C112.25 41.0858 111.914 40.75 111.5 40.75V42.25ZM0.969673 40.9697C0.676773 41.2626 0.676773 41.7374 0.969673 42.0303L5.74264 46.8033C6.03554 47.0962 6.51041 47.0962 6.8033 46.8033C7.09619 46.5104 7.09619 46.0355 6.8033 45.7426L2.56066 41.5L6.8033 37.2574C7.09619 36.9645 7.09619 36.4896 6.8033 36.1967C6.51041 35.9038 6.03554 35.9038 5.74264 36.1967L0.969673 40.9697ZM111.5 40.75L1.5 40.75V42.25L111.5 42.25V40.75Z"/>
</svg>