<svg width="23" height="19" viewBox="0 0 26 21" fill="none" xmlns="http://www.w3.org/2000/svg">
<path d="M2.73301 20.257C2.06634 20.257 1.49967 20.0251 1.03301 19.5614C0.566341 19.0976 0.333008 18.5344 0.333008 17.8719V2.766C0.333008 2.10346 0.566341 1.5403 1.03301 1.07653C1.49967 0.612748 2.06634 0.380859 2.73301 0.380859H23.2663C23.933 0.380859 24.4997 0.612748 24.9663 1.07653C25.433 1.5403 25.6663 2.10346 25.6663 2.766V17.8719C25.6663 18.5344 25.433 19.0976 24.9663 19.5614C24.4997 20.0251 23.933 20.257 23.2663 20.257H2.73301ZM23.6663 4.28984L13.633 10.6502C13.5441 10.7165 13.4441 10.7659 13.333 10.7986C13.2219 10.8322 13.1108 10.849 12.9997 10.849C12.8886 10.849 12.7775 10.8322 12.6663 10.7986C12.5552 10.7659 12.4552 10.7165 12.3663 10.6502L2.33301 4.28984V17.8719C2.33301 17.9823 2.37212 18.0764 2.45034 18.1541C2.52767 18.231 2.6219 18.2694 2.73301 18.2694H23.2663C23.3775 18.2694 23.4721 18.231 23.5503 18.1541C23.6277 18.0764 23.6663 17.9823 23.6663 17.8719V4.28984ZM12.9997 8.99386L23.4663 2.36848H2.53301L12.9997 8.99386ZM2.33301 4.28984V18.2694V17.8719V4.28984Z" fill="white"/>
</svg>
