<svg width="22" height="15" viewBox="0 0 22 15" fill="none" xmlns="http://www.w3.org/2000/svg">
<path d="M1.25 14.5C1.03333 14.5 0.854 14.4293 0.712 14.288C0.570667 14.146 0.5 13.9667 0.5 13.75V1.25C0.5 1.03333 0.570667 0.854333 0.712 0.713C0.854 0.571 1.03333 0.5 1.25 0.5C1.46667 0.5 1.646 0.571 1.788 0.713C1.92933 0.854333 2 1.03333 2 1.25V10H10.25V4C10.25 3.58333 10.396 3.22933 10.688 2.938C10.9793 2.646 11.3333 2.5 11.75 2.5H18C18.9667 2.5 19.7917 2.84167 20.475 3.525C21.1583 4.20833 21.5 5.03333 21.5 6V13.75C21.5 13.9667 21.4293 14.146 21.288 14.288C21.146 14.4293 20.9667 14.5 20.75 14.5C20.5333 14.5 20.354 14.4293 20.212 14.288C20.0707 14.146 20 13.9667 20 13.75V11.5H2V13.75C2 13.9667 1.92933 14.146 1.788 14.288C1.646 14.4293 1.46667 14.5 1.25 14.5ZM6 8.55C5.28333 8.55 4.67933 8.304 4.188 7.812C3.696 7.32067 3.45 6.71667 3.45 6C3.45 5.28333 3.696 4.67933 4.188 4.188C4.67933 3.696 5.28333 3.45 6 3.45C6.71667 3.45 7.32067 3.696 7.812 4.188C8.304 4.67933 8.55 5.28333 8.55 6C8.55 6.71667 8.304 7.32067 7.812 7.812C7.32067 8.304 6.71667 8.55 6 8.55ZM11.75 10H20V6C20 5.45 19.8043 4.979 19.413 4.587C19.021 4.19567 18.55 4 18 4H11.75V10ZM6 7.05C6.3 7.05 6.55 6.95 6.75 6.75C6.95 6.55 7.05 6.3 7.05 6C7.05 5.7 6.95 5.45 6.75 5.25C6.55 5.05 6.3 4.95 6 4.95C5.7 4.95 5.45 5.05 5.25 5.25C5.05 5.45 4.95 5.7 4.95 6C4.95 6.3 5.05 6.55 5.25 6.75C5.45 6.95 5.7 7.05 6 7.05ZM6 7.05C5.7 7.05 5.45 6.95 5.25 6.75C5.05 6.55 4.95 6.3 4.95 6C4.95 5.7 5.05 5.45 5.25 5.25C5.45 5.05 5.7 4.95 6 4.95C6.3 4.95 6.55 5.05 6.75 5.25C6.95 5.45 7.05 5.7 7.05 6C7.05 6.3 6.95 6.55 6.75 6.75C6.55 6.95 6.3 7.05 6 7.05ZM11.75 4H18C18.55 4 19.021 4.19567 19.413 4.587C19.8043 4.979 20 5.45 20 6V10H11.75V4Z" fill="#9D9F9F"/>
</svg>
