<svg xmlns="http://www.w3.org/2000/svg" width="24" height="24" viewBox="0 0 24 24">
    <g data-name="Group 72953">
        <path data-name="Path 55753" d="M882 345.5a2.5 2.5 0 1 1-1.768.732A2.5 2.5 0 0 1 882 345.5zm0-4.5a7 7 0 0 1 7 7c0 5.25-7 13-7 13s-7-7.75-7-13a7 7 0 0 1 7-7zm0 2a5 5 0 0 0-5 5c0 1 0 3 5 9.71 5-6.71 5-8.71 5-9.71a5 5 0 0 0-5-5z" transform="translate(-870 -339)" style="fill:#fff"/>
        <g data-name="Group 72952">
            <path data-name="Path 55757" d="M0 0h24v24H0z" style="fill:none"/>
        </g>
    </g>
</svg>
