<svg width="24" height="24" viewBox="0 0 24 24" fill="none" xmlns="http://www.w3.org/2000/svg">
<g id="brand logo / myket">
<path id="XMLID_62_" d="M12 21C16.9706 21 21 16.9706 21 12C21 7.02944 16.9706 3 12 3C7.02944 3 3 7.02944 3 12C3 16.9706 7.02944 21 12 21Z" fill="#0091EA"/>
<path id="XMLID_61_" d="M17.5203 10.9352C17.445 9.23036 16.0441 7.87781 14.3231 7.87781C13.3685 7.87781 12.5081 8.29998 11.9219 8.96146C11.3357 8.29998 10.4752 7.87781 9.52062 7.87781C7.83463 7.87781 6.4525 9.17658 6.3288 10.8411C6.32343 10.876 6.32343 10.9217 6.32343 10.9648V14.576C6.32343 15.0197 6.68106 15.3774 7.12474 15.3774H7.14356C7.58724 15.3774 7.94488 15.0197 7.94488 14.576V11.0804H7.95025C7.95025 10.2011 8.66552 9.4885 9.54213 9.4885C10.4214 9.4885 11.134 10.2038 11.134 11.0804H11.1394V14.0302C11.1394 14.4739 11.497 14.8315 11.9407 14.8315H11.9595C12.4032 14.8315 12.7608 14.4739 12.7608 14.0302V11.0723C12.7662 10.193 13.4761 9.49119 14.3527 9.49119C15.2293 9.49119 15.9526 10.2091 15.9526 11.0858H15.958V14.5868C15.958 15.0251 16.3157 15.3774 16.7486 15.3774H16.7674C17.2057 15.3774 17.558 15.0197 17.558 14.5868V11.0158C17.5203 10.9755 17.5203 10.9567 17.5203 10.9352Z" fill="white"/>
<path id="XMLID_60_" d="M14.4952 15.6893C14.4603 15.6301 14.342 15.7485 14.342 15.7485C13.8983 16.2298 12.9786 16.539 12.0241 16.539C11.0695 16.539 10.1552 16.2298 9.70616 15.7485C9.70616 15.7485 9.58785 15.6248 9.55289 15.6893C9.50718 15.7592 9.57709 15.8722 9.57709 15.8722C10.1445 16.6923 11.0103 17.0607 12.0241 17.0607C13.0378 17.0607 13.9037 16.6923 14.471 15.8722C14.4764 15.8695 14.5409 15.7592 14.4952 15.6893Z" fill="white"/>
</g>
</svg>
