<svg width="18" height="18" viewBox="0 0 18 18" xmlns="http://www.w3.org/2000/svg">
    <path id="Vector"
          d="M11.0219 8.66831L9.89695 7.54331V7.37025C9.89695 7.21088 9.95088 7.07725 10.0588 6.96938C10.1666 6.86162 10.3003 6.80775 10.4598 6.80775C10.6192 6.80775 10.7528 6.86162 10.8605 6.96938C10.9681 7.07725 11.0219 7.21088 11.0219 7.37025V8.66831ZM6.08938 16.125C5.90563 16.125 5.74913 16.0603 5.61988 15.9309C5.49051 15.8017 5.42582 15.6452 5.42582 15.4614V15.375C5.05295 15.375 4.73376 15.2422 4.46826 14.9767C4.20276 14.7112 4.07001 14.3921 4.07001 14.0192V6C4.07001 5.74262 4.13495 5.504 4.26482 5.28412C4.39457 5.06425 4.5792 4.90431 4.8187 4.80431L5.80513 5.79094H5.33207C5.28882 5.80531 5.2552 5.83175 5.2312 5.87025C5.20707 5.90863 5.19501 5.95187 5.19501 6V14.0192C5.19501 14.0866 5.21663 14.1419 5.25988 14.1851C5.30326 14.2284 5.35857 14.25 5.42582 14.25H12.5797C12.6469 14.25 12.7023 14.2284 12.7456 14.1851C12.7889 14.1419 12.8105 14.0866 12.8105 14.0192V12.8077L13.9355 13.9327V14.0192C13.9355 14.3921 13.8028 14.7112 13.5373 14.9767C13.2718 15.2422 12.9526 15.375 12.5797 15.375V15.4614C12.5797 15.6452 12.515 15.8017 12.3856 15.9309C12.2564 16.0603 12.0999 16.125 11.9161 16.125C11.7325 16.125 11.5761 16.0603 11.4468 15.9309C11.3174 15.8017 11.2528 15.6452 11.2528 15.4614V15.375H6.75276V15.4614C6.75276 15.6452 6.68807 15.8017 6.5587 15.9309C6.42945 16.0603 6.27301 16.125 6.08938 16.125ZM6.98357 7.77112L8.10857 8.89612V12.6489C8.10857 12.8083 8.05463 12.9419 7.94676 13.0498C7.83888 13.1576 7.7052 13.2114 7.5457 13.2114C7.38632 13.2114 7.25276 13.1576 7.14501 13.0498C7.03738 12.9419 6.98357 12.8083 6.98357 12.6489V7.77112ZM9.89695 10.6847L11.0219 11.8095V12.6489C11.0219 12.8083 10.968 12.9419 10.8601 13.0498C10.7523 13.1576 10.6186 13.2114 10.4593 13.2114C10.2998 13.2114 10.1662 13.1576 10.0586 13.0498C9.95082 12.9419 9.89695 12.8083 9.89695 12.6489V10.6847ZM16.0038 16.7797C15.8874 16.8961 15.7538 16.9543 15.6028 16.9543C15.4518 16.9543 15.3181 16.8961 15.2019 16.7797L1.35857 2.94806C1.24707 2.83656 1.19007 2.70412 1.18757 2.55075C1.1852 2.39737 1.2422 2.2625 1.35857 2.14613C1.47495 2.02975 1.60857 1.97156 1.75945 1.97156C1.91045 1.97156 2.04413 2.02975 2.16051 2.14613L16.0038 15.9894C16.1153 16.1009 16.1723 16.2314 16.1746 16.3809C16.177 16.5304 16.1201 16.6634 16.0038 16.7797ZM11.0219 4.64419H12.5797C12.9526 4.64419 13.2718 4.77694 13.5373 5.04244C13.8028 5.30794 13.9355 5.62712 13.9355 6V10.4278C13.9355 10.6153 13.877 10.7559 13.76 10.8497C13.6431 10.9434 13.5146 10.9903 13.3743 10.9903C13.2339 10.9903 13.1049 10.9413 12.9871 10.8433C12.8694 10.7453 12.8105 10.603 12.8105 10.4164V6C12.8105 5.93262 12.7889 5.87731 12.7456 5.83406C12.7023 5.79081 12.6469 5.76919 12.5797 5.76919H8.33938C7.96651 5.76919 7.64732 5.63644 7.38182 5.37094C7.11632 5.10544 6.98357 4.78625 6.98357 4.41337V3.23081C6.98357 2.85794 7.11632 2.53875 7.38182 2.27325C7.64732 2.00775 7.96651 1.875 8.33938 1.875H9.66613C10.039 1.875 10.3582 2.00775 10.6237 2.27325C10.8892 2.53875 11.0219 2.85794 11.0219 3.23081V4.64419ZM8.10857 4.64419H9.89695V3.23081C9.89695 3.16344 9.87532 3.10813 9.83207 3.06488C9.78882 3.02163 9.73351 3 9.66613 3H8.33938C8.27201 3 8.2167 3.02163 8.17345 3.06488C8.1302 3.10813 8.10857 3.16344 8.10857 3.23081V4.64419Z"
    />
</svg>
