<svg width="24" height="24" viewBox="0 0 24 24" fill="none" xmlns="http://www.w3.org/2000/svg">
<g clip-path="url(#clip0_4012_248380)">
<path d="M20.6863 22.8658C20.5547 22.9616 20.3928 23 20.2411 23C20.0083 23 19.7756 22.9042 19.6239 22.7125L18.2377 20.9207L16.1837 18.2761C16.1129 18.1899 16.0724 18.0941 16.0623 17.9887C15.9915 17.7204 16.1028 17.4425 16.3456 17.27C16.4771 17.1742 16.639 17.1263 16.7908 17.1263C17.0235 17.1263 17.2562 17.2317 17.408 17.4233L17.8228 17.9599L19.5429 20.1733L20.8481 21.8597C21.1011 22.1855 21.0303 22.6263 20.6863 22.8658Z" />
<path d="M7.93759 17.9887C7.92747 18.0845 7.887 18.1803 7.81618 18.2761L5.76221 20.9207L4.36592 22.7125C4.22427 22.9042 3.99156 23 3.75884 23C3.59695 23 3.44518 22.9616 3.30353 22.8658C2.96963 22.6263 2.89881 22.1855 3.14164 21.8597L3.87014 20.9207L6.15682 17.9887L6.59189 17.4233C6.73354 17.2317 6.96626 17.1263 7.19897 17.1263C7.35075 17.1263 7.51263 17.1742 7.65429 17.27C7.89712 17.4329 7.9983 17.7204 7.93759 17.9887Z" />
<path d="M14.7166 19.2343C14.7166 19.6272 14.3726 19.953 13.9578 19.953H10.0826C9.66774 19.953 9.32373 19.6272 9.32373 19.2343C9.32373 18.8415 9.66774 18.5157 10.0826 18.5157H13.9578C14.3726 18.5157 14.7166 18.8319 14.7166 19.2343Z" />
<path d="M7.8464 22.4921H16.1938C16.6129 22.4921 16.9526 22.1704 16.9526 21.7735C16.9526 21.3766 16.6129 21.0548 16.1938 21.0548H7.8464C7.42729 21.0548 7.08754 21.3766 7.08754 21.7735C7.08754 22.1704 7.42729 22.4921 7.8464 22.4921Z"/>
<path fill-rule="evenodd" clip-rule="evenodd" d="M17.7924 1.77613C16.6187 1.25871 14.676 1 11.9543 1C9.2325 1 7.36066 1.26829 6.16673 1.80488C4.97281 2.34146 4.36572 3.18467 4.36572 4.35366V13.2648C4.36572 14.1272 4.67938 14.8554 5.3067 15.4495C5.93402 16.034 6.69287 16.331 7.6035 16.331L7.56302 16.3598H16.3556L16.305 16.331C17.2156 16.331 17.9846 16.034 18.6119 15.4495C19.2392 14.8554 19.5428 14.1272 19.5428 13.2648V4.35366C19.5428 3.15592 18.9661 2.29355 17.7924 1.77613ZM18.0251 8.75174C16.2544 9.41289 14.2915 9.73868 12.1465 9.73868C10.0015 9.73868 7.86657 9.38415 6.0352 8.66551H5.88343V5.87718H18.0251V8.75174ZM12.8271 13.8642C13.0187 13.6714 13.1145 13.4425 13.1145 13.1533C13.1145 12.8762 13.0187 12.6352 12.8271 12.4425C12.6355 12.2497 12.384 12.1533 12.1085 12.1533C11.8331 12.1533 11.5935 12.2497 11.4019 12.4425C11.2103 12.6352 11.1145 12.8642 11.1145 13.1533C11.1145 13.4425 11.2103 13.6714 11.4019 13.8642C11.5935 14.0569 11.8211 14.1533 12.1085 14.1533C12.3959 14.1533 12.6355 14.0569 12.8271 13.8642Z" />
<path d="M5.88354 8.60803V8.66552H6.03532C6.03532 8.66552 5.93414 8.6272 5.88354 8.60803Z" />
</g>
<defs>
<clipPath id="clip0_4012_248380">
<rect width="18" height="22" fill="white" transform="translate(3 1)"/>
</clipPath>
</defs>
</svg>
