<svg id="off-black60-24px" xmlns="http://www.w3.org/2000/svg" width="24" height="24">
    <defs>
        <style>
            .cls-1{fill:#666}
        </style>
    </defs>
    <circle id="Ellipse_111" data-name="Ellipse 111" class="cls-1" cx="1.039" cy="1.039" r="1.039" transform="translate(13.238 13.223)"/>
    <circle id="Ellipse_112" data-name="Ellipse 112" class="cls-1" cx="1.039" cy="1.039" r="1.039" transform="translate(8.179 8.165)"/>
    <path id="Path_730" data-name="Path 730" class="cls-1" d="m19.706 9.632-1.838-1.838.662-2.5a.418.418 0 0 0-.294-.515l-2.5-.662-.662-2.5a.4.4 0 0 0-.441-.294h-.147l-2.5.662L10.147.147C10.147.074 10 0 9.926 0a.382.382 0 0 0-.294.147L7.794 1.985l-2.5-.735h-.073a.5.5 0 0 0-.441.294l-.735 2.5-2.426.735a.553.553 0 0 0-.368.515l.662 2.5L.074 9.632c0 .074-.074.147-.074.294a.557.557 0 0 0 .147.294l1.838 1.838-.662 2.5a.418.418 0 0 0 .294.515l2.5.662.662 2.5a.4.4 0 0 0 .441.294h.147l2.5-.662 1.838 1.838a.557.557 0 0 0 .294.147.382.382 0 0 0 .294-.147l1.838-1.838 2.5.662h.147a.5.5 0 0 0 .441-.294l.662-2.5 2.5-.662a.418.418 0 0 0 .294-.515l-.662-2.5 1.838-1.838A.557.557 0 0 0 20 9.926zM5.147 7.353a2.262 2.262 0 0 1 2.206-2.206 2.132 2.132 0 1 1 0 4.265 2.09 2.09 0 0 1-2.206-2.059zm2.206 6.029a.636.636 0 0 1-.441.221.524.524 0 0 1-.441-.221.671.671 0 0 1 0-.882L12.5 6.471a.624.624 0 1 1 .882.882zm5.147 1.25a2.132 2.132 0 1 1 2.132-2.132 2.134 2.134 0 0 1-2.132 2.132z" transform="translate(1.82 1.807)"/>
    <path id="Path_41891" data-name="Path 41891" d="M0 0h24v24H0z" style="fill:none"/>
</svg>
