<svg width="16" height="19" viewBox="0 0 16 19" fill="none" xmlns="http://www.w3.org/2000/svg">
<path d="M15.2727 4.26V3.5C15.2727 2.25 14.7103 1.36 13.5855 0.82C12.4606 0.28 10.5988 0 8 0C5.40121 0 3.63636 0.28 2.47273 0.84C1.30909 1.4 0.727273 2.29 0.727273 3.5V4.26C0.32 4.26 0 4.6 0 5.01V6.66C0 7.07 0.32 7.41 0.727273 7.41V13.8C0.727273 14.35 0.853333 14.85 1.11515 15.28C1.36727 15.71 1.65818 16.05 1.95879 16.28V18.25C1.95879 18.47 2.02667 18.65 2.17212 18.79C2.30788 18.93 2.48242 19 2.68606 19H3.26788C3.48121 19 3.65576 18.93 3.79152 18.79C3.92727 18.65 3.99515 18.47 3.99515 18.25V17H11.9952V18.25C11.9952 18.47 12.063 18.65 12.2085 18.79C12.3442 18.93 12.5188 19 12.7224 19H13.3042C13.5176 19 13.6921 18.93 13.8279 18.79C13.9636 18.65 14.0315 18.47 14.0315 18.25V16.28C14.3418 16.05 14.623 15.71 14.8848 15.28C15.137 14.85 15.2727 14.35 15.2727 13.8V7.41C15.6703 7.41 16 7.07 16 6.66V5.01C16 4.6 15.6703 4.26 15.2727 4.26ZM4.83879 13.78C4.65455 13.97 4.42182 14.06 4.16 14.06C3.89818 14.06 3.65576 13.97 3.47152 13.78C3.28727 13.59 3.2 13.35 3.2 13.08C3.2 12.81 3.28727 12.56 3.47152 12.37C3.65576 12.18 3.88849 12.09 4.16 12.09C4.43152 12.09 4.65455 12.18 4.83879 12.37C5.02303 12.56 5.1103 12.8 5.1103 13.08C5.1103 13.36 5.02303 13.59 4.83879 13.78ZM6.00242 15.35C6.03152 14.97 6.34182 14.68 6.72 14.68H9.28C9.65818 14.68 9.96849 14.97 9.99758 15.35H6.00242ZM12.5673 13.78C12.383 13.97 12.16 14.06 11.8885 14.06C11.617 14.06 11.3842 13.97 11.2 13.78C11.0158 13.59 10.9285 13.35 10.9285 13.08C10.9285 12.81 11.0158 12.56 11.2 12.37C11.3842 12.18 11.617 12.09 11.8885 12.09C12.16 12.09 12.383 12.18 12.5673 12.37C12.7515 12.56 12.8485 12.8 12.8485 13.08C12.8485 13.36 12.7515 13.59 12.5673 13.78ZM13.8182 4.25V7.76C12.063 8.23 10.0752 8.5 8 8.5C5.92485 8.5 3.93697 8.24 2.18182 7.77V4.25C2.18182 3.12 2.44364 2.75 2.44364 2.75C2.68606 2.37 3.22909 2.06 4.06303 1.82C4.88727 1.59 6.21576 1.47 8.01939 1.47C9.82303 1.47 11.2097 1.59 12.0436 1.81C12.8873 2.04 13.4012 2.35 13.5952 2.75C13.8376 3.38 13.8182 4.25 13.8182 4.25Z" />
</svg>
