<svg width="24" height="25" viewBox="0 0 24 25" fill="none" xmlns="http://www.w3.org/2000/svg">
<path d="M6.025 17.6848C6.875 17.0514 7.8 16.5514 8.8 16.1848C9.8 15.8181 10.8667 15.6348 12 15.6348C13.1333 15.6348 14.2 15.8181 15.2 16.1848C16.2 16.5514 17.125 17.0514 17.975 17.6848C18.5917 17.0014 19.0833 16.2098 19.45 15.3098C19.8167 14.4098 20 13.4348 20 12.3848C20 10.1681 19.221 8.28043 17.663 6.72177C16.1043 5.16377 14.2167 4.38477 12 4.38477C9.78333 4.38477 7.896 5.16377 6.338 6.72177C4.77933 8.28043 4 10.1681 4 12.3848C4 13.4348 4.18333 14.4098 4.55 15.3098C4.91667 16.2098 5.40833 17.0014 6.025 17.6848ZM12 13.1348C11.0833 13.1348 10.3127 12.8221 9.688 12.1968C9.06267 11.5721 8.75 10.8014 8.75 9.88477C8.75 8.9681 9.06267 8.19743 9.688 7.57277C10.3127 6.94743 11.0833 6.63477 12 6.63477C12.9167 6.63477 13.6873 6.94743 14.312 7.57277C14.9373 8.19743 15.25 8.9681 15.25 9.88477C15.25 10.8014 14.9373 11.5721 14.312 12.1968C13.6873 12.8221 12.9167 13.1348 12 13.1348ZM12 21.8848C10.6833 21.8848 9.446 21.6348 8.288 21.1348C7.12933 20.6348 6.125 19.9598 5.275 19.1098C4.425 18.2598 3.75 17.2554 3.25 16.0968C2.75 14.9388 2.5 13.7014 2.5 12.3848C2.5 11.0681 2.75 9.83043 3.25 8.67177C3.75 7.51377 4.425 6.50977 5.275 5.65977C6.125 4.80977 7.12933 4.13477 8.288 3.63477C9.446 3.13477 10.6833 2.88477 12 2.88477C13.3167 2.88477 14.5543 3.13477 15.713 3.63477C16.871 4.13477 17.875 4.80977 18.725 5.65977C19.575 6.50977 20.25 7.51377 20.75 8.67177C21.25 9.83043 21.5 11.0681 21.5 12.3848C21.5 13.7014 21.25 14.9388 20.75 16.0968C20.25 17.2554 19.575 18.2598 18.725 19.1098C17.875 19.9598 16.871 20.6348 15.713 21.1348C14.5543 21.6348 13.3167 21.8848 12 21.8848ZM12 20.3848C12.9 20.3848 13.771 20.2388 14.613 19.9468C15.4543 19.6554 16.2 19.2514 16.85 18.7348C16.2 18.2348 15.4623 17.8431 14.637 17.5598C13.8123 17.2764 12.9333 17.1348 12 17.1348C11.0667 17.1348 10.1877 17.2724 9.363 17.5478C8.53767 17.8224 7.8 18.2181 7.15 18.7348C7.8 19.2514 8.54567 19.6554 9.387 19.9468C10.229 20.2388 11.1 20.3848 12 20.3848ZM12 11.6348C12.5 11.6348 12.9167 11.4681 13.25 11.1348C13.5833 10.8014 13.75 10.3848 13.75 9.88477C13.75 9.38477 13.5833 8.9681 13.25 8.63477C12.9167 8.30143 12.5 8.13477 12 8.13477C11.5 8.13477 11.0833 8.30143 10.75 8.63477C10.4167 8.9681 10.25 9.38477 10.25 9.88477C10.25 10.3848 10.4167 10.8014 10.75 11.1348C11.0833 11.4681 11.5 11.6348 12 11.6348Z" fill="#121516"/>
</svg>
