<svg xmlns="http://www.w3.org/2000/svg" width="36" height="36" viewBox="0 0 36 37" fill="none">
  <g clip-path="url(#clip0_2552_39876)">
    <path d="M12.4436 21.6147C12.4436 22.0626 12.4436 22.5097 12.4436 22.9577C12.4436 23.0222 12.4436 23.0868 12.4436 23.1506C12.4715 23.6889 12.4962 24.2264 12.5258 24.7648C12.5505 25.182 12.7727 25.542 12.8969 25.9302C13.2359 26.9835 13.6102 28.0286 13.9665 29.0738C14.122 29.5314 14.2684 29.9931 14.4165 30.4531C14.6008 31.0302 14.1055 31.5774 13.5 31.6073C13.0063 31.6315 12.7134 31.4071 12.5406 30.9043C12.0388 29.4478 11.5388 27.9902 11.0408 26.5315C11.035 26.5069 11.0264 26.4831 11.0152 26.4605C10.9832 26.4104 10.947 26.3628 10.9124 26.3152C10.8664 26.3561 10.8258 26.4024 10.7915 26.4532C10.7092 26.6146 10.6343 26.776 10.5636 26.9375C10.2731 27.6106 9.95965 28.2764 9.70213 28.9624C9.4191 29.7195 9.18955 30.4959 8.93285 31.2618C8.78887 31.6944 8.40711 31.9245 7.90934 31.8882C7.70729 31.8675 7.51798 31.7816 7.37125 31.6438C7.22452 31.506 7.12871 31.3242 7.09892 31.1271C7.07153 30.967 7.08081 30.803 7.12607 30.6468C7.44695 29.6695 7.76618 28.6905 8.12161 27.7244C8.46523 26.7763 8.89594 25.8608 9.4084 24.9891C9.44133 24.9344 9.45814 24.8719 9.45694 24.8083C9.4372 24.4452 9.39195 24.082 9.38619 23.7188C9.37467 22.9545 9.38619 22.1893 9.38619 21.425L9.31049 21.4032C9.10645 21.6591 8.89912 21.9133 8.69836 22.1716C8.584 22.3193 8.48362 22.4767 8.36926 22.6244C8.10351 22.9714 7.74726 23.0868 7.30873 22.9908C7.12443 23.6502 6.9426 24.2975 6.76406 24.9455C6.39985 26.2665 6.03674 27.5885 5.67473 28.9116C5.52993 29.4443 5.39582 29.981 5.26335 30.5177C5.25727 30.5512 5.25814 30.5855 5.26592 30.6187C5.27369 30.6518 5.28821 30.6831 5.30861 30.7106C5.41666 30.8384 5.48496 30.994 5.50539 31.1589C5.52581 31.3237 5.49749 31.4909 5.42379 31.6404C5.34578 31.7855 5.22523 31.9043 5.0777 31.9816C4.93016 32.0588 4.76242 32.0909 4.5961 32.0738C4.42943 32.0544 4.27297 31.9849 4.14819 31.8747C4.02342 31.7646 3.93645 31.6193 3.89922 31.4588C3.87948 31.3853 3.86138 31.3119 3.83916 31.2255L1.61772 30.6428L1.09445 30.5072C0.581045 30.3724 0.271689 29.9568 0.441177 29.3442C0.780153 28.1432 1.10514 26.9391 1.43589 25.7365C1.53297 25.3822 1.635 25.0287 1.72715 24.6736C1.85714 24.1748 2.31624 23.9157 2.85432 24.061C3.20235 24.1538 3.55037 24.2482 3.89922 24.3394C3.94268 24.3473 3.98669 24.3519 4.03086 24.3531C4.08846 24.1522 4.14194 23.9496 4.202 23.7551C4.27193 23.5299 4.31472 23.513 4.53604 23.5775C4.59116 23.5945 4.6685 23.588 4.70059 23.6227C4.759 23.6873 4.83387 23.7793 4.82729 23.8527C4.80863 24.0292 4.76601 24.2023 4.70059 24.3677C4.64299 24.5178 4.70059 24.5541 4.83305 24.5864C5.20741 24.6776 5.58011 24.7793 5.97751 24.8834C6.04333 24.6598 6.11902 24.4266 6.18155 24.1909C6.3461 23.5638 6.58717 22.9432 6.6497 22.3064C6.70811 21.7002 7.06684 21.304 7.39018 20.8738C7.73574 20.4194 8.13066 19.9981 8.51077 19.5719C8.76665 19.2878 9.03322 19.0118 9.31132 18.7495C9.54033 18.518 9.79161 18.3088 10.0617 18.1248C10.5915 17.7907 11.1428 17.873 11.6652 18.1579C12.1169 18.4041 12.358 18.8593 12.6994 19.216C13.2038 19.7447 13.7024 20.283 14.2561 20.7584C14.7497 21.1845 14.9966 21.3354 15.5478 21.6994C15.7823 21.8665 16.4775 22.5445 16.1311 23.1522C15.7313 23.8544 14.9324 23.4064 14.9061 23.3895C14.3301 23.0247 14.0323 22.8366 13.4728 22.4444C13.1174 22.1901 12.7858 21.8907 12.4436 21.6147ZM3.62607 28.0036C3.80707 28.1102 3.96258 28.1925 4.1082 28.2893C4.36902 28.4637 4.62572 28.6436 4.87995 28.8269C5.01982 28.9269 5.10621 28.8825 5.1745 28.7461C5.26747 28.5597 5.19671 28.4112 5.06918 28.2716C4.73185 27.9027 4.4011 27.5266 4.05472 27.1659C3.99444 27.1131 3.95204 27.0436 3.93321 26.9666C3.91439 26.8895 3.92004 26.8087 3.94941 26.7349C4.0334 26.4579 4.09746 26.1756 4.14111 25.8898C4.16415 25.7438 4.17485 25.5509 3.9815 25.4968C3.77499 25.4387 3.68284 25.6203 3.62525 25.7607C3.52216 26.0179 3.43776 26.282 3.37266 26.5509C3.36201 26.6241 3.32775 26.692 3.27489 26.7447C3.22204 26.7974 3.15337 26.8322 3.07893 26.8438C2.79673 26.9027 2.51617 26.9738 2.23561 27.04C1.99948 27.0964 1.76252 27.1497 1.52886 27.2135C1.37336 27.2554 1.29438 27.4136 1.31988 27.6025C1.34292 27.7728 1.48443 27.7413 1.59304 27.747C1.73044 27.7534 1.86866 27.747 2.00441 27.747C2.25124 27.751 2.50383 27.747 2.75312 27.7631C2.91767 27.7712 3.01065 27.8325 2.94153 28.0222C2.87242 28.2118 2.88122 28.2156 2.8535 28.4177C2.81894 28.6695 2.75395 28.8842 2.42402 28.8503C2.41744 28.8503 2.40757 28.8503 2.4051 28.8503C2.34339 28.931 2.257 29.0068 2.23314 29.0972C2.22162 29.1392 2.32035 29.2417 2.38864 29.2667C2.67085 29.37 2.95963 29.458 3.24842 29.546C3.3669 29.5823 3.50677 29.6743 3.59974 29.5169C3.69271 29.3595 3.59974 29.2473 3.48702 29.1448C3.44159 29.1123 3.39969 29.0752 3.36196 29.0343C3.33129 28.9959 3.31712 28.9472 3.32247 28.8987C3.41297 28.6114 3.51417 28.3265 3.62607 28.0036Z" fill="#065BAA"/>
    <path d="M27.6047 26.7454H30.2548V25.4685H28.9499V24.8083H29.5999V23.517H30.2663V25.454H30.9336V26.094H32.2623V25.4661H31.6239V24.8204H32.2607V24.1675H31.6189V22.8632H32.2648V22.2176L32.2582 22.2224H34.2764V20.8964L34.2715 20.9004H35.5624V21.5517H34.956V22.8576H33.6207V23.5033H32.9567V24.1586H34.2822V24.8043H34.9404V25.45H34.2921V26.0956H33.6232V28.0415H32.965V28.6953H33.6067V29.341H32.9592V30.6323H33.5862H33.582C33.5985 30.673 33.6099 30.7156 33.6158 30.759C33.6158 31.3245 33.6158 31.8895 33.6158 32.4539C33.6132 32.4811 33.6085 32.5081 33.6018 32.5346H31.6115V31.9333L30.9015 31.9802C30.9015 31.7534 30.9064 31.5258 30.9081 31.299L31.5729 31.3216C31.591 31.5258 31.6091 31.73 31.6272 31.9309H32.2615V31.2852L31.5704 31.3224L31.6288 30.6404H32.2632V30.0044H30.2836V30.6501H30.9459C30.9344 30.8793 30.9237 31.0899 30.9138 31.2957H30.2795V31.9164L30.904 31.9697C30.9188 32.1513 30.9336 32.332 30.9492 32.5249H30.2663V31.9406H28.9499V31.2949H28.945H29.5843V29.3377H28.2753C28.281 29.1352 28.286 28.9342 28.2909 28.7308L28.9104 28.6856C28.9285 28.4701 28.945 28.2708 28.9614 28.0706L29.5802 28.0415V27.4169H28.9129C28.9318 27.6461 28.9483 27.8599 28.9656 28.0738H28.2456L28.2934 28.734L27.608 28.6945V29.3402H26.9144V28.7074H26.2686V28.0488H27.5907C27.5907 27.9471 27.5907 27.8648 27.5907 27.7825C27.5968 27.436 27.6031 27.0894 27.6096 26.7429L27.6047 26.7454ZM30.2746 29.3377H32.264V27.4169H30.2746V29.3377ZM32.9609 24.8124V26.09H33.5985V24.8124H32.9609ZM32.9263 26.7405V26.1215H32.287V26.7405H32.9263Z" fill="#065BAA"/>
    <path d="M27.6045 25.4685H28.2454V26.0981H27.6045V26.7438L27.6094 26.7373H26.915V26.1191H26.247V27.4104H25.5764V28.0561H23.5845V27.3935H22.8967V26.7615H22.2451V28.0529H23.5903C23.587 28.2756 23.5831 28.4978 23.5788 28.7195L23.5837 28.7155H22.9016V29.3329H22.2377L22.2426 29.3369V28.7122H21.5696V27.4088H17.5537V26.1174H18.8783V26.7341H19.5604V25.4645L19.5547 25.4685H21.5729V26.0892H22.241V24.8108H22.914L22.9082 24.8051V25.4621H23.582V26.09H24.9248V25.4637V25.4685H26.9438L26.9348 25.4613V26.0884H27.5823C27.5922 25.8705 27.602 25.6663 27.6111 25.4621L27.6045 25.4685ZM24.9256 26.7438H24.2534V27.3894H24.9182V26.7438H25.5641V26.1231H24.9231L24.9256 26.7438ZM20.8793 26.7438V26.1126H20.2392V26.7438H20.8793Z" fill="#065BAA"/>
    <path d="M18.2179 22.2127H16.8801V21.567H16.2129V20.9141H16.8653V20.2628H17.5334V19.6171H16.217V18.9714H19.5409L19.5755 19.6373H18.2278V20.8931H19.5697V19.6341L20.2279 19.6244V19.6228V20.2684H21.569V20.9141H22.233V21.5654H23.556V22.2168H22.8978V22.8511H22.2322V22.2208H20.2279C20.2279 22.0013 20.2301 21.7817 20.2345 21.5622H20.8861V20.9238H20.2419C20.2419 21.1465 20.2419 21.3572 20.2419 21.5695H19.5656V22.2248L18.8885 22.2176L18.8943 22.224V21.5783H18.2179V22.224V22.2127Z" fill="#065BAA"/>
    <path d="M27.6246 18.9471H26.922V17.6743L26.2638 17.6428L26.2679 17.6468C26.2729 17.4459 26.277 17.2433 26.2819 17.0439L26.913 16.9955V16.3805H26.2342C26.2498 16.613 26.2638 16.8301 26.2778 17.0472C26.0696 17.0367 25.8623 17.0173 25.6541 17.0173C25.4139 17.0173 25.1745 17.0359 24.9342 17.0456L24.8906 16.3676H24.248V15.0763H24.8956V15.6969H25.576V15.065H26.2441V14.4282L26.9311 14.3959V15.7034H28.918V15.0819H29.5968V15.7155H30.255V16.3611H29.6017V17.0068H28.2491C28.2639 17.2304 28.2771 17.4305 28.2903 17.6307L27.6164 17.6767V18.9511L27.6246 18.9471Z" fill="#065BAA"/>
    <path d="M20.8782 32.5411H16.2197V28.0634H20.8782V32.5411ZM16.8804 31.9301H20.2126V28.7179H16.8804V31.9301Z" fill="#065BAA"/>
    <path d="M20.8779 18.3015H16.2129V13.827H20.8779V18.3015ZM20.2123 14.4315H16.8867V17.6486H20.2123V14.4315Z" fill="#065BAA"/>
    <path d="M24.9179 20.8956V21.5501H28.2402V22.2103H27.5993V22.856H28.2452V23.5017H26.9205V24.1473H26.2533V24.793H24.9179V25.4605V25.4556H24.2342V24.797H22.9014L22.9071 24.8027V24.1393H23.5744V22.8762H24.9179V23.5073H24.2499V24.1425H25.5868V23.4968H26.2549V22.8512H26.9033V22.2208H25.5761V22.8447L24.913 22.881V22.2055H24.249V20.9012H24.9212L24.9179 20.8956Z" fill="#065BAA"/>
    <path d="M35.5596 18.3032H30.9521V13.8262H35.5596V18.3032ZM31.6153 17.6478H34.9401V14.4291H31.6153V17.6478Z" fill="#065BAA"/>
    <path d="M11.1113 14.3654C12.0377 14.3274 12.9263 15.1321 12.8473 16.1894C12.7889 16.9626 12.0361 17.7971 11.0471 17.7535C10.1865 17.7156 9.33413 17.0328 9.38926 15.9602C9.43368 15.0966 10.1223 14.3444 11.1113 14.3654Z" fill="#065BAA"/>
    <path d="M19.56 25.4645H18.2206V24.8188H16.8836V27.3862H16.2139V23.5122H16.868V24.1425H17.5327V23.5113H18.8886V22.8721L18.8837 22.8762L19.5592 22.8721V24.1578H18.901V24.8156H19.5551V25.4685L19.56 25.4645Z" fill="#065BAA"/>
    <path d="M24.9185 29.9897V30.6426H22.9102V31.9428H22.2363V32.5361H21.5781V29.3359H22.2446L22.2396 29.3319V29.9824H23.5857V28.7145L23.5807 28.7185H24.9185V29.3376L24.9243 29.3311L24.2521 29.361V29.9953H24.9243L24.9185 29.9897Z" fill="#065BAA"/>
    <path d="M28.9497 31.3077H26.9208V32.5361H24.9182V31.9711L24.9141 31.976C25.0786 31.9655 25.2497 31.9485 25.4176 31.9453C25.6858 31.9404 25.954 31.9453 26.2403 31.9453V31.2996H25.592V29.9897H24.9182L24.9231 29.9954V29.3311L24.9174 29.3376H26.2543V30.637H26.9216V29.9913H27.6086V30.637H28.2726V29.9913H28.9423V31.3117L28.9497 31.3077Z" fill="#065BAA"/>
    <path d="M30.9068 19.6139L31.5897 19.6244V19.6204C31.5963 19.9214 31.6078 20.2216 31.6078 20.5227C31.6078 20.8681 31.5955 21.2136 31.5889 21.559V21.5542H30.9406V20.9206H30.2766V22.8423H28.9404V22.2111H29.5986V20.9085H30.2568V20.2685H28.9404V19.6139H29.5937V18.9771H30.943C30.9323 19.1934 30.9224 19.4073 30.9134 19.6228H30.2823V20.2459H30.9504C30.9348 20.0199 30.9241 19.8173 30.9068 19.6139Z" fill="#065BAA"/>
    <path d="M24.2502 18.3032V19.6228L24.2543 19.6179L23.5796 19.6228V18.9771H22.9156V19.6228H20.2285L20.2351 19.63V18.9731H22.2443V18.3048L22.2369 18.3121H22.914V17.6478L22.9091 17.6535H23.5837L23.5788 17.6494V18.3121H24.2543L24.2502 18.3032Z" fill="#065BAA"/>
    <path d="M33.5827 30.6362C33.5992 30.4344 33.6148 30.2326 33.6329 30.0042H34.9419V29.3497H34.2977V28.7209H35.5614V30.6402H34.9625V31.9356H34.2894V30.6338H33.5811L33.5827 30.6362Z" fill="#065BAA"/>
    <path d="M32.2549 19.6268H32.932V19.6228C32.9419 19.831 32.952 20.0395 32.9625 20.2483H33.6083V19.6228L33.5993 19.63H34.2846V18.9771H34.9428V20.258H34.2986C34.2879 20.4872 34.2789 20.6946 34.2698 20.9036L34.2747 20.8996H33.6108V21.5509H32.9411V20.2596H32.2631V19.6228L32.2549 19.6268Z" fill="#065BAA"/>
    <path d="M22.2441 18.3016H21.5793V17.0167H22.2235V16.371H21.5752V15.7253H23.5556V16.3549H22.9089V17.6462L22.9138 17.6406H22.2367V18.3048L22.2441 18.3016Z" fill="#065BAA"/>
    <path d="M24.9186 19.6228V18.9771H26.2416V20.2564H26.8998V20.8956H26.2506V20.2749H25.5809V20.8964H24.9186L24.9227 20.902V20.2564H24.2522V19.6228L24.248 19.6276L24.9235 19.6228V20.2475H25.5628V19.6228H24.9186Z" fill="#065BAA"/>
    <path d="M26.9365 14.3977V13.8327H29.5817V14.4162H28.2653V15.0554H27.5972V14.4356L26.939 14.3969L26.9365 14.3977Z" fill="#065BAA"/>
    <path d="M23.5845 17.6494V17.0482H24.9404C24.9322 17.3161 24.9215 17.5841 24.9157 17.8552C24.9116 18.0013 24.9157 18.1482 24.9157 18.3088H24.2534L24.2575 18.3137V17.6454H23.582L23.5845 17.6494Z" fill="#065BAA"/>
    <path d="M24.9176 31.9753C24.6568 31.9664 24.396 31.9551 24.1352 31.9494C23.9583 31.9454 23.7814 31.9494 23.5889 31.9494V31.3151H24.9143C24.9143 31.5354 24.9143 31.7582 24.9143 31.9809L24.9176 31.9753Z" fill="#065BAA"/>
    <path d="M23.5561 15.0538H22.916V13.8295H23.5561V15.0538Z" fill="#065BAA"/>
    <path d="M18.8894 22.8721H18.2188V22.2127L18.2139 22.2176H18.8902L18.8844 22.2111V22.8754L18.8894 22.8721Z" fill="#065BAA"/>
    <path d="M26.9399 25.4701V24.8245H27.6244C27.6186 25.04 27.6137 25.2554 27.6079 25.4701V25.4653H26.9316L26.9399 25.4701Z" fill="#065BAA"/>
    <path d="M26.262 17.6429V18.2943H25.5947V17.6486H26.2661L26.262 17.6429Z" fill="#065BAA"/>
    <path d="M30.259 17.672V18.2975H29.6074V17.672H30.259Z" fill="#065BAA"/>
    <path d="M32.931 19.6228V18.9771H33.595V19.6228L33.604 19.6155H32.9277L32.931 19.6228Z" fill="#065BAA"/>
    <path d="M31.5902 19.6228V18.9706H32.2542V19.6252L32.2624 19.6179H31.5869L31.5902 19.6228Z" fill="#065BAA"/>
    <path d="M27.6201 18.9521H28.2437V19.5978H27.5781C27.5938 19.3774 27.6094 19.1635 27.625 18.9521H27.6201Z" fill="#065BAA"/>
    <path d="M34.9223 27.3829C34.9363 27.5968 34.9511 27.8115 34.9668 28.0399H34.2979V27.4136L34.9215 27.3854L34.9223 27.3829Z" fill="#065BAA"/>
    <path d="M28.292 17.6341L28.9189 17.6777V18.3016H28.25C28.2648 18.0724 28.2796 17.852 28.2944 17.6317L28.292 17.6341Z" fill="#065BAA"/>
    <path d="M21.5713 15.0514V14.4324H22.2213V15.0514H21.5713Z" fill="#065BAA"/>
    <path d="M28.2515 20.2741V20.894H27.6064V20.2741H28.2515Z" fill="#065BAA"/>
    <path d="M32.2619 22.2135H31.6185C31.6086 21.9835 31.5987 21.7688 31.5889 21.5541V21.559H32.2586V22.2184L32.2619 22.2135Z" fill="#065BAA"/>
    <path d="M27.6247 24.8245C27.6091 24.6106 27.5926 24.3975 27.5762 24.1683H28.2426V24.8205H27.6206L27.6247 24.8245Z" fill="#065BAA"/>
    <path d="M34.9253 27.3854C34.9401 27.1836 34.9549 26.9819 34.9714 26.7656H35.5621V27.383H34.9229L34.9253 27.3854Z" fill="#065BAA"/>
    <path d="M28.2444 32.5362H27.6035V31.964H28.2444V32.5362Z" fill="#065BAA"/>
    <path d="M24.2549 13.8254H24.8991V14.3977H24.2549V13.8254Z" fill="#065BAA"/>
    <path d="M28.278 29.9955H27.6025V29.3329H28.2788C28.2788 29.55 28.2788 29.7736 28.278 29.9955Z" fill="#065BAA"/>
    <path d="M31.5893 28.6928H30.9492V28.0657H31.5893V28.6928Z" fill="#065BAA"/>
    <path d="M22.9072 19.6227H23.5835V20.8931H22.9072V19.6227Z" fill="#065BAA"/>
    <path d="M19.5547 22.8762V22.2119H20.2285C20.2225 22.4379 20.2165 22.6639 20.2104 22.8899L20.2162 22.885L19.5547 22.8762Z" fill="#065BAA"/>
    <path d="M20.8802 24.7995H20.2393V24.1651H20.8802V24.7995Z" fill="#065BAA"/>
    <path d="M21.5713 24.1425V23.521H22.2213V24.1425H21.5713Z" fill="#065BAA"/>
    <path d="M20.2119 22.8907L20.8808 22.8471V23.4928H20.2185V22.8842L20.2119 22.8907Z" fill="#065BAA"/>
    <path d="M17.5537 31.2853V29.3611H19.5382V31.2853H17.5537Z" fill="#065BAA"/>
    <path d="M17.5488 16.9973V15.078H19.5424V16.9973H17.5488Z" fill="#065BAA"/>
    <path d="M32.2832 17.0029V15.0804H34.2735V17.0029H32.2832Z" fill="#065BAA"/>
    <path d="M0.780504 34.1504V34.8671C0.85938 34.7706 0.968572 34.7025 1.09106 34.6733C1.21354 34.6441 1.34243 34.6555 1.45763 34.7057C1.52106 34.7318 1.57617 34.7742 1.61725 34.8283C1.65244 34.8768 1.67734 34.9317 1.69047 34.9898C1.70623 35.0823 1.71284 35.1761 1.71022 35.2698V36.0971H1.32928V35.3522C1.33338 35.2577 1.32536 35.163 1.30542 35.0705C1.29117 35.0314 1.26431 34.998 1.22891 34.9752C1.18756 34.9507 1.13978 34.9387 1.09151 34.9405C1.03175 34.9393 0.972895 34.955 0.922018 34.9857C0.871005 35.0166 0.83215 35.0636 0.811769 35.1189C0.785035 35.2062 0.773356 35.2974 0.777213 35.3885V36.0947H0.400391V34.1504H0.780504Z" fill="#065BAA"/>
    <path d="M2.75465 34.6863V34.9842H2.49466V35.5532C2.4923 35.6202 2.49478 35.6874 2.50206 35.7541C2.5073 35.7734 2.51961 35.7901 2.53662 35.8009C2.55528 35.814 2.57788 35.8206 2.6008 35.8195C2.65343 35.8158 2.70511 35.8039 2.75383 35.784L2.78592 36.0737C2.69073 36.1122 2.58854 36.1312 2.48561 36.1294C2.42194 36.1304 2.35872 36.1189 2.29967 36.0955C2.25145 36.078 2.20943 36.0472 2.17872 36.0067C2.14992 35.9629 2.13163 35.9132 2.12524 35.8615C2.11454 35.7742 2.11041 35.6862 2.1129 35.5984V34.9834H1.93848V34.6855H2.1129V34.4055L2.49466 34.1876V34.6855L2.75465 34.6863Z" fill="#065BAA"/>
    <path d="M3.6793 34.6863V34.9842H3.41931V35.5532C3.41696 35.6202 3.41943 35.6874 3.42672 35.7541C3.43174 35.7733 3.44374 35.7899 3.46045 35.8009C3.4791 35.814 3.50171 35.8206 3.52462 35.8195C3.57728 35.816 3.62899 35.804 3.67766 35.784L3.71057 36.0737C3.61507 36.1121 3.51262 36.1311 3.40944 36.1294C3.34604 36.1303 3.2831 36.1188 3.22432 36.0955C3.1761 36.078 3.13408 36.0472 3.10337 36.0067C3.07428 35.963 3.05571 35.9133 3.04907 35.8615C3.03922 35.7741 3.03537 35.6862 3.03755 35.5984V34.9834H2.8623V34.6855H3.03755V34.4055L3.41931 34.1876V34.6855L3.6793 34.6863Z" fill="#065BAA"/>
    <path d="M3.93262 34.6863H4.28723V34.8937C4.33421 34.8221 4.39833 34.7628 4.47399 34.721C4.55363 34.6765 4.64396 34.6536 4.73563 34.6548C4.81667 34.6541 4.89687 34.671 4.97043 34.7043C5.04399 34.7377 5.10908 34.7867 5.16099 34.8477C5.28581 34.9989 5.3486 35.1903 5.33706 35.3844C5.34957 35.5824 5.28684 35.778 5.16099 35.9333C5.10911 35.995 5.04387 36.0446 4.97002 36.0785C4.89616 36.1124 4.81553 36.1298 4.73398 36.1294C4.65938 36.1306 4.58555 36.1145 4.51842 36.0826C4.44093 36.0414 4.37177 35.9867 4.31438 35.9212V36.6314H3.93262V34.6863ZM4.30862 35.3683C4.29864 35.4927 4.33263 35.6167 4.40488 35.7194C4.43239 35.7548 4.46786 35.7835 4.50854 35.8032C4.54921 35.823 4.59398 35.8332 4.63937 35.8332C4.68182 35.8337 4.72382 35.8246 4.76208 35.8065C4.80034 35.7885 4.83381 35.762 4.85986 35.7291C4.92782 35.628 4.95885 35.5074 4.9479 35.3869C4.95707 35.2702 4.92512 35.1539 4.8574 35.0576C4.83095 35.0238 4.79693 34.9965 4.75798 34.9777C4.71902 34.959 4.67618 34.9493 4.63278 34.9494C4.58848 34.9487 4.5446 34.9579 4.50442 34.9762C4.46424 34.9945 4.42881 35.0215 4.40077 35.0551C4.33326 35.1456 4.30061 35.2565 4.30862 35.3683Z" fill="#065BAA"/>
    <path d="M5.70996 35.06V34.6863H6.09007V35.06H5.70996ZM5.70996 36.0971V35.7243H6.09007V36.0971H5.70996Z" fill="#065BAA"/>
    <path d="M6.35742 36.131L6.85108 34.1133H7.13657L6.64292 36.131H6.35742Z" fill="#065BAA"/>
    <path d="M7.12793 36.131L7.62158 34.1133H7.90708L7.41343 36.131H7.12793Z" fill="#065BAA"/>
    <path d="M8.36987 36.0971L7.91406 34.6863H8.2843L8.55334 35.6113L8.80017 34.6863H9.16712L9.40654 35.6113L9.68134 34.6863H10.0565L9.59495 36.0971H9.22883L8.982 35.19L8.73517 36.0971H8.36987Z" fill="#065BAA"/>
    <path d="M10.5271 36.0971L10.0713 34.6863H10.4415L10.7106 35.6113L10.9574 34.6863H11.3243L11.5638 35.6113L11.8386 34.6863H12.2137L11.7538 36.0971H11.3877L11.1409 35.19L10.894 36.0971H10.5271Z" fill="#065BAA"/>
    <path d="M12.6843 36.0971L12.2285 34.6863H12.5988L12.8678 35.6113L13.1146 34.6863H13.4816L13.721 35.6113L13.9958 34.6863H14.371L13.9094 36.0971H13.5433L13.2965 35.19L13.0496 36.0971H12.6843Z" fill="#065BAA"/>
    <path d="M14.4697 36.0971V35.7242H14.8498V36.0971H14.4697Z" fill="#065BAA"/>
    <path d="M16.4945 35.1036L16.1193 35.1698C16.1129 35.1067 16.0837 35.048 16.037 35.0043C15.9876 34.9657 15.9257 34.9459 15.8626 34.9486C15.8199 34.9467 15.7774 34.9544 15.7382 34.9711C15.699 34.9877 15.6641 35.0129 15.6363 35.0447C15.5715 35.1397 15.5425 35.2538 15.5541 35.3675C15.5541 35.5354 15.5829 35.6532 15.6363 35.7226C15.664 35.7563 15.6994 35.7831 15.7395 35.8011C15.7796 35.819 15.8235 35.8275 15.8675 35.8259C15.9322 35.8287 15.9955 35.807 16.0444 35.7654C16.0991 35.7082 16.1334 35.6351 16.1423 35.5572L16.5159 35.6201C16.4892 35.7688 16.4103 35.9036 16.2929 36.0011C16.1646 36.0928 16.008 36.1384 15.8494 36.1302C15.7563 36.1344 15.6633 36.1192 15.5767 36.0855C15.49 36.0519 15.4116 36.0005 15.3467 35.9349C15.2245 35.7795 15.1582 35.5888 15.1582 35.3925C15.1582 35.1963 15.2245 35.0055 15.3467 34.8502C15.4128 34.7843 15.4924 34.7329 15.5801 34.6994C15.6679 34.6659 15.7619 34.651 15.856 34.6557C16.0035 34.6481 16.1496 34.6868 16.2731 34.7662C16.3832 34.8513 16.4611 34.9701 16.4945 35.1036Z" fill="#065BAA"/>
    <path d="M17.0668 35.1189L16.7221 35.0576C16.7503 34.9368 16.8211 34.8296 16.922 34.7549C17.0495 34.6808 17.197 34.6465 17.3449 34.6565C17.4741 34.6494 17.6035 34.6695 17.7242 34.7154C17.7972 34.7461 17.8585 34.7987 17.8994 34.8655C17.9414 34.9718 17.9589 35.0859 17.9504 35.1996V35.6355C17.9479 35.7273 17.954 35.8192 17.9685 35.9099C17.983 35.9754 18.0059 36.0389 18.0368 36.0987H17.6608C17.6466 36.0628 17.6343 36.0262 17.6238 35.989C17.6172 35.9664 17.6131 35.9519 17.6106 35.9446C17.5505 36.0036 17.4796 36.0509 17.4017 36.0842C17.3268 36.1157 17.2461 36.1317 17.1647 36.131C17.0368 36.1381 16.9111 36.0955 16.815 36.0124C16.7731 35.9745 16.74 35.9282 16.7179 35.8767C16.6957 35.8252 16.6851 35.7696 16.6867 35.7138C16.6856 35.6388 16.7058 35.565 16.7451 35.5007C16.7843 35.438 16.8416 35.388 16.9096 35.357C17.0066 35.316 17.1082 35.2867 17.2124 35.2699C17.3382 35.2508 17.4619 35.2203 17.5818 35.1787V35.1415C17.5847 35.1137 17.5814 35.0856 17.5722 35.0591C17.5629 35.0327 17.548 35.0085 17.5284 34.9882C17.467 34.9513 17.3951 34.9351 17.3235 34.9422C17.2678 34.9391 17.2124 34.9526 17.1647 34.9809C17.1184 35.016 17.0842 35.0642 17.0668 35.1189ZM17.5761 35.4216C17.5275 35.4377 17.4502 35.4563 17.3449 35.4789C17.2728 35.4898 17.2029 35.5116 17.1375 35.5435C17.1153 35.5579 17.0969 35.5774 17.084 35.6003C17.0711 35.6232 17.064 35.6489 17.0635 35.675C17.0633 35.7004 17.0684 35.7256 17.0786 35.7489C17.0888 35.7723 17.1038 35.7933 17.1227 35.8106C17.1428 35.8296 17.1665 35.8445 17.1925 35.8543C17.2185 35.8642 17.2463 35.8688 17.2741 35.8679C17.3452 35.8673 17.4142 35.8441 17.4708 35.8017C17.5142 35.7717 17.5461 35.7282 17.5613 35.6783C17.5738 35.6183 17.5788 35.557 17.5761 35.4959V35.4216Z" fill="#065BAA"/>
    <path d="M18.2387 35.3723C18.2388 35.2466 18.2707 35.1229 18.3317 35.0124C18.3908 34.8995 18.4831 34.8067 18.5966 34.746C18.7143 34.6846 18.8459 34.6532 18.9792 34.6548C19.0781 34.6515 19.1766 34.6682 19.2686 34.7039C19.3607 34.7396 19.4442 34.7935 19.514 34.8623C19.5831 34.9315 19.6373 35.0137 19.6732 35.104C19.7091 35.1943 19.7261 35.2908 19.723 35.3877C19.7262 35.4856 19.7092 35.5831 19.673 35.6743C19.6368 35.7656 19.5822 35.8487 19.5124 35.9187C19.4435 35.9879 19.3609 36.0423 19.2695 36.0786C19.1782 36.1148 19.0802 36.1321 18.9817 36.1294C18.8508 36.1297 18.7216 36.0996 18.6049 36.0414C18.4884 35.9864 18.3927 35.8966 18.3317 35.7848C18.266 35.6571 18.234 35.5153 18.2387 35.3723ZM18.6287 35.3917C18.6204 35.5079 18.6565 35.623 18.7299 35.7145C18.7608 35.75 18.7992 35.7784 18.8424 35.798C18.8855 35.8175 18.9325 35.8276 18.98 35.8276C19.0276 35.8276 19.0746 35.8175 19.1177 35.798C19.1609 35.7784 19.1993 35.75 19.2302 35.7145C19.3033 35.6228 19.3393 35.5079 19.3314 35.3917C19.3402 35.2754 19.304 35.1602 19.2302 35.0689C19.1993 35.0334 19.1609 35.005 19.1177 34.9855C19.0746 34.966 19.0276 34.9559 18.98 34.9559C18.9325 34.9559 18.8855 34.966 18.8424 34.9855C18.7992 35.005 18.7608 35.0334 18.7299 35.0689C18.6564 35.1604 18.6203 35.2755 18.6287 35.3917Z" fill="#065BAA"/>
    <path d="M20.0195 36.0971V35.7242H20.3996V36.0971H20.0195Z" fill="#065BAA"/>
    <path d="M20.79 34.495V34.1504H21.171V34.4958L20.79 34.495ZM20.79 36.0971V34.6863H21.171V36.0971H20.79Z" fill="#065BAA"/>
    <path d="M21.9259 36.0971H21.5449V34.6864H21.8987V34.8873C21.9393 34.8141 21.9954 34.7503 22.0633 34.7001C22.1125 34.6698 22.1697 34.6541 22.2278 34.6549C22.315 34.6559 22.4004 34.6802 22.4746 34.7251L22.357 35.0479C22.3046 35.0114 22.2426 34.9904 22.1784 34.9874C22.1295 34.9857 22.0815 35.0008 22.0427 35.0302C21.9979 35.0724 21.9675 35.127 21.9555 35.1867C21.9278 35.3428 21.9174 35.5014 21.9242 35.6597L21.9259 36.0971Z" fill="#065BAA"/>
    <path d="M22.4375 36.131L22.9312 34.1133H23.2167L22.723 36.131H22.4375Z" fill="#065BAA"/>
    <path d="M23.4004 34.6864H23.755V34.8938C23.802 34.8221 23.8661 34.7629 23.9418 34.7211C24.0215 34.6766 24.1117 34.6538 24.2034 34.6549C24.2844 34.6541 24.3646 34.671 24.4382 34.7044C24.5118 34.7378 24.5769 34.7867 24.6288 34.8478C24.753 34.9991 24.8152 35.1905 24.8032 35.3845C24.8157 35.5825 24.753 35.778 24.6271 35.9333C24.5754 35.9951 24.5104 36.0447 24.4366 36.0786C24.3629 36.1126 24.2824 36.1299 24.2009 36.1294C24.1261 36.1306 24.052 36.1146 23.9845 36.0826C23.9073 36.0414 23.8385 35.9867 23.7813 35.9212V36.6315H23.4004V34.6864ZM23.7772 35.3684C23.7672 35.4928 23.8012 35.6167 23.8735 35.7194C23.9007 35.7549 23.936 35.7837 23.9766 35.8034C24.0172 35.8232 24.0619 35.8334 24.1071 35.8332C24.1497 35.8338 24.1918 35.8247 24.2302 35.8066C24.2686 35.7885 24.3022 35.762 24.3285 35.7291C24.3958 35.6278 24.4265 35.5073 24.4157 35.3869C24.4253 35.2702 24.3933 35.1538 24.3252 35.0576C24.2989 35.0237 24.2649 34.9963 24.2259 34.9775C24.1869 34.9588 24.144 34.9492 24.1006 34.9495C24.0563 34.9488 24.0124 34.9579 23.9722 34.9763C23.932 34.9946 23.8966 35.0216 23.8685 35.0552C23.8013 35.1457 23.769 35.2567 23.7772 35.3684Z" fill="#065BAA"/>
    <path d="M25.3899 35.1189L25.0443 35.0576C25.0728 34.9367 25.1439 34.8295 25.2451 34.7549C25.3723 34.6807 25.5195 34.6463 25.6671 34.6565C25.7964 34.6493 25.9258 34.6693 26.0464 34.7154C26.1195 34.7461 26.1808 34.7986 26.2217 34.8655C26.2637 34.9718 26.2811 35.0859 26.2727 35.1996V35.6355C26.2706 35.7273 26.2766 35.8191 26.2908 35.9099C26.3056 35.9753 26.3285 36.0388 26.3591 36.0987H25.9831C25.9732 36.0745 25.9609 36.0374 25.9461 35.989C25.9403 35.9664 25.9354 35.9518 25.9329 35.9446C25.8728 36.0035 25.8019 36.0509 25.7239 36.0842C25.6491 36.1159 25.5684 36.1318 25.487 36.131C25.3591 36.1374 25.2338 36.0949 25.1373 36.0124C25.0954 35.9745 25.0623 35.9282 25.0401 35.8767C25.018 35.8252 25.0074 35.7696 25.0089 35.7137C25.0079 35.6388 25.0281 35.565 25.0674 35.5007C25.1065 35.4378 25.1638 35.3878 25.2319 35.357C25.3285 35.3159 25.43 35.2867 25.5339 35.2698C25.6599 35.2508 25.7838 35.2202 25.9041 35.1786V35.1415C25.907 35.1136 25.9037 35.0854 25.8943 35.0589C25.8849 35.0325 25.8697 35.0083 25.8498 34.9882C25.7885 34.9513 25.7165 34.9351 25.6449 34.9422C25.5895 34.939 25.5344 34.9525 25.487 34.9809C25.4408 35.0159 25.4068 35.0641 25.3899 35.1189ZM25.8992 35.4216C25.8506 35.4377 25.7733 35.4563 25.6671 35.4789C25.5953 35.4896 25.5256 35.5114 25.4606 35.5435C25.4378 35.5574 25.419 35.5767 25.4059 35.5998C25.3928 35.6228 25.3859 35.6487 25.3858 35.675C25.3855 35.7004 25.3907 35.7256 25.4009 35.7489C25.4111 35.7723 25.4261 35.7933 25.445 35.8106C25.4652 35.8296 25.4891 35.8444 25.5152 35.8543C25.5414 35.8641 25.5692 35.8688 25.5972 35.8679C25.668 35.8671 25.7367 35.8439 25.793 35.8017C25.8362 35.7713 25.8683 35.728 25.8844 35.6782C25.8969 35.6183 25.9019 35.557 25.8992 35.4958V35.4216Z" fill="#065BAA"/>
    <path d="M26.4648 36.0971L26.9832 35.3708L26.4895 34.6863H26.9544L27.2086 35.0746L27.4768 34.6863H27.9236L27.4365 35.3546L27.9688 36.0971H27.5015L27.2086 35.6605L26.9132 36.0971H26.4648Z" fill="#065BAA"/>
    <path d="M28.5548 36.0971H28.1738V34.6863H28.5276V34.8873C28.5682 34.8141 28.6243 34.7502 28.6922 34.7C28.7414 34.6697 28.7986 34.654 28.8567 34.6548C28.944 34.6559 29.0293 34.6801 29.1035 34.725L28.9859 35.0479C28.9335 35.0113 28.8715 34.9903 28.8073 34.9873C28.7584 34.9856 28.7104 35.0007 28.6716 35.0301C28.6269 35.0723 28.5964 35.127 28.5844 35.1867C28.5567 35.3428 28.5463 35.5013 28.5531 35.6596L28.5548 36.0971Z" fill="#065BAA"/>
    <path d="M29.2695 34.495V34.1504H29.6496V34.4958L29.2695 34.495ZM29.2695 36.0971V34.6863H29.6496V36.0971H29.2695Z" fill="#065BAA"/>
    <path d="M30.0048 36.1908L30.4401 36.2424C30.4409 36.262 30.4458 36.2811 30.4544 36.2987C30.463 36.3164 30.4752 36.3321 30.4903 36.3449C30.5415 36.375 30.601 36.3888 30.6606 36.3845C30.7378 36.3891 30.8149 36.3741 30.8844 36.3409C30.9194 36.3183 30.946 36.2852 30.9601 36.2464C30.9745 36.1903 30.9804 36.1324 30.9773 36.0745V35.8687C30.9306 35.9389 30.8668 35.9965 30.7917 36.0364C30.7165 36.0762 30.6325 36.0971 30.547 36.0971C30.4557 36.0991 30.3654 36.0778 30.285 36.0354C30.2045 35.993 30.1366 35.9308 30.0879 35.855C29.995 35.7148 29.9485 35.55 29.9546 35.3829C29.9546 35.1461 30.0128 34.9653 30.1291 34.8405C30.1829 34.7802 30.2496 34.7322 30.3243 34.6999C30.3991 34.6675 30.4802 34.6516 30.5618 34.6533C30.6489 34.653 30.7346 34.6739 30.8114 34.714C30.8882 34.7541 30.9537 34.8123 31.002 34.8833V34.6847H31.3583V35.9511C31.3633 36.077 31.3491 36.2029 31.3163 36.3247C31.294 36.398 31.2532 36.4646 31.1978 36.5184C31.1399 36.5698 31.0706 36.6074 30.9954 36.6282C30.8915 36.6576 30.7835 36.6712 30.6754 36.6686C30.4318 36.6686 30.2591 36.6277 30.157 36.5459C30.1086 36.5092 30.0696 36.4619 30.043 36.4078C30.0165 36.3538 30.0031 36.2944 30.004 36.2343C30.004 36.223 30.004 36.2085 30.0048 36.1908ZM30.3487 35.3611C30.3367 35.4774 30.3658 35.5942 30.431 35.692C30.457 35.7246 30.4902 35.7509 30.5281 35.769C30.5661 35.787 30.6077 35.7963 30.6499 35.7961C30.6948 35.7967 30.7393 35.7873 30.78 35.7687C30.8207 35.7501 30.8567 35.7228 30.8852 35.6887C30.9557 35.5984 30.9899 35.4858 30.9814 35.3724C30.99 35.2575 30.9574 35.1433 30.8893 35.0495C30.8612 35.0157 30.8256 34.9886 30.7853 34.9703C30.745 34.952 30.7009 34.9429 30.6565 34.9438C30.6132 34.9429 30.5704 34.9519 30.5313 34.97C30.4922 34.988 30.4579 35.0147 30.431 35.0479C30.3682 35.1401 30.3392 35.2506 30.3487 35.3611Z" fill="#065BAA"/>
    <path d="M32.1135 34.1504V34.8671C32.1924 34.7706 32.3016 34.7025 32.4241 34.6733C32.5466 34.6441 32.6754 34.6555 32.7906 34.7057C32.8539 34.7321 32.909 34.7744 32.9503 34.8283C32.9852 34.8768 33.0098 34.9317 33.0227 34.9898C33.0384 35.0823 33.045 35.1761 33.0424 35.2698V36.0971H32.6623V35.3522C32.6675 35.2577 32.6601 35.163 32.6401 35.0705C32.6264 35.0311 32.5994 34.9974 32.5636 34.9752C32.5222 34.9507 32.4744 34.9387 32.4262 34.9405C32.3667 34.9394 32.3081 34.9551 32.2575 34.9857C32.2061 35.0171 32.1675 35.0651 32.1481 35.1213C32.1213 35.2087 32.1097 35.2998 32.1135 35.3909V36.0971H31.7334V34.1504H32.1135Z" fill="#065BAA"/>
    <path d="M34.0885 34.6863V34.9841H33.8285V35.5531C33.8261 35.6202 33.8286 35.6874 33.8359 35.7541C33.8409 35.7732 33.8529 35.7899 33.8696 35.8009C33.8883 35.8139 33.9109 35.8204 33.9338 35.8195C33.9865 35.816 34.0382 35.804 34.0868 35.784L34.1197 36.0737C34.0243 36.1121 33.9218 36.131 33.8186 36.1294C33.7552 36.1303 33.6923 36.1188 33.6335 36.0955C33.5854 36.0782 33.5434 36.0477 33.5126 36.0075C33.4834 35.9639 33.4651 35.9141 33.4591 35.8623C33.4484 35.775 33.4442 35.687 33.4467 35.5992V34.9841H33.2715V34.6863H33.4467V34.4063L33.8285 34.1884V34.6863H34.0885Z" fill="#065BAA"/>
    <path d="M34.2148 35.695L34.5966 35.6377C34.6084 35.7026 34.6434 35.7613 34.6953 35.8032C34.7568 35.8439 34.8302 35.8638 34.9043 35.8597C34.9822 35.8648 35.0598 35.8462 35.1265 35.8064C35.1424 35.7949 35.1554 35.7798 35.1641 35.7624C35.1728 35.745 35.1771 35.7257 35.1766 35.7063C35.1771 35.6934 35.1749 35.6806 35.1702 35.6685C35.1656 35.6565 35.1585 35.6455 35.1495 35.6361C35.1113 35.6105 35.0677 35.5937 35.022 35.5869C34.7154 35.5207 34.5206 35.4601 34.4378 35.4053C34.3839 35.3712 34.3398 35.324 34.31 35.2683C34.2801 35.2125 34.2655 35.1502 34.2675 35.0873C34.2669 35.0284 34.2799 34.9701 34.3056 34.9168C34.3312 34.8636 34.3688 34.8167 34.4156 34.7798C34.5135 34.6991 34.6624 34.6547 34.873 34.6547C35.0254 34.6442 35.1777 34.677 35.3116 34.7491C35.4095 34.8155 35.4796 34.9144 35.509 35.0275L35.1503 35.0929C35.1379 35.0419 35.1069 34.9971 35.0631 34.967C35.0081 34.9341 34.944 34.9186 34.8796 34.9226C34.8053 34.9169 34.7308 34.9312 34.6641 34.9638C34.651 34.9718 34.6402 34.983 34.6327 34.9963C34.6252 35.0096 34.6213 35.0245 34.6213 35.0396C34.6213 35.0532 34.6248 35.0664 34.6314 35.0783C34.638 35.0901 34.6475 35.1002 34.6591 35.1074C34.7724 35.1576 34.8919 35.1929 35.0146 35.2124C35.1667 35.237 35.3115 35.2937 35.4391 35.3786C35.479 35.4131 35.5105 35.456 35.5312 35.5041C35.5518 35.5521 35.5611 35.6042 35.5584 35.6563C35.5583 35.7204 35.5435 35.7837 35.515 35.8414C35.4865 35.8991 35.4451 35.9498 35.3939 35.9896C35.2842 36.0821 35.1212 36.1287 34.9051 36.1292C34.7414 36.1379 34.5788 36.097 34.4395 36.0122C34.3271 35.9374 34.2471 35.8244 34.2148 35.695Z" fill="#065BAA"/>
    <path d="M23.5197 7.88199C23.4705 7.84676 23.4119 7.82605 23.3511 7.82227C23.3052 7.82238 23.261 7.83904 23.2268 7.86908C23.2096 7.88215 23.1956 7.8989 23.1859 7.91805C23.1762 7.9372 23.1711 7.95827 23.1709 7.97965C23.1709 8.07892 23.2532 8.12815 23.4136 8.12815C23.5108 8.12672 23.6079 8.1189 23.704 8.10475C23.6687 8.01292 23.6041 7.93477 23.5197 7.88199Z" fill="#065BAA"/>
    <path d="M18.0895 7.60516C17.9908 7.60516 17.9414 7.66973 17.9414 7.79887C17.9437 7.9053 17.9704 8.00986 18.0196 8.10475C18.0837 8.23389 18.1586 8.29846 18.245 8.29846C18.3495 8.29846 18.4013 8.22501 18.4013 8.07731C18.3961 7.975 18.3647 7.87563 18.31 7.78837C18.2417 7.6665 18.1718 7.60516 18.0895 7.60516Z" fill="#065BAA"/>
    <path d="M12.2014 7.21612C12.1516 7.18169 12.0928 7.16182 12.0319 7.15881C11.9863 7.15884 11.9422 7.17488 11.9077 7.20401C11.8903 7.21733 11.8764 7.23437 11.8668 7.25382C11.8573 7.27327 11.8524 7.29461 11.8525 7.3162C11.8525 7.41547 11.9505 7.4647 12.1471 7.4647C12.2281 7.46394 12.3088 7.45556 12.3882 7.43968C12.3514 7.34778 12.286 7.26957 12.2014 7.21612Z" fill="#065BAA"/>
    <path d="M21.7909 7.90946C21.7407 7.8742 21.6814 7.8535 21.6198 7.84973C21.574 7.84954 21.5298 7.86592 21.4956 7.89574C21.4783 7.90894 21.4644 7.92584 21.4548 7.94515C21.4452 7.96445 21.4403 7.98565 21.4404 8.00712C21.4404 8.10639 21.5383 8.15643 21.735 8.15643C21.8157 8.15555 21.8962 8.1469 21.9752 8.1306C21.9396 8.03937 21.875 7.96182 21.7909 7.90946Z" fill="#065BAA"/>
    <path d="M25.2264 7.44373C25.1522 7.4461 25.0809 7.47217 25.0232 7.51798C24.9915 7.53588 24.9648 7.56115 24.9455 7.59154C24.9261 7.62194 24.9146 7.65655 24.9121 7.69231C24.9249 7.76011 24.9642 7.82034 25.0215 7.86019C25.0685 7.91247 25.1324 7.94725 25.2025 7.95865C25.2629 7.95033 25.3198 7.92605 25.3671 7.88843C25.4018 7.8713 25.4315 7.84593 25.4537 7.81464C25.4758 7.78334 25.4896 7.74712 25.4938 7.70926C25.4841 7.64248 25.4527 7.58056 25.4042 7.53271C25.3557 7.48487 25.2928 7.45366 25.2248 7.44373H25.2264Z" fill="#065BAA"/>
    <path d="M32.2411 7.70767C28.7798 3.91837 24.4307 1.94745 19.2416 1.76989V0.736816H18.5315V1.75133C17.8807 1.81751 17.2464 1.86836 16.6161 1.94907C16.0279 2.02413 15.4396 2.11049 14.8596 2.22832C14.4212 2.32591 13.9889 2.44771 13.5645 2.59313C13.0817 2.73851 12.6068 2.9085 12.142 3.1024C11.4974 3.37495 10.8684 3.68184 10.2579 4.02168C9.56776 4.41701 8.89956 4.84806 8.25612 5.31303C7.67625 5.74128 7.11984 6.19926 6.58921 6.68508C6.21554 7.02495 5.86871 7.39216 5.55172 7.78353C5.02762 8.42194 4.49941 9.06116 4.04031 9.74477C3.37084 10.7546 2.81262 11.8314 2.37505 12.957C2.3297 13.0986 2.29316 13.2428 2.26562 13.3888C2.65068 13.1919 2.98636 13.0054 3.33521 12.844C4.0979 12.4897 4.91572 12.3258 5.75 12.2661C6.44619 12.2202 7.14539 12.2842 7.82088 12.4558C8.62644 12.6499 9.39109 12.981 10.0802 13.434C10.3369 13.6035 10.4833 13.6156 10.7005 13.4905C11.0938 13.2629 11.4813 13.0191 11.8952 12.8311C12.6805 12.4822 13.5288 12.2901 14.3906 12.2661C14.6975 12.2566 15.0046 12.2692 15.3096 12.3041C15.6513 12.3271 15.9901 12.3811 16.3216 12.4655C16.8437 12.6209 17.3561 12.8063 17.856 13.0208C18.1267 13.137 18.3637 13.3307 18.6064 13.505C18.6856 13.5543 18.7767 13.5822 18.8705 13.5859C18.9643 13.5896 19.0574 13.5689 19.1404 13.526C19.5114 13.3089 19.8734 13.07 20.2626 12.89C21.0858 12.5151 21.9763 12.3034 22.8831 12.2669C23.5208 12.2405 24.1593 12.2986 24.7812 12.4396C25.6574 12.6317 26.4481 13.0175 27.1993 13.4889C27.2573 13.5331 27.3277 13.5592 27.4011 13.5635C27.4746 13.5678 27.5476 13.5502 27.6106 13.5131C28.1224 13.2508 28.6276 12.9747 29.1525 12.7415C29.8765 12.4187 30.654 12.3065 31.4422 12.2637C32.0418 12.2204 32.6446 12.275 33.226 12.4251C33.7571 12.5818 34.2789 12.7672 34.7892 12.9804C35.0496 13.099 35.3031 13.2316 35.5486 13.3775L35.5996 13.3404C34.8806 11.259 33.738 9.3427 32.2411 7.70767ZM12.1132 5.91027L12.4061 6.20002L12.1148 6.48573L11.8187 6.19921L12.1132 5.91027ZM12.4316 8.4849C12.2671 8.59251 12.015 8.64631 11.6755 8.64631H11.283C11.1766 8.65023 11.0706 8.63065 10.9729 8.58901C10.9729 9.01946 10.8398 9.36113 10.5738 9.61402C10.4915 9.69473 10.4414 9.72863 10.42 9.72863C10.0341 9.72863 9.74531 9.69311 9.55443 9.62047C9.5174 9.60675 9.51576 9.59303 9.55031 9.58012C9.82319 9.47884 10.0796 9.33909 10.3114 9.16527C10.5856 8.96296 10.7227 8.78863 10.7227 8.64228C10.7227 8.57287 10.6726 8.48086 10.573 8.35899C10.4976 8.27177 10.4151 8.19079 10.3262 8.11686L10.5541 7.66651C10.5672 7.64068 10.5829 7.64068 10.6018 7.66651C10.8185 7.95706 11.0187 8.10233 11.2024 8.10233H11.729C12.0729 8.10233 12.3035 8.07301 12.4209 8.01436C12.4468 8.00296 12.4685 7.98412 12.4832 7.96034C12.4979 7.93655 12.5048 7.90895 12.5032 7.88119C12.5032 7.84326 12.4736 7.82631 12.416 7.83196C12.2325 7.84891 12.1033 7.85779 12.0276 7.85779C11.7402 7.85779 11.5965 7.75367 11.5965 7.54544C11.5974 7.3665 11.6422 7.19041 11.7273 7.03213C11.837 6.82767 11.9742 6.72571 12.1387 6.72624C12.3641 6.72624 12.5268 6.87098 12.6266 7.16046C12.6895 7.35366 12.7196 7.55573 12.7155 7.75851C12.7155 8.12009 12.6208 8.36222 12.4316 8.4849ZM18.5315 8.55269C18.4847 8.59871 18.4286 8.63467 18.3669 8.65829C18.3051 8.68191 18.239 8.69267 18.1728 8.6899C17.9742 8.6899 17.8097 8.58686 17.6791 8.38078C17.6455 8.46048 17.5882 8.52842 17.5147 8.57577C17.4412 8.62312 17.3549 8.6477 17.2669 8.64631H16.9461C16.7623 8.64631 16.6126 8.54866 16.4968 8.35334C16.3841 8.54866 16.2352 8.64631 16.0484 8.64631C15.8779 8.64631 15.7342 8.54866 15.6173 8.35334C15.5076 8.54866 15.3658 8.64631 15.192 8.64631C15.0071 8.64631 14.8582 8.54866 14.7452 8.35334C14.6947 8.44517 14.619 8.52129 14.5267 8.57307C14.4343 8.62486 14.329 8.65023 14.2227 8.64631H13.7785C13.642 8.64896 13.5101 8.59846 13.4115 8.50588C13.2777 8.38051 13.2105 8.18977 13.2099 7.93365C13.2099 7.75932 13.1992 7.4954 13.1778 7.14351C13.1532 6.74965 13.1293 6.49004 13.1063 6.36467C13.0989 6.32351 13.1013 6.29687 13.1145 6.28396L13.4691 5.99905C13.4909 5.97785 13.5162 5.96039 13.544 5.9474C13.5522 5.9474 13.5563 5.96838 13.5563 6.00713V7.80048C13.5563 8.00226 13.6712 8.10314 13.901 8.10314H13.9167H14.2721C14.3264 8.10826 14.3812 8.0988 14.4304 8.07577C14.4797 8.05274 14.5217 8.01701 14.5519 7.97239C14.5884 7.89734 14.6144 7.8178 14.6292 7.73592C14.6514 7.65036 14.6868 7.60759 14.7361 7.60759C14.7855 7.60759 14.8258 7.64956 14.8464 7.73511C14.8624 7.81759 14.8855 7.89859 14.9155 7.97724C14.9422 8.02054 14.9809 8.05552 15.0271 8.0781C15.0732 8.10067 15.125 8.10992 15.1763 8.10476C15.228 8.10931 15.28 8.09982 15.3266 8.07733C15.3732 8.05484 15.4126 8.02021 15.4404 7.97724C15.4741 7.89909 15.5003 7.81803 15.5186 7.73511C15.5416 7.64956 15.5803 7.60759 15.6354 7.60759C15.6905 7.60759 15.7177 7.64956 15.735 7.73511C15.7478 7.81811 15.7704 7.89937 15.8024 7.97724C15.8312 8.02093 15.8717 8.05597 15.9194 8.07847C15.9672 8.10098 16.0204 8.11008 16.0731 8.10476C16.1215 8.10809 16.1698 8.09788 16.2125 8.0753C16.2552 8.05272 16.2905 8.01871 16.3142 7.97724C16.3445 7.89792 16.3706 7.8171 16.3924 7.73511C16.417 7.64956 16.4574 7.60759 16.5133 7.60759C16.5692 7.60759 16.5956 7.65036 16.6112 7.73592C16.6229 7.8178 16.647 7.89751 16.6828 7.97239C16.7149 8.0169 16.7585 8.05225 16.8091 8.0748C16.8597 8.09735 16.9155 8.10629 16.9708 8.10072H17.2669C17.3466 8.10843 17.427 8.09736 17.5014 8.06844C17.5269 8.05149 17.5368 8.01275 17.5311 7.95141C17.5206 7.80518 17.568 7.66062 17.6635 7.54786C17.7099 7.48341 17.7716 7.43104 17.8433 7.39531C17.915 7.35958 17.9945 7.34158 18.0749 7.34286C18.1723 7.3419 18.2679 7.36868 18.3502 7.41997C18.4324 7.47125 18.4977 7.54484 18.5381 7.6318C18.6293 7.80638 18.6743 8.00066 18.6689 8.19676C18.6716 8.26247 18.6608 8.32803 18.6372 8.38958C18.6136 8.45112 18.5777 8.50741 18.5315 8.55511V8.55269ZM25.5069 6.17823L25.7726 6.43811L25.5077 6.6988L25.2411 6.4373L25.5069 6.17823ZM24.9153 6.17823L25.1802 6.43811L24.9186 6.70122L24.652 6.43973L24.9153 6.17823ZM21.9649 6.53335L22.229 6.79404L21.9632 7.05473L21.6975 6.79485L21.9649 6.53335ZM21.3725 6.53335L21.6366 6.79404L21.3717 7.05473L21.1059 6.79485L21.3725 6.53335ZM22.3417 8.71734C22.3417 9.38669 21.8785 9.72136 20.9521 9.72136C20.618 9.72136 20.3693 9.63124 20.2058 9.45098C20.0724 9.29969 20.0022 9.10452 20.0092 8.90458C20.0201 8.73757 20.055 8.57291 20.1129 8.41549C20.1946 8.16421 20.2769 8.03857 20.3597 8.03857C20.4173 8.03857 20.4461 8.07812 20.4461 8.1556C20.4323 8.23352 20.4103 8.3098 20.3803 8.3832C20.3433 8.47589 20.3211 8.57362 20.3144 8.67295C20.3077 8.75957 20.3277 8.84618 20.3717 8.92158C20.4157 8.99697 20.4817 9.05768 20.5613 9.09587C20.7283 9.16321 20.9083 9.19379 21.0887 9.18545C21.3002 9.18722 21.5109 9.16006 21.7148 9.10474C21.989 9.02941 22.1261 8.91535 22.1261 8.76254C22.1252 8.72091 22.1163 8.67984 22.0998 8.64147H21.9262H21.7534C21.6136 8.64979 21.4736 8.62973 21.3421 8.58255C21.2861 8.55691 21.2395 8.5151 21.2085 8.46274C21.1775 8.41037 21.1635 8.34995 21.1685 8.28958C21.1707 8.09956 21.2151 7.9123 21.2985 7.74076C21.4082 7.50993 21.5453 7.39452 21.7098 7.39452C21.9029 7.39452 22.0603 7.50024 22.1821 7.7117C22.2908 7.90415 22.3462 8.12123 22.3425 8.34123L22.3417 8.71734ZM28.4638 7.65036L28.1841 8.04422C27.9729 8.04926 27.7658 8.10259 27.5794 8.19999C27.47 8.25488 27.2708 8.35173 26.9837 8.48974C26.7296 8.59937 26.4541 8.65282 26.1766 8.64631H25.9602C25.8032 8.64358 25.6481 8.61239 25.5027 8.55431C25.3932 8.51435 25.2897 8.46005 25.195 8.39289C24.9054 8.56561 24.6553 8.64631 24.4422 8.64631H24.0308C24.0335 8.99804 23.9003 9.33771 23.6581 9.59707C23.5758 9.68504 23.5281 9.72863 23.5059 9.72863C23.2136 9.7385 22.9216 9.70198 22.6412 9.62047C22.6009 9.60675 22.5992 9.59303 22.6371 9.58012C22.9097 9.47994 23.1638 9.33652 23.3891 9.15559C23.6567 8.94897 23.7906 8.77653 23.7906 8.63824H23.5018C23.3572 8.64885 23.212 8.62705 23.0773 8.57448C22.9555 8.51476 22.8946 8.40419 22.8946 8.24277C22.903 8.06344 22.9525 7.88827 23.0394 7.73027C23.1571 7.49621 23.2953 7.37918 23.4557 7.37918C23.6162 7.37918 23.7544 7.45989 23.8613 7.63341C23.9487 7.77773 24.0047 7.9382 24.0259 8.10476H24.527C24.6241 8.10986 24.7214 8.09894 24.8149 8.07247C24.7348 7.97907 24.6857 7.8639 24.6742 7.74237C24.6834 7.57603 24.7424 7.41602 24.8437 7.28233C24.9737 7.0897 25.1202 6.99312 25.2831 6.99258C25.3526 6.99218 25.4209 7.01076 25.4804 7.04625C25.5398 7.08174 25.588 7.13274 25.6196 7.19355C25.6922 7.31589 25.7289 7.45555 25.7257 7.5971C25.7373 7.76926 25.6797 7.93902 25.5653 8.07005C25.5941 8.09184 25.7035 8.10233 25.8944 8.10233H26.235C26.486 8.10792 26.7369 8.08572 26.9829 8.03615C27.1656 7.98889 27.3422 7.92147 27.5094 7.83519L27.1647 7.70525C27.0411 7.65103 26.9094 7.61644 26.7747 7.60275C26.68 7.60916 26.5903 7.64702 26.5205 7.71009C26.475 7.75034 26.4256 7.78628 26.3732 7.81743C26.3156 7.81743 26.2868 7.78515 26.2868 7.72139C26.2934 7.65927 26.3149 7.59955 26.3494 7.54706C26.5082 7.27103 26.6867 7.13221 26.8825 7.13221C26.9812 7.13221 27.2116 7.21292 27.5637 7.36788C27.9159 7.52284 28.1857 7.60355 28.3635 7.60355C28.4383 7.60355 28.4762 7.61001 28.4762 7.62454C28.4743 7.63475 28.4701 7.64441 28.4638 7.65279V7.65036Z" fill="#065BAA"/>
  </g>
  <defs>
    <clipPath id="clip0_2552_39876">
      <rect width="35.2" height="35.9333" fill="white" transform="translate(0.400391 0.736816)"/>
    </clipPath>
  </defs>
</svg>