<?xml version="1.0" encoding="UTF-8"?>
<svg width="24px" height="24px" viewBox="0 0 24 24" version="1.1" xmlns="http://www.w3.org/2000/svg" xmlns:xlink="http://www.w3.org/1999/xlink">
    <title>Pay! Logotype Icons / Pay BG Color / Round / 24x24</title>
    <g id="V-4" stroke="none" stroke-width="1" fill="none" fill-rule="evenodd">
        <g id="Group-35">
            <g id="credit-copy" fill="#008EFA">
                <path d="M6.13737343,0.49944988 L6.63414037,0.421012103 C10.1893424,-0.140337368 13.8106294,-0.140337368 17.3658879,0.421012103 L17.8626548,0.49944988 C20.7654795,0.957791519 23.0421915,3.23454305 23.5005501,6.13737343 L23.5790048,6.63414037 C24.1403317,10.1893424 24.1403317,13.8106294 23.5790048,17.3658879 L23.5005501,17.8626548 C23.0421915,20.7654795 20.7654795,23.0421915 17.8626548,23.5005501 L17.3658879,23.5790048 C13.8106294,24.1403317 10.1893424,24.1403317 6.63414037,23.5790048 L6.13737343,23.5005501 C3.23454305,23.0421915 0.957791519,20.7654795 0.49944988,17.8626548 L0.421012103,17.3658879 C-0.140337368,13.8106294 -0.140337368,10.1893424 0.421012103,6.63414037 L0.49944988,6.13737343 C0.957791519,3.23454305 3.23454305,0.957791519 6.13737343,0.49944988 Z" id="Path"></path>
            </g>
            <g id="Group-34" transform="translate(2.500000, 8.000000)" fill="#FFFFFF">
                <g id="Group-33" transform="translate(16.100659, 0.161660)">
                    <path d="M1.41030133,0 L0.427309286,3.82627561 L1.24452905,3.82627561 C1.63998144,3.82627561 1.98535047,3.55512125 2.08418325,3.16695014 L2.89934147,0 L1.41030133,0 Z" id="Fill-12"></path>
                    <path d="M0.917750285,4.36745349 C0.411217127,4.36745349 0,4.7842642 0,5.29756456 C0,5.81086492 0.411217127,6.22779855 0.917750285,6.22779855 C1.42416218,6.22779855 1.8353793,5.81086492 1.8353793,5.29756456 C1.8353793,4.7842642 1.42416218,4.36745349 0.917750285,4.36745349" id="Fill-14"></path>
                </g>
                <g id="Group">
                    <path d="M2.07883653,2.74062343 L1.56100098,2.74062343 L1.56100098,1.25155137 L2.07883653,1.25155137 C2.65227533,1.25155137 2.93887385,1.49977011 2.93887385,1.9960874 C2.93887385,2.49252489 2.65227533,2.74062343 2.07883653,2.74062343 M2.48510293,0 L0,0 L0,5.97227523 L1.56100098,5.97227523 L1.56100098,3.9920546 L2.48510293,3.9920546 C3.15923197,3.9920546 3.67585875,3.81788076 4.034258,3.4692927 C4.39265725,3.12082483 4.57191731,2.62967626 4.57191731,1.9960874 C4.57191731,1.36237833 4.39265725,0.871349967 4.034258,0.522761899 C3.67585875,0.174294034 3.15923197,0 2.48510293,0" id="Fill-20"></path>
                    <path d="M8.13631571,4.30096373 C8.0856684,4.41191089 8.01930712,4.50963576 7.937111,4.59413831 C7.85479401,4.67864087 7.75652129,4.74451199 7.64241374,4.79199209 C7.52818531,4.83959239 7.40742955,4.86339254 7.28014644,4.86339254 C7.14718213,4.86339254 7.02376708,4.83959239 6.90965953,4.79199209 C6.7954311,4.74451199 6.69727926,4.67864087 6.61496227,4.59413831 C6.53264527,4.50963576 6.46761364,4.41058866 6.41974649,4.29699703 C6.37200021,4.18352561 6.34806664,4.06079857 6.34806664,3.92869571 C6.34806664,3.80200198 6.37200021,3.68444366 6.41974649,3.57626115 C6.46761364,3.46807865 6.53264527,3.37167602 6.61496227,3.28717346 C6.69727926,3.20279111 6.7954311,3.13667958 6.90965953,3.08907928 C7.02376708,3.04159918 7.14718213,3.01779903 7.28014644,3.01779903 C7.40742955,3.01779903 7.52818531,3.04159918 7.64241374,3.08907928 C7.75652129,3.13667958 7.85479401,3.20279111 7.937111,3.28717346 C8.01930712,3.37167602 8.0856684,3.47060291 8.13631571,3.58419454 C8.18672127,3.69778617 8.21186361,3.81786874 8.21186361,3.94456248 C8.21186361,4.07125621 8.18672127,4.19013676 8.13631571,4.30096373 L8.13631571,4.30096373 Z M8.16411734,2.31292991 C7.82953079,1.95917313 7.40742955,1.78223463 6.89781361,1.78223463 C6.5951385,1.78223463 6.31881449,1.83897034 6.0693251,1.95244177 C5.81971482,2.0661536 5.60467527,2.22061418 5.42420644,2.4159437 C5.24349586,2.61127322 5.10279545,2.8395383 5.00198433,3.10097935 C4.90105233,3.3623002 4.85064677,3.63828579 4.85064677,3.92869571 C4.85064677,4.24038152 4.90250285,4.52814698 5.00585238,4.79199209 C5.10956454,5.0560776 5.25425388,5.28590532 5.44016216,5.48123484 C5.62582869,5.67656436 5.8436484,5.82838048 6.09325867,5.93656298 C6.34262719,6.04474549 6.61629191,6.09895694 6.91364845,6.09895694 C7.43934098,6.09895694 7.85612365,5.90627188 8.16411734,5.52066136 L8.16411734,5.97226321 L9.61379093,5.97226321 L9.61379093,1.90892836 L8.16411734,1.90892836 L8.16411734,2.31292991 Z" id="Fill-22"></path>
                    <polygon id="Fill-24" points="12.7837809 3.99207864 11.6925066 1.90884422 10.0199365 1.90884422 11.9951817 5.41780384 10.6013531 8 12.21832 8 15.5 1.90884422 13.8431438 1.90884422"></polygon>
                </g>
            </g>
        </g>
    </g>
</svg>