<svg xmlns="http://www.w3.org/2000/svg" width="24" height="24" viewBox="0 0 24 24" fill="#fff">
    <g data-name="Group 72954">
        <path data-name="Path 55752" d="M876.62 385.79a15.1 15.1 0 0 0 6.59 6.59l2.2-2.2a1 1 0 0 1 1.02-.25 11.361 11.361 0 0 0 3.57.57 1 1 0 0 1 1 1v3.5a1 1 0 0 1-1 1 17 17 0 0 1-17-17 1 1 0 0 1 1-1h3.5a1 1 0 0 1 1 1 11.361 11.361 0 0 0 .57 3.57 1 1 0 0 1-.25 1.02z" transform="translate(-870 -375)" />
        <path data-name="Path 55758" d="M0 0h24v24H0z" style="fill:none"/>
    </g>
</svg>
