<svg xmlns="http://www.w3.org/2000/svg" width="25" height="24" viewBox="0 0 25 24" fill="none">
    <path d="M19.9249 20.45C17.9916 20.45 16.0709 19.9873 14.1629 19.062C12.2542 18.1373 10.5499 16.925 9.0499 15.425C7.5499 13.925 6.33757 12.225 5.4129 10.325C4.48757 8.425 4.0249 6.5 4.0249 4.55C4.0249 4.25 4.1249 4 4.3249 3.8C4.5249 3.6 4.7749 3.5 5.0749 3.5H8.3249C8.59157 3.5 8.82057 3.579 9.0119 3.737C9.2039 3.89567 9.3249 4.1 9.3749 4.35L9.9499 7.3C9.98324 7.55 9.9749 7.775 9.9249 7.975C9.8749 8.175 9.76657 8.35 9.5999 8.5L7.2999 10.75C8.0999 12.0833 9.04557 13.2917 10.1369 14.375C11.2289 15.4583 12.4666 16.4 13.8499 17.2L16.0749 14.95C16.2416 14.7833 16.4376 14.6667 16.6629 14.6C16.8876 14.5333 17.1166 14.5167 17.3499 14.55L20.1249 15.125C20.3749 15.175 20.5792 15.2917 20.7379 15.475C20.8959 15.6583 20.9749 15.8833 20.9749 16.15V19.4C20.9749 19.7 20.8749 19.95 20.6749 20.15C20.4749 20.35 20.2249 20.45 19.9249 20.45ZM6.5999 9.325L8.3749 7.625C8.40824 7.59167 8.42924 7.554 8.4379 7.512C8.4459 7.47067 8.44157 7.43333 8.4249 7.4L7.9999 5.15C7.98324 5.1 7.95824 5.06233 7.9249 5.037C7.89157 5.01233 7.8499 5 7.7999 5H5.6749C5.6249 5 5.58724 5.01233 5.5619 5.037C5.53724 5.06233 5.5249 5.09167 5.5249 5.125C5.5749 5.80833 5.68757 6.504 5.8629 7.212C6.03757 7.92067 6.28324 8.625 6.5999 9.325ZM19.3499 18.9C19.3832 18.9 19.4126 18.8873 19.4379 18.862C19.4626 18.8373 19.4749 18.8083 19.4749 18.775V16.675C19.4749 16.625 19.4626 16.5833 19.4379 16.55C19.4126 16.5167 19.3749 16.4917 19.3249 16.475L17.2249 16.05C17.1916 16.0333 17.1582 16.0333 17.1249 16.05L17.0249 16.1L15.2499 17.9C15.9166 18.2167 16.6082 18.4583 17.3249 18.625C18.0416 18.7917 18.7166 18.8833 19.3499 18.9Z" fill="#065BAA"/>
</svg>