<svg width="14" height="17" viewBox="0 0 14 17" fill="none" xmlns="http://www.w3.org/2000/svg">
<path d="M6.98899 8.79167C7.39173 8.79167 7.73559 8.64944 8.02056 8.365C8.30498 8.08 8.44719 7.73611 8.44719 7.33333C8.44719 6.93056 8.30498 6.58667 8.02056 6.30167C7.73559 6.01722 7.39173 5.875 6.98899 5.875C6.58625 5.875 6.24239 6.01722 5.95742 6.30167C5.673 6.58667 5.53079 6.93056 5.53079 7.33333C5.53079 7.73611 5.673 8.08 5.95742 8.365C6.24239 8.64944 6.58625 8.79167 6.98899 8.79167ZM6.98899 15.5C8.71105 13.9722 10.0095 12.5103 10.8845 11.1142C11.7594 9.71861 12.1968 8.51389 12.1968 7.5C12.1968 5.91667 11.6936 4.625 10.687 3.625C9.67985 2.625 8.44719 2.125 6.98899 2.125C5.53079 2.125 4.29813 2.625 3.291 3.625C2.28442 4.625 1.78114 5.91667 1.78114 7.5C1.78114 8.51389 2.21859 9.71861 3.09351 11.1142C3.96843 12.5103 5.26693 13.9722 6.98899 15.5ZM6.98899 16.875C6.89178 16.875 6.79456 16.8611 6.69735 16.8333C6.60014 16.8056 6.50987 16.7569 6.42654 16.6875C4.4545 14.8958 2.97908 13.2361 2.00028 11.7083C1.02093 10.1806 0.53125 8.77778 0.53125 7.5C0.53125 5.48611 1.18063 3.87833 2.4794 2.67667C3.77762 1.47556 5.28081 0.875 6.98899 0.875C8.69717 0.875 10.2006 1.47556 11.4994 2.67667C12.7976 3.87833 13.4467 5.48611 13.4467 7.5C13.4467 8.77778 12.9573 10.1806 11.9785 11.7083C10.9992 13.2361 9.52348 14.8958 7.55144 16.6875C7.46811 16.7569 7.37784 16.8056 7.28063 16.8333C7.18342 16.8611 7.0862 16.875 6.98899 16.875Z" fill="#696A6B"/>
</svg>
