<svg width="24" height="25" viewBox="0 0 24 25" fill="none" xmlns="http://www.w3.org/2000/svg">
<g id="brand logo / pwa">
<g id="Group">
<path id="Vector" d="M16.9554 14.5672L17.5621 13.0149H19.3137L18.4825 10.6603L19.5221 8L22.5 16H20.3039L19.7951 14.5672H16.9554Z" fill="#105fae"/>
<path id="Vector_2" d="M15.0819 16L18.2698 8L16.1563 8.00001L13.9756 13.1698L12.4249 8.00002H10.8004L9.13542 13.1698L7.96121 10.814L6.89859 14.1264L7.97747 16H10.0574L11.562 11.3638L12.9965 16H15.0819Z" fill="#105fae"/>
<path id="Vector_3" d="M3.50615 13.2537H4.80792C5.20225 13.2537 5.55339 13.2092 5.86133 13.1201L6.19799 12.0707L7.13889 9.13769C7.06719 9.02271 6.98535 8.914 6.89334 8.81157C6.41025 8.27052 5.70343 8 4.77288 8H1.5V16H3.50615V13.2537ZM5.22924 9.84047C5.41794 10.0326 5.51228 10.2898 5.51228 10.6119C5.51228 10.9366 5.4293 11.194 5.26336 11.3843C5.08144 11.5958 4.74646 11.7015 4.25844 11.7015H3.50615V9.55222H4.26397C4.7188 9.55222 5.04055 9.64831 5.22924 9.84047Z" fill="#105fae"/>
</g>
</g>
</svg>
