<svg xmlns="http://www.w3.org/2000/svg" width="30" height="30" fill="none"><path d="M0 13.333h3.333v3.334H0v-3.334Zm13.333-10h3.334V10h-3.334V3.333Zm-3.333 10h6.667V20h-3.334v-3.333H10v-3.334Zm10 0h3.333v3.334h3.334v-3.334H30v3.334h-3.333V20H30v6.667h-3.333V30h-3.334v-3.333h-6.666V30h-3.334v-6.667H20V20h3.333v-3.333H20v-3.334Zm6.667 13.334V20h-3.334v6.667h3.334ZM20 0h10v10H20V0Zm3.333 3.333v3.334h3.334V3.333h-3.334ZM0 0h10v10H0V0Zm3.333 3.333v3.334h3.334V3.333H3.333ZM0 20h10v10H0V20Zm3.333 3.333v3.334h3.334v-3.334H3.333Z" fill="#105fae"></path></svg>