<svg width="17" height="18" viewBox="0 0 17 18" fill="none" xmlns="http://www.w3.org/2000/svg">
<path d="M4.5 5.9C4.75 5.9 4.96233 5.81233 5.137 5.637C5.31233 5.46233 5.4 5.25 5.4 5C5.4 4.75 5.31233 4.53733 5.137 4.362C4.96233 4.18733 4.75 4.1 4.5 4.1C4.25 4.1 4.03767 4.18733 3.863 4.362C3.68767 4.53733 3.6 4.75 3.6 5C3.6 5.25 3.68767 5.46233 3.863 5.637C4.03767 5.81233 4.25 5.9 4.5 5.9ZM4.5 9.9C4.75 9.9 4.96233 9.81233 5.137 9.637C5.31233 9.46233 5.4 9.25 5.4 9C5.4 8.75 5.31233 8.53767 5.137 8.363C4.96233 8.18767 4.75 8.1 4.5 8.1C4.25 8.1 4.03767 8.18767 3.863 8.363C3.68767 8.53767 3.6 8.75 3.6 9C3.6 9.25 3.68767 9.46233 3.863 9.637C4.03767 9.81233 4.25 9.9 4.5 9.9ZM4.5 13.9C4.75 13.9 4.96233 13.8123 5.137 13.637C5.31233 13.4623 5.4 13.25 5.4 13C5.4 12.75 5.31233 12.5377 5.137 12.363C4.96233 12.1877 4.75 12.1 4.5 12.1C4.25 12.1 4.03767 12.1877 3.863 12.363C3.68767 12.5377 3.6 12.75 3.6 13C3.6 13.25 3.68767 13.4623 3.863 13.637C4.03767 13.8123 4.25 13.9 4.5 13.9ZM1.8 17.5C1.3 17.5 0.875 17.325 0.525 16.975C0.175 16.625 0 16.2 0 15.7V2.3C0 1.8 0.175 1.375 0.525 1.025C0.875 0.675 1.3 0.5 1.8 0.5H12.3L17 5.2V15.7C17 16.2 16.825 16.625 16.475 16.975C16.125 17.325 15.7 17.5 15.2 17.5H1.8ZM1.8 16H15.2C15.2833 16 15.3543 15.971 15.413 15.913C15.471 15.8543 15.5 15.7833 15.5 15.7V6H12.4C12.15 6 11.9373 5.91267 11.762 5.738C11.5873 5.56267 11.5 5.35 11.5 5.1V2H1.8C1.71667 2 1.646 2.02933 1.588 2.088C1.52933 2.146 1.5 2.21667 1.5 2.3V15.7C1.5 15.7833 1.52933 15.8543 1.588 15.913C1.646 15.971 1.71667 16 1.8 16ZM1.5 6V16V2V6V2V6Z" fill="#121516"/>
</svg>
