<svg width="48" height="48" viewBox="0 0 48 49" fill="none" xmlns="http://www.w3.org/2000/svg">
<g id="time/schedule">
<path id="Vector" d="M29.95 32.55C30.2167 32.8167 30.55 32.95 30.95 32.95C31.35 32.95 31.7 32.8 32 32.5C32.3 32.2 32.45 31.85 32.45 31.45C32.45 31.05 32.3 30.7 32 30.4L25.5 23.9V15.95C25.5 15.55 25.3587 15.2087 25.076 14.926C24.792 14.642 24.4333 14.5 24 14.5C23.5667 14.5 23.2087 14.642 22.926 14.926C22.642 15.2087 22.5 15.5667 22.5 16V24.35C22.5 24.5833 22.5413 24.808 22.624 25.024C22.708 25.2413 22.85 25.45 23.05 25.65L29.95 32.55ZM24 43.5C21.3667 43.5 18.892 43 16.576 42C14.2587 41 12.25 39.65 10.55 37.95C8.85 36.25 7.5 34.2413 6.5 31.924C5.5 29.608 5 27.1333 5 24.5C5 21.8667 5.5 19.3913 6.5 17.074C7.5 14.758 8.85 12.75 10.55 11.05C12.25 9.35 14.2587 8 16.576 7C18.892 6 21.3667 5.5 24 5.5C26.6333 5.5 29.1087 6 31.426 7C33.742 8 35.75 9.35 37.45 11.05C39.15 12.75 40.5 14.758 41.5 17.074C42.5 19.3913 43 21.8667 43 24.5C43 27.1333 42.5 29.608 41.5 31.924C40.5 34.2413 39.15 36.25 37.45 37.95C35.75 39.65 33.742 41 31.426 42C29.1087 43 26.6333 43.5 24 43.5ZM24 40.5C28.4333 40.5 32.2087 38.942 35.326 35.826C38.442 32.7087 40 28.9333 40 24.5C40 20.0667 38.442 16.2913 35.326 13.174C32.2087 10.058 28.4333 8.5 24 8.5C19.5667 8.5 15.792 10.058 12.676 13.174C9.55867 16.2913 8 20.0667 8 24.5C8 28.9333 9.55867 32.7087 12.676 35.826C15.792 38.942 19.5667 40.5 24 40.5Z" fill="#121516"/>
</g>
</svg>
