<svg xmlns="http://www.w3.org/2000/svg" width="32" height="32" viewBox="0 0 32 32"><g transform="translate(-16 -146)"><g transform="translate(16 146)" fill="#105fae" stroke="#284b96" stroke-width="1"><circle cx="16" cy="16" r="16" stroke="none"/><circle cx="16" cy="16" r="15.5" fill="none"/></g><g transform="translate(20 150)"><path d="M0,0H24V24H0Z" fill="none"/><path d="M7,11H9v2H7ZM21,6V20a2.006,2.006,0,0,1-2,2H5a2,2,0,0,1-2-2L3.01,6A1.991,1.991,0,0,1,5,4H6V2H8V4h8V2h2V4h1A2.006,2.006,0,0,1,21,6ZM5,8H19V6H5ZM19,20V10H5V20Zm-4-7h2V11H15Zm-4,0h2V11H11Z" fill="#fff"/></g></g></svg>