<svg width="17" height="17" viewBox="0 0 17 17" fill="none" xmlns="http://www.w3.org/2000/svg">
    <path
        d="M6.36667 10.2738L12.0167 4.62383C12.15 4.49049 12.3056 4.42383 12.4833 4.42383C12.6611 4.42383 12.8167 4.49049 12.95 4.62383C13.0833 4.75716 13.15 4.91549 13.15 5.09883C13.15 5.28216 13.0833 5.44049 12.95 5.57383L6.83334 11.7072C6.70001 11.8405 6.54445 11.9072 6.36667 11.9072C6.18889 11.9072 6.03334 11.8405 5.90001 11.7072L3.03334 8.8405C2.90001 8.70716 2.83612 8.54883 2.84167 8.36549C2.84723 8.18216 2.91667 8.02383 3.05001 7.8905C3.18334 7.75716 3.34167 7.6905 3.52501 7.6905C3.70834 7.6905 3.86667 7.75716 4.00001 7.8905L6.36667 10.2738Z"
        fill="#1E1E1E" />
</svg>