<svg width="24" height="24" viewBox="0 0 24 24" fill="none" xmlns="http://www.w3.org/2000/svg">
<path d="M2.25 18.5C2.03333 18.5 1.854 18.4293 1.712 18.288C1.57067 18.146 1.5 17.9667 1.5 17.75V5.25C1.5 5.03333 1.57067 4.85433 1.712 4.713C1.854 4.571 2.03333 4.5 2.25 4.5C2.46667 4.5 2.646 4.571 2.788 4.713C2.92933 4.85433 3 5.03333 3 5.25V14H11.25V8C11.25 7.58333 11.396 7.22933 11.688 6.938C11.9793 6.646 12.3333 6.5 12.75 6.5H19C19.9667 6.5 20.7917 6.84167 21.475 7.525C22.1583 8.20833 22.5 9.03333 22.5 10V17.75C22.5 17.9667 22.4293 18.146 22.288 18.288C22.146 18.4293 21.9667 18.5 21.75 18.5C21.5333 18.5 21.354 18.4293 21.212 18.288C21.0707 18.146 21 17.9667 21 17.75V15.5H3V17.75C3 17.9667 2.92933 18.146 2.788 18.288C2.646 18.4293 2.46667 18.5 2.25 18.5ZM7 12.55C6.28333 12.55 5.67933 12.304 5.188 11.812C4.696 11.3207 4.45 10.7167 4.45 10C4.45 9.28333 4.696 8.67933 5.188 8.188C5.67933 7.696 6.28333 7.45 7 7.45C7.71667 7.45 8.32067 7.696 8.812 8.188C9.304 8.67933 9.55 9.28333 9.55 10C9.55 10.7167 9.304 11.3207 8.812 11.812C8.32067 12.304 7.71667 12.55 7 12.55ZM12.75 14H21V10C21 9.45 20.8043 8.979 20.413 8.587C20.021 8.19567 19.55 8 19 8H12.75V14ZM7 11.05C7.3 11.05 7.55 10.95 7.75 10.75C7.95 10.55 8.05 10.3 8.05 10C8.05 9.7 7.95 9.45 7.75 9.25C7.55 9.05 7.3 8.95 7 8.95C6.7 8.95 6.45 9.05 6.25 9.25C6.05 9.45 5.95 9.7 5.95 10C5.95 10.3 6.05 10.55 6.25 10.75C6.45 10.95 6.7 11.05 7 11.05ZM7 11.05C6.7 11.05 6.45 10.95 6.25 10.75C6.05 10.55 5.95 10.3 5.95 10C5.95 9.7 6.05 9.45 6.25 9.25C6.45 9.05 6.7 8.95 7 8.95C7.3 8.95 7.55 9.05 7.75 9.25C7.95 9.45 8.05 9.7 8.05 10C8.05 10.3 7.95 10.55 7.75 10.75C7.55 10.95 7.3 11.05 7 11.05ZM12.75 8H19C19.55 8 20.021 8.19567 20.413 8.587C20.8043 8.979 21 9.45 21 10V14H12.75V8Z" fill="#696A6B"/>
</svg>
