<svg width="24" height="25" viewBox="0 0 24 25" fill="none" xmlns="http://www.w3.org/2000/svg">
<path d="M12 21.0547C9.9 21.0547 8.04167 20.4172 6.425 19.1422C4.80833 17.8672 3.75833 16.238 3.275 14.2547C3.20833 14.0047 3.25833 13.7755 3.425 13.5672C3.59167 13.3589 3.81667 13.238 4.1 13.2047C4.36667 13.1714 4.60833 13.2214 4.825 13.3547C5.04167 13.488 5.19167 13.688 5.275 13.9547C5.675 15.4547 6.5 16.6797 7.75 17.6297C9 18.5797 10.4167 19.0547 12 19.0547C13.95 19.0547 15.6042 18.3755 16.9625 17.0172C18.3208 15.6589 19 14.0047 19 12.0547C19 10.1047 18.3208 8.45052 16.9625 7.09219C15.6042 5.73385 13.95 5.05469 12 5.05469C10.85 5.05469 9.775 5.32135 8.775 5.85469C7.775 6.38802 6.93333 7.12135 6.25 8.05469H8C8.28333 8.05469 8.52083 8.15052 8.7125 8.34219C8.90417 8.53385 9 8.77135 9 9.05469C9 9.33802 8.90417 9.57552 8.7125 9.76719C8.52083 9.95885 8.28333 10.0547 8 10.0547H4C3.71667 10.0547 3.47917 9.95885 3.2875 9.76719C3.09583 9.57552 3 9.33802 3 9.05469V5.05469C3 4.77135 3.09583 4.53385 3.2875 4.34219C3.47917 4.15052 3.71667 4.05469 4 4.05469C4.28333 4.05469 4.52083 4.15052 4.7125 4.34219C4.90417 4.53385 5 4.77135 5 5.05469V6.40469C5.85 5.33802 6.8875 4.51302 8.1125 3.92969C9.3375 3.34635 10.6333 3.05469 12 3.05469C13.25 3.05469 14.4208 3.29219 15.5125 3.76719C16.6042 4.24219 17.5542 4.88385 18.3625 5.69219C19.1708 6.50052 19.8125 7.45052 20.2875 8.54219C20.7625 9.63385 21 10.8047 21 12.0547C21 13.3047 20.7625 14.4755 20.2875 15.5672C19.8125 16.6589 19.1708 17.6089 18.3625 18.4172C17.5542 19.2255 16.6042 19.8672 15.5125 20.3422C14.4208 20.8172 13.25 21.0547 12 21.0547ZM12 14.0547C11.45 14.0547 10.9792 13.8589 10.5875 13.4672C10.1958 13.0755 10 12.6047 10 12.0547C10 11.5047 10.1958 11.0339 10.5875 10.6422C10.9792 10.2505 11.45 10.0547 12 10.0547C12.55 10.0547 13.0208 10.2505 13.4125 10.6422C13.8042 11.0339 14 11.5047 14 12.0547C14 12.6047 13.8042 13.0755 13.4125 13.4672C13.0208 13.8589 12.55 14.0547 12 14.0547Z" fill="#696A6B"/>
</svg>
