<svg width="20" height="24" viewBox="0 0 20 24" fill="none" xmlns="http://www.w3.org/2000/svg">
<path d="M10 0.0742188L20 3.57422V11.6342C20 15.7612 17.467 18.6462 15.104 20.4372C13.6786 21.5087 12.1143 22.3817 10.454 23.0322L10.367 23.0652L10.342 23.0742L10.335 23.0762L10.332 23.0772C10.332 23.0772 10.33 23.0772 10 22.1342L9.669 23.0782L9.665 23.0762L9.658 23.0742L9.633 23.0642L9.546 23.0322C9.07436 22.8498 8.61062 22.6477 8.156 22.4262C7.00838 21.8687 5.91674 21.2027 4.896 20.4372C2.534 18.6462 0 15.7612 0 11.6342V3.57422L10 0.0742188ZM10 22.1342L9.669 23.0782L10 23.1942L10.331 23.0782L10 22.1342ZM10 21.0622L10.009 21.0582C11.3927 20.4863 12.6986 19.7421 13.896 18.8432C16.034 17.2242 18 14.8572 18 11.6342V4.99422L10 2.19422L2 4.99422V11.6342C2 14.8572 3.966 17.2222 6.104 18.8442C7.304 19.7448 8.61305 20.49 10 21.0622ZM16.072 7.97722L9.001 15.0482L4.758 10.8062L6.173 9.39122L9 12.2202L14.657 6.56322L16.072 7.97722Z" fill="currentColor"/>
</svg>
