<svg width="24" height="24" viewBox="0 0 24 24" fill="none" xmlns="http://www.w3.org/2000/svg">
<g id="brand logo / sib irani">
<path id="Vector" d="M20 10.4411C19.7109 10.4892 19.4609 10.5373 19.2109 10.5693C17.5938 10.7857 16.7344 12.5651 17.4688 14.0559C17.7969 14.7211 18.3281 15.0017 18.9609 15.202C19.2031 15.2822 19.4609 15.3223 19.75 15.3944C19.4219 16.4925 18.9922 17.4944 18.3281 18.376C17.3828 19.6344 16.1563 20.3958 14.5859 20.476C14.2734 20.492 13.9063 20.3798 13.6328 20.2115C12.5781 19.5783 11.5625 19.5703 10.5078 20.2115C9.68751 20.7084 8.83595 20.468 8.03126 20.1313C6.57032 19.5222 5.6172 18.36 4.96095 16.9333C4.39064 15.707 4.03126 14.4085 4.01564 13.046C3.9922 12.2445 3.98439 11.4189 4.13282 10.6334C4.50782 8.56555 5.84376 7.45145 7.8047 7.0507C8.17189 6.97856 8.54689 6.92245 8.92189 6.89039C9.64845 6.82627 10.3203 6.93848 10.9688 7.35527C11.6641 7.80411 12.4609 7.80411 13.1563 7.35527C13.7813 6.95451 14.4219 6.77818 15.125 6.89039C15.9297 7.01863 16.75 7.15489 17.5078 7.4274C18.8359 7.92434 19.5625 9.03042 20 10.4411ZM17.9922 9.44721C17.8281 9.2869 17.7109 9.15866 17.5703 9.04645C16.9609 8.56555 16.2344 8.44532 15.5 8.32509C14.8672 8.2209 14.2969 8.26899 13.7109 8.61364C12.5234 9.29492 11.3203 9.16668 10.1406 8.50944C9.85939 8.35715 9.50782 8.28502 9.18751 8.277C8.78907 8.26899 8.38282 8.34914 7.9922 8.42929C6.50001 8.72585 5.6172 9.59148 5.4297 11.1384C5.32814 11.988 5.33595 12.8696 5.43751 13.7192C5.60157 15.162 6.04689 16.5245 6.96876 17.6707C7.52345 18.36 8.20314 18.8489 9.07032 19.0252C9.42189 19.0974 9.7422 19.0653 10.0781 18.881C11.3828 18.1516 12.7188 18.1516 14.0234 18.8729C14.3828 19.0733 14.7266 19.1054 15.1094 19.0172C16.3672 18.7287 17.1328 17.839 17.75 16.757C17.9219 16.4524 17.8906 16.3001 17.5859 16.0997C15.2813 14.6169 15.2422 11.2025 17.6172 9.69567C17.7266 9.62354 17.8359 9.5514 17.9922 9.44721Z" fill="#1AA55B"/>
<path id="Vector_2" d="M12.5391 6.14499C12.5703 6.08087 12.6016 6.00873 12.6484 5.96064C13.2734 5.21524 13.8984 4.46182 14.5313 3.72443C14.7969 3.41986 14.8672 3.42787 15.0625 3.78054C15.1953 4.02099 15.3281 4.26144 15.4766 4.54197C14.4922 5.11104 13.5469 5.65607 12.5937 6.20911C12.5703 6.18506 12.5547 6.16903 12.5391 6.14499Z" fill="#1AA55B"/>
<path id="Vector_3" d="M12.9453 3.5C13.2187 3.70839 13.4219 3.86869 13.6719 4.06106C13.2188 4.67822 12.7734 5.28736 12.3281 5.8885C12.2969 5.87247 12.2656 5.85644 12.2344 5.84041C12.4688 5.08699 12.6953 4.32555 12.9453 3.5Z" fill="#1AA55B"/>
<path id="Vector_4" d="M17.9922 9.44721C17.8281 9.5514 17.7266 9.62354 17.6172 9.69567C15.2422 11.2025 15.2812 14.6169 17.5859 16.0997C17.8984 16.3001 17.9219 16.4524 17.75 16.757C17.1328 17.839 16.3672 18.7287 15.1094 19.0172C14.7344 19.1054 14.3906 19.0733 14.0234 18.8729C12.7109 18.1516 11.3828 18.1516 10.0781 18.881C9.74218 19.0733 9.42187 19.0974 9.0703 19.0252C8.20312 18.8489 7.52343 18.36 6.96874 17.6707C6.04687 16.5245 5.60155 15.162 5.43749 13.7192C5.33593 12.8696 5.32812 11.98 5.42968 11.1384C5.61718 9.58346 6.49218 8.71783 7.98437 8.42127C8.37499 8.34112 8.78124 8.26097 9.17968 8.26899C9.49999 8.277 9.85155 8.34914 10.1328 8.50143C11.3125 9.15866 12.5156 9.29492 13.7031 8.60562C14.2969 8.26899 14.8594 8.21288 15.4922 8.31708C16.2266 8.4373 16.9531 8.55753 17.5625 9.03844C17.7109 9.15065 17.8281 9.2869 17.9922 9.44721Z" fill="white"/>
</g>
</svg>
