<svg width="24" height="24" viewBox="0 0 24 24" fill="none" xmlns="http://www.w3.org/2000/svg">
<g id="brand logo / sibapp">
<mask id="mask0_444_1528" style="mask-type:alpha" maskUnits="userSpaceOnUse" x="0" y="0" width="24" height="24">
<rect id="Rectangle 6943" width="24" height="24" fill="#C4C4C4"/>
</mask>
<g mask="url(#mask0_444_1528)">
<g id="Group 69968">
<path id="Vector" d="M14.7197 10.744C15.5418 11.4839 16.0965 12.4747 16.2974 13.5623C16.4983 14.6499 16.3343 15.7735 15.8308 16.7583C18.5046 12.2924 17.4938 8.77988 17.4938 8.77988C11.6874 5.86952 8.42584 8.34978 8.42584 8.34978C10.7476 8.34234 12.9898 9.19531 14.7197 10.744V10.744Z" fill="#308FFF"/>
<path id="Vector_2" d="M8.14609 11.7046C8.87613 10.8773 9.86182 10.3178 10.9464 10.1152C12.031 9.91258 13.1522 10.0784 14.1317 10.5863C9.68729 7.89819 6.19629 8.90893 6.19629 8.90893C3.32895 14.7511 5.76619 18.0271 5.76619 18.0271C5.75653 15.6989 6.60362 13.4485 8.14609 11.7046V11.7046Z" fill="#308FFF"/>
<path id="Vector_3" d="M9.17846 18.2135C8.35676 17.475 7.80177 16.4859 7.59957 15.3998C7.39738 14.3137 7.5593 13.1911 8.0602 12.2064C5.40074 16.6651 6.40431 20.1848 6.40431 20.1848C12.2107 23.0952 15.4651 20.6149 15.4651 20.6149C13.1446 20.62 10.9047 19.7643 9.17846 18.2135V18.2135Z" fill="#308FFF"/>
<path id="Vector_4" d="M18.1603 10.916C18.1693 13.2454 17.3194 15.4963 15.7732 17.2385C15.0443 18.0652 14.0599 18.6244 12.9765 18.827C11.8932 19.0297 10.7732 18.8641 9.79477 18.3568C14.232 21.0449 17.7301 20.027 17.7301 20.027C20.6262 14.192 18.1603 10.916 18.1603 10.916Z" fill="#308FFF"/>
<path id="Vector_5" d="M16.0958 2.40002C11.9453 2.47888 11.6729 6.10607 11.6729 6.10607C15.8449 6.45732 16.0958 2.40002 16.0958 2.40002Z" fill="#308FFF"/>
</g>
</g>
</g>
</svg>
