<svg width="24" height="24" viewBox="0 0 24 24" fill="none" xmlns="http://www.w3.org/2000/svg">
<g id="brand logo / sibche">
<path id="logo_1_" d="M16.6903 8.12474C18.3838 9.28986 19.4883 11.1104 19.8565 13.1493C20.2983 15.4067 19.7092 17.6642 18.2366 19.4118L18.1629 19.4847C18.0157 19.6303 17.7948 19.7031 17.5739 19.5575L17.5002 19.4847C16.7639 18.538 16.2485 17.4457 15.8067 16.3534C15.6594 15.6252 15.5858 14.9698 15.5858 14.2416C15.5122 13.0037 14.7758 11.9114 13.6713 11.4016C11.9041 10.455 9.69513 11.1104 8.73789 12.858C7.78066 14.6057 8.44336 16.7903 10.2106 17.737C10.4315 17.8826 10.6524 17.9554 10.8733 18.0283C11.7569 18.2467 12.7877 18.1739 13.5977 17.737C13.8186 17.6642 14.0395 17.737 14.1131 17.8826L15.8803 20.9411C16.0276 21.1595 15.9539 21.378 15.7331 21.5236C13.8922 22.4703 11.8305 22.7615 9.84239 22.2518C7.8543 21.7421 6.16073 20.4313 5.12987 18.7565C4.17263 17.1544 3.80447 15.2611 4.099 13.3678C4.9826 7.54219 11.9778 4.62939 16.6903 8.12474ZM17.8684 1.57095H17.942C18.1629 1.57095 18.3102 1.78941 18.3102 2.00787C18.3102 2.08069 18.3102 2.08069 18.3102 2.15351C17.8684 3.24581 17.1321 4.19247 16.1012 4.84785C14.9231 5.50323 13.5977 5.72169 12.3459 5.57605H12.2723C12.0514 5.57605 11.9041 5.35759 11.9041 5.13913V5.06631C12.3459 3.97401 13.0823 3.02735 14.0395 2.37197C15.144 1.64377 16.543 1.35249 17.8684 1.57095Z" fill="#1C5BF1"/>
</g>
</svg>
