<svg width="48" height="48" viewBox="0 0 48 48" fill="none" xmlns="http://www.w3.org/2000/svg">
<path fill-rule="evenodd" clip-rule="evenodd" d="M12.2747 0.9989L13.2683 0.842024C20.3787 -0.280675 27.6213 -0.280675 34.7318 0.842024L35.7253 0.9989C41.531 1.91558 46.0844 6.46909 47.0011 12.2747L47.158 13.2683C48.2807 20.3787 48.2807 27.6213 47.158 34.7318L47.0011 35.7253C46.0844 41.531 41.531 46.0844 35.7253 47.0011L34.7318 47.158C27.6213 48.2807 20.3787 48.2807 13.2683 47.158L12.2747 47.0011C6.46909 46.0844 1.91558 41.531 0.9989 35.7253L0.842024 34.7318C-0.280675 27.6213 -0.280675 20.3787 0.842024 13.2683L0.9989 12.2747C1.91558 6.46909 6.46909 1.91558 12.2747 0.9989Z" fill="#008EFA"/>
<path fill-rule="evenodd" clip-rule="evenodd" d="M10.0251 20.7477C10.6977 20.1717 10.8993 19.3022 10.8993 18.4553C10.8993 17.0773 9.99153 16.4789 8.81445 16.1287L8.25397 15.9594C7.87293 15.835 7.27885 15.6431 7.27885 15.1463C7.27885 14.6718 7.81681 14.4348 8.22037 14.4348C8.41959 14.4348 8.61574 14.4656 8.80405 14.5218C9.36572 14.6892 9.96594 14.4331 10.2332 13.9085L10.5457 13.2952C10.5493 13.2883 10.5466 13.2797 10.5399 13.2759C9.78975 12.8508 8.75373 12.5825 7.90636 12.5825C6.21383 12.5825 4.99189 13.7119 4.99189 15.44C4.99189 17.0886 5.89999 17.4502 7.27885 17.8453C7.74961 17.9809 8.61267 18.1955 8.61267 18.8167C8.61267 19.4151 8.06345 19.6749 7.54766 19.6749C6.79666 19.6749 6.14663 19.2797 5.5974 18.7942L4.66185 20.5669C4.65844 20.5735 4.66031 20.5816 4.66628 20.5858C5.5273 21.1911 6.56571 21.5497 7.62629 21.5497C8.4781 21.5497 9.36368 21.3124 10.0251 20.7477Z" fill="white"/>
<path fill-rule="evenodd" clip-rule="evenodd" d="M13.332 20.1001V18.3198C13.332 17.5969 13.5675 16.9758 14.397 16.9758C15.4059 16.9758 15.3162 17.9469 15.3162 18.5004V21.3091C15.3162 21.3173 15.3226 21.3238 15.3307 21.3238H16.1417C16.8124 21.3238 17.3561 20.776 17.3561 20.1001V17.7438C17.3561 16.3207 16.7397 15.3381 15.193 15.3381C14.3995 15.3381 13.8288 15.5741 13.3589 16.2692C13.3562 16.2731 13.3517 16.2755 13.3468 16.2755H13.3466C13.3386 16.2755 13.332 16.2692 13.332 16.2609V15.5447C13.332 15.5368 13.3255 15.5301 13.3175 15.5301H11.3065C11.2983 15.5301 11.292 15.5368 11.292 15.5447V21.3091C11.292 21.3173 11.2983 21.3238 11.3065 21.3238H12.1175C12.7884 21.3238 13.332 20.776 13.332 20.1001Z" fill="white"/>
<path fill-rule="evenodd" clip-rule="evenodd" d="M19.8505 18.4325C19.8505 17.7213 20.3325 17.1226 21.162 17.1226C21.9916 17.1226 22.4736 17.7213 22.4736 18.4325C22.4736 19.1667 21.9916 19.7313 21.162 19.7313C20.3325 19.7313 19.8505 19.1667 19.8505 18.4325ZM22.3797 20.6868C22.3822 20.6827 22.3868 20.6801 22.3918 20.6801C22.3998 20.6801 22.4063 20.6866 22.4063 20.6947V21.3091C22.4063 21.3173 22.4129 21.3238 22.4208 21.3238H23.2318C23.9026 21.3238 24.4464 20.776 24.4464 20.1001V15.5447C24.4464 15.5368 24.4401 15.5301 24.4319 15.5301H22.4208C22.4129 15.5301 22.4063 15.5368 22.4063 15.5447V16.0556C22.4063 16.0692 22.3897 16.0753 22.3809 16.0652C21.9529 15.577 21.2723 15.3381 20.6239 15.3381C18.9201 15.3381 17.7432 16.7612 17.7432 18.4214C17.7432 20.0816 18.9426 21.5158 20.6465 21.5158C21.3164 21.5158 22.0198 21.258 22.3797 20.6868Z" fill="white"/>
<path fill-rule="evenodd" clip-rule="evenodd" d="M28.3551 19.7313C27.5254 19.7313 27.0434 19.1665 27.0434 18.4325C27.0434 17.7211 27.5254 17.1226 28.3551 17.1226C29.1845 17.1226 29.6665 17.7211 29.6665 18.4325C29.6665 19.1665 29.1845 19.7313 28.3551 19.7313ZM28.8707 15.3381C28.2007 15.3381 27.5082 15.6071 27.1375 16.1786C27.1348 16.1826 27.13 16.1852 27.1254 16.1852H27.1253C27.1173 16.1852 27.1108 16.1786 27.1108 16.1706V15.5301H25.0708V23.7669H25.8962C26.567 23.7669 27.1108 23.2191 27.1108 22.5434V20.7753C27.1108 20.7736 27.1128 20.7727 27.114 20.7743C27.5512 21.2797 28.2333 21.5156 28.8932 21.5156C30.597 21.5156 31.7739 20.1152 31.7739 18.4439C31.7739 16.7837 30.5857 15.3381 28.8707 15.3381Z" fill="white"/>
<path fill-rule="evenodd" clip-rule="evenodd" d="M35.4395 19.7313C34.6099 19.7313 34.128 19.1665 34.128 18.4325C34.128 17.7211 34.6099 17.1226 35.4395 17.1226C36.269 17.1226 36.7512 17.7211 36.7512 18.4325C36.7512 19.1665 36.269 19.7313 35.4395 19.7313ZM35.9551 15.3381C35.2852 15.3381 34.5928 15.6071 34.222 16.1786C34.2193 16.1826 34.2149 16.1852 34.2099 16.1852H34.2097C34.2017 16.1852 34.1952 16.1786 34.1952 16.1706V15.5447C34.1952 15.5368 34.1888 15.5301 34.1807 15.5301H32.1698C32.1616 15.5301 32.1553 15.5368 32.1553 15.5447V23.7523C32.1553 23.7604 32.1616 23.7669 32.1698 23.7669H32.9806C33.6515 23.7669 34.1952 23.2191 34.1952 22.5434V20.8088C34.1952 20.7952 34.2118 20.7892 34.2205 20.7994C34.6587 21.2876 35.3288 21.5156 35.9777 21.5156C37.6814 21.5156 38.8584 20.1152 38.8584 18.4439C38.8584 16.7837 37.6702 15.3381 35.9551 15.3381Z" fill="white"/>
<path fill-rule="evenodd" clip-rule="evenodd" d="M41.2454 12.8085L39.8628 18.1578H41.0122C41.5685 18.1578 42.0542 17.7787 42.1932 17.2361L43.3398 12.8085H41.2454Z" fill="white"/>
<path fill-rule="evenodd" clip-rule="evenodd" d="M40.5526 18.9144C39.8401 18.9144 39.2617 19.4972 39.2617 20.2148C39.2617 20.9324 39.8401 21.5153 40.5526 21.5153C41.2648 21.5153 41.8432 20.9324 41.8432 20.2148C41.8432 19.4972 41.2648 18.9144 40.5526 18.9144Z" fill="white"/>
<path fill-rule="evenodd" clip-rule="evenodd" d="M39.9189 12.916H39.9217L40.0818 13.3658H40.1528L40.3131 12.916H40.316V13.3658H40.4364V12.8085H40.242L40.1175 13.1382L39.993 12.8085H39.7983V13.3658H39.9189V12.916Z" fill="white"/>
<path fill-rule="evenodd" clip-rule="evenodd" d="M39.4302 13.3658H39.5629V12.916H39.7313V12.8085H39.2617V12.916H39.4302V13.3658Z" fill="white"/>
<path fill-rule="evenodd" clip-rule="evenodd" d="M7.59774 28.2242H6.86599V26.0557H7.59774C8.40806 26.0557 8.81305 26.4172 8.81305 27.14C8.81305 27.8629 8.40806 28.2242 7.59774 28.2242ZM8.17183 24.233H4.66016V32.9305H6.86599V30.0467H8.17183C9.12444 30.0467 9.85448 29.7931 10.3609 29.2854C10.8674 28.7779 11.1207 28.0627 11.1207 27.14C11.1207 26.2171 10.8674 25.502 10.3609 24.9943C9.85448 24.4869 9.12444 24.233 8.17183 24.233Z" fill="white"/>
<path fill-rule="evenodd" clip-rule="evenodd" d="M16.1576 30.4965C16.086 30.6581 15.9923 30.8004 15.8761 30.9235C15.7598 31.0466 15.6209 31.1425 15.4597 31.2116C15.2983 31.281 15.1276 31.3156 14.9478 31.3156C14.7599 31.3156 14.5855 31.281 14.4242 31.2116C14.2628 31.1425 14.1241 31.0466 14.0078 30.9235C13.8915 30.8004 13.7996 30.6562 13.7319 30.4908C13.6645 30.3255 13.6306 30.1468 13.6306 29.9544C13.6306 29.7699 13.6645 29.5987 13.7319 29.4412C13.7996 29.2836 13.8915 29.1432 14.0078 29.0201C14.1241 28.8973 14.2628 28.801 14.4242 28.7317C14.5855 28.6625 14.7599 28.6279 14.9478 28.6279C15.1276 28.6279 15.2983 28.6625 15.4597 28.7317C15.6209 28.801 15.7598 28.8973 15.8761 29.0201C15.9923 29.1432 16.086 29.2873 16.1576 29.4527C16.2288 29.6181 16.2644 29.793 16.2644 29.9775C16.2644 30.162 16.2288 30.3351 16.1576 30.4965ZM16.1969 27.6013C15.7241 27.0862 15.1276 26.8285 14.4075 26.8285C13.9798 26.8285 13.5893 26.9111 13.2368 27.0764C12.884 27.242 12.5802 27.4669 12.3251 27.7514C12.0698 28.0358 11.871 28.3683 11.7285 28.749C11.5859 29.1296 11.5146 29.5315 11.5146 29.9544C11.5146 30.4083 11.5879 30.8274 11.734 31.2116C11.8805 31.5962 12.085 31.9309 12.3477 32.2154C12.6101 32.4998 12.9179 32.7209 13.2706 32.8785C13.623 33.036 14.0097 33.115 14.4299 33.115C15.1727 33.115 15.7617 32.8344 16.1969 32.2728V32.9305H18.2454V27.013H16.1969V27.6013Z" fill="white"/>
<path fill-rule="evenodd" clip-rule="evenodd" d="M22.7249 30.0468L21.1828 27.0129H18.8193L21.6105 32.1231L19.6409 35.8836H21.9259L26.5632 27.0129H24.2219L22.7249 30.0468Z" fill="white"/>
</svg>
