<svg width="14" height="13" viewBox="0 0 14 13" fill="none" xmlns="http://www.w3.org/2000/svg">
<path d="M6.99004 10.75L3.74033 12.6875C3.62923 12.7569 3.51119 12.7881 3.3862 12.7808C3.26121 12.7742 3.15011 12.7361 3.0529 12.6667C2.95568 12.5972 2.8793 12.5036 2.82375 12.3858C2.7682 12.2675 2.76126 12.1389 2.80292 12L3.65701 8.33333L0.803104 5.85417C0.692003 5.75694 0.622565 5.64583 0.59479 5.52083C0.567015 5.39583 0.573959 5.27778 0.615622 5.16667C0.657284 5.05556 0.723389 4.96167 0.813937 4.885C0.903928 4.80889 1.01836 4.76389 1.15724 4.75L4.92773 4.41667L6.40676 0.9375C6.46231 0.8125 6.5423 0.718611 6.64673 0.655833C6.75061 0.593611 6.86505 0.5625 6.99004 0.5625C7.11502 0.5625 7.22974 0.593611 7.33417 0.655833C7.43805 0.718611 7.51777 0.8125 7.57332 0.9375L9.05235 4.41667L12.8228 4.75C12.9617 4.76389 13.0764 4.80889 13.167 4.885C13.257 4.96167 13.3228 5.05556 13.3644 5.16667C13.4061 5.27778 13.4131 5.39583 13.3853 5.52083C13.3575 5.64583 13.2881 5.75694 13.177 5.85417L10.3231 8.33333L11.1772 12C11.2188 12.1389 11.2119 12.2675 11.1563 12.3858C11.1008 12.5036 11.0244 12.5972 10.9272 12.6667C10.83 12.7361 10.7189 12.7742 10.5939 12.7808C10.4689 12.7881 10.3508 12.7569 10.2397 12.6875L6.99004 10.75Z" fill="#F68B1F"/>
</svg>
