<svg width="18" height="18" viewBox="0 0 18 18" fill="none" xmlns="http://www.w3.org/2000/svg">
<path d="M0.5 17.4469V15.9469H15.275V17.4469H0.5ZM4 13.5469C3.03333 13.5469 2.20833 13.2052 1.525 12.5219C0.841667 11.8385 0.5 11.0135 0.5 10.0469V0.546875H15.275C15.775 0.546875 16.2 0.721875 16.55 1.07187C16.9 1.42187 17.075 1.85521 17.075 2.37188V4.87187C17.075 5.37187 16.9 5.79687 16.55 6.14687C16.2 6.49687 15.775 6.67188 15.275 6.67188H13.5V10.0469C13.5 11.0135 13.1583 11.8385 12.475 12.5219C11.7917 13.2052 10.9667 13.5469 10 13.5469H4ZM13.5 5.17188H15.275C15.3583 5.17188 15.4293 5.14254 15.488 5.08387C15.546 5.02587 15.575 4.95521 15.575 4.87187V2.37188C15.575 2.27188 15.546 2.19254 15.488 2.13388C15.4293 2.07588 15.3583 2.04688 15.275 2.04688H13.5V5.17188ZM4 12.0469H10C10.55 12.0469 11.021 11.8509 11.413 11.4589C11.8043 11.0675 12 10.5969 12 10.0469V2.04688H5.95V2.77188L7.6 4.14688C7.63333 4.18021 7.7 4.31354 7.8 4.54688V8.17188C7.8 8.30521 7.75 8.42187 7.65 8.52187C7.55 8.62187 7.43333 8.67188 7.3 8.67188H3.7C3.56667 8.67188 3.45 8.62187 3.35 8.52187C3.25 8.42187 3.2 8.30521 3.2 8.17188V4.54688C3.2 4.51354 3.26667 4.38021 3.4 4.14688L5.05 2.77188V2.04688H2V10.0469C2 10.5969 2.196 11.0675 2.588 11.4589C2.97933 11.8509 3.45 12.0469 4 12.0469V12.0469ZM5.05 2.04688H5.95H5.05Z" fill="#1AA55B"/>
</svg>
