<svg width="44" height="44" viewBox="0 0 44 44" fill="none" xmlns="http://www.w3.org/2000/svg">
<path d="M18.9693 25.825L14.3109 21.2563C13.9137 20.8667 13.4082 20.6719 12.7943 20.6719C12.1804 20.6719 11.6748 20.8667 11.2776 21.2563C10.8804 21.6458 10.6818 22.1417 10.6818 22.7438C10.6818 23.3458 10.8804 23.8417 11.2776 24.2313L17.4526 30.2875C17.8859 30.7125 18.3915 30.925 18.9693 30.925C19.5471 30.925 20.0526 30.7125 20.4859 30.2875L32.7276 18.2812C33.1248 17.8917 33.3234 17.3958 33.3234 16.7938C33.3234 16.1917 33.1248 15.6958 32.7276 15.3062C32.3304 14.9167 31.8248 14.7219 31.2109 14.7219C30.597 14.7219 30.0915 14.9167 29.6943 15.3062L18.9693 25.825ZM22.0026 43.25C19.0054 43.25 16.1887 42.6922 13.5526 41.5766C10.9165 40.4609 8.62344 38.9469 6.67344 37.0344C4.72344 35.1219 3.17969 32.8729 2.04219 30.2875C0.904688 27.7021 0.335938 24.9396 0.335938 22C0.335938 19.0604 0.904688 16.2979 2.04219 13.7125C3.17969 11.1271 4.72344 8.87813 6.67344 6.96562C8.62344 5.05312 10.9165 3.53906 13.5526 2.42344C16.1887 1.30781 19.0054 0.75 22.0026 0.75C24.9998 0.75 27.8165 1.30781 30.4526 2.42344C33.0887 3.53906 35.3818 5.05312 37.3318 6.96562C39.2818 8.87813 40.8255 11.1271 41.963 13.7125C43.1005 16.2979 43.6693 19.0604 43.6693 22C43.6693 24.9396 43.1005 27.7021 41.963 30.2875C40.8255 32.8729 39.2818 35.1219 37.3318 37.0344C35.3818 38.9469 33.0887 40.4609 30.4526 41.5766C27.8165 42.6922 24.9998 43.25 22.0026 43.25ZM22.0026 39C26.8415 39 30.9401 37.3531 34.2984 34.0594C37.6568 30.7656 39.3359 26.7458 39.3359 22C39.3359 17.2542 37.6568 13.2344 34.2984 9.94063C30.9401 6.64688 26.8415 5 22.0026 5C17.1637 5 13.0651 6.64688 9.70677 9.94063C6.34844 13.2344 4.66927 17.2542 4.66927 22C4.66927 26.7458 6.34844 30.7656 9.70677 34.0594C13.0651 37.3531 17.1637 39 22.0026 39Z" fill="#008A21"/>
</svg>
