<svg viewBox="0 0 34 32" fill="none" xmlns="http://www.w3.org/2000/svg">
<g clip-path="url(#clip0_1697_21937)">
<path d="M33.1694 26.4731C33.1588 26.5028 33.1416 26.5325 33.1377 26.5629C33.0432 27.3546 32.787 28.0921 32.3968 28.7848C32.1934 29.1453 31.924 29.4484 31.5741 29.6716C31.4546 29.7475 31.407 29.8432 31.3912 29.9779C31.3634 30.2123 31.3344 30.4481 31.2809 30.6778C31.1852 31.0919 30.9818 31.4445 30.6299 31.6987C30.2502 31.9727 29.8157 32.0526 29.3726 31.9674C28.5572 31.8109 27.7331 31.7957 26.9097 31.7568C26.3333 31.7297 25.7562 31.7013 25.1811 31.6498C24.6872 31.6056 24.2045 31.4933 23.7456 31.2965C23.1381 31.0364 22.6627 30.6336 22.3596 30.0367C22.2196 29.762 22.0533 29.5019 21.8479 29.2701C21.6769 29.0773 21.4854 28.9049 21.2127 28.8931C21.0384 28.8858 20.8601 28.9016 20.6884 28.932C20.2665 29.008 19.8485 29.105 19.4272 29.1823C18.1819 29.4107 16.9861 29.2344 15.8332 28.73C14.8745 28.31 14.0392 27.7085 13.2832 26.9914C12.4347 26.1858 11.7354 25.2647 11.1537 24.2518C11.0197 24.0181 10.8777 23.7883 10.7225 23.5684C10.6057 23.4034 10.4703 23.2488 10.3257 23.1069C10.1421 22.9273 9.90972 22.8335 9.65286 22.8375C9.42308 22.8408 9.18933 22.85 8.96483 22.8943C8.0589 23.0725 7.29428 22.7543 6.79377 21.9718C6.51975 21.5433 6.36194 21.0699 6.26884 20.5753C6.1995 20.2082 6.15526 19.8371 6.1064 19.4667C6.05028 19.0421 5.87992 18.673 5.56892 18.3798C5.31669 18.1428 5.05389 17.9163 4.78581 17.6971C4.32228 17.3174 3.83828 16.9615 3.41239 16.5369C3.06705 16.1929 2.76398 15.8178 2.554 15.3748C2.13141 14.4827 2.17763 13.5926 2.59098 12.7158C2.72832 12.4239 2.91584 12.1558 3.08026 11.8765C3.09941 11.8442 3.11922 11.8118 3.14167 11.7729C3.10931 11.7379 3.08224 11.7042 3.05054 11.6751C2.18622 10.8821 1.58072 9.91677 1.14889 8.83388C0.831945 8.03954 0.617348 7.21549 0.425202 6.3855C0.297104 5.83415 0.167026 5.2828 0.0514734 4.72881C-0.11162 3.95032 0.114202 3.29399 0.70979 2.76905C1.02277 2.49304 1.36943 2.27052 1.78343 2.18072C2.34073 2.05989 2.83067 2.20119 3.24335 2.59275C3.35032 2.69444 3.43748 2.81659 3.53322 2.93016C3.64679 3.06486 3.75244 3.20551 3.87328 3.33294C4.13277 3.60829 4.44311 3.67894 4.78779 3.51453C5.01031 3.40822 5.22689 3.28672 5.43488 3.15466C5.62438 3.03383 5.7987 2.88856 5.98029 2.75452C6.21931 2.57756 6.46494 2.41051 6.73831 2.29033C7.05855 2.14903 7.39134 2.09555 7.73668 2.16488C8.17908 2.25336 8.49998 2.51351 8.73571 2.88922C8.9437 3.22069 9.05133 3.58914 9.13189 3.96749C9.27715 4.65024 9.40921 5.33563 9.56504 6.01573C9.69644 6.58887 9.86878 7.15144 10.0761 7.70345C10.1256 7.83485 10.1956 7.91937 10.3303 7.97814C11.091 8.31027 11.8477 8.6523 12.6031 8.99632C12.718 9.04848 12.8071 9.05376 12.9233 8.98773C13.9184 8.42318 14.9174 7.86655 15.9151 7.30727C15.9574 7.2835 15.997 7.25643 16.0604 7.21615C15.9858 7.16267 15.9257 7.11843 15.8649 7.07617C14.1746 5.89358 12.4849 4.71098 10.7932 3.53037C10.6063 3.39963 10.4611 3.24248 10.3983 3.01996C10.292 2.64161 10.4439 2.256 10.7873 2.05395C11.0903 1.87567 11.4007 1.70795 11.7077 1.53627C12.5331 1.07473 13.3624 0.61912 14.1832 0.149649C14.5344 -0.0510817 14.8613 -0.0457993 15.2093 0.156912C15.9792 0.605254 16.7583 1.03775 17.5302 1.48213C17.6339 1.54156 17.7098 1.5442 17.8141 1.48411C18.2763 1.21801 18.7438 0.960494 19.2093 0.699677C19.387 0.600632 19.5738 0.550449 19.7792 0.584124C20.1417 0.642891 20.423 0.905029 20.4903 1.25103C20.5616 1.61749 20.4117 1.96349 20.0922 2.15563C19.9225 2.25732 19.7468 2.3491 19.5745 2.44682C19.5283 2.47324 19.4847 2.50295 19.4246 2.54125C19.4695 2.57228 19.4979 2.59539 19.5289 2.61322C20.2315 3.01336 20.9354 3.41086 21.6359 3.8143C21.7317 3.8691 21.801 3.85986 21.8921 3.811C23.6287 2.8846 25.3673 1.96084 27.1052 1.03643C27.2848 0.940685 27.4631 0.842961 27.6446 0.75052C29.6777 -0.29077 32.1816 0.984265 32.5342 3.2405C32.7547 4.65156 32.1003 6.02432 30.8636 6.73942C30.3875 7.01476 29.9088 7.28482 29.4308 7.55819C29.3793 7.5879 29.3297 7.6196 29.2591 7.66317C29.3244 7.70609 29.372 7.73845 29.4208 7.76882C29.6645 7.92003 29.8976 8.0851 30.099 8.29178C30.5176 8.72229 30.7263 9.24459 30.7474 9.83687C30.7566 10.0878 30.7243 10.3413 30.7012 10.5929C30.6761 10.8722 30.6464 11.1509 30.6067 11.4282C30.5117 12.0898 30.307 12.7224 30.0792 13.3483C29.9194 13.7874 29.7497 14.2226 29.6526 14.6821C29.5846 15.0057 29.5866 15.3239 29.6843 15.6435C29.815 16.0701 29.8177 16.5105 29.8144 16.9516C29.8117 17.2533 29.821 17.5558 29.8296 17.8575C29.8349 18.0642 29.9471 18.1943 30.1399 18.2576C30.239 18.29 30.3387 18.3217 30.4397 18.3481C31.2235 18.5535 31.6784 19.2659 31.6012 20.0801C31.5483 20.636 31.3166 21.1108 30.931 21.5169C30.7731 21.6833 30.6305 21.8688 30.5084 22.0629C30.3281 22.3489 30.3453 22.5053 30.5691 22.7629C30.6946 22.9075 30.8326 23.0455 30.9818 23.165C31.3086 23.4258 31.65 23.6675 31.9782 23.9263C32.1934 24.096 32.4113 24.2677 32.5995 24.4658C32.9013 24.784 33.0875 25.167 33.141 25.6087C33.1443 25.6345 33.1614 25.6583 33.172 25.6827V26.4751L33.1694 26.4731ZM8.56667 20.7866C8.76212 20.7608 8.94106 20.7318 9.12066 20.7153C9.84369 20.6479 10.5363 20.7483 11.1781 21.1075C11.6628 21.3789 12.0524 21.7572 12.3687 22.2076C12.6024 22.5403 12.8216 22.8844 13.0276 23.235C13.4304 23.921 13.89 24.5635 14.4407 25.1386C15.0812 25.8088 15.7983 26.3753 16.6494 26.7577C17.4431 27.1149 18.2678 27.2423 19.1281 27.0726C19.5382 26.9921 19.9462 26.9016 20.3563 26.825C20.7584 26.7497 21.1645 26.7273 21.5712 26.7874C22.2078 26.8818 22.7472 27.1703 23.2081 27.6127C23.634 28.0215 23.9575 28.5048 24.2322 29.0218C24.3088 29.1664 24.4138 29.2681 24.563 29.3262C24.6449 29.3586 24.7268 29.3903 24.8113 29.4147C25.1566 29.5144 25.5119 29.5586 25.8691 29.5771C26.4568 29.6075 27.0458 29.6207 27.6334 29.6504C28.0507 29.6716 28.4674 29.7072 28.884 29.7382C29.0082 29.7475 29.1323 29.764 29.2644 29.7785C29.2802 29.6841 29.2954 29.6042 29.3073 29.5236C29.403 28.8785 29.6625 28.3358 30.2535 27.9984C30.4423 27.8907 30.5645 27.7257 30.6543 27.5309C30.8365 27.134 30.9574 26.72 31.0379 26.2902C31.0888 26.0214 31.0161 25.8465 30.791 25.6906C30.4153 25.4318 30.0541 25.1512 29.6955 24.8692C29.331 24.5826 28.9989 24.2611 28.7361 23.8755C28.1927 23.0758 28.1036 22.2293 28.4832 21.3373C28.6397 20.9695 28.8629 20.6433 29.1178 20.3376C29.1547 20.2933 29.1884 20.2465 29.2294 20.1943C29.1719 20.1633 29.1343 20.1421 29.0953 20.1223C28.8688 20.0068 28.6589 19.8668 28.4733 19.6918C27.9702 19.2164 27.7351 18.6175 27.6948 17.9414C27.6704 17.5307 27.6929 17.1167 27.6829 16.7046C27.679 16.5356 27.6678 16.3606 27.6222 16.1995C27.4327 15.5326 27.4301 14.865 27.574 14.1922C27.6823 13.6851 27.8625 13.2004 28.0375 12.7145C28.2033 12.2542 28.3815 11.796 28.4608 11.3113C28.5261 10.9105 28.5598 10.5051 28.6173 10.1023C28.6496 9.87451 28.5611 9.72991 28.3657 9.61898C28.0745 9.45324 27.7906 9.27298 27.5066 9.0947C27.3911 9.02207 27.2835 8.93623 27.1659 8.85237C27.1105 8.88208 27.0576 8.90982 27.0055 8.93953C25.7205 9.67246 24.4356 10.4061 23.1507 11.139C21.7132 11.9591 20.2751 12.7792 18.8376 13.6006C18.7075 13.6752 18.5735 13.7359 18.4236 13.7544C17.692 13.8436 16.961 13.932 16.2294 14.0205C15.4595 14.1136 14.6903 14.2054 13.9204 14.2978C13.1181 14.3949 12.3152 14.49 11.5136 14.591C11.2197 14.628 10.9761 14.5422 10.7562 14.348C10.0728 13.7425 9.38478 13.1417 8.69873 12.5388C8.04966 11.969 7.40191 11.3978 6.75151 10.8293C6.56465 10.6662 6.44447 10.4694 6.43061 10.2192C6.41014 9.8547 6.56465 9.58002 6.88093 9.40042C7.254 9.18846 7.62971 8.98113 8.00344 8.77181C8.05494 8.74276 8.10578 8.71107 8.16587 8.67475C7.65084 7.35878 7.3405 5.99724 7.07902 4.59873C6.98658 4.66674 6.91659 4.71825 6.84594 4.76909C6.4042 5.09066 5.94001 5.37392 5.41969 5.55286C4.92183 5.72388 4.41538 5.78595 3.89308 5.68426C3.30674 5.56937 2.8201 5.27422 2.39223 4.8688C2.35393 4.83248 2.31365 4.79748 2.2463 4.73542C2.26149 4.82522 2.26809 4.87738 2.27932 4.92888C2.30573 5.05236 2.33478 5.17583 2.36251 5.29865C2.52693 6.02234 2.68804 6.74668 2.91518 7.45452C3.25524 8.5143 3.76103 9.46843 4.60819 10.2198C4.88155 10.4628 5.08294 10.7699 5.21302 11.1152C5.45799 11.7669 5.39724 12.3764 4.95286 12.9317C4.85316 13.0558 4.75543 13.1846 4.67818 13.3226C4.58508 13.4896 4.50188 13.6646 4.43651 13.8442C4.35265 14.0727 4.37444 14.3038 4.50716 14.5098C4.60819 14.6656 4.71383 14.8261 4.84854 14.9515C5.15755 15.2401 5.48374 15.5108 5.80663 15.7842C6.15526 16.0787 6.51777 16.358 6.85782 16.6617C7.38738 17.1338 7.79478 17.6944 8.02721 18.3732C8.16719 18.7819 8.22662 19.2058 8.27086 19.6331C8.30321 19.9454 8.3567 20.2544 8.463 20.5509C8.49206 20.6321 8.53101 20.7093 8.56535 20.7879L8.56667 20.7866ZM8.55941 10.3645C8.61949 10.4179 8.65977 10.4549 8.70137 10.4899C8.98596 10.7329 9.27055 10.9759 9.55514 11.2182C10.154 11.7286 10.7536 12.2377 11.3498 12.7508C11.4271 12.8168 11.4984 12.8459 11.6027 12.8267C11.7704 12.797 11.9408 12.7864 12.1105 12.766C13.0877 12.6497 14.0643 12.5315 15.0415 12.4167C15.9257 12.3123 16.8105 12.2106 17.6953 12.107C17.8042 12.0944 17.9079 12.0693 18.0076 12.0139C21.9271 9.8415 25.848 7.67176 29.7682 5.50004C29.8784 5.43929 29.9867 5.37062 30.0838 5.29139C30.8425 4.67335 30.8927 3.55876 30.196 2.87206C29.6678 2.35108 28.8616 2.23091 28.1808 2.57888C27.5199 2.9163 26.8622 3.26097 26.2032 3.60168C24.8113 4.32075 23.4181 5.03783 22.0275 5.76086C21.6954 5.93386 21.3817 5.92791 21.0562 5.74237C20.5068 5.42939 19.9502 5.12895 19.3969 4.82323C17.8082 3.94636 16.2195 3.07014 14.6322 2.19063C14.5404 2.13979 14.4711 2.13186 14.3753 2.18469C13.8464 2.47786 13.3135 2.76377 12.782 3.05298C12.7404 3.07543 12.7015 3.10316 12.6466 3.13816C12.7048 3.18107 12.747 3.21409 12.7913 3.2438C14.2604 4.24217 15.7302 5.23988 17.1994 6.23825C17.4635 6.41719 17.7316 6.59019 17.9885 6.77904C18.2651 6.98241 18.3794 7.26171 18.3127 7.60375C18.2592 7.87711 18.0875 8.05803 17.8472 8.18877C16.2717 9.04386 14.6969 9.8996 13.1247 10.7606C12.8097 10.9336 12.508 10.9435 12.1805 10.7969C11.4079 10.451 10.6288 10.1201 9.85359 9.77943C9.76445 9.74047 9.69446 9.73981 9.60928 9.78933C9.40459 9.90819 9.19395 10.0158 8.98662 10.1287C8.85192 10.202 8.71854 10.2766 8.56007 10.3638L8.55941 10.3645Z" fill="white"/>
</g>
<defs>
<clipPath id="clip0_1697_21937">
<rect width="33.17" height="32" fill="white"/>
</clipPath>
</defs>
</svg>
