<svg width="33" height="32" viewBox="0 0 33 32" fill="none" xmlns="http://www.w3.org/2000/svg">
<path d="M27.1068 16.7917H25.8698V11.9922C25.8698 10.8832 25.5506 9.84753 24.9997 8.9716L26.3197 5.34498C26.4598 4.95978 26.2613 4.53392 25.8761 4.39369L23.0863 3.37833C22.7011 3.23816 22.2753 3.43672 22.1351 3.82191L21.199 6.39374C20.8682 6.33362 20.5276 6.3021 20.1797 6.3021H13.1536C12.8058 6.3021 12.4651 6.33362 12.1343 6.39369L11.1983 3.82191C11.0581 3.43672 10.6322 3.23816 10.247 3.37833L7.45731 4.39369C7.07211 4.53387 6.87355 4.95978 7.01373 5.34498L8.33373 8.9716C7.78278 9.84753 7.46354 10.8832 7.46354 11.9922V16.7917H6.22656C4.99884 16.7917 4 17.7905 4 19.0182V23.4714C4 24.9719 5.2208 26.1927 6.72135 26.1927H7.47532C7.6008 27.5777 8.76781 28.6667 10.1849 28.6667H23.1484C24.5656 28.6667 25.7326 27.5777 25.858 26.1927H26.612C28.1125 26.1927 29.3333 24.9719 29.3333 23.4714V19.0182C29.3333 17.7905 28.3345 16.7917 27.1068 16.7917ZM7.46354 24.7083H6.72135C6.03928 24.7083 5.48437 24.1534 5.48437 23.4714V21.2448H7.46354V24.7083ZM7.46354 19.7604H5.48437V19.0182C5.48437 18.609 5.81732 18.2761 6.22656 18.2761H7.46354V19.7604ZM23.2761 5.02702L24.671 5.53473L23.8896 7.68138C23.5052 7.35007 23.0761 7.06938 22.6128 6.84929L23.2761 5.02702ZM10.0572 5.02702L10.7205 6.84929C10.2572 7.06938 9.82815 7.35007 9.4437 7.68138L8.66237 5.53468L10.0572 5.02702ZM24.3854 25.9453C24.3854 26.6274 23.8305 27.1823 23.1484 27.1823H10.1849C9.50283 27.1823 8.94792 26.6274 8.94792 25.9453V15.8993C9.31936 16.0898 9.73958 16.1979 10.1849 16.1979H11.9167V16.9401C11.9167 17.35 12.249 17.6823 12.6589 17.6823C13.0687 17.6823 13.401 17.35 13.401 16.9401V16.1979H19.9323V16.9401C19.9323 17.35 20.2646 17.6823 20.6745 17.6823C21.0844 17.6823 21.4167 17.35 21.4167 16.9401V16.1979H23.1484C23.5937 16.1979 24.014 16.0897 24.3854 15.8993V25.9453ZM24.3854 13.4766C24.3854 14.1587 23.8305 14.7136 23.1484 14.7136H21.4167V13.9714C21.4167 13.5615 21.0844 13.2292 20.6745 13.2292C20.2646 13.2292 19.9323 13.5615 19.9323 13.9714V14.7136H13.401V13.9714C13.401 13.5615 13.0687 13.2292 12.6589 13.2292C12.249 13.2292 11.9167 13.5615 11.9167 13.9714V14.7136H10.1849C9.50283 14.7136 8.94792 14.1587 8.94792 13.4766V11.9922C8.94792 9.67317 10.8346 7.78648 13.1536 7.78648H20.1797C22.4987 7.78648 24.3854 9.67317 24.3854 11.9922V13.4766ZM27.849 23.4714C27.849 24.1534 27.294 24.7083 26.612 24.7083H25.8698V21.2448H27.849V23.4714ZM27.849 19.7604H25.8698V18.2761H27.1068C27.516 18.2761 27.849 18.609 27.849 19.0182V19.7604Z" />
<path d="M22.1588 19.2656H11.1744C10.7646 19.2656 10.4323 19.5979 10.4323 20.0078V24.9557C10.4323 25.3656 10.7646 25.6979 11.1744 25.6979H22.1588C22.5687 25.6979 22.901 25.3656 22.901 24.9557V20.0078C22.901 19.5979 22.5687 19.2656 22.1588 19.2656ZM21.4166 24.2135H11.9166V20.75H21.4166V24.2135Z" />
</svg>
