<svg viewBox="0 0 32 32" fill="none" xmlns="http://www.w3.org/2000/svg">
<g clip-path="url(#clip0_1645_28255)">
<path d="M30.1839 9.12075C30.9053 8.70126 31.4334 8.01571 31.6549 7.21123C31.8765 6.40674 31.7738 5.54746 31.369 4.81782C30.5125 3.28609 28.5658 2.73569 27.0501 3.58475L26.2287 4.02102C23.7853 1.93938 20.7656 0.651755 17.5719 0.3297C14.3783 0.00764443 11.1623 0.666456 8.35246 2.21835C0.720459 6.43382 -2.05927 16.0722 2.15513 23.7042C3.15443 25.5254 4.50499 27.1303 6.12866 28.426C7.75232 29.7218 9.61685 30.6826 11.6143 31.253C13.6087 31.8331 15.6983 32.0124 17.7623 31.7804C19.8264 31.5485 21.824 30.9099 23.6399 29.9016C25.4614 28.9029 27.0666 27.5527 28.3624 25.9292C29.6582 24.3056 30.6189 22.441 31.1887 20.4434C32.2821 16.6764 31.9236 12.6364 30.1839 9.12075ZM27.817 4.98955C28.5775 4.56289 29.545 4.83702 29.9727 5.59862C30.3973 6.36022 30.1242 7.32662 29.3583 7.75542L18.2149 14.1085L12.2234 14.837L9.51833 12.4616L10.6063 11.8536L12.9839 12.9202C13.0981 12.9708 13.2224 12.9942 13.3471 12.9886C13.4719 12.9831 13.5936 12.9487 13.7029 12.8882L18.2373 10.3464C18.3554 10.2801 18.4548 10.185 18.5262 10.0699C18.5975 9.95477 18.6385 9.82341 18.6452 9.68814C18.6519 9.55286 18.6242 9.4181 18.5646 9.29647C18.505 9.17485 18.4155 9.07034 18.3045 8.99275L13.3253 5.50902L15.0618 4.53835L21.2549 8.05942C21.3722 8.12633 21.5046 8.16241 21.6396 8.16427C21.7747 8.16614 21.908 8.13373 22.0271 8.07009L26.457 5.71489L26.4783 5.70315L27.817 4.98955ZM3.55673 22.932C3.09548 22.0963 2.7192 21.2165 2.43353 20.3058C2.74358 20.5389 3.10147 20.7004 3.48142 20.7786C3.86138 20.8568 4.25394 20.8498 4.63086 20.7581L6.65539 20.2461C6.76192 20.2168 6.87268 20.206 6.98286 20.2141L8.68313 20.3741C8.81567 20.3858 8.9446 20.4235 9.06249 20.4852C9.18039 20.5469 9.28491 20.6313 9.37006 20.7336C9.54393 20.9416 9.62606 21.204 9.58873 21.5677L8.94019 25.1538C8.85806 25.5816 8.88366 26.0274 9.01913 26.453L9.81699 28.8466C7.16417 27.5766 4.97516 25.5085 3.55673 22.932ZM12.0591 29.716C11.8479 29.6552 11.6463 29.5741 11.4394 29.5037C11.4922 29.1152 11.4576 28.7198 11.3381 28.3464L10.5413 25.957C10.4894 25.7917 10.4795 25.6161 10.5125 25.4461L11.1631 21.8493C11.2332 21.4725 11.2188 21.0849 11.121 20.7144C11.0233 20.3438 10.8446 19.9995 10.5978 19.7064C10.3793 19.4424 10.1105 19.2244 9.80711 19.0651C9.5037 18.9058 9.17169 18.8084 8.83033 18.7784L7.11299 18.6173C6.82851 18.5967 6.54256 18.6219 6.26606 18.692L4.24686 19.2029C4.03623 19.2542 3.81477 19.2376 3.61417 19.1554C3.41356 19.0732 3.24411 18.9297 3.13006 18.7453L2.03246 16.9864C1.9763 16.9027 1.91651 16.8216 1.85326 16.7432L1.81699 16.6962C1.59086 11.4728 4.24793 6.31329 9.12686 3.61995C11.5577 2.27564 14.3294 1.67381 17.0988 1.889C19.8682 2.10419 22.5137 3.12695 24.7077 4.83062L21.6623 6.44982L19.4735 5.20609L20.0922 4.86049C20.2773 4.7568 20.4137 4.58382 20.4713 4.37958C20.529 4.17534 20.5031 3.95658 20.3994 3.77142C20.2957 3.58626 20.1227 3.44988 19.9185 3.39227C19.7142 3.33466 19.4955 3.36054 19.3103 3.46422L17.8479 4.28235L15.4586 2.92449C15.3391 2.85632 15.204 2.82021 15.0665 2.81965C14.9289 2.81909 14.7936 2.8541 14.6735 2.92129L11.4298 4.73462C11.3113 4.80054 11.2116 4.89551 11.14 5.0106C11.0684 5.12569 11.0272 5.25711 11.0204 5.39249C11.0135 5.52788 11.0413 5.66277 11.101 5.78448C11.1606 5.9062 11.2503 6.01072 11.3615 6.08822L16.3429 9.57302L13.2709 11.2946L10.8943 10.228C10.7803 10.1774 10.6562 10.154 10.5316 10.1596C10.4071 10.1651 10.2855 10.1995 10.1765 10.26L7.74979 11.6168C7.63845 11.6797 7.54374 11.7683 7.47356 11.8752C7.40337 11.9821 7.35973 12.1043 7.34627 12.2315C7.33281 12.3587 7.34992 12.4872 7.39617 12.6065C7.44243 12.7257 7.51649 12.8322 7.61219 12.917L11.4351 16.276C11.5197 16.3502 11.619 16.4057 11.7266 16.439C11.8341 16.4722 11.9474 16.4825 12.0591 16.469L18.5669 15.6786C18.672 15.6657 18.7736 15.632 18.8655 15.5794L28.7951 9.91862C29.1962 10.7506 29.5109 11.6093 29.7413 12.4872L25.6133 14.8616C25.065 15.1659 24.6551 15.6698 24.4687 16.2685L23.8543 18.2504C23.7946 18.449 23.667 18.6204 23.4938 18.7346L21.8778 19.7522C21.3815 20.0658 21.0143 20.547 20.8428 21.1084C20.6713 21.6698 20.707 22.2741 20.9434 22.8114L23.2911 28.2397C23.1482 28.325 23.0138 28.421 22.8677 28.501C21.2358 29.408 19.4403 29.9824 17.5851 30.1909C15.7298 30.3995 13.8516 30.238 12.0591 29.716ZM29.6538 19.9997C28.8144 22.9174 27.0562 25.4866 24.6405 27.3256L22.4122 22.1746C22.3293 21.9871 22.3163 21.7761 22.3756 21.5798C22.4349 21.3835 22.5625 21.215 22.7354 21.1048L24.3557 20.084C24.8485 19.765 25.2154 19.2797 25.3861 18.7208L25.9973 16.7453C26.0644 16.5349 26.2099 16.3585 26.4037 16.2525L30.0762 14.1394C30.3456 16.1009 30.2017 18.0971 29.6538 19.9997Z" fill="white"/>
</g>
<defs>
<clipPath id="clip0_1645_28255">
<rect width="32" height="32" fill="white"/>
</clipPath>
</defs>
</svg>
