<svg width="24" height="24" viewBox="0 0 24 24" fill="none" xmlns="http://www.w3.org/2000/svg">
<path d="M7.25 16.25C7.25 15.7641 7.42019 15.351 7.76058 15.0106C8.10094 14.6702 8.51407 14.5 8.99997 14.5C9.48588 14.5 9.89901 14.6702 10.2394 15.0106C10.5798 15.351 10.7499 15.7641 10.7499 16.25C10.7499 16.7359 10.5798 17.149 10.2394 17.4894C9.89901 17.8298 9.48588 18 8.99997 18C8.51407 18 8.10094 17.8298 7.76058 17.4894C7.42019 17.149 7.25 16.7359 7.25 16.25ZM5.24965 22.75C5.03707 22.75 4.85898 22.6781 4.7154 22.5344C4.5718 22.3906 4.5 22.2125 4.5 22V14.25C4.5 14.0375 4.57191 13.8594 4.71572 13.7157C4.85954 13.5719 5.03774 13.5 5.25033 13.5C5.46293 13.5 5.64102 13.5719 5.7846 13.7157C5.92818 13.8594 5.99997 14.0375 5.99997 14.25V19H12V15.4C12 15.145 12.0866 14.9313 12.2598 14.7588C12.4331 14.5863 12.6477 14.5 12.9038 14.5H17.6922C18.1974 14.5 18.625 14.675 18.975 15.025C19.325 15.375 19.5 15.8026 19.5 16.3077V22C19.5 22.2125 19.428 22.3906 19.2842 22.5344C19.1404 22.6781 18.9622 22.75 18.7496 22.75C18.537 22.75 18.3589 22.6781 18.2154 22.5344C18.0718 22.3906 18 22.2125 18 22V20.5H5.99997V22C5.99997 22.2125 5.92807 22.3906 5.78425 22.5344C5.64045 22.6781 5.46225 22.75 5.24965 22.75ZM12.8 7.65L10.15 10.3L10.375 11.7589C10.3916 11.8427 10.3891 11.918 10.3673 11.9846C10.3455 12.0513 10.3013 12.118 10.2346 12.1846L10.1346 12.2846C10.0013 12.418 9.85543 12.468 9.6971 12.4346C9.53877 12.4013 9.41793 12.3096 9.3346 12.1596L8.46535 10.5596L6.75575 9.63463C6.62242 9.56796 6.54742 9.46379 6.53075 9.32213C6.51408 9.18046 6.55575 9.05963 6.65575 8.95963L6.85575 8.75963C6.88908 8.72629 7.00575 8.68463 7.20575 8.63463L8.7127 8.83463L11.375 6.175L6.67497 3.625C6.49164 3.54167 6.39164 3.4 6.37497 3.2C6.35831 3 6.41664 2.83333 6.54997 2.7L6.72497 2.525C6.80831 2.44167 6.89581 2.3875 6.98747 2.3625C7.07914 2.3375 7.17497 2.34167 7.27497 2.375L13.55 4L16.25 1.3C16.45 1.1 16.6916 1 16.975 1C17.2583 1 17.5 1.1 17.7 1.3C17.9 1.5 18 1.74167 18 2.025C18 2.30833 17.9 2.55 17.7 2.75L15 5.45L16.6 11.7C16.6333 11.8167 16.6375 11.925 16.6125 12.025C16.5875 12.125 16.5333 12.2167 16.45 12.3L16.35 12.4C16.2 12.55 16.0166 12.6083 15.8 12.575C15.5833 12.5417 15.425 12.4333 15.325 12.25L12.8 7.65ZM18 19V16.3077C18 16.218 17.9711 16.1443 17.9134 16.0866C17.8557 16.0289 17.782 16 17.6922 16H13.5V19H18Z" fill="#121516"/>
</svg>
