<svg id="trane-white-24px" xmlns="http://www.w3.org/2000/svg" width="24" height="24" viewBox="0 0 24 24">
  <defs>
  </defs>
  <path id="room" class="cls-1" d="M0,0H24V24H0Z" style="fill:none"/>
  <path id="Path_41913" data-name="Path 41913" class="cls-2" d="M12,1C7.58,1,4,1.5,4,5V15.5A3.5,3.5,0,0,0,7.5,19L6,20.5V21H18v-.5L16.5,19A3.5,3.5,0,0,0,20,15.5V5C20,1.5,16.42,1,12,1Zm0,2c6,0,6,1.2,6,2H6C6,4.2,6,3,12,3Zm6,4v3H6V7ZM16.5,17h-9A1.5,1.5,0,0,1,6,15.5V12H18v3.5A1.5,1.5,0,0,1,16.5,17ZM12,12.5a2,2,0,1,0,2,2A2.006,2.006,0,0,0,12,12.5Z" transform="translate(0 1)"/>
</svg>
