<svg xmlns="http://www.w3.org/2000/svg" width="24" height="24" viewBox="0 0 24 24"><defs><style>.a{fill:#536279;}.b{fill:none;}</style></defs><g transform="translate(20296.818 18631)"><path class="a" d="M-20264.469-18603.656s-.164,3.6.574,4c.113.092-.414.932-.926,1.883-.922,1.709-2.273,4.068-2.273,4.068l1.809,1.2,3.188-5.791,2.961,5.791,1.969-.926-3.32-6.4s.445-.3.383-1.461c0,0-.242-2.467-.242-2.531,1.266,1.17,3.8,1.16,3.8,1.16l.355-1.637a6.459,6.459,0,0,1-2.172-.568c-1.117-.506-2.91-2.664-4.469-2.457-1.223.094-2.457,1.8-2.457,1.8l-2.492,3.934,1.445.875Z" transform="translate(-20.38 -16.5)"/><circle class="a" cx="2.174" cy="2.174" r="2.174" transform="translate(-20284.945 -18629)"/><path class="a" d="M1.568,8.04h0c-.45-.221-.828-.4-1.125-.544a.7.7,0,0,1-.429-.437.638.638,0,0,1,.111-.484C.145,6.539,2.2,2.842,2.6,2.1a.783.783,0,0,1,.621-.486A.517.517,0,0,1,3.5,1.7l1.286.8L6.23,0l.743.385L2.559,7.869a.652.652,0,0,0-.991.171Z" transform="translate(-20293.818 -18618.234)"/><circle class="a" cx="0.869" cy="0.869" r="0.869" transform="translate(-20292.555 -18610.742)"/></g><path class="b" d="M0,0H24V24H0Z"/></svg>