<svg xmlns="http://www.w3.org/2000/svg" width="24" height="24" viewBox="0 0 24 24"><defs><style>.a{fill:none;}.b{fill:#666;}</style></defs><path class="a" d="M0,0H24V24H0Z"/><path class="b" d="M20.19,4H4A2,2,0,0,0,2.01,6v4A2,2,0,0,1,2,14v4a2.006,2.006,0,0,0,2,2H20a2.006,2.006,0,0,0,2-2V6A1.915,1.915,0,0,0,20.19,4ZM20,18H4V15.46A4.013,4.013,0,0,0,6,12,3.992,3.992,0,0,0,4.01,8.54L4,6H20Z"/><path class="b" d="M8,1C5.79,1,4,1.25,4,3V8.25A1.752,1.752,0,0,0,5.75,10L5,10.75V11h6v-.25L10.25,10A1.752,1.752,0,0,0,12,8.25V3C12,1.25,10.21,1,8,1ZM8,2Zm3,3.5h0ZM10.25,9H5.75A.749.749,0,0,1,5,8.25V6.5h6V8.25A.749.749,0,0,1,10.25,9ZM8,6.75a1,1,0,1,0,1,1A1,1,0,0,0,8,6.75Z" transform="translate(4 6)"/></svg>