<svg width="14" height="15" viewBox="0 0 14 15" fill="none" xmlns="http://www.w3.org/2000/svg">
<path d="M3.08333 14.0859C2.66667 14.0859 2.3125 13.9401 2.02083 13.6484C1.72917 13.3568 1.58333 13.0026 1.58333 12.5859V2.0026H1.375C1.19444 2.0026 1.04528 1.94344 0.9275 1.8251C0.809167 1.70733 0.75 1.55816 0.75 1.3776C0.75 1.19705 0.809167 1.04788 0.9275 0.930104C1.04528 0.811771 1.19444 0.752604 1.375 0.752604H4.5C4.5 0.544271 4.57278 0.37066 4.71833 0.231771C4.86444 0.0928819 5.04167 0.0234375 5.25 0.0234375H8.75C8.95833 0.0234375 9.13556 0.0928819 9.28167 0.231771C9.42722 0.37066 9.5 0.544271 9.5 0.752604H12.625C12.8056 0.752604 12.955 0.811771 13.0733 0.930104C13.1911 1.04788 13.25 1.19705 13.25 1.3776C13.25 1.55816 13.1911 1.70733 13.0733 1.8251C12.955 1.94344 12.8056 2.0026 12.625 2.0026H12.4167V12.5859C12.4167 13.0026 12.2708 13.3568 11.9792 13.6484C11.6875 13.9401 11.3333 14.0859 10.9167 14.0859H3.08333ZM2.83333 2.0026V12.5859C2.83333 12.6554 2.85778 12.7145 2.90667 12.7634C2.955 12.8118 3.01389 12.8359 3.08333 12.8359H10.9167C10.9861 12.8359 11.0453 12.8118 11.0942 12.7634C11.1425 12.7145 11.1667 12.6554 11.1667 12.5859V2.0026H2.83333ZM4.83333 10.5443C4.83333 10.7248 4.8925 10.8743 5.01083 10.9926C5.12861 11.1104 5.27778 11.1693 5.45833 11.1693C5.63889 11.1693 5.78833 11.1104 5.90667 10.9926C6.02444 10.8743 6.08333 10.7248 6.08333 10.5443V4.29427C6.08333 4.11372 6.02444 3.96427 5.90667 3.84594C5.78833 3.72816 5.63889 3.66927 5.45833 3.66927C5.27778 3.66927 5.12861 3.72816 5.01083 3.84594C4.8925 3.96427 4.83333 4.11372 4.83333 4.29427V10.5443ZM7.91667 10.5443C7.91667 10.7248 7.97556 10.8743 8.09333 10.9926C8.21167 11.1104 8.36111 11.1693 8.54167 11.1693C8.72222 11.1693 8.87167 11.1104 8.99 10.9926C9.10778 10.8743 9.16667 10.7248 9.16667 10.5443V4.29427C9.16667 4.11372 9.10778 3.96427 8.99 3.84594C8.87167 3.72816 8.72222 3.66927 8.54167 3.66927C8.36111 3.66927 8.21167 3.72816 8.09333 3.84594C7.97556 3.96427 7.91667 4.11372 7.91667 4.29427V10.5443ZM2.83333 2.0026V12.5859C2.83333 12.6554 2.85778 12.7145 2.90667 12.7634C2.955 12.8118 3.01389 12.8359 3.08333 12.8359H2.83333V2.0026Z" fill="#D8000C"/>
</svg>
