<svg width="16" height="16" viewBox="0 0 16 16" fill="none" xmlns="http://www.w3.org/2000/svg">
    <path
        d="M8 9.10716L4.73334 12.3738C4.61111 12.4961 4.45556 12.5572 4.26667 12.5572C4.07778 12.5572 3.92222 12.4961 3.8 12.3738C3.67778 12.2516 3.61667 12.0961 3.61667 11.9072C3.61667 11.7183 3.67778 11.5627 3.8 11.4405L7.06667 8.17383L3.8 4.90716C3.67778 4.78494 3.61667 4.62939 3.61667 4.4405C3.61667 4.25161 3.67778 4.09605 3.8 3.97383C3.92222 3.85161 4.07778 3.7905 4.26667 3.7905C4.45556 3.7905 4.61111 3.85161 4.73334 3.97383L8 7.2405L11.2667 3.97383C11.3889 3.85161 11.5444 3.7905 11.7333 3.7905C11.9222 3.7905 12.0778 3.85161 12.2 3.97383C12.3222 4.09605 12.3833 4.25161 12.3833 4.4405C12.3833 4.62939 12.3222 4.78494 12.2 4.90716L8.93333 8.17383L12.2 11.4405C12.3222 11.5627 12.3833 11.7183 12.3833 11.9072C12.3833 12.0961 12.3222 12.2516 12.2 12.3738C12.0778 12.4961 11.9222 12.5572 11.7333 12.5572C11.5444 12.5572 11.3889 12.4961 11.2667 12.3738L8 9.10716Z"
        fill="#E6E6E6" />
</svg>