<svg id="vaccines-black60-24px" xmlns="http://www.w3.org/2000/svg" width="24" height="24" viewBox="0 0 24 24">
  <defs>
    <style>
      .cls-1 {
        fill: none;
      }

      .cls-2 {
        fill: #666;
      }
    </style>
  </defs>
  <rect id="Rectangle_6761" data-name="Rectangle 6761" class="cls-1" width="24" height="24"/>
  <path id="Path_42112" data-name="Path 42112" class="cls-2" d="M11,5.5H8V4h.5a1,1,0,0,0,0-2h-3a1,1,0,0,0,0,2H6V5.5H3a1,1,0,0,0,0,2V15a2.006,2.006,0,0,0,2,2H6v4l2,1.5V17H9a2.006,2.006,0,0,0,2-2V7.5a1,1,0,0,0,0-2ZM9,9H7.25a.75.75,0,0,0,0,1.5H9V12H7.25a.75.75,0,0,0,0,1.5H9V15H5V7.5H9Zm10.5,1.5V10a1,1,0,0,0,0-2h-5a1,1,0,0,0,0,2v.5c0,.5-1.5,1.16-1.5,3V20a2.006,2.006,0,0,0,2,2h4a2.006,2.006,0,0,0,2-2V13.5C21,11.66,19.5,11,19.5,10.5Zm-3,0V10h1v.5c0,1.6,1.5,2,1.5,3V14H15v-.5C15,12.5,16.5,12.1,16.5,10.5Zm2.5,5V17H15V15.5ZM15,20V18.5h4V20Z"/>
</svg>
