<svg width="25" height="24" viewBox="0 0 25 24" fill="none" xmlns="http://www.w3.org/2000/svg">
<g id="Controls/verified">
<path id="Vector" d="M8.90942 21.1831L7.52675 18.8581L4.91137 18.2966C4.68701 18.253 4.50784 18.135 4.37387 17.9427C4.23991 17.7504 4.18638 17.5421 4.2133 17.3177L4.46907 14.6273L2.69022 12.5927C2.53639 12.4286 2.45947 12.2312 2.45947 12.0004C2.45947 11.7697 2.53639 11.5722 2.69022 11.4081L4.46907 9.37353L4.2133 6.68315C4.18638 6.45879 4.23991 6.25045 4.37387 6.05815C4.50784 5.86584 4.68701 5.74789 4.91137 5.7043L7.52675 5.14278L8.90942 2.81778C9.02994 2.62034 9.19405 2.48573 9.40175 2.41393C9.60943 2.34214 9.82032 2.35304 10.0344 2.44663L12.4998 3.48893L14.9652 2.44663C15.1793 2.35304 15.3902 2.34214 15.5978 2.41393C15.8055 2.48573 15.9697 2.62034 16.0902 2.81778L17.4728 5.14278L20.0882 5.7043C20.3126 5.74789 20.4918 5.86584 20.6257 6.05815C20.7597 6.25045 20.8132 6.45879 20.7863 6.68315L20.5305 9.37353L22.3094 11.4081C22.4632 11.5722 22.5401 11.7697 22.5401 12.0004C22.5401 12.2312 22.4632 12.4286 22.3094 12.5927L20.5305 14.6273L20.7863 17.3177C20.8132 17.5421 20.7597 17.7504 20.6257 17.9427C20.4918 18.135 20.3126 18.253 20.0882 18.2966L17.4728 18.8581L16.0902 21.1831C15.9697 21.3805 15.8055 21.5151 15.5978 21.5869C15.3902 21.6587 15.1793 21.6478 14.9652 21.5542L12.4998 20.5119L10.0344 21.5542C9.82032 21.6478 9.60943 21.6587 9.40175 21.5869C9.19405 21.5151 9.02994 21.3805 8.90942 21.1831ZM9.9498 19.9504L12.4998 18.8697L15.0806 19.9504L16.4998 17.5504L19.2498 16.9197L18.9998 14.1004L20.8498 12.0004L18.9998 9.86965L19.2498 7.05043L16.4998 6.45043L15.0498 4.05043L12.4998 5.1312L9.91902 4.05043L8.4998 6.45043L5.7498 7.05043L5.9998 9.86965L4.1498 12.0004L5.9998 14.1004L5.7498 16.9504L8.4998 17.5504L9.9498 19.9504ZM11.4498 13.0658L9.8267 11.4581C9.68825 11.3197 9.51678 11.2488 9.3123 11.2456C9.10781 11.2424 8.92801 11.3184 8.7729 11.4735C8.62802 11.6184 8.55557 11.794 8.55557 12.0004C8.55557 12.2068 8.62802 12.3825 8.7729 12.5273L10.8171 14.5716C10.9979 14.7523 11.2088 14.8427 11.4498 14.8427C11.6908 14.8427 11.9017 14.7523 12.0825 14.5716L16.2267 10.4273C16.3754 10.2786 16.4488 10.1046 16.4469 9.90523C16.445 9.70588 16.3716 9.52865 16.2267 9.37353C16.0716 9.2184 15.8934 9.13826 15.6921 9.13313C15.4908 9.12801 15.3126 9.20301 15.1575 9.35813L11.4498 13.0658Z" fill="#065BAA"/>
</g>
</svg>
