<svg width="22" height="22" viewBox="0 0 24 25" fill="none" xmlns="http://www.w3.org/2000/svg">
<path fill-rule="evenodd" clip-rule="evenodd" d="M20.5039 3.8754C18.2461 1.63157 15.2461 0.393188 12.0508 0.393188C5.46484 0.393188 0.101563 5.71938 0.101563 12.2645C0.097656 14.357 0.648438 16.3989 1.69531 18.2002L0 24.3533L6.33594 22.6995C8.07812 23.6467 10.0469 24.1436 12.0469 24.1475H12.0508C18.6367 24.1475 23.9961 18.8213 24 12.2723C24 9.10066 22.7578 6.11923 20.5039 3.8754ZM12.0508 22.1405H12.0469C10.2656 22.1405 8.51562 21.663 6.99219 20.7663L6.62891 20.5527L2.86719 21.531L3.87109 17.8896L3.63672 17.517C2.64063 15.9447 2.11719 14.1279 2.11719 12.2645C2.11719 6.82577 6.57422 2.40021 12.0547 2.40021C14.707 2.40021 17.1992 3.42896 19.0742 5.29235C20.9492 7.15962 21.9805 9.63638 21.9805 12.2723C21.9805 17.715 17.5234 22.1405 12.0508 22.1405ZM17.4961 14.7491C17.1992 14.6015 15.7305 13.8834 15.457 13.7863C15.1836 13.6854 14.9844 13.6388 14.7852 13.9338C14.5859 14.2327 14.0156 14.9005 13.8398 15.0984C13.668 15.2925 13.4922 15.3197 13.1953 15.1722C12.8945 15.0247 11.9336 14.7102 10.793 13.697C9.90625 12.9128 9.30469 11.9384 9.13281 11.6434C8.95703 11.3445 9.11328 11.1853 9.26172 11.0378C9.39844 10.9058 9.5625 10.6923 9.71094 10.5176C9.85938 10.3468 9.91016 10.2226 10.0117 10.0246C10.1094 9.8266 10.0586 9.65191 9.98438 9.50439C9.91016 9.35687 9.3125 7.89333 9.0625 7.29938C8.82031 6.72095 8.57422 6.80247 8.39062 6.79083C8.21875 6.78306 8.01953 6.78306 7.82031 6.78306C7.62109 6.78306 7.29688 6.85682 7.02344 7.15574C6.75 7.45078 5.98047 8.16896 5.98047 9.62862C5.98047 11.0883 7.05078 12.5013 7.19922 12.6993C7.34766 12.8934 9.30469 15.8904 12.3008 17.1753C13.0117 17.482 13.5664 17.6645 14 17.8004C14.7148 18.0255 15.3672 17.9945 15.8828 17.9207C16.457 17.8353 17.6484 17.2025 17.8984 16.5076C18.1445 15.8166 18.1445 15.2227 18.0703 15.0984C17.9961 14.9742 17.7969 14.9005 17.4961 14.7491Z" fill="white"/>
</svg>
