<svg width="44" height="44" viewBox="0 0 44 44" fill="none" xmlns="http://www.w3.org/2000/svg">
<path d="M22.0026 24.975L28.2859 31.1375C28.6832 31.5271 29.1887 31.7219 29.8026 31.7219C30.4165 31.7219 30.9221 31.5271 31.3193 31.1375C31.7165 30.7479 31.9151 30.2521 31.9151 29.65C31.9151 29.0479 31.7165 28.5521 31.3193 28.1625L25.0359 22L31.3193 15.8375C31.7165 15.4479 31.9151 14.9521 31.9151 14.35C31.9151 13.7479 31.7165 13.2521 31.3193 12.8625C30.9221 12.4729 30.4165 12.2781 29.8026 12.2781C29.1887 12.2781 28.6832 12.4729 28.2859 12.8625L22.0026 19.025L15.7193 12.8625C15.322 12.4729 14.8165 12.2781 14.2026 12.2781C13.5887 12.2781 13.0832 12.4729 12.6859 12.8625C12.2887 13.2521 12.0901 13.7479 12.0901 14.35C12.0901 14.9521 12.2887 15.4479 12.6859 15.8375L18.9693 22L12.6859 28.1625C12.2887 28.5521 12.0901 29.0479 12.0901 29.65C12.0901 30.2521 12.2887 30.7479 12.6859 31.1375C13.0832 31.5271 13.5887 31.7219 14.2026 31.7219C14.8165 31.7219 15.322 31.5271 15.7193 31.1375L22.0026 24.975ZM22.0026 43.25C19.0054 43.25 16.1887 42.6922 13.5526 41.5766C10.9165 40.4609 8.62344 38.9469 6.67344 37.0344C4.72344 35.1219 3.17969 32.8729 2.04219 30.2875C0.904688 27.7021 0.335938 24.9396 0.335938 22C0.335938 19.0604 0.904688 16.2979 2.04219 13.7125C3.17969 11.1271 4.72344 8.87813 6.67344 6.96562C8.62344 5.05312 10.9165 3.53906 13.5526 2.42344C16.1887 1.30781 19.0054 0.75 22.0026 0.75C24.9998 0.75 27.8165 1.30781 30.4526 2.42344C33.0887 3.53906 35.3818 5.05312 37.3318 6.96562C39.2818 8.87813 40.8255 11.1271 41.963 13.7125C43.1005 16.2979 43.6693 19.0604 43.6693 22C43.6693 24.9396 43.1005 27.7021 41.963 30.2875C40.8255 32.8729 39.2818 35.1219 37.3318 37.0344C35.3818 38.9469 33.0887 40.4609 30.4526 41.5766C27.8165 42.6922 24.9998 43.25 22.0026 43.25ZM22.0026 39C26.8415 39 30.9401 37.3531 34.2984 34.0594C37.6568 30.7656 39.3359 26.7458 39.3359 22C39.3359 17.2542 37.6568 13.2344 34.2984 9.94063C30.9401 6.64688 26.8415 5 22.0026 5C17.1637 5 13.0651 6.64688 9.70677 9.94063C6.34844 13.2344 4.66927 17.2542 4.66927 22C4.66927 26.7458 6.34844 30.7656 9.70677 34.0594C13.0651 37.3531 17.1637 39 22.0026 39Z" fill="#BB1614"/>
</svg>
