<svg width="48" height="48" viewBox="0 0 24 24" fill="none" xmlns="http://www.w3.org/2000/svg">
<g clip-path="url(#clip0_987_160397)">
<g clip-path="url(#clip1_987_160397)">
<path d="M11.1758 12.0005C11.1758 12.0005 16.2508 10.8005 22.9108 13.8705L23.2658 14.2655C23.2658 14.2655 16.7658 11.5905 12.6608 12.7905C12.2558 12.3855 11.7408 12.1055 11.1758 12.0005Z" fill="#C79E37"/>
<path d="M21.7 13.2043C19.405 12.1343 17 11.3093 14.535 10.7343C14.045 10.6593 13.555 10.8993 13.32 11.3343C13.19 11.5543 13.085 11.7843 13 12.0243C13 12.0243 16.375 11.5643 21.96 13.4793C21.88 13.3843 21.79 13.2893 21.7 13.2043V13.2043Z" fill="#7B233F"/>
<path d="M17.5 8.34516C19.435 8.34516 21 9.91016 21.005 11.8402C21.005 12.0902 20.98 12.3352 20.925 12.5802L21.325 12.7702C21.395 12.4702 21.43 12.1602 21.43 11.8502C21.435 9.68016 19.68 7.91516 17.51 7.91016C15.79 7.91016 14.265 9.02016 13.75 10.6652C13.905 10.5802 14.075 10.5302 14.25 10.5152C14.79 9.20016 16.075 8.34016 17.5 8.34516V8.34516Z" fill="#C79E37"/>
<path d="M20.5249 13.5804C19.5749 15.2654 17.4399 15.8554 15.7549 14.9054C14.9399 14.4454 14.3449 13.6804 14.0999 12.7754C13.9549 12.7754 13.8099 12.8004 13.6699 12.8204C14.2099 14.9254 16.3549 16.1954 18.4599 15.6554C19.5249 15.3804 20.4249 14.6804 20.9449 13.7104L20.5249 13.5804V13.5804Z" fill="#C79E37"/>
<path d="M5.24439 10.5001C5.45939 10.5001 5.69439 10.5001 5.94439 10.5451C7.94439 10.7501 9.11439 10.0451 9.62439 9.60008L9.81438 9.42508L9.85939 9.38008C9.94439 9.29508 10.0194 9.20008 10.0844 9.09508V9.05008L10.1344 8.95508C10.1594 8.90008 10.1794 8.84508 10.1994 8.79008C10.2244 8.71008 10.2444 8.63008 10.2494 8.55008C10.2594 8.50508 10.2494 8.46008 10.2244 8.42508C10.2094 8.40008 10.1844 8.38508 10.1594 8.38008C10.1194 8.37508 10.0794 8.38008 10.0444 8.40508C10.0044 8.43008 9.96439 8.46008 9.92439 8.49508C9.85439 8.56508 9.80939 8.65508 9.79439 8.75008C9.79439 8.78508 9.79939 8.82008 9.81939 8.85008C9.83439 8.87508 9.85439 8.89508 9.87939 8.91508C9.90439 8.93008 9.92939 8.94008 9.95439 8.94508H10.0144C9.99939 8.99508 9.97939 9.04008 9.95439 9.08008C9.83439 9.24508 9.69939 9.39508 9.54439 9.52508C9.04439 9.95508 7.90939 10.6451 5.93439 10.4451C5.67939 10.4201 5.44439 10.4051 5.22939 10.4001L5.26939 10.1301C5.26939 10.1301 5.28939 10.1301 5.29939 10.1301C5.50939 10.1701 5.72939 10.0951 5.86439 9.93008C6.01939 9.74508 6.06939 9.50008 5.99939 9.27008V9.24508C5.99939 9.24508 5.91439 9.39508 5.89939 9.41508C5.84939 9.49008 5.76939 9.54008 5.67939 9.55008C5.40939 9.55008 5.35439 9.38008 5.36939 9.24508L5.41939 8.61508C5.41939 8.47508 5.41939 8.33508 5.45439 8.19508C5.48939 8.05508 5.48439 7.92008 5.50439 7.77508C5.50439 7.73008 5.50439 7.70508 5.47939 7.70508C5.45439 7.70508 5.44439 7.70508 5.42939 7.74008L5.14439 8.40508C5.12439 8.45508 5.10939 8.51008 5.10439 8.56508C5.10439 8.64008 5.00939 9.21008 5.00439 9.49508C4.99939 9.78008 4.97939 9.94008 4.97439 10.2101V10.3901C4.50939 10.3901 4.04439 10.4551 3.59939 10.5901C3.18939 10.7151 2.83439 10.9801 2.59939 11.3401C2.45439 11.5851 2.34939 11.8551 2.28439 12.1301C2.22439 12.3451 2.18939 12.5651 2.18439 12.7851C2.17439 13.0651 2.25939 13.3351 2.42439 13.5601C2.59939 13.7701 2.86439 13.8851 3.13939 13.8651C3.80439 13.8651 4.33939 13.4801 4.73939 12.6951C4.89939 12.4101 5.01939 12.1001 5.09439 11.7801C5.18439 11.3601 5.23439 10.9301 5.24439 10.5001V10.5001ZM10.0244 8.74008H9.97938L9.94939 8.71008C9.94939 8.71008 9.94439 8.68508 9.94939 8.67008C9.94939 8.62508 9.99439 8.60008 10.0294 8.60508C10.0644 8.61008 10.0794 8.60508 10.0844 8.65508C10.0944 8.68508 10.0944 8.72008 10.0844 8.75008L10.0244 8.74008V8.74008ZM4.81939 11.8501C4.71439 12.2551 4.44439 12.6001 4.07439 12.7951C3.61939 13.0751 3.03439 13.0301 2.62939 12.6801C2.47439 12.4651 2.41439 12.1951 2.46939 11.9351C2.50939 11.5901 2.67439 11.2751 2.92939 11.0401C3.09939 10.9001 3.29439 10.7951 3.49939 10.7201C3.92439 10.5801 4.36939 10.5051 4.81439 10.5001H4.94939V10.8301C4.94939 11.1751 4.90939 11.5201 4.81939 11.8501V11.8501Z" fill="#121516"/>
<path d="M6.73461 10.9399C6.67961 10.8649 6.59961 10.8099 6.50461 10.7949C6.50461 10.7949 6.44461 10.8499 6.37961 10.9599C6.31461 11.0699 6.25961 11.1699 6.20961 11.2549C6.14961 11.1749 6.08961 11.1049 6.01961 11.0349C5.93461 10.9499 5.86961 10.9199 5.82961 10.9349C5.78961 10.9499 5.73961 11.0399 5.63461 11.2449C5.56961 11.3599 5.51461 11.4799 5.47461 11.6049C5.47461 11.6049 5.51461 11.6599 5.58961 11.7199L5.75961 11.8649C5.77961 11.8899 5.80961 11.9099 5.84461 11.9199C5.92961 11.9199 6.03961 11.7749 6.17961 11.4849C6.24961 11.5399 6.31461 11.5999 6.37461 11.6649C6.44961 11.7399 6.49961 11.7799 6.52961 11.7799C6.55961 11.7799 6.63961 11.7099 6.73461 11.5749C6.81461 11.4699 6.86461 11.3449 6.87461 11.2149C6.85961 11.1099 6.80961 11.0149 6.73461 10.9399V10.9399Z" fill="#121516"/>
<path d="M6.22594 11.9395C6.19594 11.9395 6.16594 11.9395 6.14094 12.0145C6.11594 12.0895 6.07594 12.1595 6.01594 12.2995C5.95594 12.4395 5.89094 12.5745 5.81594 12.7145C5.76594 12.8245 5.69594 12.9245 5.62094 13.0195C5.53594 13.1145 5.44094 13.1945 5.33094 13.2595C5.19594 13.3545 5.07594 13.4295 4.97094 13.4895C4.89594 13.5245 4.83594 13.5795 4.78094 13.6395C4.77094 13.6595 4.77094 13.6795 4.78094 13.6995L4.82094 13.7245H4.99094C5.08094 13.7245 5.19594 13.6795 5.34094 13.6395C5.45594 13.6145 5.56594 13.5695 5.66094 13.5045C5.73594 13.4445 5.79594 13.3695 5.84094 13.2845C5.91594 13.1495 5.98094 13.0095 6.03594 12.8645C6.10594 12.6795 6.16594 12.5095 6.21094 12.3645C6.24594 12.2595 6.27094 12.1495 6.28094 12.0395C6.26094 11.9645 6.25094 11.9445 6.22594 11.9395V11.9395Z" fill="#121516"/>
<path d="M8.65414 10.8959L8.49914 10.7559L8.32414 11.0609C8.28914 11.1309 8.21914 11.2809 8.11914 11.5109C8.12414 11.5409 8.13914 11.5709 8.16414 11.5909L8.28414 11.6959L8.43414 11.8209C8.48914 11.8709 8.52414 11.8909 8.53914 11.8909C8.57914 11.8809 8.61414 11.8609 8.64414 11.8309C8.70914 11.7659 8.75914 11.6909 8.80414 11.6109C8.83914 11.5409 8.86914 11.4709 8.88914 11.3959C8.90414 11.3409 8.90414 11.2759 8.88914 11.2209C8.87914 11.1559 8.85414 11.1009 8.81414 11.0509C8.76914 10.9909 8.71414 10.9409 8.65414 10.8959V10.8959Z" fill="#121516"/>
<path d="M10.4343 10.1842C10.4793 10.1242 10.5093 10.0542 10.5343 9.98422C10.5543 9.92422 10.5743 9.86422 10.5843 9.79922V9.64422C10.5843 9.61422 10.5843 9.57422 10.5443 9.57422C10.5043 9.57422 10.4593 9.64922 10.4093 9.80422C10.3893 9.85422 10.3592 9.89922 10.3142 9.92922C10.2542 9.96422 10.1842 9.97422 10.1142 9.96422H9.94925C9.89425 9.95422 9.83925 9.96422 9.79425 10.0042C9.74425 10.0492 9.71925 10.1192 9.72925 10.1842C9.72425 10.2592 9.72425 10.3392 9.72925 10.4142C9.73425 10.4892 9.73425 10.5692 9.72925 10.6442C9.78925 11.1092 9.70925 11.5792 9.49925 11.9992C9.35925 12.2342 9.17425 12.4392 8.94925 12.5942C8.65925 12.7742 8.32425 12.8692 7.98425 12.8692C7.74925 12.8792 7.52425 12.8092 7.33425 12.6692C7.15925 12.5242 7.05425 12.3042 7.05925 12.0742C7.08925 11.6492 7.20925 11.2342 7.40925 10.8592C7.42425 10.8142 7.42425 10.7642 7.40925 10.7192C7.40925 10.6692 7.36925 10.7092 7.28925 10.8392C6.97425 11.3792 6.80425 11.9842 6.78925 12.6092C6.78425 12.8992 6.87925 13.1842 7.06925 13.4092C7.25925 13.6042 7.51925 13.7192 7.78925 13.7192C8.40425 13.6942 8.96925 13.3642 9.28925 12.8392C9.46925 12.5792 9.62425 12.2942 9.73925 11.9992C9.90425 11.5492 10.0093 11.0792 10.0493 10.5992C10.0593 10.5542 10.0792 10.5142 10.1092 10.4792C10.1342 10.4592 10.1593 10.4442 10.1843 10.4292C10.2843 10.3692 10.3693 10.2842 10.4343 10.1842V10.1842Z" fill="#121516"/>
<path d="M10.8749 10.9993C10.7649 10.8843 10.6849 10.8443 10.6299 10.8643C10.5749 10.8843 10.5349 10.9643 10.4399 11.1593C10.3699 11.2793 10.3199 11.4043 10.2949 11.5393C10.2949 11.5743 10.3199 11.6093 10.3549 11.6243L10.5549 11.7643L10.7149 11.8693C10.7599 11.8693 10.8249 11.7893 10.9149 11.6343C10.9899 11.5243 11.0349 11.3943 11.0499 11.2643C11.0149 11.1593 10.9549 11.0693 10.8749 10.9993V10.9993Z" fill="#121516"/>
<path d="M2.1007 15.6298C2.1507 15.6298 2.1907 15.6198 2.2107 15.6098C2.2507 15.5898 2.2657 15.5498 2.2657 15.4948V14.5648C2.2657 14.5098 2.2457 14.4698 2.2107 14.4548C2.1907 14.4448 2.1507 14.4348 2.0957 14.4348V14.3848H2.6857C2.8007 14.3848 2.8957 14.3998 2.9707 14.4248C3.1107 14.4748 3.1857 14.5648 3.1857 14.6948C3.1857 14.7748 3.1557 14.8348 3.1007 14.8848C3.0407 14.9298 2.9807 14.9598 2.9107 14.9748V14.9948C2.9807 15.0098 3.0457 15.0298 3.0957 15.0648C3.1957 15.1298 3.2507 15.2148 3.2507 15.3298C3.2507 15.4348 3.2007 15.5198 3.1057 15.5898C3.0107 15.6598 2.8757 15.6898 2.7157 15.6898H2.1007V15.6398V15.6298ZM2.8157 14.9048C2.8557 14.8648 2.8757 14.7998 2.8757 14.6998C2.8757 14.6248 2.8607 14.5648 2.8357 14.5148C2.8107 14.4648 2.7607 14.4398 2.6807 14.4398C2.6407 14.4398 2.6107 14.4448 2.5957 14.4598C2.5807 14.4748 2.5707 14.4948 2.5707 14.5298V14.9598C2.6907 14.9598 2.7707 14.9398 2.8107 14.8998L2.8157 14.9048ZM2.5907 15.5748C2.6057 15.6048 2.6357 15.6148 2.6807 15.6148C2.7707 15.6148 2.8357 15.5898 2.8707 15.5398C2.9057 15.4898 2.9257 15.4198 2.9257 15.3298C2.9257 15.1948 2.8857 15.1048 2.8057 15.0598C2.7557 15.0348 2.6807 15.0198 2.5757 15.0198V15.4998C2.5757 15.5348 2.5807 15.5598 2.5907 15.5748Z" fill="#7B233F"/>
<path d="M4.57016 14.5444C4.70016 14.6744 4.77016 14.8344 4.77016 15.0394C4.77016 15.2444 4.70516 15.4044 4.57016 15.5344C4.44016 15.6594 4.28016 15.7194 4.09016 15.7194C3.88516 15.7194 3.72016 15.6494 3.59016 15.5144C3.47016 15.3844 3.41016 15.2294 3.41016 15.0494C3.41016 14.8494 3.47516 14.6844 3.60016 14.5544C3.72516 14.4244 3.89016 14.3594 4.09016 14.3594C4.29016 14.3594 4.44516 14.4194 4.57016 14.5444ZM4.38516 15.3994C4.41516 15.3094 4.43016 15.1844 4.43016 15.0394C4.43016 14.8344 4.40016 14.6844 4.34016 14.5794C4.28016 14.4744 4.19516 14.4244 4.09016 14.4244C3.94516 14.4244 3.84516 14.5094 3.79016 14.6844C3.76016 14.7744 3.75016 14.8944 3.75016 15.0394C3.75016 15.1844 3.76516 15.3094 3.79516 15.3994C3.85016 15.5694 3.94516 15.6544 4.09016 15.6544C4.23516 15.6544 4.33016 15.5694 4.38516 15.3994Z" fill="#7B233F"/>
<path d="M4.87133 15.6287C4.94133 15.6287 4.98633 15.6137 5.00633 15.5887C5.02633 15.5637 5.03633 15.5287 5.03633 15.4787V14.5737C4.97633 14.5087 4.94133 14.4687 4.92633 14.4587C4.91133 14.4487 4.89633 14.4387 4.87133 14.4387V14.3887H5.27633L5.93633 15.1887H5.94633V14.6287C5.94633 14.5637 5.93633 14.5187 5.91133 14.4887C5.88633 14.4587 5.84133 14.4437 5.77133 14.4387V14.3887H6.18133V14.4387C6.12133 14.4487 6.08133 14.4637 6.06133 14.4787C6.04133 14.4937 6.03133 14.5337 6.03133 14.5887V15.7187H5.97633L5.13133 14.6937H5.11633V15.4437C5.11633 15.5037 5.12633 15.5437 5.14133 15.5687C5.16633 15.6087 5.22133 15.6287 5.29633 15.6337V15.6837H4.86133V15.6337L4.87133 15.6287Z" fill="#7B233F"/>
<path d="M6.25 15.6298C6.315 15.6298 6.36 15.6148 6.385 15.5948C6.41 15.5748 6.42 15.5298 6.42 15.4548V14.6098C6.42 14.5348 6.405 14.4898 6.38 14.4648C6.36 14.4498 6.32 14.4398 6.255 14.4348V14.3848H6.87C7 14.3848 7.1 14.3998 7.18 14.4248C7.335 14.4798 7.41 14.5748 7.41 14.7148C7.41 14.8198 7.37 14.8998 7.29 14.9598C7.23 15.0048 7.165 15.0348 7.095 15.0448L7.5 15.5898C7.5 15.5898 7.52 15.6148 7.535 15.6198C7.545 15.6198 7.56 15.6298 7.58 15.6298V15.6748H7.18L6.735 15.0748V15.4498C6.735 15.5148 6.745 15.5648 6.77 15.5848C6.795 15.6048 6.835 15.6198 6.905 15.6248V15.6748H6.26V15.6248L6.25 15.6298ZM7 14.9648C7.055 14.9298 7.08 14.8548 7.08 14.7348C7.08 14.6598 7.07 14.5998 7.05 14.5598C7.015 14.4848 6.95 14.4498 6.855 14.4498C6.805 14.4498 6.77 14.4548 6.755 14.4698C6.74 14.4848 6.73 14.5048 6.73 14.5348V15.0198C6.855 15.0198 6.945 14.9998 7 14.9648V14.9648Z" fill="#7B233F"/>
<path d="M7.63477 15.6294C7.67977 15.6294 7.71977 15.6044 7.74477 15.5694C7.76477 15.5444 7.78977 15.4894 7.82477 15.4094L8.24977 14.3594H8.30477L8.72976 15.3644C8.77976 15.4794 8.81477 15.5494 8.83477 15.5844C8.85477 15.6194 8.88977 15.6344 8.93477 15.6294V15.6794H8.31476V15.6294C8.37476 15.6294 8.41976 15.6194 8.43976 15.6144C8.45976 15.6044 8.46977 15.5844 8.46977 15.5544C8.46977 15.5394 8.46477 15.5144 8.45477 15.4844C8.44977 15.4644 8.43977 15.4444 8.42977 15.4194L8.37977 15.3044H7.94977C7.91977 15.3794 7.90477 15.4294 7.89477 15.4544C7.87977 15.5044 7.86977 15.5394 7.86977 15.5594C7.86977 15.5844 7.88977 15.6044 7.92477 15.6194C7.94477 15.6244 7.97977 15.6294 8.02477 15.6294V15.6794H7.63477V15.6294V15.6294ZM8.35476 15.2244L8.16977 14.7794H8.15477L7.97977 15.2244H8.35476Z" fill="#7B233F"/>
<path d="M9.01562 15.6289C9.07062 15.6289 9.11062 15.6189 9.13062 15.6089C9.17062 15.5889 9.19062 15.5489 9.19062 15.4939V14.5639C9.19062 14.5089 9.17062 14.4689 9.13562 14.4489C9.11562 14.4389 9.07562 14.4289 9.01562 14.4289V14.3789H9.68563V14.4289C9.62563 14.4289 9.58563 14.4389 9.56063 14.4489C9.52563 14.4689 9.50562 14.5039 9.50562 14.5639V15.4939C9.50562 15.5489 9.52062 15.5839 9.55062 15.5989C9.58062 15.6189 9.62563 15.6239 9.68563 15.6239V15.6739H9.01562V15.6239V15.6289Z" fill="#7B233F"/>
<path d="M9.76586 15.6287C9.81586 15.6287 9.85586 15.6187 9.87586 15.6087C9.91586 15.5887 9.93086 15.5487 9.93086 15.4937V14.5687C9.93086 14.5137 9.91086 14.4737 9.87586 14.4587C9.85586 14.4487 9.81586 14.4387 9.76086 14.4387V14.3887H10.4309V14.4387C10.3509 14.4387 10.3009 14.4537 10.2759 14.4737C10.2509 14.4937 10.2359 14.5387 10.2359 14.6137V15.5187C10.2359 15.5587 10.2459 15.5887 10.2709 15.6037C10.2909 15.6187 10.3359 15.6237 10.4009 15.6237C10.5159 15.6237 10.6109 15.5987 10.6909 15.5487C10.7709 15.4987 10.8359 15.3987 10.8909 15.2537H10.9459L10.8659 15.6887H9.75586V15.6387L9.76586 15.6287Z" fill="#7B233F"/>
</g>
</g>
<defs>
<clipPath id="clip0_987_160397">
<rect width="24" height="24" fill="white"/>
</clipPath>
<clipPath id="clip1_987_160397">
<rect width="24" height="24" fill="white"/>
</clipPath>
</defs>
</svg>
