<svg width="48" height="48" viewBox="0 0 24 24" fill="none" xmlns="http://www.w3.org/2000/svg">
<g clip-path="url(#clip0_987_160420)">
<path d="M17.8655 11.8096C17.7955 10.3096 16.8955 8.49461 17.8655 4.46461C17.0005 5.18961 12.9505 6.52961 14.6205 9.78461C15.026 9.57032 15.4827 9.47172 15.9405 9.49961C15.7627 9.3251 15.6283 9.11124 15.5483 8.87527C15.4683 8.6393 15.4448 8.38782 15.4799 8.14113C15.5149 7.89444 15.6074 7.65944 15.75 7.45507C15.8925 7.25071 16.0811 7.0827 16.3005 6.96461C16.2455 7.91003 16.2706 8.85842 16.3755 9.79961C16.1873 9.74343 15.9919 9.7148 15.7955 9.71461C15.3248 9.71466 14.8682 9.87552 14.5015 10.1705C14.1347 10.4656 13.8797 10.877 13.7788 11.3368C13.6778 11.7966 13.737 12.277 13.9465 12.6985C14.1559 13.1201 14.5031 13.4574 14.9305 13.6546C14.9705 13.6546 15.1055 13.6046 15.1455 13.5946C15.2192 13.5698 15.2911 13.5397 15.3605 13.5046C15.4984 13.4391 15.6277 13.3568 15.7455 13.2596C15.9915 13.057 16.1824 12.7956 16.3005 12.4996V12.4996C16.1216 12.6214 15.9036 12.6717 15.6894 12.6406C15.4753 12.6095 15.2805 12.4993 15.1437 12.3317C15.0068 12.164 14.9377 11.9512 14.9501 11.7351C14.9625 11.5191 15.0554 11.3155 15.2105 11.1646C15.3211 11.0683 15.4542 11.0013 15.5975 10.9698C15.7408 10.9384 15.8897 10.9435 16.0305 10.9846C16.1996 11.0386 16.348 11.1434 16.4555 11.2846C16.5624 11.4446 16.631 11.627 16.6562 11.8177C16.6813 12.0084 16.6623 12.2024 16.6005 12.3846C16.5302 12.6445 16.4114 12.8888 16.2505 13.1046L16.2205 13.1446L16.1955 13.1796L16.1605 13.2196L16.1355 13.2446L16.1005 13.2896L16.0105 13.3746L15.9605 13.4146L15.9105 13.4596C15.8505 13.5096 15.7905 13.5496 15.7255 13.5946C15.6377 13.6514 15.5458 13.7015 15.4505 13.7446L15.3755 13.7746C15.123 13.8773 14.853 13.9299 14.5805 13.9296C14.0415 13.941 13.5181 13.7486 13.1149 13.3908C12.7116 13.0329 12.4583 12.5361 12.4055 11.9996C12.4355 11.0646 12.4055 9.67461 12.4055 8.59961C12.7084 8.48132 12.9691 8.27543 13.1543 8.00824C13.3396 7.74106 13.4409 7.4247 13.4455 7.09961C13.4432 6.99568 13.4332 6.89206 13.4155 6.78961L13.6355 6.73461L13.8405 6.66461L13.9255 6.62461L14.0155 6.57461L14.1005 6.52961L14.1605 6.48961H14.1855L14.2655 6.43461H14.2955L14.3405 6.39961L14.3755 6.36961C14.391 6.36071 14.4046 6.34881 14.4155 6.33461L14.4855 6.27961V6.25461L14.5305 6.20961H14.5555C14.6048 6.16034 14.6515 6.10861 14.6955 6.05461V6.05461C14.7644 5.97505 14.8262 5.88974 14.8805 5.79961C15.0549 5.51987 15.1682 5.20646 15.213 4.87989C15.2578 4.55332 15.2331 4.22097 15.1405 3.90461C14.8399 3.73111 14.5042 3.62714 14.1581 3.60032C13.812 3.57349 13.4643 3.62451 13.1405 3.74961C13.1031 3.34331 12.9596 2.95397 12.7244 2.62053C12.4893 2.28709 12.1707 2.02125 11.8005 1.84961C11.432 1.99691 11.1072 2.23589 10.8569 2.5439C10.6067 2.85191 10.4392 3.21874 10.3705 3.60961C10.0937 3.49974 9.79837 3.44374 9.50051 3.44461C9.08986 3.44691 8.6868 3.55543 8.33051 3.75961C8.23665 4.07581 8.21129 4.40838 8.25613 4.73515C8.30096 5.06192 8.41496 5.37538 8.59051 5.65461V5.65461C8.63051 5.71961 8.67551 5.77961 8.72051 5.84461L8.76551 5.90461L8.86051 6.00961L8.90551 6.05461H8.93051C8.95128 6.08037 8.97475 6.10383 9.00051 6.12461L9.03051 6.15461L9.07051 6.18461L9.11051 6.21461L9.14551 6.24461L9.20551 6.28961L9.24051 6.31461L9.30051 6.35461H9.33051L9.39551 6.39461L9.48551 6.44461L9.56051 6.48461L9.75551 6.56461C9.86087 6.60447 9.96965 6.63459 10.0805 6.65461C10.0604 6.75503 10.0503 6.8572 10.0505 6.95961C10.0518 7.28013 10.1473 7.5932 10.3251 7.85989C10.5029 8.12658 10.7551 8.33513 11.0505 8.45961V11.7496C11.0586 12.1032 10.9791 12.4533 10.8192 12.7687C10.6592 13.0842 10.4237 13.3552 10.1337 13.5576C9.84371 13.76 9.50813 13.8876 9.15688 13.9289C8.80564 13.9703 8.44961 13.9241 8.12051 13.7946V13.7946L8.04051 13.7596L7.98051 13.7296C7.95243 13.7193 7.9256 13.7059 7.90051 13.6896L8.00051 13.6546L7.89551 13.5946C7.60576 13.3985 7.36878 13.134 7.20551 12.8246C6.98155 12.4471 6.90498 12.0001 6.99051 11.5696C7.03307 11.396 7.12689 11.2393 7.25977 11.1198C7.39264 11.0003 7.55842 10.9236 7.73551 10.8996H7.85551C7.9737 10.8996 8.09073 10.9229 8.19992 10.9681C8.30912 11.0133 8.40833 11.0796 8.4919 11.1632C8.57548 11.2468 8.64177 11.346 8.687 11.4552C8.73223 11.5644 8.75551 11.6814 8.75551 11.7996C8.75551 11.9178 8.73223 12.0348 8.687 12.144C8.64177 12.2532 8.57548 12.3524 8.4919 12.436C8.40833 12.5196 8.30912 12.5859 8.19992 12.6311C8.09073 12.6763 7.9737 12.6996 7.85551 12.6996C7.67574 12.6979 7.50098 12.6402 7.35551 12.5346C7.47249 12.8226 7.65872 13.0774 7.89769 13.2762C8.13667 13.4751 8.42101 13.6119 8.72551 13.6746C9.15214 13.4778 9.49889 13.1413 9.70849 12.7208C9.91809 12.3003 9.97802 11.8208 9.87838 11.3617C9.77873 10.9025 9.52548 10.491 9.16043 10.1952C8.79538 9.8994 8.34036 9.73692 7.87051 9.73461C7.67943 9.73563 7.48936 9.76254 7.30551 9.81461C7.32134 9.54317 7.32134 9.27105 7.30551 8.99961V6.99961C7.68551 6.99961 8.80551 8.43461 7.66051 9.49961C8.12248 9.45713 8.58574 9.56593 8.98051 9.80961C10.7205 6.49461 6.64551 5.20961 5.77051 4.44461C6.67551 8.91461 5.77051 10.3896 5.74051 11.7396C5.73259 12.3653 5.89676 12.9812 6.21507 13.5199C6.53339 14.0587 6.99362 14.4996 7.54551 14.7946C7.6659 14.8354 7.78293 14.8856 7.89551 14.9446C8.65213 15.2245 9.48389 15.2245 10.2405 14.9446C10.3326 15.2891 10.5368 15.593 10.8208 15.8086C11.1049 16.0241 11.4526 16.1389 11.8091 16.1349C12.1656 16.1309 12.5107 16.0083 12.7898 15.7864C13.0689 15.5645 13.2662 15.256 13.3505 14.9096C13.7299 15.0569 14.1336 15.1315 14.5405 15.1296C15.4224 15.1296 16.2681 14.7793 16.8916 14.1557C17.5152 13.5322 17.8655 12.6865 17.8655 11.8046C17.8655 11.8046 17.8755 11.8196 17.8655 11.8096ZM12.0655 6.60961C12.1696 6.67138 12.2478 6.76883 12.2855 6.88386C12.3232 6.99889 12.3179 7.12369 12.2706 7.23511C12.2232 7.34653 12.1371 7.43699 12.0281 7.48971C11.9191 7.54242 11.7947 7.55382 11.678 7.52177C11.5613 7.48973 11.4601 7.41642 11.3933 7.31546C11.3266 7.21449 11.2987 7.09273 11.3149 6.97276C11.331 6.85279 11.3902 6.74277 11.4813 6.66311C11.5725 6.58346 11.6895 6.53957 11.8105 6.53961C11.8615 6.53975 11.9122 6.54819 11.9605 6.56461L12.0655 6.60961ZM11.8005 2.99961C11.9485 3.13051 12.0671 3.29136 12.1482 3.47151C12.2294 3.65167 12.2714 3.84701 12.2714 4.04461C12.2714 4.24221 12.2294 4.43755 12.1482 4.6177C12.0671 4.79786 11.9485 4.95871 11.8005 5.08961C11.6525 4.95871 11.534 4.79786 11.4528 4.6177C11.3716 4.43755 11.3296 4.24221 11.3296 4.04461C11.3296 3.84701 11.3716 3.65167 11.4528 3.47151C11.534 3.29136 11.6525 3.13051 11.8005 2.99961V2.99961ZM10.0455 6.44961C10.1345 6.1974 10.274 5.96601 10.4555 5.76961C10.0868 5.71526 9.75437 5.51761 9.53051 5.21961C9.36996 5.01233 9.27584 4.76135 9.26051 4.49961C9.33824 4.47251 9.41873 4.45407 9.50051 4.44461C9.71821 4.44364 9.93315 4.49327 10.1284 4.58958C10.3236 4.6859 10.4938 4.82627 10.6255 4.99961C10.7273 5.13281 10.8036 5.28368 10.8505 5.44461C11.1412 5.27227 11.4726 5.18077 11.8105 5.17961C12.1392 5.18049 12.4619 5.26848 12.7455 5.43461C12.7946 5.27858 12.8689 5.13164 12.9655 4.99961C13.0957 4.82755 13.2632 4.68729 13.4555 4.58942C13.6478 4.49154 13.8598 4.43861 14.0755 4.43461C14.163 4.43473 14.2503 4.44479 14.3355 4.46461C14.324 4.73627 14.2298 4.99794 14.0655 5.21461C13.8443 5.50586 13.5209 5.70241 13.1605 5.76461C13.3446 5.95524 13.4845 6.18396 13.5705 6.43461C13.4974 6.45998 13.4221 6.47839 13.3455 6.48961C13.2312 6.17357 13.0222 5.90043 12.7471 5.70739C12.472 5.51435 12.1441 5.41077 11.808 5.41077C11.4719 5.41077 11.144 5.51435 10.8689 5.70739C10.5938 5.90043 10.3848 6.17357 10.2705 6.48961C10.1948 6.48266 10.1197 6.47097 10.0455 6.45461V6.44961ZM12.1955 14.5296C12.1955 14.637 12.1528 14.74 12.0769 14.816C12.0009 14.8919 11.8979 14.9346 11.7905 14.9346C11.6831 14.9346 11.5801 14.8919 11.5041 14.816C11.4282 14.74 11.3855 14.637 11.3855 14.5296V14.2196C11.5427 14.0667 11.685 13.8993 11.8105 13.7196C11.9263 13.8846 12.055 14.0401 12.1955 14.1846V14.5296Z" fill="#C6A316"/>
<path d="M18.0959 18.0901C18.0111 18.0901 17.9297 18.1238 17.8697 18.1838C17.8097 18.2438 17.7759 18.3252 17.7759 18.4101C17.7759 18.4949 17.8097 18.5763 17.8697 18.6364C17.9297 18.6964 18.0111 18.7301 18.0959 18.7301H18.7059V18.9251C18.7067 18.9364 18.705 18.9478 18.701 18.9585C18.697 18.9691 18.6907 18.9788 18.6827 18.9868C18.6746 18.9949 18.665 19.0011 18.6543 19.0051C18.6437 19.0091 18.6323 19.0108 18.6209 19.0101H17.6709V18.7551C17.6709 18.7146 17.6629 18.6745 17.6473 18.6372C17.6316 18.5999 17.6087 18.566 17.5798 18.5376C17.551 18.5092 17.5168 18.4869 17.4792 18.4718C17.4416 18.4568 17.4014 18.4494 17.3609 18.4501H16.5359V17.5801H16.3709V19.0001H16.0009C15.9691 19.0001 15.9386 18.9874 15.9161 18.9649C15.8936 18.9424 15.8809 18.9119 15.8809 18.8801V17.5801H15.7109V18.8901C15.7109 18.967 15.7415 19.0408 15.7959 19.0951C15.8503 19.1495 15.924 19.1801 16.0009 19.1801H18.6109C18.6786 19.1801 18.7434 19.1532 18.7912 19.1054C18.8391 19.0576 18.8659 18.9927 18.8659 18.9251V18.0901H18.0959ZM17.2809 19.0001H16.5859V18.6051H17.3609C17.3981 18.6051 17.4337 18.6198 17.4599 18.6461C17.4862 18.6723 17.5009 18.7079 17.5009 18.7451V19.0001H17.2809ZM17.9459 18.4001C17.9452 18.3802 17.9486 18.3604 17.9559 18.3419C17.9632 18.3233 17.9742 18.3065 17.9883 18.2925C18.0024 18.2784 18.0192 18.2674 18.0377 18.2601C18.0562 18.2528 18.0761 18.2494 18.0959 18.2501H18.7059V18.5551H18.0959C18.057 18.5551 18.0196 18.54 17.9916 18.5129C17.9636 18.4859 17.9472 18.449 17.9459 18.4101V18.4001Z" fill="#1D1D1B"/>
<path d="M9.33 18.4098C9.33 18.4947 9.36371 18.5761 9.42373 18.6361C9.48374 18.6961 9.56513 18.7298 9.65 18.7298H10.26V18.9248C10.2607 18.9362 10.259 18.9476 10.255 18.9582C10.251 18.9689 10.2448 18.9785 10.2367 18.9866C10.2287 18.9946 10.219 19.0009 10.2084 19.0049C10.1977 19.0089 10.1864 19.0106 10.175 19.0098H9.225V18.7548C9.22501 18.7144 9.21695 18.6743 9.20131 18.637C9.18567 18.5996 9.16276 18.5658 9.13391 18.5374C9.10505 18.509 9.07084 18.4866 9.03325 18.4716C8.99567 18.4566 8.95547 18.4492 8.915 18.4498H8V18.6148H8.9C8.93713 18.6148 8.97274 18.6296 8.99899 18.6558C9.02525 18.6821 9.04 18.7177 9.04 18.7548V18.9998H8V19.1698H10.16C10.2276 19.1698 10.2925 19.143 10.3403 19.0952C10.3881 19.0473 10.415 18.9825 10.415 18.9148V18.0898H9.65C9.56513 18.0898 9.48374 18.1236 9.42373 18.1836C9.36371 18.2436 9.33 18.325 9.33 18.4098ZM10.26 18.5648H9.65C9.62987 18.5649 9.60995 18.5608 9.59142 18.553C9.57289 18.5451 9.55612 18.5336 9.54213 18.5192C9.52813 18.5047 9.51719 18.4876 9.50995 18.4688C9.50271 18.45 9.49933 18.43 9.5 18.4098C9.4993 18.39 9.5027 18.3701 9.50999 18.3516C9.51729 18.3331 9.52831 18.3163 9.54238 18.3022C9.55645 18.2882 9.57327 18.2771 9.59178 18.2698C9.6103 18.2625 9.63011 18.2591 9.65 18.2598H10.26V18.5648Z" fill="#1D1D1B"/>
<path d="M7.45563 18.4498H6.86063L7.74062 17.5898H7.45563L6.40563 18.5898H7.45563C7.49276 18.5898 7.52837 18.6046 7.55462 18.6308C7.58088 18.6571 7.59562 18.6927 7.59562 18.7298V18.9998H5.75563C5.72983 19.0005 5.70417 18.996 5.6802 18.9864C5.65623 18.9768 5.63445 18.9625 5.61621 18.9443C5.59796 18.926 5.58362 18.9042 5.57407 18.8803C5.56451 18.8563 5.55994 18.8306 5.56063 18.8048C5.55996 18.7788 5.56451 18.7529 5.57401 18.7287C5.58351 18.7044 5.59777 18.6824 5.61594 18.6637C5.63412 18.6451 5.65584 18.6303 5.67983 18.6201C5.70382 18.61 5.72959 18.6048 5.75563 18.6048H6.15563V18.4498H5.75563C5.65882 18.4498 5.56598 18.4883 5.49753 18.5567C5.42908 18.6252 5.39062 18.718 5.39062 18.8148C5.39062 18.9116 5.42908 19.0045 5.49753 19.0729C5.56598 19.1414 5.65882 19.1798 5.75563 19.1798H7.75563V18.7548C7.75564 18.6748 7.72419 18.598 7.66807 18.5409C7.61195 18.4839 7.53565 18.4512 7.45563 18.4498V18.4498Z" fill="#1D1D1B"/>
<path d="M14.59 19.1807V18.8007C14.59 18.7543 14.5808 18.7084 14.5629 18.6656C14.545 18.6228 14.5188 18.584 14.4857 18.5514C14.4527 18.5189 14.4135 18.4932 14.3705 18.4759C14.3274 18.4586 14.2814 18.45 14.235 18.4507H13.915V18.2957H13.7V18.4507H13.375C13.2822 18.4507 13.1932 18.4876 13.1275 18.5532C13.0619 18.6189 13.025 18.7079 13.025 18.8007V19.0007H12.79C12.7577 19.0007 12.7266 18.9882 12.7033 18.9659C12.68 18.9435 12.6663 18.913 12.665 18.8807V17.5957H12.5V18.8907C12.5 18.9676 12.5306 19.0414 12.5849 19.0958C12.6393 19.1501 12.7131 19.1807 12.79 19.1807H14.59ZM14.235 18.6157C14.2841 18.6157 14.3311 18.6352 14.3658 18.6699C14.4005 18.7046 14.42 18.7516 14.42 18.8007V19.0007H13.92V18.6057L14.235 18.6157ZM13.195 18.8007C13.195 18.7525 13.2138 18.7062 13.2474 18.6716C13.281 18.6371 13.3268 18.617 13.375 18.6157H13.7V19.0007H13.2L13.195 18.8007Z" fill="#1D1D1B"/>
<path d="M15.4659 18.8906V18.2656H15.2959V18.8906C15.2959 18.9225 15.2833 18.953 15.2608 18.9755C15.2383 18.998 15.2078 19.0106 15.1759 19.0106H14.8359V19.1806H15.1759C15.2529 19.1806 15.3266 19.1501 15.381 19.0957C15.4354 19.0413 15.4659 18.9675 15.4659 18.8906Z" fill="#1D1D1B"/>
<path d="M11.0442 19.1806H12.2092V19.0006H11.0442C10.9965 19.0006 10.9507 18.9817 10.9169 18.9479C10.8832 18.9141 10.8642 18.8684 10.8642 18.8206C10.8642 18.7729 10.8832 18.7271 10.9169 18.6933C10.9507 18.6596 10.9965 18.6406 11.0442 18.6406H12.1792V18.2656H11.9992V18.5006H11.0492C11.0035 18.5 10.9581 18.5084 10.9157 18.5254C10.8732 18.5425 10.8346 18.5678 10.802 18.5999C10.7695 18.632 10.7436 18.6702 10.726 18.7124C10.7083 18.7546 10.6992 18.7999 10.6992 18.8456V18.8456C10.703 18.935 10.7409 19.0195 10.8051 19.0818C10.8692 19.1441 10.9548 19.1794 11.0442 19.1806Z" fill="#1D1D1B"/>
<path d="M10.0594 17.5859H9.85938V17.7859H10.0594V17.5859Z" fill="#1D1D1B"/>
<path d="M18.7253 17.5859H18.0703V17.7859H18.7253V17.5859Z" fill="#1D1D1B"/>
<path d="M18.5543 20.3598H18.0993C18.079 20.3598 18.0588 20.3558 18.04 20.348C18.0212 20.3402 18.0041 20.3288 17.9897 20.3144C17.9753 20.3 17.9639 20.2829 17.9561 20.2641C17.9483 20.2453 17.9443 20.2251 17.9443 20.2048C17.9443 20.1846 17.9484 20.1647 17.9562 20.1462C17.9641 20.1277 17.9756 20.1109 17.99 20.0969C18.0045 20.0829 18.0216 20.072 18.0404 20.0647C18.0592 20.0575 18.0792 20.0541 18.0993 20.0548H18.8143V19.8848H18.0993C18.0573 19.8848 18.0157 19.893 17.9769 19.9091C17.9381 19.9252 17.9028 19.9488 17.8731 19.9785C17.8433 20.0082 17.8198 20.0435 17.8037 20.0823C17.7876 20.1211 17.7793 20.1627 17.7793 20.2048C17.7787 20.2472 17.7865 20.2894 17.8022 20.3288C17.818 20.3682 17.8415 20.404 17.8713 20.4343C17.9011 20.4645 17.9366 20.4885 17.9757 20.5049C18.0149 20.5213 18.0569 20.5298 18.0993 20.5298H18.5543C18.5954 20.5298 18.6349 20.5461 18.6639 20.5752C18.693 20.6042 18.7093 20.6437 18.7093 20.6848C18.7093 20.7259 18.693 20.7653 18.6639 20.7944C18.6349 20.8234 18.5954 20.8398 18.5543 20.8398H17.8293V20.9998H18.5543C18.6392 20.9998 18.7206 20.9661 18.7806 20.906C18.8406 20.846 18.8743 20.7646 18.8743 20.6798C18.8743 20.5949 18.8406 20.5135 18.7806 20.4535C18.7206 20.3935 18.6392 20.3598 18.5543 20.3598Z" fill="#1D1D1B"/>
<path d="M17.2498 19.9199H16.4648V20.9999H16.6348V20.0849H17.2498C17.2861 20.0849 17.321 20.099 17.3471 20.1241C17.3732 20.1493 17.3885 20.1837 17.3898 20.2199V20.9999H17.5598V20.2249C17.5585 20.1436 17.5253 20.066 17.4673 20.0089C17.4093 19.9519 17.3312 19.9199 17.2498 19.9199V19.9199Z" fill="#1D1D1B"/>
<path d="M5.56063 20.2308C5.56063 20.1937 5.57538 20.1581 5.60163 20.1318C5.62789 20.1056 5.66349 20.0908 5.70062 20.0908H6.27063V19.9258H5.70062C5.66015 19.9252 5.61995 19.9326 5.58237 19.9476C5.54479 19.9626 5.51057 19.985 5.48172 20.0134C5.45286 20.0418 5.42995 20.0756 5.41431 20.1129C5.39867 20.1503 5.39062 20.1903 5.39063 20.2308V21.0008H5.56063V20.5008H6.28562V20.3358H5.56063V20.2308Z" fill="#1D1D1B"/>
<path d="M8.70406 19.9258H7.91406V20.0908H8.70406C8.72288 20.0908 8.7415 20.0946 8.75882 20.1019C8.77614 20.1092 8.7918 20.12 8.80487 20.1335C8.81794 20.1471 8.82814 20.1631 8.83488 20.1807C8.84161 20.1982 8.84473 20.217 8.84406 20.2358V20.6908C8.84473 20.7096 8.84161 20.7283 8.83488 20.7459C8.82814 20.7635 8.81794 20.7795 8.80487 20.793C8.7918 20.8066 8.77614 20.8173 8.75882 20.8247C8.7415 20.832 8.72288 20.8358 8.70406 20.8358H8.08906V20.2858H7.91906V21.0008H8.70406C8.78674 20.9995 8.86558 20.9657 8.92358 20.9068C8.98157 20.8478 9.01407 20.7685 9.01406 20.6858V20.2308C9.01275 20.1494 8.97951 20.0719 8.92152 20.0148C8.86352 19.9577 8.78542 19.9258 8.70406 19.9258V19.9258Z" fill="#1D1D1B"/>
<path d="M16.1251 19.9043H15.9551V21.0143H16.1251V19.9043Z" fill="#1D1D1B"/>
<path d="M12.4453 19.9043H12.0703V20.0693H12.4453V21.0093H12.6153V20.0693H12.9903V19.9043H12.6153H12.4453Z" fill="#1D1D1B"/>
<path d="M13.9451 19.895H13.2301V20.065H13.9451C13.9778 20.0601 14.0111 20.0624 14.0429 20.0716C14.0747 20.0808 14.1041 20.0967 14.1291 20.1183C14.1541 20.1399 14.1742 20.1666 14.188 20.1967C14.2018 20.2268 14.2089 20.2594 14.2089 20.2925C14.2089 20.3256 14.2018 20.3582 14.188 20.3883C14.1742 20.4184 14.1541 20.4451 14.1291 20.4667C14.1041 20.4883 14.0747 20.5042 14.0429 20.5134C14.0111 20.5226 13.9778 20.5249 13.9451 20.52H13.3751V20.29H13.2051V21H13.3751V20.67H13.4651L13.8951 20.99H14.1651L13.7301 20.67H13.9451C14.0428 20.659 14.1331 20.6124 14.1986 20.5391C14.2642 20.4658 14.3004 20.3709 14.3004 20.2725C14.3004 20.1741 14.2642 20.0792 14.1986 20.0059C14.1331 19.9326 14.0428 19.886 13.9451 19.875V19.895Z" fill="#1D1D1B"/>
<path d="M15.3349 19.9355H14.6199V20.1055H15.3349C15.3721 20.1055 15.4077 20.1203 15.4339 20.1466C15.4602 20.1728 15.4749 20.2084 15.4749 20.2455V20.8455H14.8649C14.8448 20.8462 14.8248 20.8428 14.806 20.8356C14.7872 20.8284 14.7701 20.8174 14.7556 20.8034C14.7411 20.7894 14.7296 20.7727 14.7218 20.7541C14.7139 20.7356 14.7099 20.7157 14.7099 20.6955C14.7099 20.6544 14.7263 20.615 14.7553 20.5859C14.7844 20.5569 14.8238 20.5405 14.8649 20.5405H15.3199V20.3755H14.8649C14.7801 20.3755 14.6987 20.4093 14.6386 20.4693C14.5786 20.5293 14.5449 20.6107 14.5449 20.6955C14.5449 20.7804 14.5786 20.8618 14.6386 20.9218C14.6987 20.9818 14.7801 21.0155 14.8649 21.0155H15.6449V20.2455C15.6449 20.1633 15.6123 20.0845 15.5541 20.0263C15.496 19.9682 15.4171 19.9355 15.3349 19.9355V19.9355Z" fill="#1D1D1B"/>
<path d="M10.04 19.9355H9.325V20.1055H10.04C10.0771 20.1055 10.1127 20.1203 10.139 20.1466C10.1653 20.1728 10.18 20.2084 10.18 20.2455V20.8455H9.57C9.54988 20.8462 9.52984 20.8428 9.51106 20.8356C9.49228 20.8284 9.47515 20.8174 9.46069 20.8034C9.44622 20.7894 9.43473 20.7727 9.42688 20.7541C9.41903 20.7356 9.41499 20.7157 9.415 20.6955C9.415 20.6544 9.43133 20.615 9.4604 20.5859C9.48947 20.5569 9.52889 20.5405 9.57 20.5405H10.025V20.3755H9.57C9.48513 20.3755 9.40374 20.4093 9.34373 20.4693C9.28371 20.5293 9.25 20.6107 9.25 20.6955C9.25 20.7804 9.28371 20.8618 9.34373 20.9218C9.40374 20.9818 9.48513 21.0155 9.57 21.0155H10.35V20.2455C10.35 20.1633 10.3173 20.0845 10.2592 20.0263C10.2011 19.9682 10.1222 19.9355 10.04 19.9355V19.9355Z" fill="#1D1D1B"/>
<path d="M7.33406 19.9355H6.61906V20.1055H7.33406C7.37119 20.1055 7.4068 20.1203 7.43306 20.1466C7.45931 20.1728 7.47406 20.2084 7.47406 20.2455V20.8455H6.85906C6.83918 20.8462 6.81936 20.8428 6.80084 20.8356C6.78233 20.8283 6.76551 20.8172 6.75144 20.8032C6.73737 20.7891 6.72635 20.7723 6.71906 20.7538C6.71177 20.7353 6.70836 20.7154 6.70906 20.6955C6.70839 20.6754 6.71178 20.6554 6.71901 20.6366C6.72625 20.6178 6.73719 20.6007 6.75119 20.5862C6.76518 20.5718 6.78195 20.5603 6.80048 20.5524C6.81901 20.5446 6.83894 20.5405 6.85906 20.5405H7.31906V20.3755H6.85906C6.77419 20.3755 6.6928 20.4093 6.63279 20.4693C6.57278 20.5293 6.53906 20.6107 6.53906 20.6955C6.53906 20.7804 6.57278 20.8618 6.63279 20.9218C6.6928 20.9818 6.77419 21.0155 6.85906 21.0155H7.63906V20.2455C7.63973 20.2051 7.63233 20.1649 7.6173 20.1273C7.60227 20.0897 7.57991 20.0555 7.55152 20.0266C7.52313 19.9978 7.48928 19.9749 7.45195 19.9592C7.41461 19.9436 7.37454 19.9355 7.33406 19.9355Z" fill="#1D1D1B"/>
<path d="M11.4 19.9043L10.825 20.3843V19.9043H10.625V21.0093H10.825V20.5293L11.4 21.0093H11.665L11 20.4593L11.665 19.9043H11.4Z" fill="#1D1D1B"/>
</g>
<defs>
<clipPath id="clip0_987_160420">
<rect width="24" height="24" fill="white"/>
</clipPath>
</defs>
</svg>
