<svg width="48" height="48" viewBox="0 0 24 24" fill="none" xmlns="http://www.w3.org/2000/svg">
<g clip-path="url(#clip0_987_160444)">
<path d="M9.17578 9.16406C9.19952 9.21267 9.23576 9.25408 9.28078 9.28406Z" fill="#00A6D6"/>
<path d="M9.50039 9.44947C9.73635 9.57336 9.99165 9.65621 10.2554 9.69447C10.896 9.78688 11.5436 9.82202 12.1904 9.79947C12.2084 9.80461 12.2274 9.80461 12.2454 9.79947C12.2499 9.79284 12.2523 9.785 12.2523 9.77697C12.2523 9.76895 12.2499 9.76111 12.2454 9.75447V9.75447C12.1031 9.62598 11.9915 9.46717 11.9188 9.28976C11.8461 9.11235 11.8142 8.92087 11.8254 8.72947C11.8254 8.15947 11.8704 7.56947 11.8254 7.00447C11.7804 6.43947 11.2654 6.21447 10.7854 6.00447C10.3244 5.80861 9.84313 5.6644 9.35039 5.57447C9.2684 5.5533 9.18238 5.5533 9.10039 5.57447C9.07919 5.58301 9.06086 5.59743 9.04758 5.61603C9.03429 5.63463 9.02659 5.65664 9.02539 5.67947C9.02539 5.75447 9.10539 5.79947 9.17039 5.83947C9.341 5.95711 9.4593 6.13635 9.50039 6.33947C9.54043 6.5442 9.54043 6.75474 9.50039 6.95947C9.43573 7.30072 9.34035 7.63541 9.21539 7.95947C9.04603 8.26356 8.9877 8.61709 9.05039 8.95947C9.14007 9.16938 9.29886 9.34228 9.50039 9.44947Z" fill="#00A6D6"/>
<path d="M12.2109 7.06455C12.2151 7.09851 12.227 7.13104 12.2459 7.15955C12.4529 7.50327 12.5699 7.89365 12.5859 8.29455C12.5878 8.33464 12.6016 8.37324 12.6257 8.40534C12.6498 8.43744 12.683 8.46156 12.7209 8.47456C13.0828 8.57365 13.4558 8.62575 13.8309 8.62955H13.9459C13.9719 8.62198 13.9947 8.60619 14.0109 8.58455C14.0272 8.56292 14.0359 8.5366 14.0359 8.50955V8.04955C14.0359 7.94583 14.0141 7.84326 13.9719 7.74851C13.9297 7.65376 13.868 7.56894 13.7909 7.49955L13.7609 7.47455C13.6281 7.37814 13.4814 7.30229 13.3259 7.24955C13.0046 7.12791 12.6682 7.05053 12.3259 7.01955C12.2559 6.99955 12.2159 7.03455 12.2109 7.06455Z" fill="#00A6D6"/>
<path d="M13.9998 8.90523C13.8498 8.72523 13.6248 8.76523 13.4248 8.76523C13.2684 8.76099 13.1135 8.73404 12.9648 8.68524C12.8872 8.65436 12.8069 8.63092 12.7248 8.61523C12.6098 8.61523 12.4748 8.64523 12.4648 8.79023C12.4651 8.83968 12.4789 8.88811 12.5048 8.93023C12.6072 9.07316 12.7616 9.17013 12.9348 9.20023C13.266 9.24659 13.6007 9.26333 13.9348 9.25023C13.9534 9.25029 13.9719 9.24649 13.9889 9.23909C14.006 9.23169 14.0213 9.22084 14.034 9.20723C14.0467 9.19361 14.0564 9.17752 14.0626 9.15997C14.0688 9.14242 14.0712 9.12379 14.0698 9.10523C14.0721 9.0322 14.0471 8.96093 13.9998 8.90523V8.90523Z" fill="#00A6D6"/>
<path d="M14.1657 9.99995H14.1257C13.9926 10.01 13.8589 10.01 13.7257 9.99995C13.4433 9.99904 13.1629 9.95174 12.8957 9.85995C12.7916 9.82164 12.6975 9.76008 12.6207 9.67995C12.5507 9.60495 12.4757 9.47995 12.5507 9.37995C12.5852 9.3446 12.6315 9.32322 12.6807 9.31995C12.7587 9.31002 12.8377 9.31002 12.9157 9.31995L13.1657 9.34495C13.4357 9.34495 13.7057 9.37495 13.9807 9.37495C14.0657 9.37495 14.1307 9.37495 14.1557 9.46495L14.2157 9.67495C14.2563 9.75543 14.2652 9.84821 14.2407 9.93495C14.236 9.95195 14.2263 9.96717 14.213 9.97873C14.1997 9.99028 14.1832 9.99766 14.1657 9.99995Z" fill="#00A6D6"/>
<path d="M14.3601 7.79504C14.3721 7.85346 14.4032 7.90624 14.4484 7.94514C14.4936 7.98403 14.5505 8.00686 14.6101 8.01004C14.6901 8.01004 15.3851 8.12004 15.4901 8.15504C15.5041 8.15879 15.5189 8.15887 15.533 8.15526C15.5471 8.15166 15.56 8.1445 15.5706 8.13446C15.5811 8.12443 15.5889 8.11185 15.5932 8.09795C15.5975 8.08404 15.5981 8.06927 15.5951 8.05504C15.554 7.94995 15.4863 7.85734 15.3987 7.78633C15.311 7.71532 15.2064 7.66835 15.0951 7.65004C14.8703 7.56611 14.6345 7.51557 14.3951 7.50004C14.3826 7.49964 14.3703 7.50215 14.359 7.50735C14.3477 7.51256 14.3378 7.52032 14.33 7.53002C14.3223 7.53973 14.3169 7.55111 14.3143 7.56326C14.3117 7.57542 14.3119 7.58801 14.3151 7.60004C14.3251 7.65504 14.3451 7.72504 14.3601 7.79504Z" fill="#00A6D6"/>
<path d="M15.2845 8.20482C15.1745 8.20482 14.6645 8.13482 14.5445 8.10482C14.5317 8.0988 14.5175 8.09651 14.5035 8.0982C14.4895 8.09988 14.4763 8.10549 14.4653 8.11436C14.4543 8.12324 14.4461 8.13503 14.4415 8.14838C14.437 8.16172 14.4363 8.17609 14.4395 8.18982C14.4395 8.26482 14.4645 8.33982 14.4795 8.42482C14.4878 8.46799 14.5098 8.50734 14.5422 8.53705C14.5747 8.56676 14.6158 8.58526 14.6595 8.58982C14.7445 8.58982 15.1595 8.58982 15.2995 8.61482C15.3862 8.62131 15.4718 8.63809 15.5545 8.66482C15.6045 8.66482 15.7145 8.68982 15.6595 8.45482C15.6595 8.45482 15.6345 8.21482 15.2845 8.20482Z" fill="#00A6D6"/>
<path d="M16.1358 9.88555C15.9871 9.60116 15.8616 9.3052 15.7608 9.00055C15.7474 8.93984 15.7166 8.88435 15.6722 8.84084C15.6278 8.79733 15.5717 8.76769 15.5108 8.75555C15.4152 8.73751 15.318 8.72913 15.2208 8.73055C15.0808 8.73055 14.6458 8.73055 14.5758 8.69555C14.5652 8.69468 14.5547 8.6962 14.5448 8.69999C14.535 8.70378 14.5261 8.70975 14.5189 8.71744C14.5117 8.72513 14.5063 8.73435 14.5032 8.74441C14.5 8.75448 14.4992 8.76512 14.5008 8.77555C14.5458 9.03055 14.6308 9.37055 14.6808 9.72055C14.6808 9.72055 14.7258 9.97055 15.1308 10.0005C15.4383 10.0307 15.7482 10.0307 16.0558 10.0005C16.0815 9.99568 16.1043 9.9809 16.1193 9.9594C16.1342 9.93789 16.1401 9.91138 16.1358 9.88555V9.88555Z" fill="#00A6D6"/>
<path d="M15.8096 7.97083C16.042 8.56032 16.2275 9.16719 16.3646 9.78583C16.3815 9.84041 16.4153 9.88821 16.4612 9.92235C16.507 9.9565 16.5625 9.97522 16.6196 9.97583H17.1196C17.1428 9.97568 17.1658 9.9703 17.1866 9.9601C17.2075 9.94989 17.2258 9.93512 17.2403 9.91688C17.2547 9.89863 17.2648 9.87738 17.2699 9.8547C17.2749 9.83201 17.2748 9.80848 17.2696 9.78583C17.1146 9.31083 16.7246 8.15583 16.6446 8.06083C16.4134 7.94392 16.1625 7.87101 15.9046 7.84583C15.8891 7.84503 15.8737 7.84802 15.8597 7.85454C15.8456 7.86105 15.8334 7.8709 15.8241 7.88322C15.8147 7.89554 15.8085 7.90996 15.806 7.92523C15.8034 7.9405 15.8047 7.95615 15.8096 7.97083V7.97083Z" fill="#00A6D6"/>
<path d="M16.8841 8.07031C16.8591 8.07031 16.8441 8.10031 16.8841 8.11531C17.1366 8.4182 17.2886 8.79215 17.3191 9.18531C17.3191 9.37031 17.3941 9.92031 17.7491 9.91031L18.2491 9.86531C17.8591 9.45531 17.9141 8.07031 17.4141 8.08531L16.8841 8.07031Z" fill="#00A6D6"/>
<path d="M17.7448 8.20406C18.0346 8.65789 18.2207 9.17006 18.2898 9.70406C18.2947 9.73279 18.3104 9.75858 18.3336 9.77621C18.3568 9.79385 18.3858 9.80202 18.4148 9.79906C18.5648 9.79906 18.8098 9.75406 18.8598 9.75906C18.4748 9.09906 18.5648 8.21406 18.1198 8.16406H17.7648C17.7648 8.16406 17.7398 8.18906 17.7448 8.20406Z" fill="#00A6D6"/>
<path d="M19.5505 8.79492L18.9355 9.41492C18.9355 9.51492 18.9655 9.62492 18.9755 9.74492C18.9755 9.74492 18.9755 9.77992 19.0155 9.77492C19.2306 9.76454 19.4446 9.7378 19.6555 9.69492C19.6786 9.68867 19.7001 9.67777 19.7188 9.66288C19.7375 9.648 19.753 9.62944 19.7642 9.60837C19.7754 9.58729 19.7822 9.56413 19.7842 9.54032C19.7861 9.51651 19.7832 9.49255 19.7755 9.46992C19.7205 9.29992 19.6305 8.99992 19.5505 8.79492Z" fill="#00A6D6"/>
<path d="M12.4356 5.63014C12.4287 5.64361 12.4193 5.6556 12.4077 5.66541C12.3962 5.67522 12.3829 5.68266 12.3685 5.6873C12.3541 5.69195 12.3389 5.69371 12.3238 5.69248C12.3088 5.69125 12.2941 5.68705 12.2806 5.68014C11.2156 5.12514 7.63561 3.70514 5.52561 7.10014C5.12061 7.75514 4.62561 8.81014 5.46061 9.35014C5.88732 9.60063 6.34669 9.79077 6.82561 9.91514C7.26024 10.0284 7.70095 10.1169 8.14561 10.1801C10.5706 10.4901 18.5706 9.94514 19.8856 9.91014C19.9606 9.91014 20.0006 9.96014 20.0106 10.0301C20.0115 10.0487 20.0084 10.0672 20.0015 10.0845C19.9946 10.1017 19.984 10.1173 19.9706 10.1301C19.9428 10.1376 19.9135 10.1376 19.8856 10.1301L18.5956 10.2251L15.4456 10.4451C14.2889 10.5251 13.1339 10.5985 11.9806 10.6651C11.2106 10.7101 10.4406 10.7651 9.67061 10.7551C8.64831 10.7272 7.62838 10.6421 6.61561 10.5001C6.10003 10.4032 5.59691 10.2489 5.11561 10.0401C4.7759 9.87541 4.50092 9.60199 4.33426 9.26324C4.16759 8.92448 4.1188 8.53978 4.19561 8.17014C4.28431 7.75279 4.4542 7.35695 4.69561 7.00514C4.92258 6.62376 5.19269 6.26976 5.50061 5.95014C6.03636 5.31557 6.73148 4.83517 7.51447 4.55836C8.29747 4.28154 9.14007 4.2183 9.95561 4.37514C10.7806 4.49014 11.6756 5.10514 12.3856 5.48014C12.4115 5.49401 12.4312 5.51728 12.4405 5.54518C12.4498 5.57308 12.448 5.60348 12.4356 5.63014V5.63014Z" fill="#00A6D6"/>
<path d="M4.70456 10.0691C4.51711 10.1854 4.35683 10.3405 4.23456 10.5241C4.17147 10.5841 4.12257 10.6575 4.09143 10.7388C4.06029 10.8201 4.04769 10.9073 4.05456 10.9941C4.08956 11.1541 4.28456 11.2641 4.43956 11.3191C4.73657 11.3855 5.04024 11.4173 5.34456 11.4141L10.1996 11.1941C10.3096 11.1941 10.2496 10.9691 9.96956 10.9491C9.54456 10.8941 6.27956 11.0991 5.59956 10.9841C5.59956 10.9841 4.85956 10.9841 4.93456 10.3191C4.93456 10.3191 4.99956 10.0241 4.70456 10.0691Z" fill="#00A6D6"/>
<path d="M20.5891 10.4492C20.5794 10.4458 20.5688 10.4458 20.5591 10.4492C20.5241 10.4492 20.4641 10.4742 20.2941 10.7092C20.1783 10.8683 20.0531 11.0202 19.9191 11.1642C19.5241 11.0992 19.4191 10.1642 18.4591 10.6642C19.2791 10.5992 19.3841 11.2942 19.7341 11.3092C19.3991 11.4342 19.1541 10.8092 18.4941 10.8092C18.2865 10.8116 18.0806 10.847 17.8841 10.9142C17.5321 11.0562 17.1529 11.1177 16.7741 11.0942C16.4491 11.0942 16.1991 11.0942 16.1991 11.0942C17.0225 11.2397 17.7903 11.608 18.4191 12.1592C15.8291 10.7692 13.5841 11.6842 12.3841 11.8192C11.1241 12.1592 7.6691 11.8742 7.6691 11.8742C6.89483 11.7878 6.11336 11.7878 5.3391 11.8742C5.32849 11.8742 5.31831 11.8784 5.31081 11.8859C5.30331 11.8934 5.2991 11.9036 5.2991 11.9142C5.2991 11.9248 5.30331 11.935 5.31081 11.9425C5.31831 11.95 5.32849 11.9542 5.3391 11.9542C7.2441 11.8642 11.2091 13.1542 11.2091 13.1542C7.2091 11.9242 4.7091 12.0492 4.0841 12.1092C3.94284 12.1239 3.80553 12.1646 3.6791 12.2292C3.2991 12.4292 3.3641 12.6792 3.4441 12.8142C3.47828 12.8716 3.5243 12.921 3.5791 12.9592C3.95956 13.1944 4.2352 13.5667 4.34909 13.9992C4.74409 14.1242 6.4091 14.8492 6.4091 14.8492C6.81029 14.8415 7.21082 14.8131 7.6091 14.7642C8.0391 15.1492 8.91909 14.9942 9.74409 15.0192C10.109 15.03 10.4741 15.0049 10.8341 14.9442C11.0337 14.9143 11.2297 14.8641 11.4191 14.7942C11.8196 14.6425 12.2381 14.5434 12.6641 14.4992C12.9691 14.5292 14.4491 14.5242 14.4491 14.5242C14.8637 14.3648 15.2922 14.2443 15.7291 14.1642C16.2669 13.9266 16.8198 13.7245 17.3841 13.5592V13.4892L18.3141 12.9892C19.2291 12.8942 19.5991 11.8792 19.7691 11.8592C19.7191 11.9992 19.4991 12.4992 19.4991 12.4992C19.7641 12.3592 19.9991 11.7092 19.9991 11.7092L19.9391 12.4142C20.3291 11.7042 20.1541 11.4742 20.0941 11.2792C20.2831 11.0378 20.4505 10.7801 20.5941 10.5092V10.5092C20.6003 10.4893 20.5985 10.4678 20.5891 10.4492V10.4492ZM20.5891 10.4992C20.4437 10.7628 20.2765 11.0137 20.0891 11.2492L20.0391 11.3142C20.0252 11.3349 20.0083 11.3534 19.9891 11.3692V11.3692L19.9341 11.4292L19.8791 11.4792L19.8141 11.5342L19.7541 11.5842C19.7348 11.6052 19.713 11.6236 19.6891 11.6392V11.6392L19.6241 11.6892L19.5491 11.7442L19.4791 11.7942L19.3991 11.8492L19.3191 11.8992C19.2641 11.9392 19.2041 11.9742 19.1441 12.0092H19.1191L19.0241 12.0592L18.9241 12.1092L18.8291 12.1592L18.7241 12.2092H18.6941L18.5991 12.2542L18.4841 12.3042H18.4541L18.3491 12.3492L18.2241 12.3942H18.1941L18.0791 12.4342H18.0491L17.9091 12.4842L17.7841 12.5242H17.7491L17.5991 12.5742H17.3491L17.2141 12.6142H17.1741L17.0141 12.6592H16.9991L16.8491 12.6992H16.8041L16.6241 12.7442L16.4491 12.7842H16.3991L16.2091 12.8292C14.1341 13.2692 11.0941 13.6592 6.2091 13.9192C11.7091 13.5242 15.1291 13.0592 17.1741 12.4492L17.4191 12.3842L17.6641 12.3092C17.8441 12.2442 18.0241 12.1742 18.1941 12.0992L18.5391 11.9442L18.7141 11.8542L18.8691 11.7642L18.9841 11.6992L19.1091 11.6192H19.1441L19.2441 11.5542L19.3641 11.4742L19.4641 11.3992H19.4891L19.5991 11.3092C19.6381 11.2785 19.6748 11.2451 19.7091 11.2092V11.2092L19.7991 11.1242C19.9802 10.9546 20.1474 10.7706 20.2991 10.5742C20.4441 10.3692 20.5141 10.3242 20.5441 10.3242C20.5741 10.3242 20.5841 10.4992 20.5841 10.4992H20.5891Z" fill="#00A6D6"/>
<path d="M10.135 16.5C10.135 16.5 10.095 16.54 10.06 16.615C10.0319 16.6596 10.0116 16.7086 10 16.76C10 16.76 10 16.785 10.025 16.795L10.105 16.85L10.17 16.89C10.17 16.89 10.21 16.86 10.245 16.8C10.2738 16.7563 10.2926 16.7068 10.3 16.655C10.2877 16.6152 10.2632 16.5802 10.23 16.555C10.19 16.5 10.155 16.5 10.135 16.5Z" fill="#00A6D6"/>
<path d="M10.0448 17.4303C10.0448 17.4303 9.99977 17.4503 9.99977 17.5003C9.98299 17.5277 9.96796 17.5561 9.95477 17.5853L9.90977 17.6803C9.89558 17.7052 9.88546 17.7322 9.87977 17.7603C9.87934 17.7735 9.88181 17.7866 9.887 17.7987C9.89218 17.8108 9.89995 17.8216 9.90977 17.8303C9.92796 17.8458 9.95089 17.8546 9.97477 17.8553H9.99977H10.0348C10.0441 17.8565 10.053 17.8598 10.0608 17.865C10.0687 17.8702 10.0751 17.8772 10.0798 17.8853C10.0847 17.9033 10.0847 17.9223 10.0798 17.9403C10.0798 17.9403 10.0798 17.9753 10.0248 18.0053L9.99977 18.0003L9.87977 18.0503C9.83938 18.0682 9.80086 18.0899 9.76477 18.1153C9.72392 18.1493 9.68549 18.186 9.64977 18.2253L9.53977 18.3753L9.37977 18.5953C9.35465 18.6313 9.32619 18.6648 9.29477 18.6953L9.19477 18.7953L9.04477 18.9203L8.91477 19.0153H8.88477C8.90244 19.0223 8.92209 19.0223 8.93976 19.0153L9.05977 18.9553L9.15977 18.9003C9.29126 18.811 9.40772 18.7013 9.50477 18.5753L9.68477 18.3553C9.73224 18.2875 9.7958 18.2325 9.86977 18.1953L9.97477 18.1553L10.0648 18.1203C10.1024 18.0842 10.136 18.0439 10.1648 18.0003C10.1958 17.9536 10.221 17.9032 10.2398 17.8503C10.2637 17.7899 10.2756 17.7253 10.2748 17.6603C10.2784 17.5872 10.2573 17.515 10.2148 17.4553C10.1912 17.4364 10.163 17.4242 10.1332 17.4198C10.1033 17.4154 10.0728 17.419 10.0448 17.4303V17.4303Z" fill="#00A6D6"/>
<path d="M11.801 17.6242L11.766 17.5542C11.7535 17.534 11.7384 17.5155 11.721 17.4992H11.691C11.6747 17.5208 11.6613 17.5443 11.651 17.5692C11.6406 17.5848 11.6322 17.6016 11.626 17.6192L11.591 17.6542C11.5708 17.6796 11.5525 17.7064 11.536 17.7342C11.5034 17.8058 11.4595 17.8717 11.406 17.9292H11.381C11.3697 17.9335 11.3572 17.9335 11.346 17.9292C11.346 17.9292 11.316 17.9292 11.291 17.9742C11.2793 17.998 11.2622 18.0185 11.241 18.0342C11.2331 18.0378 11.2246 18.0397 11.216 18.0397C11.2073 18.0397 11.1988 18.0378 11.191 18.0342C11.191 18.0342 11.161 18.0342 11.136 18.0742C11.1296 18.0874 11.1205 18.0992 11.1093 18.1086C11.0981 18.1181 11.085 18.1251 11.071 18.1292C11.0502 18.1379 11.0268 18.1379 11.006 18.1292C11.006 18.1292 10.951 18.1292 10.901 18.1992C10.8606 18.243 10.8053 18.2698 10.746 18.2742C10.7092 18.2781 10.6722 18.2712 10.6393 18.2543C10.6065 18.2374 10.5792 18.2113 10.561 18.1792C10.5223 18.1272 10.5013 18.0641 10.501 17.9992C10.501 17.9992 10.501 17.9542 10.501 17.8892C10.501 17.8242 10.501 17.7042 10.541 17.5292C10.581 17.3542 10.576 17.2292 10.581 17.1692C10.586 17.1092 10.581 17.1692 10.581 17.1692C10.531 17.2942 10.496 17.3842 10.481 17.4342C10.451 17.6092 10.426 17.7692 10.411 17.9342C10.396 18.0992 10.411 18.1892 10.411 18.2692C10.4089 18.2975 10.4089 18.3259 10.411 18.3542C10.4086 18.3809 10.4086 18.4076 10.411 18.4342C10.451 18.5492 10.516 18.6042 10.611 18.6042C10.6552 18.6016 10.698 18.5873 10.7349 18.5627C10.7718 18.5381 10.8015 18.5041 10.821 18.4642C10.881 18.3742 10.926 18.3242 10.961 18.3242H11.046L11.106 18.2842L11.161 18.2392C11.1754 18.2334 11.1915 18.2334 11.206 18.2392H11.241L11.286 18.1992H11.321L11.406 18.1492C11.4501 18.1089 11.4872 18.0616 11.516 18.0092L11.561 17.9592C11.5701 17.954 11.5804 17.9512 11.591 17.9512C11.6015 17.9512 11.6118 17.954 11.621 17.9592H11.731C11.7582 17.9414 11.7813 17.9179 11.7985 17.8902C11.8158 17.8626 11.8269 17.8316 11.831 17.7992C11.8387 17.7696 11.84 17.7387 11.8349 17.7085C11.8297 17.6783 11.8181 17.6496 11.801 17.6242V17.6242Z" fill="#00A6D6"/>
<path d="M13.7999 17.4599H13.7649C13.7391 17.4619 13.7133 17.4575 13.6897 17.447C13.6662 17.4366 13.6456 17.4204 13.6299 17.3999C13.6089 17.3617 13.5985 17.3185 13.5999 17.2749C13.6054 17.2212 13.6137 17.1678 13.6249 17.1149C13.6325 17.0744 13.6425 17.0343 13.6549 16.9949C13.6549 16.9449 13.6849 16.8949 13.6999 16.8449C13.7149 16.7949 13.6999 16.7949 13.6999 16.7949C13.6999 16.7949 13.6499 16.8499 13.6049 16.9549C13.5653 17.0448 13.5302 17.1366 13.4999 17.2299C13.4999 17.2299 13.4999 17.2899 13.4649 17.3499C13.4477 17.4187 13.4377 17.4891 13.4349 17.5599C13.4314 17.6191 13.4491 17.6776 13.4849 17.7249C13.5147 17.7633 13.5545 17.7927 13.5999 17.8099C13.5303 17.8968 13.47 17.9906 13.4199 18.0899C13.3714 18.1738 13.3439 18.2681 13.3399 18.3649C13.3394 18.4121 13.3553 18.4581 13.3849 18.4949C13.3955 18.5133 13.4108 18.5286 13.4292 18.5391C13.4477 18.5497 13.4686 18.5551 13.4899 18.5549C13.5549 18.5549 13.6099 18.5149 13.6599 18.4299C13.7028 18.37 13.7272 18.2987 13.7299 18.2249C13.7344 18.2001 13.7344 18.1747 13.7299 18.1499C13.7299 18.1149 13.6899 18.0999 13.6699 18.0999C13.6687 18.1132 13.6687 18.1266 13.6699 18.1399C13.6699 18.1849 13.6349 18.2099 13.6249 18.2099C13.6149 18.2099 13.6249 18.2099 13.5949 18.1799C13.5869 18.1521 13.5869 18.1227 13.5949 18.0949C13.6056 17.9964 13.6437 17.9029 13.7049 17.8249C13.7049 17.8249 13.7049 17.8249 13.7049 17.8249L13.7799 17.7099C13.804 17.6661 13.8257 17.6211 13.8449 17.5749C13.8491 17.5518 13.8491 17.5281 13.8449 17.5049C13.8449 17.5049 13.8099 17.4599 13.7999 17.4599Z" fill="#00A6D6"/>
<path d="M14.4545 17.7246C14.4545 17.7246 14.4295 17.7246 14.4195 17.7596C14.3969 17.8017 14.3769 17.8451 14.3595 17.8896C14.3595 17.9546 14.3045 18.0196 14.2745 18.0846C14.2478 18.1334 14.2178 18.1802 14.1845 18.2246C14.1487 18.2689 14.1065 18.3076 14.0595 18.3396L13.8995 18.4446C13.8671 18.4605 13.8383 18.4826 13.8145 18.5096C13.8145 18.5096 13.8145 18.5096 13.8145 18.5396C13.8145 18.5696 13.8145 18.5396 13.8145 18.5396H13.8895C13.9437 18.5326 13.9972 18.5209 14.0495 18.5046C14.0999 18.4921 14.1474 18.4701 14.1895 18.4396C14.2235 18.4129 14.2509 18.3787 14.2695 18.3396C14.3031 18.277 14.3315 18.2118 14.3545 18.1446C14.3864 18.0665 14.4131 17.9863 14.4345 17.9046C14.4505 17.856 14.4605 17.8056 14.4645 17.7546C14.4645 17.7546 14.4645 17.7246 14.4545 17.7246Z" fill="#00A6D6"/>
<path d="M15.9295 16.3594C15.9295 16.3594 15.9045 16.3594 15.8795 16.4244L15.8145 16.5344L15.7345 16.4494C15.7045 16.4194 15.6795 16.4044 15.6595 16.4144C15.6395 16.4244 15.6245 16.4544 15.5845 16.5344C15.5562 16.5759 15.5343 16.6214 15.5195 16.6694C15.5195 16.6694 15.5195 16.6694 15.5645 16.7144L15.6345 16.7744C15.6345 16.7744 15.6595 16.7744 15.6695 16.7744C15.6795 16.7744 15.7445 16.7144 15.7995 16.6044C15.8288 16.6246 15.8556 16.6481 15.8795 16.6744C15.9095 16.7044 15.9295 16.7194 15.9395 16.7194C15.9395 16.7194 15.9845 16.7194 16.0195 16.6394C16.0536 16.6001 16.0746 16.5511 16.0795 16.4994C16.0714 16.4599 16.0523 16.4235 16.0245 16.3944C15.997 16.3736 15.964 16.3614 15.9295 16.3594V16.3594Z" fill="#00A6D6"/>
<path d="M15.6842 17.4306C15.6697 17.4315 15.6556 17.4361 15.6433 17.444C15.6311 17.4519 15.6211 17.4628 15.6142 17.4756C15.5935 17.4976 15.5766 17.523 15.5642 17.5506C15.545 17.5912 15.5283 17.633 15.5142 17.6756C15.5009 17.7009 15.4908 17.7278 15.4842 17.7556C15.4814 17.7688 15.4814 17.7824 15.4842 17.7956C15.4943 17.8112 15.5086 17.8237 15.5253 17.8316C15.5421 17.8396 15.5608 17.8427 15.5792 17.8406H15.6492C15.6492 17.8406 15.6792 17.8406 15.6892 17.8756C15.6971 17.9034 15.6971 17.9328 15.6892 17.9606C15.6892 18.0056 15.6542 18.0656 15.5742 18.1406C15.5604 18.1604 15.5414 18.176 15.5192 18.1856L15.4792 18.2156L15.4342 18.2456C15.3948 18.2713 15.3529 18.293 15.3092 18.3106V18.3106C15.4048 18.2067 15.466 18.0757 15.4842 17.9356C15.4845 17.9188 15.4805 17.9022 15.4726 17.8874C15.4648 17.8725 15.4533 17.8599 15.4392 17.8506C15.4148 17.8278 15.3826 17.8153 15.3492 17.8156C15.2744 17.8274 15.2067 17.8666 15.1592 17.9256L15.0692 18.0356L15.0992 17.9406C15.1155 17.8898 15.1289 17.838 15.1392 17.7856C15.1422 17.7273 15.1422 17.6689 15.1392 17.6106V17.4606C15.1368 17.419 15.1368 17.3773 15.1392 17.3356C15.1392 17.2906 15.1392 17.2356 15.1392 17.1656C15.1423 17.1576 15.1423 17.1487 15.1392 17.1406V17.1756L15.0842 17.3156C15.0591 17.3807 15.0391 17.4475 15.0242 17.5156C15.0199 17.6006 15.0199 17.6857 15.0242 17.7706C15.0291 17.8439 15.0291 17.9174 15.0242 17.9906C15.0216 18.0366 15.0079 18.0812 14.9842 18.1206L14.8942 18.2556C14.8507 18.2565 14.8077 18.2461 14.7692 18.2256C14.751 18.2169 14.7348 18.2044 14.7219 18.1888C14.7089 18.1733 14.6995 18.1552 14.6942 18.1356C14.689 18.0991 14.689 18.0621 14.6942 18.0256V18.0256C14.6942 18.0256 14.6942 17.9806 14.6942 17.9156C14.6942 17.8506 14.6942 17.7306 14.7392 17.5556C14.7842 17.3806 14.7742 17.2556 14.7742 17.1956C14.7742 17.1356 14.7742 17.1956 14.7742 17.1956C14.7355 17.2818 14.7021 17.3703 14.6742 17.4606C14.6392 17.6356 14.6142 17.7956 14.5992 17.9606C14.5842 18.1256 14.5742 18.2156 14.5742 18.2956C14.5737 18.3738 14.5963 18.4503 14.6392 18.5156C14.6684 18.552 14.7059 18.581 14.7485 18.6001C14.7911 18.6192 14.8376 18.628 14.8842 18.6256C14.9706 18.6238 15.055 18.5997 15.1292 18.5556H15.1542C15.1916 18.5483 15.2283 18.5383 15.2642 18.5256L15.3892 18.4706L15.4742 18.4256C15.5132 18.4042 15.55 18.3791 15.5842 18.3506C15.6253 18.3169 15.6637 18.2802 15.6992 18.2406C15.725 18.2126 15.7484 18.1825 15.7692 18.1506L15.8242 18.0406C15.8429 17.9987 15.858 17.9552 15.8692 17.9106C15.8713 17.8723 15.8713 17.8339 15.8692 17.7956C15.8692 17.7268 15.8464 17.66 15.8042 17.6056C15.808 17.567 15.798 17.5283 15.7761 17.4963C15.7541 17.4643 15.7216 17.441 15.6842 17.4306ZM15.1192 18.0956C15.1658 18.0433 15.2297 18.0095 15.2992 18.0006C15.3256 17.9948 15.3529 17.9948 15.3792 18.0006C15.3792 18.0006 15.4142 18.0306 15.4142 18.0456C15.4142 18.0606 15.4142 18.0906 15.3542 18.1206C15.3116 18.1525 15.2644 18.1778 15.2142 18.1956C15.1451 18.2194 15.0724 18.2312 14.9992 18.2306L15.1192 18.0956Z" fill="#00A6D6"/>
<path d="M16.8555 17.7051L16.9205 17.7601C16.932 17.7633 16.9441 17.7633 16.9555 17.7601C16.9922 17.7601 17.0372 17.7051 17.0905 17.5951L17.1705 17.6651C17.2005 17.6951 17.2205 17.7101 17.2305 17.7101C17.2305 17.7101 17.2755 17.6801 17.3105 17.6301C17.3446 17.5908 17.3656 17.5418 17.3705 17.4901C17.3603 17.4504 17.3396 17.4141 17.3105 17.3851C17.2882 17.3565 17.2562 17.3369 17.2205 17.3301C17.2205 17.3301 17.2205 17.3301 17.1705 17.3951C17.1495 17.4332 17.1261 17.4699 17.1005 17.5051C17.0789 17.474 17.0537 17.4455 17.0255 17.4201C16.9955 17.3901 16.9655 17.3751 16.9505 17.3851C16.9355 17.3951 16.9155 17.4251 16.8755 17.5001C16.8468 17.5431 16.8248 17.5903 16.8105 17.6401L16.8555 17.7051Z" fill="#00A6D6"/>
<path d="M17.8993 18.2509C17.9114 18.2317 17.9248 18.2133 17.9393 18.1959L17.9743 18.1409C17.9971 18.1092 18.024 18.0806 18.0543 18.0559C18.0734 18.0352 18.0975 18.0197 18.1243 18.0109H18.2493C18.2493 18.0109 18.2943 18.0109 18.3243 17.9609C18.3549 17.9255 18.3818 17.887 18.4043 17.8459C18.4293 17.8051 18.4495 17.7615 18.4643 17.7159C18.4799 17.6601 18.4916 17.6033 18.4993 17.5459C18.4993 17.4909 18.4993 17.3259 18.4993 17.0459C18.5021 16.9943 18.5021 16.9426 18.4993 16.8909C18.5017 16.8443 18.5017 16.7976 18.4993 16.7509V16.7109L18.4443 16.8759L18.3693 17.1009V17.5259C18.3693 17.5559 18.3693 17.5959 18.3693 17.6459C18.3718 17.6792 18.3718 17.7127 18.3693 17.7459C18.3693 17.7859 18.3343 17.8009 18.3043 17.7959C18.2779 17.7907 18.2507 17.7907 18.2243 17.7959C18.1784 17.8072 18.1367 17.8315 18.1043 17.8659L18.0443 17.9359C18.0276 17.9564 18.0126 17.9781 17.9993 18.0009C17.9657 18.0339 17.9269 18.0609 17.8843 18.0809C17.8266 18.1098 17.7664 18.1332 17.7043 18.1509C17.6131 18.1807 17.5194 18.2024 17.4243 18.2159H17.1243H16.7943C16.703 18.2263 16.6107 18.2263 16.5193 18.2159C16.4682 18.2056 16.4202 18.1834 16.3793 18.1509C16.3511 18.1207 16.3336 18.0821 16.3293 18.0409C16.3293 17.9909 16.3293 17.9709 16.3293 17.9709C16.3293 17.9709 16.3293 18.0059 16.2943 18.0859C16.2873 18.1541 16.2873 18.2228 16.2943 18.2909C16.2895 18.3332 16.2963 18.376 16.3139 18.4148C16.3315 18.4535 16.3593 18.4868 16.3943 18.5109C16.4503 18.5447 16.514 18.5636 16.5793 18.5659H16.8143C17.0027 18.5633 17.1903 18.5415 17.3743 18.5009C17.5264 18.475 17.6713 18.417 17.7993 18.3309C17.8371 18.3104 17.871 18.2833 17.8993 18.2509V18.2509Z" fill="#00A6D6"/>
<path d="M19.8949 15.4197L19.6499 15.6597L19.3699 15.8997L18.9699 16.2247C18.8661 16.305 18.7676 16.3918 18.6749 16.4847C18.6446 16.5118 18.6192 16.544 18.5999 16.5797C18.5783 16.6216 18.5599 16.6651 18.5449 16.7097C18.5449 16.7097 18.5449 16.7097 18.5949 16.6847L18.6349 16.6497L18.6799 16.6147L18.8999 16.4447L19.1499 16.2497C19.2149 16.1997 19.2899 16.1447 19.3649 16.0747L19.5149 15.9497L19.6199 15.8547L19.7799 15.7097L19.8749 15.6097C19.9186 15.5754 19.9603 15.5387 19.9999 15.4997L20.0899 15.3697C20.1146 15.327 20.1347 15.2817 20.1499 15.2347C20.1499 15.2347 20.1499 15.2347 20.1499 15.2047C20.1499 15.1747 20.0549 15.2697 19.8949 15.4197Z" fill="#00A6D6"/>
<path d="M19.4156 16.5001L19.4956 16.5601C19.5306 16.5901 19.5506 16.6051 19.5606 16.6051C19.5706 16.6051 19.6006 16.5751 19.6356 16.5151C19.6652 16.4718 19.6841 16.4221 19.6906 16.3701C19.6865 16.3264 19.667 16.2857 19.6356 16.2551C19.6079 16.2262 19.5705 16.2084 19.5306 16.2051C19.5306 16.2051 19.4906 16.2451 19.4506 16.3251C19.4266 16.3699 19.4066 16.4168 19.3906 16.4651C19.391 16.4727 19.3936 16.48 19.398 16.4862C19.4025 16.4924 19.4086 16.4972 19.4156 16.5001Z" fill="#00A6D6"/>
<path d="M19.6844 16.5352C19.6844 16.5352 19.6544 16.5352 19.6244 16.6102L19.5544 16.7202C19.5353 16.6871 19.5098 16.6582 19.4794 16.6352C19.4394 16.6052 19.4144 16.5852 19.3944 16.5852C19.3744 16.5852 19.3544 16.6302 19.3094 16.7102C19.278 16.7549 19.2528 16.8037 19.2344 16.8552L19.3144 16.9252C19.3415 16.9479 19.3718 16.9664 19.4044 16.9802C19.4344 16.9802 19.4844 16.9252 19.5444 16.8052C19.5771 16.8286 19.6073 16.8554 19.6344 16.8852C19.6487 16.9055 19.6701 16.9197 19.6944 16.9252C19.6944 16.9252 19.7444 16.9002 19.7844 16.8402C19.8176 16.8004 19.8385 16.7517 19.8444 16.7002C19.8389 16.6558 19.8176 16.615 19.7844 16.5852C19.7576 16.5577 19.7224 16.5401 19.6844 16.5352V16.5352Z" fill="#00A6D6"/>
<path d="M19.7004 17.2709C19.7004 17.2709 19.7004 17.2709 19.6704 17.3059L19.6304 17.3659H19.5404C19.4991 17.3751 19.4632 17.4002 19.4404 17.4359L19.3704 17.5259L19.3204 17.5909C19.314 17.6031 19.3048 17.6135 19.2935 17.6214C19.2821 17.6292 19.2691 17.6342 19.2554 17.6359H19.1954H19.0754H19.0454H19.0104C18.9365 17.6665 18.8661 17.7051 18.8004 17.7509C18.7156 17.8154 18.64 17.8911 18.5754 17.9759C18.5754 18.0059 18.4904 18.0859 18.4004 18.2209L18.3204 18.3359C18.2653 18.4222 18.2034 18.5041 18.1354 18.5809C18.076 18.6448 18.0125 18.7049 17.9454 18.7609C17.891 18.804 17.8343 18.844 17.7754 18.8809L17.6904 18.9559C17.6865 18.9655 17.6865 18.9762 17.6904 18.9859C17.705 18.9908 17.7208 18.9908 17.7354 18.9859H17.7604L17.8904 18.9209L18.0254 18.8309C18.0904 18.7815 18.1522 18.728 18.2104 18.6709C18.2881 18.5894 18.36 18.5025 18.4254 18.4109C18.4954 18.3109 18.5604 18.2309 18.6104 18.1659C18.6617 18.0996 18.7264 18.0451 18.8004 18.0059L18.9204 17.9559H19.0154H19.0754C19.0991 17.9597 19.1234 17.9576 19.1461 17.9498C19.1688 17.9419 19.1892 17.9285 19.2054 17.9109C19.2745 17.8262 19.3364 17.7358 19.3904 17.6409C19.4071 17.6105 19.4291 17.5834 19.4554 17.5609H19.5154H19.5804C19.6171 17.5609 19.6571 17.5059 19.7004 17.3959C19.7049 17.3677 19.7049 17.339 19.7004 17.3109C19.7004 17.3109 19.7154 17.2609 19.7004 17.2709Z" fill="#00A6D6"/>
<path d="M8.28558 17.1991C8.33842 17.1543 8.37382 17.0923 8.38558 17.0241C8.39689 16.9989 8.40274 16.9716 8.40274 16.9441C8.40274 16.9165 8.39689 16.8892 8.38558 16.8641V16.8641C8.34689 16.8321 8.30021 16.8114 8.25058 16.8041L8.10058 16.7691C8.06697 16.7564 8.03506 16.7396 8.00558 16.7191C7.99105 16.7027 7.97923 16.6841 7.97058 16.6641V16.6641C7.95329 16.683 7.93972 16.7051 7.93058 16.7291V16.7291C7.92775 16.7506 7.92775 16.7725 7.93058 16.7941C7.92334 16.8151 7.92334 16.838 7.93058 16.8591C7.93299 16.8687 7.93799 16.8776 7.94504 16.8846C7.95208 16.8916 7.96091 16.8966 7.97058 16.8991C7.91912 16.9355 7.87501 16.9813 7.84058 17.0341C7.82478 17.0635 7.81963 17.0975 7.82601 17.1303C7.83239 17.1631 7.8499 17.1927 7.87558 17.2141C7.53914 17.4534 7.1584 17.6234 6.75558 17.7141C6.50903 17.7722 6.25823 17.8107 6.00558 17.8291C5.76578 17.8716 5.52037 17.8716 5.28058 17.8291C5.21055 17.811 5.14202 17.7876 5.07558 17.7591C5.00558 17.7291 4.96558 17.7291 4.91558 17.7941L4.81058 17.9391C4.81058 17.9391 4.78058 17.9941 4.75058 17.9991H4.67558C4.62586 17.9915 4.57529 17.9915 4.52558 17.9991C4.45058 17.9991 4.36558 18.1591 4.30058 18.1841C4.24825 18.2021 4.19129 18.2015 4.13935 18.1824C4.08741 18.1632 4.04369 18.1267 4.01558 18.0791C3.98707 18.0055 3.9702 17.9279 3.96558 17.8491C3.95112 17.6259 3.96966 17.4018 4.02058 17.1841C4.02058 17.1841 4.00058 16.9991 3.97058 16.9991C3.94058 16.9991 3.93558 17.0541 3.93058 17.0641C3.81736 17.41 3.7534 17.7702 3.74058 18.1341C3.73026 18.2359 3.75495 18.3382 3.81058 18.4241L3.87058 18.4891C3.90628 18.5123 3.94797 18.5247 3.99058 18.5247C4.03318 18.5247 4.07487 18.5123 4.11058 18.4891C4.1853 18.4366 4.24551 18.3661 4.28558 18.2841C4.30736 18.2233 4.34756 18.1709 4.40058 18.1341C4.44494 18.1633 4.49807 18.1764 4.55094 18.1709C4.60381 18.1654 4.65315 18.1418 4.69058 18.1041L4.76058 18.0241C4.76058 18.0241 4.80558 17.9491 4.83558 17.9641C4.86342 17.9824 4.89013 18.0025 4.91558 18.0241C4.9478 18.0473 4.98315 18.0658 5.02058 18.0791C5.34652 18.2211 5.70999 18.2528 6.05558 18.1691C6.34009 18.1098 6.6181 18.0227 6.88558 17.9091C7.25931 17.769 7.59984 17.5527 7.88558 17.2741L7.93058 17.2391C7.94883 17.2366 7.96733 17.2366 7.98558 17.2391C8.03549 17.2546 8.08818 17.259 8.13998 17.2521C8.19179 17.2452 8.24147 17.2271 8.28558 17.1991V17.1991ZM8.00058 17.0691H7.93058C7.87774 17.0587 7.83008 17.0304 7.79558 16.9891C7.79393 16.9775 7.79393 16.9657 7.79558 16.9541V16.9541C7.8107 16.9395 7.82882 16.9283 7.84867 16.9214C7.86853 16.9145 7.88965 16.912 7.91058 16.9141C7.93165 16.9179 7.95093 16.9284 7.96558 16.9441C7.96989 16.9655 7.96989 16.9876 7.96558 17.0091V17.0391L8.00058 17.0691ZM8.03058 17.1041C8.03303 17.0841 8.03303 17.064 8.03058 17.0441C8.03545 17.0244 8.03545 17.0038 8.03058 16.9841V16.9841C8.08058 16.9841 8.13558 16.9841 8.18558 17.0141C8.21294 17.0224 8.23841 17.036 8.26058 17.0541C8.27951 17.0697 8.29343 17.0906 8.30058 17.1141L8.23058 17.1441C8.17749 17.1514 8.12366 17.1514 8.07058 17.1441L8.03058 17.1041Z" fill="#00A6D6"/>
<path d="M4.5957 16.9604L4.6257 16.9904C4.6257 16.9904 4.6557 17.0304 4.6757 17.0304C4.6957 17.0304 4.7507 16.9704 4.7707 16.9454C4.79635 16.913 4.81816 16.8778 4.8357 16.8404L5.0007 17.0004H5.0457C5.07432 16.9793 5.0996 16.954 5.1207 16.9254C5.14113 16.8976 5.15793 16.8674 5.1707 16.8354C5.1707 16.8354 5.1707 16.8004 5.1707 16.7854C5.13995 16.7314 5.09717 16.6852 5.0457 16.6504C5.0457 16.6504 5.0457 16.6504 5.0457 16.6504C5.0107 16.6504 4.9807 16.6954 4.9607 16.7154C4.92831 16.7503 4.90286 16.791 4.8857 16.8354V16.8354L4.8357 16.7954C4.81971 16.781 4.80619 16.7641 4.7957 16.7454C4.7957 16.7454 4.7507 16.7454 4.7457 16.7454C4.71986 16.7679 4.6964 16.7931 4.6757 16.8204C4.65528 16.8481 4.63847 16.8784 4.6257 16.9104C4.62076 16.9178 4.61812 16.9265 4.61812 16.9354C4.61812 16.9443 4.62076 16.953 4.6257 16.9604C4.61571 16.9597 4.60569 16.9597 4.5957 16.9604V16.9604Z" fill="#00A6D6"/>
<path d="M4.21023 19.25C4.21023 19.25 4.17023 19.25 4.16523 19.25C4.11821 19.2908 4.07921 19.3399 4.05023 19.395V19.43L3.91023 19.31C3.91023 19.31 3.87023 19.31 3.86523 19.31C3.83939 19.3325 3.81593 19.3577 3.79523 19.385C3.77401 19.4131 3.75559 19.4433 3.74023 19.475C3.74023 19.475 3.74023 19.515 3.74023 19.525L3.89523 19.65C3.89523 19.65 3.93523 19.65 3.94023 19.65C3.9616 19.6332 3.98166 19.6148 4.00023 19.595C4.01809 19.5736 4.0332 19.5501 4.04523 19.525L4.11523 19.59C4.14023 19.59 4.16023 19.64 4.19523 19.635C4.23023 19.63 4.24523 19.605 4.25523 19.595L4.31523 19.525C4.3305 19.5011 4.34387 19.476 4.35523 19.45C4.35523 19.45 4.35523 19.415 4.35523 19.4C4.31691 19.3412 4.26769 19.2903 4.21023 19.25V19.25Z" fill="#00A6D6"/>
</g>
<defs>
<clipPath id="clip0_987_160444">
<rect width="24" height="24" fill="white"/>
</clipPath>
</defs>
</svg>
