<svg width="48" height="48" viewBox="0 0 24 24" fill="none" xmlns="http://www.w3.org/2000/svg">
<g clip-path="url(#clip0_987_160482)">
<g clip-path="url(#clip1_987_160482)">
<path d="M19.1101 9.385H18.7001V10.545H7.11508V7.43H15.4201V7H6.70508V11.05H19.1101V9.385Z" fill="#7FDBF0"/>
<path d="M4.06469 7H3.66969V11.03H1.67969V11.555H4.06469V7Z" fill="#7FDBF0"/>
<path d="M22.6547 13.145H19.2097C19.4097 13.09 19.5447 12.91 19.5447 12.705V12.53H21.8147C22.2997 12.53 22.6897 12.14 22.6897 11.655V10.97C22.6897 10.705 22.5747 10.455 22.3797 10.275L18.9147 7.22C18.7697 7.085 18.5797 7.005 18.3797 7H16.6147V7.415H17.7947C17.9197 7.415 18.0397 7.47 18.1297 7.555L21.7047 11.015C21.7647 11.075 21.7597 11.17 21.7047 11.225C21.6797 11.25 21.6447 11.265 21.6047 11.27H6.26969V7H4.37469V11.79H1.69469V12.53H11.0447V12.705C11.0447 12.91 11.1797 13.09 11.3797 13.145H1.67969V13.435H22.6797L22.6547 13.145ZM5.92969 8.935H4.76969V7.435H5.92969V8.935ZM18.9547 13.145H14.7097C14.9047 13.09 15.0397 12.91 15.0397 12.705V12.53H18.6197V12.705C18.6197 12.91 18.7597 13.09 18.9547 13.145ZM13.4997 12.705V12.53H14.1147V12.705C14.1147 12.91 14.2497 13.09 14.4497 13.145H13.1697C13.3647 13.09 13.4997 12.91 13.4997 12.705V12.705ZM11.9647 12.705V12.53H12.5797V12.705C12.5797 12.91 12.7147 13.09 12.9097 13.145H11.6347C11.8297 13.09 11.9697 12.91 11.9697 12.705H11.9647Z" fill="#7FDBF0"/>
<path d="M8.35922 9.99992C8.35922 9.95992 8.34922 9.92492 8.31922 9.89992C8.29422 9.87492 8.25422 9.85992 8.21922 9.85992C8.17922 9.85992 8.14422 9.87492 8.11422 9.89992C8.08422 9.93492 8.07422 9.97992 8.07422 10.0249C8.07422 10.0799 8.09922 10.1299 8.14422 10.1599C8.20922 10.1999 8.28422 10.2199 8.35922 10.2149C8.45922 10.2199 8.55922 10.1949 8.64422 10.1449C8.71422 10.0999 8.76922 10.0249 8.79422 9.94492C8.82422 9.82992 8.83422 9.71492 8.83422 9.59992V8.59992C8.83422 8.57492 8.83422 8.54492 8.83422 8.51992C8.83422 8.51992 8.83422 8.49492 8.87422 8.48492H9.03422V8.41992H8.25922V8.48492H8.46922C8.46922 8.48492 8.49422 8.48992 8.49922 8.49992C8.50422 8.52492 8.50422 8.55492 8.49922 8.57992V9.87492C8.49922 9.93992 8.49422 10.0099 8.46422 10.0699C8.43922 10.1099 8.39922 10.1349 8.34922 10.1349C8.33922 10.1349 8.32922 10.1349 8.31922 10.1349C8.31922 10.1349 8.31922 10.1099 8.31922 10.0949C8.34422 10.0699 8.35922 10.0349 8.35922 9.99992Z" fill="#7FDBF0"/>
<path d="M10.7506 9.32432C10.9256 9.33432 11.1006 9.28932 11.2506 9.19432C11.3606 9.10932 11.4206 8.97932 11.4156 8.83932C11.4156 8.71932 11.3656 8.60432 11.2706 8.52432C11.1406 8.42932 10.9756 8.38432 10.8156 8.39932H10.0156V8.49932H10.2356C10.2356 8.49932 10.2706 8.51932 10.2806 8.53432C10.2806 8.56432 10.2806 8.59432 10.2806 8.62432V9.99932C10.2856 10.0293 10.2856 10.0543 10.2806 10.0843C10.2806 10.0843 10.2806 10.1143 10.2356 10.1193H10.1206V10.1943H10.8256V10.1193C10.7856 10.1193 10.7456 10.1193 10.7056 10.1193C10.6856 10.1193 10.6656 10.1043 10.6556 10.0843C10.6556 10.0543 10.6556 10.0293 10.6556 9.99932V9.32432H10.7506V9.32432ZM10.6606 8.56932V8.50432C10.6856 8.49432 10.7156 8.49432 10.7406 8.50432C10.8256 8.49932 10.9106 8.52932 10.9706 8.59432C11.0256 8.67432 11.0506 8.76932 11.0456 8.86432C11.0556 8.96432 11.0256 9.06432 10.9656 9.14932C10.9056 9.21432 10.8206 9.24932 10.7356 9.24432H10.6406L10.6606 8.56932V8.56932Z" fill="#7FDBF0"/>
<path d="M12.9152 8.50039C12.9402 8.49039 12.9752 8.49039 13.0002 8.50039H13.2302C13.2902 8.49039 13.3502 8.49039 13.4102 8.50039C13.4502 8.51539 13.4852 8.54539 13.5102 8.58539C13.5402 8.64039 13.5652 8.70039 13.5802 8.76539H13.6602V8.40039H12.2852V8.50039H12.4852C12.4852 8.50039 12.5252 8.50039 12.5302 8.53539C12.5402 8.60039 12.5402 8.67039 12.5302 8.73539V10.1054C12.5302 10.0354 12.5302 10.0654 12.5302 10.0804C12.5302 10.0954 12.5302 10.1104 12.4852 10.1154C12.4502 10.1204 12.4102 10.1204 12.3752 10.1154V10.1954H13.0802V10.1154C13.0402 10.1204 12.9952 10.1204 12.9552 10.1154C12.9352 10.1154 12.9152 10.1004 12.9052 10.0804C12.9052 10.0504 12.9052 10.0254 12.9052 9.99539V9.32039H13.1502C13.1852 9.31039 13.2252 9.31039 13.2602 9.32039C13.2852 9.33039 13.3052 9.35539 13.3102 9.38039C13.3302 9.42039 13.3402 9.46539 13.3402 9.51039H13.4102V9.00039H13.3402C13.3402 9.04539 13.3252 9.09039 13.3102 9.13039C13.3002 9.15539 13.2852 9.17539 13.2602 9.18539C13.2252 9.19539 13.1852 9.19539 13.1502 9.18539H12.9052V8.53539C12.9052 8.53539 12.9052 8.51039 12.9152 8.50039Z" fill="#7FDBF0"/>
<path d="M15.4652 8.50039C15.5452 8.49539 15.6202 8.52039 15.6802 8.57539C15.7402 8.64539 15.7752 8.73539 15.7852 8.82539H15.8652V8.40039H14.3652V8.80539H14.4452C14.4502 8.71539 14.4852 8.63039 14.5452 8.56039C14.6002 8.50539 14.6752 8.47539 14.7552 8.48039H14.9402V10.0004C14.9402 10.0304 14.9402 10.0554 14.9402 10.0854C14.9302 10.1004 14.9152 10.1154 14.8952 10.1204H14.6952V10.2004H15.5402V10.1204H15.3102C15.3102 10.1204 15.2702 10.1054 15.2602 10.0854C15.2602 10.0554 15.2602 10.0304 15.2602 10.0004V8.50039H15.4652V8.50039Z" fill="#7FDBF0"/>
<path d="M16.6753 10.2159C16.7403 10.2209 16.8053 10.2059 16.8553 10.1659C16.8953 10.1259 16.9253 10.0809 16.9453 10.0309H16.9053C16.8853 10.0659 16.8653 10.0959 16.8353 10.1259C16.8053 10.1459 16.7653 10.1559 16.7303 10.1559C16.6803 10.1559 16.6303 10.1359 16.6053 10.0959C16.5753 10.0259 16.5603 9.95086 16.5653 9.87586C16.5603 9.81086 16.5703 9.74086 16.5953 9.68086C16.6153 9.64586 16.6553 9.62586 16.6953 9.62586C16.7153 9.62086 16.7303 9.62086 16.7503 9.62586C16.7553 9.64086 16.7553 9.65086 16.7503 9.66586C16.7503 9.67586 16.7503 9.68586 16.7503 9.69586C16.7503 9.71086 16.7503 9.72586 16.7503 9.74086C16.7453 9.76086 16.7453 9.78086 16.7503 9.80086C16.7703 9.81086 16.7953 9.81086 16.8153 9.80086C16.8403 9.80086 16.8653 9.79586 16.8853 9.77586C16.8953 9.75586 16.8953 9.73086 16.8853 9.71086C16.8853 9.66586 16.8653 9.62086 16.8253 9.59086C16.7703 9.55586 16.7053 9.54086 16.6403 9.54586C16.5553 9.54086 16.4703 9.57086 16.4053 9.63086C16.3453 9.70086 16.3153 9.79086 16.3203 9.88086C16.3103 9.97086 16.3403 10.0609 16.4003 10.1259C16.4703 10.2009 16.5753 10.2359 16.6753 10.2159V10.2159Z" fill="#7FDBF0"/>
<path d="M17.6148 10.1345C17.6748 10.0645 17.7048 9.97445 17.6948 9.88445C17.7048 9.79445 17.6748 9.69945 17.6148 9.62945C17.5448 9.56945 17.4548 9.54445 17.3648 9.54945C17.2748 9.54445 17.1848 9.57445 17.1148 9.63445C17.0548 9.70445 17.0248 9.79445 17.0298 9.88445C17.0248 9.97445 17.0548 10.0645 17.1098 10.1345C17.1798 10.1945 17.2748 10.2245 17.3648 10.2145C17.4548 10.2245 17.5448 10.1945 17.6148 10.1345V10.1345ZM17.2598 10.0995C17.2348 10.0295 17.2248 9.95945 17.2298 9.88445C17.2298 9.80945 17.2348 9.73945 17.2598 9.66945C17.2748 9.62445 17.3198 9.59945 17.3648 9.59945C17.4098 9.59945 17.4498 9.62945 17.4648 9.66945C17.4898 9.74445 17.4998 9.81945 17.4948 9.89945C17.4948 9.96945 17.4898 10.0394 17.4648 10.1044C17.4448 10.1594 17.3798 10.1895 17.3248 10.1695C17.2948 10.1595 17.2748 10.1344 17.2598 10.1044V10.0995Z" fill="#7FDBF0"/>
<path d="M9.34961 10.0454C9.34961 10.1254 9.40961 10.1904 9.48961 10.1954C9.48961 10.1954 9.49461 10.1954 9.49961 10.1954C9.57961 10.2104 9.65961 10.1554 9.67461 10.0754C9.68961 9.99539 9.63461 9.91539 9.55461 9.90039C9.53461 9.90039 9.51961 9.90039 9.49961 9.90039C9.41961 9.90039 9.35461 9.96039 9.34961 10.0404C9.34961 10.0404 9.34961 10.0404 9.34961 10.0454V10.0454Z" fill="#7FDBF0"/>
<path d="M11.5 10.0454C11.5 10.1254 11.56 10.1904 11.64 10.1954C11.64 10.1954 11.645 10.1954 11.65 10.1954C11.73 10.2104 11.81 10.1554 11.825 10.0754C11.84 9.99539 11.785 9.91539 11.705 9.90039C11.685 9.90039 11.67 9.90039 11.65 9.90039C11.57 9.90039 11.505 9.96039 11.5 10.0404C11.5 10.0404 11.5 10.0404 11.5 10.0454V10.0454Z" fill="#7FDBF0"/>
<path d="M13.8594 10.0454C13.8594 10.1304 13.9244 10.1954 14.0094 10.1954C14.0894 10.2104 14.1694 10.1554 14.1844 10.0754C14.1994 9.99539 14.1444 9.91539 14.0644 9.90039C14.0444 9.90039 14.0294 9.90039 14.0094 9.90039C13.9294 9.90039 13.8644 9.96539 13.8594 10.0454V10.0454Z" fill="#7FDBF0"/>
<path d="M2.0707 14.7991C2.0407 14.7291 1.9907 14.6691 1.9357 14.6191H1.9057L1.7807 14.8841C1.9007 14.9941 1.9607 15.0691 1.9607 15.0991C1.9607 15.1291 1.8907 15.2041 1.7607 15.2941C1.6757 15.3491 1.5907 15.4041 1.5007 15.4491C1.4807 15.4591 1.4707 15.4741 1.4707 15.4941C1.4707 15.5291 1.4957 15.5491 1.5357 15.5491H1.9107C1.9107 15.5491 1.9457 15.5491 1.9607 15.5491C2.0707 15.4191 2.1257 15.2541 2.1157 15.0841C2.1207 14.9891 2.1057 14.8891 2.0707 14.7991Z" fill="#7FDBF0"/>
<path d="M2.74516 15.4409L2.84016 15.3509L2.93016 15.4409L3.02516 15.3509L2.92516 15.2559L2.84016 15.3459L2.74516 15.2559L2.66016 15.3459V15.3709L2.75516 15.4609C2.75516 15.4609 2.74016 15.4509 2.74516 15.4409V15.4409Z" fill="#7FDBF0"/>
<path d="M2.84938 15.6245L2.93938 15.5295L2.84438 15.4395L2.73438 15.4995L2.82938 15.5945C2.82938 15.5945 2.83938 15.6295 2.84938 15.6245Z" fill="#7FDBF0"/>
<path d="M2.64491 15.1409C2.74991 15.1509 2.84991 15.1109 2.91491 15.0309C2.96991 14.9359 2.99991 14.8309 2.99991 14.7209C2.99991 14.5859 2.95991 14.4509 2.87491 14.3409L2.72991 14.5609V14.5859C2.77491 14.6259 2.81991 14.6709 2.85491 14.7209C2.85491 14.7309 2.85491 14.7409 2.85491 14.7509C2.85491 14.7509 2.85491 14.7759 2.80491 14.7759H2.60491C2.53491 14.7759 2.49991 14.7409 2.49991 14.6609V13.9609H2.46991L2.23491 14.1259C2.23491 14.1259 2.22491 14.1659 2.23491 14.1809V14.8309C2.23491 15.0409 2.33491 15.1409 2.53491 15.1409H2.64491Z" fill="#7FDBF0"/>
<path d="M3.67492 15.14H3.85992C3.94492 15.14 4.02992 15.12 4.10992 15.085C4.15992 15.06 4.20992 15.035 4.25492 15C4.29492 14.96 4.34492 14.925 4.39492 14.9C4.45992 14.875 4.52992 14.86 4.59992 14.865L4.68992 14.655C4.68992 14.655 4.68992 14.63 4.68992 14.62H4.66492C4.60492 14.61 4.54492 14.59 4.48492 14.57C4.40992 14.535 4.33492 14.495 4.26492 14.45C4.20492 14.405 4.13492 14.38 4.06492 14.375C3.97992 14.385 3.89992 14.43 3.85492 14.505C3.81492 14.55 3.78992 14.61 3.77992 14.67C3.77992 14.705 3.77992 14.725 3.82492 14.725L3.88492 14.69C3.91492 14.655 3.95492 14.635 3.99992 14.63C4.03992 14.635 4.07992 14.65 4.11992 14.665L4.27992 14.73C4.15992 14.765 4.03992 14.78 3.91492 14.775H3.66492C3.62992 14.595 3.54992 14.505 3.43492 14.505C3.31992 14.505 3.28992 14.56 3.24992 14.67C3.21992 14.755 3.20492 14.84 3.20492 14.93C3.20492 15.035 3.23992 15.1 3.30992 15.125C3.37992 15.135 3.44992 15.135 3.51992 15.125C3.51992 15.16 3.44992 15.215 3.31992 15.295C3.23992 15.345 3.15992 15.395 3.07492 15.435C3.05492 15.445 3.04492 15.46 3.04492 15.48C3.04492 15.515 3.04492 15.535 3.10992 15.535H3.49992C3.49992 15.535 3.52992 15.54 3.54492 15.535C3.62992 15.42 3.67492 15.28 3.67492 15.14V15.14ZM3.42492 14.86C3.36492 14.86 3.33492 14.85 3.33492 14.83C3.33492 14.79 3.33492 14.775 3.40992 14.775C3.42992 14.77 3.44992 14.77 3.46992 14.775C3.46992 14.775 3.50992 14.805 3.50992 14.825C3.50992 14.845 3.49992 14.86 3.42492 14.86V14.86Z" fill="#7FDBF0"/>
<path d="M4.23477 15.2752L4.13477 15.3752V15.4052L4.24477 15.5102L4.34977 15.4052L4.23977 15.3002C4.23977 15.3002 4.23977 15.2652 4.23477 15.2752V15.2752Z" fill="#7FDBF0"/>
<path d="M6.20461 15.0441C6.20461 14.9291 6.16461 14.8641 6.07961 14.8491L5.88961 14.8191C5.81961 14.8191 5.78461 14.8191 5.78461 14.7891C5.78461 14.7591 5.78461 14.7491 5.82961 14.7291C5.86961 14.6991 5.91961 14.6841 5.96961 14.6891C6.00961 14.6891 6.04961 14.6991 6.08961 14.7141L6.17961 14.7391C6.17961 14.7391 6.20461 14.7091 6.20461 14.6591C6.20461 14.6041 6.17961 14.5541 6.14461 14.5141C6.10961 14.4541 6.03961 14.4141 5.96961 14.4141C5.86461 14.4141 5.77461 14.4841 5.69961 14.6241C5.64461 14.7141 5.61461 14.8141 5.60961 14.9191C5.60961 14.9941 5.66461 15.0441 5.77461 15.0691L6.03461 15.0941H6.07961L6.04961 15.1191C5.93461 15.1591 5.80961 15.1791 5.68461 15.1791C5.42961 15.1791 5.29961 15.1041 5.29961 14.9591C5.29961 14.9341 5.29961 14.9091 5.29961 14.8841C5.29961 14.8591 5.29961 14.8341 5.29961 14.8091C5.29961 14.7541 5.29961 14.7291 5.23461 14.7291C5.16961 14.7291 5.16461 14.7891 5.13461 14.9041C5.11461 14.9741 5.10461 15.0441 5.09961 15.1191C5.09961 15.3891 5.25961 15.5241 5.57461 15.5241C5.99961 15.5441 6.20461 15.3791 6.20461 15.0441V15.0441Z" fill="#7FDBF0"/>
<path d="M6.56062 15.3006C6.47562 15.3606 6.39063 15.4106 6.30062 15.4556C6.29563 15.4706 6.29563 15.4856 6.30062 15.5006C6.30062 15.5356 6.30062 15.5556 6.36562 15.5556H6.74062C6.74062 15.5556 6.77062 15.5606 6.78562 15.5556C6.89562 15.4256 6.95563 15.2606 6.94563 15.0906C6.94563 15.0006 6.93562 14.9056 6.90062 14.8206C6.87062 14.7506 6.82062 14.6906 6.76562 14.6406H6.73562L6.61062 14.9056C6.72562 15.0156 6.78562 15.0906 6.78562 15.1206C6.78562 15.1506 6.69562 15.2106 6.56062 15.3006V15.3006Z" fill="#7FDBF0"/>
<path d="M7.61523 15.5002L7.72523 15.3902L7.61523 15.2852H7.59023L7.49023 15.3852V15.4152L7.60023 15.5202L7.61523 15.5002Z" fill="#7FDBF0"/>
<path d="M7.44945 15.1409C7.55445 15.1509 7.65445 15.1109 7.71945 15.0309C7.76945 14.9359 7.78945 14.8259 7.77945 14.7209C7.77945 14.5859 7.73945 14.4509 7.65945 14.3409L7.51445 14.5609V14.5859C7.55945 14.6259 7.59945 14.6709 7.63945 14.7209C7.63945 14.7309 7.63945 14.7409 7.63945 14.7509C7.63945 14.7509 7.63945 14.7759 7.58945 14.7759H7.42945C7.36445 14.7759 7.32945 14.7409 7.32945 14.6609V13.9609H7.29445L7.06445 14.1259V14.1809C7.06445 14.2059 7.06445 14.3309 7.08945 14.4809C7.11445 14.6309 7.08945 14.7409 7.08945 14.8309C7.08945 15.0409 7.18445 15.1409 7.38445 15.1409H7.44945V15.1409Z" fill="#7FDBF0"/>
<path d="M8.55906 14.5C8.47406 14.5 8.41406 14.555 8.36906 14.665C8.33906 14.75 8.32406 14.835 8.32406 14.925C8.32406 15.03 8.35906 15.095 8.42906 15.12C8.49906 15.13 8.56906 15.13 8.63906 15.12C8.63906 15.155 8.57406 15.21 8.43906 15.29C8.35906 15.345 8.27906 15.39 8.19406 15.43C8.17406 15.44 8.16406 15.455 8.16406 15.475C8.16406 15.51 8.18906 15.53 8.22906 15.53H8.60406C8.60406 15.53 8.63906 15.53 8.65406 15.53C8.75906 15.375 8.81406 15.19 8.79906 15C8.79906 14.9 8.78906 14.8 8.75906 14.705C8.71906 14.565 8.64906 14.5 8.55906 14.5V14.5ZM8.55906 14.85C8.49906 14.85 8.46906 14.84 8.46906 14.82C8.46906 14.785 8.46906 14.765 8.54406 14.765C8.56406 14.765 8.58906 14.765 8.60906 14.765C8.62906 14.775 8.63906 14.795 8.64406 14.815C8.64406 14.815 8.60406 14.855 8.54906 14.855H8.55906V14.85Z" fill="#7FDBF0"/>
<path d="M10.1792 15.0441C10.1792 14.9291 10.1392 14.8641 10.0542 14.8491L9.86922 14.8191C9.79422 14.8191 9.75922 14.8191 9.75922 14.7891C9.75922 14.7591 9.75922 14.7491 9.80422 14.7291C9.84422 14.6991 9.89422 14.6841 9.94422 14.6891C9.98922 14.6891 10.0292 14.6991 10.0692 14.7141L10.1542 14.7391C10.1542 14.7391 10.1792 14.7091 10.1792 14.6591C10.1792 14.6041 10.1542 14.5541 10.1192 14.5141C10.0842 14.4541 10.0192 14.4141 9.94922 14.4141C9.82422 14.4241 9.71922 14.5091 9.67422 14.6241C9.61922 14.7141 9.58922 14.8141 9.58422 14.9191C9.58422 14.9941 9.63922 15.0441 9.74922 15.0691L10.0142 15.0941H10.0542L10.0242 15.1191C9.90922 15.1591 9.78422 15.1791 9.65922 15.1791C9.40422 15.1791 9.27422 15.1041 9.27422 14.9591C9.27422 14.9341 9.27422 14.9091 9.27422 14.8841V14.8091C9.27422 14.8091 9.24922 14.7291 9.20422 14.7291C9.15922 14.7291 9.13422 14.7891 9.10422 14.9041C9.08422 14.9741 9.07422 15.0441 9.07422 15.1191C9.07422 15.3891 9.22922 15.5241 9.54422 15.5241C9.99922 15.5441 10.1792 15.3791 10.1792 15.0441V15.0441Z" fill="#7FDBF0"/>
<path d="M11.5006 14.6692C11.5006 14.5692 11.4806 14.4692 11.4406 14.3792C11.4106 14.2792 11.3206 14.2042 11.2156 14.1992C11.1506 14.1992 11.0956 14.2392 11.0506 14.3292C11.0156 14.3942 10.9956 14.4692 10.9956 14.5442C10.9956 14.6542 11.0656 14.7092 11.2006 14.7092C11.2406 14.7192 11.2856 14.7192 11.3256 14.7092M11.3506 14.7342C11.2556 14.7642 11.1506 14.7742 11.0506 14.7642H10.9706C10.9206 14.7642 10.8756 14.7442 10.8356 14.7142C10.7956 14.6842 10.7606 14.6492 10.7306 14.6092H10.7006L10.5756 14.8742C10.6956 14.9842 10.7556 15.0592 10.7556 15.0892C10.7556 15.1192 10.6856 15.1942 10.5506 15.2842C10.4706 15.3442 10.3856 15.3942 10.2956 15.4392C10.2756 15.4492 10.2656 15.4642 10.2656 15.4842C10.2656 15.5192 10.2656 15.5392 10.3306 15.5392H10.7056C10.7056 15.5392 10.7406 15.5392 10.7556 15.5392C10.7906 15.4942 10.8206 15.4442 10.8456 15.3892C10.8756 15.3292 10.8956 15.2642 10.8956 15.1942V15.1242H11.0506C11.2756 15.1492 11.4756 14.9842 11.5006 14.7592C11.5006 14.7292 11.5006 14.6992 11.5006 14.6692L11.3506 14.7342V14.7342ZM11.2256 14.4992C11.1656 14.4992 11.1356 14.4892 11.1356 14.4692C11.1356 14.4542 11.1456 14.4392 11.1606 14.4292C11.1756 14.4242 11.1956 14.4242 11.2106 14.4292C11.2306 14.4242 11.2506 14.4242 11.2706 14.4292C11.2956 14.4292 11.3056 14.4592 11.3056 14.4742C11.3056 14.4892 11.2806 14.4992 11.2256 14.4992V14.4992Z" fill="#7FDBF0"/>
<path d="M11.1898 13.8697L11.0898 13.9697V13.9997L11.1998 14.1047H11.2248L11.3298 13.9997V13.9747L11.2198 13.8697C11.2198 13.8697 11.1948 13.8597 11.1898 13.8697V13.8697Z" fill="#7FDBF0"/>
<path d="M13.4998 14.6309C13.4648 14.5359 13.3748 14.4709 13.2748 14.4709C13.1998 14.4709 13.1298 14.5059 13.0848 14.5659C13.0548 14.6109 13.0398 14.6609 13.0398 14.7159C13.0398 14.7559 13.0048 14.7759 12.9348 14.7759H12.8998C12.8698 14.7759 12.8398 14.7559 12.8298 14.7259C12.8298 14.6809 12.8298 14.6509 12.8048 14.6409C12.8048 14.6109 12.7848 14.5909 12.7548 14.5909C12.7248 14.5909 12.7048 14.6109 12.7048 14.6409C12.7048 14.6709 12.7048 14.6959 12.7048 14.7259C12.6948 14.7559 12.6698 14.7759 12.6398 14.7759C12.6098 14.7759 12.5848 14.7559 12.5798 14.7259C12.5798 14.6959 12.5798 14.6709 12.5798 14.6409C12.5798 14.6059 12.5548 14.5909 12.5298 14.5909C12.5048 14.5909 12.4848 14.5909 12.4748 14.6409C12.4748 14.6709 12.4748 14.6959 12.4748 14.7259C12.4698 14.7559 12.4398 14.7759 12.4098 14.7759C12.3748 14.7759 12.3448 14.7559 12.3348 14.7259V14.6359C12.3348 14.6359 12.3348 14.5909 12.2798 14.5909C12.2248 14.5909 12.2398 14.5909 12.2248 14.6409C12.2098 14.6909 12.2248 14.7009 12.2248 14.7259C12.2098 14.7609 12.1748 14.7809 12.1398 14.7759H11.9998C11.9348 14.7759 11.8998 14.7409 11.8998 14.6609V13.9609H11.8648L11.6348 14.1259V14.1809C11.6348 14.2059 11.6348 14.3309 11.6598 14.4809C11.6848 14.6309 11.6598 14.7409 11.6598 14.8309C11.6598 15.0409 11.7598 15.1409 11.9598 15.1409H11.9998C12.0648 15.1359 12.1248 15.0909 12.1548 15.0309C12.1748 15.0909 12.2348 15.1359 12.2998 15.1359C12.3398 15.1359 12.3848 15.1009 12.4298 15.0309C12.4448 15.0559 12.4648 15.0809 12.4848 15.1009C12.5098 15.1209 12.5398 15.1359 12.5698 15.1359C12.6098 15.1359 12.6598 15.1009 12.7098 15.0359C12.7398 15.0909 12.7948 15.1309 12.8598 15.1359H12.9198C12.9798 15.1359 13.0298 15.0959 13.0648 15.0109C13.1098 15.0909 13.1898 15.1409 13.2798 15.1409C13.3448 15.1409 13.4098 15.1109 13.4498 15.0609C13.4948 15.0109 13.5148 14.9509 13.5148 14.8859C13.5298 14.8009 13.5248 14.7159 13.4998 14.6309V14.6309ZM13.3848 14.8959C13.3498 14.8959 13.3198 14.8709 13.2948 14.8209C13.2798 14.7859 13.2698 14.7459 13.2698 14.7059C13.2698 14.6909 13.2698 14.6759 13.2698 14.6609C13.2848 14.6609 13.2948 14.6609 13.3098 14.6609C13.3398 14.6609 13.3648 14.6609 13.3898 14.7359C13.4048 14.7709 13.4148 14.8059 13.4148 14.8459C13.4098 14.8709 13.3948 14.8959 13.3648 14.8959H13.3848V14.8959Z" fill="#7FDBF0"/>
<path d="M14.6304 14.7291C14.6704 14.6991 14.7154 14.6841 14.7654 14.6891C14.8104 14.6891 14.8504 14.6991 14.8904 14.7141L14.9804 14.7391C14.9804 14.7391 15.0054 14.7091 15.0054 14.6591C15.0054 14.6041 14.9804 14.5541 14.9454 14.5141C14.9104 14.4541 14.8404 14.4141 14.7704 14.4141C14.6654 14.4141 14.5754 14.4841 14.5004 14.6241C14.4454 14.7141 14.4154 14.8141 14.4104 14.9191C14.4104 14.9941 14.4604 15.0441 14.5704 15.0691L14.8354 15.0941H14.8754L14.8504 15.1191C14.7304 15.1591 14.6054 15.1791 14.4804 15.1791C14.2254 15.1791 14.1004 15.1041 14.1004 14.9591C14.1004 14.9341 14.1004 14.9091 14.1004 14.8841C14.1004 14.8591 14.1004 14.8341 14.1004 14.8091C14.1004 14.7541 14.1004 14.7291 14.0354 14.7291C13.9704 14.7291 13.9654 14.7891 13.9354 14.9041C13.9154 14.9741 13.9004 15.0441 13.9004 15.1191C13.9004 15.3891 14.0604 15.5241 14.4004 15.5241C14.8104 15.5241 15.0154 15.3591 15.0154 15.0241C15.0154 14.9091 14.9704 14.8441 14.8904 14.8291L14.7004 14.7991C14.6304 14.7991 14.5904 14.7991 14.5904 14.7691C14.5904 14.7391 14.5954 14.7491 14.6304 14.7291V14.7291Z" fill="#7FDBF0"/>
<path d="M16.2042 15.0009C16.2342 14.9459 16.2542 14.8859 16.2542 14.8209C16.2492 14.6909 16.1892 14.5709 16.0942 14.4809C15.9942 14.3909 15.8892 14.3159 15.7692 14.2559H15.7242C15.7242 14.2559 15.6942 14.2559 15.6842 14.2959L15.5792 14.5359L15.6242 14.5659C15.5742 14.5909 15.5442 14.6459 15.5492 14.7059C15.5442 14.7309 15.5442 14.7509 15.5492 14.7759H15.4992C15.4342 14.7759 15.4042 14.7359 15.4042 14.6609V13.9609H15.3742L15.1392 14.1259C15.1392 14.1259 15.1292 14.1659 15.1392 14.1809V14.8309C15.1392 15.0409 15.2392 15.1409 15.4392 15.1409H15.6192C15.6992 15.1359 15.7742 15.0959 15.8292 15.0359C15.8942 15.0909 15.9692 15.1259 16.0492 15.1409C16.1092 15.1409 16.1592 15.1009 16.2042 15.0009V15.0009ZM15.8392 14.7359C15.8392 14.7359 15.8042 14.7409 15.7892 14.7359C15.7692 14.7409 15.7442 14.7409 15.7242 14.7359C15.6992 14.7359 15.6842 14.7009 15.6842 14.6859C15.6842 14.6659 15.7042 14.6459 15.7242 14.6409C15.7442 14.6359 15.7642 14.6359 15.7842 14.6409C15.8042 14.6359 15.8192 14.6359 15.8392 14.6409C15.8542 14.6509 15.8692 14.6659 15.8692 14.6859C15.8792 14.7109 15.8692 14.7409 15.8442 14.7509C15.8442 14.7509 15.8442 14.7509 15.8392 14.7509V14.7309V14.7359ZM15.9342 14.8409C15.9692 14.8209 15.9942 14.7809 15.9892 14.7359C16.0642 14.7859 16.0992 14.8309 16.0992 14.8659C16.0992 14.9009 16.0992 14.9209 16.0642 14.9209C16.0392 14.9209 16.0192 14.9159 15.9992 14.9009C15.9742 14.8909 15.9542 14.8759 15.9342 14.8609V14.8409V14.8409Z" fill="#7FDBF0"/>
<path d="M16.5556 15.3006C16.4706 15.3556 16.3856 15.4106 16.2956 15.4556C16.2756 15.4656 16.2656 15.4806 16.2656 15.5006C16.2656 15.5356 16.2656 15.5556 16.3306 15.5556H16.7056C16.7056 15.5556 16.7406 15.5556 16.7556 15.5556C16.8656 15.4256 16.9206 15.2606 16.9106 15.0906C16.9106 15.0006 16.9006 14.9056 16.8656 14.8206C16.8356 14.7506 16.7856 14.6906 16.7306 14.6406H16.7006L16.5756 14.9056C16.6956 15.0156 16.7556 15.0906 16.7556 15.1206C16.7556 15.1506 16.6856 15.2106 16.5556 15.3006V15.3006Z" fill="#7FDBF0"/>
<path d="M17.3748 15.1347H17.6248C17.8198 15.1497 18.0148 15.0847 18.1698 14.9597C18.2048 15.0647 18.2998 15.1347 18.4098 15.1347H18.4998C18.7298 15.1597 18.9348 14.9997 18.9598 14.7697C18.9598 14.7347 18.9598 14.6997 18.9598 14.6647C18.9598 14.5647 18.9398 14.4647 18.8998 14.3747C18.8448 14.2547 18.7698 14.1947 18.6748 14.1947C18.5998 14.1947 18.5298 14.2497 18.5098 14.3247C18.4748 14.3897 18.4548 14.4647 18.4548 14.5397C18.4548 14.6497 18.5198 14.7047 18.6548 14.7047C18.6948 14.7147 18.7398 14.7147 18.7798 14.7047M18.7798 14.7297C18.6848 14.7597 18.5798 14.7697 18.4798 14.7597H18.3298C18.3548 14.7097 18.3698 14.6497 18.3648 14.5897C18.3648 14.5347 18.3498 14.4847 18.3148 14.4447C18.2798 14.4047 18.2298 14.3847 18.1748 14.3847C18.0398 14.3847 17.8748 14.4897 17.6748 14.7047C17.7198 14.5947 17.7448 14.4797 17.7448 14.3597V14.2747C17.7448 14.2747 17.7798 14.2747 17.7998 14.2747C17.7998 14.2747 17.7998 14.2497 17.7998 14.2347L17.6798 13.9697C17.6798 13.9697 17.6798 13.9297 17.6498 13.9297H17.6148L17.4098 14.1097C17.4948 14.3147 17.5398 14.5347 17.5348 14.7547H17.3998C17.3298 14.7547 17.2948 14.7197 17.2948 14.6397V13.9397H17.2598L17.0298 14.1047C17.0298 14.1047 17.0198 14.1447 17.0298 14.1597V14.8097C17.0298 15.0197 17.1298 15.1197 17.3248 15.1197L18.7798 14.7297V14.7297ZM18.6998 14.4997C18.6398 14.4997 18.6098 14.4897 18.6098 14.4697C18.6098 14.4547 18.6198 14.4397 18.6348 14.4297C18.6498 14.4247 18.6698 14.4247 18.6848 14.4297C18.7048 14.4247 18.7248 14.4247 18.7448 14.4297C18.7448 14.4297 18.7798 14.4597 18.7798 14.4747C18.7798 14.4897 18.7548 14.4997 18.6998 14.4997V14.4997ZM17.9998 14.6197C18.0748 14.6197 18.1098 14.6497 18.1098 14.7097C18.1098 14.7697 18.1098 14.7447 18.0298 14.7597C17.9548 14.7797 17.8748 14.7847 17.7948 14.7847H17.7248C17.7948 14.6997 17.8948 14.6447 17.9998 14.6197V14.6197Z" fill="#7FDBF0"/>
<path d="M18.7709 13.88L18.6859 13.965L18.5959 13.88L18.5059 13.97L18.6009 14.06L18.6859 13.975L18.7759 14.06L18.8709 13.97L18.7709 13.875V13.88Z" fill="#7FDBF0"/>
<path d="M19.9041 14.255L19.8191 14.34L19.7291 14.255M19.7041 14.255L19.6191 14.345L19.7141 14.435L19.8041 14.35L19.8941 14.435L19.9891 14.345L19.8941 14.25H19.7041V14.255Z" fill="#7FDBF0"/>
<path d="M20.845 14.3756L21.17 14.2756L21.2 14.0156L20.585 14.2156C20.585 14.2156 20.585 14.2306 20.585 14.2406L20.54 14.4956L20.685 14.6256C20.73 14.6656 20.77 14.7106 20.805 14.7556V14.7806C20.73 14.7906 20.655 14.7906 20.58 14.7806H20.5C20.5 14.7806 20.455 14.7906 20.435 14.7806C20.435 14.7606 20.435 14.7456 20.435 14.7256C20.435 14.7056 20.435 14.6906 20.435 14.6706C20.435 14.6356 20.435 14.6156 20.39 14.6156C20.345 14.6156 20.355 14.6406 20.315 14.6806C20.27 14.7306 20.215 14.7706 20.15 14.8006C20.025 14.8456 19.895 14.8656 19.76 14.8606C19.655 14.8756 19.545 14.8456 19.46 14.7856C19.43 14.7406 19.41 14.6906 19.415 14.6356C19.415 14.5856 19.415 14.5606 19.36 14.5606C19.305 14.5606 19.305 14.5956 19.285 14.6656C19.28 14.7206 19.28 14.7756 19.285 14.8306C19.275 14.9406 19.315 15.0506 19.395 15.1256C19.485 15.1856 19.595 15.2156 19.705 15.2106C19.915 15.2206 20.12 15.1456 20.275 15.0006C20.305 15.0856 20.38 15.1406 20.47 15.1406H20.62C20.695 15.1406 20.77 15.1256 20.835 15.0906C20.95 15.0206 21.015 14.8956 21.005 14.7606C21.005 14.6856 20.985 14.6106 20.955 14.5406C20.925 14.4806 20.885 14.4256 20.845 14.3756V14.3756Z" fill="#7FDBF0"/>
<path d="M22.7005 14.7159C22.7005 14.6459 22.6905 14.5709 22.6605 14.5059L22.5605 14.6209V14.6759C22.5605 14.6759 22.5605 14.7209 22.5605 14.7409C22.5605 14.7759 22.5605 14.7959 22.4855 14.7959C22.4505 14.7959 22.4155 14.7809 22.4055 14.7459V14.6609C22.4055 14.6309 22.4055 14.6109 22.3605 14.6109C22.3155 14.6109 22.3155 14.6109 22.3055 14.6609C22.2955 14.7109 22.3055 14.7259 22.3055 14.7409C22.3005 14.7709 22.2705 14.7909 22.2405 14.7859C22.2055 14.7859 22.1705 14.7709 22.1555 14.7409V14.6559C22.1555 14.6259 22.1305 14.6109 22.1055 14.6109C22.0805 14.6109 22.0655 14.6109 22.0555 14.6659V14.7409C22.0405 14.7709 22.0105 14.7909 21.9755 14.7859H21.9355C21.8855 14.7859 21.8405 14.7659 21.8055 14.7359C21.7655 14.7059 21.7305 14.6709 21.7005 14.6309H21.6705L21.5405 14.8959C21.6605 15.0059 21.7205 15.0809 21.7205 15.1109C21.7205 15.1409 21.6555 15.2159 21.5205 15.3059C21.4355 15.3609 21.3505 15.4159 21.2605 15.4609C21.2405 15.4709 21.2305 15.4859 21.2305 15.5059C21.2305 15.5409 21.2305 15.5609 21.3005 15.5609H21.6705C21.6705 15.5609 21.7055 15.5659 21.7205 15.5609C21.7605 15.5159 21.7905 15.4659 21.8105 15.4109C21.8405 15.3509 21.8605 15.2859 21.8605 15.2159V15.1459H21.9805C22.0455 15.1459 22.1005 15.0959 22.1205 15.0359C22.1405 15.1059 22.2055 15.1509 22.2755 15.1459C22.3355 15.1459 22.3905 15.1009 22.4055 15.0409C22.4355 15.1059 22.4955 15.1459 22.5655 15.1459C22.6405 15.1459 22.6955 15.0909 22.7355 14.9809C22.7355 14.8909 22.7305 14.8009 22.7005 14.7159V14.7159Z" fill="#7FDBF0"/>
<path d="M22.3559 14.195L22.4409 14.105L22.3509 14L22.2559 14.095L22.3509 14.19C22.3509 14.19 22.3509 14.205 22.3509 14.19L22.3559 14.195Z" fill="#7FDBF0"/>
<path d="M22.1348 14.2647L22.2298 14.3597L22.3148 14.2747L22.4098 14.3647L22.4998 14.2747L22.4048 14.1797L22.3148 14.2697L22.2248 14.1797L22.1348 14.2647Z" fill="#7FDBF0"/>
<path d="M1.74036 16.3359V16.4459C1.74036 16.4459 1.70036 16.4759 1.67536 16.4759C1.64536 16.4759 1.62036 16.4609 1.60536 16.4359C1.60036 16.4109 1.60036 16.3809 1.60536 16.3559H1.47536C1.47036 16.4159 1.49036 16.4759 1.53036 16.5209C1.57036 16.5609 1.63036 16.5809 1.68536 16.5759C1.73536 16.5759 1.78536 16.5659 1.82536 16.5409C1.86036 16.5159 1.88536 16.4859 1.90036 16.4459C1.90036 16.4009 1.90036 16.3609 1.90036 16.3159V15.8809H1.74036V16.3359V16.3359Z" fill="#7FDBF0"/>
<path d="M2.32968 15.8809C2.27968 15.8809 2.22468 15.8909 2.17968 15.9109C2.14968 15.9259 2.11968 15.9459 2.08968 15.9709C2.02468 16.0459 1.98968 16.1409 1.99468 16.2409C1.98968 16.3359 2.01968 16.4309 2.08468 16.5009C2.14968 16.5609 2.23968 16.5959 2.32968 16.5909C2.41968 16.5909 2.50468 16.5609 2.56968 16.5009C2.63468 16.4309 2.66468 16.3359 2.65968 16.2409C2.65968 16.1509 2.62968 16.0659 2.56968 16.0009C2.50968 15.9309 2.42468 15.8859 2.32968 15.8809V15.8809ZM2.46468 16.4159C2.39968 16.4909 2.28468 16.4959 2.20968 16.4309C2.20468 16.4309 2.19968 16.4209 2.19468 16.4159C2.15468 16.3659 2.13468 16.3009 2.13968 16.2359C2.13968 16.1759 2.15468 16.1109 2.18968 16.0609C2.22468 16.0209 2.27468 16.0009 2.32968 16.0009C2.37968 16.0009 2.42968 16.0209 2.46468 16.0609C2.50468 16.1109 2.52468 16.1709 2.51968 16.2359C2.51968 16.3009 2.50468 16.3659 2.46468 16.4159Z" fill="#7FDBF0"/>
<path d="M3.07523 15.8809C3.02523 15.8809 2.97023 15.8909 2.92523 15.9109C2.89523 15.9259 2.86523 15.9459 2.84023 15.9709C2.81023 15.9959 2.79023 16.0309 2.77523 16.0659C2.75023 16.1209 2.74023 16.1809 2.74023 16.2409C2.74023 16.3359 2.77023 16.4309 2.83523 16.5009C2.90023 16.5609 2.98523 16.5959 3.07523 16.5909C3.16523 16.5909 3.25523 16.5609 3.32023 16.5009C3.38523 16.4309 3.41523 16.3359 3.41023 16.2409C3.41023 16.1509 3.37523 16.0659 3.31523 16.0009C3.25523 15.9309 3.17023 15.8859 3.07523 15.8809V15.8809ZM3.21023 16.4159C3.14523 16.4909 3.03023 16.4959 2.95523 16.4309C2.95023 16.4309 2.94523 16.4209 2.94023 16.4159C2.90023 16.3659 2.88023 16.3009 2.88523 16.2359C2.88523 16.1709 2.90023 16.1109 2.94023 16.0609C2.97523 16.0209 3.02523 16.0009 3.07523 16.0009C3.13023 16.0009 3.18023 16.0209 3.21523 16.0609C3.25523 16.1109 3.27023 16.1709 3.26523 16.2359C3.26523 16.3009 3.25023 16.3659 3.21023 16.4159Z" fill="#7FDBF0"/>
<path d="M4.04 16.1041C4.04 16.0541 4.03 16.0091 4 15.9691C3.975 15.9391 3.945 15.9141 3.905 15.9041C3.85 15.8991 3.795 15.8991 3.74 15.9041H3.5V16.5891H3.64V16.3291H3.73C3.78 16.3341 3.825 16.3341 3.875 16.3291C3.9 16.3241 3.925 16.3141 3.945 16.2991C3.975 16.2741 3.99 16.2441 4 16.2091C4.02 16.1791 4.035 16.1441 4.04 16.1041V16.1041ZM3.885 16.1591C3.885 16.1591 3.86 16.1841 3.84 16.1941H3.655V15.9991H3.82C3.82 15.9991 3.86 16.0141 3.875 16.0291C3.88 16.0491 3.88 16.0691 3.875 16.0891C3.885 16.1091 3.89 16.1341 3.885 16.1591Z" fill="#7FDBF0"/>
<path d="M4.28 15.8945L4 16.5795H4.145L4.205 16.4245H4.5L4.56 16.5795H4.715L4.44 15.8945H4.28V15.8945ZM4.28 16.3095L4.375 16.0545L4.47 16.3095H4.28V16.3095Z" fill="#7FDBF0"/>
<path d="M5.23039 16.335L5.15539 16.275C5.20539 16.275 5.25539 16.25 5.29539 16.215C5.32539 16.18 5.34039 16.135 5.34039 16.085C5.34039 16.05 5.33039 16.01 5.31039 15.98C5.29039 15.95 5.26539 15.925 5.23039 15.91C5.17539 15.905 5.12539 15.905 5.07039 15.91H4.77539V16.595H4.91539V16.31H5.00039C5.00039 16.31 5.03039 16.325 5.04039 16.34C5.07039 16.37 5.09539 16.405 5.11539 16.44L5.21539 16.59H5.38039L5.29539 16.455C5.27539 16.415 5.25539 16.375 5.23039 16.335V16.335ZM5.02039 16.185H4.91539V16H5.12539C5.12539 16 5.16039 16.015 5.17539 16.03C5.18539 16.05 5.18539 16.065 5.17539 16.085C5.18039 16.1 5.18039 16.12 5.17539 16.135C5.16539 16.15 5.15539 16.16 5.14039 16.165C5.09539 16.175 5.04539 16.185 5.00039 16.185H5.02039V16.185Z" fill="#7FDBF0"/>
<path d="M6.25938 16.1041C6.25938 16.0541 6.24937 16.0091 6.21937 15.9691C6.19437 15.9341 6.15937 15.9141 6.11937 15.9041C6.06437 15.8991 6.00937 15.8991 5.95437 15.9041H5.73438V16.5891H5.87437V16.3291H5.96438C6.01438 16.3341 6.05937 16.3341 6.10938 16.3291L6.17937 16.2991C6.20437 16.2841 6.22437 16.2591 6.23937 16.2291C6.25937 16.1891 6.26438 16.1491 6.25938 16.1041V16.1041ZM6.09937 16.1591C6.09937 16.1591 6.07437 16.1841 6.05937 16.1941H5.87437V15.9991H6.03937C6.03937 15.9991 6.07937 16.0141 6.09437 16.0291C6.10937 16.0441 6.11937 16.0641 6.11937 16.0891C6.12437 16.1141 6.11937 16.1391 6.09937 16.1591V16.1591Z" fill="#7FDBF0"/>
<path d="M6.49937 15.8945L6.23438 16.5795H6.37937L6.43437 16.4245H6.70937L6.76937 16.5795H6.91937L6.64437 15.8945H6.49937V15.8945ZM6.49937 16.3095L6.59437 16.0545L6.68437 16.3095H6.49937Z" fill="#7FDBF0"/>
<path d="M7.41469 16.1995L7.26469 16.1495C7.21969 16.1445 7.17969 16.1295 7.13969 16.1045C7.13469 16.0895 7.13469 16.0795 7.13969 16.0645C7.13469 16.0495 7.13469 16.0345 7.13969 16.0195C7.16969 16.0045 7.19969 15.9945 7.23469 15.9945C7.26469 15.9945 7.29469 15.9995 7.31969 16.0195C7.34469 16.0395 7.35469 16.0645 7.35969 16.0945H7.49969C7.49969 16.0345 7.47469 15.9795 7.42969 15.9445C7.37469 15.8995 7.30469 15.8795 7.23469 15.8845C7.18969 15.8745 7.14469 15.8745 7.09969 15.8845C7.04969 15.9095 7.01469 15.9495 6.99969 15.9995C6.97969 16.0295 6.96969 16.0645 6.96969 16.0995C6.96969 16.1545 6.98969 16.2045 7.03469 16.2345C7.07969 16.2695 7.13469 16.2945 7.18969 16.3045L7.29969 16.3345L7.34969 16.3645C7.34969 16.3645 7.35469 16.3895 7.34969 16.4045C7.34969 16.4295 7.33469 16.4545 7.31469 16.4695C7.28469 16.4945 7.24969 16.5045 7.21469 16.4995C7.17969 16.4995 7.14469 16.4895 7.11469 16.4695C7.08969 16.4395 7.06969 16.4095 7.06469 16.3695H6.92969C6.92969 16.4395 6.96469 16.4995 7.01469 16.5445C7.06969 16.5895 7.14469 16.6095 7.21469 16.6045C7.26469 16.6145 7.31469 16.6145 7.36469 16.6045C7.42469 16.5945 7.47469 16.5545 7.49969 16.4995C7.52469 16.4695 7.53469 16.4295 7.53469 16.3895C7.53469 16.3495 7.52469 16.3145 7.50469 16.2795C7.48469 16.2445 7.45469 16.2145 7.41469 16.1995V16.1995Z" fill="#7FDBF0"/>
<path d="M8.05594 16.1995L7.90594 16.1495C7.86094 16.1445 7.82094 16.1295 7.78094 16.1045C7.76594 16.0945 7.75594 16.0795 7.75594 16.0645C7.75594 16.0445 7.76594 16.0295 7.78094 16.0195C7.81094 15.9995 7.84094 15.9945 7.87594 15.9945C7.90594 15.9945 7.93594 15.9995 7.96094 16.0195C7.98594 16.0395 7.99594 16.0645 8.00094 16.0945H8.14094C8.14094 16.0345 8.11594 15.9795 8.07094 15.9445C8.01594 15.8995 7.94594 15.8795 7.87594 15.8845C7.83094 15.8745 7.78594 15.8745 7.74094 15.8845C7.70594 15.8995 7.67594 15.9245 7.65594 15.9545C7.63594 15.9845 7.62594 16.0195 7.62594 16.0545C7.62594 16.1095 7.64594 16.1595 7.69094 16.1895C7.73594 16.2245 7.79094 16.2495 7.84594 16.2595L7.95594 16.2895L8.00594 16.3195C8.00594 16.3195 8.01094 16.3445 8.00594 16.3595C8.00594 16.3845 7.99094 16.4095 7.97094 16.4245C7.94094 16.4495 7.90594 16.4595 7.87094 16.4545C7.83594 16.4545 7.80094 16.4445 7.77094 16.4245C7.74594 16.3945 7.72594 16.3645 7.72094 16.3245H7.58594C7.58594 16.3945 7.62094 16.4545 7.67094 16.4995C7.72594 16.5445 7.80094 16.5645 7.87094 16.5595C7.92094 16.5695 7.96594 16.5695 8.01594 16.5595C8.05594 16.5445 8.09094 16.5195 8.11094 16.4845C8.13094 16.4495 8.14594 16.4145 8.14594 16.3745C8.14594 16.3345 8.13594 16.2995 8.11594 16.2645C8.10094 16.2395 8.08094 16.2195 8.05594 16.1995V16.1995Z" fill="#7FDBF0"/>
<path d="M8.41539 16.2795H8.76039V16.1595H8.41539V16.0095H8.78539V15.8945H8.27539V16.5795H8.79539V16.4645H8.41539V16.2795Z" fill="#7FDBF0"/>
<path d="M9.32906 16.3495L9.04906 15.8945H8.91406V16.5795H9.04406V16.1345L9.31906 16.5795H9.45906V15.8945H9.32906V16.3495Z" fill="#7FDBF0"/>
<path d="M9.92508 16.3305H10.0851V16.4155C10.0851 16.4155 10.0351 16.4455 10.0101 16.4555C9.98008 16.4605 9.95008 16.4605 9.92008 16.4555C9.86508 16.4555 9.81508 16.4355 9.78008 16.3905C9.74008 16.3405 9.72008 16.2755 9.72508 16.2105C9.72508 16.1505 9.74008 16.0855 9.78008 16.0405C9.81508 16.0005 9.87008 15.9755 9.92508 15.9805C9.96008 15.9805 9.99508 15.9905 10.0251 16.0105C10.0501 16.0305 10.0701 16.0605 10.0751 16.0905H10.2151C10.2051 16.0305 10.1701 15.9755 10.1201 15.9405C10.0651 15.9005 9.99508 15.8805 9.92508 15.8855C9.87008 15.8855 9.81008 15.8955 9.76008 15.9205C9.70508 15.9505 9.65508 15.9955 9.62508 16.0505C9.59508 16.1105 9.58008 16.1755 9.58008 16.2405C9.58008 16.3055 9.59508 16.3655 9.62008 16.4255C9.65008 16.4805 9.69008 16.5205 9.74508 16.5505C9.80008 16.5805 9.86508 16.5955 9.93008 16.5955C9.99008 16.5955 10.0451 16.5855 10.1001 16.5655C10.1451 16.5505 10.1901 16.5255 10.2251 16.4905V16.2155H9.92508V16.3305V16.3305Z" fill="#7FDBF0"/>
<path d="M10.4896 16.2795H10.8346V16.1595H10.4896V16.0095H10.8596V15.8945H10.3496V16.5795H10.8746V16.4645H10.4896V16.2795Z" fill="#7FDBF0"/>
<path d="M11.445 16.335L11.37 16.275C11.42 16.275 11.47 16.25 11.505 16.215C11.54 16.18 11.555 16.135 11.555 16.085C11.555 16.05 11.545 16.01 11.525 15.98C11.505 15.95 11.48 15.925 11.445 15.91C11.39 15.905 11.34 15.905 11.285 15.91H11V16.595H11.14V16.31H11.24L11.28 16.34C11.305 16.37 11.33 16.405 11.35 16.44L11.455 16.59H11.62L11.535 16.455C11.51 16.415 11.48 16.375 11.445 16.335ZM11.23 16.185H11.13V16H11.34C11.34 16 11.375 16.015 11.39 16.03C11.4 16.05 11.4 16.065 11.39 16.085C11.395 16.1 11.395 16.12 11.39 16.135C11.38 16.15 11.365 16.16 11.35 16.165C11.31 16.175 11.27 16.185 11.23 16.185V16.185Z" fill="#7FDBF0"/>
<path d="M12.4504 16.4201C12.4504 16.4201 12.4704 16.3901 12.4754 16.3701C12.4904 16.3401 12.5004 16.3101 12.5054 16.2751H12.3904C12.3804 16.3001 12.3704 16.3301 12.3604 16.3551L12.2654 16.2251C12.3054 16.2051 12.3404 16.1801 12.3654 16.1451C12.3804 16.1201 12.3904 16.0951 12.3904 16.0651C12.3904 16.0251 12.3704 15.9851 12.3404 15.9551C12.3004 15.9201 12.2504 15.9001 12.2004 15.9051C12.1504 15.9051 12.1004 15.9151 12.0604 15.9501C12.0304 15.9751 12.0104 16.0151 12.0104 16.0551C12.0104 16.0801 12.0104 16.1001 12.0104 16.1251C12.0254 16.1551 12.0404 16.1801 12.0654 16.2051C12.0204 16.2251 11.9754 16.2601 11.9454 16.3001C11.8854 16.3701 11.8854 16.4751 11.9454 16.5451C11.9954 16.5951 12.0704 16.6201 12.1404 16.6151C12.1754 16.6201 12.2154 16.6201 12.2504 16.6151C12.2854 16.6001 12.3154 16.5851 12.3404 16.5601C12.3754 16.5901 12.4104 16.6201 12.4504 16.6401L12.5304 16.5351L12.4804 16.5051L12.4504 16.4201V16.4201ZM12.1554 16.0001C12.1554 16.0001 12.1904 15.9951 12.2054 16.0001C12.2204 15.9951 12.2404 15.9951 12.2554 16.0001C12.2554 16.0151 12.2554 16.0251 12.2554 16.0401C12.2554 16.0651 12.2354 16.0851 12.2154 16.1001L12.1804 16.1301L12.1454 16.0901C12.1454 16.0901 12.1154 16.0551 12.1154 16.0301C12.1204 16.0151 12.1354 16.0001 12.1554 16.0001V16.0001ZM12.2204 16.5001C12.2204 16.5001 12.1804 16.5001 12.1604 16.5001C12.1304 16.5001 12.1054 16.4901 12.0854 16.4701C12.0654 16.4551 12.0554 16.4251 12.0554 16.4001C12.0554 16.3751 12.0654 16.3551 12.0804 16.3351C12.0954 16.3101 12.1204 16.2951 12.1454 16.2801L12.2804 16.4451C12.2804 16.4451 12.2404 16.4651 12.2204 16.4701V16.5001V16.5001Z" fill="#7FDBF0"/>
<path d="M12.9102 16.5795H13.0452V16.2895H13.3352V16.1695H13.0452V16.0095H13.3802V15.8945H12.9102V16.5795Z" fill="#7FDBF0"/>
<path d="M13.95 16.335L13.875 16.275C13.925 16.275 13.975 16.25 14.01 16.215C14.04 16.18 14.055 16.135 14.055 16.085C14.055 16.05 14.045 16.01 14.025 15.98C14.005 15.95 13.98 15.925 13.945 15.91C13.89 15.905 13.84 15.905 13.785 15.91H13.5V16.595H13.64V16.31H13.735C13.735 16.31 13.765 16.325 13.775 16.34C13.805 16.37 13.83 16.405 13.85 16.44L13.95 16.59H14.115L14.03 16.455C14.01 16.41 13.98 16.37 13.95 16.335V16.335ZM13.735 16.185H13.635V16H13.84C13.84 16 13.88 16.015 13.895 16.03C13.9 16.05 13.9 16.065 13.895 16.085C13.9 16.1 13.9 16.12 13.895 16.135C13.885 16.15 13.87 16.16 13.855 16.165C13.815 16.175 13.775 16.185 13.735 16.185V16.185Z" fill="#7FDBF0"/>
<path d="M14.3255 16.2795H14.6705V16.1595H14.3255V16.0095H14.6955V15.8945H14.1855V16.5795H14.7055V16.4645H14.3255V16.2795Z" fill="#7FDBF0"/>
<path d="M14.9603 15.8945H14.8203V16.5795H14.9603V15.8945Z" fill="#7FDBF0"/>
<path d="M15.4105 16.3305H15.5705V16.4155C15.5705 16.4155 15.5205 16.4455 15.4955 16.4555C15.4655 16.4605 15.4355 16.4605 15.4055 16.4555C15.3505 16.4555 15.3005 16.4355 15.2655 16.3905C15.2255 16.3405 15.2055 16.2755 15.2105 16.2105C15.2105 16.1505 15.2255 16.0855 15.2655 16.0405C15.3005 16.0005 15.3555 15.9755 15.4105 15.9805C15.4455 15.9805 15.4805 15.9905 15.5105 16.0105C15.5355 16.0305 15.5555 16.0605 15.5655 16.0905H15.7005C15.6905 16.0305 15.6555 15.9805 15.6105 15.9405C15.5505 15.9005 15.4805 15.8805 15.4105 15.8855C15.3555 15.8855 15.2955 15.8955 15.2455 15.9205C15.1905 15.9505 15.1455 15.9955 15.1155 16.0505C15.0605 16.1705 15.0605 16.3055 15.1155 16.4255C15.1405 16.4805 15.1805 16.5255 15.2355 16.5505C15.2905 16.5805 15.3555 16.5955 15.4205 16.5955C15.4805 16.5955 15.5355 16.5855 15.5905 16.5655C15.6355 16.5505 15.6805 16.5255 15.7155 16.4905V16.2155H15.4155V16.3305H15.4105Z" fill="#7FDBF0"/>
<path d="M16.2448 16.1645H15.9748V15.8945H15.8398V16.5795H15.9748V16.2795H16.2448V16.5795H16.3848V15.8945H16.2448V16.1645Z" fill="#7FDBF0"/>
<path d="M16.4805 16.0095H16.6855V16.5795H16.8255V16.0095H17.0255V15.8945H16.4805V16.0095Z" fill="#7FDBF0"/>
<path d="M17.3301 16.0095H17.5351V16.5795H17.6751V16.0095H17.8801V15.8945H17.3301V16.0095Z" fill="#7FDBF0"/>
<path d="M18.4198 16.3345L18.3448 16.2745C18.3948 16.2745 18.4448 16.2495 18.4848 16.2145C18.5148 16.1795 18.5298 16.1345 18.5298 16.0845C18.5298 16.0545 18.5148 16.0245 18.4998 15.9995C18.4798 15.9695 18.4548 15.9445 18.4198 15.9295C18.3648 15.9245 18.3148 15.9245 18.2598 15.9295H17.9648V16.6145H18.1048V16.3295H18.2048C18.2048 16.3295 18.2348 16.3445 18.2448 16.3595C18.2748 16.3895 18.2998 16.4245 18.3198 16.4595L18.4198 16.6095H18.5848L18.4998 16.4445C18.4748 16.4045 18.4498 16.3695 18.4198 16.3345V16.3345ZM18.2098 16.1845H18.1048V15.9995H18.3148C18.3148 15.9995 18.3498 16.0145 18.3648 16.0295C18.3748 16.0495 18.3748 16.0645 18.3648 16.0845C18.3698 16.0995 18.3698 16.1195 18.3648 16.1345C18.3548 16.1495 18.3448 16.1595 18.3298 16.1645C18.2898 16.1745 18.2498 16.1845 18.2098 16.1845V16.1845Z" fill="#7FDBF0"/>
<path d="M18.8548 15.8945L18.5898 16.5795H18.7348L18.7948 16.4245H19.0648L19.1248 16.5795H19.2798L18.9998 15.8945H18.8548V15.8945ZM18.8548 16.3095L18.9498 16.0545L19.0448 16.3095H18.8548V16.3095Z" fill="#7FDBF0"/>
<path d="M19.4857 15.8945H19.3457V16.5795H19.4857V15.8945Z" fill="#7FDBF0"/>
<path d="M20.0341 16.3495L19.7541 15.8945H19.6191V16.5795H19.7441V16.1345L20.0241 16.5795H20.1641V15.8945H20.0341V16.3495Z" fill="#7FDBF0"/>
<path d="M20.7298 16.2003L20.5798 16.1503C20.5348 16.1453 20.4948 16.1303 20.4548 16.1053C20.4498 16.0903 20.4498 16.0803 20.4548 16.0653C20.4498 16.0503 20.4498 16.0353 20.4548 16.0203C20.4848 16.0053 20.5148 15.9953 20.5498 16.0003C20.5798 16.0003 20.6098 16.0053 20.6348 16.0253C20.6598 16.0453 20.6698 16.0703 20.6748 16.1003H20.8148C20.8148 16.0403 20.7898 15.9853 20.7448 15.9503C20.6898 15.9053 20.6198 15.8853 20.5498 15.8903C20.5048 15.8803 20.4598 15.8803 20.4148 15.8903C20.3798 15.9053 20.3498 15.9303 20.3298 15.9603C20.3098 15.9903 20.2998 16.0253 20.2998 16.0603C20.2998 16.1153 20.3198 16.1653 20.3648 16.1953C20.4098 16.2303 20.4648 16.2553 20.5198 16.2653L20.6298 16.2953L20.6798 16.3253C20.6798 16.3253 20.6848 16.3503 20.6798 16.3653C20.6798 16.3903 20.6648 16.4153 20.6448 16.4303C20.6148 16.4553 20.5798 16.4653 20.5448 16.4603C20.5098 16.4603 20.4748 16.4503 20.4448 16.4303C20.4198 16.4003 20.3998 16.3703 20.3948 16.3303H20.2598C20.2598 16.4003 20.2948 16.4603 20.3448 16.5053C20.3998 16.5503 20.4748 16.5703 20.5448 16.5653C20.5948 16.5753 20.6398 16.5753 20.6898 16.5653C20.7348 16.5603 20.7748 16.5353 20.7998 16.5003C20.8198 16.4653 20.8348 16.4303 20.8348 16.3903C20.8348 16.3503 20.8248 16.3153 20.8048 16.2803C20.7848 16.2503 20.7598 16.2203 20.7298 16.2003V16.2003Z" fill="#7FDBF0"/>
<path d="M21.5941 16.4394C21.5741 16.4694 21.5391 16.4944 21.4991 16.4994C21.4541 16.4994 21.4091 16.4794 21.3791 16.4444C21.3441 16.3894 21.3291 16.3244 21.3341 16.2594C21.3291 16.1944 21.3441 16.1344 21.3791 16.0794C21.4041 16.0344 21.4491 16.0094 21.4991 15.9994C21.5341 15.9994 21.5641 16.0094 21.5941 16.0294C21.6191 16.0494 21.6391 16.0794 21.6441 16.1144L21.7791 16.0844C21.7691 16.0344 21.7441 15.9894 21.7091 15.9544C21.6541 15.9044 21.5791 15.8744 21.5041 15.8794C21.4191 15.8794 21.3341 15.9144 21.2741 15.9744C21.2091 16.0494 21.1791 16.1444 21.1841 16.2444C21.1841 16.3394 21.2141 16.4294 21.2741 16.4994C21.3341 16.5594 21.4141 16.5894 21.4991 16.5894C21.5641 16.5894 21.6291 16.5744 21.6791 16.5344C21.7341 16.4944 21.7691 16.4344 21.7841 16.3694L21.6491 16.3294C21.6491 16.3694 21.6241 16.4094 21.5941 16.4394V16.4394Z" fill="#7FDBF0"/>
<path d="M22.2094 15.8794C22.1594 15.8794 22.1094 15.8894 22.0644 15.9094C22.0294 15.9244 21.9994 15.9444 21.9744 15.9694C21.9494 15.9994 21.9244 16.0294 21.9094 16.0644C21.8894 16.1194 21.8794 16.1794 21.8794 16.2394C21.8744 16.3344 21.9044 16.4294 21.9694 16.4994C22.0344 16.5594 22.1244 16.5944 22.2144 16.5894C22.3044 16.5894 22.3894 16.5594 22.4544 16.4994C22.5194 16.4294 22.5494 16.3344 22.5444 16.2394C22.5494 16.1444 22.5194 16.0494 22.4544 15.9744C22.3894 15.9094 22.2994 15.8744 22.2094 15.8794V15.8794ZM22.3494 16.4144C22.3144 16.4544 22.2644 16.4744 22.2144 16.4744C22.1594 16.4744 22.1094 16.4544 22.0744 16.4144C22.0344 16.3644 22.0144 16.2994 22.0194 16.2344C22.0194 16.1694 22.0344 16.1094 22.0744 16.0594C22.1094 16.0194 22.1594 15.9994 22.2144 15.9994C22.2644 15.9994 22.3144 16.0194 22.3494 16.0594C22.3894 16.1094 22.4044 16.1694 22.3994 16.2344C22.4044 16.2994 22.3894 16.3644 22.3494 16.4144Z" fill="#7FDBF0"/>
<path d="M22.7804 16.4492H22.6504V16.5792H22.7804V16.4492Z" fill="#7FDBF0"/>
<path d="M19.5447 12.7059V12.5309H21.8147C22.2997 12.5309 22.6897 12.1409 22.6897 11.6559V11.5859H4.37469V11.7909H1.69469V12.5309H11.0447V12.7059C11.0447 12.9109 11.1797 13.0909 11.3797 13.1459H1.67969V13.4359H22.6797V13.1459H19.2097C19.4097 13.0909 19.5447 12.9109 19.5447 12.7059ZM11.6347 13.1459C11.8297 13.0909 11.9697 12.9109 11.9697 12.7059V12.5309H12.5847V12.7059C12.5847 12.9109 12.7197 13.0909 12.9147 13.1459H11.6347V13.1459ZM13.1697 13.1459C13.3697 13.0909 13.5047 12.9109 13.5047 12.7059V12.5309H14.1197V12.7059C14.1197 12.9109 14.2547 13.0909 14.4547 13.1459H13.1697V13.1459ZM14.7097 13.1459C14.9047 13.0909 15.0397 12.9109 15.0397 12.7059V12.5309H18.6197V12.7059C18.6197 12.9109 18.7597 13.0909 18.9547 13.1459H14.7097Z" fill="#58D3EC"/>
<path d="M2.0707 14.7991C2.0407 14.7291 1.9907 14.6691 1.9357 14.6191H1.9057L1.7807 14.8841C1.9007 14.9941 1.9607 15.0691 1.9607 15.0991C1.9607 15.1291 1.8907 15.2041 1.7607 15.2941C1.6757 15.3491 1.5907 15.4041 1.5007 15.4491C1.4807 15.4591 1.4707 15.4741 1.4707 15.4941C1.4707 15.5291 1.4957 15.5491 1.5357 15.5491H1.9107C1.9107 15.5491 1.9457 15.5491 1.9607 15.5491C2.0707 15.4191 2.1257 15.2541 2.1157 15.0841C2.1207 14.9891 2.1057 14.8891 2.0707 14.7991Z" fill="#58D3EC"/>
<path d="M2.74516 15.4409L2.84016 15.3509L2.93016 15.4409L3.02516 15.3509L2.92516 15.2559L2.84016 15.3459L2.74516 15.2559L2.66016 15.3459V15.3709L2.75516 15.4609C2.75516 15.4609 2.74016 15.4509 2.74516 15.4409V15.4409Z" fill="#58D3EC"/>
<path d="M2.84938 15.6245L2.93938 15.5295L2.84438 15.4395L2.73438 15.4995L2.82938 15.5945C2.82938 15.5945 2.83938 15.6295 2.84938 15.6245Z" fill="#58D3EC"/>
<path d="M2.64491 15.1409C2.74991 15.1509 2.84991 15.1109 2.91491 15.0309C2.96991 14.9359 2.99991 14.8309 2.99991 14.7209C2.99991 14.5859 2.95991 14.4509 2.87491 14.3409L2.72991 14.5609V14.5859C2.77491 14.6259 2.81991 14.6709 2.85491 14.7209C2.85491 14.7309 2.85491 14.7409 2.85491 14.7509C2.85491 14.7509 2.85491 14.7759 2.80491 14.7759H2.60491C2.53491 14.7759 2.49991 14.7409 2.49991 14.6609V13.9609H2.46991L2.23491 14.1259C2.23491 14.1259 2.22491 14.1659 2.23491 14.1809V14.8309C2.23491 15.0409 2.33491 15.1409 2.53491 15.1409H2.64491Z" fill="#58D3EC"/>
<path d="M3.67492 15.14H3.85992C3.94492 15.14 4.02992 15.12 4.10992 15.085C4.15992 15.06 4.20992 15.035 4.25492 15C4.29492 14.96 4.34492 14.925 4.39492 14.9C4.45992 14.875 4.52992 14.86 4.59992 14.865L4.68992 14.655C4.68992 14.655 4.68992 14.63 4.68992 14.62H4.66492C4.60492 14.61 4.54492 14.59 4.48492 14.57C4.40992 14.535 4.33492 14.495 4.26492 14.45C4.20492 14.405 4.13492 14.38 4.06492 14.375C3.97992 14.385 3.89992 14.43 3.85492 14.505C3.81492 14.55 3.78992 14.61 3.77992 14.67C3.77992 14.705 3.77992 14.725 3.82492 14.725L3.88492 14.69C3.91492 14.655 3.95492 14.635 3.99992 14.63C4.03992 14.635 4.07992 14.65 4.11992 14.665L4.27992 14.73C4.15992 14.765 4.03992 14.78 3.91492 14.775H3.66492C3.62992 14.595 3.54992 14.505 3.43492 14.505C3.31992 14.505 3.28992 14.56 3.24992 14.67C3.21992 14.755 3.20492 14.84 3.20492 14.93C3.20492 15.035 3.23992 15.1 3.30992 15.125C3.37992 15.135 3.44992 15.135 3.51992 15.125C3.51992 15.16 3.44992 15.215 3.31992 15.295C3.23992 15.345 3.15992 15.395 3.07492 15.435C3.05492 15.445 3.04492 15.46 3.04492 15.48C3.04492 15.515 3.04492 15.535 3.10992 15.535H3.49992C3.49992 15.535 3.52992 15.54 3.54492 15.535C3.62992 15.42 3.67492 15.28 3.67492 15.14V15.14ZM3.42492 14.86C3.36492 14.86 3.33492 14.85 3.33492 14.83C3.33492 14.79 3.33492 14.775 3.40992 14.775C3.42992 14.77 3.44992 14.77 3.46992 14.775C3.46992 14.775 3.50992 14.805 3.50992 14.825C3.50992 14.845 3.49992 14.86 3.42492 14.86V14.86Z" fill="#58D3EC"/>
<path d="M4.23477 15.2752L4.13477 15.3752V15.4052L4.24477 15.5102L4.34977 15.4052L4.23977 15.3002C4.23977 15.3002 4.23977 15.2652 4.23477 15.2752V15.2752Z" fill="#58D3EC"/>
<path d="M6.20461 15.0441C6.20461 14.9291 6.16461 14.8641 6.07961 14.8491L5.88961 14.8191C5.81961 14.8191 5.78461 14.8191 5.78461 14.7891C5.78461 14.7591 5.78461 14.7491 5.82961 14.7291C5.86961 14.6991 5.91961 14.6841 5.96961 14.6891C6.00961 14.6891 6.04961 14.6991 6.08961 14.7141L6.17961 14.7391C6.17961 14.7391 6.20461 14.7091 6.20461 14.6591C6.20461 14.6041 6.17961 14.5541 6.14461 14.5141C6.10961 14.4541 6.03961 14.4141 5.96961 14.4141C5.86461 14.4141 5.77461 14.4841 5.69961 14.6241C5.64461 14.7141 5.61461 14.8141 5.60961 14.9191C5.60961 14.9941 5.66461 15.0441 5.77461 15.0691L6.03461 15.0941H6.07961L6.04961 15.1191C5.93461 15.1591 5.80961 15.1791 5.68461 15.1791C5.42961 15.1791 5.29961 15.1041 5.29961 14.9591C5.29961 14.9341 5.29961 14.9091 5.29961 14.8841C5.29961 14.8591 5.29961 14.8341 5.29961 14.8091C5.29961 14.7541 5.29961 14.7291 5.23461 14.7291C5.16961 14.7291 5.16461 14.7891 5.13461 14.9041C5.11461 14.9741 5.10461 15.0441 5.09961 15.1191C5.09961 15.3891 5.25961 15.5241 5.57461 15.5241C5.99961 15.5441 6.20461 15.3791 6.20461 15.0441V15.0441Z" fill="#58D3EC"/>
<path d="M6.56062 15.3006C6.47562 15.3606 6.39063 15.4106 6.30062 15.4556C6.29563 15.4706 6.29563 15.4856 6.30062 15.5006C6.30062 15.5356 6.30062 15.5556 6.36562 15.5556H6.74062C6.74062 15.5556 6.77062 15.5606 6.78562 15.5556C6.89562 15.4256 6.95563 15.2606 6.94563 15.0906C6.94563 15.0006 6.93562 14.9056 6.90062 14.8206C6.87062 14.7506 6.82062 14.6906 6.76562 14.6406H6.73562L6.61062 14.9056C6.72562 15.0156 6.78562 15.0906 6.78562 15.1206C6.78562 15.1506 6.69562 15.2106 6.56062 15.3006V15.3006Z" fill="#58D3EC"/>
<path d="M7.61523 15.5002L7.72523 15.3902L7.61523 15.2852H7.59023L7.49023 15.3852V15.4152L7.60023 15.5202L7.61523 15.5002Z" fill="#58D3EC"/>
<path d="M7.44945 15.1409C7.55445 15.1509 7.65445 15.1109 7.71945 15.0309C7.76945 14.9359 7.78945 14.8259 7.77945 14.7209C7.77945 14.5859 7.73945 14.4509 7.65945 14.3409L7.51445 14.5609V14.5859C7.55945 14.6259 7.59945 14.6709 7.63945 14.7209C7.63945 14.7309 7.63945 14.7409 7.63945 14.7509C7.63945 14.7509 7.63945 14.7759 7.58945 14.7759H7.42945C7.36445 14.7759 7.32945 14.7409 7.32945 14.6609V13.9609H7.29445L7.06445 14.1259V14.1809C7.06445 14.2059 7.06445 14.3309 7.08945 14.4809C7.11445 14.6309 7.08945 14.7409 7.08945 14.8309C7.08945 15.0409 7.18445 15.1409 7.38445 15.1409H7.44945V15.1409Z" fill="#58D3EC"/>
<path d="M8.55906 14.5C8.47406 14.5 8.41406 14.555 8.36906 14.665C8.33906 14.75 8.32406 14.835 8.32406 14.925C8.32406 15.03 8.35906 15.095 8.42906 15.12C8.49906 15.13 8.56906 15.13 8.63906 15.12C8.63906 15.155 8.57406 15.21 8.43906 15.29C8.35906 15.345 8.27906 15.39 8.19406 15.43C8.17406 15.44 8.16406 15.455 8.16406 15.475C8.16406 15.51 8.18906 15.53 8.22906 15.53H8.60406C8.60406 15.53 8.63906 15.53 8.65406 15.53C8.75906 15.375 8.81406 15.19 8.79906 15C8.79906 14.9 8.78906 14.8 8.75906 14.705C8.71906 14.565 8.64906 14.5 8.55906 14.5V14.5ZM8.55906 14.85C8.49906 14.85 8.46906 14.84 8.46906 14.82C8.46906 14.785 8.46906 14.765 8.54406 14.765C8.56406 14.765 8.58906 14.765 8.60906 14.765C8.62906 14.775 8.63906 14.795 8.64406 14.815C8.64406 14.815 8.60406 14.855 8.54906 14.855H8.55906V14.85Z" fill="#58D3EC"/>
<path d="M10.1792 15.0441C10.1792 14.9291 10.1392 14.8641 10.0542 14.8491L9.86922 14.8191C9.79422 14.8191 9.75922 14.8191 9.75922 14.7891C9.75922 14.7591 9.75922 14.7491 9.80422 14.7291C9.84422 14.6991 9.89422 14.6841 9.94422 14.6891C9.98922 14.6891 10.0292 14.6991 10.0692 14.7141L10.1542 14.7391C10.1542 14.7391 10.1792 14.7091 10.1792 14.6591C10.1792 14.6041 10.1542 14.5541 10.1192 14.5141C10.0842 14.4541 10.0192 14.4141 9.94922 14.4141C9.82422 14.4241 9.71922 14.5091 9.67422 14.6241C9.61922 14.7141 9.58922 14.8141 9.58422 14.9191C9.58422 14.9941 9.63922 15.0441 9.74922 15.0691L10.0142 15.0941H10.0542L10.0242 15.1191C9.90922 15.1591 9.78422 15.1791 9.65922 15.1791C9.40422 15.1791 9.27422 15.1041 9.27422 14.9591C9.27422 14.9341 9.27422 14.9091 9.27422 14.8841V14.8091C9.27422 14.8091 9.24922 14.7291 9.20422 14.7291C9.15922 14.7291 9.13422 14.7891 9.10422 14.9041C9.08422 14.9741 9.07422 15.0441 9.07422 15.1191C9.07422 15.3891 9.22922 15.5241 9.54422 15.5241C9.99922 15.5441 10.1792 15.3791 10.1792 15.0441V15.0441Z" fill="#58D3EC"/>
<path d="M11.5006 14.6692C11.5006 14.5692 11.4806 14.4692 11.4406 14.3792C11.4106 14.2792 11.3206 14.2042 11.2156 14.1992C11.1506 14.1992 11.0956 14.2392 11.0506 14.3292C11.0156 14.3942 10.9956 14.4692 10.9956 14.5442C10.9956 14.6542 11.0656 14.7092 11.2006 14.7092C11.2406 14.7192 11.2856 14.7192 11.3256 14.7092M11.3506 14.7342C11.2556 14.7642 11.1506 14.7742 11.0506 14.7642H10.9706C10.9206 14.7642 10.8756 14.7442 10.8356 14.7142C10.7956 14.6842 10.7606 14.6492 10.7306 14.6092H10.7006L10.5756 14.8742C10.6956 14.9842 10.7556 15.0592 10.7556 15.0892C10.7556 15.1192 10.6856 15.1942 10.5506 15.2842C10.4706 15.3442 10.3856 15.3942 10.2956 15.4392C10.2756 15.4492 10.2656 15.4642 10.2656 15.4842C10.2656 15.5192 10.2656 15.5392 10.3306 15.5392H10.7056C10.7056 15.5392 10.7406 15.5392 10.7556 15.5392C10.7906 15.4942 10.8206 15.4442 10.8456 15.3892C10.8756 15.3292 10.8956 15.2642 10.8956 15.1942V15.1242H11.0506C11.2756 15.1492 11.4756 14.9842 11.5006 14.7592C11.5006 14.7292 11.5006 14.6992 11.5006 14.6692L11.3506 14.7342V14.7342ZM11.2256 14.4992C11.1656 14.4992 11.1356 14.4892 11.1356 14.4692C11.1356 14.4542 11.1456 14.4392 11.1606 14.4292C11.1756 14.4242 11.1956 14.4242 11.2106 14.4292C11.2306 14.4242 11.2506 14.4242 11.2706 14.4292C11.2956 14.4292 11.3056 14.4592 11.3056 14.4742C11.3056 14.4892 11.2806 14.4992 11.2256 14.4992V14.4992Z" fill="#58D3EC"/>
<path d="M11.1898 13.8697L11.0898 13.9697V13.9997L11.1998 14.1047H11.2248L11.3298 13.9997V13.9747L11.2198 13.8697C11.2198 13.8697 11.1948 13.8597 11.1898 13.8697V13.8697Z" fill="#58D3EC"/>
<path d="M13.4998 14.6309C13.4648 14.5359 13.3748 14.4709 13.2748 14.4709C13.1998 14.4709 13.1298 14.5059 13.0848 14.5659C13.0548 14.6109 13.0398 14.6609 13.0398 14.7159C13.0398 14.7559 13.0048 14.7759 12.9348 14.7759H12.8998C12.8698 14.7759 12.8398 14.7559 12.8298 14.7259C12.8298 14.6809 12.8298 14.6509 12.8048 14.6409C12.8048 14.6109 12.7848 14.5909 12.7548 14.5909C12.7248 14.5909 12.7048 14.6109 12.7048 14.6409C12.7048 14.6709 12.7048 14.6959 12.7048 14.7259C12.6948 14.7559 12.6698 14.7759 12.6398 14.7759C12.6098 14.7759 12.5848 14.7559 12.5798 14.7259C12.5798 14.6959 12.5798 14.6709 12.5798 14.6409C12.5798 14.6059 12.5548 14.5909 12.5298 14.5909C12.5048 14.5909 12.4848 14.5909 12.4748 14.6409C12.4748 14.6709 12.4748 14.6959 12.4748 14.7259C12.4698 14.7559 12.4398 14.7759 12.4098 14.7759C12.3748 14.7759 12.3448 14.7559 12.3348 14.7259V14.6359C12.3348 14.6359 12.3348 14.5909 12.2798 14.5909C12.2248 14.5909 12.2398 14.5909 12.2248 14.6409C12.2098 14.6909 12.2248 14.7009 12.2248 14.7259C12.2098 14.7609 12.1748 14.7809 12.1398 14.7759H11.9998C11.9348 14.7759 11.8998 14.7409 11.8998 14.6609V13.9609H11.8648L11.6348 14.1259V14.1809C11.6348 14.2059 11.6348 14.3309 11.6598 14.4809C11.6848 14.6309 11.6598 14.7409 11.6598 14.8309C11.6598 15.0409 11.7598 15.1409 11.9598 15.1409H11.9998C12.0648 15.1359 12.1248 15.0909 12.1548 15.0309C12.1748 15.0909 12.2348 15.1359 12.2998 15.1359C12.3398 15.1359 12.3848 15.1009 12.4298 15.0309C12.4448 15.0559 12.4648 15.0809 12.4848 15.1009C12.5098 15.1209 12.5398 15.1359 12.5698 15.1359C12.6098 15.1359 12.6598 15.1009 12.7098 15.0359C12.7398 15.0909 12.7948 15.1309 12.8598 15.1359H12.9198C12.9798 15.1359 13.0298 15.0959 13.0648 15.0109C13.1098 15.0909 13.1898 15.1409 13.2798 15.1409C13.3448 15.1409 13.4098 15.1109 13.4498 15.0609C13.4948 15.0109 13.5148 14.9509 13.5148 14.8859C13.5298 14.8009 13.5248 14.7159 13.4998 14.6309V14.6309ZM13.3848 14.8959C13.3498 14.8959 13.3198 14.8709 13.2948 14.8209C13.2798 14.7859 13.2698 14.7459 13.2698 14.7059C13.2698 14.6909 13.2698 14.6759 13.2698 14.6609C13.2848 14.6609 13.2948 14.6609 13.3098 14.6609C13.3398 14.6609 13.3648 14.6609 13.3898 14.7359C13.4048 14.7709 13.4148 14.8059 13.4148 14.8459C13.4098 14.8709 13.3948 14.8959 13.3648 14.8959H13.3848V14.8959Z" fill="#58D3EC"/>
<path d="M14.6304 14.7291C14.6704 14.6991 14.7154 14.6841 14.7654 14.6891C14.8104 14.6891 14.8504 14.6991 14.8904 14.7141L14.9804 14.7391C14.9804 14.7391 15.0054 14.7091 15.0054 14.6591C15.0054 14.6041 14.9804 14.5541 14.9454 14.5141C14.9104 14.4541 14.8404 14.4141 14.7704 14.4141C14.6654 14.4141 14.5754 14.4841 14.5004 14.6241C14.4454 14.7141 14.4154 14.8141 14.4104 14.9191C14.4104 14.9941 14.4604 15.0441 14.5704 15.0691L14.8354 15.0941H14.8754L14.8504 15.1191C14.7304 15.1591 14.6054 15.1791 14.4804 15.1791C14.2254 15.1791 14.1004 15.1041 14.1004 14.9591C14.1004 14.9341 14.1004 14.9091 14.1004 14.8841C14.1004 14.8591 14.1004 14.8341 14.1004 14.8091C14.1004 14.7541 14.1004 14.7291 14.0354 14.7291C13.9704 14.7291 13.9654 14.7891 13.9354 14.9041C13.9154 14.9741 13.9004 15.0441 13.9004 15.1191C13.9004 15.3891 14.0604 15.5241 14.4004 15.5241C14.8104 15.5241 15.0154 15.3591 15.0154 15.0241C15.0154 14.9091 14.9704 14.8441 14.8904 14.8291L14.7004 14.7991C14.6304 14.7991 14.5904 14.7991 14.5904 14.7691C14.5904 14.7391 14.5954 14.7491 14.6304 14.7291V14.7291Z" fill="#58D3EC"/>
<path d="M16.2042 15.0009C16.2342 14.9459 16.2542 14.8859 16.2542 14.8209C16.2492 14.6909 16.1892 14.5709 16.0942 14.4809C15.9942 14.3909 15.8892 14.3159 15.7692 14.2559H15.7242C15.7242 14.2559 15.6942 14.2559 15.6842 14.2959L15.5792 14.5359L15.6242 14.5659C15.5742 14.5909 15.5442 14.6459 15.5492 14.7059C15.5442 14.7309 15.5442 14.7509 15.5492 14.7759H15.4992C15.4342 14.7759 15.4042 14.7359 15.4042 14.6609V13.9609H15.3742L15.1392 14.1259C15.1392 14.1259 15.1292 14.1659 15.1392 14.1809V14.8309C15.1392 15.0409 15.2392 15.1409 15.4392 15.1409H15.6192C15.6992 15.1359 15.7742 15.0959 15.8292 15.0359C15.8942 15.0909 15.9692 15.1259 16.0492 15.1409C16.1092 15.1409 16.1592 15.1009 16.2042 15.0009V15.0009ZM15.8392 14.7359C15.8392 14.7359 15.8042 14.7409 15.7892 14.7359C15.7692 14.7409 15.7442 14.7409 15.7242 14.7359C15.6992 14.7359 15.6842 14.7009 15.6842 14.6859C15.6842 14.6659 15.7042 14.6459 15.7242 14.6409C15.7442 14.6359 15.7642 14.6359 15.7842 14.6409C15.8042 14.6359 15.8192 14.6359 15.8392 14.6409C15.8542 14.6509 15.8692 14.6659 15.8692 14.6859C15.8792 14.7109 15.8692 14.7409 15.8442 14.7509C15.8442 14.7509 15.8442 14.7509 15.8392 14.7509V14.7309V14.7359ZM15.9342 14.8409C15.9692 14.8209 15.9942 14.7809 15.9892 14.7359C16.0642 14.7859 16.0992 14.8309 16.0992 14.8659C16.0992 14.9009 16.0992 14.9209 16.0642 14.9209C16.0392 14.9209 16.0192 14.9159 15.9992 14.9009C15.9742 14.8909 15.9542 14.8759 15.9342 14.8609V14.8409V14.8409Z" fill="#58D3EC"/>
<path d="M16.5556 15.3006C16.4706 15.3556 16.3856 15.4106 16.2956 15.4556C16.2756 15.4656 16.2656 15.4806 16.2656 15.5006C16.2656 15.5356 16.2656 15.5556 16.3306 15.5556H16.7056C16.7056 15.5556 16.7406 15.5556 16.7556 15.5556C16.8656 15.4256 16.9206 15.2606 16.9106 15.0906C16.9106 15.0006 16.9006 14.9056 16.8656 14.8206C16.8356 14.7506 16.7856 14.6906 16.7306 14.6406H16.7006L16.5756 14.9056C16.6956 15.0156 16.7556 15.0906 16.7556 15.1206C16.7556 15.1506 16.6856 15.2106 16.5556 15.3006V15.3006Z" fill="#58D3EC"/>
<path d="M17.3748 15.1347H17.6248C17.8198 15.1497 18.0148 15.0847 18.1698 14.9597C18.2048 15.0647 18.2998 15.1347 18.4098 15.1347H18.4998C18.7298 15.1597 18.9348 14.9997 18.9598 14.7697C18.9598 14.7347 18.9598 14.6997 18.9598 14.6647C18.9598 14.5647 18.9398 14.4647 18.8998 14.3747C18.8448 14.2547 18.7698 14.1947 18.6748 14.1947C18.5998 14.1947 18.5298 14.2497 18.5098 14.3247C18.4748 14.3897 18.4548 14.4647 18.4548 14.5397C18.4548 14.6497 18.5198 14.7047 18.6548 14.7047C18.6948 14.7147 18.7398 14.7147 18.7798 14.7047M18.7798 14.7297C18.6848 14.7597 18.5798 14.7697 18.4798 14.7597H18.3298C18.3548 14.7097 18.3698 14.6497 18.3648 14.5897C18.3648 14.5347 18.3498 14.4847 18.3148 14.4447C18.2798 14.4047 18.2298 14.3847 18.1748 14.3847C18.0398 14.3847 17.8748 14.4897 17.6748 14.7047C17.7198 14.5947 17.7448 14.4797 17.7448 14.3597V14.2747C17.7448 14.2747 17.7798 14.2747 17.7998 14.2747C17.7998 14.2747 17.7998 14.2497 17.7998 14.2347L17.6798 13.9697C17.6798 13.9697 17.6798 13.9297 17.6498 13.9297H17.6148L17.4098 14.1097C17.4948 14.3147 17.5398 14.5347 17.5348 14.7547H17.3998C17.3298 14.7547 17.2948 14.7197 17.2948 14.6397V13.9397H17.2598L17.0298 14.1047C17.0298 14.1047 17.0198 14.1447 17.0298 14.1597V14.8097C17.0298 15.0197 17.1298 15.1197 17.3248 15.1197L18.7798 14.7297V14.7297ZM18.6998 14.4997C18.6398 14.4997 18.6098 14.4897 18.6098 14.4697C18.6098 14.4547 18.6198 14.4397 18.6348 14.4297C18.6498 14.4247 18.6698 14.4247 18.6848 14.4297C18.7048 14.4247 18.7248 14.4247 18.7448 14.4297C18.7448 14.4297 18.7798 14.4597 18.7798 14.4747C18.7798 14.4897 18.7548 14.4997 18.6998 14.4997V14.4997ZM17.9998 14.6197C18.0748 14.6197 18.1098 14.6497 18.1098 14.7097C18.1098 14.7697 18.1098 14.7447 18.0298 14.7597C17.9548 14.7797 17.8748 14.7847 17.7948 14.7847H17.7248C17.7948 14.6997 17.8948 14.6447 17.9998 14.6197V14.6197Z" fill="#58D3EC"/>
<path d="M18.7709 13.88L18.6859 13.965L18.5959 13.88L18.5059 13.97L18.6009 14.06L18.6859 13.975L18.7759 14.06L18.8709 13.97L18.7709 13.875V13.88Z" fill="#58D3EC"/>
<path d="M19.9041 14.255L19.8191 14.34L19.7291 14.255M19.7041 14.255L19.6191 14.345L19.7141 14.435L19.8041 14.35L19.8941 14.435L19.9891 14.345L19.8941 14.25H19.7041V14.255Z" fill="#58D3EC"/>
<path d="M20.845 14.3756L21.17 14.2756L21.2 14.0156L20.585 14.2156C20.585 14.2156 20.585 14.2306 20.585 14.2406L20.54 14.4956L20.685 14.6256C20.73 14.6656 20.77 14.7106 20.805 14.7556V14.7806C20.73 14.7906 20.655 14.7906 20.58 14.7806H20.5C20.5 14.7806 20.455 14.7906 20.435 14.7806C20.435 14.7606 20.435 14.7456 20.435 14.7256C20.435 14.7056 20.435 14.6906 20.435 14.6706C20.435 14.6356 20.435 14.6156 20.39 14.6156C20.345 14.6156 20.355 14.6406 20.315 14.6806C20.27 14.7306 20.215 14.7706 20.15 14.8006C20.025 14.8456 19.895 14.8656 19.76 14.8606C19.655 14.8756 19.545 14.8456 19.46 14.7856C19.43 14.7406 19.41 14.6906 19.415 14.6356C19.415 14.5856 19.415 14.5606 19.36 14.5606C19.305 14.5606 19.305 14.5956 19.285 14.6656C19.28 14.7206 19.28 14.7756 19.285 14.8306C19.275 14.9406 19.315 15.0506 19.395 15.1256C19.485 15.1856 19.595 15.2156 19.705 15.2106C19.915 15.2206 20.12 15.1456 20.275 15.0006C20.305 15.0856 20.38 15.1406 20.47 15.1406H20.62C20.695 15.1406 20.77 15.1256 20.835 15.0906C20.95 15.0206 21.015 14.8956 21.005 14.7606C21.005 14.6856 20.985 14.6106 20.955 14.5406C20.925 14.4806 20.885 14.4256 20.845 14.3756V14.3756Z" fill="#58D3EC"/>
<path d="M22.7005 14.7159C22.7005 14.6459 22.6905 14.5709 22.6605 14.5059L22.5605 14.6209V14.6759C22.5605 14.6759 22.5605 14.7209 22.5605 14.7409C22.5605 14.7759 22.5605 14.7959 22.4855 14.7959C22.4505 14.7959 22.4155 14.7809 22.4055 14.7459V14.6609C22.4055 14.6309 22.4055 14.6109 22.3605 14.6109C22.3155 14.6109 22.3155 14.6109 22.3055 14.6609C22.2955 14.7109 22.3055 14.7259 22.3055 14.7409C22.3005 14.7709 22.2705 14.7909 22.2405 14.7859C22.2055 14.7859 22.1705 14.7709 22.1555 14.7409V14.6559C22.1555 14.6259 22.1305 14.6109 22.1055 14.6109C22.0805 14.6109 22.0655 14.6109 22.0555 14.6659V14.7409C22.0405 14.7709 22.0105 14.7909 21.9755 14.7859H21.9355C21.8855 14.7859 21.8405 14.7659 21.8055 14.7359C21.7655 14.7059 21.7305 14.6709 21.7005 14.6309H21.6705L21.5405 14.8959C21.6605 15.0059 21.7205 15.0809 21.7205 15.1109C21.7205 15.1409 21.6555 15.2159 21.5205 15.3059C21.4355 15.3609 21.3505 15.4159 21.2605 15.4609C21.2405 15.4709 21.2305 15.4859 21.2305 15.5059C21.2305 15.5409 21.2305 15.5609 21.3005 15.5609H21.6705C21.6705 15.5609 21.7055 15.5659 21.7205 15.5609C21.7605 15.5159 21.7905 15.4659 21.8105 15.4109C21.8405 15.3509 21.8605 15.2859 21.8605 15.2159V15.1459H21.9805C22.0455 15.1459 22.1005 15.0959 22.1205 15.0359C22.1405 15.1059 22.2055 15.1509 22.2755 15.1459C22.3355 15.1459 22.3905 15.1009 22.4055 15.0409C22.4355 15.1059 22.4955 15.1459 22.5655 15.1459C22.6405 15.1459 22.6955 15.0909 22.7355 14.9809C22.7355 14.8909 22.7305 14.8009 22.7005 14.7159V14.7159Z" fill="#58D3EC"/>
<path d="M22.3559 14.195L22.4409 14.105L22.3509 14L22.2559 14.095L22.3509 14.19C22.3509 14.19 22.3509 14.205 22.3509 14.19L22.3559 14.195Z" fill="#58D3EC"/>
<path d="M22.1348 14.2647L22.2298 14.3597L22.3148 14.2747L22.4098 14.3647L22.4998 14.2747L22.4048 14.1797L22.3148 14.2697L22.2248 14.1797L22.1348 14.2647Z" fill="#58D3EC"/>
<path d="M1.74036 16.3359V16.4459C1.74036 16.4459 1.70036 16.4759 1.67536 16.4759C1.64536 16.4759 1.62036 16.4609 1.60536 16.4359C1.60036 16.4109 1.60036 16.3809 1.60536 16.3559H1.47536C1.47036 16.4159 1.49036 16.4759 1.53036 16.5209C1.57036 16.5609 1.63036 16.5809 1.68536 16.5759C1.73536 16.5759 1.78536 16.5659 1.82536 16.5409C1.86036 16.5159 1.88536 16.4859 1.90036 16.4459C1.90036 16.4009 1.90036 16.3609 1.90036 16.3159V15.8809H1.74036V16.3359V16.3359Z" fill="#58D3EC"/>
<path d="M2.32968 15.8809C2.27968 15.8809 2.22468 15.8909 2.17968 15.9109C2.14968 15.9259 2.11968 15.9459 2.08968 15.9709C2.02468 16.0459 1.98968 16.1409 1.99468 16.2409C1.98968 16.3359 2.01968 16.4309 2.08468 16.5009C2.14968 16.5609 2.23968 16.5959 2.32968 16.5909C2.41968 16.5909 2.50468 16.5609 2.56968 16.5009C2.63468 16.4309 2.66468 16.3359 2.65968 16.2409C2.65968 16.1509 2.62968 16.0659 2.56968 16.0009C2.50968 15.9309 2.42468 15.8859 2.32968 15.8809V15.8809ZM2.46468 16.4159C2.39968 16.4909 2.28468 16.4959 2.20968 16.4309C2.20468 16.4309 2.19968 16.4209 2.19468 16.4159C2.15468 16.3659 2.13468 16.3009 2.13968 16.2359C2.13968 16.1759 2.15468 16.1109 2.18968 16.0609C2.22468 16.0209 2.27468 16.0009 2.32968 16.0009C2.37968 16.0009 2.42968 16.0209 2.46468 16.0609C2.50468 16.1109 2.52468 16.1709 2.51968 16.2359C2.51968 16.3009 2.50468 16.3659 2.46468 16.4159Z" fill="#58D3EC"/>
<path d="M3.07523 15.8809C3.02523 15.8809 2.97023 15.8909 2.92523 15.9109C2.89523 15.9259 2.86523 15.9459 2.84023 15.9709C2.81023 15.9959 2.79023 16.0309 2.77523 16.0659C2.75023 16.1209 2.74023 16.1809 2.74023 16.2409C2.74023 16.3359 2.77023 16.4309 2.83523 16.5009C2.90023 16.5609 2.98523 16.5959 3.07523 16.5909C3.16523 16.5909 3.25523 16.5609 3.32023 16.5009C3.38523 16.4309 3.41523 16.3359 3.41023 16.2409C3.41023 16.1509 3.37523 16.0659 3.31523 16.0009C3.25523 15.9309 3.17023 15.8859 3.07523 15.8809V15.8809ZM3.21023 16.4159C3.14523 16.4909 3.03023 16.4959 2.95523 16.4309C2.95023 16.4309 2.94523 16.4209 2.94023 16.4159C2.90023 16.3659 2.88023 16.3009 2.88523 16.2359C2.88523 16.1709 2.90023 16.1109 2.94023 16.0609C2.97523 16.0209 3.02523 16.0009 3.07523 16.0009C3.13023 16.0009 3.18023 16.0209 3.21523 16.0609C3.25523 16.1109 3.27023 16.1709 3.26523 16.2359C3.26523 16.3009 3.25023 16.3659 3.21023 16.4159Z" fill="#58D3EC"/>
<path d="M4.04 16.1041C4.04 16.0541 4.03 16.0091 4 15.9691C3.975 15.9391 3.945 15.9141 3.905 15.9041C3.85 15.8991 3.795 15.8991 3.74 15.9041H3.5V16.5891H3.64V16.3291H3.73C3.78 16.3341 3.825 16.3341 3.875 16.3291C3.9 16.3241 3.925 16.3141 3.945 16.2991C3.975 16.2741 3.99 16.2441 4 16.2091C4.02 16.1791 4.035 16.1441 4.04 16.1041V16.1041ZM3.885 16.1591C3.885 16.1591 3.86 16.1841 3.84 16.1941H3.655V15.9991H3.82C3.82 15.9991 3.86 16.0141 3.875 16.0291C3.88 16.0491 3.88 16.0691 3.875 16.0891C3.885 16.1091 3.89 16.1341 3.885 16.1591Z" fill="#58D3EC"/>
<path d="M4.28 15.8945L4 16.5795H4.145L4.205 16.4245H4.5L4.56 16.5795H4.715L4.44 15.8945H4.28V15.8945ZM4.28 16.3095L4.375 16.0545L4.47 16.3095H4.28V16.3095Z" fill="#58D3EC"/>
<path d="M5.23039 16.335L5.15539 16.275C5.20539 16.275 5.25539 16.25 5.29539 16.215C5.32539 16.18 5.34039 16.135 5.34039 16.085C5.34039 16.05 5.33039 16.01 5.31039 15.98C5.29039 15.95 5.26539 15.925 5.23039 15.91C5.17539 15.905 5.12539 15.905 5.07039 15.91H4.77539V16.595H4.91539V16.31H5.00039C5.00039 16.31 5.03039 16.325 5.04039 16.34C5.07039 16.37 5.09539 16.405 5.11539 16.44L5.21539 16.59H5.38039L5.29539 16.455C5.27539 16.415 5.25539 16.375 5.23039 16.335V16.335ZM5.02039 16.185H4.91539V16H5.12539C5.12539 16 5.16039 16.015 5.17539 16.03C5.18539 16.05 5.18539 16.065 5.17539 16.085C5.18039 16.1 5.18039 16.12 5.17539 16.135C5.16539 16.15 5.15539 16.16 5.14039 16.165C5.09539 16.175 5.04539 16.185 5.00039 16.185H5.02039V16.185Z" fill="#58D3EC"/>
<path d="M6.25938 16.1041C6.25938 16.0541 6.24937 16.0091 6.21937 15.9691C6.19437 15.9341 6.15937 15.9141 6.11937 15.9041C6.06437 15.8991 6.00937 15.8991 5.95437 15.9041H5.73438V16.5891H5.87437V16.3291H5.96438C6.01438 16.3341 6.05937 16.3341 6.10938 16.3291L6.17937 16.2991C6.20437 16.2841 6.22437 16.2591 6.23937 16.2291C6.25937 16.1891 6.26438 16.1491 6.25938 16.1041V16.1041ZM6.09937 16.1591C6.09937 16.1591 6.07437 16.1841 6.05937 16.1941H5.87437V15.9991H6.03937C6.03937 15.9991 6.07937 16.0141 6.09437 16.0291C6.10937 16.0441 6.11937 16.0641 6.11937 16.0891C6.12437 16.1141 6.11937 16.1391 6.09937 16.1591V16.1591Z" fill="#58D3EC"/>
<path d="M6.49937 15.8945L6.23438 16.5795H6.37937L6.43437 16.4245H6.70937L6.76937 16.5795H6.91937L6.64437 15.8945H6.49937V15.8945ZM6.49937 16.3095L6.59437 16.0545L6.68437 16.3095H6.49937Z" fill="#58D3EC"/>
<path d="M7.41469 16.1995L7.26469 16.1495C7.21969 16.1445 7.17969 16.1295 7.13969 16.1045C7.13469 16.0895 7.13469 16.0795 7.13969 16.0645C7.13469 16.0495 7.13469 16.0345 7.13969 16.0195C7.16969 16.0045 7.19969 15.9945 7.23469 15.9945C7.26469 15.9945 7.29469 15.9995 7.31969 16.0195C7.34469 16.0395 7.35469 16.0645 7.35969 16.0945H7.49969C7.49969 16.0345 7.47469 15.9795 7.42969 15.9445C7.37469 15.8995 7.30469 15.8795 7.23469 15.8845C7.18969 15.8745 7.14469 15.8745 7.09969 15.8845C7.04969 15.9095 7.01469 15.9495 6.99969 15.9995C6.97969 16.0295 6.96969 16.0645 6.96969 16.0995C6.96969 16.1545 6.98969 16.2045 7.03469 16.2345C7.07969 16.2695 7.13469 16.2945 7.18969 16.3045L7.29969 16.3345L7.34969 16.3645C7.34969 16.3645 7.35469 16.3895 7.34969 16.4045C7.34969 16.4295 7.33469 16.4545 7.31469 16.4695C7.28469 16.4945 7.24969 16.5045 7.21469 16.4995C7.17969 16.4995 7.14469 16.4895 7.11469 16.4695C7.08969 16.4395 7.06969 16.4095 7.06469 16.3695H6.92969C6.92969 16.4395 6.96469 16.4995 7.01469 16.5445C7.06969 16.5895 7.14469 16.6095 7.21469 16.6045C7.26469 16.6145 7.31469 16.6145 7.36469 16.6045C7.42469 16.5945 7.47469 16.5545 7.49969 16.4995C7.52469 16.4695 7.53469 16.4295 7.53469 16.3895C7.53469 16.3495 7.52469 16.3145 7.50469 16.2795C7.48469 16.2445 7.45469 16.2145 7.41469 16.1995V16.1995Z" fill="#58D3EC"/>
<path d="M8.05594 16.1995L7.90594 16.1495C7.86094 16.1445 7.82094 16.1295 7.78094 16.1045C7.76594 16.0945 7.75594 16.0795 7.75594 16.0645C7.75594 16.0445 7.76594 16.0295 7.78094 16.0195C7.81094 15.9995 7.84094 15.9945 7.87594 15.9945C7.90594 15.9945 7.93594 15.9995 7.96094 16.0195C7.98594 16.0395 7.99594 16.0645 8.00094 16.0945H8.14094C8.14094 16.0345 8.11594 15.9795 8.07094 15.9445C8.01594 15.8995 7.94594 15.8795 7.87594 15.8845C7.83094 15.8745 7.78594 15.8745 7.74094 15.8845C7.70594 15.8995 7.67594 15.9245 7.65594 15.9545C7.63594 15.9845 7.62594 16.0195 7.62594 16.0545C7.62594 16.1095 7.64594 16.1595 7.69094 16.1895C7.73594 16.2245 7.79094 16.2495 7.84594 16.2595L7.95594 16.2895L8.00594 16.3195C8.00594 16.3195 8.01094 16.3445 8.00594 16.3595C8.00594 16.3845 7.99094 16.4095 7.97094 16.4245C7.94094 16.4495 7.90594 16.4595 7.87094 16.4545C7.83594 16.4545 7.80094 16.4445 7.77094 16.4245C7.74594 16.3945 7.72594 16.3645 7.72094 16.3245H7.58594C7.58594 16.3945 7.62094 16.4545 7.67094 16.4995C7.72594 16.5445 7.80094 16.5645 7.87094 16.5595C7.92094 16.5695 7.96594 16.5695 8.01594 16.5595C8.05594 16.5445 8.09094 16.5195 8.11094 16.4845C8.13094 16.4495 8.14594 16.4145 8.14594 16.3745C8.14594 16.3345 8.13594 16.2995 8.11594 16.2645C8.10094 16.2395 8.08094 16.2195 8.05594 16.1995V16.1995Z" fill="#58D3EC"/>
<path d="M8.41539 16.2795H8.76039V16.1595H8.41539V16.0095H8.78539V15.8945H8.27539V16.5795H8.79539V16.4645H8.41539V16.2795Z" fill="#58D3EC"/>
<path d="M9.32906 16.3495L9.04906 15.8945H8.91406V16.5795H9.04406V16.1345L9.31906 16.5795H9.45906V15.8945H9.32906V16.3495Z" fill="#58D3EC"/>
<path d="M9.92508 16.3305H10.0851V16.4155C10.0851 16.4155 10.0351 16.4455 10.0101 16.4555C9.98008 16.4605 9.95008 16.4605 9.92008 16.4555C9.86508 16.4555 9.81508 16.4355 9.78008 16.3905C9.74008 16.3405 9.72008 16.2755 9.72508 16.2105C9.72508 16.1505 9.74008 16.0855 9.78008 16.0405C9.81508 16.0005 9.87008 15.9755 9.92508 15.9805C9.96008 15.9805 9.99508 15.9905 10.0251 16.0105C10.0501 16.0305 10.0701 16.0605 10.0751 16.0905H10.2151C10.2051 16.0305 10.1701 15.9755 10.1201 15.9405C10.0651 15.9005 9.99508 15.8805 9.92508 15.8855C9.87008 15.8855 9.81008 15.8955 9.76008 15.9205C9.70508 15.9505 9.65508 15.9955 9.62508 16.0505C9.59508 16.1105 9.58008 16.1755 9.58008 16.2405C9.58008 16.3055 9.59508 16.3655 9.62008 16.4255C9.65008 16.4805 9.69008 16.5205 9.74508 16.5505C9.80008 16.5805 9.86508 16.5955 9.93008 16.5955C9.99008 16.5955 10.0451 16.5855 10.1001 16.5655C10.1451 16.5505 10.1901 16.5255 10.2251 16.4905V16.2155H9.92508V16.3305V16.3305Z" fill="#58D3EC"/>
<path d="M10.4896 16.2795H10.8346V16.1595H10.4896V16.0095H10.8596V15.8945H10.3496V16.5795H10.8746V16.4645H10.4896V16.2795Z" fill="#58D3EC"/>
<path d="M11.445 16.335L11.37 16.275C11.42 16.275 11.47 16.25 11.505 16.215C11.54 16.18 11.555 16.135 11.555 16.085C11.555 16.05 11.545 16.01 11.525 15.98C11.505 15.95 11.48 15.925 11.445 15.91C11.39 15.905 11.34 15.905 11.285 15.91H11V16.595H11.14V16.31H11.24L11.28 16.34C11.305 16.37 11.33 16.405 11.35 16.44L11.455 16.59H11.62L11.535 16.455C11.51 16.415 11.48 16.375 11.445 16.335ZM11.23 16.185H11.13V16H11.34C11.34 16 11.375 16.015 11.39 16.03C11.4 16.05 11.4 16.065 11.39 16.085C11.395 16.1 11.395 16.12 11.39 16.135C11.38 16.15 11.365 16.16 11.35 16.165C11.31 16.175 11.27 16.185 11.23 16.185V16.185Z" fill="#58D3EC"/>
<path d="M12.4504 16.4201C12.4504 16.4201 12.4704 16.3901 12.4754 16.3701C12.4904 16.3401 12.5004 16.3101 12.5054 16.2751H12.3904C12.3804 16.3001 12.3704 16.3301 12.3604 16.3551L12.2654 16.2251C12.3054 16.2051 12.3404 16.1801 12.3654 16.1451C12.3804 16.1201 12.3904 16.0951 12.3904 16.0651C12.3904 16.0251 12.3704 15.9851 12.3404 15.9551C12.3004 15.9201 12.2504 15.9001 12.2004 15.9051C12.1504 15.9051 12.1004 15.9151 12.0604 15.9501C12.0304 15.9751 12.0104 16.0151 12.0104 16.0551C12.0104 16.0801 12.0104 16.1001 12.0104 16.1251C12.0254 16.1551 12.0404 16.1801 12.0654 16.2051C12.0204 16.2251 11.9754 16.2601 11.9454 16.3001C11.8854 16.3701 11.8854 16.4751 11.9454 16.5451C11.9954 16.5951 12.0704 16.6201 12.1404 16.6151C12.1754 16.6201 12.2154 16.6201 12.2504 16.6151C12.2854 16.6001 12.3154 16.5851 12.3404 16.5601C12.3754 16.5901 12.4104 16.6201 12.4504 16.6401L12.5304 16.5351L12.4804 16.5051L12.4504 16.4201V16.4201ZM12.1554 16.0001C12.1554 16.0001 12.1904 15.9951 12.2054 16.0001C12.2204 15.9951 12.2404 15.9951 12.2554 16.0001C12.2554 16.0151 12.2554 16.0251 12.2554 16.0401C12.2554 16.0651 12.2354 16.0851 12.2154 16.1001L12.1804 16.1301L12.1454 16.0901C12.1454 16.0901 12.1154 16.0551 12.1154 16.0301C12.1204 16.0151 12.1354 16.0001 12.1554 16.0001V16.0001ZM12.2204 16.5001C12.2204 16.5001 12.1804 16.5001 12.1604 16.5001C12.1304 16.5001 12.1054 16.4901 12.0854 16.4701C12.0654 16.4551 12.0554 16.4251 12.0554 16.4001C12.0554 16.3751 12.0654 16.3551 12.0804 16.3351C12.0954 16.3101 12.1204 16.2951 12.1454 16.2801L12.2804 16.4451C12.2804 16.4451 12.2404 16.4651 12.2204 16.4701V16.5001V16.5001Z" fill="#58D3EC"/>
<path d="M12.9102 16.5795H13.0452V16.2895H13.3352V16.1695H13.0452V16.0095H13.3802V15.8945H12.9102V16.5795Z" fill="#58D3EC"/>
<path d="M13.95 16.335L13.875 16.275C13.925 16.275 13.975 16.25 14.01 16.215C14.04 16.18 14.055 16.135 14.055 16.085C14.055 16.05 14.045 16.01 14.025 15.98C14.005 15.95 13.98 15.925 13.945 15.91C13.89 15.905 13.84 15.905 13.785 15.91H13.5V16.595H13.64V16.31H13.735C13.735 16.31 13.765 16.325 13.775 16.34C13.805 16.37 13.83 16.405 13.85 16.44L13.95 16.59H14.115L14.03 16.455C14.01 16.41 13.98 16.37 13.95 16.335V16.335ZM13.735 16.185H13.635V16H13.84C13.84 16 13.88 16.015 13.895 16.03C13.9 16.05 13.9 16.065 13.895 16.085C13.9 16.1 13.9 16.12 13.895 16.135C13.885 16.15 13.87 16.16 13.855 16.165C13.815 16.175 13.775 16.185 13.735 16.185V16.185Z" fill="#58D3EC"/>
<path d="M14.3255 16.2795H14.6705V16.1595H14.3255V16.0095H14.6955V15.8945H14.1855V16.5795H14.7055V16.4645H14.3255V16.2795Z" fill="#58D3EC"/>
<path d="M14.9603 15.8945H14.8203V16.5795H14.9603V15.8945Z" fill="#58D3EC"/>
<path d="M15.4105 16.3305H15.5705V16.4155C15.5705 16.4155 15.5205 16.4455 15.4955 16.4555C15.4655 16.4605 15.4355 16.4605 15.4055 16.4555C15.3505 16.4555 15.3005 16.4355 15.2655 16.3905C15.2255 16.3405 15.2055 16.2755 15.2105 16.2105C15.2105 16.1505 15.2255 16.0855 15.2655 16.0405C15.3005 16.0005 15.3555 15.9755 15.4105 15.9805C15.4455 15.9805 15.4805 15.9905 15.5105 16.0105C15.5355 16.0305 15.5555 16.0605 15.5655 16.0905H15.7005C15.6905 16.0305 15.6555 15.9805 15.6105 15.9405C15.5505 15.9005 15.4805 15.8805 15.4105 15.8855C15.3555 15.8855 15.2955 15.8955 15.2455 15.9205C15.1905 15.9505 15.1455 15.9955 15.1155 16.0505C15.0605 16.1705 15.0605 16.3055 15.1155 16.4255C15.1405 16.4805 15.1805 16.5255 15.2355 16.5505C15.2905 16.5805 15.3555 16.5955 15.4205 16.5955C15.4805 16.5955 15.5355 16.5855 15.5905 16.5655C15.6355 16.5505 15.6805 16.5255 15.7155 16.4905V16.2155H15.4155V16.3305H15.4105Z" fill="#58D3EC"/>
<path d="M16.2448 16.1645H15.9748V15.8945H15.8398V16.5795H15.9748V16.2795H16.2448V16.5795H16.3848V15.8945H16.2448V16.1645Z" fill="#58D3EC"/>
<path d="M16.4805 16.0095H16.6855V16.5795H16.8255V16.0095H17.0255V15.8945H16.4805V16.0095Z" fill="#58D3EC"/>
<path d="M17.3301 16.0095H17.5351V16.5795H17.6751V16.0095H17.8801V15.8945H17.3301V16.0095Z" fill="#58D3EC"/>
<path d="M18.4198 16.3345L18.3448 16.2745C18.3948 16.2745 18.4448 16.2495 18.4848 16.2145C18.5148 16.1795 18.5298 16.1345 18.5298 16.0845C18.5298 16.0545 18.5148 16.0245 18.4998 15.9995C18.4798 15.9695 18.4548 15.9445 18.4198 15.9295C18.3648 15.9245 18.3148 15.9245 18.2598 15.9295H17.9648V16.6145H18.1048V16.3295H18.2048C18.2048 16.3295 18.2348 16.3445 18.2448 16.3595C18.2748 16.3895 18.2998 16.4245 18.3198 16.4595L18.4198 16.6095H18.5848L18.4998 16.4445C18.4748 16.4045 18.4498 16.3695 18.4198 16.3345V16.3345ZM18.2098 16.1845H18.1048V15.9995H18.3148C18.3148 15.9995 18.3498 16.0145 18.3648 16.0295C18.3748 16.0495 18.3748 16.0645 18.3648 16.0845C18.3698 16.0995 18.3698 16.1195 18.3648 16.1345C18.3548 16.1495 18.3448 16.1595 18.3298 16.1645C18.2898 16.1745 18.2498 16.1845 18.2098 16.1845V16.1845Z" fill="#58D3EC"/>
<path d="M18.8548 15.8945L18.5898 16.5795H18.7348L18.7948 16.4245H19.0648L19.1248 16.5795H19.2798L18.9998 15.8945H18.8548V15.8945ZM18.8548 16.3095L18.9498 16.0545L19.0448 16.3095H18.8548V16.3095Z" fill="#58D3EC"/>
<path d="M19.4857 15.8945H19.3457V16.5795H19.4857V15.8945Z" fill="#58D3EC"/>
<path d="M20.0341 16.3495L19.7541 15.8945H19.6191V16.5795H19.7441V16.1345L20.0241 16.5795H20.1641V15.8945H20.0341V16.3495Z" fill="#58D3EC"/>
<path d="M20.7298 16.2003L20.5798 16.1503C20.5348 16.1453 20.4948 16.1303 20.4548 16.1053C20.4498 16.0903 20.4498 16.0803 20.4548 16.0653C20.4498 16.0503 20.4498 16.0353 20.4548 16.0203C20.4848 16.0053 20.5148 15.9953 20.5498 16.0003C20.5798 16.0003 20.6098 16.0053 20.6348 16.0253C20.6598 16.0453 20.6698 16.0703 20.6748 16.1003H20.8148C20.8148 16.0403 20.7898 15.9853 20.7448 15.9503C20.6898 15.9053 20.6198 15.8853 20.5498 15.8903C20.5048 15.8803 20.4598 15.8803 20.4148 15.8903C20.3798 15.9053 20.3498 15.9303 20.3298 15.9603C20.3098 15.9903 20.2998 16.0253 20.2998 16.0603C20.2998 16.1153 20.3198 16.1653 20.3648 16.1953C20.4098 16.2303 20.4648 16.2553 20.5198 16.2653L20.6298 16.2953L20.6798 16.3253C20.6798 16.3253 20.6848 16.3503 20.6798 16.3653C20.6798 16.3903 20.6648 16.4153 20.6448 16.4303C20.6148 16.4553 20.5798 16.4653 20.5448 16.4603C20.5098 16.4603 20.4748 16.4503 20.4448 16.4303C20.4198 16.4003 20.3998 16.3703 20.3948 16.3303H20.2598C20.2598 16.4003 20.2948 16.4603 20.3448 16.5053C20.3998 16.5503 20.4748 16.5703 20.5448 16.5653C20.5948 16.5753 20.6398 16.5753 20.6898 16.5653C20.7348 16.5603 20.7748 16.5353 20.7998 16.5003C20.8198 16.4653 20.8348 16.4303 20.8348 16.3903C20.8348 16.3503 20.8248 16.3153 20.8048 16.2803C20.7848 16.2503 20.7598 16.2203 20.7298 16.2003V16.2003Z" fill="#58D3EC"/>
<path d="M21.5941 16.4394C21.5741 16.4694 21.5391 16.4944 21.4991 16.4994C21.4541 16.4994 21.4091 16.4794 21.3791 16.4444C21.3441 16.3894 21.3291 16.3244 21.3341 16.2594C21.3291 16.1944 21.3441 16.1344 21.3791 16.0794C21.4041 16.0344 21.4491 16.0094 21.4991 15.9994C21.5341 15.9994 21.5641 16.0094 21.5941 16.0294C21.6191 16.0494 21.6391 16.0794 21.6441 16.1144L21.7791 16.0844C21.7691 16.0344 21.7441 15.9894 21.7091 15.9544C21.6541 15.9044 21.5791 15.8744 21.5041 15.8794C21.4191 15.8794 21.3341 15.9144 21.2741 15.9744C21.2091 16.0494 21.1791 16.1444 21.1841 16.2444C21.1841 16.3394 21.2141 16.4294 21.2741 16.4994C21.3341 16.5594 21.4141 16.5894 21.4991 16.5894C21.5641 16.5894 21.6291 16.5744 21.6791 16.5344C21.7341 16.4944 21.7691 16.4344 21.7841 16.3694L21.6491 16.3294C21.6491 16.3694 21.6241 16.4094 21.5941 16.4394V16.4394Z" fill="#58D3EC"/>
<path d="M22.2094 15.8794C22.1594 15.8794 22.1094 15.8894 22.0644 15.9094C22.0294 15.9244 21.9994 15.9444 21.9744 15.9694C21.9494 15.9994 21.9244 16.0294 21.9094 16.0644C21.8894 16.1194 21.8794 16.1794 21.8794 16.2394C21.8744 16.3344 21.9044 16.4294 21.9694 16.4994C22.0344 16.5594 22.1244 16.5944 22.2144 16.5894C22.3044 16.5894 22.3894 16.5594 22.4544 16.4994C22.5194 16.4294 22.5494 16.3344 22.5444 16.2394C22.5494 16.1444 22.5194 16.0494 22.4544 15.9744C22.3894 15.9094 22.2994 15.8744 22.2094 15.8794V15.8794ZM22.3494 16.4144C22.3144 16.4544 22.2644 16.4744 22.2144 16.4744C22.1594 16.4744 22.1094 16.4544 22.0744 16.4144C22.0344 16.3644 22.0144 16.2994 22.0194 16.2344C22.0194 16.1694 22.0344 16.1094 22.0744 16.0594C22.1094 16.0194 22.1594 15.9994 22.2144 15.9994C22.2644 15.9994 22.3144 16.0194 22.3494 16.0594C22.3894 16.1094 22.4044 16.1694 22.3994 16.2344C22.4044 16.2994 22.3894 16.3644 22.3494 16.4144Z" fill="#58D3EC"/>
<path d="M22.7804 16.4492H22.6504V16.5792H22.7804V16.4492Z" fill="#58D3EC"/>
</g>
</g>
<defs>
<clipPath id="clip0_987_160482">
<rect width="24" height="24" fill="white"/>
</clipPath>
<clipPath id="clip1_987_160482">
<rect width="24" height="24" fill="white"/>
</clipPath>
</defs>
</svg>
