<svg width="48" height="48" viewBox="0 0 24 24" fill="none" xmlns="http://www.w3.org/2000/svg">
<g clip-path="url(#clip0_987_160615)">
<path d="M13.3551 9.72414H20.8301C21.1144 9.72424 21.3908 9.63078 21.6167 9.45818C21.8426 9.28559 22.0055 9.04346 22.0801 8.76914L22.1401 8.54414H13.0701C12.7609 8.54454 12.4603 8.64583 12.214 8.83263C11.9676 9.01944 11.7889 9.28154 11.7051 9.57914L10.6001 13.6041H4.4051C4.27312 13.6067 4.14333 13.5702 4.03202 13.4993C3.9207 13.4283 3.83283 13.3261 3.77941 13.2054C3.726 13.0847 3.70944 12.9509 3.7318 12.8208C3.75416 12.6907 3.81445 12.5701 3.9051 12.4741L7.3751 8.84414C7.64026 8.56432 7.9597 8.34151 8.3139 8.18935C8.66809 8.03718 9.0496 7.95885 9.4351 7.95914H22.3001L22.4651 7.36914H8.8901C8.22138 7.36945 7.55986 7.5072 6.9466 7.77384C6.33334 8.04047 5.78142 8.43031 5.3251 8.91914L1.5001 12.9991C1.31308 13.1963 1.18772 13.4438 1.13941 13.7112C1.0911 13.9786 1.12194 14.2543 1.22815 14.5044C1.33437 14.7546 1.51132 14.9682 1.73728 15.1192C1.96324 15.2701 2.22837 15.3518 2.5001 15.3541H10.6601C11.0015 15.3558 11.3338 15.2444 11.6052 15.0373C11.8766 14.8301 12.0717 14.5389 12.1601 14.2091L13.3551 9.72414Z" fill="#08AA56"/>
<path d="M18.5898 15.295H19.1798C19.5243 15.2944 19.8588 15.1791 20.1304 14.9672C20.4021 14.7553 20.5954 14.459 20.6798 14.125L21.7148 10.125H20.9998C20.713 10.125 20.4341 10.2195 20.2063 10.3939C19.9785 10.5684 19.8146 10.813 19.7398 11.09L18.5898 15.295Z" fill="#08AA56"/>
<path d="M16.8809 13.5902H17.4709C17.8154 13.5896 18.1498 13.4743 18.4215 13.2624C18.6931 13.0505 18.8864 12.7542 18.9709 12.4202L19.5659 10.1152H18.8309C18.5444 10.1146 18.2658 10.209 18.0387 10.3836C17.8116 10.5582 17.6489 10.8032 17.5759 11.0802L16.8809 13.5902Z" fill="#08AA56"/>
<path d="M14.8047 13.5902H15.3947C15.7392 13.5896 16.0737 13.4743 16.3453 13.2624C16.6169 13.0505 16.8102 12.7542 16.8947 12.4202L17.4997 10.1152H16.7547C16.4684 10.1155 16.1903 10.2102 15.9634 10.3847C15.7364 10.5592 15.5735 10.8037 15.4997 11.0802L14.8047 13.5902Z" fill="#08AA56"/>
<path d="M12.7109 13.5902H13.3009C13.645 13.5879 13.9786 13.4719 14.2499 13.2603C14.5212 13.0487 14.7149 12.7534 14.8009 12.4202L15.3909 10.1152H14.6659C14.379 10.1152 14.1001 10.2097 13.8724 10.3842C13.6446 10.5586 13.4807 10.8033 13.4059 11.0802L12.7109 13.5902Z" fill="#08AA56"/>
<path d="M13.0404 14.3055C13.0142 14.3069 12.9894 14.3175 12.9704 14.3355C12.9589 14.3428 12.9489 14.3522 12.9412 14.3634C12.9334 14.3746 12.9281 14.3872 12.9254 14.4005C12.9205 14.4107 12.918 14.4218 12.918 14.433C12.918 14.4443 12.9205 14.4554 12.9254 14.4655C12.9325 14.4786 12.9437 14.489 12.9571 14.4953C12.9706 14.5016 12.9858 14.5034 13.0004 14.5005C13.0272 14.4991 13.0531 14.4904 13.0754 14.4755C13.0963 14.4587 13.1119 14.4361 13.1204 14.4105C13.1256 14.4005 13.1284 14.3894 13.1284 14.378C13.1284 14.3667 13.1256 14.3556 13.1204 14.3455C13.1147 14.3299 13.1032 14.317 13.0883 14.3096C13.0735 14.3022 13.0563 14.3007 13.0404 14.3055V14.3055Z" fill="#08AA56"/>
<path d="M12.9591 14.2841C12.9853 14.2827 13.0101 14.2721 13.0291 14.2541C13.0405 14.2479 13.0504 14.2394 13.0582 14.229C13.0659 14.2186 13.0714 14.2067 13.0741 14.1941C13.0794 14.1841 13.0821 14.1729 13.0821 14.1616C13.0821 14.1503 13.0794 14.1391 13.0741 14.1291C13.0714 14.122 13.0673 14.1156 13.0619 14.1102C13.0566 14.1047 13.0502 14.1005 13.0432 14.0977C13.0361 14.0949 13.0286 14.0935 13.021 14.0938C13.0134 14.094 13.006 14.0958 12.9991 14.0991C12.9714 14.1001 12.9449 14.1107 12.9241 14.1291C12.9012 14.1441 12.8851 14.1674 12.8791 14.1941C12.8739 14.2032 12.8711 14.2136 12.8711 14.2241C12.8711 14.2346 12.8739 14.245 12.8791 14.2541C12.8873 14.2672 12.8996 14.2773 12.914 14.2827C12.9285 14.2881 12.9444 14.2886 12.9591 14.2841Z" fill="#08AA56"/>
<path d="M12.8057 14.4998C12.8309 14.4981 12.8552 14.4895 12.8757 14.4748C12.8982 14.4594 12.9143 14.4363 12.9207 14.4098C12.9269 14.4001 12.9303 14.3888 12.9303 14.3773C12.9303 14.3657 12.9269 14.3545 12.9207 14.3448C12.9157 14.3348 12.9077 14.3265 12.8979 14.3212C12.888 14.3158 12.8768 14.3136 12.8657 14.3148C12.8386 14.3172 12.8129 14.3275 12.7916 14.3444C12.7702 14.3613 12.7543 14.384 12.7457 14.4098C12.7408 14.4199 12.7383 14.431 12.7383 14.4423C12.7383 14.4535 12.7408 14.4646 12.7457 14.4748C12.7616 14.4907 12.7832 14.4997 12.8057 14.4998V14.4998Z" fill="#08AA56"/>
<path d="M12.6592 14.8755H12.4342L12.5142 14.6055H12.2892L12.1192 15.1505H11.9992L11.9492 15.3105H12.1792C12.2126 15.3108 12.2448 15.2983 12.2692 15.2755C12.2984 15.2571 12.3197 15.2286 12.3292 15.1955L12.3792 15.0355H12.7192C12.7518 15.0362 12.7836 15.0256 12.8092 15.0055C12.8364 14.985 12.8572 14.9573 12.8692 14.9255L12.9692 14.6055H12.7392L12.6592 14.8755Z" fill="#08AA56"/>
<path d="M13.8652 14.3601C13.8397 14.3831 13.8208 14.4124 13.8102 14.4451L13.7102 14.7601H14.1652L14.1302 14.8751H13.5602L13.6102 14.7151C13.6164 14.7026 13.6196 14.689 13.6196 14.6751C13.6196 14.6612 13.6164 14.6475 13.6102 14.6351C13.6017 14.625 13.5909 14.617 13.5788 14.6118C13.5666 14.6066 13.5534 14.6043 13.5402 14.6051H13.1952C13.1627 14.6043 13.1308 14.6149 13.1052 14.6351C13.0769 14.6544 13.0558 14.6825 13.0452 14.7151L12.9502 15.0351H13.2902L13.2552 15.1501H12.9102L12.8652 15.3101H13.3202C13.3534 15.3067 13.3851 15.2942 13.4115 15.2739C13.438 15.2535 13.4584 15.2263 13.4702 15.1951L13.5202 15.0351H14.2002C14.2342 15.0351 14.2674 15.0246 14.2952 15.0051C14.3196 14.9831 14.3384 14.9557 14.3502 14.9251L14.4152 14.7151C14.4214 14.7026 14.4246 14.689 14.4246 14.6751C14.4246 14.6612 14.4214 14.6475 14.4152 14.6351C14.407 14.6247 14.3963 14.6165 14.384 14.6112C14.3718 14.606 14.3585 14.6039 14.3452 14.6051H14.0002L14.0352 14.4901H14.5352L14.5852 14.3301H13.9602C13.9262 14.3301 13.8931 14.3405 13.8652 14.3601V14.3601ZM13.3352 14.8601H13.2202L13.2552 14.7451H13.3702L13.3352 14.8601Z" fill="#08AA56"/>
<path d="M15.1391 15.1055C15.112 15.1047 15.0854 15.1136 15.0641 15.1305C15.0432 15.1474 15.0276 15.17 15.0191 15.1955C15.0143 15.2057 15.0117 15.2168 15.0117 15.228C15.0117 15.2393 15.0143 15.2504 15.0191 15.2605C15.0266 15.2689 15.0359 15.2755 15.0463 15.2799C15.0567 15.2842 15.0679 15.2861 15.0791 15.2855C15.1043 15.2839 15.1286 15.2752 15.1491 15.2605C15.1717 15.2452 15.1877 15.222 15.1941 15.1955C15.2004 15.1858 15.2037 15.1745 15.2037 15.163C15.2037 15.1515 15.2004 15.1402 15.1941 15.1305C15.1941 15.1305 15.1641 15.1055 15.1391 15.1055Z" fill="#08AA56"/>
<path d="M15.3199 15.1041C15.3071 15.1033 15.2944 15.1051 15.2823 15.1094C15.2703 15.1137 15.2593 15.1204 15.2499 15.1291C15.2273 15.1444 15.2113 15.1676 15.2049 15.1941C15.1986 15.2037 15.1953 15.215 15.1953 15.2266C15.1953 15.2381 15.1986 15.2494 15.2049 15.2591C15.2113 15.2674 15.2197 15.274 15.2293 15.2783C15.2389 15.2827 15.2494 15.2847 15.2599 15.2841C15.2867 15.2826 15.3126 15.2739 15.3349 15.2591C15.3543 15.2408 15.3696 15.2186 15.3799 15.1941C15.3875 15.1731 15.3875 15.15 15.3799 15.1291C15.373 15.12 15.3638 15.1129 15.3532 15.1085C15.3427 15.1041 15.3312 15.1026 15.3199 15.1041V15.1041Z" fill="#08AA56"/>
<path d="M16.2858 14.8755H16.1708L16.2558 14.6055H16.0258L15.9408 14.8755H15.8308L15.9108 14.6055H15.6858L15.6008 14.8755H15.5008L15.5858 14.6055H15.3558L15.2708 14.8755H15.0408L15.1258 14.6055H14.9008L14.7308 15.1505H14.6008L14.5508 15.3105H14.7808C14.8142 15.3108 14.8464 15.2983 14.8708 15.2755C14.8999 15.2571 14.9213 15.2286 14.9308 15.1955L14.9808 15.0355H15.3208C15.3548 15.0355 15.388 15.025 15.4158 15.0055V14.9805V15.0355H16.3508C16.3686 15.0359 16.3862 15.0326 16.4026 15.0257C16.419 15.0188 16.4337 15.0085 16.4458 14.9955C16.4724 14.9778 16.4919 14.9512 16.5008 14.9205L16.5958 14.6055H16.3708L16.2858 14.8755Z" fill="#08AA56"/>
<path d="M17.6801 15.1058C17.653 15.105 17.6264 15.1138 17.6051 15.1308C17.5826 15.1461 17.5666 15.1693 17.5601 15.1958C17.5553 15.2059 17.5527 15.217 17.5527 15.2283C17.5527 15.2395 17.5553 15.2506 17.5601 15.2608C17.5669 15.2688 17.5753 15.2752 17.5848 15.2795C17.5943 15.2838 17.6047 15.286 17.6151 15.2858C17.6419 15.2843 17.6678 15.2757 17.6901 15.2608C17.7127 15.2454 17.7287 15.2223 17.7351 15.1958C17.74 15.1856 17.7425 15.1745 17.7425 15.1633C17.7425 15.152 17.74 15.1409 17.7351 15.1308C17.729 15.1221 17.7207 15.1152 17.711 15.1108C17.7014 15.1065 17.6907 15.1047 17.6801 15.1058V15.1058Z" fill="#08AA56"/>
<path d="M17.795 14.8749H17.565L17.785 14.1699H17.555L17.255 15.1699H17L17.14 14.7149H16.915L16.76 15.2149C16.7534 15.2272 16.75 15.241 16.75 15.2549C16.75 15.2689 16.7534 15.2826 16.76 15.2949C16.7673 15.3066 16.7777 15.3161 16.7901 15.3223C16.8024 15.3285 16.8162 15.3311 16.83 15.3299H17.33C17.3632 15.3265 17.3948 15.314 17.4213 15.2937C17.4478 15.2734 17.4681 15.2461 17.48 15.2149L17.53 15.0549H17.87C17.9024 15.0467 17.9307 15.0272 17.95 14.9999C17.9772 14.9795 17.998 14.9517 18.01 14.9199L18.11 14.5999H17.88L17.795 14.8749Z" fill="#08AA56"/>
<path d="M17.8598 15.1056C17.8471 15.1049 17.8343 15.1067 17.8223 15.111C17.8103 15.1153 17.7992 15.122 17.7898 15.1306C17.7676 15.1474 17.7504 15.1699 17.7398 15.1956C17.735 15.2058 17.7324 15.2169 17.7324 15.2281C17.7324 15.2394 17.735 15.2505 17.7398 15.2606C17.7463 15.2689 17.7547 15.2756 17.7642 15.2799C17.7738 15.2843 17.7843 15.2862 17.7948 15.2856C17.8216 15.2842 17.8475 15.2755 17.8698 15.2606C17.8892 15.2424 17.9046 15.2202 17.9148 15.1956C17.9197 15.1855 17.9222 15.1744 17.9222 15.1631C17.9222 15.1519 17.9197 15.1408 17.9148 15.1306C17.9148 15.1306 17.8848 15.1056 17.8598 15.1056Z" fill="#08AA56"/>
<path d="M18.3241 14.6055L18.1541 15.1505H18.0441L17.9941 15.3105H18.2191C18.2541 15.3111 18.2879 15.2986 18.3141 15.2755C18.3406 15.2554 18.3598 15.2273 18.3691 15.1955L18.5541 14.6055H18.3241Z" fill="#08AA56"/>
</g>
<defs>
<clipPath id="clip0_987_160615">
<rect width="24" height="24" fill="white"/>
</clipPath>
</defs>
</svg>
