<svg width="48" height="48" viewBox="0 0 24 24" fill="none" xmlns="http://www.w3.org/2000/svg">
<g clip-path="url(#clip0_987_160636)">
<g clip-path="url(#clip1_987_160636)">
<path d="M8.35547 14.8496C9.04582 14.8496 9.60547 14.29 9.60547 13.5996C9.60547 12.9093 9.04582 12.3496 8.35547 12.3496C7.66511 12.3496 7.10547 12.9093 7.10547 13.5996C7.10547 14.29 7.66511 14.8496 8.35547 14.8496Z" fill="#EC5400"/>
<path d="M10.1094 13.375C10.1094 13.45 10.1094 13.525 10.1094 13.6V13.735H15.1894L15.3894 13.375H10.1094Z" fill="#01288E"/>
<path d="M10.7791 7.9994C11.3591 7.5144 12.1041 7.2694 12.8591 7.3094H20.6841L20.7991 6.9744H12.9341C12.8341 6.9744 12.7491 6.8944 12.7441 6.7944C12.7441 6.7944 12.7441 6.7944 12.7441 6.7894C12.7441 6.6844 12.8291 6.5994 12.9341 6.5994H20.9341L21.0292 6.3344H13.1641C13.0591 6.3194 12.9891 6.2194 13.0091 6.1144C13.0241 6.0344 13.0841 5.9694 13.1641 5.9594H21.1642L21.2792 5.6344H11.4691C11.4691 5.6344 8.74915 5.4694 5.90915 8.4994L2.96915 11.7894C2.05415 12.8394 2.41415 13.7344 3.16915 13.7344H6.59415V13.5994C6.59415 13.2444 6.69915 12.8944 6.89915 12.5994H4.49915C3.86915 12.5994 3.61915 11.7694 4.17415 11.0994L5.38915 9.6694C6.29915 8.5844 7.52415 7.8094 8.88915 7.4444C9.38915 7.3094 9.90415 7.2394 10.4241 7.2394C10.1991 7.7744 9.77915 8.9094 9.64915 9.3994C9.48915 9.9144 9.43415 10.4594 9.49915 10.9994C9.55415 11.4294 9.86415 11.7894 10.2841 11.9044C10.7491 11.9994 11.2291 11.9144 11.6391 11.6744C11.8041 11.5744 11.9591 11.4594 12.0991 11.3294C12.2241 11.1844 12.3391 11.0294 12.4391 10.8644C12.4591 10.8394 12.4991 10.8344 12.5241 10.8594C12.5391 10.8744 12.5441 10.8894 12.5441 10.9094C12.5091 11.0794 12.4941 11.2544 12.4991 11.4294C12.5041 11.6294 12.6091 11.8194 12.7791 11.9294C13.0541 12.0344 13.3591 11.9894 13.5941 11.8144C13.7691 11.7044 13.9341 11.5844 14.0941 11.4494C14.3391 11.2644 14.6391 11.0294 14.9591 11.2044C15.0741 11.2644 15.2341 11.4144 15.2191 11.5594C15.1591 11.9394 15.0241 12.3044 14.8241 12.6344H9.82415C9.91415 12.7644 9.97915 12.8994 10.0291 13.0494H15.5741L15.7391 12.7494C15.9691 12.2094 16.2791 11.6994 16.6591 11.2494C16.9741 10.9144 17.3441 10.6344 17.7491 10.4194C18.1141 10.2044 18.4991 10.0244 18.8991 9.8894C18.9891 9.8494 19.0641 9.7794 19.1091 9.6944C19.2491 9.4144 19.3591 9.1194 19.4391 8.8194C19.4791 8.6844 19.4041 8.5344 19.2641 8.4944C19.2391 8.4894 19.2191 8.4844 19.1941 8.4844L17.3991 8.4044C17.2641 8.3994 17.1391 8.4594 17.0641 8.5744C16.8741 8.8394 16.7241 9.1244 16.6141 9.4294C16.5841 9.5394 16.6541 9.6544 16.7641 9.6844C16.7891 9.6894 16.8191 9.6944 16.8491 9.6844L17.1192 9.6594C17.1442 9.6594 17.1691 9.6694 17.1891 9.6894L17.2241 9.7294C17.2541 9.7644 17.2491 9.8194 17.2141 9.8494C17.2141 9.8494 17.2042 9.8544 17.1992 9.8594C16.9942 9.9694 16.7991 10.0944 16.6141 10.2344C16.4741 10.3344 16.3441 10.4394 16.2191 10.5544L16.0991 10.6594C16.0441 10.7194 15.9541 10.7194 15.8941 10.6644C15.8841 10.6544 15.8741 10.6444 15.8691 10.6344C15.8441 10.5994 15.8291 10.5544 15.8141 10.5144C15.7391 10.2944 15.6441 10.0144 15.3991 9.9394C15.1541 9.8644 14.8991 10.0244 14.6891 10.2094C14.4491 10.4494 14.1641 10.6444 13.8491 10.7794C13.6191 10.8794 13.2441 11.0144 13.0141 10.8394C12.9041 10.7444 12.8541 10.5994 12.8741 10.4544C12.8841 10.1794 12.9841 9.9194 13.1591 9.7094C13.1841 9.6744 13.1791 9.6294 13.1441 9.6044C13.1341 9.5944 13.1191 9.5894 13.1041 9.5894C13.0891 9.5844 13.0741 9.5844 13.0591 9.5894C12.7041 9.8344 12.2941 10.1894 11.9391 10.4244C11.5391 10.7244 11.0191 10.8094 10.5441 10.6444C10.2941 10.4894 10.1141 10.2494 10.0441 9.9644C9.92915 9.5944 9.94415 9.1944 10.0791 8.8344C10.2441 8.5044 10.4841 8.2144 10.7791 7.9944V7.9994Z" fill="#01288E"/>
<path d="M3.81076 16.0841C3.81576 16.1841 3.77576 16.2741 3.69576 16.3341C3.54076 16.4041 3.36576 16.4341 3.19576 16.4191C3.09076 16.4191 2.98576 16.4041 2.88576 16.3691C2.78576 16.3291 2.72576 16.2291 2.73076 16.1241C2.73076 16.0741 2.74576 16.0191 2.77076 15.9741C2.77076 15.9291 2.82076 15.9041 2.83576 15.9041C2.85076 15.9041 2.86576 15.9041 2.86576 15.9391C2.86576 15.9541 2.86576 15.9741 2.86576 15.9891C2.86576 16.0091 2.86576 16.0241 2.86576 16.0441C2.86576 16.1241 2.92576 16.1941 3.00576 16.2041C3.09076 16.2141 3.18076 16.2141 3.26576 16.2041C3.57076 16.2041 3.72576 16.1741 3.72576 16.1241C3.72576 16.0741 3.72576 16.0941 3.68576 16.0591C3.66076 16.0341 3.63076 16.0141 3.60076 15.9991L3.70576 15.8691C3.76576 15.9241 3.80076 16.0041 3.81076 16.0841V16.0841ZM3.36076 16.6491L3.25576 16.7541L3.14576 16.6491L3.25576 16.5391L3.36076 16.6491Z" fill="#01288E"/>
<path d="M4.29022 16.4049H4.20022C4.15022 16.4049 4.10022 16.3849 4.06522 16.3499C4.01522 16.2899 3.99022 16.2149 4.00022 16.1399V15.5549C4.00022 15.5099 4.00022 15.5299 4.00022 15.5249L4.13022 15.4199H4.15522C4.15522 15.4199 4.15522 15.4349 4.15522 15.4449V16.1099C4.15522 16.1849 4.19522 16.2199 4.28022 16.2199H4.32522L4.29022 16.4049V16.4049Z" fill="#01288E"/>
<path d="M4.855 16.4047H4.78C4.74 16.4047 4.7 16.3947 4.665 16.3697C4.625 16.3497 4.595 16.3197 4.575 16.2847C4.54 16.3597 4.46 16.4097 4.375 16.4047H4.25V16.1997H4.34C4.42 16.1997 4.475 16.1997 4.5 16.1497C4.52 16.1197 4.535 16.0897 4.54 16.0547C4.54 16.0197 4.54 15.9997 4.575 15.9997C4.61 15.9997 4.61 15.9997 4.615 16.0547C4.615 16.0897 4.625 16.1197 4.645 16.1497C4.675 16.1897 4.725 16.2047 4.775 16.1997H4.855V16.4047ZM4.5 15.7797L4.4 15.8747L4.305 15.7797L4.4 15.6797L4.5 15.7797ZM4.715 15.7797L4.615 15.8747L4.52 15.7797L4.615 15.6797L4.715 15.7797Z" fill="#01288E"/>
<path d="M5.59445 16.4059H5.40945C5.36945 16.4059 5.35445 16.4359 5.35445 16.4659C5.35445 16.4959 5.39945 16.5509 5.48445 16.5909L5.41945 16.7759C5.30445 16.7459 5.19445 16.6909 5.10945 16.6059C5.06445 16.5759 5.02945 16.5409 4.99945 16.5009C4.99445 16.4709 4.98445 16.4409 4.96945 16.4109H4.81445V16.2009H4.96445C4.97445 16.0409 5.03445 15.8859 5.13445 15.7559C5.17445 15.8109 5.21445 15.8659 5.24445 15.9259C5.27445 15.9859 5.29445 16.0559 5.29945 16.1259C5.31945 16.2459 5.23945 16.3609 5.11945 16.3809C5.11445 16.3809 5.10945 16.3809 5.09945 16.3809C5.13445 16.4459 5.19445 16.5009 5.26445 16.5309C5.25945 16.4509 5.27945 16.3709 5.32945 16.3109C5.36945 16.2409 5.44445 16.2009 5.52445 16.2009H5.59445V16.4059V16.4059ZM5.20445 16.1759C5.20445 16.1409 5.18945 16.1009 5.16945 16.0709L5.11945 15.9909C5.07945 16.0509 5.05445 16.1209 5.05445 16.1959C5.10445 16.1959 5.15445 16.1859 5.20445 16.1759Z" fill="#01288E"/>
<path d="M6.13469 16.235C6.13469 16.285 6.11469 16.335 6.08469 16.37C6.04969 16.405 6.00469 16.42 5.95469 16.42C5.87469 16.42 5.80469 16.375 5.76969 16.305C5.74469 16.365 5.68969 16.405 5.62469 16.405H5.55469V16.2H5.62469C5.65469 16.2 5.67969 16.2 5.70969 16.2V16.155C5.70469 16.1 5.71969 16.045 5.75469 16.005C5.81969 15.92 5.93969 15.905 6.01969 15.97C6.03969 15.985 6.05969 16.01 6.07469 16.035C6.10969 16.095 6.12969 16.165 6.13469 16.235V16.235ZM6.03469 16.19C6.03469 16.155 6.02469 16.115 6.00469 16.085C6.00469 16.04 5.94969 16.015 5.92469 16.015C5.89969 16.015 5.86969 16.015 5.86969 16.09C5.86469 16.125 5.86469 16.165 5.86969 16.2C5.89469 16.25 5.92469 16.275 5.95469 16.275C5.98469 16.275 6.03469 16.245 6.03469 16.19V16.19Z" fill="#01288E"/>
<path d="M7.56953 16.0002V16.0302C7.52453 16.0202 7.48453 16.0202 7.43953 16.0302C7.37453 16.0302 7.30953 16.0552 7.26453 16.1002C7.23953 16.1202 7.21953 16.1502 7.20953 16.1852C7.20953 16.2102 7.20953 16.2302 7.26953 16.2402C7.30953 16.2552 7.35453 16.2602 7.39453 16.2652C7.43453 16.2652 7.46953 16.2802 7.50453 16.3002C7.53953 16.3302 7.55453 16.3802 7.54953 16.4252C7.55953 16.5602 7.47953 16.6852 7.35953 16.7402C7.25453 16.7852 7.13953 16.8052 7.02453 16.8002C6.77453 16.8002 6.64453 16.6952 6.64453 16.4902C6.64953 16.4302 6.66453 16.3702 6.68453 16.3102C6.71453 16.2152 6.74453 16.1702 6.77453 16.1702C6.80453 16.1702 6.80453 16.1702 6.80453 16.2152C6.80453 16.2452 6.78953 16.2702 6.77953 16.2952C6.77453 16.3302 6.77453 16.3702 6.77953 16.4052C6.77953 16.5402 6.87953 16.6052 7.07953 16.6052C7.15953 16.6052 7.24453 16.5952 7.32453 16.5802C7.42953 16.5802 7.47953 16.5202 7.47953 16.4802C7.47953 16.4402 7.44953 16.4402 7.38953 16.4352C7.33453 16.4302 7.27453 16.4202 7.21953 16.4052C7.15953 16.3902 7.12453 16.3352 7.12453 16.2752C7.12953 16.1852 7.16453 16.0952 7.21953 16.0252C7.28953 15.9152 7.36453 15.8652 7.43953 15.8652C7.48953 15.8652 7.53953 15.8902 7.56953 15.9302C7.56953 15.9552 7.56953 15.9752 7.56953 16.0002V16.0002Z" fill="#01288E"/>
<path d="M8.3293 16.4047H8.2943C8.2543 16.4047 8.2093 16.3997 8.1743 16.3797C8.1843 16.5247 8.1293 16.6647 8.0293 16.7647C8.0143 16.7847 7.9943 16.7947 7.9743 16.8047C7.8643 16.8097 7.7593 16.7997 7.6543 16.7647C7.7543 16.7297 7.8493 16.6747 7.9343 16.6097C8.0343 16.5347 8.0843 16.4697 8.0843 16.4147C8.0743 16.3747 8.0593 16.3397 8.0293 16.3097L7.9393 16.2197L8.0243 16.0547C8.1043 16.1597 8.1743 16.2147 8.2443 16.2147H8.3143L8.3293 16.4047V16.4047Z" fill="#01288E"/>
<path d="M8.80906 16.0756C8.82406 16.1756 8.78406 16.2806 8.70406 16.3456C8.61906 16.3906 8.52406 16.4106 8.42906 16.4056H8.28906V16.2006H8.44906C8.53406 16.2056 8.61906 16.2006 8.70406 16.1706C8.72406 16.1606 8.73406 16.1406 8.73406 16.1206H8.55906C8.45406 16.1206 8.39906 16.0806 8.39906 16.0056C8.39906 15.9406 8.41906 15.8756 8.44906 15.8156C8.47406 15.7506 8.52906 15.7056 8.59906 15.7006C8.67906 15.7006 8.73906 15.7556 8.77406 15.8606C8.79906 15.9306 8.80906 16.0006 8.80906 16.0756ZM8.69906 15.5006L8.58906 15.6056L8.49906 15.5006L8.60406 15.3906L8.69906 15.5006V15.5006ZM8.69906 15.9606C8.68406 15.9256 8.66406 15.8956 8.63406 15.8756C8.61406 15.8706 8.58906 15.8706 8.56906 15.8756C8.55406 15.8756 8.53906 15.8756 8.52406 15.8756C8.52406 15.8906 8.52406 15.9056 8.52406 15.9206C8.52406 15.9556 8.55906 15.9756 8.63406 15.9756L8.69906 15.9606V15.9606Z" fill="#01288E"/>
<path d="M9.28924 16.4049H9.19924C9.14924 16.4049 9.09924 16.3849 9.06424 16.3499C9.00924 16.2949 8.98424 16.2199 8.98924 16.1399V15.8449C8.98924 15.7149 8.98924 15.5999 8.96424 15.5549C8.93924 15.5099 8.96424 15.5299 8.96424 15.5249L9.09424 15.4199H9.12424C9.12424 15.4199 9.12424 15.4349 9.12424 15.4449V16.1099C9.12424 16.1849 9.16424 16.2199 9.24924 16.2199H9.29424V16.4049H9.28924Z" fill="#01288E"/>
<path d="M10.445 16.4056H10.355C10.285 16.4056 10.22 16.3606 10.19 16.2956C10.16 16.3606 10.095 16.4006 10.025 16.4056C9.96 16.4006 9.9 16.3556 9.87 16.2956C9.845 16.3606 9.785 16.4006 9.715 16.4056C9.645 16.4056 9.58 16.3606 9.55 16.2956C9.51 16.3656 9.44 16.4056 9.36 16.4056H9.25V16.2006H9.38C9.42 16.2006 9.455 16.1856 9.48 16.1556C9.49 16.1256 9.5 16.0956 9.51 16.0656C9.51 16.0356 9.51 16.0156 9.545 16.0156C9.58 16.0156 9.58 16.0156 9.59 16.0656C9.595 16.0956 9.605 16.1256 9.615 16.1556C9.635 16.1906 9.67 16.2056 9.71 16.2006C9.745 16.2006 9.785 16.1856 9.805 16.1556L9.835 16.0656C9.835 16.0356 9.835 16.0156 9.875 16.0156C9.915 16.0156 9.905 16.0156 9.91 16.0656C9.915 16.0956 9.925 16.1256 9.935 16.1556C9.96 16.1856 9.995 16.2056 10.035 16.2006C10.07 16.2006 10.105 16.1856 10.125 16.1556C10.13 16.1256 10.14 16.0956 10.15 16.0656C10.15 16.0356 10.175 16.0156 10.195 16.0156C10.215 16.0156 10.225 16.0156 10.23 16.0656C10.235 16.0956 10.245 16.1256 10.26 16.1556C10.285 16.1906 10.325 16.2056 10.365 16.2006H10.445V16.4056V16.4056Z" fill="#01288E"/>
<path d="M10.9999 16.235C10.9999 16.285 10.9799 16.335 10.9499 16.37C10.9149 16.405 10.8649 16.425 10.8149 16.42C10.7399 16.42 10.6699 16.37 10.6349 16.305C10.6099 16.365 10.5499 16.405 10.4849 16.405H10.4199V16.2H10.5749C10.5749 16.2 10.5749 16.17 10.5749 16.155C10.5699 16.1 10.5849 16.045 10.6199 16.005C10.6849 15.92 10.8049 15.905 10.8849 15.97C10.9049 15.985 10.9249 16.01 10.9399 16.035C10.9749 16.095 10.9949 16.165 10.9999 16.235V16.235ZM10.8999 16.19C10.8999 16.155 10.8899 16.115 10.8699 16.085C10.8449 16.04 10.8149 16.015 10.7849 16.015C10.7549 16.015 10.7349 16.015 10.7349 16.09C10.7299 16.125 10.7299 16.165 10.7349 16.2C10.7599 16.25 10.7849 16.275 10.8199 16.275C10.8549 16.275 10.8849 16.245 10.8849 16.19H10.8999V16.19Z" fill="#01288E"/>
<path d="M12.4152 16.0002C12.4152 16.0002 12.4152 16.0202 12.4152 16.0302C12.3702 16.0202 12.3252 16.0202 12.2802 16.0302C12.2152 16.0302 12.1552 16.0552 12.1102 16.1002C12.0852 16.1202 12.0652 16.1502 12.0552 16.1852C12.0552 16.2102 12.0552 16.2302 12.1152 16.2402C12.1552 16.2552 12.2002 16.2602 12.2402 16.2652C12.2802 16.2652 12.3152 16.2802 12.3502 16.3002C12.3852 16.3302 12.4002 16.3802 12.3952 16.4252C12.4052 16.5602 12.3252 16.6852 12.2052 16.7402C12.1002 16.7852 11.9852 16.8052 11.8702 16.8002C11.6202 16.8002 11.4902 16.6952 11.4902 16.4902C11.4952 16.4302 11.5102 16.3702 11.5302 16.3102C11.5602 16.2152 11.5902 16.1702 11.6202 16.1702C11.6502 16.1702 11.6502 16.1702 11.6502 16.2152C11.6502 16.2452 11.6352 16.2702 11.6252 16.2952C11.6202 16.3302 11.6202 16.3702 11.6252 16.4052C11.6252 16.5402 11.7252 16.6052 11.9252 16.6052C12.0052 16.6052 12.0902 16.5952 12.1702 16.5802C12.2752 16.5802 12.3252 16.5202 12.3252 16.4802C12.3252 16.4402 12.2952 16.4402 12.2352 16.4352C12.1802 16.4302 12.1202 16.4202 12.0652 16.4052C12.0052 16.3902 11.9702 16.3352 11.9702 16.2752C11.9752 16.1852 12.0102 16.0952 12.0652 16.0252C12.1352 15.9152 12.2052 15.8652 12.2852 15.8652C12.3352 15.8652 12.3852 15.8902 12.4152 15.9302C12.4152 15.9552 12.4152 15.9752 12.4152 16.0002V16.0002Z" fill="#01288E"/>
<path d="M12.9045 16.4049H12.8095C12.7595 16.4049 12.7095 16.3849 12.6745 16.3499C12.6245 16.2899 12.5995 16.2149 12.6045 16.1399V15.8449C12.6045 15.7149 12.6045 15.5999 12.5795 15.5549C12.5545 15.5099 12.5795 15.5299 12.5795 15.5249L12.7095 15.4199H12.7345V16.1099C12.7345 16.1849 12.7795 16.2199 12.8595 16.2199H12.9095V16.4049H12.9045Z" fill="#01288E"/>
<path d="M13.5907 16.1251C13.5907 16.1851 13.5707 16.2451 13.5307 16.2951C13.4907 16.3451 13.4557 16.3701 13.4207 16.3701C13.3807 16.3601 13.3407 16.3501 13.3007 16.3301L13.2057 16.2901C13.2057 16.2901 13.1757 16.2901 13.1057 16.3401C13.0457 16.3701 12.9807 16.3901 12.9107 16.4001H12.8457V16.2001H12.9057C12.9357 16.2101 12.9657 16.2101 12.9957 16.2001C12.9707 16.1751 12.9557 16.1401 12.9557 16.1051C12.9557 16.0601 12.9707 16.0201 13.0007 15.9851C13.0307 15.9501 13.0657 15.9251 13.1057 15.9051C13.0807 15.8901 13.0557 15.8751 13.0307 15.8651L13.1107 15.7051C13.2157 15.7601 13.3157 15.8201 13.4107 15.8901C13.5007 15.9351 13.5707 16.0251 13.5907 16.1251V16.1251ZM13.2807 16.0401C13.2807 16.0401 13.2857 16.0001 13.2807 15.9801C13.2707 15.9651 13.2557 15.9501 13.2357 15.9501C13.2057 15.9501 13.1807 15.9601 13.1607 15.9801C13.1307 15.9801 13.1157 16.0251 13.1157 16.0451C13.1157 16.0651 13.1157 16.0801 13.1607 16.1001C13.1807 16.1051 13.2007 16.1051 13.2207 16.1001C13.2357 16.1051 13.2557 16.1051 13.2707 16.1001C13.2807 16.0801 13.2857 16.0601 13.2807 16.0401V16.0401ZM13.5007 16.1701C13.5007 16.1701 13.5007 16.1151 13.4357 16.0851L13.3607 16.0301C13.3607 16.0301 13.3607 16.0501 13.3607 16.0601C13.3607 16.1051 13.3407 16.1451 13.3057 16.1701C13.3457 16.2001 13.3957 16.2201 13.4507 16.2201C13.5007 16.2201 13.5007 16.2051 13.5007 16.1701V16.1701Z" fill="#01288E"/>
<path d="M14.1958 16.3504C14.1958 16.4904 14.1458 16.6304 14.0458 16.7304C14.0158 16.7654 13.9958 16.7804 13.9908 16.7804C13.8858 16.7804 13.7758 16.7704 13.6758 16.7404C13.7758 16.7054 13.8658 16.6504 13.9508 16.5854C14.0508 16.5104 14.1008 16.4404 14.1008 16.3804C14.0908 16.3404 14.0758 16.3054 14.0458 16.2754C14.0208 16.2404 13.9908 16.2104 13.9608 16.1854L14.0358 16.0254C14.1258 16.1104 14.1858 16.2254 14.1958 16.3504Z" fill="#01288E"/>
<path d="M14.6803 16.4049H14.5853C14.5353 16.4049 14.4853 16.3849 14.4503 16.3499C14.4003 16.2899 14.3753 16.2149 14.3803 16.1399V15.8449C14.3803 15.7149 14.3803 15.5999 14.3553 15.5549C14.3503 15.5449 14.3503 15.5349 14.3553 15.5249L14.4853 15.4199H14.5103V16.1099C14.5103 16.1849 14.5503 16.2199 14.6353 16.2199H14.6853V16.4049H14.6803Z" fill="#01288E"/>
<path d="M15.5604 16.4054H15.5004C15.4304 16.4054 15.3704 16.3754 15.3354 16.3154C15.2754 16.3604 15.2054 16.3854 15.1354 16.3904C15.0604 16.3954 14.9854 16.3954 14.9104 16.3904H14.6504V16.2004H14.8254V16.1404C14.8254 15.9354 14.8004 15.7354 14.7504 15.5354L14.9004 15.4004C14.9254 15.4754 14.9504 15.5504 14.9804 15.6204H14.9204C14.9204 15.6854 14.9204 15.7554 14.9204 15.8204C14.9254 15.9154 14.9254 16.0104 14.9204 16.1054C14.9654 16.0504 15.0204 16.0004 15.0804 15.9604C15.1454 15.9054 15.2204 15.8704 15.3054 15.8604C15.3454 15.8604 15.3854 15.8754 15.4154 15.9004C15.4604 15.9304 15.4854 15.9804 15.4854 16.0354C15.4854 16.0904 15.4654 16.1454 15.4354 16.1954H15.5854L15.5604 16.4054V16.4054ZM15.3354 16.1254C15.3354 16.0954 15.3154 16.0704 15.2904 16.0554C15.2654 16.0354 15.2354 16.0254 15.2054 16.0254C15.0904 16.0404 14.9854 16.1054 14.9154 16.2004H15.2154C15.2954 16.1754 15.3354 16.1554 15.3354 16.1254Z" fill="#01288E"/>
<path d="M16.045 16.0754C16.06 16.1754 16.02 16.2804 15.94 16.3454C15.855 16.3904 15.76 16.4104 15.665 16.4054H15.5V16.2004H15.665C15.75 16.2054 15.835 16.2004 15.915 16.1704C15.935 16.1604 15.945 16.1404 15.945 16.1204H15.77C15.665 16.1204 15.615 16.0804 15.615 16.0054C15.615 15.9404 15.63 15.8754 15.665 15.8154C15.705 15.7404 15.75 15.7004 15.81 15.7004C15.87 15.7004 15.955 15.7554 15.99 15.8604C16.02 15.9304 16.04 16.0004 16.045 16.0754ZM15.805 15.5004L15.705 15.5954L15.61 15.5004L15.705 15.4004L15.805 15.5004ZM15.925 15.9604C15.91 15.9254 15.885 15.8954 15.855 15.8754C15.835 15.8704 15.815 15.8704 15.795 15.8754C15.78 15.8754 15.765 15.8754 15.75 15.8754C15.745 15.8904 15.745 15.9054 15.75 15.9204C15.75 15.9554 15.785 15.9754 15.855 15.9754L15.925 15.9604V15.9604ZM16 15.5004L15.905 15.5954L15.805 15.5004L15.905 15.4004L16 15.5004Z" fill="#01288E"/>
<path d="M17.7543 16.4047H17.6943C17.6443 16.4047 17.5993 16.3847 17.5593 16.3547C17.5343 16.3297 17.5093 16.2997 17.4943 16.2647C17.4143 16.3297 17.3243 16.3747 17.2243 16.3947C17.1393 16.4147 17.0493 16.4197 16.9593 16.4197C16.6743 16.4197 16.5293 16.3197 16.5293 16.1247C16.5293 16.0747 16.5443 16.0197 16.5693 15.9747C16.5693 15.9297 16.6093 15.9047 16.6293 15.9047C16.6493 15.9047 16.6593 15.9047 16.6593 15.9397C16.6593 15.9547 16.6593 15.9747 16.6593 15.9897C16.6593 16.0097 16.6593 16.0247 16.6593 16.0447C16.6593 16.1147 16.7093 16.1797 16.7793 16.1897C16.8593 16.2147 16.9393 16.2247 17.0243 16.2197C17.1843 16.2297 17.3443 16.1897 17.4843 16.1047L17.5543 16.0347C17.5543 16.0347 17.5793 16.0047 17.5993 15.9997C17.5993 15.9997 17.6293 15.9997 17.6293 16.0397C17.6243 16.0747 17.6093 16.1097 17.5893 16.1397C17.6093 16.1797 17.6543 16.1997 17.7243 16.1997H17.7743L17.7543 16.4047V16.4047ZM17.0443 15.7797L16.9443 15.8747L16.8493 15.7797L16.9443 15.6797L17.0443 15.7797ZM17.2593 15.7797L17.1643 15.8747L17.0643 15.7797L17.1643 15.6797L17.2593 15.7797Z" fill="#01288E"/>
<path d="M18.3859 15.4199L18.3509 15.5999L17.9359 15.7449C17.9859 15.7949 18.0309 15.8499 18.0759 15.9099C18.1109 15.9649 18.1359 16.0299 18.1359 16.0949C18.1359 16.2999 18.0259 16.4049 17.8009 16.4049H17.7109V16.1999H17.7709C17.8459 16.2099 17.9209 16.2099 17.9959 16.1999C18.0309 16.1999 18.0459 16.1999 18.0459 16.1549C18.0459 16.1099 18.0109 16.0699 17.9459 15.9999C17.8959 15.9449 17.8409 15.8949 17.7809 15.8499L17.8209 15.6499L18.3859 15.4199V15.4199Z" fill="#01288E"/>
<path d="M19.0997 16.4047H19.0647C19.0247 16.4047 18.9847 16.3947 18.9447 16.3797C18.9547 16.5247 18.8997 16.6647 18.7997 16.7647C18.7697 16.7947 18.7547 16.8047 18.7447 16.8047C18.6397 16.8097 18.5297 16.7997 18.4297 16.7647C18.5297 16.7297 18.6197 16.6747 18.7047 16.6097C18.8047 16.5347 18.8547 16.4697 18.8547 16.4147C18.8497 16.3747 18.8297 16.3397 18.7997 16.3097L18.7097 16.2197L18.7947 16.0547C18.8697 16.1597 18.9447 16.2147 19.0097 16.2147H19.0797L19.0997 16.4047V16.4047Z" fill="#01288E"/>
<path d="M20.0455 16.0998C20.0455 16.1648 20.0355 16.2348 20.0055 16.2948C19.9805 16.3598 19.9155 16.4048 19.8455 16.4048C19.7755 16.4048 19.7105 16.3598 19.6805 16.2948C19.6555 16.3598 19.5955 16.3998 19.5255 16.4048C19.4555 16.4048 19.3955 16.3598 19.3655 16.2948C19.3255 16.3648 19.2505 16.4048 19.1705 16.4048H19.0605V16.1998H19.1905C19.2305 16.1998 19.2655 16.1848 19.2905 16.1548C19.3055 16.1248 19.3155 16.0948 19.3205 16.0648C19.3205 16.0348 19.3205 16.0148 19.3605 16.0148C19.4005 16.0148 19.3905 16.0148 19.4005 16.0648C19.4055 16.0948 19.4155 16.1248 19.4255 16.1548C19.4455 16.1848 19.4805 16.2048 19.5205 16.1998C19.5555 16.1998 19.5955 16.1848 19.6155 16.1548C19.6255 16.1248 19.6355 16.0948 19.6455 16.0648C19.6455 16.0348 19.6455 16.0148 19.6855 16.0148C19.7255 16.0148 19.7155 16.0148 19.7255 16.0648C19.7255 16.0948 19.7255 16.1248 19.7255 16.1548C19.7455 16.1898 19.7855 16.2098 19.8255 16.2048C19.8905 16.2048 19.9255 16.2048 19.9255 16.1398C19.9155 16.0948 19.8955 16.0548 19.8605 16.0198L19.9305 15.9098V15.8848C19.9655 15.9148 19.9905 15.9548 20.0005 15.9998C20.0205 16.0298 20.0355 16.0648 20.0455 16.0998ZM19.4655 15.7198L19.5605 15.6248L19.6605 15.7198L19.5605 15.8198L19.4655 15.7198ZM19.5705 15.5598L19.6705 15.4648L19.7655 15.5598L19.6705 15.6548L19.5705 15.5598ZM19.6805 15.7198L19.7805 15.6248L19.8755 15.7198L19.7805 15.8198L19.6805 15.7198Z" fill="#01288E"/>
<path d="M3.2893 18.3862L2.8793 17.4962V18.2012C2.8793 18.2662 2.8843 18.3062 2.8993 18.3212C2.9193 18.3412 2.9493 18.3562 2.9893 18.3562H3.0243V18.3862H2.6543V18.3562H2.6943C2.7393 18.3562 2.7693 18.3412 2.7893 18.3162C2.7993 18.3012 2.8043 18.2612 2.8043 18.2012V17.5112C2.8043 17.4662 2.7993 17.4312 2.7893 17.4112C2.7843 17.3962 2.7693 17.3812 2.7493 17.3712C2.7293 17.3612 2.6993 17.3562 2.6543 17.3562V17.3262H2.9543L3.3393 18.1512L3.7143 17.3262H4.0143V17.3562H3.9793C3.9343 17.3562 3.9043 17.3712 3.8843 17.3962C3.8743 17.4112 3.8693 17.4512 3.8693 17.5112V18.2012C3.8693 18.2662 3.8743 18.3062 3.8893 18.3212C3.9093 18.3412 3.9393 18.3562 3.9793 18.3562H4.0143V18.3862H3.5643V18.3562H3.6043C3.6493 18.3562 3.6793 18.3412 3.6993 18.3162C3.7093 18.3012 3.7143 18.2612 3.7143 18.2012V17.4962L3.3093 18.3862H3.2843H3.2893Z" fill="#EC5400"/>
<path d="M4.78336 18.0308H4.37336L4.30336 18.1958C4.28336 18.2358 4.27836 18.2658 4.27836 18.2858C4.27836 18.3008 4.28836 18.3158 4.30336 18.3258C4.31836 18.3358 4.35336 18.3458 4.40336 18.3508V18.3808H4.06836V18.3508C4.11336 18.3408 4.14336 18.3308 4.15336 18.3208C4.17836 18.2958 4.20836 18.2458 4.24336 18.1708L4.61336 17.3008H4.63836L5.00336 18.1808C5.03336 18.2508 5.05836 18.2958 5.08336 18.3158C5.10836 18.3358 5.14336 18.3508 5.18336 18.3508V18.3808H4.76836V18.3508C4.80836 18.3508 4.83836 18.3408 4.85336 18.3308C4.86836 18.3208 4.87336 18.3058 4.87336 18.2858C4.87336 18.2608 4.86336 18.2258 4.84336 18.1758L4.77836 18.0258L4.78336 18.0308ZM4.76336 17.9708L4.58336 17.5458L4.39836 17.9708H4.76336V17.9708Z" fill="#EC5400"/>
<path d="M5.53437 17.8201H6.02437V17.5201C6.02437 17.4651 6.02437 17.4301 6.01437 17.4151C6.00937 17.4001 5.99937 17.3901 5.97937 17.3801C5.95937 17.3701 5.93437 17.3601 5.90937 17.3601H5.87437V17.3301H6.32437V17.3601H6.28937C6.28937 17.3601 6.23937 17.3651 6.21937 17.3801C6.20437 17.3901 6.18937 17.4001 6.18437 17.4201C6.17937 17.4351 6.17438 17.4701 6.17438 17.5251V18.2051C6.17438 18.2601 6.17437 18.2951 6.18437 18.3101C6.18937 18.3251 6.19938 18.3351 6.21438 18.3451C6.23938 18.3551 6.25937 18.3651 6.28437 18.3651H6.31938V18.3951H5.86937V18.3651H5.90438C5.94938 18.3651 5.97937 18.3501 5.99937 18.3251C6.01437 18.3101 6.01937 18.2701 6.01937 18.2051V17.8851H5.52938V18.2051C5.52938 18.2601 5.52937 18.2951 5.53937 18.3101C5.54437 18.3251 5.55437 18.3351 5.57437 18.3451C5.59437 18.3551 5.61937 18.3651 5.64437 18.3651H5.68437V18.3951H5.23438V18.3651H5.26937C5.31437 18.3651 5.34437 18.3501 5.36437 18.3251C5.37437 18.3101 5.38438 18.2701 5.38438 18.2051V17.5251C5.38438 17.4701 5.38437 17.4351 5.37437 17.4201C5.36937 17.4051 5.35937 17.3951 5.34437 17.3851C5.31937 17.3751 5.29937 17.3651 5.27437 17.3651H5.23937V17.3351H5.68937V17.3651H5.64937C5.64937 17.3651 5.59937 17.3701 5.57937 17.3851C5.56437 17.3951 5.55437 17.4051 5.54437 17.4251C5.53937 17.4401 5.53437 17.4751 5.53437 17.5301V17.8301V17.8201Z" fill="#EC5400"/>
<path d="M7.27953 17.3301L7.28953 17.5801H7.25953C7.25453 17.5351 7.24453 17.5051 7.23453 17.4851C7.21953 17.4551 7.19453 17.4351 7.16953 17.4201C7.14453 17.4051 7.10953 17.4001 7.06453 17.4001H6.91453V18.2051C6.91453 18.2701 6.91953 18.3101 6.93453 18.3251C6.95453 18.3451 6.98453 18.3601 7.02453 18.3601H7.05953V18.3901H6.60953V18.3601H6.64953C6.69453 18.3601 6.72453 18.3451 6.74453 18.3201C6.75453 18.3051 6.75953 18.2651 6.75953 18.2051V17.4001H6.63453C6.58453 17.4001 6.54953 17.4001 6.52953 17.4101C6.50453 17.4201 6.47953 17.4401 6.45953 17.4651C6.43953 17.4951 6.42953 17.5301 6.42453 17.5801H6.39453L6.40453 17.3301H7.26453H7.27953Z" fill="#EC5400"/>
<path d="M7.93375 18.0308H7.52375L7.45375 18.1958C7.43375 18.2358 7.42875 18.2658 7.42875 18.2858C7.42875 18.3008 7.43875 18.3158 7.45375 18.3258C7.46875 18.3358 7.50375 18.3458 7.55375 18.3508V18.3808H7.21875V18.3508C7.26375 18.3408 7.29375 18.3308 7.30375 18.3208C7.32875 18.2958 7.35875 18.2458 7.39375 18.1708L7.76375 17.3008H7.78875L8.15375 18.1808C8.18375 18.2508 8.20875 18.2958 8.23375 18.3158C8.25875 18.3358 8.29375 18.3508 8.33375 18.3508V18.3808H7.91875V18.3508C7.95875 18.3508 7.98875 18.3408 8.00375 18.3308C8.01875 18.3208 8.02375 18.3058 8.02375 18.2858C8.02375 18.2608 8.01375 18.2258 7.99375 18.1758L7.92875 18.0258L7.93375 18.0308ZM7.91375 17.9708L7.73375 17.5458L7.54875 17.9708H7.91375V17.9708Z" fill="#EC5400"/>
<path d="M9.08891 17.8451C9.16391 17.8601 9.21891 17.8851 9.25391 17.9201C9.30391 17.9701 9.32891 18.0251 9.32891 18.0951C9.32891 18.1501 9.31391 18.2001 9.27891 18.2451C9.24391 18.2901 9.19891 18.3301 9.14391 18.3501C9.08891 18.3701 8.99891 18.3851 8.87891 18.3851H8.37891V18.3551H8.41891C8.46391 18.3551 8.49391 18.3401 8.51391 18.3151C8.52391 18.2951 8.53391 18.2601 8.53391 18.2001V17.5201C8.53391 17.4551 8.52391 17.4151 8.50891 17.3951C8.48891 17.3751 8.45891 17.3601 8.41891 17.3601H8.37891V17.3301H8.83391C8.91891 17.3301 8.98891 17.3351 9.03891 17.3501C9.11891 17.3701 9.17391 17.4001 9.21891 17.4501C9.26391 17.5001 9.27891 17.5501 9.27891 17.6151C9.27891 17.6701 9.26391 17.7151 9.22891 17.7551C9.19891 17.7951 9.14891 17.8301 9.08391 17.8501L9.08891 17.8451ZM8.67891 17.8051C8.67891 17.8051 8.71891 17.8101 8.74391 17.8151C8.76891 17.8201 8.79391 17.8151 8.82391 17.8151C8.89891 17.8151 8.95891 17.8051 8.99391 17.7901C9.03391 17.7751 9.05891 17.7501 9.08391 17.7151C9.10891 17.6801 9.11391 17.6451 9.11391 17.6051C9.11391 17.5451 9.08891 17.4901 9.03891 17.4451C8.98891 17.4001 8.91391 17.3801 8.81891 17.3801C8.76891 17.3801 8.71891 17.3851 8.67891 17.3951V17.8001V17.8051ZM8.67891 18.3101C8.73891 18.3251 8.79891 18.3301 8.85891 18.3301C8.95391 18.3301 9.02391 18.3101 9.07391 18.2651C9.12391 18.2251 9.14891 18.1701 9.14891 18.1101C9.14891 18.0701 9.13891 18.0301 9.11391 17.9901C9.08891 17.9501 9.05391 17.9201 9.00391 17.9001C8.95391 17.8801 8.88891 17.8651 8.81891 17.8651C8.78891 17.8651 8.75891 17.8651 8.73391 17.8651C8.70891 17.8651 8.69391 17.8651 8.67891 17.8701V18.3051V18.3101Z" fill="#EC5400"/>
<path d="M10.5499 17.3066V17.6716H10.5199C10.5099 17.6016 10.4949 17.5466 10.4699 17.5066C10.4449 17.4666 10.4099 17.4316 10.3649 17.4066C10.3199 17.3816 10.2749 17.3716 10.2249 17.3716C10.1699 17.3716 10.1249 17.3866 10.0899 17.4216C10.0549 17.4566 10.0349 17.4916 10.0349 17.5316C10.0349 17.5616 10.0449 17.5916 10.0699 17.6216C10.0999 17.6616 10.1799 17.7116 10.2999 17.7766C10.3999 17.8316 10.4649 17.8716 10.4999 17.8966C10.5349 17.9266 10.5649 17.9566 10.5849 17.9966C10.6049 18.0366 10.6149 18.0766 10.6149 18.1166C10.6149 18.1966 10.5849 18.2666 10.5199 18.3216C10.4599 18.3816 10.3799 18.4066 10.2799 18.4066C10.2499 18.4066 10.2199 18.4066 10.1949 18.4016C10.1799 18.4016 10.1449 18.3916 10.0949 18.3716C10.0449 18.3566 10.0099 18.3466 9.99992 18.3466C9.98492 18.3466 9.97492 18.3466 9.96992 18.3566C9.96492 18.3666 9.95492 18.3816 9.95492 18.4066H9.92492V18.0466H9.95492C9.96992 18.1216 9.98492 18.1766 10.0099 18.2166C10.0349 18.2566 10.0699 18.2866 10.1149 18.3116C10.1599 18.3366 10.2149 18.3516 10.2699 18.3516C10.3349 18.3516 10.3849 18.3366 10.4249 18.3016C10.4649 18.2666 10.4799 18.2266 10.4799 18.1816C10.4799 18.1566 10.4749 18.1316 10.4599 18.1016C10.4449 18.0766 10.4249 18.0516 10.3949 18.0266C10.3749 18.0116 10.3199 17.9766 10.2299 17.9266C10.1399 17.8766 10.0749 17.8366 10.0349 17.8066C9.99492 17.7766 9.96992 17.7416 9.94992 17.7066C9.92992 17.6716 9.91992 17.6316 9.91992 17.5866C9.91992 17.5116 9.94992 17.4466 10.0049 17.3916C10.0649 17.3366 10.1349 17.3116 10.2249 17.3116C10.2799 17.3116 10.3399 17.3266 10.4049 17.3516C10.4349 17.3666 10.4549 17.3716 10.4649 17.3716C10.4799 17.3716 10.4899 17.3716 10.4999 17.3616C10.5099 17.3516 10.5149 17.3366 10.5199 17.3116H10.5499V17.3066Z" fill="#EC5400"/>
<path d="M11.4338 18.0308H11.0237L10.9537 18.1958C10.9337 18.2358 10.9288 18.2658 10.9288 18.2858C10.9288 18.3008 10.9387 18.3158 10.9537 18.3258C10.9687 18.3358 11.0038 18.3458 11.0538 18.3508V18.3808H10.7188V18.3508C10.7638 18.3408 10.7938 18.3308 10.8038 18.3208C10.8288 18.2958 10.8588 18.2458 10.8938 18.1708L11.2638 17.3008H11.2887L11.6537 18.1808C11.6837 18.2508 11.7087 18.2958 11.7337 18.3158C11.7587 18.3358 11.7937 18.3508 11.8337 18.3508V18.3808H11.4187V18.3508C11.4587 18.3508 11.4887 18.3408 11.5037 18.3308C11.5187 18.3208 11.5237 18.3058 11.5237 18.2858C11.5237 18.2608 11.5137 18.2258 11.4937 18.1758L11.4288 18.0258L11.4338 18.0308ZM11.4137 17.9708L11.2337 17.5458L11.0487 17.9708H11.4137Z" fill="#EC5400"/>
<path d="M12.3484 18.3562V18.3862H11.8984V18.3562H11.9334C11.9784 18.3562 12.0084 18.3412 12.0284 18.3162C12.0384 18.3012 12.0484 18.2612 12.0484 18.1962V17.5162C12.0484 17.4612 12.0484 17.4262 12.0384 17.4112C12.0334 17.3962 12.0234 17.3862 12.0084 17.3762C11.9834 17.3662 11.9634 17.3562 11.9384 17.3562H11.9034V17.3262H12.3534V17.3562H12.3134C12.2684 17.3562 12.2384 17.3712 12.2184 17.3962C12.2034 17.4112 12.1984 17.4512 12.1984 17.5162V18.1962C12.1984 18.2512 12.1984 18.2862 12.2084 18.3012C12.2134 18.3162 12.2234 18.3262 12.2384 18.3362C12.2584 18.3462 12.2834 18.3562 12.3084 18.3562H12.3484Z" fill="#EC5400"/>
<path d="M13.4649 18.3862H13.1849L12.8299 17.8912C12.8049 17.8912 12.7799 17.8912 12.7649 17.8912C12.7599 17.8912 12.7499 17.8912 12.7449 17.8912C12.7349 17.8912 12.7299 17.8912 12.7199 17.8912V18.1962C12.7199 18.2612 12.7249 18.3062 12.7399 18.3212C12.7599 18.3462 12.7899 18.3562 12.8299 18.3562H12.8699V18.3862H12.4199V18.3562H12.4599C12.5049 18.3562 12.5349 18.3412 12.5549 18.3112C12.5649 18.2962 12.5699 18.2562 12.5699 18.1962V17.5162C12.5699 17.4512 12.5649 17.4062 12.5499 17.3912C12.5299 17.3712 12.4999 17.3562 12.4599 17.3562H12.4199V17.3262H12.8049C12.9149 17.3262 12.9999 17.3362 13.0549 17.3512C13.1099 17.3662 13.1549 17.3962 13.1899 17.4412C13.2249 17.4862 13.2449 17.5362 13.2449 17.5962C13.2449 17.6612 13.2249 17.7162 13.1799 17.7662C13.1399 17.8162 13.0699 17.8462 12.9849 17.8662L13.2049 18.1712C13.2549 18.2412 13.2999 18.2862 13.3349 18.3112C13.3699 18.3312 13.4199 18.3462 13.4749 18.3562V18.3862H13.4649ZM12.7149 17.8412C12.7149 17.8412 12.7349 17.8412 12.7399 17.8412C12.7449 17.8412 12.7549 17.8412 12.7599 17.8412C12.8599 17.8412 12.9349 17.8212 12.9899 17.7762C13.0399 17.7312 13.0649 17.6762 13.0649 17.6112C13.0649 17.5462 13.0449 17.4912 13.0049 17.4512C12.9649 17.4112 12.9099 17.3912 12.8399 17.3912C12.8099 17.3912 12.7699 17.3962 12.7199 17.4062V17.8462L12.7149 17.8412Z" fill="#EC5400"/>
<path d="M14.0098 17.3601V17.3301H14.4648V17.3601H14.4248C14.3798 17.3601 14.3498 17.3751 14.3298 17.4001C14.3148 17.4151 14.3098 17.4551 14.3098 17.5201V18.0351C14.3098 18.1151 14.2998 18.1801 14.2848 18.2301C14.2698 18.2801 14.2398 18.3201 14.1948 18.3601C14.1498 18.4001 14.0998 18.4151 14.0398 18.4151C13.9898 18.4151 13.9548 18.4051 13.9248 18.3801C13.8948 18.3551 13.8848 18.3301 13.8848 18.2951C13.8848 18.2701 13.8898 18.2501 13.9048 18.2351C13.9198 18.2201 13.9398 18.2101 13.9648 18.2101C13.9798 18.2101 13.9948 18.2151 14.0098 18.2251C14.0248 18.2351 14.0398 18.2651 14.0598 18.3101C14.0698 18.3401 14.0848 18.3501 14.1048 18.3501C14.1198 18.3501 14.1298 18.3401 14.1448 18.3251C14.1548 18.3051 14.1648 18.2751 14.1648 18.2351V17.5151C14.1648 17.4601 14.1648 17.4251 14.1548 17.4101C14.1548 17.3951 14.1398 17.3851 14.1198 17.3751C14.0998 17.3651 14.0748 17.3551 14.0498 17.3551H14.0098V17.3601Z" fill="#EC5400"/>
<path d="M15.1994 18.0308H14.7894L14.7194 18.1958C14.6994 18.2358 14.6944 18.2658 14.6944 18.2858C14.6944 18.3008 14.7044 18.3158 14.7194 18.3258C14.7344 18.3358 14.7694 18.3458 14.8194 18.3508V18.3808H14.4844V18.3508C14.5294 18.3408 14.5594 18.3308 14.5694 18.3208C14.5944 18.2958 14.6244 18.2458 14.6594 18.1708L15.0294 17.3008H15.0544L15.4244 18.1808C15.4544 18.2508 15.4794 18.2958 15.5044 18.3158C15.5294 18.3358 15.5644 18.3508 15.6044 18.3508V18.3808H15.1894V18.3508C15.2294 18.3508 15.2594 18.3408 15.2744 18.3308C15.2894 18.3208 15.2944 18.3058 15.2944 18.2858C15.2944 18.2608 15.2844 18.2258 15.2644 18.1758L15.1994 18.0258V18.0308ZM15.1794 17.9708L14.9994 17.5458L14.8144 17.9708H15.1794Z" fill="#EC5400"/>
<path d="M16.2737 18.3862L15.8637 17.4962V18.2012C15.8637 18.2662 15.8687 18.3062 15.8837 18.3212C15.9037 18.3412 15.9337 18.3562 15.9737 18.3562H16.0087V18.3862H15.6387V18.3562H15.6787C15.7237 18.3562 15.7537 18.3412 15.7737 18.3162C15.7837 18.3012 15.7887 18.2612 15.7887 18.2012V17.5112C15.7887 17.4662 15.7837 17.4312 15.7737 17.4112C15.7687 17.3962 15.7537 17.3812 15.7337 17.3712C15.7137 17.3612 15.6837 17.3562 15.6387 17.3562V17.3262H15.9387L16.3237 18.1512L16.6987 17.3262H16.9987V17.3562H16.9637C16.9187 17.3562 16.8887 17.3712 16.8687 17.3962C16.8587 17.4112 16.8537 17.4512 16.8537 17.5112V18.2012C16.8537 18.2662 16.8587 18.3062 16.8737 18.3212C16.8937 18.3412 16.9237 18.3562 16.9637 18.3562H16.9987V18.3862H16.5487V18.3562H16.5887C16.6337 18.3562 16.6637 18.3412 16.6837 18.3162C16.6937 18.3012 16.6987 18.2612 16.6987 18.2012V17.4962L16.2887 18.3862H16.2637H16.2737Z" fill="#EC5400"/>
<path d="M18.4 17.3058L18.425 17.6658H18.4C18.37 17.5608 18.32 17.4808 18.26 17.4358C18.2 17.3908 18.13 17.3658 18.045 17.3658C17.975 17.3658 17.91 17.3858 17.855 17.4208C17.8 17.4558 17.755 17.5108 17.72 17.5908C17.685 17.6708 17.67 17.7658 17.67 17.8808C17.67 17.9758 17.685 18.0608 17.715 18.1308C17.745 18.2008 17.79 18.2558 17.855 18.2908C17.915 18.3308 17.985 18.3458 18.065 18.3458C18.135 18.3458 18.195 18.3308 18.245 18.3008C18.3 18.2708 18.355 18.2158 18.42 18.1258L18.445 18.1408C18.39 18.2358 18.33 18.3058 18.26 18.3458C18.19 18.3908 18.105 18.4108 18.01 18.4108C17.835 18.4108 17.7 18.3458 17.605 18.2158C17.535 18.1208 17.5 18.0058 17.5 17.8758C17.5 17.7708 17.525 17.6758 17.57 17.5858C17.615 17.4958 17.68 17.4308 17.765 17.3808C17.85 17.3308 17.94 17.3058 18.035 17.3058C18.11 17.3058 18.185 17.3258 18.26 17.3608C18.28 17.3708 18.3 17.3758 18.305 17.3758C18.32 17.3758 18.33 17.3758 18.34 17.3608C18.355 17.3458 18.365 17.3258 18.37 17.3008H18.395L18.4 17.3058Z" fill="#EC5400"/>
<path d="M18.8986 17.6504C19.0086 17.6504 19.0936 17.6904 19.1586 17.7754C19.2136 17.8454 19.2436 17.9254 19.2436 18.0154C19.2436 18.0804 19.2286 18.1454 19.1986 18.2104C19.1686 18.2754 19.1236 18.3254 19.0736 18.3604C19.0186 18.3954 18.9586 18.4104 18.8936 18.4104C18.7886 18.4104 18.6986 18.3654 18.6386 18.2804C18.5836 18.2104 18.5586 18.1254 18.5586 18.0354C18.5586 17.9704 18.5736 17.9054 18.6086 17.8404C18.6436 17.7754 18.6836 17.7304 18.7386 17.6954C18.7936 17.6654 18.8486 17.6504 18.9086 17.6504H18.8986ZM18.8736 17.7004C18.8486 17.7004 18.8186 17.7104 18.7886 17.7254C18.7586 17.7404 18.7386 17.7704 18.7236 17.8104C18.7086 17.8504 18.6986 17.9054 18.6986 17.9704C18.6986 18.0754 18.7186 18.1654 18.7586 18.2404C18.7986 18.3154 18.8536 18.3554 18.9236 18.3554C18.9736 18.3554 19.0136 18.3354 19.0486 18.2954C19.0836 18.2554 19.0986 18.1804 19.0986 18.0804C19.0986 17.9554 19.0736 17.8554 19.0186 17.7804C18.9836 17.7304 18.9336 17.7054 18.8786 17.7054L18.8736 17.7004Z" fill="#EC5400"/>
<path d="M19.4991 18.2363C19.4991 18.2363 19.5441 18.2463 19.5591 18.2613C19.5741 18.2763 19.5841 18.3013 19.5841 18.3213C19.5841 18.3413 19.5741 18.3663 19.5591 18.3813C19.5441 18.3963 19.5191 18.4063 19.4991 18.4063C19.4791 18.4063 19.4541 18.3963 19.4391 18.3813C19.4241 18.3663 19.4141 18.3463 19.4141 18.3213C19.4141 18.2963 19.4241 18.2763 19.4391 18.2613C19.4541 18.2463 19.4791 18.2363 19.4991 18.2363Z" fill="#EC5400"/>
</g>
</g>
<defs>
<clipPath id="clip0_987_160636">
<rect width="24" height="24" fill="white"/>
</clipPath>
<clipPath id="clip1_987_160636">
<rect width="24" height="24" fill="white"/>
</clipPath>
</defs>
</svg>
