<svg width="48" height="48" viewBox="0 0 24 24" fill="none" xmlns="http://www.w3.org/2000/svg">
<g clip-path="url(#clip0_987_160222)">
<path d="M21.9991 13.8141H3.0991C2.6041 13.8141 2.2041 13.4141 2.2041 12.9191C2.2041 12.6541 2.3241 12.3991 2.5291 12.2291L6.9991 8.52914C7.3591 8.23414 7.8091 8.06914 8.2741 8.06914H22.5441V7.61914H8.2691C7.6991 7.61914 7.1441 7.81914 6.7041 8.18414L2.2391 11.8841C1.6691 12.3591 1.5891 13.2041 2.0641 13.7791C2.3191 14.0891 2.6991 14.2641 3.0991 14.2641H21.9991V13.8141V13.8141Z" fill="#D0000C"/>
<path d="M6.39062 11.8396L10.1906 8.72461H18.2306V8.99461H10.2506L6.39062 11.8396Z" fill="#D0000C"/>
<path d="M6.36523 12.749C6.52523 12.824 6.69023 12.874 6.86523 12.894C7.03023 12.919 7.20023 12.919 7.36523 12.894C7.70023 12.849 8.02523 12.759 8.33523 12.634C8.64523 12.509 8.95523 12.369 9.26023 12.214L10.1752 11.754C10.7852 11.439 11.4252 11.184 12.0852 10.999C12.4252 10.909 12.7802 10.869 13.1302 10.894C13.4802 10.919 13.8152 11.044 14.1002 11.254C13.8002 11.089 13.4652 10.999 13.1252 10.999C12.7852 11.004 12.4502 11.059 12.1252 11.169C11.8052 11.269 11.4852 11.394 11.1802 11.534C10.8752 11.674 10.5652 11.824 10.2602 11.979C9.65023 12.304 9.02023 12.584 8.37023 12.819C8.03523 12.934 7.69023 12.999 7.34023 13.014C7.17023 13.014 7.00523 12.994 6.84023 12.954C6.67023 12.914 6.51023 12.844 6.36523 12.749V12.749Z" fill="#D0000C"/>
<path d="M17.6807 9.92991C17.2957 9.54491 16.3907 9.81991 15.6807 10.5449C14.9707 11.2699 14.6807 12.1749 15.0657 12.5449C15.4507 12.9149 16.3557 12.6549 17.0657 11.9299C17.7757 11.2049 18.0707 10.3199 17.6807 9.92991V9.92991ZM16.9157 11.6999C16.3757 12.3749 15.6907 12.7249 15.4157 12.4899C15.1407 12.2549 15.3207 11.4899 15.8657 10.8349C16.4107 10.1799 17.0907 9.80991 17.3657 10.0449C17.6407 10.2799 17.4607 11.0249 16.9157 11.6999V11.6999Z" fill="#D0000C"/>
<path d="M17.3154 11.0645C16.4554 12.7645 15.3154 12.9745 15.0354 12.9995C14.9954 12.9995 14.9654 13.0295 14.9654 13.0695C14.9604 13.1095 14.9904 13.1495 15.0304 13.1545C15.0304 13.1545 15.0354 13.1545 15.0404 13.1545C16.5904 13.1545 17.6604 11.1545 17.6604 11.1545L17.3154 11.0645V11.0645Z" fill="#D0000C"/>
<path d="M19.9509 9.68555H18.3609V9.81555H18.5809C18.6459 9.81555 18.7009 9.87055 18.7009 9.93555C18.7009 9.95555 18.7009 9.97055 18.6859 9.99055L17.9709 11.3905C17.6309 12.0405 16.9409 12.4305 16.2109 12.3905V12.5055C17.7759 12.5755 18.3459 11.6305 18.3459 11.6305L19.3459 9.97555C19.4159 9.86055 19.5409 9.79055 19.6759 9.79055H19.9309L19.9509 9.68555V9.68555Z" fill="#D0000C"/>
<path d="M15.8942 11.9552C15.7792 11.8702 15.6592 11.7902 15.5342 11.7252C15.1392 11.5302 14.7092 11.4252 14.2692 11.4202C14.4342 11.1602 14.5792 10.8902 14.7242 10.6252C14.7892 10.4952 14.9242 10.4202 15.0692 10.4202H15.3892V10.2852H13.7292V10.4202H13.9442C14.0092 10.4202 14.0642 10.4752 14.0642 10.5402C14.0642 10.5602 14.0642 10.5752 14.0492 10.5952L13.6342 11.4402C13.0692 11.5052 12.5142 11.6352 11.9792 11.8252C11.5342 11.9452 11.1292 12.1752 10.8042 12.5002C10.3542 13.0002 11.1292 13.2352 11.5342 13.2352C12.0442 13.2352 12.5442 13.1152 12.9992 12.8802C13.2242 12.7652 13.4242 12.6152 13.5942 12.4302C13.7792 12.1952 13.9492 11.9402 14.0942 11.6802L14.1742 11.5602C14.6242 11.5402 15.0692 11.6152 15.4892 11.7802C15.7242 11.8752 15.9342 12.0252 16.1042 12.2202C16.0592 12.1152 15.9842 12.0252 15.8942 11.9552ZM13.3342 12.0352C12.9842 12.7152 12.2642 13.1252 11.4992 13.0802C11.2842 13.0802 10.6792 12.9952 10.8242 12.6502C10.9642 12.4402 11.1692 12.2802 11.4092 12.1952C11.7142 12.0602 12.0292 11.9452 12.3542 11.8602C12.7542 11.7502 13.1542 11.6702 13.5642 11.6102L13.3342 12.0352V12.0352Z" fill="#D0000C"/>
<path d="M19.4599 9.48722C19.7414 9.34617 19.8823 9.05771 19.7746 8.84293C19.667 8.62815 19.3516 8.56839 19.0701 8.70944C18.7887 8.8505 18.6478 9.13896 18.7555 9.35373C18.8631 9.56851 19.1785 9.62828 19.4599 9.48722Z" fill="#D0000C"/>
<path d="M21.4148 16.0391H1.33984V16.4791H21.4148V16.0391Z" fill="#D2060E"/>
<path d="M2.49953 14.9551H2.45453V15.5601C2.45453 15.6251 2.42453 15.6901 2.37453 15.7351C2.30953 15.7851 2.22453 15.8051 2.14453 15.8051V15.8901C2.25453 15.8901 2.35953 15.8601 2.44953 15.7951C2.52453 15.7301 2.56453 15.6351 2.55953 15.5351V15.0001L2.49953 14.9551V14.9551Z" fill="#121516"/>
<path d="M3.90039 15.0297H3.97039V14.9547C3.97039 14.9547 3.97039 14.9397 3.97039 14.9297H3.90039C3.90039 14.9297 3.90039 14.9447 3.90039 14.9547V14.9997V15.0297Z" fill="#121516"/>
<path d="M4.26968 14.9305H4.18968V15.2155C4.18968 15.2555 4.17968 15.2955 4.15468 15.3305C4.12968 15.3605 4.09468 15.3755 4.05468 15.3755H3.29968V15.1905C3.29968 15.1205 3.27468 15.0505 3.21968 15.0005C3.16968 14.9455 3.09468 14.9155 3.01968 14.9205C2.94468 14.9205 2.87468 14.9455 2.81968 15.0005C2.76968 15.0505 2.73968 15.1205 2.74468 15.1955V15.3505C2.74468 15.3905 2.74968 15.4305 2.77468 15.4605C2.80968 15.4905 2.85468 15.5005 2.89968 15.5005H3.17968V15.5505C3.17968 15.6155 3.15468 15.6805 3.10468 15.7255C3.03468 15.7705 2.95468 15.7955 2.87468 15.7905V15.8555C3.15468 15.8555 3.29468 15.7205 3.29468 15.4905V15.5005H4.04968C4.11968 15.5005 4.18468 15.4755 4.22968 15.4255C4.27468 15.3705 4.29968 15.3005 4.29468 15.2305V14.9455C4.29468 14.9455 4.28468 14.9305 4.26968 14.9305V14.9305ZM2.88468 15.4005V15.2455C2.88468 15.2005 2.89968 15.1605 2.92968 15.1305C2.94468 15.1005 2.96968 15.0705 2.99968 15.0555C3.04468 15.0555 3.08468 15.0705 3.11968 15.1005C3.14968 15.1305 3.16968 15.1705 3.16968 15.2155V15.4005H2.88468V15.4005Z" fill="#121516"/>
<path d="M6.34562 15.335C6.31062 15.305 6.27063 15.295 6.22563 15.3H6.03562C6.03562 15.3 6.02063 15.3 6.01063 15.3V15.225C6.01063 15.18 6.02063 15.14 6.05063 15.105C6.08563 15.08 6.13063 15.065 6.17563 15.07H6.29063V15.01M6.29063 14.985H6.17563C6.10063 14.98 6.02563 15.005 5.97563 15.06C5.92063 15.125 5.89563 15.205 5.90063 15.285C5.89563 15.33 5.90563 15.38 5.93563 15.415C5.96063 15.445 6.00063 15.46 6.04063 15.455H6.26562V15.515C6.26562 15.555 6.25563 15.59 6.22563 15.615C6.18563 15.635 6.14563 15.65 6.10063 15.645H5.16563C5.12063 15.645 5.08063 15.63 5.04563 15.605C4.99563 15.57 4.98063 15.505 5.00063 15.45V15.155H4.91563C4.91563 15.155 4.89062 15.155 4.89062 15.185V15.475C4.89062 15.545 4.91063 15.615 4.96063 15.665C5.01563 15.715 5.09063 15.74 5.16563 15.735H6.09562C6.17062 15.735 6.24063 15.715 6.30063 15.67C6.35563 15.625 6.38563 15.555 6.38063 15.485C6.39563 15.43 6.38062 15.375 6.34562 15.335L6.29063 14.985V14.985Z" fill="#121516"/>
<path d="M8.0543 14.6703H8.1293V14.5703H8.0293V14.6453C8.0293 14.6453 8.0293 14.6603 8.0293 14.6703H8.0543Z" fill="#121516"/>
<path d="M8.06476 14.7148C7.99476 14.7148 7.92477 14.7398 7.86977 14.7898C7.81977 14.8398 7.79477 14.9098 7.79477 14.9798V15.1248C7.78477 15.1748 7.81977 15.2248 7.87477 15.2348C7.88477 15.2348 7.89477 15.2348 7.89977 15.2348H8.22976V15.2848C8.22976 15.3198 8.21476 15.3498 8.18976 15.3698C8.15976 15.3898 8.12477 15.3998 8.08977 15.3998H7.34477C7.25477 15.3998 7.20477 15.3398 7.20477 15.2248V14.9998C7.20477 14.9998 7.20477 14.9748 7.17977 14.9748H7.11977M7.09477 14.9998V15.5798C7.09477 15.6498 7.06477 15.7148 7.00977 15.7598C6.94477 15.8048 6.86477 15.8298 6.78477 15.8248C6.78477 15.8248 6.75977 15.8248 6.75977 15.8498V15.9098C6.82477 15.9198 6.88977 15.9198 6.95477 15.9098C7.07977 15.9098 7.01477 15.8798 7.08977 15.8148C7.16477 15.7498 7.20477 15.6548 7.19977 15.5548V15.4998C7.23977 15.5248 7.28977 15.5348 7.33977 15.5348H8.07477C8.14477 15.5348 8.20977 15.5148 8.25977 15.4648C8.30977 15.4198 8.33977 15.3498 8.33477 15.2798V14.9998C8.33477 14.9248 8.30977 14.8548 8.25477 14.8048C8.20477 14.7498 8.13976 14.7198 8.06476 14.7148L7.09477 14.9998ZM8.22976 15.1198H7.90477V14.9998C7.90477 14.9598 7.91977 14.9198 7.94977 14.8898C7.97977 14.8598 8.01976 14.8448 8.06476 14.8448C8.10976 14.8448 8.14977 14.8598 8.18477 14.8898C8.21477 14.9198 8.22976 14.9598 8.22976 15.0048V15.1198V15.1198Z" fill="#121516"/>
<path d="M11.9991 15.06L11.9141 15C11.9141 15 11.8591 14.96 11.8241 14.96C11.7741 14.965 11.7241 14.995 11.6991 15.04L11.4241 15.37L11.3691 15.41C11.3691 15.41 11.3191 15.41 11.2941 15.41H10.6891C10.6541 15.41 10.6141 15.395 10.5941 15.365C10.5691 15.33 10.5541 15.29 10.5541 15.25V14.935H10.4991V15.25C10.4991 15.29 10.4891 15.33 10.4641 15.365C10.4241 15.415 10.3441 15.425 10.2941 15.38C10.2891 15.38 10.2841 15.37 10.2791 15.365C10.2541 15.33 10.2391 15.29 10.2391 15.245V14.93H10.1841V15.245C10.1841 15.29 10.1741 15.33 10.1491 15.365C10.1241 15.39 10.0941 15.405 10.0591 15.405C10.0191 15.405 9.98414 15.39 9.95914 15.36C9.93414 15.325 9.92414 15.285 9.92414 15.245V14.93H9.86914V15.245C9.86914 15.285 9.85914 15.325 9.83414 15.36C9.81414 15.39 9.77414 15.405 9.73914 15.405H9.23914C9.16914 15.415 9.10914 15.365 9.09914 15.295C9.09914 15.285 9.09914 15.275 9.09914 15.265V14.625H9.01914M8.99414 14.65V15.285C8.99414 15.35 9.01414 15.415 9.05914 15.465C9.10914 15.515 9.17414 15.54 9.24414 15.535H9.74414C9.78414 15.535 9.81914 15.53 9.85414 15.51C9.88414 15.495 9.91414 15.465 9.92914 15.435C9.96914 15.5 10.0441 15.54 10.1191 15.535C10.1541 15.535 10.1941 15.53 10.2241 15.51C10.2541 15.495 10.2791 15.47 10.2991 15.44C10.3191 15.47 10.3491 15.495 10.3791 15.51C10.4091 15.53 10.4491 15.54 10.4841 15.535C10.5591 15.54 10.6341 15.5 10.6691 15.435C10.6841 15.47 10.7141 15.495 10.7491 15.51C10.7841 15.53 10.8191 15.54 10.8591 15.535H11.4641C11.5091 15.535 11.5491 15.53 11.5891 15.51C11.6241 15.495 11.6591 15.465 11.6841 15.435L11.8141 15.54C11.8641 15.59 11.9291 15.615 11.9941 15.61C12.0391 15.61 12.0791 15.6 12.1191 15.58C12.1591 15.56 12.1941 15.535 12.2241 15.5C12.2741 15.45 12.2991 15.38 12.2991 15.31C12.2991 15.27 12.2891 15.23 12.2741 15.195C12.2091 15.11 12.1091 15.06 11.9991 15.06L8.99414 14.65V14.65ZM11.9491 15.4C11.9491 15.4 11.9091 15.44 11.8841 15.45C11.8591 15.455 11.8341 15.455 11.8091 15.45C11.7641 15.45 11.7241 15.435 11.6941 15.405L11.5691 15.3L11.7991 15.025L11.9291 15.13C11.9691 15.16 11.9941 15.21 11.9941 15.26C12.0041 15.31 11.9941 15.36 11.9691 15.4H11.9491V15.4Z" fill="#121516"/>
<path d="M17.6548 14.9551H17.5948ZM17.5948 14.9801V15.5601C17.5948 15.6301 17.5698 15.6951 17.5148 15.7351C17.4498 15.7851 17.3648 15.8051 17.2848 15.8051C17.2848 15.8051 17.2598 15.8051 17.2598 15.8301V15.8901H17.2848C17.3948 15.8951 17.5048 15.8601 17.5898 15.7951C17.6648 15.7301 17.7048 15.6351 17.6998 15.5351V15.0001C17.6998 15.0001 17.6748 14.9551 17.6548 14.9551L17.5948 14.9801V14.9801Z" fill="#121516"/>
<path d="M20.7559 14.6H20.8559C20.8559 14.6 20.8559 14.585 20.8559 14.575V14.5H20.7559V14.575C20.7559 14.575 20.7559 14.59 20.7559 14.6Z" fill="#121516"/>
<path d="M21 14.6H21.1C21.1 14.6 21.1 14.585 21.1 14.575V14.5H21V14.575C21 14.575 21 14.59 21 14.6Z" fill="#121516"/>
<path d="M21.1045 14.7901C21.0495 14.7401 20.9795 14.7151 20.9045 14.7151C20.8295 14.7151 20.7595 14.7401 20.7095 14.7901C20.6545 14.8401 20.6245 14.9101 20.6295 14.9801V15.1251C20.6245 15.1801 20.6645 15.2301 20.7195 15.2351C20.7245 15.2351 20.7345 15.2351 20.7395 15.2351H21.0645V15.2851C21.0645 15.3151 21.0545 15.3501 21.0295 15.3701C20.9995 15.3901 20.9595 15.4001 20.9245 15.4001H20.3445C20.3095 15.4001 20.2695 15.3851 20.2445 15.3601C20.2195 15.3251 20.2095 15.2851 20.2095 15.2401C20.2095 15.1651 20.1845 15.0951 20.1345 15.0451C20.0795 14.9951 20.0095 14.9651 19.9345 14.9651H18.9695C18.9445 14.9601 18.9145 14.9601 18.8895 14.9651L18.8095 15.0151V14.5801H18.7295V15.4001H18.3045C18.2145 15.4001 18.1695 15.3551 18.1695 15.2601V14.6251H18.0895M18.0645 14.6501V15.2851C18.0645 15.3501 18.0845 15.4151 18.1295 15.4651C18.1795 15.5151 18.2445 15.5401 18.3145 15.5351H19.9795C20.0545 15.5351 20.1245 15.5101 20.1795 15.4601V15.4301C20.1795 15.4301 20.2045 15.4651 20.2195 15.4801C20.2595 15.5151 20.3145 15.5351 20.3695 15.5351H20.9445C21.0145 15.5351 21.0795 15.5151 21.1295 15.4651C21.1795 15.4201 21.2095 15.3501 21.2045 15.2801V15.0001C21.2045 14.9201 21.1695 14.8401 21.1045 14.7901L18.0645 14.6501V14.6501ZM20.0495 15.3551C20.0195 15.3851 19.9795 15.4001 19.9345 15.4001H18.8095V15.2251C18.8095 15.1851 18.8245 15.1451 18.8545 15.1201C18.8845 15.0901 18.9245 15.0751 18.9695 15.0751H19.9345C19.9795 15.0751 20.0195 15.0951 20.0495 15.1251C20.0845 15.1551 20.0995 15.1951 20.0995 15.2401C20.0995 15.2851 20.0845 15.3251 20.0495 15.3551ZM21.0495 15.1201H20.7295V15.0001C20.7295 14.9601 20.7445 14.9201 20.7745 14.8901C20.8395 14.8301 20.9395 14.8301 21.0045 14.8901C21.0395 14.9201 21.0545 14.9601 21.0545 15.0051V15.1201H21.0495Z" fill="#121516"/>
<path d="M14.3847 15.3H14.1947C14.1947 15.3 14.1797 15.3 14.1697 15.3V15.225C14.1697 15.18 14.1797 15.14 14.2097 15.105C14.2447 15.08 14.2897 15.065 14.3347 15.07H14.4497V15.01C14.4497 15.01 14.4497 14.985 14.4197 14.985H14.3097C14.2347 14.98 14.1597 15.005 14.1097 15.06C14.0547 15.125 14.0297 15.205 14.0347 15.285C14.0347 15.33 14.0397 15.375 14.0647 15.415C14.0947 15.445 14.1347 15.46 14.1747 15.455H14.3997V15.515C14.3997 15.555 14.3897 15.59 14.3597 15.615C14.3197 15.635 14.2797 15.65 14.2347 15.645H13.1847C13.1397 15.645 13.0997 15.63 13.0647 15.605C13.0097 15.575 12.9847 15.51 12.9997 15.45V15.155H12.9397C12.9397 15.155 12.9147 15.155 12.9147 15.185V15.475C12.9097 15.545 12.9347 15.615 12.9847 15.665C13.0397 15.715 13.1147 15.74 13.1897 15.735H14.2597C14.3347 15.735 14.4047 15.715 14.4647 15.67C14.5197 15.625 14.5497 15.555 14.5447 15.485C14.5447 15.44 14.5347 15.395 14.5097 15.36C14.4797 15.325 14.4347 15.3 14.3847 15.3V15.3Z" fill="#121516"/>
<path d="M16.575 14.955L16.175 14.665H16.14L16.1 14.715L16.205 14.79L16.14 14.815C16.1 14.835 16.065 14.865 16.035 14.905C16 14.95 15.98 15.005 15.98 15.06C15.99 15.175 16.05 15.28 16.145 15.345H14.99C14.925 15.355 14.86 15.315 14.85 15.25C14.85 15.235 14.85 15.22 14.85 15.205V14.625H14.775C14.775 14.625 14.75 14.625 14.75 14.65V15.285C14.75 15.35 14.77 15.415 14.815 15.465C14.87 15.505 14.935 15.515 15 15.5H15.94C16.05 15.5 16.16 15.49 16.265 15.455C16.365 15.54 16.485 15.59 16.615 15.605C16.695 15.605 16.77 15.57 16.815 15.5C16.855 15.455 16.875 15.395 16.875 15.335C16.875 15.225 16.77 15.095 16.575 14.955ZM16.1 15.1C16.1 15.065 16.115 15.035 16.135 15.01C16.15 14.985 16.17 14.97 16.195 14.96C16.225 14.955 16.25 14.955 16.28 14.96C16.32 14.96 16.355 14.97 16.385 14.995C16.43 15.02 16.45 15.07 16.45 15.12C16.45 15.165 16.435 15.21 16.41 15.245C16.38 15.285 16.345 15.325 16.305 15.355L16.18 15.24C16.135 15.205 16.11 15.155 16.1 15.1V15.1ZM16.725 15.435C16.7 15.48 16.65 15.505 16.6 15.505C16.515 15.495 16.44 15.465 16.375 15.41C16.425 15.38 16.465 15.345 16.5 15.3C16.545 15.24 16.57 15.17 16.57 15.1C16.615 15.135 16.655 15.175 16.695 15.215C16.735 15.255 16.76 15.31 16.765 15.365C16.76 15.39 16.745 15.415 16.725 15.435V15.435Z" fill="#121516"/>
</g>
<defs>
<clipPath id="clip0_987_160222">
<rect width="24" height="24" fill="white"/>
</clipPath>
</defs>
</svg>
