<svg width="48" height="48" viewBox="0 0 24 24" fill="none" xmlns="http://www.w3.org/2000/svg">
<path d="M5.88518 7.37375L4.71518 5.34375C3.83761 6.2297 3.15029 7.2856 2.69538 8.44667C2.24046 9.60774 2.02755 10.8495 2.06968 12.0958C2.11182 13.3421 2.40812 14.5666 2.94042 15.6943C3.47271 16.822 4.22978 17.8291 5.16518 18.6538C4.00711 16.9636 3.44875 14.9342 3.57926 12.8895C3.70977 10.8449 4.52162 8.90292 5.88518 7.37375V7.37375Z" fill="#00ADEE"/>
<path d="M6.46564 9.42555L5.68064 8.06055C4.67055 9.47154 4.08251 11.1407 3.98513 12.8732C3.88774 14.6057 4.28503 16.3303 5.13064 17.8455C4.6539 16.439 4.52632 14.9376 4.75889 13.4708C4.99146 12.0039 5.5772 10.6157 6.46564 9.42555Z" fill="#00ADEE"/>
<path d="M6.06469 16.7103L6.21969 16.8353C6.99481 15.9489 7.41827 14.8092 7.40998 13.6318C7.40169 12.4543 6.96222 11.3207 6.17469 10.4453L6.05469 10.6003C6.59734 11.5304 6.88213 12.5885 6.87969 13.6653C6.88234 14.7346 6.60109 15.7853 6.06469 16.7103V16.7103Z" fill="#231F20"/>
<path d="M5.63086 15.9601L5.72586 16.0401C6.28813 15.4336 6.60055 14.6371 6.60055 13.8101C6.60055 12.9831 6.28813 12.1866 5.72586 11.5801L5.64086 11.6851C5.9754 12.3413 6.1469 13.0685 6.14086 13.8051C6.15176 14.5545 5.97653 15.295 5.63086 15.9601V15.9601Z" fill="#231F20"/>
<path d="M8.78516 13.2197V11.6047H9.39516C9.47668 11.5979 9.55863 11.5979 9.64016 11.6047C9.71105 11.6166 9.77897 11.642 9.84016 11.6797C9.89494 11.7206 9.93945 11.7737 9.97016 11.8347C10.0034 11.9033 10.0205 11.9786 10.0202 12.0547C10.0236 12.1838 9.97706 12.3092 9.89016 12.4047C9.82179 12.4629 9.74188 12.5058 9.6557 12.5308C9.56951 12.5558 9.47901 12.5623 9.39016 12.5497H9.00016V13.2047L8.78516 13.2197ZM9.00016 12.3747H9.42016C9.52326 12.3834 9.62608 12.355 9.71016 12.2947C9.74026 12.2679 9.76398 12.2347 9.77955 12.1975C9.79512 12.1602 9.80217 12.12 9.80016 12.0797C9.8005 12.0178 9.78315 11.9571 9.75016 11.9047C9.71667 11.8592 9.66928 11.8259 9.61516 11.8097C9.54869 11.8024 9.48162 11.8024 9.41516 11.8097H9.00016V12.3747Z" fill="#00ADEE"/>
<path d="M9.94531 13.2205L10.5653 11.6055H10.7953L11.4553 13.2205H11.2153L11.0253 12.7205H10.3503L10.1753 13.2205H9.94531ZM10.4103 12.5555H10.9603L10.7903 12.1105C10.7403 11.9755 10.7003 11.8655 10.6753 11.7755C10.654 11.8806 10.6256 11.9842 10.5903 12.0855L10.4103 12.5555Z" fill="#00ADEE"/>
<path d="M11.6309 13.2194V11.6044H12.3459C12.4577 11.5995 12.5695 11.6147 12.6759 11.6494C12.7517 11.6793 12.8151 11.7339 12.8559 11.8044C12.9007 11.8763 12.9233 11.9598 12.9209 12.0444C12.9225 12.0976 12.9136 12.1506 12.8947 12.2004C12.8758 12.2501 12.8473 12.2957 12.8109 12.3344C12.7168 12.4231 12.5948 12.4761 12.4659 12.4844C12.5121 12.506 12.5557 12.5329 12.5959 12.5644C12.6633 12.6295 12.7237 12.7016 12.7759 12.7794L13.0559 13.2194H12.7859L12.5709 12.8844C12.523 12.8069 12.4713 12.7318 12.4159 12.6594C12.3863 12.6194 12.3509 12.584 12.3109 12.5544C12.2795 12.5353 12.2459 12.5202 12.2109 12.5094H11.8459V13.2244L11.6309 13.2194ZM11.8459 12.3194H12.3059C12.3837 12.3221 12.4614 12.312 12.5359 12.2894C12.5874 12.2707 12.6313 12.2356 12.6609 12.1894C12.6869 12.1456 12.7008 12.0955 12.7009 12.0444C12.7024 12.0096 12.6961 11.9748 12.6822 11.9427C12.6683 11.9107 12.6474 11.8822 12.6209 11.8594C12.5446 11.803 12.4504 11.7764 12.3559 11.7844H11.8559L11.8459 12.3194Z" fill="#00ADEE"/>
<path d="M13.1857 12.6993H13.3857C13.3913 12.7686 13.4136 12.8355 13.4507 12.8943C13.492 12.9526 13.5493 12.9978 13.6157 13.0243C13.6935 13.0554 13.7768 13.0707 13.8607 13.0693C13.9339 13.0719 14.007 13.06 14.0757 13.0343C14.131 13.015 14.1796 12.9803 14.2157 12.9343C14.2453 12.8936 14.261 12.8445 14.2607 12.7943C14.2638 12.7475 14.2496 12.7012 14.2207 12.6643C14.182 12.6199 14.1318 12.587 14.0757 12.5693C13.981 12.5357 13.8841 12.5089 13.7857 12.4893C13.679 12.4673 13.5751 12.4337 13.4757 12.3893C13.4049 12.3559 13.3445 12.3041 13.3007 12.2393C13.2651 12.1786 13.2461 12.1096 13.2457 12.0393C13.2458 11.9574 13.2702 11.8773 13.3157 11.8093C13.3643 11.7366 13.4341 11.6808 13.5157 11.6493C13.6107 11.61 13.7129 11.5913 13.8157 11.5943C13.9234 11.5903 14.0307 11.6091 14.1307 11.6493C14.2149 11.6856 14.2876 11.7444 14.3407 11.8193C14.39 11.8954 14.4176 11.9836 14.4207 12.0743H14.2157C14.2107 11.9861 14.1712 11.9034 14.1057 11.8443C14.0231 11.7847 13.9221 11.7564 13.8207 11.7643C13.7223 11.7576 13.6243 11.7821 13.5407 11.8343C13.5131 11.8544 13.4906 11.8808 13.475 11.9111C13.4594 11.9415 13.4511 11.9751 13.4507 12.0093C13.4497 12.0361 13.4551 12.0627 13.4664 12.0871C13.4777 12.1114 13.4946 12.1327 13.5157 12.1493C13.6116 12.2126 13.7213 12.252 13.8357 12.2643C13.9585 12.2885 14.079 12.3236 14.1957 12.3693C14.2767 12.4063 14.3471 12.463 14.4007 12.5343C14.4476 12.6016 14.4721 12.6821 14.4707 12.7643C14.4704 12.85 14.4443 12.9337 14.3957 13.0043C14.344 13.0828 14.2712 13.1452 14.1857 13.1843C14.0858 13.2252 13.9786 13.2456 13.8707 13.2443C13.7463 13.2471 13.6225 13.2268 13.5057 13.1843C13.4108 13.1423 13.3294 13.0748 13.2707 12.9893C13.2131 12.9037 13.1834 12.8024 13.1857 12.6993V12.6993Z" fill="#00ADEE"/>
<path d="M15.3809 13.2205V11.6055H15.5909V13.0305H16.3859V13.2205H15.3809Z" fill="#00ADEE"/>
<path d="M16.4648 13.2205L17.0848 11.6055H17.3148L17.9998 13.2205H17.7548L17.5648 12.7205H16.8698L16.6898 13.2205H16.4648ZM16.9298 12.5555H17.4998L17.3348 12.1105C17.2899 12.0012 17.2515 11.8893 17.2198 11.7755C17.1991 11.8813 17.169 11.985 17.1298 12.0855L16.9298 12.5555Z" fill="#00ADEE"/>
<path d="M18.1504 13.2195V11.6045H18.8654C18.9756 11.5994 19.0857 11.6147 19.1904 11.6495C19.2662 11.6793 19.3297 11.7339 19.3704 11.8045C19.4167 11.8759 19.441 11.9593 19.4404 12.0445C19.4418 12.1525 19.4004 12.2567 19.3254 12.3345C19.2402 12.4265 19.125 12.485 19.0004 12.4995C19.046 12.5223 19.0895 12.549 19.1304 12.5795C19.1962 12.6447 19.2549 12.7168 19.3054 12.7945L19.5854 13.2345H19.3004L19.0904 12.8995C19.0254 12.7995 18.9754 12.7295 18.9354 12.6745C18.9054 12.6331 18.8681 12.5975 18.8254 12.5695C18.7958 12.5504 18.7639 12.5353 18.7304 12.5245H18.3604V13.2395L18.1504 13.2195ZM18.3604 12.3195H18.8204C18.8982 12.3225 18.976 12.3124 19.0504 12.2895C19.1 12.2704 19.1428 12.2368 19.1731 12.1931C19.2034 12.1494 19.2199 12.0976 19.2204 12.0445C19.221 12.0092 19.2137 11.9743 19.199 11.9423C19.1843 11.9102 19.1625 11.8819 19.1354 11.8595C19.0591 11.8031 18.9649 11.7764 18.8704 11.7845H18.3704L18.3604 12.3195Z" fill="#00ADEE"/>
<path d="M19.8105 13.2205V11.6055H20.0255V13.2205H19.8105Z" fill="#00ADEE"/>
<path d="M20.3945 13.2205V11.6055H20.7145L21.0945 12.7505C21.1295 12.8555 21.1595 12.9355 21.1745 12.9855C21.1745 12.9305 21.2195 12.8405 21.2595 12.7305L21.6445 11.6055H21.9345V13.2205H21.7295V11.8705L21.2595 13.2205H21.0645L20.5995 11.8455V13.2205H20.3945Z" fill="#00ADEE"/>
<path d="M12.4646 14.7598C12.4687 14.7973 12.4579 14.835 12.4346 14.8648C12.4208 14.8762 12.4048 14.8847 12.3876 14.8898C12.3705 14.895 12.3524 14.8967 12.3346 14.8948H9.86962C9.74462 14.8948 9.67962 14.8548 9.67962 14.7798C9.67962 14.5098 9.58462 14.3698 9.39962 14.3698H9.04462C8.99665 14.3668 8.9486 14.3742 8.90374 14.3915C8.85887 14.4087 8.81825 14.4354 8.78462 14.4698C8.72548 14.5451 8.69532 14.6391 8.69962 14.7348V15.4998H8.86962V14.7148C8.86883 14.6907 8.87387 14.6667 8.88431 14.6449C8.89476 14.6232 8.9103 14.6042 8.92962 14.5898C8.9684 14.5602 9.01588 14.5444 9.06462 14.5448V14.7548C9.06296 14.798 9.07008 14.8411 9.08555 14.8815C9.10102 14.9219 9.12452 14.9587 9.15462 14.9898C9.18475 15.0197 9.22071 15.0432 9.26027 15.0587C9.29984 15.0742 9.34216 15.0813 9.38462 15.0798C9.43165 15.0844 9.47893 15.0738 9.51945 15.0495C9.55998 15.0252 9.59159 14.9885 9.60962 14.9448C9.63394 14.9908 9.67254 15.0276 9.71962 15.0498C9.74763 15.0559 9.77662 15.0559 9.80462 15.0498H12.3896C12.4247 15.0506 12.4594 15.0428 12.4908 15.0271C12.5222 15.0114 12.5492 14.9883 12.5696 14.9598C12.6154 14.9052 12.6402 14.836 12.6396 14.7648V14.4998H12.4646V14.7598ZM9.37462 14.9048C9.34353 14.9133 9.31072 14.9133 9.27962 14.9048C9.26579 14.8942 9.25455 14.8806 9.24676 14.865C9.23896 14.8494 9.23481 14.8322 9.23462 14.8148V14.5698C9.31843 14.5596 9.4034 14.5735 9.47962 14.6098C9.50153 14.6618 9.51013 14.7186 9.50462 14.7748C9.49962 14.8548 9.46462 14.9048 9.37462 14.9048Z" fill="#121516"/>
<path d="M13.5845 15.125C13.5854 15.1631 13.5761 15.2008 13.5577 15.2342C13.5392 15.2676 13.5122 15.2955 13.4795 15.315C13.4155 15.3564 13.3405 15.3773 13.2645 15.375H13.0645L13.0945 15.555H13.3295C13.389 15.5563 13.4481 15.5444 13.5026 15.5202C13.557 15.496 13.6055 15.4601 13.6445 15.415C13.723 15.3231 13.7657 15.2059 13.7645 15.085V14.5H13.5845V15.125Z" fill="#121516"/>
<path d="M14.67 14.7249C14.6789 14.7678 14.6789 14.812 14.67 14.8549C14.6582 14.8696 14.6427 14.881 14.6252 14.888C14.6077 14.895 14.5887 14.8974 14.57 14.8949H14.36C14.3129 14.9009 14.2652 14.8903 14.225 14.8649C14.1989 14.8232 14.1883 14.7737 14.195 14.7249V13.9199H14V14.8049C14 14.9799 14.115 15.0699 14.34 15.0699H14.56C14.6332 15.0732 14.7048 15.0481 14.76 14.9999C14.7856 14.9746 14.8055 14.9441 14.8184 14.9105C14.8313 14.8768 14.837 14.8409 14.835 14.8049V13.9199H14.665L14.67 14.7249Z" fill="#121516"/>
<path d="M17.5694 14.81C17.5694 14.885 17.5294 14.92 17.4494 14.92C17.4105 14.9208 17.3729 14.9064 17.3444 14.88C17.3298 14.8678 17.3181 14.8525 17.3103 14.8352C17.3025 14.8179 17.2988 14.799 17.2994 14.78V14.5H17.1294V14.79C17.1294 14.865 17.0894 14.9 17.0044 14.9C16.9657 14.8998 16.9284 14.8856 16.8994 14.86C16.8848 14.8478 16.8731 14.8325 16.8653 14.8152C16.8575 14.7979 16.8538 14.779 16.8544 14.76V14.5H16.6794V15.05C16.6807 15.0859 16.6748 15.1217 16.6619 15.1552C16.649 15.1887 16.6294 15.2193 16.6044 15.245C16.5777 15.2702 16.5463 15.2898 16.5119 15.3027C16.4776 15.3156 16.441 15.3215 16.4044 15.32H16.1094C16.0727 15.3218 16.036 15.316 16.0016 15.3031C15.9672 15.2902 15.9359 15.2704 15.9094 15.245C15.8826 15.2203 15.8616 15.19 15.8478 15.1563C15.834 15.1227 15.8277 15.0864 15.8294 15.05V14.675H15.6544V15.04C15.6523 15.158 15.6952 15.2724 15.7744 15.36C15.8152 15.402 15.8643 15.4352 15.9184 15.4575C15.9726 15.4799 16.0308 15.4909 16.0894 15.49H16.4244C16.4853 15.4922 16.5459 15.4802 16.6014 15.455C16.6569 15.4299 16.7058 15.3922 16.7444 15.345C16.8197 15.2461 16.8585 15.1242 16.8544 15C16.9132 15.0408 16.9828 15.0634 17.0544 15.065C17.0955 15.065 17.136 15.0545 17.1719 15.0343C17.2078 15.0142 17.2379 14.9851 17.2594 14.95C17.3226 15.0192 17.4107 15.0605 17.5044 15.065C17.5396 15.0672 17.5749 15.0601 17.6065 15.0443C17.6381 15.0285 17.665 15.0046 17.6844 14.975C17.7256 14.9147 17.7466 14.843 17.7444 14.77V14.5H17.5694V14.81Z" fill="#121516"/>
<path d="M18.3509 15.08C18.3519 15.1181 18.3426 15.1558 18.3242 15.1892C18.3057 15.2226 18.2787 15.2505 18.2459 15.27C18.182 15.3114 18.107 15.3323 18.0309 15.33H17.8359V15.51H18.0709C18.1305 15.5113 18.1896 15.4994 18.2441 15.4752C18.2985 15.451 18.347 15.4151 18.3859 15.37C18.4645 15.2781 18.5071 15.1609 18.5059 15.04V14.5H18.3509V15.08Z" fill="#121516"/>
<path d="M21.7604 15.2657C21.7465 15.2652 21.7326 15.2676 21.7197 15.2728C21.7068 15.2779 21.6951 15.2857 21.6854 15.2957C21.6648 15.3175 21.6525 15.3458 21.6504 15.3757C21.6504 15.4357 21.6904 15.4707 21.7754 15.4707C21.8604 15.4707 21.8854 15.4357 21.8854 15.3757C21.8854 15.3157 21.8454 15.2657 21.7604 15.2657Z" fill="#121516"/>
<path d="M21.7354 14.5V14.74C21.7395 14.7776 21.7287 14.8152 21.7054 14.845C21.6916 14.8564 21.6756 14.8649 21.6584 14.8701C21.6413 14.8752 21.6232 14.8769 21.6054 14.875H19.1054C19.0543 14.8854 19.0016 14.8854 18.9504 14.875C18.9504 14.875 18.9104 14.805 18.9104 14.725V14H18.7354V14.83C18.7323 14.8625 18.7361 14.8953 18.7464 14.9263C18.7568 14.9573 18.7734 14.9858 18.7954 15.01C18.8683 15.0665 18.9582 15.0965 19.0504 15.095H21.6404C21.6755 15.0958 21.7102 15.088 21.7416 15.0724C21.773 15.0567 21.8 15.0335 21.8204 15.005C21.8648 14.9499 21.8878 14.8807 21.8854 14.81V14.5H21.7354Z" fill="#121516"/>
<path d="M21.5495 15.3757C21.5495 15.3057 21.5095 15.2657 21.4245 15.2657C21.4106 15.2652 21.3967 15.2676 21.3838 15.2728C21.3709 15.2779 21.3592 15.2857 21.3495 15.2957C21.3289 15.3175 21.3165 15.3458 21.3145 15.3757C21.3145 15.4357 21.3595 15.4707 21.4395 15.4707C21.5195 15.4707 21.5495 15.4357 21.5495 15.3757Z" fill="#121516"/>
<path d="M21.6703 15.5396C21.6426 15.5311 21.613 15.5311 21.5853 15.5396C21.5707 15.5371 21.5558 15.5381 21.5417 15.5425C21.5276 15.5468 21.5147 15.5544 21.504 15.5646C21.4933 15.5747 21.4852 15.5873 21.4802 15.6012C21.4752 15.6151 21.4735 15.6299 21.4753 15.6446C21.4753 15.7096 21.5203 15.7396 21.6003 15.7396C21.6803 15.7396 21.7103 15.7096 21.7103 15.6446C21.7165 15.6251 21.716 15.6041 21.7087 15.5851C21.7014 15.566 21.6879 15.5499 21.6703 15.5396V15.5396Z" fill="#121516"/>
<path d="M12.1141 15.5759C12.1804 15.5759 12.2341 15.5222 12.2341 15.4559C12.2341 15.3897 12.1804 15.3359 12.1141 15.3359C12.0479 15.3359 11.9941 15.3897 11.9941 15.4559C11.9941 15.5222 12.0479 15.5759 12.1141 15.5759Z" fill="#121516"/>
<path d="M12.4559 15.5759C12.5222 15.5759 12.5759 15.5222 12.5759 15.4559C12.5759 15.3897 12.5222 15.3359 12.4559 15.3359C12.3897 15.3359 12.3359 15.3897 12.3359 15.4559C12.3359 15.5222 12.3897 15.5759 12.4559 15.5759Z" fill="#121516"/>
</svg>
