<svg width="48" height="48" viewBox="0 0 24 24" fill="none" xmlns="http://www.w3.org/2000/svg">
<g clip-path="url(#clip0_987_160248)">
<path d="M13.9995 8.4193L14.1545 8.2493C14.2095 8.1893 14.2845 8.1543 14.3645 8.1543H16.8645L17.6945 7.1543H13.9245L10.6895 10.8743H11.9695L12.9695 9.6693H15.5495L16.3795 8.6693H14.1295C14.0345 8.6543 13.9695 8.5643 13.9845 8.4693C13.9845 8.4543 13.9945 8.4343 13.9995 8.4193V8.4193Z" fill="#0D64AB"/>
<path d="M13.5906 7.17578H10.5006L9.64063 8.00078H11.6406L9.94062 10.0008H7.76562V10.3258C7.76562 10.6358 8.02063 10.8858 8.33063 10.8908H10.3556L13.5906 7.17578V7.17578Z" fill="#0D64AB"/>
<path d="M17.9499 7.1543L15.7499 9.8743H13.1099L12.2949 10.8743H14.9399H15.8499H16.2699L19.2799 7.1543H17.9499Z" fill="#0D64AB"/>
<path d="M16.1252 11.1094H8.31516C7.80516 11.1194 7.38016 10.7144 7.37016 10.2044C7.36516 9.93937 7.47516 9.67937 7.67516 9.49937L10.0002 7.25437C10.1352 7.12437 10.3152 7.04937 10.5002 7.04437H18.5002L19.0552 6.35938H10.8052C10.1802 6.35938 9.57516 6.58937 9.10516 6.99937L5.69516 10.0594C5.34016 10.3394 5.27516 10.8544 5.55516 11.2094C5.66516 11.3544 5.82516 11.4544 6.00016 11.4994C6.10516 11.5294 6.22016 11.5444 6.33016 11.5444L15.7202 11.5744L16.1252 11.1094V11.1094Z" fill="#0D64AB"/>
<path d="M18.8594 7.04437H19.3644L19.9144 6.35938H19.4144L18.8594 7.04437Z" fill="#0D64AB"/>
<path d="M19.6348 7.04437H20.1398L20.6948 6.35938H20.1898L19.6348 7.04437Z" fill="#0D64AB"/>
<path d="M20.4492 7.04437H20.9542L21.5042 6.35938H21.0042L20.4492 7.04437Z" fill="#0D64AB"/>
<path d="M8.75961 13.5755C8.67961 13.5905 8.59461 13.6005 8.51461 13.6005C8.47461 13.6005 8.43461 13.6005 8.39461 13.6005C8.33961 13.6005 8.30961 13.5705 8.30961 13.5405C8.30961 13.5105 8.33461 13.4905 8.38961 13.4755C8.43461 13.4605 8.47961 13.4505 8.52961 13.4505C8.56461 13.4505 8.59461 13.4505 8.62961 13.4505H8.72961C8.72961 13.4505 8.75961 13.4505 8.75961 13.4055C8.75961 13.3955 8.75961 13.3805 8.75961 13.3705C8.74461 13.3155 8.71461 13.2655 8.66961 13.2255C8.62461 13.1805 8.56461 13.1555 8.49961 13.1555C8.40461 13.1555 8.31961 13.2005 8.25961 13.2705C8.19461 13.3355 8.15461 13.4255 8.15461 13.5205C8.15961 13.5555 8.17961 13.5905 8.20961 13.6105C8.18961 13.6155 8.16961 13.6155 8.14961 13.6105H8.07961C8.02961 13.6105 7.99461 13.5755 7.96961 13.5055L7.82461 13.1055L7.65461 13.2805L7.78461 13.5855C7.78461 13.5855 7.78461 13.6205 7.71961 13.6355C7.68461 13.6355 7.64461 13.6355 7.60961 13.6355C7.56461 13.6355 7.52461 13.6255 7.49461 13.5905L7.46961 13.5155C7.46961 13.4905 7.43961 13.4705 7.41461 13.4705C7.38461 13.4705 7.36461 13.5005 7.34961 13.5655C7.34961 13.6055 7.34961 13.6505 7.34961 13.6905C7.34961 13.8755 7.42961 13.9705 7.58961 13.9705C7.65461 13.9705 7.71461 13.9505 7.76461 13.9155C7.81461 13.8655 7.85461 13.8105 7.88461 13.7505C7.94961 13.8805 8.02961 13.9455 8.12461 13.9455H8.20461C8.25461 13.9455 8.30961 13.9355 8.35961 13.9205C8.41461 13.9105 8.46461 13.8855 8.50961 13.8555H8.75961C8.75961 13.8555 8.75961 13.8055 8.80961 13.7055L8.84961 13.5605C8.84961 13.5605 8.84961 13.5405 8.84961 13.5305C8.84961 13.5305 8.77961 13.5705 8.75961 13.5755V13.5755Z" fill="#0D64AB"/>
<path d="M9.16094 13.5H9.13094L9.01094 13.755C9.12594 13.865 9.18094 13.935 9.18094 13.965C9.18094 13.995 9.11594 14.065 8.98594 14.155C8.90594 14.215 8.82094 14.265 8.73594 14.31C8.73594 14.31 8.71094 14.31 8.71094 14.35C8.71094 14.39 8.71094 14.4 8.77094 14.4H9.13594C9.13594 14.4 9.16594 14.405 9.18094 14.4C9.29094 14.275 9.34594 14.115 9.33594 13.95C9.33594 13.86 9.32594 13.77 9.29094 13.685C9.26094 13.615 9.21594 13.55 9.16094 13.5V13.5Z" fill="#0D64AB"/>
<path d="M10.2842 13.5995C10.3242 13.5745 10.3692 13.5595 10.4192 13.5595C10.4592 13.5595 10.4992 13.5695 10.5392 13.5845H10.6242C10.6242 13.5845 10.6492 13.5845 10.6492 13.5095C10.6492 13.4545 10.6242 13.4045 10.5892 13.3645C10.5542 13.3045 10.4942 13.2695 10.4242 13.2695C10.3192 13.2695 10.2342 13.3345 10.1592 13.4745C10.1042 13.5645 10.0742 13.6595 10.0692 13.7645C10.0692 13.8345 10.1242 13.8845 10.2292 13.9045L10.4842 13.9295H10.5242L10.4992 13.9545C10.3842 13.9945 10.2642 14.0145 10.1392 14.0145C9.89422 14.0145 9.76922 13.9395 9.76922 13.7995C9.76922 13.7745 9.76922 13.7495 9.76922 13.7245C9.76922 13.6995 9.76922 13.6795 9.76922 13.6545C9.76922 13.5995 9.76922 13.5745 9.70422 13.5745C9.63922 13.5745 9.63422 13.6345 9.60922 13.7445C9.58922 13.8145 9.57422 13.8845 9.57422 13.9545C9.57422 14.2195 9.72922 14.3495 10.0342 14.3495C10.4342 14.3495 10.6342 14.1845 10.6342 13.8495C10.6342 13.7445 10.5942 13.6795 10.5142 13.6595L10.3292 13.6345C10.2592 13.6345 10.2242 13.6245 10.2242 13.6045C10.2242 13.5745 10.2542 13.6245 10.2842 13.5995V13.5995Z" fill="#0D64AB"/>
<path d="M11.4999 13.0859C11.4349 13.0859 11.3849 13.1259 11.3399 13.2109C11.3049 13.2759 11.2899 13.3509 11.2899 13.4259C11.2899 13.5309 11.3549 13.5859 11.4849 13.5859C11.5249 13.5959 11.5699 13.5959 11.6099 13.5859H11.6349C11.6349 13.5859 11.6349 13.6059 11.6349 13.6159C11.5399 13.6409 11.4399 13.6509 11.3399 13.6409H11.2599C11.2099 13.6409 11.1649 13.6209 11.1299 13.5909L10.9999 13.5009H10.9699L10.8449 13.7559C10.9599 13.8659 11.0199 13.9359 11.0199 13.9659C11.0199 13.9959 10.9549 14.0659 10.8249 14.1559C10.7449 14.2109 10.6599 14.2659 10.5749 14.3109C10.5549 14.3109 10.5449 14.3309 10.5449 14.3509C10.5449 14.3859 10.5449 14.4009 10.6099 14.4009H10.9999C10.9999 14.4009 11.0299 14.4059 11.0449 14.4009C11.0849 14.3609 11.1149 14.3109 11.1349 14.2559C11.1599 14.1959 11.1799 14.1309 11.1799 14.0659V14.0009C11.1799 14.0009 11.2149 14.0009 11.2349 14.0009H11.3349C11.5549 14.0259 11.7549 13.8709 11.7799 13.6509C11.7799 13.6159 11.7799 13.5809 11.7799 13.5459C11.7799 13.4459 11.7599 13.3509 11.7199 13.2609C11.6899 13.1609 11.6049 13.0909 11.4999 13.0859V13.0859ZM11.4999 13.3859C11.4449 13.3859 11.4149 13.3859 11.4149 13.3559C11.4149 13.3409 11.4249 13.3259 11.4399 13.3159H11.4849C11.4849 13.3159 11.5249 13.3109 11.5449 13.3159C11.5699 13.3159 11.5849 13.3459 11.5849 13.3609C11.5849 13.3759 11.5549 13.3859 11.4999 13.3859V13.3859Z" fill="#0D64AB"/>
<path d="M11.3359 12.9995L11.4409 12.8945V12.8695L11.3359 12.7695H11.3109L11.2109 12.8695V12.8945L11.3359 12.9995Z" fill="#0D64AB"/>
<path d="M13.4196 13.3496C13.3446 13.3496 13.2746 13.3846 13.2346 13.4446C13.2096 13.4846 13.1946 13.5346 13.1896 13.5846C13.1896 13.6246 13.1546 13.6446 13.0896 13.6446H13.0546C13.0246 13.6446 12.9946 13.6296 12.9846 13.5996V13.5146C12.9846 13.5146 12.9596 13.4696 12.9346 13.4696C12.9096 13.4696 12.8896 13.4896 12.8846 13.5146C12.8846 13.5446 12.8846 13.5696 12.8846 13.5996C12.8796 13.6246 12.8546 13.6446 12.8246 13.6446C12.7946 13.6446 12.7646 13.6246 12.7596 13.5946V13.5096C12.7596 13.5096 12.7346 13.4646 12.7096 13.4646C12.6846 13.4646 12.6646 13.4646 12.6596 13.5146C12.6546 13.5646 12.6596 13.5796 12.6346 13.5996C12.6296 13.6246 12.6046 13.6446 12.5746 13.6446C12.5446 13.6446 12.5146 13.6296 12.5046 13.5996C12.5046 13.5696 12.5046 13.5396 12.5046 13.5096C12.5046 13.4846 12.4796 13.4646 12.4546 13.4646C12.4546 13.4646 12.4146 13.4646 12.4046 13.5146V13.5996C12.3896 13.6296 12.3596 13.6496 12.3246 13.6446H12.2846C12.2196 13.6446 12.1846 13.6096 12.1846 13.5346V12.8496H12.1546L11.9296 13.0096V13.0596C11.9346 13.1596 11.9346 13.2546 11.9296 13.3546V13.6946C11.9046 13.8346 12.0046 13.9696 12.1446 13.9946C12.1696 13.9946 12.1946 13.9946 12.2196 13.9946H12.3196C12.3846 13.9896 12.4396 13.9496 12.4696 13.8896C12.4696 13.9296 12.4746 13.9696 12.4996 13.9996C12.5396 13.9996 12.5796 13.9696 12.6296 13.8996C12.6396 13.9296 12.6596 13.9496 12.6846 13.9696C12.7046 13.9896 12.7346 13.9996 12.7646 13.9996C12.8046 13.9996 12.8496 13.9696 12.8996 13.8996C12.9296 13.9546 12.9846 13.9946 13.0446 13.9996H13.1046C13.1646 13.9996 13.2096 13.9596 13.2446 13.8796C13.2846 13.9546 13.3646 14.0046 13.4546 14.0046C13.5196 14.0046 13.5796 13.9796 13.6196 13.9296C13.6646 13.8846 13.6846 13.8196 13.6846 13.7546C13.6846 13.6696 13.6646 13.5846 13.6296 13.5046C13.5996 13.4146 13.5146 13.3496 13.4196 13.3496V13.3496ZM13.5296 13.7646C13.4896 13.7646 13.4646 13.7396 13.4396 13.6896C13.4246 13.6546 13.4146 13.6146 13.4146 13.5746C13.4096 13.5596 13.4096 13.5496 13.4146 13.5346C13.4296 13.5346 13.4396 13.5346 13.4546 13.5346C13.4846 13.5346 13.5096 13.5346 13.5296 13.6046C13.5496 13.6346 13.5596 13.6746 13.5596 13.7096C13.5696 13.7446 13.5596 13.7646 13.5296 13.7646V13.7646Z" fill="#0D64AB"/>
<path d="M14.4541 13.5995C14.4941 13.5745 14.5391 13.5595 14.5891 13.5595C14.6291 13.5595 14.6691 13.5695 14.7091 13.5845H14.7941C14.7941 13.5845 14.8191 13.5845 14.8191 13.5095C14.8191 13.4545 14.7941 13.4045 14.7591 13.3645C14.7241 13.3045 14.6641 13.2695 14.5941 13.2695C14.4741 13.2795 14.3691 13.3595 14.3291 13.4745C14.2741 13.5645 14.2441 13.6595 14.2391 13.7645C14.2391 13.8345 14.2941 13.8845 14.3991 13.9045L14.6541 13.9295H14.6941L14.6691 13.9545C14.5541 13.9945 14.4341 14.0145 14.3091 14.0145C14.0641 14.0145 13.9391 13.9395 13.9391 13.7995C13.9391 13.7745 13.9391 13.7495 13.9391 13.7245C13.9391 13.6995 13.9391 13.6795 13.9391 13.6545C13.9391 13.5995 13.9391 13.5745 13.8741 13.5745C13.8091 13.5745 13.8041 13.6345 13.7791 13.7445C13.7591 13.8145 13.7441 13.8845 13.7441 13.9545C13.7441 14.2195 13.8991 14.3495 14.2041 14.3495C14.6041 14.3495 14.8041 14.1845 14.8041 13.8495C14.8041 13.7445 14.7641 13.6795 14.6841 13.6595L14.4991 13.6895C14.4291 13.6895 14.3941 13.6795 14.3941 13.6595C14.3941 13.6295 14.4241 13.6245 14.4541 13.5995V13.5995Z" fill="#0D64AB"/>
<path d="M15.5657 13.1596H15.5207C15.5207 13.1596 15.4957 13.1596 15.4857 13.1946L15.3807 13.4296L15.4257 13.4596C15.3757 13.4846 15.3457 13.5396 15.3507 13.5996C15.3457 13.6196 15.3457 13.6446 15.3507 13.6646H15.2757C15.2157 13.6646 15.1807 13.6296 15.1807 13.5546V12.8496H15.1507L14.9257 13.0096V13.0596C14.9307 13.1596 14.9307 13.2546 14.9257 13.3546V13.6946C14.9007 13.8346 15.0007 13.9696 15.1407 13.9946C15.1657 13.9946 15.1907 13.9946 15.2157 13.9946H15.3957C15.4757 13.9896 15.5507 13.9496 15.6007 13.8896C15.6607 13.9446 15.7357 13.9796 15.8157 13.9946C15.8757 13.9946 15.9257 13.9546 15.9657 13.8746C16.0007 13.8246 16.0157 13.7646 16.0207 13.7046C16.0207 13.5746 15.9607 13.4546 15.8607 13.3746C15.7707 13.2896 15.6757 13.2196 15.5657 13.1596V13.1596ZM15.6357 13.6246C15.6357 13.6246 15.6007 13.6296 15.5857 13.6246C15.5657 13.6296 15.5457 13.6296 15.5257 13.6246C15.4957 13.6246 15.4857 13.5946 15.4857 13.5796C15.4857 13.5646 15.4857 13.5446 15.5207 13.5296C15.5407 13.5296 15.5607 13.5296 15.5807 13.5296C15.6007 13.5246 15.6157 13.5246 15.6357 13.5296C15.6507 13.5396 15.6607 13.5596 15.6607 13.5796C15.6607 13.5996 15.6507 13.6146 15.6357 13.6246ZM15.8557 13.7946C15.8557 13.7946 15.8057 13.7796 15.7857 13.7696L15.7257 13.7296C15.7607 13.7096 15.7857 13.6696 15.7807 13.6246C15.8507 13.6746 15.8907 13.7196 15.8907 13.7546C15.8907 13.7896 15.8757 13.7946 15.8557 13.7946V13.7946Z" fill="#0D64AB"/>
<path d="M16.3055 13.5H16.2805L16.1555 13.755C16.2705 13.865 16.3305 13.935 16.3305 13.965C16.3305 13.995 16.2655 14.065 16.1355 14.155C16.0555 14.215 15.9705 14.265 15.8805 14.31C15.8655 14.315 15.8555 14.335 15.8555 14.35C15.8555 14.385 15.8555 14.4 15.9205 14.4H16.2805C16.2805 14.4 16.3155 14.405 16.3305 14.4C16.4355 14.275 16.4905 14.115 16.4805 13.95C16.4805 13.86 16.4705 13.77 16.4405 13.685C16.4105 13.615 16.3655 13.55 16.3055 13.5Z" fill="#0D64AB"/>
<path d="M18.205 13.0859C18.14 13.0859 18.09 13.1259 18.045 13.2109C18.01 13.2759 17.995 13.3509 17.995 13.4259C17.995 13.5309 18.06 13.5859 18.19 13.5859C18.23 13.5959 18.275 13.5959 18.315 13.5859H18.34C18.34 13.5859 18.34 13.6059 18.34 13.6159C18.245 13.6409 18.145 13.6509 18.045 13.6409H17.87C17.895 13.5909 17.91 13.5359 17.905 13.4809C17.905 13.4259 17.89 13.3759 17.855 13.3359C17.82 13.2959 17.77 13.2759 17.715 13.2759C17.585 13.2759 17.425 13.3809 17.215 13.5859C17.26 13.4809 17.28 13.3709 17.28 13.2559C17.28 13.2259 17.28 13.2009 17.28 13.1709H17.34C17.34 13.1709 17.34 13.1459 17.34 13.1309L17.225 12.8709V12.8359L17.19 12.8609L17 13.0009C17.09 13.2009 17.13 13.4159 17.125 13.6309H16.98C16.915 13.6309 16.88 13.5959 16.88 13.5209V12.8509H16.85L16.625 13.0109V13.0609C16.625 13.0859 16.625 13.2059 16.65 13.3559C16.675 13.5059 16.65 13.6109 16.65 13.6959C16.625 13.8359 16.725 13.9709 16.865 13.9959C16.89 13.9959 16.915 13.9959 16.94 13.9959H17.22C17.415 14.0109 17.605 13.9509 17.755 13.8259C17.785 13.9259 17.88 13.9959 17.985 13.9959H18.085C18.305 14.0209 18.505 13.8659 18.53 13.6459C18.53 13.6109 18.53 13.5759 18.53 13.5409C18.53 13.4409 18.51 13.3459 18.47 13.2559C18.435 13.1409 18.325 13.0709 18.205 13.0859V13.0859ZM18.205 13.3859C18.15 13.3859 18.12 13.3859 18.12 13.3559C18.115 13.3409 18.115 13.3309 18.12 13.3159H18.165C18.165 13.3159 18.205 13.3109 18.225 13.3159C18.225 13.3159 18.265 13.3459 18.265 13.3609C18.265 13.3759 18.275 13.3859 18.22 13.3859H18.205V13.3859ZM17.58 13.6309C17.505 13.6409 17.425 13.6409 17.35 13.6309H17.28C17.345 13.5459 17.44 13.4909 17.545 13.4709C17.62 13.4709 17.655 13.5009 17.655 13.5609C17.655 13.6209 17.645 13.6159 17.595 13.6309H17.58Z" fill="#0D64AB"/>
<path d="M18.105 13.0003L18.19 12.9153L18.28 13.0003L18.37 12.9103L18.275 12.8203M18.25 12.8203L18.17 12.9053L18.085 12.8203L18 12.9053V12.9303L18.25 12.8203V12.8203Z" fill="#0D64AB"/>
<path d="M19.0752 13.3402L19.1602 13.2552L19.2502 13.3402L19.3402 13.2502L19.2452 13.1602L19.1602 13.2452L19.0752 13.1602L18.9902 13.2452V13.2702L19.0752 13.3402V13.3402Z" fill="#0D64AB"/>
<path d="M20.5306 12.8594L19.9306 13.0594L19.8856 13.3094L20.0206 13.4344C20.0656 13.4744 20.1056 13.5144 20.1406 13.5594C20.1406 13.5694 20.1406 13.5744 20.1406 13.5844C20.1406 13.5994 20.1306 13.6144 20.1156 13.6144H19.8206C19.8206 13.6144 19.7806 13.6244 19.7656 13.6144C19.7656 13.5994 19.7656 13.5794 19.7656 13.5644C19.7656 13.5444 19.7656 13.5294 19.7656 13.5094C19.7656 13.4744 19.7656 13.4594 19.7256 13.4594C19.6856 13.4594 19.6906 13.4594 19.6506 13.5194C19.6056 13.5694 19.5456 13.6094 19.4856 13.6344C19.3656 13.6794 19.2406 13.6994 19.1106 13.6944C19.0056 13.7044 18.9006 13.6794 18.8156 13.6194C18.8006 13.5794 18.7956 13.5394 18.8006 13.4994C18.8006 13.4494 18.8006 13.4244 18.7506 13.4244C18.7006 13.4244 18.6956 13.4594 18.6756 13.5244C18.6706 13.5794 18.6706 13.6344 18.6756 13.6894C18.6656 13.7994 18.7056 13.9044 18.7856 13.9794C18.8756 14.0394 18.9806 14.0644 19.0856 14.0594C19.2906 14.0744 19.4906 14.0094 19.6456 13.8794C19.6756 13.9594 19.7506 14.0144 19.8356 14.0144H19.9806C20.0556 14.0144 20.1256 13.9994 20.1906 13.9644C20.3056 13.8994 20.3706 13.7744 20.3556 13.6444C20.3556 13.5694 20.3406 13.4994 20.3106 13.4344C20.2806 13.3744 20.2406 13.3244 20.1956 13.2744L20.5156 13.1744V12.9194L20.5306 12.8594V12.8594Z" fill="#0D64AB"/>
<path d="M21.8803 13.3809L21.7803 13.4909L21.8053 13.5459C21.8053 13.5459 21.8103 13.5909 21.8053 13.6109C21.8053 13.6409 21.7803 13.6609 21.7303 13.6609C21.6953 13.6609 21.6653 13.6459 21.6503 13.6159V13.5309C21.6503 13.5009 21.6253 13.4809 21.6053 13.4809C21.5853 13.4809 21.5603 13.4809 21.5503 13.5259C21.5403 13.5709 21.5503 13.5959 21.5503 13.6109C21.5403 13.6359 21.5153 13.6509 21.4903 13.6509C21.4553 13.6509 21.4253 13.6359 21.4053 13.6109V13.5259C21.4053 13.4959 21.4053 13.4809 21.3553 13.4809C21.3053 13.4809 21.3203 13.4809 21.3053 13.5309C21.2903 13.5809 21.3053 13.5859 21.3053 13.6109C21.2903 13.6359 21.2603 13.6509 21.2303 13.6509H21.1003C21.0553 13.6509 21.0103 13.6309 20.9753 13.6009L20.8703 13.5009H20.8403L20.7203 13.7559C20.8353 13.8659 20.8903 13.9359 20.8903 13.9659C20.8903 13.9959 20.8253 14.0659 20.6953 14.1559C20.6153 14.2159 20.5303 14.2659 20.4453 14.3109V14.3509C20.4453 14.3909 20.4453 14.4009 20.5053 14.4009H20.8703C20.8703 14.4009 20.9003 14.4059 20.9153 14.4009C20.9553 14.3609 20.9853 14.3109 21.0053 14.2559C21.0353 14.1959 21.0553 14.1309 21.0553 14.0659V14.0009C21.0553 14.0009 21.0903 14.0009 21.1103 14.0009H21.1703C21.2353 14.0009 21.2903 13.9559 21.3053 13.8959C21.3253 13.9609 21.3903 14.0059 21.4603 14.0009C21.5203 13.9959 21.5653 13.9559 21.5853 13.9009C21.6153 13.9609 21.6753 14.0009 21.7403 14.0009C21.8103 14.0009 21.8653 13.9459 21.9053 13.8409C21.9303 13.7609 21.9453 13.6759 21.9453 13.5909C21.9353 13.5159 21.9153 13.4459 21.8803 13.3809V13.3809Z" fill="#0D64AB"/>
<path d="M21.5596 13.0793H21.5846L21.6646 12.9943L21.5696 12.9043L21.4746 12.9993L21.5596 13.0793Z" fill="#0D64AB"/>
<path d="M21.4602 13.2555L21.5452 13.1705L21.6352 13.2555L21.7202 13.1705L21.6252 13.0805L21.5352 13.1655L21.5002 13.0605L21.4102 13.1505L21.4602 13.2555V13.2555Z" fill="#0D64AB"/>
<path d="M4.71094 13.3749L4.81594 13.2699L4.71094 13.1699M4.68094 13.1699L4.58594 13.2649V13.2949L4.68094 13.1699Z" fill="#0D64AB"/>
<path d="M5.36437 14.1758L5.27938 14.2608L5.19438 14.1758L5.10938 14.2608V14.2858L5.19937 14.3758L5.28437 14.2908L5.36937 14.3758L5.46438 14.2858L5.36437 14.1758V14.1758Z" fill="#0D64AB"/>
<path d="M5.07961 14.0406C5.17961 14.0506 5.27461 14.0106 5.33961 13.9356C5.38961 13.8456 5.40961 13.7406 5.39961 13.6356C5.40461 13.5006 5.36461 13.3706 5.27961 13.2656L5.09961 13.5006C5.09961 13.5006 5.09461 13.5206 5.09961 13.5306C5.14461 13.5706 5.18461 13.6106 5.22461 13.6556C5.22461 13.6656 5.22461 13.6756 5.22461 13.6856C5.22461 13.6856 5.22461 13.7156 5.17461 13.7156H5.03461C4.98461 13.7156 4.93961 13.6956 4.90461 13.6656C4.86961 13.6356 4.83461 13.6006 4.80461 13.5656H4.77461L4.64961 13.8256C4.76461 13.9306 4.82461 14.0006 4.82461 14.0306C4.82461 14.0606 4.75961 14.1356 4.62961 14.2206C4.54961 14.2756 4.46461 14.3306 4.37961 14.3756C4.35961 14.3756 4.34961 14.3956 4.34961 14.4156C4.34961 14.4506 4.34961 14.4706 4.41461 14.4706H4.77961C4.77961 14.4706 4.80961 14.4756 4.82461 14.4706C4.86461 14.4306 4.89461 14.3806 4.91461 14.3256C4.93961 14.2656 4.95961 14.2006 4.95961 14.1356V14.0006C4.95961 14.0006 4.99461 14.0056 5.01461 14.0006H5.07961V14.0406V14.0406Z" fill="#0D64AB"/>
<path d="M6.43094 14.1641L6.33594 14.2591ZM6.33594 14.2891L6.44094 14.3891L6.54594 14.2841H6.33594V14.2891Z" fill="#0D64AB"/>
<path d="M6.87992 13.2496L6.73492 13.4596ZM6.73492 13.4896C6.77992 13.5296 6.81992 13.5696 6.85992 13.6146C6.85992 13.6246 6.85992 13.6346 6.85992 13.6446C6.85992 13.6446 6.85992 13.6746 6.81492 13.6746H6.62992C6.58492 13.6796 6.54492 13.6596 6.51992 13.6246C6.50492 13.5946 6.49492 13.5646 6.48992 13.5296C6.48992 13.4996 6.48992 13.4796 6.44492 13.4796C6.41992 13.4796 6.39492 13.5046 6.38992 13.5296C6.37992 13.5596 6.36992 13.5946 6.35992 13.6246C6.32992 13.6596 6.28992 13.6796 6.24492 13.6746H6.21492C6.16492 13.6746 6.11992 13.6546 6.08492 13.6246C6.04492 13.5946 6.00992 13.5596 5.97992 13.5246L5.85492 13.7846C5.96992 13.8896 6.02992 13.9596 6.02992 13.9896C6.02992 14.0196 5.96492 14.0946 5.83492 14.1796C5.75492 14.2396 5.66992 14.2896 5.57992 14.3346C5.57492 14.3446 5.57492 14.3646 5.57992 14.3746C5.57992 14.4096 5.57992 14.4296 5.64492 14.4296H5.94992C5.94992 14.4296 5.98492 14.4296 5.99992 14.4296C6.03492 14.3846 6.06492 14.3346 6.08992 14.2846C6.11492 14.2246 6.13492 14.1596 6.13492 14.0946V13.9996C6.13492 13.9996 6.16992 14.0046 6.18992 13.9996H6.26492C6.33992 13.9996 6.41492 13.9646 6.44992 13.8946C6.48492 13.9596 6.54992 13.9996 6.62492 13.9996H6.69492C6.79492 14.0146 6.89492 13.9746 6.95992 13.8946C7.00992 13.8046 7.02992 13.6996 7.01992 13.5946C7.02492 13.4596 6.98492 13.3296 6.89992 13.2246L6.73492 13.4896V13.4896Z" fill="#0D64AB"/>
<path d="M6.96484 12.9395L6.88484 13.0245L6.79484 12.9395L6.71484 13.0295V13.0545L6.80984 13.1445L6.89484 13.0545L6.97984 13.1395L7.07484 13.0495L6.96484 12.9395V12.9395Z" fill="#0D64AB"/>
<path d="M3.11 16.1841C3.085 16.1591 3.055 16.1341 3.025 16.1141C3.11 16.1041 3.185 16.0641 3.24 15.9991C3.29 15.9341 3.315 15.8541 3.31 15.7741C3.31 15.7091 3.3 15.6441 3.27 15.5841C3.24 15.5441 3.205 15.5141 3.16 15.4991C3.095 15.4691 3.02 15.4591 2.95 15.4641H2.5V16.7091H2.635V16.1291H2.79C2.825 16.1191 2.865 16.1191 2.9 16.1291C2.93 16.1441 2.955 16.1691 2.975 16.1991C3.02 16.2641 3.06 16.3341 3.095 16.4041L3.23 16.6641H3.4L3.225 16.3241C3.19 16.2741 3.15 16.2291 3.11 16.1841V16.1841ZM2.92 15.9991H2.63V15.5841H2.955C3.015 15.5841 3.075 15.5991 3.12 15.6391C3.16 15.6791 3.18 15.7341 3.175 15.7891C3.175 15.8291 3.165 15.8691 3.145 15.9041C3.125 15.9341 3.1 15.9591 3.065 15.9741C3.02 15.9941 2.97 15.9991 2.92 15.9991V15.9991Z" fill="#0D64AB"/>
<path d="M4.75906 15.4395L4.36406 16.6745L3.94906 15.4395H3.80406L3.41406 16.6845H3.55406L3.66406 16.3045H4.09406L4.21406 16.6845H4.49906L4.60906 16.3045H5.03906L5.15906 16.6845H5.31406L4.89906 15.4395H4.75906V15.4395ZM3.70406 16.1695L3.81906 15.8045C3.84406 15.7295 3.86406 15.6495 3.87406 15.5695C3.87406 15.6345 3.91406 15.7195 3.94906 15.8295L4.05406 16.1695H3.70406V16.1695ZM4.65406 16.1695L4.76906 15.8045C4.79406 15.7295 4.81406 15.6495 4.82406 15.5695C4.82406 15.6345 4.86406 15.7195 4.89906 15.8295L5.00406 16.1695H4.65406V16.1695Z" fill="#0D64AB"/>
<path d="M6.13078 15.5706C6.09078 15.5206 6.03578 15.4856 5.97578 15.4606C5.91078 15.4506 5.84078 15.4506 5.77578 15.4606H5.42578V16.7056H5.79078C5.88078 16.7056 5.97078 16.6856 6.04578 16.6406C6.12078 16.5906 6.17578 16.5206 6.20578 16.4356C6.27578 16.2256 6.28578 16.0056 6.23078 15.7906C6.21078 15.7106 6.17578 15.6356 6.13078 15.5706V15.5706ZM6.08078 16.3556C6.07078 16.4106 6.04078 16.4606 6.00078 16.5006C5.94078 16.5306 5.87078 16.5456 5.80078 16.5406H5.56078V15.5906H5.77078C5.83078 15.5806 5.88578 15.5806 5.94578 15.5906C6.00578 15.6206 6.05078 15.6756 6.07578 15.7356C6.11578 15.8306 6.13078 15.9356 6.12578 16.0356C6.12578 16.1456 6.11578 16.2506 6.08078 16.3556V16.3556Z" fill="#0D64AB"/>
<path d="M7.56 15.4395H6.75V15.5845H7.09V16.6845H7.225V15.5845H7.56V15.4395Z" fill="#0D64AB"/>
<path d="M8.12086 16.3057V16.1007C8.13086 16.0407 8.13086 15.9757 8.12086 15.9157C8.11086 15.8707 8.08086 15.8307 8.04086 15.8057C7.98586 15.7707 7.92086 15.7557 7.85586 15.7607C7.77086 15.7607 7.69086 15.7807 7.62586 15.8307C7.56586 15.8857 7.52586 15.9607 7.52086 16.0407H7.64086C7.64586 15.9907 7.67086 15.9407 7.70586 15.9057C7.74086 15.8757 7.79086 15.8657 7.83586 15.8657C7.89086 15.8657 7.94086 15.8807 7.98086 15.9207C8.00586 15.9607 8.02086 16.0057 8.01586 16.0507V16.0907C7.94586 16.1157 7.87086 16.1357 7.79586 16.1457C7.73586 16.1457 7.67586 16.1657 7.62586 16.1957C7.58586 16.2157 7.55586 16.2507 7.53586 16.2907C7.51586 16.3307 7.50586 16.3807 7.50586 16.4257C7.50586 16.4957 7.52586 16.5657 7.57086 16.6157C7.62086 16.6607 7.68586 16.6857 7.75586 16.6857C7.80586 16.6857 7.85086 16.6707 7.89586 16.6507C7.94586 16.6257 7.99086 16.5907 8.03086 16.5507C8.03086 16.5907 8.04086 16.6307 8.05586 16.6657H8.18586C8.17086 16.6307 8.15586 16.5957 8.15086 16.5557C8.12086 16.5407 8.12086 16.4507 8.12086 16.3057V16.3057ZM7.99086 16.3057C7.99086 16.3657 7.99086 16.4207 7.96586 16.4757C7.94586 16.5157 7.92086 16.5457 7.88586 16.5707C7.84586 16.5907 7.80586 16.6057 7.76086 16.6057C7.72086 16.6057 7.68086 16.5907 7.65086 16.5657C7.62586 16.5357 7.61086 16.5007 7.61086 16.4607C7.60586 16.4357 7.60586 16.4157 7.61086 16.3907C7.62086 16.3657 7.63586 16.3507 7.66086 16.3407L7.77086 16.3107C7.84086 16.3007 7.90586 16.2807 7.97086 16.2507L7.99086 16.3057V16.3057Z" fill="#0D64AB"/>
<path d="M8.80055 15.8145C8.75555 15.7795 8.70055 15.7595 8.64055 15.7595C8.60055 15.7595 8.56555 15.7695 8.53055 15.7895C8.49055 15.8145 8.46055 15.8445 8.44055 15.8845V15.4395H8.31055V16.6845H8.43055V16.5695C8.45055 16.6095 8.48055 16.6445 8.51555 16.6695C8.55055 16.6895 8.59555 16.7045 8.63555 16.7045C8.72555 16.7045 8.81055 16.6545 8.86055 16.5795C8.93055 16.4745 8.96055 16.3495 8.95555 16.2245C8.95555 16.1395 8.94055 16.0495 8.91055 15.9695C8.89055 15.9095 8.85055 15.8545 8.80055 15.8145V15.8145ZM8.76555 16.4995C8.74055 16.5495 8.69055 16.5845 8.63055 16.5895C8.59055 16.5895 8.55555 16.5745 8.52555 16.5495C8.49055 16.5195 8.46555 16.4845 8.45055 16.4445C8.43055 16.3745 8.42555 16.3045 8.42555 16.2345C8.42555 16.1495 8.45555 16.0695 8.50055 15.9995C8.54055 15.9195 8.63555 15.8895 8.71555 15.9295C8.74555 15.9445 8.77055 15.9695 8.78555 15.9995C8.82555 16.0795 8.84555 16.1695 8.84055 16.2595C8.84055 16.3445 8.81055 16.4295 8.76555 16.4995V16.4995Z" fill="#0D64AB"/>
<path d="M9.30047 15.7948C9.26547 15.8298 9.24047 15.8748 9.22047 15.9198V15.7798H9.10547V16.6848H9.23047V16.2098C9.23047 16.1498 9.24047 16.0848 9.25547 16.0248C9.26547 15.9948 9.28047 15.9648 9.30047 15.9448C9.32047 15.9298 9.35047 15.9198 9.37547 15.9198C9.41047 15.9198 9.44047 15.9348 9.46547 15.9548L9.51047 15.8098C9.47047 15.7798 9.42547 15.7648 9.38047 15.7598C9.35047 15.7598 9.32047 15.7698 9.30047 15.7948V15.7948Z" fill="#0D64AB"/>
<path d="M9.70508 15.7793H9.58008V16.6793H9.70508V15.7793Z" fill="#0D64AB"/>
<path d="M9.70508 15.4395H9.58008V15.6145H9.70508V15.4395Z" fill="#0D64AB"/>
<path d="M10.0009 16.5593L10.0809 16.4543L10.4809 15.8843V15.7793H9.86094V15.9043H10.3059L9.83594 16.5643V16.6893H10.5009V16.5493H10.1609L10.0009 16.5593V16.5593Z" fill="#0D64AB"/>
<path d="M11.8004 15.7957C11.8004 15.7207 11.7854 15.6507 11.7504 15.5857C11.7204 15.5307 11.6704 15.4857 11.6104 15.4657C11.5454 15.4457 11.4804 15.4357 11.4104 15.4407H11.0254V16.6857H11.1604V16.1857H11.4204C11.5304 16.1957 11.6404 16.1607 11.7154 16.0807C11.7804 16.0007 11.8104 15.8957 11.8004 15.7957V15.7957ZM11.6054 15.9757C11.5504 16.0157 11.4854 16.0357 11.4204 16.0307H11.1604V15.5857H11.4204C11.4704 15.5757 11.5154 15.5757 11.5654 15.5857C11.5954 15.6057 11.6204 15.6307 11.6354 15.6607C11.6554 15.7007 11.6654 15.7407 11.6604 15.7857C11.6804 15.8607 11.6604 15.9457 11.6054 16.0007V15.9757V15.9757Z" fill="#0D64AB"/>
<path d="M12.5945 16.6857C12.5795 16.6507 12.5645 16.6157 12.5595 16.5757V16.1007C12.5695 16.0407 12.5695 15.9757 12.5595 15.9157C12.5495 15.8707 12.5195 15.8307 12.4795 15.8057C12.4245 15.7707 12.3595 15.7557 12.2945 15.7607C12.2095 15.7607 12.1295 15.7807 12.0645 15.8307C12.0045 15.8857 11.9695 15.9607 11.9595 16.0407H12.0845C12.0845 15.9907 12.1095 15.9407 12.1445 15.9057C12.1795 15.8757 12.2295 15.8657 12.2745 15.8657C12.3295 15.8657 12.3795 15.8807 12.4195 15.9207C12.4445 15.9607 12.4595 16.0057 12.4545 16.0507V16.0907C12.3795 16.1157 12.3045 16.1357 12.2295 16.1457C12.1695 16.1457 12.1095 16.1657 12.0595 16.1957C12.0195 16.2157 11.9895 16.2507 11.9695 16.2907C11.9495 16.3307 11.9395 16.3807 11.9395 16.4257C11.9395 16.4957 11.9595 16.5657 12.0045 16.6157C12.0545 16.6607 12.1195 16.6857 12.1895 16.6857C12.2395 16.6857 12.2845 16.6707 12.3295 16.6507C12.3795 16.6257 12.4245 16.5907 12.4645 16.5507C12.4645 16.5907 12.4745 16.6307 12.4895 16.6657L12.5945 16.6857V16.6857ZM12.4295 16.2857C12.4295 16.3457 12.4245 16.4007 12.3995 16.4557C12.3795 16.4957 12.3545 16.5257 12.3195 16.5507C12.2795 16.5707 12.2395 16.5857 12.1945 16.5857C12.1545 16.5857 12.1145 16.5707 12.0845 16.5457C12.0595 16.5157 12.0445 16.4807 12.0445 16.4407C12.0395 16.4157 12.0395 16.3957 12.0445 16.3707C12.0545 16.3457 12.0695 16.3307 12.0945 16.3207L12.2045 16.2907C12.2745 16.2807 12.3445 16.2607 12.4095 16.2307L12.4295 16.2857V16.2857Z" fill="#0D64AB"/>
<path d="M13.0005 16.5809C12.9505 16.5809 12.9055 16.5659 12.8705 16.5309C12.8355 16.4909 12.8155 16.4409 12.8105 16.3909H12.6855C12.6855 16.5559 12.8205 16.6859 12.9855 16.6809C12.9855 16.6809 12.9905 16.6809 12.9955 16.6809C13.0755 16.6809 13.1555 16.6559 13.2155 16.6009C13.2705 16.5459 13.3005 16.4709 13.3005 16.3909C13.3005 16.3509 13.2905 16.3109 13.2755 16.2709C13.2605 16.2409 13.2355 16.2109 13.2055 16.1909C13.1405 16.1609 13.0705 16.1309 13.0005 16.1109C12.9555 16.1009 12.9055 16.0809 12.8655 16.0559C12.8405 16.0409 12.8255 16.0109 12.8255 15.9809C12.8255 15.9459 12.8405 15.9159 12.8655 15.8959C12.9005 15.8709 12.9455 15.8609 12.9905 15.8609C13.0705 15.8509 13.1405 15.9109 13.1505 15.9909C13.1505 15.9959 13.1505 16.0059 13.1505 16.0109H13.2705C13.2705 15.9609 13.2505 15.9109 13.2255 15.8659C13.2005 15.8309 13.1705 15.8059 13.1305 15.7859C13.0855 15.7659 13.0355 15.7559 12.9855 15.7559C12.9105 15.7559 12.8355 15.7809 12.7805 15.8309C12.7305 15.8809 12.7005 15.9459 12.7055 16.0159C12.7055 16.0559 12.7155 16.1009 12.7355 16.1359C12.7505 16.1709 12.7805 16.2009 12.8105 16.2209C12.8755 16.2509 12.9405 16.2759 13.0055 16.2959C13.0505 16.3059 13.0955 16.3259 13.1355 16.3459C13.1605 16.3659 13.1705 16.4009 13.1705 16.4309C13.1705 16.4709 13.1555 16.5109 13.1255 16.5359C13.0905 16.5659 13.0455 16.5809 13.0005 16.5809Z" fill="#0D64AB"/>
<path d="M13.7291 16.5791C13.6791 16.5791 13.6341 16.5641 13.5991 16.5291C13.5591 16.4941 13.5391 16.4441 13.5391 16.3891H13.4141C13.4141 16.5491 13.5441 16.6791 13.7041 16.6791C13.7091 16.6791 13.7141 16.6791 13.7191 16.6791C13.7991 16.6791 13.8841 16.6541 13.9441 16.5991C13.9991 16.5441 14.0291 16.4691 14.0241 16.3891C14.0241 16.3491 14.0191 16.3041 13.9991 16.2691C13.9841 16.2341 13.9591 16.2091 13.9291 16.1891C13.8641 16.1541 13.7991 16.1291 13.7291 16.1091C13.6841 16.0991 13.6341 16.0791 13.5941 16.0541C13.5691 16.0391 13.5541 16.0091 13.5541 15.9791C13.5541 15.9441 13.5691 15.9141 13.5941 15.8941C13.6291 15.8691 13.6691 15.8591 13.7141 15.8591C13.7941 15.8491 13.8641 15.9091 13.8741 15.9891C13.8741 15.9941 13.8741 16.0041 13.8741 16.0091L13.9991 15.9991C13.9941 15.9491 13.9791 15.8991 13.9541 15.8541C13.9291 15.8191 13.8941 15.7941 13.8591 15.7741C13.8141 15.7541 13.7641 15.7441 13.7141 15.7441C13.6391 15.7441 13.5641 15.7641 13.5091 15.8191C13.4591 15.8691 13.4291 15.9341 13.4341 16.0041C13.4341 16.0441 13.4441 16.0841 13.4591 16.1241C13.4791 16.1591 13.5041 16.1891 13.5391 16.2091C13.5991 16.2441 13.6641 16.2691 13.7341 16.2841C13.7791 16.2941 13.8191 16.3141 13.8591 16.3341C13.8841 16.3541 13.8991 16.3841 13.8991 16.4191C13.8991 16.4591 13.8841 16.4991 13.8541 16.5241C13.8191 16.5591 13.7741 16.5791 13.7291 16.5791V16.5791Z" fill="#0D64AB"/>
<path d="M14.5003 16.7054C14.5753 16.7054 14.6503 16.6804 14.7053 16.6304C14.7703 16.5704 14.8103 16.4954 14.8253 16.4104H14.6953C14.6603 16.5304 14.5903 16.5954 14.5003 16.5954C14.4403 16.5954 14.3803 16.5654 14.3453 16.5154C14.3003 16.4504 14.2753 16.3654 14.2753 16.2854H14.8253V16.2454C14.8303 16.1204 14.7953 15.9954 14.7253 15.8954C14.6703 15.8204 14.5853 15.7754 14.4903 15.7754C14.3903 15.7754 14.2953 15.8204 14.2403 15.9004C14.1653 16.0054 14.1303 16.1304 14.1403 16.2554C14.1353 16.3804 14.1703 16.5004 14.2403 16.6004C14.3053 16.6754 14.4003 16.7154 14.5003 16.7054V16.7054ZM14.3503 15.9554C14.4053 15.8754 14.5203 15.8554 14.6003 15.9104C14.6153 15.9204 14.6303 15.9354 14.6453 15.9554C14.6803 16.0054 14.6953 16.0704 14.6953 16.1304H14.2853C14.2853 16.0704 14.3003 16.0054 14.3353 15.9554H14.3503V15.9554Z" fill="#0D64AB"/>
<path d="M15.5009 15.8448C15.4809 15.8198 15.4509 15.7998 15.4209 15.7848C15.3859 15.7698 15.3509 15.7598 15.3109 15.7598C15.2609 15.7598 15.2159 15.7748 15.1759 15.7998C15.1309 15.8248 15.0959 15.8648 15.0759 15.9098V15.7798H14.9609V16.6848H15.0859V16.1848C15.0809 16.1048 15.0959 16.0248 15.1409 15.9548C15.1759 15.9098 15.2309 15.8848 15.2859 15.8898C15.3159 15.8898 15.3459 15.8948 15.3659 15.9148C15.3909 15.9298 15.4109 15.9548 15.4209 15.9848C15.4259 16.0348 15.4259 16.0798 15.4209 16.1298V16.6798H15.5459V16.1298C15.5509 16.0698 15.5509 16.0048 15.5459 15.9448C15.5359 15.9098 15.5209 15.8748 15.5009 15.8448V15.8448Z" fill="#0D64AB"/>
<path d="M16.2445 15.8898C16.2245 15.8498 16.1895 15.8148 16.1495 15.7948C16.1145 15.7698 16.0745 15.7598 16.0295 15.7598C15.9695 15.7598 15.9145 15.7798 15.8695 15.8148C15.8195 15.8548 15.7795 15.9098 15.7545 15.9698C15.7245 16.0498 15.7095 16.1398 15.7095 16.2248C15.7045 16.3498 15.7395 16.4698 15.8095 16.5698C15.8595 16.6398 15.9395 16.6848 16.0295 16.6848C16.0695 16.6848 16.1095 16.6748 16.1445 16.6548C16.1795 16.6298 16.2095 16.5998 16.2345 16.5648C16.2345 16.6298 16.2345 16.6998 16.2345 16.7648C16.2245 16.8098 16.1995 16.8548 16.1645 16.8848C16.1295 16.9148 16.0795 16.9248 16.0345 16.9248C15.9945 16.9248 15.9545 16.9148 15.9195 16.8898C15.8895 16.8598 15.8695 16.8198 15.8645 16.7798H15.7445C15.7345 16.9298 15.8445 17.0598 15.9945 17.0698C16.0095 17.0698 16.0245 17.0698 16.0395 17.0698C16.1045 17.0698 16.1695 17.0548 16.2245 17.0148C16.2795 16.9848 16.3195 16.9348 16.3345 16.8748C16.3645 16.7798 16.3745 16.6798 16.3695 16.5798V15.7798H16.2545L16.2445 15.8898V15.8898ZM16.1845 16.4998C16.1295 16.5798 16.0195 16.5998 15.9395 16.5448C15.9195 16.5298 15.9045 16.5148 15.8945 16.4998C15.8545 16.4198 15.8345 16.3298 15.8395 16.2398C15.8345 16.1548 15.8545 16.0698 15.8995 15.9948C15.9245 15.9448 15.9795 15.9148 16.0345 15.9098C16.0945 15.9098 16.1545 15.9448 16.1845 15.9948C16.2595 16.1548 16.2595 16.3348 16.1845 16.4948V16.4998Z" fill="#0D64AB"/>
<path d="M16.8545 15.7598C16.7545 15.7598 16.6645 15.8048 16.6045 15.8848C16.5345 15.9898 16.4995 16.1148 16.5095 16.2398C16.4995 16.3598 16.5345 16.4848 16.6045 16.5848C16.6645 16.6648 16.7595 16.7048 16.8595 16.7048C16.9345 16.7048 17.0095 16.6798 17.0695 16.6298C17.1295 16.5698 17.1695 16.4948 17.1845 16.4098H17.0545C17.0195 16.5298 16.9545 16.5948 16.8595 16.5948C16.7995 16.5948 16.7445 16.5648 16.7095 16.5148C16.6595 16.4498 16.6345 16.3648 16.6395 16.2848H17.1895V16.2448C17.1995 16.1198 17.1645 15.9998 17.0945 15.8948C17.0395 15.8148 16.9495 15.7648 16.8545 15.7598V15.7598ZM16.6445 16.1448C16.6445 16.0748 16.6695 16.0098 16.7095 15.9548C16.7695 15.8698 16.8845 15.8548 16.9695 15.9148C16.9845 15.9248 16.9995 15.9398 17.0095 15.9548C17.0395 16.0098 17.0545 16.0698 17.0595 16.1298L16.6445 16.1448V16.1448Z" fill="#0D64AB"/>
<path d="M17.5357 15.7948C17.5007 15.8298 17.4757 15.8748 17.4557 15.9198V15.7798H17.3457V16.6848H17.4707V16.2098C17.4707 16.1448 17.4757 16.0848 17.4957 16.0248C17.5007 15.9948 17.5157 15.9648 17.5407 15.9448C17.5607 15.9298 17.5907 15.9198 17.6157 15.9198C17.6507 15.9198 17.6807 15.9348 17.7057 15.9548L17.7457 15.8098C17.7107 15.7798 17.6657 15.7648 17.6207 15.7598C17.5907 15.7598 17.5557 15.7698 17.5357 15.7948V15.7948Z" fill="#0D64AB"/>
<path d="M18.1348 15.5845H18.4698V16.6845H18.6048V15.5845H18.9398V15.4395H18.1348V15.5845Z" fill="#0D64AB"/>
<path d="M19.2 15.7948C19.165 15.8298 19.14 15.8748 19.12 15.9198V15.7798H19V16.6848H19.125V16.2098C19.115 16.1498 19.115 16.0848 19.125 16.0248C19.125 15.9948 19.145 15.9648 19.17 15.9448C19.19 15.9298 19.22 15.9198 19.245 15.9198C19.28 15.9198 19.31 15.9348 19.335 15.9548L19.375 15.8098C19.34 15.7798 19.295 15.7648 19.25 15.7598C19.23 15.7648 19.215 15.7798 19.2 15.7948V15.7948Z" fill="#0D64AB"/>
<path d="M20.0801 16.3055V16.1005C20.0851 16.0405 20.0851 15.9755 20.0801 15.9155C20.0651 15.8705 20.0351 15.8305 19.9951 15.8055C19.9401 15.7755 19.8801 15.7555 19.8151 15.7605C19.7301 15.7555 19.6501 15.7805 19.5851 15.8305C19.5251 15.8855 19.4851 15.9605 19.4751 16.0405H19.6001C19.6051 15.9905 19.6301 15.9405 19.6651 15.9055C19.7001 15.8755 19.7501 15.8605 19.7951 15.8655C19.8501 15.8655 19.9001 15.8805 19.9351 15.9205C19.9651 15.9555 19.9751 16.0055 19.9701 16.0505V16.0905C19.8951 16.1155 19.8201 16.1355 19.7451 16.1455C19.6851 16.1455 19.6301 16.1655 19.5751 16.1955C19.5401 16.2205 19.5101 16.2505 19.4901 16.2905C19.4651 16.3305 19.4551 16.3805 19.4551 16.4255C19.4551 16.4955 19.4751 16.5655 19.5251 16.6155C19.5751 16.6655 19.6401 16.6905 19.7101 16.6855C19.7601 16.6855 19.8051 16.6705 19.8501 16.6505C19.9001 16.6255 19.9451 16.5905 19.9801 16.5505C19.9751 16.5905 19.9751 16.6255 19.9801 16.6655H20.1101C20.0951 16.6305 20.0851 16.5955 20.0801 16.5555C20.0801 16.4705 20.0801 16.3905 20.0801 16.3055V16.3055ZM19.9551 16.3055C19.9551 16.3655 19.9501 16.4205 19.9251 16.4755C19.9101 16.5155 19.8801 16.5455 19.8451 16.5705C19.8101 16.5905 19.7651 16.6055 19.7251 16.6055C19.6851 16.6055 19.6451 16.5955 19.6151 16.5655C19.5851 16.5405 19.5701 16.5005 19.5751 16.4605C19.5701 16.4355 19.5701 16.4155 19.5751 16.3905C19.5851 16.3705 19.6051 16.3505 19.6251 16.3405L19.7351 16.3105C19.8051 16.3005 19.8751 16.2805 19.9401 16.2505L19.9551 16.3055Z" fill="#0D64AB"/>
<path d="M20.4004 15.4395H20.2754V15.6145H20.4004V15.4395Z" fill="#0D64AB"/>
<path d="M20.4004 15.7793H20.2754V16.6793H20.4004V15.7793Z" fill="#0D64AB"/>
<path d="M21.1307 15.8448C21.1107 15.8198 21.0807 15.7998 21.0507 15.7848C21.0157 15.7698 20.9807 15.7598 20.9407 15.7598C20.8907 15.7598 20.8457 15.7748 20.8057 15.7998C20.7657 15.8298 20.7307 15.8648 20.7057 15.9098V15.7798H20.5957V16.6848H20.7157V16.1848C20.7107 16.1048 20.7257 16.0248 20.7707 15.9548C20.8057 15.9098 20.8607 15.8848 20.9157 15.8898C20.9457 15.8898 20.9757 15.8948 21.0007 15.9148C21.0257 15.9348 21.0407 15.9548 21.0507 15.9848C21.0557 16.0348 21.0557 16.0798 21.0507 16.1298V16.6798H21.1757V16.1298C21.1857 16.0698 21.1857 16.0048 21.1757 15.9448C21.1657 15.9098 21.1507 15.8748 21.1307 15.8448V15.8448Z" fill="#0D64AB"/>
<path d="M22.4148 16.4993C22.3648 16.5493 22.2948 16.5793 22.2248 16.5793C22.1298 16.5793 22.0348 16.5293 21.9848 16.4493C21.9148 16.3343 21.8848 16.1993 21.8948 16.0643C21.8948 15.9693 21.9048 15.8793 21.9398 15.7893C21.9648 15.7243 22.0048 15.6643 22.0598 15.6243C22.1098 15.5893 22.1748 15.5743 22.2348 15.5743C22.3748 15.5743 22.4648 15.6593 22.5098 15.8293L22.6398 15.7943C22.6298 15.6843 22.5798 15.5793 22.4998 15.4993C22.4298 15.4393 22.3398 15.4043 22.2448 15.4043C22.1548 15.4093 22.0698 15.4443 21.9998 15.4993C21.9248 15.5543 21.8598 15.6293 21.8248 15.7143C21.7798 15.8243 21.7598 15.9393 21.7598 16.0593C21.7598 16.1843 21.7798 16.3093 21.8248 16.4243C21.8598 16.5093 21.9148 16.5893 21.9898 16.6443C22.0648 16.6893 22.1498 16.7143 22.2348 16.7143C22.3348 16.7143 22.4298 16.6693 22.4998 16.5993C22.5848 16.5143 22.6398 16.4093 22.6598 16.2893L22.5248 16.2443C22.5198 16.3393 22.4798 16.4293 22.4148 16.4993V16.4993Z" fill="#0D64AB"/>
<path d="M23.1095 15.7598C23.0095 15.7598 22.9195 15.8048 22.8595 15.8798C22.7845 15.9848 22.7495 16.1098 22.7595 16.2348C22.7495 16.3598 22.7845 16.4848 22.8595 16.5848C22.9195 16.6598 23.0095 16.7048 23.1095 16.7048C23.2045 16.7048 23.2945 16.6598 23.3545 16.5848C23.4295 16.4798 23.4645 16.3548 23.4545 16.2248C23.4595 16.0998 23.4245 15.9798 23.3545 15.8798C23.2945 15.8048 23.2045 15.7598 23.1095 15.7598ZM23.2645 16.4998C23.2295 16.5548 23.1745 16.5898 23.1095 16.5898C23.0445 16.5898 22.9895 16.5548 22.9545 16.4998C22.9045 16.4248 22.8795 16.3298 22.8895 16.2398C22.8795 16.1498 22.9045 16.0598 22.9545 15.9848C22.9845 15.9298 23.0445 15.8948 23.1045 15.8948C23.1695 15.8948 23.2295 15.9298 23.2645 15.9848C23.3095 16.0598 23.3295 16.1498 23.3245 16.2398C23.3295 16.3298 23.3095 16.4198 23.2645 16.4998V16.4998Z" fill="#0D64AB"/>
<path d="M23.7856 16.5098H23.6406V16.6848H23.7856V16.5098Z" fill="#0D64AB"/>
<path d="M11.215 17.5941C11.24 17.5241 11.285 17.4191 11.345 17.2891H11.255C11.095 17.5291 11.01 17.8091 11 18.0991C11 18.2541 11.025 18.4091 11.075 18.5591C11.12 18.6841 11.18 18.8041 11.245 18.9191H11.335C11.205 18.6691 11.135 18.3891 11.13 18.1041C11.12 18.0141 11.12 17.9291 11.13 17.8391C11.15 17.7541 11.18 17.6741 11.215 17.5941V17.5941Z" fill="#0D64AB"/>
<path d="M12.125 18.0548C12.1 18.0298 12.07 18.0048 12.035 17.9848C12.12 17.9748 12.195 17.9398 12.25 17.8748C12.3 17.8098 12.33 17.7298 12.325 17.6498C12.325 17.5848 12.31 17.5198 12.28 17.4598C12.255 17.4098 12.22 17.3698 12.17 17.3448C12.105 17.3148 12.03 17.3048 11.96 17.3098H11.5V18.5548H11.635V17.9998H11.79C11.825 17.9898 11.86 17.9898 11.895 17.9998C11.925 18.0148 11.955 18.0398 11.975 18.0698C12.02 18.1348 12.055 18.2048 12.09 18.2748L12.23 18.5348H12.4L12.22 18.1948C12.195 18.1448 12.16 18.0998 12.125 18.0548V18.0548ZM11.935 17.8598H11.645V17.4448H11.965C12.025 17.4448 12.085 17.4598 12.13 17.4998C12.17 17.5398 12.19 17.5948 12.185 17.6498C12.185 17.6898 12.175 17.7298 12.155 17.7648C12.135 17.7948 12.11 17.8198 12.08 17.8348C12.035 17.8548 11.985 17.8598 11.935 17.8598V17.8598Z" fill="#0D64AB"/>
<path d="M12.4395 17.4555H12.7745V18.5555H12.9095V17.4555H13.2445V17.3105H12.4395V17.4555Z" fill="#0D64AB"/>
<path d="M13.3105 17.4555H13.6455V18.5555H13.7805V17.4555H14.1155V17.3105H13.3105V17.4555Z" fill="#0D64AB"/>
<path d="M14.8703 18.3547C14.8203 18.4047 14.7503 18.4347 14.6803 18.4347C14.5853 18.4347 14.4903 18.3847 14.4403 18.3047C14.3703 18.1897 14.3403 18.0547 14.3503 17.9197C14.3503 17.8247 14.3603 17.7347 14.3953 17.6447C14.4153 17.5897 14.4553 17.5397 14.5003 17.4997C14.5503 17.4647 14.6153 17.4497 14.6753 17.4497C14.8153 17.4497 14.9053 17.5347 14.9503 17.7047L15.0803 17.6697C15.0653 17.5647 15.0103 17.4697 14.9353 17.3997C14.8653 17.3397 14.7753 17.3047 14.6803 17.3047C14.5953 17.3047 14.5053 17.3297 14.4353 17.3797C14.3603 17.4347 14.2953 17.5097 14.2603 17.5947C14.2153 17.7047 14.1953 17.8197 14.1953 17.9397C14.1953 18.0647 14.2153 18.1897 14.2603 18.3047C14.2953 18.3897 14.3503 18.4697 14.4253 18.5247C14.5003 18.5697 14.5853 18.5947 14.6703 18.5947C14.7703 18.5947 14.8653 18.5597 14.9403 18.4897C15.0253 18.4047 15.0803 18.2997 15.1003 18.1797L15.0003 18.1147C14.9853 18.2047 14.9403 18.2897 14.8703 18.3547V18.3547Z" fill="#0D64AB"/>
<path d="M15.2251 17.2891C15.2851 17.4191 15.3301 17.5241 15.3551 17.5941C15.3801 17.6741 15.4001 17.7541 15.4101 17.8391C15.4201 17.9291 15.4201 18.0141 15.4101 18.1041C15.4101 18.3891 15.3401 18.6691 15.2051 18.9191H15.2951C15.3751 18.8041 15.4451 18.6791 15.5001 18.5491C15.5501 18.4041 15.5751 18.2541 15.5751 18.0991C15.5751 17.8091 15.4901 17.5291 15.3301 17.2891H15.2251V17.2891Z" fill="#0D64AB"/>
</g>
<defs>
<clipPath id="clip0_987_160248">
<rect width="24" height="24" fill="white"/>
</clipPath>
</defs>
</svg>
