<svg width="48" height="48" viewBox="0 0 24 24" fill="none" xmlns="http://www.w3.org/2000/svg">
<g clip-path="url(#clip0_987_160315)">
<path d="M16.1795 7.89062L13.7695 12.2156H14.8845L17.2945 7.89062H16.1795Z" fill="#0038A6"/>
<path d="M15.2891 12.2156H16.0791L18.4891 7.89062H17.6991L15.2891 12.2156Z" fill="#0038A6"/>
<path d="M7.57016 11.1797C7.00016 11.1797 6.54016 11.6397 6.53516 12.2097H8.60016C8.60016 11.6397 8.14016 11.1797 7.57016 11.1797V11.1797Z" fill="#0038A6"/>
<path d="M13.7909 7.89062L11.3809 12.2356H13.3659L15.7959 7.89062H13.7909Z" fill="#0038A6"/>
<path d="M8.22529 6.39062C7.46529 6.39062 6.72529 6.65063 6.13029 7.13063L2.26029 10.2506C1.86029 10.5756 1.80029 11.1606 2.12529 11.5606C2.15529 11.5956 2.18529 11.6256 2.21529 11.6556C2.62529 12.0306 3.16029 12.2356 3.71529 12.2356H6.24529C6.24529 11.5006 6.84529 10.9006 7.58029 10.9006C8.31529 10.9006 8.91529 11.5006 8.91529 12.2356H10.5453C10.8353 12.2356 11.1053 12.0756 11.2503 11.8206L13.1403 8.43063C13.2353 8.25563 13.1703 8.03063 12.9953 7.93563C12.9403 7.90563 12.8803 7.89062 12.8203 7.89062H8.09529C8.02029 7.89062 7.95029 7.92562 7.91529 7.99062L7.03029 9.38063C6.98529 9.44563 7.00529 9.53563 7.07029 9.58063C7.09529 9.59563 7.12029 9.60562 7.15029 9.60562H9.87529L9.72529 9.87063H6.97029C6.77029 9.87063 6.60529 9.70563 6.60529 9.50563C6.60529 9.43563 6.62529 9.36063 6.67029 9.30063L7.79029 7.67563C7.83529 7.60563 7.91029 7.56563 7.99529 7.56563H21.2303C21.8753 7.56563 22.4003 7.04063 22.4003 6.39563H8.22529V6.39062Z" fill="#0038A6"/>
<path d="M4.44438 14.3255C4.32438 14.3155 4.20437 14.2755 4.09937 14.2205C4.00937 14.1705 3.90937 14.1355 3.80937 14.1205C3.72437 14.1205 3.64937 14.1805 3.57937 14.3005C3.57437 14.3255 3.57437 14.3505 3.57937 14.3755C3.57937 14.4055 3.57938 14.4155 3.61438 14.4155L3.67938 14.3705C3.70938 14.3455 3.74937 14.3255 3.78937 14.3255C3.84437 14.3305 3.90437 14.3455 3.95437 14.3705L4.10437 14.4255C4.02437 14.4605 3.93937 14.4855 3.84937 14.5005C3.74437 14.5255 3.63437 14.5355 3.52937 14.5305H1.93938C1.84438 14.5305 1.79437 14.4905 1.79437 14.4005V13.6055L1.75937 13.6305L1.60938 13.7555V13.7905C1.60938 13.8255 1.60937 13.9555 1.63937 14.1305C1.66937 14.3055 1.63937 14.3955 1.63937 14.4755C1.63437 14.5655 1.66438 14.6555 1.72438 14.7255C1.76938 14.7655 1.82437 14.7855 1.88437 14.7855H2.01937C2.15437 14.7855 3.74938 14.7855 3.84438 14.7155L4.09937 14.5905C4.17937 14.5405 4.26937 14.5105 4.36437 14.5005L4.49937 14.3455C4.49937 14.3455 4.49938 14.3255 4.44438 14.3255V14.3255Z" fill="#121516"/>
<path d="M3.98047 15.0254L4.10547 15.1554L4.23047 15.0254L4.10547 14.9004L3.98047 15.0254Z" fill="#121516"/>
<path d="M4.89461 14.3152L4.80461 14.5002C4.84461 14.5302 4.87961 14.5652 4.90961 14.6052C4.93961 14.6402 4.95961 14.6852 4.96961 14.7302C4.96961 14.8002 4.91461 14.8802 4.79461 14.9702C4.69961 15.0502 4.58961 15.1102 4.47461 15.1502C4.59461 15.1852 4.71961 15.2002 4.84461 15.1952C4.84461 15.1952 4.87461 15.1952 4.91461 15.1402C5.02961 15.0202 5.08961 14.8552 5.08961 14.6902C5.08961 14.5352 5.02461 14.3902 4.91461 14.2852L4.89461 14.3152V14.3152Z" fill="#121516"/>
<path d="M7.42969 15.0553L7.53969 15.1703L7.65469 15.0603L7.53969 14.9453L7.42969 15.0553Z" fill="#121516"/>
<path d="M7.67969 15.0553L7.79469 15.1703L7.90969 15.0603L7.79469 14.9453L7.67969 15.0553Z" fill="#121516"/>
<path d="M7.68906 14.6505C7.72406 14.5755 7.74406 14.4955 7.73906 14.4155C7.73906 14.3655 7.73406 14.3205 7.71406 14.2755C7.70406 14.2255 7.67906 14.1805 7.64406 14.1455L7.53406 14.3005M7.53406 14.3305C7.60406 14.4055 7.63906 14.4555 7.63906 14.4855C7.63906 14.5155 7.59406 14.5355 7.50406 14.5355H7.34906C7.28406 14.5455 7.22906 14.5005 7.21906 14.4355C7.21906 14.4255 7.21906 14.4155 7.21906 14.4055V13.6055L7.03906 13.7755C7.07406 13.9855 7.08406 14.2005 7.07906 14.4155C7.07906 14.5005 7.03406 14.5405 6.94406 14.5405H6.70906C6.57906 14.5355 6.45406 14.5805 6.35906 14.6705C6.29906 14.7205 6.26406 14.7955 6.25906 14.8705C6.25906 14.9155 6.29406 14.9455 6.35906 14.9655C6.40406 14.9805 6.44906 14.9955 6.49906 15.0005C6.56406 15.0005 6.59406 15.0005 6.59406 15.0255C6.59406 15.0505 6.54906 15.0655 6.45406 15.0805C6.38906 15.0855 6.32906 15.0855 6.26406 15.0805C6.15906 15.0805 6.05906 15.0755 5.95906 15.0505C5.86906 15.0255 5.80406 14.9405 5.80906 14.8455C5.80906 14.8005 5.81906 14.7605 5.83406 14.7205L5.85906 14.6405C5.85906 14.6405 5.84906 14.6055 5.82906 14.6005C5.82906 14.6005 5.82406 14.6005 5.81906 14.6005C5.79406 14.6005 5.76406 14.6455 5.72406 14.7305C5.68906 14.8005 5.66906 14.8755 5.66406 14.9555C5.66406 15.1855 5.81906 15.3005 6.13406 15.3005C6.25906 15.3055 6.37906 15.2905 6.49906 15.2505C6.61906 15.2105 6.70406 15.1005 6.70406 14.9705C6.70406 14.9355 6.68406 14.9005 6.65406 14.8855C6.60406 14.8655 6.55406 14.8555 6.50406 14.8505H6.40906C6.35406 14.8505 6.32906 14.8505 6.32906 14.8155C6.32906 14.7805 6.32906 14.7805 6.38406 14.7655H6.89906C6.93906 14.7655 6.97406 14.7555 7.00406 14.7305C7.03406 14.7105 7.05906 14.6805 7.07906 14.6455C7.09406 14.6805 7.11906 14.7155 7.15406 14.7355C7.18906 14.7555 7.22406 14.7655 7.26406 14.7655H7.45406C7.54906 14.7755 7.63906 14.7305 7.68906 14.6505L7.53406 14.3305V14.3305Z" fill="#121516"/>
<path d="M8.41414 14.3141L8.32414 14.5041C8.35914 14.5341 8.39414 14.5691 8.42414 14.6091C8.45914 14.6441 8.47914 14.6841 8.48914 14.7341C8.48914 14.8041 8.42914 14.8841 8.31414 14.9741C8.21914 15.0541 8.10914 15.1141 7.99414 15.1541C8.11414 15.1891 8.23914 15.2041 8.36414 15.1991C8.36414 15.1991 8.39414 15.1991 8.42914 15.1441C8.54914 15.0241 8.61414 14.8641 8.60914 14.6941C8.60914 14.5391 8.54414 14.3941 8.43414 14.2891C8.43414 14.2891 8.41914 14.3041 8.41414 14.3141V14.3141Z" fill="#121516"/>
<path d="M11.6801 13.8151L11.5651 13.7051L11.4551 13.8151L11.5651 13.9301L11.6801 13.8151Z" fill="#121516"/>
<path d="M11.4242 13.8151L11.3142 13.7051L11.1992 13.8151L11.3142 13.9301L11.4242 13.8151Z" fill="#121516"/>
<path d="M12.1348 13.8652L12.0098 13.7402L11.8848 13.8652L12.0098 13.9902L12.1348 13.8652Z" fill="#121516"/>
<path d="M12.045 14.145H12.015L11.91 14.3M11.91 14.33C11.98 14.405 12.015 14.455 12.015 14.485C12.015 14.515 11.97 14.535 11.88 14.535H11.73C11.685 14.545 11.635 14.545 11.59 14.535C11.64 14.48 11.665 14.405 11.66 14.33C11.66 14.27 11.645 14.21 11.615 14.155C11.585 14.1 11.53 14.065 11.47 14.065C11.39 14.075 11.32 14.12 11.285 14.19C11.24 14.25 11.215 14.32 11.21 14.395C11.21 14.445 11.235 14.495 11.27 14.535C11.23 14.54 11.19 14.54 11.15 14.535H10.21C10.115 14.535 10.07 14.48 10.065 14.365V13.625L9.89 13.78C9.89 13.85 9.915 13.99 9.93 14.215C9.945 14.44 9.93 14.675 9.93 14.865C9.93 14.89 9.93 14.915 9.86 14.945C9.77 14.99 9.67 15.01 9.57 15.005C9.375 15.005 9.28 14.94 9.28 14.805C9.28 14.775 9.28 14.75 9.28 14.72C9.28 14.695 9.28 14.665 9.28 14.64C9.28 14.61 9.28 14.595 9.245 14.595C9.21 14.595 9.195 14.635 9.165 14.71C9.14 14.77 9.13 14.835 9.125 14.9C9.125 15.13 9.255 15.245 9.51 15.245C9.68 15.265 9.845 15.19 9.945 15.055C10 14.95 10.025 14.835 10.02 14.72C10.055 14.77 10.115 14.795 10.175 14.79H11.08C11.195 14.785 11.31 14.745 11.405 14.68C11.445 14.71 11.49 14.735 11.535 14.75C11.595 14.775 11.665 14.79 11.73 14.79H11.835C11.93 14.79 12.015 14.745 12.06 14.66C12.095 14.585 12.115 14.505 12.11 14.425C12.11 14.375 12.1 14.33 12.085 14.285C12.085 14.235 12.07 14.19 12.045 14.145L11.91 14.33V14.33ZM11.5 14.45C11.5 14.45 11.45 14.475 11.425 14.48C11.395 14.475 11.37 14.46 11.35 14.435C11.31 14.415 11.295 14.36 11.315 14.32C11.325 14.305 11.335 14.295 11.35 14.285C11.375 14.265 11.405 14.255 11.435 14.255C11.465 14.255 11.495 14.27 11.515 14.295C11.535 14.315 11.55 14.34 11.55 14.37C11.55 14.405 11.53 14.435 11.5 14.45V14.45Z" fill="#121516"/>
<path d="M13.0249 14.1895C12.9549 14.1895 12.8949 14.2445 12.8449 14.3445C12.8099 14.4145 12.7899 14.4895 12.7849 14.5695C12.7799 14.6295 12.8099 14.6845 12.8599 14.7145C12.9149 14.7395 12.9799 14.7495 13.0399 14.7445H13.1649C13.1649 14.8045 13.1099 14.8795 12.9949 14.9695C12.8999 15.0495 12.7899 15.1095 12.6699 15.1545C12.7899 15.1895 12.9149 15.2045 13.0399 15.1995C13.0399 15.1995 13.0699 15.1995 13.1049 15.1445C13.2149 15.0295 13.2699 14.8795 13.2699 14.7245V14.5995C13.2699 14.5095 13.2549 14.4195 13.2149 14.3395C13.1899 14.2545 13.1149 14.1945 13.0249 14.1895V14.1895ZM12.9999 14.4995C12.9349 14.4995 12.8999 14.4995 12.8999 14.4345C12.8949 14.4195 12.8949 14.4045 12.8999 14.3895C12.9149 14.3745 12.9349 14.3645 12.9549 14.3645C12.9799 14.3645 13.0099 14.3795 13.0299 14.3945C13.0649 14.4145 13.0899 14.4495 13.1049 14.4895L12.9999 14.4995V14.4995Z" fill="#121516"/>
<path d="M17.5653 14.3255C17.4453 14.3155 17.3303 14.2755 17.2253 14.2205C17.1353 14.1705 17.0353 14.1405 16.9353 14.1205C16.8503 14.1205 16.7703 14.1805 16.7053 14.3005C16.6903 14.3205 16.6803 14.3505 16.6753 14.3755C16.6753 14.4055 16.6753 14.4155 16.7153 14.4155L16.7803 14.3705C16.8103 14.3455 16.8453 14.3305 16.8853 14.3255C16.9453 14.3305 17.0003 14.3455 17.0553 14.3705L17.2003 14.4255C17.1353 14.4555 17.0703 14.4805 17.0003 14.5005C16.8953 14.5255 16.7853 14.5355 16.6803 14.5305H16.5003C16.4653 14.5305 16.4253 14.5155 16.4053 14.4855L16.3503 14.3555C16.3203 14.2655 16.2353 14.2055 16.1403 14.2005C16.0703 14.2005 16.0053 14.2355 15.9653 14.2905C15.9253 14.3405 15.9053 14.4005 15.9103 14.4655V14.5205C15.9103 14.5205 15.8653 14.5205 15.8103 14.5205H14.9053C14.8103 14.5205 14.7603 14.4655 14.7603 14.3505V13.6055L14.5853 13.7605C14.6053 13.9055 14.6203 14.0505 14.6253 14.1955V14.8455C14.6253 14.8455 14.6253 14.8955 14.5553 14.9255C14.4653 14.9705 14.3603 14.9905 14.2603 14.9855C14.0703 14.9855 13.9703 14.9205 13.9703 14.7855C13.9703 14.7555 13.9703 14.7305 13.9703 14.7005C13.9703 14.6755 13.9703 14.6455 13.9703 14.6205C13.9703 14.5905 13.9703 14.5755 13.9353 14.5755C13.9003 14.5755 13.8853 14.6155 13.8603 14.6905C13.8353 14.7505 13.8203 14.8155 13.8203 14.8805C13.8203 15.1105 13.9453 15.2255 14.2003 15.2255C14.3703 15.2405 14.5353 15.1705 14.6403 15.0355C14.6903 14.9305 14.7153 14.8155 14.7103 14.7005C14.7453 14.7505 14.8053 14.7755 14.8653 14.7705H15.7553C15.8303 14.7705 15.9003 14.7255 15.9303 14.6555C15.9703 14.7355 16.0453 14.7855 16.1353 14.7905C16.2253 14.7905 16.3003 14.7305 16.3253 14.6455C16.3353 14.6805 16.3553 14.7105 16.3853 14.7355C16.4103 14.7555 16.4453 14.7705 16.4803 14.7705H16.6003C16.7203 14.7705 16.8353 14.7505 16.9453 14.7005L17.2003 14.5755C17.2903 14.5255 17.3953 14.5005 17.5003 14.5005L17.6203 14.3255H17.5653V14.3255ZM16.2053 14.6305C16.1703 14.6305 16.1353 14.6005 16.1103 14.5455C16.0903 14.5055 16.0753 14.4555 16.0753 14.4105C16.0753 14.3555 16.0753 14.3255 16.1403 14.3255C16.2053 14.3255 16.2053 14.3505 16.2353 14.4055C16.2603 14.4455 16.2703 14.4855 16.2753 14.5305C16.2753 14.5955 16.2503 14.6305 16.2053 14.6305V14.6305Z" fill="#121516"/>
<path d="M18.6756 13.9337L18.5625 14.0469L18.6756 14.16L18.7888 14.0469L18.6756 13.9337Z" fill="#121516"/>
<path d="M19.0445 14.0447L18.9295 13.9297L18.8145 14.0447L18.9295 14.1597L19.0445 14.0447Z" fill="#121516"/>
<path d="M19.6549 14.115C19.7299 14.16 19.7949 14.22 19.8499 14.285C19.9049 14.335 19.9449 14.4 19.9599 14.47C19.9599 14.47 19.9599 14.515 19.9099 14.525C19.8199 14.535 19.7349 14.535 19.6449 14.525H19.5649C19.4799 14.525 19.4249 14.525 19.4099 14.455C19.4299 14.415 19.4449 14.375 19.4549 14.335C19.4549 14.305 19.4549 14.29 19.4199 14.29C19.3849 14.29 19.3899 14.29 19.3649 14.335L19.2849 14.41C19.1249 14.51 18.9349 14.555 18.7449 14.545C18.6449 14.545 18.5499 14.54 18.4549 14.515C18.3749 14.5 18.3149 14.43 18.3149 14.345C18.3149 14.325 18.3149 14.3 18.3149 14.28C18.3149 14.26 18.3149 14.24 18.3149 14.22C18.3149 14.22 18.3149 14.18 18.2799 14.18C18.2449 14.18 18.2399 14.205 18.2149 14.26C18.1849 14.315 18.1699 14.375 18.1699 14.44C18.1699 14.67 18.3349 14.78 18.6699 14.78C18.7749 14.78 18.8799 14.78 18.9799 14.755C19.0949 14.73 19.2049 14.675 19.2949 14.6C19.3099 14.64 19.3349 14.675 19.3699 14.705C19.4149 14.745 19.4699 14.765 19.5249 14.765H19.6549C19.9149 14.765 20.0449 14.645 20.0449 14.405C20.0449 14.335 20.0299 14.265 19.9999 14.2C19.9499 14.13 19.8899 14.065 19.8299 14.005L20.3299 13.84L20.3699 13.625L19.7049 13.875L19.6549 14.115V14.115Z" fill="#121516"/>
<path d="M21.9998 14.0952L22.1098 13.9802L21.9998 13.8652L21.8848 13.9802L21.9998 14.0952Z" fill="#121516"/>
<path d="M21.9809 13.7897L21.8709 13.6797L21.7559 13.7897L21.8709 13.9047L21.9809 13.7897Z" fill="#121516"/>
<path d="M22.2857 14.2795C22.2757 14.2495 22.2557 14.2145 22.2357 14.1895V14.2195L22.1507 14.3495C22.1907 14.3845 22.2207 14.4345 22.2307 14.4895C22.2307 14.5395 22.1907 14.5645 22.1157 14.5645C22.0707 14.5645 22.0257 14.5495 21.9957 14.5095C21.9857 14.4745 21.9757 14.4395 21.9707 14.4045C21.9707 14.3645 21.9557 14.3445 21.9257 14.3445C21.9007 14.3445 21.8857 14.3445 21.8757 14.3995C21.8707 14.4345 21.8557 14.4695 21.8407 14.5045C21.8207 14.5445 21.7757 14.5645 21.7307 14.5595C21.6857 14.5645 21.6407 14.5445 21.6157 14.5045C21.6057 14.4695 21.5957 14.4345 21.5857 14.3995C21.5857 14.3645 21.5857 14.3445 21.5407 14.3445C21.4957 14.3445 21.5057 14.3445 21.4957 14.3995C21.4857 14.4345 21.4757 14.4695 21.4607 14.5045C21.4357 14.5445 21.3907 14.5645 21.3457 14.5595H21.1557C21.0807 14.5595 20.9957 14.4995 20.9007 14.3695L20.8007 14.5695C20.8407 14.5995 20.8757 14.6345 20.9057 14.6745C20.9407 14.7095 20.9657 14.7495 20.9707 14.7995C20.9707 14.8595 20.9107 14.9395 20.7957 15.0245C20.6957 15.0995 20.5857 15.1645 20.4707 15.2095C20.5907 15.2445 20.7157 15.2645 20.8407 15.2595C20.8657 15.2495 20.8907 15.2295 20.9057 15.2095C21.0257 15.0895 21.0857 14.9295 21.0807 14.7595C21.1257 14.7695 21.1657 14.7695 21.2107 14.7595H21.3407C21.4057 14.7445 21.4657 14.7045 21.5007 14.6495C21.5357 14.7245 21.6107 14.7745 21.6907 14.7795C21.7707 14.7795 21.8457 14.7245 21.8757 14.6495C21.9107 14.7245 21.9807 14.7745 22.0657 14.7795C22.1457 14.7795 22.2207 14.7295 22.2507 14.6545C22.2857 14.5845 22.3057 14.5045 22.3057 14.4245C22.3057 14.3745 22.3057 14.3245 22.2857 14.2795V14.2795Z" fill="#121516"/>
<path d="M21.8609 13.9802L21.7459 13.8652L21.6309 13.9802L21.7459 14.0952L21.8609 13.9802Z" fill="#121516"/>
<path d="M1.64477 16.5052C1.68477 16.5052 1.70977 16.4952 1.72477 16.4852C1.73977 16.4702 1.74477 16.4452 1.74477 16.4002V15.8802C1.74477 15.8352 1.73477 15.8052 1.71977 15.7902C1.70977 15.7802 1.68477 15.7752 1.64477 15.7702V15.7402H2.01977C2.09977 15.7402 2.15977 15.7502 2.20977 15.7652C2.30477 15.8002 2.34977 15.8602 2.34977 15.9452C2.34977 16.0102 2.32477 16.0602 2.27477 16.0952C2.23977 16.1202 2.19977 16.1402 2.15477 16.1502L2.40477 16.4852C2.40477 16.4852 2.41977 16.5002 2.42477 16.5052C2.42977 16.5052 2.43977 16.5052 2.44977 16.5102V16.5352H2.20477L1.92977 16.1702V16.4002C1.92977 16.4402 1.93477 16.4702 1.94977 16.4852C1.96477 16.5002 1.98977 16.5052 2.02977 16.5102V16.5402H1.63477V16.5102L1.64477 16.5052ZM2.09977 16.1002C2.13477 16.0802 2.14977 16.0352 2.14977 15.9602C2.14977 15.9152 2.14477 15.8802 2.12977 15.8552C2.10977 15.8102 2.06977 15.7902 2.00977 15.7902C1.97977 15.7902 1.95977 15.7902 1.94977 15.8002C1.93977 15.8102 1.93477 15.8202 1.93477 15.8402V16.1402C2.00977 16.1402 2.06477 16.1302 2.09977 16.1102V16.1002Z" fill="#121516"/>
<path d="M2.49047 16.5046C2.52047 16.5046 2.54047 16.4896 2.56047 16.4646C2.57047 16.4496 2.58547 16.4146 2.60547 16.3646L2.86547 15.7246H2.89547L3.15547 16.3396C3.18547 16.4096 3.20547 16.4546 3.22047 16.4746C3.23547 16.4946 3.25547 16.5046 3.28047 16.5046V16.5346H2.90047V16.5046C2.94047 16.5046 2.96547 16.5046 2.97547 16.4946C2.98547 16.4846 2.99547 16.4746 2.99547 16.4546C2.99547 16.4446 2.99547 16.4346 2.98547 16.4146C2.98547 16.4046 2.97547 16.3896 2.97047 16.3746L2.94047 16.3046H2.67547C2.66047 16.3496 2.64547 16.3796 2.64047 16.3946C2.63047 16.4246 2.62547 16.4446 2.62547 16.4596C2.62547 16.4796 2.63547 16.4896 2.66047 16.4946C2.67547 16.4946 2.69547 16.4996 2.72047 16.4996V16.5296H2.48047V16.4996L2.49047 16.5046ZM2.93047 16.2596L2.81547 15.9896H2.80547L2.70047 16.2596H2.93047Z" fill="#121516"/>
<path d="M3.87531 15.7441V15.7741C3.83531 15.7741 3.80531 15.7841 3.79031 15.7941C3.77531 15.8041 3.77031 15.8341 3.77031 15.8791V16.3841C3.77031 16.4691 3.75031 16.5341 3.70531 16.5791C3.66031 16.6241 3.59531 16.6491 3.51531 16.6491C3.45531 16.6491 3.41031 16.6341 3.37531 16.6041C3.34031 16.5741 3.32031 16.5391 3.32031 16.5041C3.32031 16.4741 3.33031 16.4541 3.34531 16.4391C3.36031 16.4241 3.38031 16.4141 3.40531 16.4141C3.43031 16.4141 3.44531 16.4241 3.46031 16.4391C3.47531 16.4541 3.48031 16.4741 3.48031 16.4991C3.48031 16.5191 3.48031 16.5341 3.46531 16.5541C3.45531 16.5741 3.45031 16.5791 3.45031 16.5841C3.45031 16.5941 3.45031 16.6041 3.46531 16.6091C3.47531 16.6141 3.48531 16.6191 3.50031 16.6191C3.53531 16.6191 3.56031 16.6091 3.57031 16.5841C3.57531 16.5691 3.58031 16.5491 3.58031 16.5141V15.8641C3.58031 15.8291 3.57031 15.8041 3.54531 15.7941C3.53031 15.7891 3.50531 15.7841 3.46031 15.7791V15.7491H3.87031L3.87531 15.7441Z" fill="#121516"/>
<path d="M3.92016 16.5046C3.95016 16.5046 3.97016 16.4896 3.99016 16.4646C4.00016 16.4496 4.01516 16.4146 4.03516 16.3646L4.29516 15.7246H4.32516L4.58516 16.3396C4.61516 16.4096 4.63516 16.4546 4.65016 16.4746C4.66516 16.4946 4.68516 16.5046 4.71016 16.5046V16.5346H4.33016V16.5046C4.37016 16.5046 4.39516 16.5046 4.40516 16.4946C4.41516 16.4846 4.42516 16.4746 4.42516 16.4546C4.42516 16.4446 4.42516 16.4346 4.41516 16.4146C4.41516 16.4046 4.40516 16.3896 4.40016 16.3746L4.37016 16.3046H4.10516C4.09016 16.3496 4.07516 16.3796 4.07016 16.3946C4.06016 16.4246 4.05516 16.4446 4.05516 16.4596C4.05516 16.4796 4.06516 16.4896 4.09016 16.4946C4.10516 16.4946 4.12516 16.4996 4.15016 16.4996V16.5296H3.91016V16.4996L3.92016 16.5046ZM4.36016 16.2596L4.24516 15.9896H4.23516L4.13016 16.2596H4.36016Z" fill="#121516"/>
<path d="M4.99047 16.5052C5.03047 16.5052 5.05547 16.4952 5.07047 16.4852C5.08547 16.4702 5.09047 16.4452 5.09047 16.4002V15.8802C5.09047 15.8352 5.08047 15.8052 5.06547 15.7902C5.05547 15.7802 5.03047 15.7752 4.99047 15.7702V15.7402H5.36547C5.44547 15.7402 5.50547 15.7502 5.55547 15.7652C5.65047 15.8002 5.69547 15.8602 5.69547 15.9452C5.69547 16.0102 5.67047 16.0602 5.62047 16.0952C5.58547 16.1202 5.54547 16.1402 5.50047 16.1502L5.75047 16.4852C5.75047 16.4852 5.76547 16.5002 5.77047 16.5052C5.77547 16.5052 5.78547 16.5052 5.79547 16.5102V16.5352H5.55047L5.27547 16.1702V16.4002C5.27547 16.4402 5.28047 16.4702 5.29547 16.4852C5.31047 16.5002 5.33547 16.5052 5.37547 16.5102V16.5402H4.98047V16.5102L4.99047 16.5052ZM5.44547 16.1002C5.48047 16.0802 5.49547 16.0352 5.49547 15.9602C5.49547 15.9152 5.49047 15.8802 5.47547 15.8552C5.45547 15.8102 5.41547 15.7902 5.35547 15.7902C5.32547 15.7902 5.30547 15.7902 5.29547 15.8002C5.28547 15.8102 5.28047 15.8202 5.28047 15.8402V16.1402C5.35547 16.1402 5.41047 16.1302 5.44547 16.1102V16.1002Z" fill="#121516"/>
<path d="M5.84008 16.5046C5.87008 16.5046 5.89008 16.4896 5.91008 16.4646C5.92008 16.4496 5.93508 16.4146 5.95508 16.3646L6.21508 15.7246H6.24508L6.50508 16.3396C6.53508 16.4096 6.55508 16.4546 6.57008 16.4746C6.58508 16.4946 6.60508 16.5046 6.63008 16.5046V16.5346H6.25008V16.5046C6.29008 16.5046 6.31508 16.5046 6.32508 16.4946C6.33508 16.4846 6.34508 16.4746 6.34508 16.4546C6.34508 16.4446 6.34508 16.4346 6.33508 16.4146C6.33508 16.4046 6.32508 16.3896 6.32008 16.3746L6.29008 16.3046H6.02508C6.01008 16.3496 5.99508 16.3796 5.99008 16.3946C5.98008 16.4246 5.97508 16.4446 5.97508 16.4596C5.97508 16.4796 5.98508 16.4896 6.01008 16.4946C6.02508 16.4946 6.04508 16.4996 6.07008 16.4996V16.5296H5.83008V16.4996L5.84008 16.5046ZM6.28008 16.2596L6.16508 15.9896H6.15508L6.05008 16.2596H6.28008Z" fill="#121516"/>
<path d="M6.67883 16.5041C6.71383 16.5041 6.73383 16.5041 6.74883 16.4941C6.77383 16.4791 6.78383 16.4591 6.78383 16.4241V15.8591C6.78383 15.8241 6.77383 15.7991 6.74883 15.7891C6.73383 15.7841 6.70883 15.7791 6.67383 15.7741V15.7441H7.08383V15.7741C7.04883 15.7741 7.02383 15.7791 7.00883 15.7891C6.98383 15.7991 6.97383 15.8241 6.97383 15.8591V16.4241C6.97383 16.4541 6.98383 16.4791 7.00383 16.4891C7.02383 16.4991 7.04883 16.5041 7.08383 16.5041V16.5341H6.67383V16.5041H6.67883Z" fill="#121516"/>
<path d="M7.14062 16.5052C7.17062 16.5052 7.19563 16.5002 7.21063 16.4902C7.23563 16.4752 7.24563 16.4552 7.24563 16.4202V15.8552C7.24563 15.8202 7.23563 15.8002 7.21063 15.7852C7.19563 15.7802 7.17563 15.7752 7.14062 15.7702V15.7402H7.55063V15.7702C7.50063 15.7702 7.47063 15.7802 7.45563 15.7902C7.44063 15.8002 7.43062 15.8302 7.43062 15.8752V16.4302C7.43062 16.4552 7.43562 16.4752 7.45062 16.4802C7.46562 16.4902 7.49063 16.4952 7.53063 16.4952C7.60063 16.4952 7.66063 16.4802 7.70563 16.4502C7.75563 16.4202 7.79563 16.3602 7.83063 16.2702H7.86562L7.82063 16.5352H7.14563V16.5052H7.14062Z" fill="#121516"/>
<path d="M8.13977 15.7441H8.84477V15.9791H8.80977C8.79977 15.8941 8.76477 15.8391 8.71477 15.8091C8.68477 15.7941 8.63977 15.7841 8.58477 15.7841V16.3991C8.58477 16.4441 8.58976 16.4691 8.60476 16.4841C8.61976 16.4991 8.64977 16.5041 8.69977 16.5041V16.5341H8.28477V16.5041C8.32977 16.5041 8.35977 16.4991 8.37477 16.4841C8.38977 16.4691 8.39477 16.4391 8.39477 16.3991V15.7841C8.33977 15.7841 8.29477 15.7941 8.26477 15.8091C8.20977 15.8391 8.17477 15.8991 8.16977 15.9791H8.13477V15.7441H8.13977Z" fill="#121516"/>
<path d="M8.90453 16.5052C8.94453 16.5052 8.96953 16.4952 8.98453 16.4852C8.99953 16.4702 9.00453 16.4452 9.00453 16.4002V15.8802C9.00453 15.8352 8.99453 15.8052 8.97953 15.7902C8.96953 15.7802 8.94453 15.7752 8.90453 15.7702V15.7402H9.27953C9.35953 15.7402 9.41953 15.7502 9.46953 15.7652C9.56453 15.8002 9.60953 15.8602 9.60953 15.9452C9.60953 16.0102 9.58453 16.0602 9.53453 16.0952C9.49953 16.1202 9.45953 16.1402 9.41453 16.1502L9.66453 16.4852C9.66453 16.4852 9.67953 16.5002 9.68453 16.5052C9.68953 16.5052 9.69953 16.5052 9.70953 16.5102V16.5352H9.46453L9.18953 16.1702V16.4002C9.18953 16.4402 9.19453 16.4702 9.20953 16.4852C9.22453 16.5002 9.24953 16.5052 9.28953 16.5102V16.5402H8.89453V16.5102L8.90453 16.5052ZM9.35953 16.1002C9.39453 16.0802 9.40953 16.0352 9.40953 15.9602C9.40953 15.9152 9.40453 15.8802 9.38953 15.8552C9.36953 15.8102 9.32953 15.7902 9.26953 15.7902C9.23953 15.7902 9.21953 15.7902 9.20953 15.8002C9.19953 15.8102 9.19453 15.8202 9.19453 15.8402V16.1402C9.26953 16.1402 9.32453 16.1302 9.35953 16.1102V16.1002Z" fill="#121516"/>
<path d="M9.75414 16.5046C9.78414 16.5046 9.80414 16.4896 9.82414 16.4646C9.83414 16.4496 9.84914 16.4146 9.86914 16.3646L10.1291 15.7246H10.1591L10.4191 16.3396C10.4491 16.4096 10.4691 16.4546 10.4841 16.4746C10.4991 16.4946 10.5191 16.5046 10.5441 16.5046V16.5346H10.1641V16.5046C10.2041 16.5046 10.2291 16.5046 10.2391 16.4946C10.2491 16.4846 10.2591 16.4746 10.2591 16.4546C10.2591 16.4446 10.2591 16.4346 10.2491 16.4146C10.2491 16.4046 10.2391 16.3896 10.2341 16.3746L10.2041 16.3046H9.93914C9.92414 16.3496 9.90914 16.3796 9.90414 16.3946C9.89414 16.4246 9.88914 16.4446 9.88914 16.4596C9.88914 16.4796 9.89914 16.4896 9.92414 16.4946C9.93914 16.4946 9.95914 16.4996 9.98414 16.4996V16.5296H9.74414V16.4996L9.75414 16.5046ZM10.1941 16.2596L10.0791 15.9896H10.0691L9.96414 16.2596H10.1941Z" fill="#121516"/>
<path d="M10.5948 16.5052C10.6398 16.5052 10.6648 16.4952 10.6798 16.4802C10.6948 16.4652 10.6998 16.4402 10.6998 16.4102V15.8552C10.6648 15.8152 10.6398 15.7902 10.6348 15.7852C10.6298 15.7802 10.6148 15.7752 10.5998 15.7702V15.7402H10.8498L11.2498 16.2302H11.2548V15.8852C11.2548 15.8452 11.2498 15.8202 11.2348 15.8002C11.2198 15.7852 11.1898 15.7752 11.1498 15.7702V15.7402H11.3998V15.7702C11.3648 15.7752 11.3398 15.7852 11.3248 15.7952C11.3148 15.8052 11.3048 15.8302 11.3048 15.8652V16.5552H11.2698L10.7548 15.9302H10.7448V16.3902C10.7448 16.4252 10.7448 16.4502 10.7598 16.4652C10.7748 16.4902 10.8098 16.5002 10.8548 16.5052V16.5352H10.5898V16.5052H10.5948Z" fill="#121516"/>
<path d="M11.4648 16.2596H11.4998C11.5198 16.3446 11.5498 16.4096 11.5898 16.4496C11.6298 16.4896 11.6798 16.5096 11.7348 16.5096C11.7898 16.5096 11.8248 16.4946 11.8448 16.4696C11.8648 16.4446 11.8798 16.4146 11.8798 16.3846C11.8798 16.3496 11.8698 16.3196 11.8448 16.2996C11.8298 16.2846 11.7998 16.2646 11.7548 16.2446L11.6798 16.2046C11.6048 16.1696 11.5548 16.1296 11.5248 16.0946C11.4948 16.0596 11.4798 16.0146 11.4798 15.9596C11.4798 15.9046 11.4998 15.8496 11.5398 15.7996C11.5798 15.7496 11.6398 15.7246 11.7248 15.7246C11.7648 15.7246 11.8098 15.7296 11.8498 15.7446C11.8898 15.7596 11.9098 15.7646 11.9198 15.7646C11.9348 15.7646 11.9398 15.7646 11.9448 15.7546C11.9448 15.7446 11.9548 15.7346 11.9548 15.7246H11.9898V15.9796H11.9548C11.9398 15.9196 11.9148 15.8696 11.8748 15.8296C11.8348 15.7896 11.7898 15.7646 11.7348 15.7646C11.6948 15.7646 11.6648 15.7746 11.6448 15.7946C11.6248 15.8146 11.6098 15.8446 11.6098 15.8746C11.6098 15.9096 11.6198 15.9396 11.6398 15.9596C11.6598 15.9796 11.7048 16.0046 11.7798 16.0396L11.8648 16.0846C11.9048 16.1046 11.9348 16.1246 11.9548 16.1496C11.9998 16.1946 12.0198 16.2496 12.0198 16.3096C12.0198 16.3696 11.9948 16.4246 11.9498 16.4746C11.9048 16.5246 11.8298 16.5546 11.7298 16.5546C11.7048 16.5546 11.6848 16.5546 11.6598 16.5496C11.6348 16.5496 11.6148 16.5396 11.5898 16.5296L11.5698 16.5196C11.5698 16.5196 11.5598 16.5196 11.5548 16.5196C11.5498 16.5196 11.5448 16.5196 11.5448 16.5196C11.5348 16.5196 11.5248 16.5196 11.5198 16.5296C11.5198 16.5346 11.5098 16.5446 11.5098 16.5596H11.4748V16.2696L11.4648 16.2596Z" fill="#121516"/>
<path d="M12.0898 16.5044C12.1298 16.5044 12.1548 16.4944 12.1648 16.4794C12.1748 16.4644 12.1848 16.4394 12.1848 16.3944V15.8744C12.1848 15.8294 12.1798 15.8044 12.1648 15.7894C12.1498 15.7744 12.1248 15.7694 12.0898 15.7644V15.7344H12.4648C12.5648 15.7344 12.6398 15.7494 12.6948 15.7844C12.7498 15.8194 12.7748 15.8744 12.7748 15.9494C12.7748 15.9894 12.7648 16.0244 12.7448 16.0594C12.7248 16.0944 12.6898 16.1194 12.6448 16.1394C12.6098 16.1544 12.5748 16.1644 12.5398 16.1644C12.5048 16.1644 12.4498 16.1644 12.3798 16.1644V16.3844C12.3798 16.4294 12.3848 16.4544 12.3998 16.4694C12.4148 16.4844 12.4398 16.4894 12.4798 16.4894V16.5194H12.0898V16.4894V16.5044ZM12.5148 16.1144C12.5498 16.0894 12.5698 16.0394 12.5698 15.9644C12.5698 15.9094 12.5598 15.8694 12.5448 15.8344C12.5248 15.8044 12.4948 15.7844 12.4398 15.7844C12.4148 15.7844 12.3998 15.7844 12.3898 15.7944C12.3798 15.7944 12.3748 15.8094 12.3748 15.8244V16.1394C12.4448 16.1394 12.4898 16.1294 12.5148 16.1144V16.1144Z" fill="#121516"/>
<path d="M13.5342 15.8407C13.6142 15.9207 13.6542 16.0207 13.6542 16.1407C13.6542 16.2607 13.6142 16.3657 13.5342 16.4407C13.4542 16.5157 13.3592 16.5557 13.2392 16.5557C13.1142 16.5557 13.0142 16.5157 12.9342 16.4307C12.8592 16.3507 12.8242 16.2557 12.8242 16.1457C12.8242 16.0207 12.8642 15.9207 12.9392 15.8407C13.0192 15.7607 13.1192 15.7207 13.2392 15.7207C13.3592 15.7207 13.4542 15.7607 13.5342 15.8357V15.8407ZM13.4192 16.3607C13.4392 16.3057 13.4442 16.2307 13.4442 16.1407C13.4442 16.0157 13.4242 15.9207 13.3892 15.8607C13.3492 15.7957 13.3042 15.7657 13.2392 15.7657C13.1492 15.7657 13.0892 15.8207 13.0592 15.9257C13.0442 15.9807 13.0342 16.0557 13.0342 16.1457C13.0342 16.2357 13.0442 16.3107 13.0592 16.3657C13.0892 16.4707 13.1542 16.5207 13.2392 16.5207C13.3242 16.5207 13.3892 16.4707 13.4192 16.3657V16.3607Z" fill="#121516"/>
<path d="M13.7151 16.5052C13.7551 16.5052 13.7801 16.4952 13.7951 16.4852C13.8101 16.4702 13.8151 16.4452 13.8151 16.4002V15.8802C13.8151 15.8352 13.8051 15.8052 13.7901 15.7902C13.7801 15.7802 13.7551 15.7752 13.7151 15.7702V15.7402H14.0901C14.1701 15.7402 14.2301 15.7502 14.2801 15.7652C14.3751 15.8002 14.4201 15.8602 14.4201 15.9452C14.4201 16.0102 14.3951 16.0602 14.3451 16.0952C14.3051 16.1202 14.2701 16.1402 14.2251 16.1502L14.4751 16.4852C14.4751 16.4852 14.4901 16.5002 14.4951 16.5052C14.5001 16.5102 14.5101 16.5052 14.5201 16.5102V16.5352H14.2751L14.0001 16.1702V16.4002C14.0001 16.4402 14.0051 16.4702 14.0201 16.4852C14.0351 16.5002 14.0601 16.5052 14.1001 16.5102V16.5402H13.7051V16.5102L13.7151 16.5052ZM14.1701 16.1002C14.2051 16.0802 14.2201 16.0352 14.2201 15.9602C14.2201 15.9152 14.2151 15.8802 14.2001 15.8552C14.1801 15.8102 14.1401 15.7902 14.0801 15.7902C14.0501 15.7902 14.0301 15.7902 14.0201 15.8002C14.0101 15.8102 14.0051 15.8202 14.0051 15.8402V16.1402C14.0801 16.1402 14.1351 16.1302 14.1701 16.1102V16.1002Z" fill="#121516"/>
<path d="M14.5304 15.7441H15.2354V15.9791H15.2004C15.1904 15.8941 15.1604 15.8391 15.1054 15.8091C15.0754 15.7941 15.0304 15.7841 14.9754 15.7841V16.3991C14.9754 16.4441 14.9804 16.4691 14.9954 16.4841C15.0104 16.4991 15.0404 16.5041 15.0904 16.5041V16.5341H14.6754V16.5041C14.7204 16.5041 14.7504 16.4991 14.7654 16.4841C14.7804 16.4691 14.7854 16.4391 14.7854 16.3991V15.7841C14.7304 15.7841 14.6854 15.7941 14.6554 15.8091C14.6004 15.8391 14.5654 15.8991 14.5604 15.9791H14.5254V15.7441H14.5304Z" fill="#121516"/>
<path d="M15.214 16.5046C15.244 16.5046 15.264 16.4896 15.284 16.4646C15.294 16.4496 15.309 16.4146 15.329 16.3646L15.589 15.7246H15.624L15.884 16.3396C15.914 16.4096 15.934 16.4546 15.949 16.4746C15.964 16.4946 15.984 16.5046 16.009 16.5046V16.5346H15.629V16.5046C15.669 16.5046 15.694 16.5046 15.704 16.4946C15.714 16.4946 15.724 16.4746 15.724 16.4546C15.724 16.4446 15.724 16.4346 15.714 16.4146C15.714 16.4046 15.704 16.3896 15.699 16.3746L15.669 16.3046H15.404C15.389 16.3496 15.374 16.3796 15.369 16.3946C15.359 16.4246 15.354 16.4446 15.354 16.4596C15.354 16.4796 15.364 16.4896 15.389 16.4946C15.404 16.4946 15.424 16.4996 15.449 16.4996V16.5296H15.209V16.4996L15.214 16.5046ZM15.654 16.2596L15.544 15.9896H15.534L15.429 16.2596H15.659H15.654Z" fill="#121516"/>
<path d="M15.9855 15.7441H16.6905V15.9791H16.6555C16.6455 15.8941 16.6105 15.8391 16.5605 15.8091C16.5305 15.7941 16.4855 15.7841 16.4305 15.7841V16.3991C16.4305 16.4441 16.4355 16.4691 16.4505 16.4841C16.4655 16.4991 16.4955 16.5041 16.5455 16.5041V16.5341H16.1305V16.5041C16.1755 16.5041 16.2055 16.4991 16.2205 16.4841C16.2355 16.4691 16.2405 16.4391 16.2405 16.3991V15.7841C16.1855 15.7841 16.1405 15.7941 16.1105 15.8091C16.0555 15.8391 16.0255 15.8991 16.0155 15.9791H15.9805V15.7441H15.9855Z" fill="#121516"/>
<path d="M16.755 16.5041C16.79 16.5041 16.81 16.5041 16.825 16.4941C16.85 16.4791 16.86 16.4591 16.86 16.4241V15.8591C16.86 15.8241 16.85 15.7991 16.825 15.7891C16.81 15.7841 16.785 15.7791 16.75 15.7741V15.7441H17.16V15.7741C17.125 15.7741 17.1 15.7791 17.085 15.7891C17.06 15.7991 17.05 15.8241 17.05 15.8591V16.4241C17.05 16.4541 17.06 16.4791 17.08 16.4891C17.1 16.4991 17.125 16.5041 17.165 16.5041V16.5341H16.755V16.5041V16.5041Z" fill="#121516"/>
<path d="M17.9405 15.8407C18.0205 15.9207 18.0605 16.0207 18.0605 16.1407C18.0605 16.2607 18.0205 16.3657 17.9405 16.4407C17.8605 16.5157 17.7655 16.5557 17.6455 16.5557C17.5205 16.5557 17.4205 16.5157 17.3405 16.4307C17.2655 16.3507 17.2305 16.2557 17.2305 16.1457C17.2305 16.0207 17.2705 15.9207 17.3455 15.8407C17.4255 15.7607 17.5255 15.7207 17.6455 15.7207C17.7655 15.7207 17.8605 15.7607 17.9405 15.8357V15.8407ZM17.8255 16.3607C17.8455 16.3057 17.8505 16.2307 17.8505 16.1407C17.8505 16.0157 17.8305 15.9207 17.7955 15.8607C17.7605 15.8007 17.7055 15.7657 17.6455 15.7657C17.5555 15.7657 17.4955 15.8207 17.4655 15.9257C17.4455 15.9807 17.4405 16.0557 17.4405 16.1457C17.4405 16.2357 17.4505 16.3107 17.4655 16.3657C17.5005 16.4707 17.5605 16.5207 17.6455 16.5207C17.7305 16.5207 17.7955 16.4707 17.8255 16.3657V16.3607Z" fill="#121516"/>
<path d="M18.1202 16.5052C18.1652 16.5052 18.1902 16.4952 18.2052 16.4802C18.2202 16.4652 18.2252 16.4402 18.2252 16.4102V15.8552C18.1902 15.8152 18.1652 15.7902 18.1602 15.7852C18.1552 15.7802 18.1402 15.7752 18.1252 15.7702V15.7402H18.3752L18.7752 16.2302H18.7802V15.8852C18.7802 15.8452 18.7752 15.8202 18.7602 15.8002C18.7452 15.7852 18.7152 15.7752 18.6752 15.7702V15.7402H18.9252V15.7702C18.8902 15.7752 18.8652 15.7852 18.8502 15.7952C18.8352 15.8052 18.8302 15.8302 18.8302 15.8652V16.5552H18.7952L18.2802 15.9302H18.2702V16.3902C18.2702 16.4252 18.2702 16.4502 18.2852 16.4652C18.3002 16.4902 18.3352 16.5002 18.3802 16.5052V16.5352H18.1152V16.5052H18.1202Z" fill="#121516"/>
<path d="M19.8402 15.7548C19.8902 15.7748 19.9202 15.7798 19.9252 15.7798C19.9402 15.7798 19.9502 15.7748 19.9602 15.7598C19.9702 15.7498 19.9752 15.7348 19.9752 15.7248H20.0102V15.9998H19.9802C19.9502 15.9398 19.9252 15.8948 19.8952 15.8598C19.8402 15.7948 19.7802 15.7648 19.7102 15.7648C19.6302 15.7648 19.5752 15.7998 19.5452 15.8648C19.5102 15.9298 19.4952 16.0248 19.4952 16.1348C19.4952 16.2198 19.5052 16.2898 19.5252 16.3398C19.5602 16.4398 19.6302 16.4898 19.7252 16.4898C19.7852 16.4898 19.8402 16.4748 19.8902 16.4398C19.9202 16.4198 19.9552 16.3898 19.9952 16.3448L20.0302 16.3748C19.9852 16.4248 19.9452 16.4648 19.9102 16.4848C19.8502 16.5248 19.7802 16.5448 19.7052 16.5448C19.5902 16.5448 19.4952 16.5098 19.4152 16.4398C19.3302 16.3648 19.2852 16.2598 19.2852 16.1348C19.2852 16.0098 19.3252 15.9048 19.4102 15.8248C19.4902 15.7498 19.5852 15.7148 19.6952 15.7148C19.7452 15.7148 19.7952 15.7248 19.8402 15.7398V15.7548Z" fill="#121516"/>
<path d="M20.8291 15.8407C20.9091 15.9207 20.9491 16.0207 20.9491 16.1407C20.9491 16.2607 20.9091 16.3657 20.8291 16.4407C20.7491 16.5157 20.6541 16.5557 20.5341 16.5557C20.4091 16.5557 20.3091 16.5157 20.2291 16.4307C20.1541 16.3507 20.1191 16.2557 20.1191 16.1457C20.1191 16.0207 20.1591 15.9207 20.2341 15.8407C20.3141 15.7607 20.4141 15.7207 20.5341 15.7207C20.6541 15.7207 20.7491 15.7607 20.8291 15.8357V15.8407ZM20.7141 16.3607C20.7341 16.3057 20.7391 16.2307 20.7391 16.1407C20.7391 16.0157 20.7191 15.9207 20.6841 15.8607C20.6491 15.8007 20.5941 15.7657 20.5341 15.7657C20.4441 15.7657 20.3841 15.8207 20.3541 15.9257C20.3341 15.9807 20.3291 16.0557 20.3291 16.1457C20.3291 16.2357 20.3391 16.3107 20.3541 16.3657C20.3891 16.4707 20.4491 16.5207 20.5341 16.5207C20.6191 16.5207 20.6841 16.4707 20.7141 16.3657V16.3607Z" fill="#121516"/>
<path d="M21.114 16.3796C21.114 16.3796 21.154 16.3496 21.184 16.3496C21.214 16.3496 21.234 16.3596 21.254 16.3796C21.274 16.3996 21.284 16.4246 21.284 16.4496C21.284 16.4746 21.274 16.4996 21.254 16.5196C21.234 16.5396 21.209 16.5496 21.184 16.5496C21.159 16.5496 21.134 16.5396 21.114 16.5196C21.094 16.4996 21.084 16.4746 21.084 16.4496C21.084 16.4246 21.094 16.3996 21.114 16.3796Z" fill="#121516"/>
</g>
<defs>
<clipPath id="clip0_987_160315">
<rect width="24" height="24" fill="white"/>
</clipPath>
</defs>
</svg>
