<svg width="48" height="48" viewBox="0 0 24 24" fill="none" xmlns="http://www.w3.org/2000/svg">
<g clip-path="url(#clip0_987_160683)">
<path d="M6.8454 11.5008L7.4404 10.5858C7.71078 10.168 8.08085 9.82402 8.51727 9.58486C8.9537 9.3457 9.44276 9.21886 9.9404 9.21578H18.2604C18.6436 9.21578 19.0112 9.36802 19.2822 9.63901C19.5532 9.91 19.7054 10.2775 19.7054 10.6608V10.6608C19.7054 10.8505 19.668 11.0384 19.5954 11.2138C19.5228 11.3891 19.4163 11.5484 19.2822 11.6826C19.148 11.8167 18.9887 11.9232 18.8134 11.9958C18.6381 12.0684 18.4502 12.1058 18.2604 12.1058H11.7604V11.8408H18.2004C18.3786 11.8395 18.549 11.7678 18.6745 11.6413C18.8 11.5149 18.8704 11.3439 18.8704 11.1658C18.8697 11.0778 18.8518 10.9908 18.8175 10.9098C18.7832 10.8287 18.7333 10.7552 18.6706 10.6935C18.608 10.6317 18.5337 10.5829 18.4522 10.5499C18.3706 10.5168 18.2834 10.5001 18.1954 10.5008L9.8804 10.5408C9.5835 10.5444 9.2919 10.6199 9.03063 10.761C8.76936 10.9021 8.54624 11.1045 8.3804 11.3508L8.0004 11.9408C7.82121 12.2514 7.58257 12.5237 7.29811 12.7421C7.01366 12.9605 6.68896 13.1207 6.34258 13.2135C5.99619 13.3064 5.6349 13.3301 5.27935 13.2833C4.9238 13.2365 4.58096 13.1201 4.2704 12.9408V12.9408C3.9591 12.7616 3.68622 12.5227 3.4674 12.2379C3.24858 11.953 3.08812 11.6278 2.99523 11.2808C2.90233 10.9339 2.87882 10.572 2.92604 10.2159C2.97326 9.85981 3.09028 9.51655 3.2704 9.20578L4.6704 6.79578C4.8839 6.42497 5.19135 6.11696 5.56177 5.90278C5.9322 5.68861 6.35252 5.57582 6.7804 5.57578L20.9904 5.55078V5.75578H6.9104C6.9104 5.75578 6.1454 5.81578 5.5254 6.96078H8.3554L7.5854 8.20078H4.7904L3.9104 9.70078C3.67857 10.0919 3.61049 10.5586 3.72097 10.9996C3.83146 11.4406 4.11157 11.8202 4.5004 12.0558V12.0558C4.88639 12.2876 5.34773 12.3593 5.78588 12.2556C6.22404 12.1519 6.60428 11.881 6.8454 11.5008Z" fill="#005BA8"/>
<path d="M11.0048 12.4096C11.0048 11.8242 10.5302 11.3496 9.94477 11.3496C9.35934 11.3496 8.88477 11.8242 8.88477 12.4096C8.88477 12.995 9.35934 13.4696 9.94477 13.4696C10.5302 13.4696 11.0048 12.995 11.0048 12.4096Z" fill="#FAC700"/>
<path d="M17.9641 7.06055H9.49906L8.91406 8.18055H18.0141C18.7116 8.18055 19.3805 8.45764 19.8738 8.95086C20.367 9.44408 20.6441 10.113 20.6441 10.8105V10.8105C20.6447 11.2261 20.5467 11.6359 20.3581 12.0062C20.1695 12.3765 19.8956 12.6967 19.5591 12.9405C20.0327 12.6619 20.4253 12.2643 20.6981 11.7872C20.9708 11.3101 21.1142 10.7701 21.1141 10.2205C21.1141 9.38419 20.7825 8.58195 20.1921 7.98962C19.6016 7.39729 18.8004 7.06319 17.9641 7.06055V7.06055Z" fill="#FAC700"/>
<path d="M19.9301 16.7559V17.5909C19.9301 17.7319 19.8744 17.8672 19.7752 17.9674C19.6759 18.0676 19.5411 18.1245 19.4001 18.1259H18.9551V18.4359H19.4001C19.6242 18.4359 19.8391 18.3468 19.9976 18.1884C20.1561 18.0299 20.2451 17.815 20.2451 17.5909V16.7559H19.9301Z" fill="#121516"/>
<path d="M18.1505 17.0859H19.4405V16.7709H18.1505C18.0095 16.7709 17.8742 16.7153 17.774 16.616C17.6738 16.5168 17.6169 16.382 17.6155 16.2409V15.7109V14.2109H17.3005V17.5509C17.3005 17.6928 17.2442 17.8289 17.1438 17.9292C17.0435 18.0296 16.9074 18.0859 16.7655 18.0859H16.0005C15.8678 18.0785 15.7427 18.0214 15.6501 17.926C15.5575 17.8306 15.5041 17.7038 15.5005 17.5709V16.5709H15.1855V17.5709C15.1854 17.7899 15.2703 18.0004 15.4223 18.1581C15.5744 18.3157 15.7817 18.4082 16.0005 18.4159H16.7605C16.9847 18.4159 17.1996 18.3269 17.3581 18.1684C17.5165 18.01 17.6055 17.795 17.6055 17.5709V16.8909C17.7592 17.017 17.9518 17.0859 18.1505 17.0859Z" fill="#121516"/>
<path d="M18.6756 18.1406H17.7656V18.4506H18.6756V18.1406Z" fill="#121516"/>
<path d="M14.2791 15.4258H13.3691V15.7358H14.2791V15.4258Z" fill="#121516"/>
<path d="M10.2346 18.125H9.84961V18.435H10.2346V18.125Z" fill="#121516"/>
<path d="M4.21508 18.125H3.83008V18.435H4.21508V18.125Z" fill="#121516"/>
<path d="M12.78 16.2405V14.5855V14.2305H12.47V17.5705C12.47 17.7124 12.4136 17.8484 12.3133 17.9488C12.213 18.0491 12.0769 18.1055 11.935 18.1055H11V18.4155H11.935C12.1591 18.4155 12.374 18.3264 12.5325 18.168C12.691 18.0095 12.78 17.7946 12.78 17.5705V16.8955C12.9317 17.0175 13.1203 17.0845 13.315 17.0855H14.775V16.7705H13.315C13.174 16.7705 13.0386 16.7148 12.9385 16.6155C12.8383 16.5163 12.7813 16.3815 12.78 16.2405V16.2405Z" fill="#121516"/>
<path d="M11.0797 17.0848V16.7698H9.61969C9.47866 16.7698 9.34333 16.7141 9.24314 16.6148C9.14295 16.5156 9.08601 16.3808 9.08469 16.2398V16.2398V15.8848H8.77469V17.5698C8.77469 17.7117 8.71832 17.8477 8.61799 17.9481C8.51766 18.0484 8.38158 18.1048 8.23969 18.1048H7.30469V18.4148H8.23969C8.4638 18.4148 8.67872 18.3257 8.83719 18.1673C8.99566 18.0088 9.08469 17.7939 9.08469 17.5698V16.8948C9.23676 17.0161 9.42513 17.083 9.61969 17.0848H11.0797Z" fill="#121516"/>
<path d="M8 16.7705H5.6C5.52998 16.7711 5.46052 16.7579 5.39564 16.7316C5.33076 16.7052 5.27174 16.6663 5.222 16.617C5.17225 16.5677 5.13276 16.5091 5.10582 16.4445C5.07887 16.3798 5.065 16.3105 5.065 16.2405V15.8855H4.745V16.2405C4.74238 16.3806 4.68486 16.5141 4.58481 16.6123C4.48476 16.7105 4.35018 16.7655 4.21 16.7655H3.855C3.71311 16.7655 3.57703 16.7091 3.4767 16.6088C3.37637 16.5084 3.32 16.3724 3.32 16.2305V14.2305H3V16.2305C3 16.4546 3.08903 16.6695 3.24749 16.828C3.40596 16.9864 3.62089 17.0755 3.845 17.0755H4.2C4.33439 17.0762 4.46694 17.0442 4.58626 16.9824C4.70557 16.9206 4.80809 16.8307 4.885 16.7205C4.96327 16.8324 5.06722 16.9239 5.18813 16.9874C5.30905 17.051 5.44342 17.0846 5.58 17.0855H8V16.7705Z" fill="#121516"/>
<path d="M11.8159 14.2305H11.5059V17.0855H11.8159V14.2305Z" fill="#121516"/>
</g>
<defs>
<clipPath id="clip0_987_160683">
<rect width="24" height="24" fill="white"/>
</clipPath>
</defs>
</svg>
