<svg xmlns="http://www.w3.org/2000/svg" width="62.926" height="64" viewBox="0 0 62.926 64">
    <g data-name="Group 72930" transform="translate(-442.25 -2273.25)">
        <rect data-name="Rectangle 7717" width="61.926" height="63" rx="15.5" transform="translate(442.75 2273.75)" style="fill:#e6e6e6;stroke:#777"/>
        <path data-name="Path 54187" d="M16.715 30.333h3.277v3.333h-3.277zm13.11-10H33.1V27h-3.276zm-3.277 10H33.1V37h-3.276v-3.333h-3.277zm9.832 0h3.277v3.333h3.277v-3.333h3.277v3.333h-3.277V37h3.277v6.667h-3.277V47h-3.277v-3.333H33.1V47h-3.276v-6.667h6.555V37h3.277v-3.333h-3.277zm6.555 13.333V37h-3.278v6.667zM36.379 17h9.832v10h-9.832zm3.277 3.333v3.333h3.277v-3.333zM16.715 17h9.832v10h-9.832zm3.277 3.333v3.333h3.278v-3.333zM16.715 37h9.832v10h-9.832zm3.277 3.333v3.333h3.278v-3.333z" transform="translate(442.25 2273.25)" style="fill:#105fae"/>
    </g>
</svg>
