<svg width="48" height="48" viewBox="0 0 48 48" fill="none" xmlns="http://www.w3.org/2000/svg">
<path fill-rule="evenodd" clip-rule="evenodd" d="M28.8602 18.57C27.8219 19.2073 27.0022 20.1456 26.5102 21.26C26.3088 21.7345 26.2051 22.2446 26.2051 22.76C26.2051 23.2754 26.3088 23.7855 26.5102 24.26C27.1101 25.3134 27.9982 26.1738 29.0702 26.74C29.2802 26.88 29.5802 26.68 29.7602 26.57C30.0008 26.4307 30.2284 26.2701 30.4402 26.09C30.9245 25.6799 31.3146 25.1701 31.5838 24.5954C31.853 24.0207 31.9951 23.3946 32.0002 22.76C32.0011 21.8158 31.6954 20.8968 31.1292 20.1412C30.5629 19.3856 29.7667 18.8342 28.8602 18.57Z" fill="#F02137"/>
<path fill-rule="evenodd" clip-rule="evenodd" d="M35.1698 16.14C29.6698 17.03 26.1098 19.07 25.8898 22.76H12.0898C14.3398 18.35 19.8498 16.05 24.5898 16.08L35.1698 16.14Z" fill="#F02137"/>
<path fill-rule="evenodd" clip-rule="evenodd" d="M2.93018 23.38H25.8702C26.3202 26.8 32.3702 29.49 44.9502 31.92L2.95018 23.38H2.93018Z" fill="#F02137"/>
</svg>
