<svg width="48" height="48" viewBox="0 0 48 48" fill="none" xmlns="http://www.w3.org/2000/svg">
<path d="M12.5099 6.50001C17.0987 3.40125 22.7283 2.24704 28.1662 3.29012C33.604 4.3332 38.407 7.48856 41.5234 12.0653C44.6398 16.642 45.8157 22.2672 44.7936 27.709C43.7715 33.1509 40.6346 37.966 36.0699 41.1C35.9594 41.1887 35.8558 41.2857 35.7599 41.39L35.5799 40.93C35.4092 41.3299 35.1326 41.6757 34.7799 41.93C33.5113 42.6806 32.1714 43.3036 30.7799 43.79C31.5885 41.5484 31.7785 39.1304 31.3299 36.79C30.9727 34.9014 30.2638 33.0967 29.2399 31.47C31.6978 31.5542 34.134 30.9849 36.2999 29.82C37.1373 30.5615 37.6684 31.5882 37.7899 32.7C38.0982 34.7846 37.7486 36.9134 36.7899 38.79C36.4635 39.449 36.0961 40.0869 35.6899 40.7L35.8899 40.99C36.2799 40.33 36.6099 39.6 37.0299 38.99C39.1418 37.1381 40.8446 34.8665 42.0299 32.32C43.4814 29.1977 44.0948 25.7513 43.8099 22.32C43.7185 20.79 43.4466 19.2762 42.9999 17.81C41.8499 18.6 40.3799 18.42 39.3799 19.65C38.9661 19.6209 38.5662 19.4885 38.2168 19.2649C37.8674 19.0413 37.5797 18.7336 37.3799 18.37C37.8199 17.99 38.2299 17.48 38.7499 17.37C39.5056 17.2551 40.2743 17.2551 41.0299 17.37C41.6201 17.3798 42.2089 17.3091 42.7799 17.16C41.5864 13.8905 39.5554 10.9916 36.8901 8.7533C34.2248 6.51497 31.0185 5.01563 27.5919 4.40521C24.1653 3.79479 20.6385 4.0947 17.3641 5.27493C14.0898 6.45516 11.1827 8.47436 8.93357 11.1306C6.68443 13.7868 5.17208 16.987 4.54776 20.4111C3.92343 23.8352 4.20901 27.3632 5.37594 30.6423C6.54287 33.9214 8.55025 36.8367 11.1973 39.0966C13.8444 41.3565 17.0384 42.8818 20.4599 43.52C20.4277 43.8707 20.5121 44.2222 20.6999 44.52C20.4299 44.75 20.1199 44.59 19.8299 44.52C15.7681 43.6931 12.0433 41.6787 9.12772 38.7323C6.21214 35.7858 4.23712 32.04 3.45305 27.9697C2.66898 23.8994 3.11117 19.6879 4.72357 15.8692C6.33597 12.0505 9.04596 8.79662 12.5099 6.52001V6.50001Z" fill="#05164C"/>
<path d="M11.1802 14.39C11.1344 14.1618 11.1697 13.9248 11.2799 13.7197C11.3901 13.5147 11.5684 13.3546 11.784 13.2669C11.9996 13.1793 12.2391 13.1696 12.4611 13.2395C12.6831 13.3094 12.8737 13.4546 13.0002 13.65C13.1561 13.9872 13.2149 14.3612 13.1702 14.73C13.1834 16.9319 13.5933 19.1134 14.3802 21.17L13.8002 21.72C12.4626 19.4683 11.573 16.9793 11.1802 14.39Z" fill="#05164C"/>
<path d="M13.63 14.2C13.6169 14.0296 13.6478 13.8586 13.7196 13.7035C13.7915 13.5484 13.9019 13.4143 14.0403 13.314C14.1787 13.2137 14.3405 13.1506 14.5102 13.1306C14.68 13.1107 14.8521 13.1345 15.01 13.2C15.2568 13.2903 15.4582 13.4742 15.5705 13.7119C15.6828 13.9496 15.6969 14.2219 15.61 14.47C15.2841 15.4378 15.1054 16.4491 15.08 17.47C15.134 18.5241 15.3638 19.5617 15.76 20.54C15.416 20.6237 15.081 20.7409 14.76 20.89C13.9626 18.7518 13.5791 16.4815 13.63 14.2Z" fill="#05164C"/>
<path d="M8.8499 14.92C8.89413 14.7117 9.00372 14.5229 9.1627 14.3812C9.32168 14.2395 9.52176 14.1522 9.73379 14.1321C9.94581 14.112 10.1587 14.1602 10.3415 14.2695C10.5243 14.3788 10.6673 14.5437 10.7499 14.74C10.8799 15.12 10.9299 15.55 11.0299 15.94C11.5495 18.1056 12.4102 20.1748 13.5799 22.07L13.2399 22.66C11.3178 20.6554 9.83608 18.2711 8.8899 15.66C8.78229 15.4276 8.76797 15.1627 8.8499 14.92Z" fill="#05164C"/>
<path d="M15.91 14.94C15.9566 14.788 16.0421 14.6508 16.1582 14.5422C16.2743 14.4335 16.4169 14.3572 16.5716 14.3208C16.7264 14.2844 16.888 14.2891 17.0404 14.3346C17.1927 14.3801 17.3305 14.4647 17.44 14.58C17.5961 14.741 17.7048 14.9419 17.7542 15.1607C17.8036 15.3794 17.7918 15.6075 17.72 15.82C17.4388 16.2748 17.1979 16.7533 17 17.25C16.8028 17.8306 16.7242 18.4449 16.7689 19.0564C16.8135 19.6679 16.9805 20.2642 17.26 20.81C16.9353 20.6952 16.6005 20.6114 16.26 20.56C15.4607 18.7923 15.3362 16.7932 15.91 14.94Z" fill="#05164C"/>
<path d="M34.3198 15.91C34.371 15.8229 34.4441 15.7507 34.5318 15.7005C34.6195 15.6503 34.7188 15.6239 34.8198 15.6239C34.9208 15.6239 35.0201 15.6503 35.1078 15.7005C35.1955 15.7507 35.2686 15.8229 35.3198 15.91C35.3831 15.8309 35.4658 15.7695 35.5598 15.7316C35.6537 15.6937 35.7559 15.6807 35.8564 15.6938C35.9568 15.7068 36.0523 15.7455 36.1334 15.8062C36.2146 15.8668 36.2788 15.9473 36.3198 16.04C36.6198 15.9 37.0398 15.84 37.1998 16.3C37.1998 16.92 37.1498 17.53 37.1998 18.15C36.1316 17.712 34.9547 17.6123 33.8281 17.8644C32.7015 18.1166 31.6794 18.7084 30.8998 19.56C30.3198 19.56 29.7398 19.49 29.1498 19.44C29.3244 19.9316 29.5489 20.4041 29.8198 20.85C28.2962 23.1044 27.3863 25.7169 27.1798 28.43C26.3498 28.24 25.7498 27.32 25.0498 26.76L25.3998 26.62C25.2985 26.4855 25.205 26.3453 25.1198 26.2C25.1136 26.0728 25.1494 25.9471 25.2216 25.8423C25.2939 25.7375 25.3987 25.6594 25.5198 25.62C25.4011 25.4817 25.3095 25.3222 25.2498 25.15C25.3096 24.9337 25.4489 24.748 25.6398 24.63C25.572 24.5457 25.5275 24.4452 25.5105 24.3384C25.4936 24.2316 25.5049 24.1222 25.5433 24.0211C25.5817 23.92 25.6459 23.8308 25.7295 23.7621C25.8131 23.6935 25.9132 23.648 26.0198 23.63L25.7798 23.38C25.7954 23.2304 25.855 23.0887 25.9511 22.973C26.0473 22.8573 26.1756 22.7727 26.3198 22.73L26.1598 22.3C26.2183 22.1857 26.3017 22.086 26.4038 22.0081C26.5059 21.9302 26.6241 21.8762 26.7498 21.85C26.6955 21.7644 26.6646 21.6661 26.6601 21.5649C26.6556 21.4636 26.6777 21.363 26.7243 21.2729C26.7708 21.1829 26.8401 21.1066 26.9253 21.0517C27.0105 20.9968 27.1086 20.9652 27.2098 20.96C27.1697 20.8749 27.1502 20.7816 27.1528 20.6875C27.1554 20.5935 27.1801 20.5014 27.2249 20.4187C27.2697 20.336 27.3333 20.2649 27.4105 20.2113C27.4878 20.1577 27.5766 20.123 27.6698 20.11C27.6482 20.0156 27.6487 19.9174 27.6711 19.8232C27.6936 19.729 27.7375 19.6413 27.7994 19.5668C27.8613 19.4923 27.9396 19.4331 28.0281 19.3937C28.1166 19.3544 28.213 19.336 28.3098 19.34C28.265 19.2458 28.2478 19.1409 28.2604 19.0373C28.273 18.9338 28.3147 18.836 28.3807 18.7553C28.4468 18.6746 28.5344 18.6143 28.6334 18.5815C28.7324 18.5487 28.8386 18.5447 28.9398 18.57C28.9124 18.4668 28.9135 18.3582 28.943 18.2556C28.9725 18.153 29.0293 18.0604 29.1073 17.9875C29.1853 17.9147 29.2816 17.8643 29.3859 17.8419C29.4903 17.8194 29.5987 17.8257 29.6998 17.86C29.7016 17.7579 29.7277 17.6578 29.776 17.5679C29.8244 17.478 29.8935 17.401 29.9777 17.3432C30.0618 17.2855 30.1586 17.2487 30.2598 17.236C30.3611 17.2232 30.464 17.2349 30.5598 17.27C30.5769 17.1783 30.6148 17.0917 30.6706 17.0169C30.7264 16.9421 30.7986 16.8811 30.8817 16.8386C30.9647 16.7961 31.0564 16.7732 31.1497 16.7717C31.243 16.7702 31.3354 16.7902 31.4198 16.83C31.4341 16.7291 31.4734 16.6334 31.5342 16.5516C31.595 16.4699 31.6753 16.4046 31.7678 16.3619C31.8603 16.3191 31.962 16.3002 32.0636 16.3069C32.1653 16.3135 32.2637 16.3455 32.3498 16.4C32.366 16.2921 32.4119 16.1908 32.4823 16.1074C32.5526 16.024 32.6447 15.9617 32.7483 15.9275C32.852 15.8933 32.963 15.8885 33.0692 15.9137C33.1754 15.9388 33.2725 15.9929 33.3498 16.07C33.3915 15.983 33.4536 15.9074 33.5308 15.8495C33.608 15.7916 33.698 15.7532 33.7932 15.7375C33.8883 15.7218 33.9859 15.7292 34.0776 15.7593C34.1693 15.7893 34.2524 15.841 34.3198 15.91Z" fill="#05164C"/>
<path d="M6.99978 16.46C7.07223 16.3314 7.17224 16.2205 7.29262 16.1352C7.413 16.0498 7.55079 15.9922 7.69608 15.9664C7.84137 15.9405 7.99058 15.9472 8.13299 15.9859C8.2754 16.0245 8.40749 16.0943 8.51979 16.19C8.66779 16.4578 8.79807 16.7351 8.90978 17.02C9.90954 19.2598 11.3168 21.2943 13.0598 23.02C13.0598 23.18 12.9798 23.51 12.9498 23.67C10.6768 22.0389 8.687 20.0458 7.05978 17.77C6.92723 17.5795 6.85126 17.3555 6.84064 17.1237C6.83003 16.8919 6.8852 16.6618 6.99978 16.46Z" fill="#05164C"/>
<path d="M31.1802 19.72C31.8033 19.0454 32.5954 18.5496 33.4745 18.2841C34.3537 18.0186 35.2878 17.993 36.1802 18.21C36.6373 18.2797 37.0514 18.5189 37.3402 18.88C37.5731 19.171 37.8641 19.4103 38.1947 19.5825C38.5253 19.7547 38.8882 19.856 39.2602 19.88C39.2602 20.15 39.1902 20.41 39.1602 20.68C38.8756 20.4702 38.5707 20.2893 38.2502 20.14L37.9402 20.41C38.2157 20.4537 38.479 20.5546 38.7133 20.7062C38.9475 20.8577 39.1474 21.0566 39.3002 21.29C38.9789 20.97 38.5736 20.7476 38.1311 20.6485C37.6887 20.5494 37.2272 20.5777 36.8002 20.73C36.8002 20.81 36.6602 20.95 36.6202 21.03C37.1256 20.8143 37.6939 20.7975 38.2113 20.983C38.7286 21.1684 39.1568 21.5423 39.4102 22.03C39.1344 21.7258 38.7901 21.4918 38.4057 21.3474C38.0213 21.2031 37.608 21.1525 37.2002 21.2C36.9302 21.2 36.5902 21.45 36.3602 21.2C36.2502 20.73 36.6802 20.58 36.9302 20.48C37.1802 20.38 37.7702 20.53 38.1002 20.12C37.7602 20.0513 37.4089 20.0626 37.074 20.1528C36.739 20.243 36.4296 20.4098 36.1702 20.64C35.9302 20.94 36.1202 21.33 36.2902 21.64C36.1635 21.7844 36.0714 21.9559 36.0212 22.1414C35.9709 22.3269 35.9637 22.5213 36.0002 22.71C36.117 22.9362 36.2954 23.1248 36.5148 23.254C36.7342 23.3832 36.9857 23.4476 37.2402 23.44C37.7302 23.44 38.1102 22.97 38.5702 22.84C38.5702 23.79 38.4002 25.02 37.5702 25.26C36.3602 25.51 34.9602 24.96 33.9102 26.09C33.7802 25.95 33.6502 25.83 33.5202 25.7C33.518 25.5801 33.4921 25.4619 33.444 25.3521C33.396 25.2422 33.3267 25.143 33.2402 25.06C33.2599 24.9335 33.2494 24.804 33.2094 24.6823C33.1694 24.5607 33.1011 24.4502 33.0102 24.36L33.1602 24.1L32.9202 23.71L33.0802 23.41L32.9202 23C33.0203 22.8989 33.0765 22.7623 33.0765 22.62C33.0765 22.4777 33.0203 22.3411 32.9202 22.24C33.2484 22.3136 33.5902 22.2997 33.9114 22.1997C34.2326 22.0997 34.5218 21.917 34.7502 21.67C35.2202 21.04 34.7502 19.93 34.1302 19.95C33.1702 19.84 32.1702 19.8 31.1802 19.72Z" fill="#05164C"/>
<path d="M6.00001 19.16C6.09394 18.9641 6.24633 18.8021 6.43618 18.6964C6.62604 18.5908 6.844 18.5466 7.06001 18.57C8.73598 20.773 10.7631 22.6853 13.06 24.23C13.11 24.44 13.15 24.65 13.2 24.86C10.6425 23.8842 8.29158 22.4356 6.27001 20.59C6.07598 20.4132 5.94471 20.1781 5.89601 19.9201C5.84731 19.6622 5.88381 19.3954 6.00001 19.16Z" fill="#05164C"/>
<path d="M29.73 19.91C31.2 20.03 32.68 20.07 34.14 20.26C34.58 20.26 34.86 21.11 34.54 21.53C34.22 21.95 33.78 21.95 33.39 22.02C33.2 21.44 32.67 21.58 32.39 21.9C31.8063 21.8457 31.2489 21.6311 30.7795 21.28C30.3101 20.9288 29.9468 20.4547 29.73 19.91Z" fill="#05164C"/>
<path d="M14.7998 21.85C14.8898 21.07 15.7298 20.85 16.0998 21.38C16.699 22.2863 17.4956 23.0453 18.4298 23.6L18.1998 24.19C17.1018 23.8408 16.0827 23.2803 15.1998 22.54C15.0835 22.4646 14.9867 22.3628 14.9171 22.2429C14.8476 22.123 14.8074 21.9884 14.7998 21.85Z" fill="#05164C"/>
<path d="M16.2998 21C16.8732 21.0174 17.4192 21.2493 17.8298 21.65C18.275 22.1294 18.783 22.5465 19.3398 22.89C19.0859 23.0146 18.8418 23.1583 18.6098 23.32C17.6566 22.7536 16.862 21.9556 16.2998 21Z" fill="#05164C"/>
<path d="M30 21.14C30.7287 21.7001 31.59 22.0618 32.5 22.19C32.3834 22.286 32.3058 22.4213 32.2819 22.5704C32.258 22.7196 32.2893 22.8723 32.37 23L32.15 23.4L32.34 23.74C32.2791 23.8677 32.2589 24.011 32.2822 24.1505C32.3055 24.29 32.371 24.419 32.47 24.52C32.4063 24.6473 32.3925 24.7938 32.4314 24.9308C32.4702 25.0677 32.5589 25.1852 32.68 25.26V25.68L33 26C32.9761 26.1441 33.0084 26.2919 33.0903 26.4128C33.1722 26.5338 33.2974 26.6187 33.44 26.65C33.4399 26.7951 33.4962 26.9346 33.5969 27.0391C33.6976 27.1435 33.835 27.2048 33.98 27.21C34.09 27.63 34.4 27.67 34.69 27.67C34.8277 27.8196 34.9783 27.9568 35.14 28.08C32.66 28.9 30.06 29.56 27.52 28.87C27.695 26.1279 28.5471 23.4721 30 21.14Z" fill="#05164C"/>
<path d="M6.05978 22.7C6.07941 22.4899 6.14406 22.2865 6.24931 22.1036C6.35457 21.9206 6.49798 21.7625 6.66978 21.64C8.66568 23.2504 10.9259 24.5023 13.3498 25.34C13.4598 25.53 13.5798 25.72 13.6998 25.91C11.2683 25.6165 8.90265 24.9203 6.69978 23.85C6.49182 23.7425 6.32017 23.5761 6.20633 23.3715C6.09249 23.167 6.04152 22.9334 6.05978 22.7Z" fill="#05164C"/>
<path d="M36.2501 22C36.3515 21.8477 36.4928 21.7261 36.6585 21.6485C36.8243 21.5709 37.0081 21.5403 37.1901 21.56C37.7101 21.56 38.0501 22.21 38.5401 22.39C38.0301 22.82 37.4301 23.25 36.8101 23.05C36.6022 22.9769 36.4294 22.8284 36.3257 22.634C36.222 22.4396 36.195 22.2134 36.2501 22Z" fill="#05164C"/>
<path d="M38.7101 21.85C39.0771 22.1361 39.3547 22.5213 39.5101 22.96C39.6701 23.55 39.7601 24.16 39.8701 24.76C39.4438 24.8399 39.0064 24.8399 38.5801 24.76C38.819 23.8087 38.8632 22.8189 38.7101 21.85Z" fill="#05164C"/>
<path d="M13.5499 23.11C13.5989 22.9887 13.6762 22.8809 13.7754 22.7956C13.8745 22.7104 13.9927 22.65 14.1199 22.6197C14.2471 22.5893 14.3798 22.5899 14.5068 22.6212C14.6338 22.6526 14.7514 22.7139 14.8499 22.8C15.8232 23.6017 16.9493 24.1971 18.1599 24.55L18.3399 25.18C16.7958 25.3121 15.2453 25.0144 13.8599 24.32C13.6785 24.1834 13.5491 23.9893 13.4927 23.7694C13.4364 23.5495 13.4565 23.3169 13.5499 23.11Z" fill="#05164C"/>
<path d="M18.7299 24C19.0299 23.37 19.7299 23 20.2099 23.45C22.8338 25.1998 25.2553 27.2356 27.4299 29.52C29.4152 31.8107 30.7149 34.6145 31.1799 37.61C31.4887 39.7501 31.2265 41.9338 30.4199 43.94C29.5755 44.212 28.7134 44.4258 27.8399 44.58C28.8275 42.6471 29.2306 40.4683 28.9999 38.31C28.7728 36.4526 28.1191 34.6728 27.0899 33.11C24.9299 29.71 21.9799 27.52 19.0899 25.53C18.8859 25.3388 18.7429 25.0915 18.6789 24.8194C18.6148 24.5472 18.6326 24.2621 18.7299 24Z" fill="#05164C"/>
<path d="M7.81988 26.39C7.65413 26.3251 7.50523 26.2235 7.38432 26.0928C7.2634 25.9622 7.17361 25.8059 7.12167 25.6356C7.06973 25.4654 7.05698 25.2856 7.08437 25.1097C7.11177 24.9338 7.17861 24.7664 7.27988 24.62C9.38718 25.499 11.6161 26.052 13.8899 26.26C14.1173 26.4226 14.3313 26.6032 14.5299 26.8C12.2866 27.0632 10.0144 26.9244 7.81988 26.39Z" fill="#05164C"/>
<path d="M14.1901 24.86C15.5403 25.4047 16.9989 25.6272 18.4501 25.51C18.6537 25.6752 18.8412 25.8593 19.0101 26.06C17.7701 26.24 16.5301 26.41 15.2801 26.52C15.0901 26.5024 14.9065 26.4423 14.7429 26.344C14.5794 26.2458 14.4401 26.112 14.3354 25.9525C14.2306 25.793 14.1632 25.6119 14.138 25.4228C14.1129 25.2337 14.1307 25.0413 14.1901 24.86Z" fill="#05164C"/>
<path d="M38.4299 25C38.9473 25.112 39.4826 25.112 39.9999 25C40.2099 26.06 40.4699 27.11 40.6099 28.2C40.5092 28.4963 40.3292 28.7592 40.0894 28.9602C39.8496 29.1612 39.5592 29.2926 39.2499 29.34C38.6462 29.4395 38.0268 29.3703 37.4599 29.14C37.2099 28.93 36.8699 28.69 36.9099 28.23C36.9499 27.77 37.5699 27.31 37.2799 26.76C36.9899 26.21 36.3899 26.52 36.1099 26.96C36.4277 26.9316 36.7423 26.8747 37.0499 26.79C37.0853 27.263 36.9386 27.7316 36.6399 28.1C36.4778 27.7904 36.2374 27.5287 35.9426 27.341C35.6478 27.1533 35.309 27.046 34.9599 27.03C34.8143 26.869 34.6155 26.766 34.3999 26.74C34.3299 26.56 34.2499 26.37 34.1699 26.19C34.5728 25.9041 35.0301 25.7042 35.5136 25.6027C35.997 25.5012 36.4961 25.5003 36.9799 25.6C37.3989 25.5981 37.8098 25.4841 38.1699 25.27C38.2143 25.8744 38.3632 26.4665 38.6099 27.02C38.3899 27.19 38.0899 27.34 38.0299 27.72C37.8799 28.62 38.9399 29.16 39.3199 28.48C39.4899 27.97 38.9999 27.6 38.7099 27.87C38.8599 27.99 39.0199 28.1 39.1699 28.23C38.9399 28.82 38.3099 28.37 38.1699 27.88C38.2805 27.6139 38.4877 27.3995 38.7499 27.28C39.2636 27.6536 39.8848 27.8501 40.5199 27.84C40.5199 27.75 40.4099 27.57 40.3699 27.48C39.8299 27.48 39.1299 27.48 38.8199 26.75C38.563 26.2024 38.4299 25.6049 38.4299 25Z" fill="#05164C"/>
<path d="M16.0002 26.85C17.1502 26.61 18.3202 26.49 19.4702 26.29C19.8702 26.54 20.2702 26.76 20.6602 27.04C19.2202 27.25 17.7802 27.49 16.3402 27.68C16.0002 27.79 15.6402 27.16 16.0002 26.85Z" fill="#05164C"/>
<path d="M9.1001 27.1C11.0183 27.355 12.9619 27.355 14.8801 27.1C15.1101 27.28 15.3301 27.47 15.5501 27.66C14.0301 27.93 12.5001 28.11 10.9701 28.35C10.4901 28.41 9.9701 28.54 9.5301 28.12C9.29024 27.8293 9.14076 27.4747 9.1001 27.1Z" fill="#05164C"/>
<path d="M17.1299 27.88C18.4199 27.73 19.6999 27.48 20.9899 27.33C21.3522 27.531 21.6881 27.7762 21.9899 28.06C20.4699 28.31 18.9399 28.54 17.4199 28.75C17.0799 28.76 16.9199 28.25 17.1299 27.88Z" fill="#05164C"/>
<path d="M11.4799 28.63C12.9199 28.4 14.3699 28.19 15.8099 27.99C16.1512 28.1942 16.4582 28.4506 16.7199 28.75C15.0099 28.98 13.2999 29.31 11.5899 29.5C11.2099 29.57 10.9999 28.65 11.4799 28.63Z" fill="#05164C"/>
<path d="M27.46 29.13C30.0911 29.6198 32.8084 29.3206 35.27 28.27L36.11 29.65C33.9563 30.7834 31.5417 31.3284 29.11 31.23C28.6157 30.488 28.064 29.7858 27.46 29.13Z" fill="#05164C"/>
<path d="M18.43 29C19.74 28.79 21.06 28.59 22.37 28.41C22.65 28.65 22.92 28.89 23.19 29.15C21.78 29.44 20.36 29.59 18.94 29.83C18.7 29.83 18.39 29.96 18.22 29.64C18.05 29.32 18.18 28.93 18.43 29Z" fill="#05164C"/>
<path d="M12.65 29.72C14.11 29.43 15.58 29.28 17.04 29.03L17.87 29.81C16.24 30.06 14.61 30.32 12.99 30.55C12.67 30.58 12.43 30.07 12.65 29.72Z" fill="#05164C"/>
<path d="M19.3899 30.08C20.7699 29.82 22.1499 29.67 23.5299 29.43C23.7999 29.68 24.0599 29.94 24.3099 30.22C22.7799 30.47 21.2499 30.71 19.7099 30.92C19.3899 31 19.0899 30.4 19.3899 30.08Z" fill="#05164C"/>
<path d="M13.9402 30.77C15.3502 30.51 16.7802 30.34 18.2002 30.12L19.0102 30.9C17.4302 31.13 15.8502 31.4 14.2602 31.6C13.9402 31.67 13.6602 31.1 13.9402 30.77Z" fill="#05164C"/>
<path d="M20.5998 31.13L24.3998 30.57C24.7898 30.49 25.0198 31.06 25.3198 31.32C23.8298 31.58 22.3198 31.78 20.8498 32.01C20.5898 32.1 20.4098 31.8 20.2598 31.55C20.3698 31.41 20.4198 31.12 20.5998 31.13Z" fill="#05164C"/>
<path d="M15.07 31.86C16.49 31.61 17.91 31.41 19.33 31.21C19.58 31.47 19.84 31.73 20.09 32L15.41 32.7C15.07 32.81 14.73 32.17 15.07 31.86Z" fill="#05164C"/>
<path d="M21.3901 32.3C22.7701 32.03 24.1601 31.89 25.5401 31.65C25.7601 31.91 25.9701 32.19 26.1801 32.47C24.7001 32.68 23.1801 32.93 21.7401 33.13C21.4101 33.23 21.0901 32.63 21.3901 32.3Z" fill="#05164C"/>
<path d="M16.0701 33C17.4801 32.68 18.9201 32.56 20.3401 32.31L21.0201 33.13C19.4801 33.32 17.9501 33.62 16.4101 33.79C16.1101 33.83 15.8701 33.34 16.0701 33Z" fill="#05164C"/>
<path d="M22.2401 33.43C23.6201 33.16 25.0101 33.01 26.4001 32.79C26.5701 33.06 26.7401 33.34 26.9001 33.62C25.4701 33.81 24.0501 34.07 22.6201 34.25C22.2801 34.38 21.9401 33.78 22.2401 33.43Z" fill="#05164C"/>
<path d="M17.4198 34C18.6998 33.82 19.9798 33.59 21.2598 33.45C21.4952 33.6894 21.7032 33.9544 21.8798 34.24C20.4398 34.46 18.9998 34.68 17.5598 34.88C17.482 34.8985 17.4007 34.8965 17.324 34.874C17.2472 34.8516 17.1777 34.8095 17.1221 34.7519C17.0666 34.6944 17.027 34.6234 17.0073 34.5459C16.9876 34.4684 16.9885 34.3871 17.0098 34.31C16.9998 34 17.2598 34 17.4198 34Z" fill="#05164C"/>
<path d="M22.9998 34.53L27.0998 33.92L27.5398 34.75C26.1198 34.95 24.7098 35.21 23.2898 35.38C22.9998 35.35 22.8198 34.88 22.9998 34.53Z" fill="#05164C"/>
<path d="M17.8999 35.16L22.1199 34.55C22.2999 34.81 22.4799 35.08 22.6499 35.36C21.1699 35.56 19.6499 35.84 18.2099 36.02C17.8599 36 17.7299 35.52 17.8999 35.16Z" fill="#05164C"/>
<path d="M23.78 35.65C25.08 35.45 26.38 35.25 27.67 35.08L28 35.92C26.76 36.12 25.51 36.3 24.27 36.49C24.07 36.49 23.82 36.58 23.66 36.36C23.5 36.14 23.53 35.67 23.78 35.65Z" fill="#05164C"/>
<path d="M18.7002 36.31C20.0802 36.04 21.4702 35.9 22.8502 35.66L23.3002 36.5C21.8502 36.72 20.4002 36.98 18.9502 37.14C18.6202 37.23 18.3602 36.51 18.7002 36.31Z" fill="#05164C"/>
<path d="M24.2002 36.86C25.4902 36.58 26.8102 36.48 28.1002 36.24C28.2002 36.53 28.2802 36.82 28.3702 37.12C27.0902 37.29 25.8102 37.54 24.5202 37.68C24.2102 37.75 23.9302 37.18 24.2002 36.86Z" fill="#05164C"/>
<path d="M19.6001 37.39C20.8901 37.21 22.1701 37.03 23.4601 36.81L23.8501 37.67C22.4701 37.89 21.0901 38.1 19.7201 38.29C19.4601 38.39 19.1001 38.03 19.2301 37.66C19.3601 37.29 19.4701 37.43 19.6001 37.39Z" fill="#05164C"/>
<path d="M24.6402 38C25.9002 37.79 27.1802 37.62 28.4402 37.42C28.5002 37.71 28.5502 38.01 28.6002 38.31C27.4002 38.48 26.2102 38.68 25.0202 38.84C24.6702 38.91 24.4702 38.42 24.6402 38Z" fill="#05164C"/>
<path d="M19.9998 38.59L23.9998 38C24.1098 38.28 24.2198 38.57 24.3198 38.85L20.4698 39.44C20.2698 39.44 20.0198 39.54 19.8598 39.31C19.6998 39.08 19.7298 38.62 19.9998 38.59Z" fill="#05164C"/>
<path d="M25.2298 39.16C26.3598 39 27.4998 38.81 28.6398 38.66C28.6398 38.96 28.6398 39.26 28.6398 39.56L25.6398 40.02C25.4298 40.02 25.1698 40.11 25.0198 39.85C24.8698 39.59 24.9998 39.14 25.2298 39.16Z" fill="#05164C"/>
<path d="M20.3402 39.81C21.6902 39.55 23.0602 39.39 24.4202 39.18C24.5102 39.46 24.5902 39.75 24.6702 40.04C23.3202 40.25 21.9602 40.47 20.6102 40.64C20.2802 40.71 20.0002 40.06 20.3402 39.81Z" fill="#05164C"/>
<path d="M25.4198 40.42C26.4998 40.2 27.5898 40.09 28.6698 39.91C28.6698 40.21 28.6698 40.52 28.6198 40.82C27.6198 40.96 26.6198 41.16 25.6198 41.25C25.2998 41.36 24.9998 40.55 25.4198 40.42Z" fill="#05164C"/>
<path d="M20.7299 41C22.0799 40.8 23.4199 40.57 24.7299 40.42C24.7899 40.7 24.8399 40.99 24.8899 41.27C23.5299 41.47 22.1799 41.72 20.8199 41.87C20.4599 41.92 20.3099 41 20.7299 41Z" fill="#05164C"/>
<path d="M25.5999 41.6C26.5999 41.42 27.5999 41.3 28.5999 41.15L28.4199 42.07C27.5499 42.21 26.6899 42.37 25.8199 42.46C25.4599 42.48 25.2299 41.77 25.5999 41.6Z" fill="#05164C"/>
<path d="M21.0998 42.16C22.3998 41.98 23.6798 41.76 24.9798 41.6L25.0698 42.48C23.7498 42.67 22.4298 42.9 21.0698 43.07C20.8398 43.07 20.5298 42.79 20.6498 42.44C20.7698 42.09 20.9998 42.24 21.0998 42.16Z" fill="#05164C"/>
<path d="M25.56 42.87C26.46 42.65 27.38 42.59 28.29 42.43C28.18 42.75 28.07 43.08 27.95 43.43C27.27 43.51 26.6 43.67 25.95 43.72C25.6 43.77 25.29 43.22 25.56 42.87Z" fill="#05164C"/>
<path d="M21.0002 43.41C22.3602 43.2 23.7302 42.99 25.1002 42.81C25.1002 43.11 25.1002 43.41 25.1002 43.71C23.8102 43.88 22.5302 44.1 21.2502 44.28C21.0002 44.36 20.8302 44.08 20.6802 43.85C20.7502 43.7 20.7902 43.4 21.0002 43.41Z" fill="#05164C"/>
<path d="M25.4001 44.09C26.2001 43.94 27.0101 43.84 27.8101 43.72L27.3301 44.66C26.7201 44.75 26.1201 44.83 25.5101 44.87C25.3784 44.6325 25.3392 44.3547 25.4001 44.09Z" fill="#05164C"/>
<path d="M20.8701 44.63C22.2701 44.49 23.6601 44.23 25.0501 44.04L24.9301 44.91C23.5703 45.0015 22.2044 44.9073 20.8701 44.63Z" fill="#05164C"/>
</svg>
