<svg width="48" height="48" viewBox="0 0 48 48" fill="none" xmlns="http://www.w3.org/2000/svg">
<g clip-path="url(#clip0_314_3276)">
<path d="M41.7498 9.28001H40.5198C39.8598 9.24001 39.2098 9.50001 38.7698 10C38.0198 10.82 37.2598 11.62 36.4998 12.42C36.3298 12.63 36.2598 12.9 36.3098 13.16C36.3298 13.29 36.4398 13.37 36.5698 13.35C36.6198 13.35 36.6598 13.32 36.6998 13.29C36.8198 13.18 36.9198 13.05 36.9798 12.9C37.0798 12.65 37.1498 12.61 37.4098 12.65C37.5098 12.67 37.6098 12.7 37.6998 12.76C37.9398 12.92 38.2598 12.92 38.4998 12.76C39.3498 12.06 40.1998 11.34 40.9898 10.56C41.3098 10.24 41.6198 9.91001 41.8998 9.56001V9.51001C41.8698 9.42001 41.9998 9.24001 41.7498 9.28001Z" fill="#0D2355"/>
<path d="M25.3599 37.31C25.6699 36.97 25.9599 36.65 26.2399 36.31C27.1299 35.25 27.8299 34.04 28.2899 32.74C29.0799 30.58 28.5999 28.17 27.0499 26.47C26.0199 25.3 24.7199 24.4 23.2599 23.85C22.1499 23.42 20.9999 23.12 19.8299 22.95C18.3699 22.76 16.8899 22.68 15.4199 22.73C14.8599 22.73 14.2999 22.78 13.7499 22.81C13.6699 22.81 13.5799 22.79 13.5199 22.74C13.3399 22.58 13.1699 22.41 13.0099 22.23C12.7299 21.93 12.4599 21.63 12.1899 21.31C12.4399 21.16 12.7099 21.06 12.9999 21C13.7699 20.83 14.5699 20.77 15.3599 20.81C17.0999 20.86 18.8299 21.14 20.4999 21.64C20.8599 21.73 21.2099 21.9 21.4999 22.14V21.53C21.4999 21.44 21.4399 21.43 21.3899 21.41C20.5299 20.92 19.5999 20.56 18.6399 20.32C17.2299 19.98 15.7699 19.88 14.3199 20C13.4999 20.05 12.6799 20.19 11.8899 20.42H11.7699C11.7699 20.42 11.5099 20.42 11.3999 20.32C11.0699 19.87 10.7799 19.39 10.5299 18.88C10.5299 18.82 10.5532 18.7833 10.5999 18.77C10.9199 18.64 11.2599 18.56 11.5999 18.53C12.7499 18.4 13.9099 18.42 15.0499 18.58C16.5499 18.74 18.0299 19.02 19.4899 19.41C20.0299 19.54 20.5599 19.72 21.0699 19.93C21.2599 20 21.4299 20.11 21.5799 20.25V19.48C21.5799 19.4 21.5199 19.4 21.4699 19.38C20.5499 18.99 19.6099 18.66 18.6499 18.38C17.3899 18.01 16.0999 17.74 14.7999 17.59C13.3499 17.42 11.8799 17.43 10.4299 17.64C10.3299 17.63 10.2299 17.63 10.1299 17.64C9.9799 17.64 9.8999 17.64 9.8099 17.52C9.6299 17.24 9.4799 16.94 9.3599 16.63C9.2899 16.45 9.2299 16.27 9.1499 16.1C9.0699 15.93 9.1499 15.98 9.2199 15.96C9.7099 15.86 10.1999 15.79 10.6999 15.75C13.0099 15.62 15.3299 15.94 17.5199 16.68C18.8599 17.1 20.1699 17.63 21.4299 18.26L21.5499 18.32H21.6099V17.7C21.6099 17.49 21.5399 17.61 21.4999 17.58C20.7099 17.15 19.8999 16.77 19.0699 16.43C17.4099 15.75 15.6799 15.27 13.9099 15C12.6799 14.81 11.4199 14.75 10.1799 14.85C9.6999 14.89 9.2299 14.96 8.7599 15.06C8.6999 15.09 8.6299 15.06 8.5999 15C8.3299 14.51 8.0999 14 7.8999 13.48C7.8999 13.38 7.8999 13.39 7.9899 13.38C8.8599 13.23 9.7399 13.14 10.6199 13.12C14.3099 13.01 17.9599 13.89 21.1899 15.69C22.2399 16.24 23.2399 16.87 24.1899 17.57C24.2599 17.61 24.2999 17.69 24.2899 17.77C24.1699 19.65 24.5799 21.53 25.4599 23.19C26.1099 24.47 27.0999 25.55 28.3199 26.3C29.9299 27.29 31.9299 27.39 33.6299 26.58C34.6299 26.13 35.5299 25.5 36.2999 24.72C36.3999 24.62 36.4299 24.62 36.5099 24.72C37.4399 26.35 37.4899 28.33 36.6499 30C36.1299 31.13 35.3999 32.15 34.4999 33C32.5399 34.9 30.1299 36.27 27.4999 37C26.8499 37.17 26.1799 37.28 25.4999 37.33L25.3599 37.31Z" fill="#0D2355"/>
<path d="M34.7399 15.32C34.3099 15.91 34.0399 16.6 33.9599 17.32C33.8799 18.04 33.9599 18.76 34.1999 19.44C34.3599 19.83 34.5899 20.2 34.8799 20.51C35.3799 21.06 35.9299 21.55 36.5199 22C36.8299 22.24 37.1299 22.51 37.4099 22.79C38.0199 23.42 38.3999 24.25 38.4799 25.13C38.5699 25.93 38.6099 26.73 38.5799 27.53C38.4899 29.73 37.6799 31.84 36.2799 33.53C35.0699 34.97 33.5699 36.16 31.8899 37C29.9999 37.98 27.9799 38.68 25.8899 39.1L24.7499 39.32C24.5599 39.33 24.3799 39.33 24.1899 39.32H18.4499C18.4499 39.32 18.3999 39.32 18.3799 39.32L18.7999 39.17C21.1199 38.36 23.2099 36.99 24.8699 35.17C25.7799 34.2 26.4499 33.02 26.8199 31.74C27.2499 30.14 27.0399 28.44 26.2399 27C26.0199 26.6 25.7699 26.22 25.4999 25.86C25.5799 25.89 25.6599 25.93 25.7199 25.99C26.6999 26.69 27.4099 27.72 27.7199 28.89C27.9499 29.82 27.9499 30.8 27.7199 31.73C27.3799 33.06 26.7999 34.31 25.9999 35.42C25.2199 36.6 24.2699 37.67 23.1799 38.58C23.1799 38.58 23.1099 38.63 23.0999 38.69C23.6399 38.69 24.1799 38.6 24.7099 38.52C26.3599 38.27 27.9699 37.82 29.5099 37.2C31.1299 36.57 32.6399 35.7 33.9999 34.63C35.3099 33.63 36.3599 32.33 37.0699 30.84C37.6699 29.54 37.9099 28.09 37.7399 26.66C37.6299 25.69 37.3799 24.74 36.9999 23.84C36.9799 23.77 36.9199 23.73 36.8499 23.73C36.6499 23.71 36.4399 23.78 36.2999 23.93C35.4099 24.81 34.2999 25.44 33.0899 25.76C31.8099 26.08 30.4699 26.03 29.2199 25.59C29.1499 25.58 29.0999 25.53 29.0899 25.46C28.8799 24.65 28.7399 23.83 28.6599 23C28.5699 22.12 28.5499 21.23 28.5999 20.35C28.6399 18.48 29.1199 16.65 29.9999 15C30.7899 13.55 32.0999 12.45 33.6599 11.93C34.5099 11.65 35.4099 11.51 36.3099 11.53C36.3099 11.53 36.4299 11.53 36.4499 11.58C36.4899 11.66 36.4499 11.76 36.3799 11.8C36.1599 11.93 35.9699 12.11 35.8199 12.32C35.3999 12.92 35.3999 13.72 35.8199 14.32C36.0999 14.75 36.6599 14.89 37.1099 14.66C37.2699 14.58 37.4599 14.56 37.6399 14.61C37.8299 14.66 37.8699 14.73 37.8599 14.92C37.7999 15.36 37.7999 15.82 37.8599 16.26C37.9299 16.68 38.2199 17.03 38.6199 17.17C38.8899 17.28 39.1799 17.35 39.4799 17.37C39.5299 17.37 39.5799 17.39 39.6199 17.43C39.7399 17.57 39.9399 17.61 40.1099 17.54C40.3099 17.46 40.5099 17.54 40.6999 17.54C40.8699 17.7 40.8799 17.97 40.7199 18.15C40.7199 18.15 40.7099 18.17 40.6999 18.17C40.5099 18.27 40.2999 18.33 40.0799 18.34C39.7799 18.36 39.4899 18.4 39.1999 18.46C39.1199 18.46 39.0399 18.5 38.9699 18.55L39.1599 18.63C39.5799 18.79 39.8599 19.18 39.8599 19.63V20.34C39.8599 20.46 39.7699 20.56 39.6499 20.58C39.5299 20.56 39.4399 20.46 39.4199 20.34L39.3599 19.4C39.3599 19.32 39.3299 19.25 39.2599 19.21C38.6799 18.83 38.0099 18.6 37.3199 18.55H36.8099L37.1299 18.83L38.3499 19.91C38.5999 20.1 38.7199 20.42 38.6699 20.73C38.3699 20.63 38.0699 20.52 37.7599 20.45C37.4599 20.37 37.1399 20.33 36.8299 20.32C36.7299 20.33 36.6299 20.26 36.6199 20.15C36.2099 18.54 35.5999 16.98 34.7999 15.52L34.7399 15.32Z" fill="#0D2355"/>
<path d="M27.4098 24.52C27.3498 24.52 27.3298 24.52 27.2998 24.45C26.0598 23.28 25.2198 21.74 24.9198 20.06C24.7498 19.16 24.6998 18.25 24.7798 17.34C24.7998 17.23 24.7498 17.12 24.6598 17.05C22.2998 15.01 19.5098 13.54 16.4998 12.74C14.0498 12.12 11.5198 11.87 8.99984 12C8.41984 12 7.83984 12.05 7.26984 12.11C7.19984 12.12 7.12984 12.07 7.11984 12C6.79984 11.26 6.53984 10.49 6.33984 9.70001C6.33984 9.58001 6.33984 9.57001 6.44984 9.57001C7.78984 9.57001 9.11984 9.70001 10.4498 9.86001C13.0498 10.17 15.6198 10.73 18.1098 11.55C19.9498 12.12 21.7198 12.9 23.3898 13.87C24.1898 14.32 24.9198 14.89 25.5598 15.55C25.7398 15.74 25.8898 15.95 26.0198 16.18C26.0398 16.25 26.0398 16.33 26.0198 16.4C25.7698 17.81 25.7698 19.26 26.0198 20.67C26.2298 21.94 26.6698 23.16 27.2998 24.28C27.3498 24.35 27.3898 24.43 27.4098 24.52Z" fill="#0D2355"/>
<path d="M39 14.64C38.79 14.61 38.59 14.61 38.38 14.64C38.29 14.64 38.24 14.64 38.25 14.54C38.25 14.33 38.15 14.14 38 14C37.92 13.92 37.94 13.89 38 13.84L39.25 12.84C39.44 12.7 39.7 12.7 39.89 12.84C40.78 13.61 41.29 14.73 41.29 15.91C41.29 16.23 41.22 16.54 41.08 16.82C40.91 17.2 40.48 17.4 40.08 17.28C39.98 17.28 39.92 17.2 39.92 17.09C39.92 16.98 39.94 17 40 17C40.41 16.85 40.67 16.44 40.61 16C40.59 15.72 40.49 15.45 40.32 15.22C40.09 14.9 39.71 14.72 39.32 14.72L39 14.64Z" fill="#0D2355"/>
<path d="M34.7099 16.25C35.2799 17.72 35.84 19.19 36.4 20.66V20.75C36.4 21 36.3399 21.08 36.0999 21.03C35.8599 20.97 35.65 20.84 35.5 20.65C34.4199 19.5 34.0699 17.83 34.6199 16.35C34.6299 16.3 34.6599 16.27 34.7099 16.25Z" fill="#0D2355"/>
<path d="M40.1902 19.25V18.81C40.1902 18.67 40.1902 18.69 40.2902 18.68C40.5102 18.65 40.7202 18.56 40.9002 18.44H41.0002C41.1202 18.57 41.1202 18.78 41.0002 18.91C40.7702 19.13 40.5902 19.41 40.5002 19.72C40.4802 19.81 40.3802 19.86 40.2902 19.84C40.1902 19.84 40.1802 19.75 40.1802 19.67C40.1802 19.59 40.1902 19.39 40.1902 19.25Z" fill="#0D2355"/>
<path d="M34.2101 11.05C34.2101 11.18 34.2001 11.3 34.1501 11.42C34.1501 11.42 34.1501 11.5 34.0801 11.5C34.0401 11.5 34.0101 11.47 34.0001 11.43C33.9101 11.2 33.9101 10.94 34.0001 10.71C34.0001 10.71 34.0001 10.63 34.0801 10.63C34.1601 10.63 34.1501 10.63 34.1701 10.71C34.2001 10.82 34.2201 10.94 34.2101 11.05Z" fill="#0D2355"/>
<path d="M28 23.93C27.85 23.93 27.7 23.9 27.57 23.84C27.53 23.84 27.5 23.8 27.5 23.76C27.5 23.71 27.5 23.7 27.58 23.69C27.81 23.6 28.07 23.6 28.3 23.69C28.3 23.69 28.37 23.69 28.36 23.77C28.35 23.85 28.36 23.83 28.29 23.84C28.2 23.89 28.1 23.92 28 23.93Z" fill="#0D2355"/>
<path d="M29.13 15.72C28.89 15.66 28.67 15.52 28.53 15.31C28.48 15.24 28.53 15.18 28.6 15.19C28.86 15.24 29.08 15.39 29.23 15.61C29.28 15.68 29.25 15.72 29.13 15.72Z" fill="#0D2355"/>
<path d="M35.9199 10.74C35.9199 10.86 35.8999 10.98 35.8599 11.1C35.8599 11.1 35.8599 11.18 35.7799 11.18C35.7499 11.18 35.7199 11.14 35.7099 11.11C35.6299 10.87 35.6299 10.61 35.7099 10.37C35.7099 10.37 35.7099 10.3 35.7999 10.3C35.8399 10.31 35.8599 10.34 35.8699 10.38C35.9099 10.5 35.9299 10.62 35.9199 10.74Z" fill="#0D2355"/>
<path d="M27.9198 24.55C28.0698 24.55 28.2098 24.57 28.3498 24.63C28.3498 24.63 28.4198 24.63 28.4198 24.72C28.4198 24.81 28.4198 24.78 28.3398 24.79C28.0998 24.86 27.8398 24.84 27.6098 24.73C27.5798 24.73 27.5498 24.7 27.5498 24.66C27.5498 24.63 27.5898 24.6 27.6198 24.59C27.7198 24.55 27.8198 24.54 27.9198 24.55Z" fill="#0D2355"/>
<path d="M27.8102 24.14C27.9502 24.14 28.0902 24.16 28.2202 24.22C28.2702 24.22 28.3102 24.22 28.3102 24.31C28.3102 24.4 28.3102 24.38 28.2202 24.39C27.9902 24.45 27.7402 24.43 27.5202 24.33C27.4802 24.33 27.4502 24.29 27.4502 24.25C27.4502 24.2 27.5002 24.19 27.5302 24.18C27.6202 24.15 27.7102 24.13 27.8102 24.14Z" fill="#0D2355"/>
<path d="M28 22.37C27.86 22.37 27.71 22.34 27.58 22.29C27.58 22.29 27.5 22.29 27.5 22.2C27.5 22.11 27.55 22.13 27.59 22.12C27.82 22.06 28.06 22.08 28.28 22.17C28.28 22.17 28.37 22.17 28.36 22.26C28.35 22.35 28.36 22.32 28.27 22.33C28.18 22.36 28.09 22.37 28 22.37Z" fill="#0D2355"/>
<path d="M31.5401 12.82V12.94C31.5401 12.94 31.4701 12.94 31.4401 12.94C31.2601 12.78 31.1301 12.56 31.0801 12.32V12.21C31.0801 12.21 31.1601 12.21 31.1901 12.21C31.3701 12.37 31.4901 12.59 31.5401 12.82Z" fill="#0D2355"/>
<path d="M40.9201 12.36C40.8701 12.6 40.7401 12.81 40.5601 12.97H40.4601C40.4601 12.97 40.4401 12.9 40.4601 12.87C40.5001 12.62 40.6301 12.39 40.8301 12.23H40.9201C40.9201 12.23 40.9201 12.3 40.9201 12.36Z" fill="#0D2355"/>
<path d="M41.2599 12.8C41.1999 13.04 41.0699 13.26 40.8799 13.42C40.8499 13.44 40.8199 13.44 40.7899 13.42C40.7699 13.39 40.7699 13.35 40.7899 13.32C40.8399 13.08 40.9599 12.85 41.1499 12.69C41.1499 12.69 41.2199 12.63 41.2599 12.69C41.2999 12.75 41.2599 12.74 41.2599 12.8Z" fill="#0D2355"/>
<path d="M34.7402 11C34.7402 11.12 34.7202 11.25 34.6802 11.36C34.6802 11.4 34.6502 11.43 34.6102 11.44C34.6102 11.44 34.5402 11.44 34.5302 11.36C34.4502 11.13 34.4502 10.87 34.5302 10.64C34.5302 10.64 34.5302 10.56 34.6102 10.56C34.6902 10.56 34.6802 10.61 34.7002 10.65C34.7302 10.76 34.7502 10.88 34.7402 11Z" fill="#0D2355"/>
<path d="M37.4899 10.52C37.4899 10.64 37.4699 10.77 37.4299 10.88C37.4299 10.88 37.4299 10.96 37.3499 10.95C37.3099 10.95 37.2899 10.92 37.2799 10.89C37.1899 10.65 37.1899 10.39 37.2799 10.15C37.2799 10.15 37.2799 10.08 37.3499 10.08C37.4199 10.08 37.4199 10.08 37.4299 10.16C37.4699 10.27 37.4899 10.4 37.4899 10.52Z" fill="#0D2355"/>
<path d="M33.46 11.24C33.46 11.12 33.48 10.99 33.52 10.88C33.52 10.88 33.52 10.8 33.6 10.8C33.64 10.8 33.67 10.83 33.68 10.87C33.76 11.11 33.76 11.36 33.68 11.6C33.68 11.64 33.64 11.67 33.6 11.67C33.55 11.67 33.53 11.67 33.52 11.59C33.48 11.48 33.46 11.36 33.46 11.24Z" fill="#0D2355"/>
<path d="M29.5098 15.16C29.5098 15.2 29.4832 15.22 29.4298 15.22C29.1598 15.14 28.9398 14.96 28.8198 14.71C28.8198 14.64 28.8198 14.61 28.8998 14.62C29.1598 14.7 29.3798 14.89 29.4998 15.13V15.16H29.5098Z" fill="#0D2355"/>
<path d="M28.2199 16.42C28.4299 16.44 28.6299 16.51 28.7999 16.63C28.8399 16.65 28.8699 16.69 28.8699 16.74C28.8699 16.8 28.7899 16.8 28.7399 16.8C28.5299 16.8 28.3299 16.73 28.1499 16.61C28.1499 16.61 28.0199 16.54 28.0499 16.47C28.0799 16.4 28.1499 16.42 28.2199 16.42Z" fill="#0D2355"/>
<path d="M29.7502 14.8C29.7502 14.89 29.7002 14.91 29.6302 14.87C29.4102 14.74 29.2502 14.52 29.1802 14.27C29.1802 14.19 29.1802 14.15 29.2702 14.17C29.5002 14.32 29.6702 14.54 29.7502 14.8Z" fill="#0D2355"/>
<path d="M28.4102 17.78C28.2102 17.78 28.0202 17.72 27.8502 17.61C27.8502 17.61 27.7702 17.56 27.7802 17.51C27.7902 17.46 27.8402 17.45 27.8902 17.45C28.1202 17.43 28.3502 17.49 28.5502 17.61C28.5502 17.61 28.6302 17.67 28.6202 17.72C28.6102 17.77 28.5502 17.78 28.5002 17.78H28.4102Z" fill="#0D2355"/>
<path d="M28.3902 15.84C28.6002 15.84 28.8202 15.89 29.0002 16C29.0502 16 29.1102 16.07 29.0902 16.14C29.0702 16.21 29.0002 16.14 28.9402 16.14C28.7402 16.13 28.5502 16.06 28.3802 15.95C28.3802 15.95 28.2502 15.89 28.2702 15.81C28.2902 15.73 28.3302 15.85 28.3902 15.84Z" fill="#0D2355"/>
<path d="M27.7802 23.14C27.9302 23.14 28.0902 23.16 28.2302 23.22C28.2302 23.22 28.3202 23.22 28.3102 23.31C28.3002 23.35 28.2702 23.37 28.2302 23.38C27.9902 23.44 27.7402 23.43 27.5202 23.33C27.4802 23.32 27.4602 23.29 27.4502 23.25C27.4502 23.19 27.5002 23.18 27.5402 23.17C27.6202 23.14 27.7002 23.13 27.7802 23.14Z" fill="#0D2355"/>
<path d="M28.0901 16.89C28.3001 16.9 28.5101 16.98 28.6801 17.11C28.6801 17.11 28.7601 17.16 28.7401 17.21C28.7201 17.26 28.6701 17.27 28.6201 17.27C28.4101 17.27 28.2001 17.2 28.0201 17.08C27.9701 17.08 27.9001 17.02 27.9301 16.95C27.9601 16.88 28.0001 16.9 28.0901 16.89Z" fill="#0D2355"/>
<path d="M40.5498 12C40.5098 12.25 40.3698 12.47 40.1798 12.63C40.1498 12.65 40.1198 12.65 40.0898 12.63V12.53C40.1298 12.29 40.2598 12.07 40.4398 11.91C40.4698 11.88 40.5198 11.88 40.5498 11.91V12Z" fill="#0D2355"/>
<path d="M36.75 10.58C36.74 10.46 36.75 10.33 36.81 10.22C36.81 10.22 36.81 10.15 36.87 10.15C36.93 10.15 36.94 10.15 36.96 10.22C37.06 10.47 37.08 10.74 37 11C37 11 37 11.07 36.93 11.07C36.86 11.07 36.86 11.07 36.85 11C36.78 10.87 36.74 10.73 36.75 10.58Z" fill="#0D2355"/>
<path d="M30.09 14.32C30.09 14.38 30.04 14.41 29.98 14.32C29.76 14.18 29.59 13.96 29.52 13.71C29.52 13.64 29.52 13.6 29.62 13.62C29.86 13.78 30.03 14.03 30.09 14.32Z" fill="#0D2355"/>
<path d="M41.5001 13.28C41.4501 13.53 41.3101 13.75 41.1201 13.91C41.0501 13.97 40.9901 13.91 41.0001 13.84C41.0301 13.58 41.1701 13.34 41.3801 13.18C41.4501 13.13 41.4901 13.17 41.5001 13.28Z" fill="#0D2355"/>
<path d="M28.0998 19.25C27.9398 19.25 27.7798 19.23 27.6298 19.17C27.6298 19.17 27.5498 19.17 27.5498 19.09C27.5498 19.01 27.5498 19.02 27.6298 19.01C27.8698 18.93 28.1198 18.93 28.3598 19.01C28.3598 19.01 28.4198 19.01 28.4198 19.09C28.4198 19.17 28.4198 19.15 28.3398 19.16C28.2698 19.21 28.1898 19.24 28.0998 19.25Z" fill="#0D2355"/>
<path d="M31.92 12.51C31.92 12.58 31.92 12.63 31.87 12.65C31.82 12.67 31.79 12.65 31.76 12.6C31.62 12.43 31.53 12.22 31.5 12C31.5 12 31.5 11.9 31.55 11.87C31.6 11.84 31.63 11.87 31.66 11.93C31.8 12.1 31.89 12.3 31.92 12.51Z" fill="#0D2355"/>
<path d="M32.75 11.88C32.75 11.97 32.75 12.12 32.65 12.14C32.55 12.16 32.52 12 32.49 11.91C32.45 11.74 32.45 11.55 32.49 11.38C32.49 11.38 32.49 11.29 32.56 11.28C32.63 11.27 32.64 11.28 32.66 11.36C32.72 11.53 32.75 11.7 32.75 11.88Z" fill="#0D2355"/>
<path d="M31.1399 13.19V13.3C31.1399 13.3 31.0699 13.32 31.0399 13.3C30.8399 13.13 30.7099 12.9 30.6699 12.65V12.56C30.6699 12.56 30.7399 12.54 30.7699 12.56C30.9599 12.72 31.0899 12.94 31.1399 13.19Z" fill="#0D2355"/>
<path d="M28.2601 18.29C28.0801 18.29 27.9001 18.25 27.7401 18.17C27.7401 18.17 27.6401 18.17 27.6501 18.07C27.6601 17.97 27.7201 18 27.7601 18C27.9901 17.97 28.2201 18 28.4301 18.1C28.4301 18.1 28.5101 18.1 28.5101 18.2C28.5101 18.3 28.4401 18.27 28.3901 18.28H28.2601V18.29Z" fill="#0D2355"/>
<path d="M30.7799 13.52V13.64C30.7799 13.64 30.7199 13.66 30.6899 13.64C30.4899 13.47 30.3599 13.24 30.3099 12.99C30.2899 12.96 30.2899 12.93 30.3099 12.9H30.3999C30.5999 13.06 30.7299 13.27 30.7799 13.52Z" fill="#0D2355"/>
<path d="M36.3902 10.65C36.4102 10.76 36.4102 10.88 36.3902 10.99C36.3902 10.99 36.3902 11.08 36.3002 11.08C36.2102 11.08 36.2402 11.03 36.2302 11C36.1602 10.77 36.1602 10.52 36.2302 10.29C36.2302 10.29 36.2302 10.2 36.3202 10.2C36.4102 10.2 36.3902 10.26 36.4002 10.3C36.4202 10.42 36.4102 10.53 36.3902 10.65Z" fill="#0D2355"/>
<path d="M35.3498 10.85C35.3498 10.98 35.3298 11.1 35.2898 11.22C35.2898 11.22 35.2898 11.29 35.1998 11.29C35.1098 11.29 35.1498 11.29 35.1398 11.22C35.0498 10.99 35.0498 10.72 35.1398 10.49C35.1398 10.49 35.1398 10.42 35.1998 10.42C35.2598 10.42 35.2698 10.42 35.2898 10.49C35.3298 10.61 35.3498 10.73 35.3498 10.85Z" fill="#0D2355"/>
<path d="M30.4699 13.91V14.03C30.4699 14.03 30.3999 14.03 30.3699 14.03C30.1699 13.86 30.0399 13.63 29.9999 13.38C29.9799 13.35 29.9799 13.32 29.9999 13.29H30.0899C30.2799 13.45 30.4199 13.67 30.4699 13.91Z" fill="#0D2355"/>
<path d="M32.3202 12.22V12.37C32.3202 12.37 32.2202 12.37 32.1902 12.29C32.0602 12.11 31.9802 11.91 31.9502 11.69C31.9502 11.69 31.9502 11.58 32.0002 11.56C32.0502 11.54 32.0902 11.56 32.1202 11.62C32.2402 11.8 32.3102 12.01 32.3202 12.22Z" fill="#0D2355"/>
<path d="M33 11.45C33 11.33 33.01 11.21 33.05 11.09C33.05 11.09 33.05 11.02 33.13 11.01C33.17 11.01 33.2 11.04 33.21 11.08C33.29 11.32 33.29 11.57 33.21 11.81C33.21 11.85 33.18 11.88 33.14 11.88C33.14 11.88 33.07 11.88 33.06 11.81C33.02 11.7 32.99 11.57 33 11.45Z" fill="#0D2355"/>
<path d="M41.68 13.8C41.63 14.05 41.49 14.27 41.3 14.44C41.22 14.49 41.17 14.44 41.18 14.36C41.22 14.11 41.35 13.88 41.54 13.72C41.57 13.7 41.61 13.7 41.64 13.72C41.64 13.72 41.67 13.75 41.68 13.8Z" fill="#0D2355"/>
<path d="M28.0001 19.76C27.8601 19.76 27.7101 19.73 27.5801 19.67C27.5801 19.67 27.5001 19.67 27.5101 19.58C27.5201 19.49 27.5101 19.58 27.5801 19.52C27.8201 19.44 28.0801 19.46 28.3101 19.57C28.3101 19.57 28.3801 19.57 28.3701 19.65C28.3601 19.73 28.3701 19.71 28.3001 19.72C28.2001 19.75 28.1001 19.76 28.0001 19.76Z" fill="#0D2355"/>
<path d="M28.0002 20.34C27.8502 20.34 27.7102 20.32 27.5702 20.27C27.5702 20.27 27.4902 20.27 27.4902 20.17C27.4902 20.07 27.4902 20.11 27.5702 20.1C27.8002 20.02 28.0602 20.02 28.2902 20.1C28.2902 20.1 28.3502 20.1 28.3502 20.18C28.3502 20.26 28.3502 20.24 28.2802 20.26C28.1902 20.3 28.1002 20.33 28.0002 20.34Z" fill="#0D2355"/>
<path d="M28.0898 18.72C27.9398 18.72 27.7898 18.7 27.6498 18.63C27.6498 18.63 27.5798 18.63 27.5898 18.55C27.5898 18.52 27.6298 18.49 27.6598 18.48C27.8998 18.42 28.1498 18.43 28.3798 18.53C28.4198 18.53 28.4498 18.57 28.4498 18.61C28.4498 18.66 28.4498 18.68 28.3698 18.69C28.2798 18.72 28.1798 18.73 28.0898 18.72Z" fill="#0D2355"/>
<path d="M27.9402 20.93C27.8002 20.93 27.6702 20.91 27.5402 20.86C27.5402 20.86 27.4502 20.86 27.4502 20.77C27.4502 20.68 27.5002 20.7 27.5402 20.69C27.7602 20.61 28.0102 20.61 28.2302 20.69C28.2302 20.69 28.3202 20.69 28.3102 20.79C28.3002 20.89 28.3102 20.85 28.2102 20.86C28.1202 20.9 28.0302 20.92 27.9402 20.93Z" fill="#0D2355"/>
<path d="M27.94 21.4C27.8 21.4 27.66 21.38 27.53 21.32C27.53 21.32 27.44 21.32 27.45 21.23C27.46 21.14 27.5 21.17 27.54 21.16C27.76 21.09 28.01 21.09 28.23 21.16C28.23 21.16 28.31 21.16 28.31 21.25C28.31 21.34 28.31 21.32 28.22 21.33C28.13 21.37 28.04 21.39 27.94 21.4Z" fill="#0D2355"/>
<path d="M28 21.87C27.85 21.87 27.71 21.85 27.57 21.79C27.57 21.79 27.5 21.79 27.5 21.71C27.5 21.63 27.5 21.64 27.58 21.63C27.82 21.57 28.07 21.58 28.3 21.68C28.3 21.68 28.37 21.68 28.36 21.77C28.35 21.86 28.36 21.82 28.29 21.84C28.2 21.86 28.1 21.87 28 21.87Z" fill="#0D2355"/>
<path d="M28.0002 22.9C27.8502 22.9 27.7102 22.88 27.5702 22.82C27.5702 22.82 27.4902 22.82 27.4902 22.73C27.4902 22.64 27.5402 22.67 27.5702 22.66C27.8002 22.59 28.0502 22.59 28.2802 22.66C28.2802 22.66 28.3502 22.66 28.3502 22.75C28.3502 22.84 28.3502 22.82 28.2602 22.83C28.1802 22.87 28.0902 22.89 28.0002 22.9Z" fill="#0D2355"/>
<path d="M36.9998 14.21C36.9998 14.3 36.9298 14.36 36.8198 14.36C36.6798 14.36 36.5598 14.25 36.5498 14.11C36.5498 14.03 36.6098 13.96 36.6898 13.95C36.6998 13.95 36.7098 13.95 36.7198 13.95C36.8698 13.95 36.9898 14.06 36.9998 14.21Z" fill="#0D2355"/>
<path d="M37 13.38C37 13.29 37.05 13.21 37.16 13.22C37.24 13.22 37.3 13.27 37.31 13.35C37.31 13.36 37.31 13.37 37.31 13.38C37.32 13.46 37.26 13.54 37.18 13.55C37.17 13.55 37.16 13.55 37.15 13.55C37.09 13.55 37.05 13.48 37 13.38Z" fill="#0D2355"/>
<path d="M40.0702 15.18C39.8702 14.99 39.6102 14.88 39.3302 14.87C39.1502 14.87 38.9702 14.89 38.8002 14.96C38.4502 15.07 38.2002 15.37 38.1302 15.73C38.0702 16.09 38.2202 16.45 38.5202 16.65C38.9302 16.95 39.4902 16.97 39.9202 16.7C40.3702 16.44 40.5202 15.87 40.2602 15.42C40.2102 15.33 40.1402 15.25 40.0702 15.18ZM39.6802 16.41C39.3202 16.57 38.9002 16.41 38.7402 16.06C38.7102 15.99 38.6902 15.91 38.6802 15.83C38.6802 15.65 38.7702 15.48 38.9302 15.39C39.2902 15.2 39.7402 15.34 39.9302 15.7C40.0502 15.97 39.9402 16.28 39.6802 16.41Z" fill="#0D2355"/>
<path d="M39.3098 15.67C39.4998 15.67 39.6898 15.82 39.6798 15.97C39.6598 16.1 39.5398 16.2 39.4098 16.19C39.2298 16.19 39.0498 16.04 39.0498 15.89C39.0598 15.76 39.1798 15.66 39.3098 15.67Z" fill="#0D2355"/>
</g>
<defs>
<clipPath id="clip0_314_3276">
<rect width="48" height="48" fill="white"/>
</clipPath>
</defs>
</svg>
