<svg width="48" height="48" viewBox="0 0 48 48" fill="none" xmlns="http://www.w3.org/2000/svg">
<path d="M3 26.11C7.73 21.94 15.88 22.61 22.61 26.75C26.05 28.47 31.06 33.01 37.13 32.88C35.5708 34.1995 33.7085 35.1113 31.7101 35.5337C29.7117 35.9561 27.6397 35.8758 25.68 35.3C23.3434 34.5142 21.1156 33.4356 19.05 32.09C14.16 29.14 8.89 26.27 3 26.11Z" fill="#D8211D"/>
<path d="M28.6499 29.55C28.6499 29.55 34.8299 33.79 38.7099 31.41C34.3099 31.77 34.7099 28 28.6499 29.55Z" fill="#D8211D"/>
<path d="M41.3002 29.17C38.8302 32.58 34.1402 28.77 32.4102 28.77C36.6202 26.45 37.1702 29.73 41.3002 29.17Z" fill="#D8211D"/>
<path d="M45.0001 27.4C38.6901 25.4 36.7501 26.52 35.3501 27.4C36.9301 27.3412 38.501 27.6636 39.9301 28.34C41.4601 28.93 42.5401 29.07 45.0001 27.4Z" fill="#D8211D"/>
<path d="M24.1099 8.67C19.9203 8.67086 15.8611 10.1275 12.6269 12.7908C9.39269 15.454 7.18442 19.1583 6.37988 23.27C11.5799 21.18 18.3799 23.27 22.8199 25.99C24.4899 26.99 26.0999 28.25 28.0199 28.61C29.4883 28.8453 30.9931 28.6723 32.3699 28.11C33.6699 27.61 34.8699 26.88 36.1699 26.41C37.4505 25.947 38.8095 25.7398 40.1699 25.8C40.8468 25.8343 41.5178 25.945 42.1699 26.13C42.0141 21.4449 40.0429 17.004 36.6727 13.7458C33.3025 10.4876 28.7975 8.66741 24.1099 8.67Z" fill="#FCD800"/>
</svg>
