<svg width="48" height="48" viewBox="0 0 48 48" fill="none" xmlns="http://www.w3.org/2000/svg">
<path d="M36.06 14.28C38.56 14.01 41.06 13.81 43.56 13.57C42.8753 16.162 41.2215 18.3921 38.94 19.8C38.0391 20.3024 37.0633 20.6569 36.05 20.85C32.9248 21.3583 29.8499 22.138 26.86 23.18C25.0931 23.811 23.4783 24.8058 22.12 26.1C19.72 28.69 17.55 31.49 15.34 34.24C14.259 35.6462 12.6673 36.5696 10.91 36.81C10.039 36.9691 9.14432 36.9445 8.28333 36.7378C7.42234 36.5312 6.61398 36.1471 5.91 35.61C5.33422 34.9882 4.90651 34.2443 4.65888 33.4338C4.41124 32.6234 4.35009 31.7674 4.48001 30.93C4.66529 29.0941 5.31277 27.3351 6.36201 25.8172C7.41124 24.2993 8.828 23.072 10.48 22.25C10.7006 21.1174 10.9878 19.9988 11.34 18.9C11.87 17.99 13.04 18.25 13.91 18.24C14.78 18.23 15.56 18.08 16.06 18.75C16.69 19.58 16.3 20.68 16.17 21.61C16.0566 22.2026 15.7902 22.7552 15.3973 23.2131C15.0043 23.6709 14.4985 24.018 13.93 24.22C11.5512 24.9356 9.34069 26.1225 7.43001 27.71C6.86736 28.203 6.41393 28.8082 6.0988 29.4867C5.78366 30.1652 5.61377 30.902 5.60001 31.65C5.56971 32.187 5.6559 32.7242 5.85267 33.2248C6.04944 33.7253 6.35214 34.1774 6.74001 34.55C7.29141 35.0003 7.93865 35.3182 8.63203 35.4794C9.32542 35.6406 10.0465 35.6408 10.74 35.48C12.7787 35.043 14.5699 33.8357 15.74 32.11L23.74 20.95C24.6325 19.6809 25.7231 18.5633 26.97 17.64C29.6657 15.7667 32.794 14.6104 36.06 14.28Z" fill="#004846"/>
<path d="M27.67 23.64C30.3859 22.8385 33.1476 22.2007 35.94 21.73C35.7192 23.158 35.038 24.4748 34 25.48C32.3657 26.8485 30.329 27.6456 28.2 27.75C25.43 28.13 22.43 28.7 20.33 30.75C18.94 32.21 17.68 33.75 16.33 35.28C15.6119 36.0062 14.704 36.5156 13.71 36.75C14.4443 36.1918 15.1393 35.5837 15.79 34.93C16.71 33.93 17.4 32.67 18.25 31.57C19.7288 29.6662 21.3864 27.9082 23.2 26.32C24.5013 25.1442 26.0197 24.2338 27.67 23.64Z" fill="#004846"/>
<path d="M21.5999 31.18C22.4017 30.7897 23.2794 30.5802 24.171 30.5664C25.0626 30.5526 25.9464 30.7347 26.7599 31.1C27.5233 31.5186 28.1513 32.1466 28.5699 32.91C27.7428 32.5252 26.8276 32.3698 25.9199 32.46C25.1799 32.7 24.8099 33.46 24.4499 34.07C23.9008 35.2072 23.0542 36.1747 21.9999 36.87C21.4795 37.1775 20.8722 37.3049 20.2721 37.2326C19.672 37.1603 19.1124 36.8923 18.6799 36.47C18.3946 36.1104 18.2223 35.6743 18.185 35.2169C18.1476 34.7594 18.2467 34.3011 18.4699 33.9C19.1682 32.6594 20.274 31.6984 21.5999 31.18Z" fill="#004846"/>
</svg>
