<svg width="48" height="48" viewBox="0 0 48 48" fill="none" xmlns="http://www.w3.org/2000/svg">
<path d="M31 12.24C30.59 12.34 30.17 12.43 29.76 12.55C27.3779 13.2377 25.2897 14.6931 23.82 16.69C22.8434 17.9744 21.9354 19.3096 21.1 20.69C20.66 21.3567 20.2 22.0467 19.72 22.76C19.3822 23.2283 18.9495 23.6201 18.45 23.91C18.37 23.84 18.37 23.75 18.34 23.67C18.3149 23.5678 18.2654 23.4733 18.1956 23.3945C18.1259 23.3157 18.0381 23.255 17.9397 23.2176C17.8414 23.1803 17.7354 23.1673 17.631 23.1799C17.5265 23.1925 17.4267 23.2303 17.34 23.29C17.0168 23.4883 16.7404 23.7544 16.53 24.07C16.0943 24.6803 15.7569 25.3552 15.53 26.07C15.5004 26.1642 15.4601 26.2548 15.41 26.34C15.3249 25.6526 15.3249 24.9574 15.41 24.27C15.41 23.99 15.48 23.72 15.53 23.44C15.58 23.16 15.83 22.88 16.22 23.03C16.38 23.08 16.4 23.03 16.44 22.91C16.5784 22.6347 16.6793 22.3421 16.74 22.04C16.74 21.92 16.8 21.84 16.97 21.88C17.2239 21.9211 17.4837 21.9037 17.7298 21.8292C17.9758 21.7546 18.2017 21.625 18.39 21.45C18.9896 20.9953 19.5304 20.468 20 19.88C21.177 18.3519 22.4673 16.9145 23.86 15.58C25.4503 14.04 27.4207 12.9496 29.57 12.42C30.0368 12.2979 30.5176 12.2374 31 12.24Z" fill="#FE691F"/>
<path d="M28.1802 12.42C28.2402 12.3 28.3702 12.26 28.4602 12.2C29.8093 11.3406 31.1112 10.4093 32.3602 9.41C33.6915 8.32374 34.724 6.91611 35.3602 5.32C35.4602 5.05 35.5302 4.76 35.6402 4.48C35.6905 5.60883 35.61 6.73969 35.4002 7.85C35.2332 8.44753 34.9044 8.98736 34.4502 9.41C33.548 10.3551 32.424 11.0598 31.1802 11.46C30.1802 11.76 29.2702 12.07 28.3402 12.46C28.3127 12.4711 28.2824 12.4732 28.2537 12.4661C28.2249 12.4589 28.1992 12.4427 28.1802 12.42Z" fill="#FE691F"/>
<path d="M39.2198 5.8C39.2288 5.98314 39.1909 6.16553 39.1098 6.33C38.8989 7.1312 38.6316 7.9165 38.3098 8.68C38.3098 8.77 38.2298 8.85 38.1998 8.93C37.9315 9.606 37.4881 10.1984 36.9152 10.6465C36.3423 11.0947 35.6606 11.3823 34.9398 11.48C33.9158 11.6538 32.8785 11.7374 31.8398 11.73L32.2098 11.54C34.7424 10.4313 36.9616 8.71367 38.6698 6.54C38.8698 6.29 39.0398 6.03 39.2298 5.78L39.2198 5.8Z" fill="#FE691F"/>
<path d="M26.3799 17.88C26.5701 17.8087 26.7797 17.8087 26.9699 17.88C27.7727 18.1362 28.5315 18.5139 29.2199 19L30.3399 19.76C31.667 20.6856 33.2246 21.2256 34.8399 21.32H35.2799C34.1199 22.47 33.2799 22.7 31.8399 22.14C30.9558 21.7496 30.1573 21.1889 29.4899 20.49C28.8299 19.87 28.2099 19.19 27.4899 18.61C27.1525 18.3204 26.7795 18.0751 26.3799 17.88Z" fill="#FE691F"/>
<path d="M37.8701 17.37C37.5807 17.7804 37.2452 18.1562 36.8701 18.49C36.5916 18.7093 36.2617 18.8539 35.9116 18.9099C35.5616 18.9659 35.2031 18.9315 34.8701 18.81C33.861 18.4853 32.8968 18.0351 32.0001 17.47C31.053 16.8568 30.0482 16.3377 29.0001 15.92C28.7701 15.84 28.5401 15.77 28.3101 15.67C28.8372 15.6129 29.37 15.6365 29.8901 15.74C31.0831 15.9161 32.247 16.2525 33.3501 16.74C34.1682 17.0952 35.0286 17.3439 35.9101 17.48C36.4769 17.5771 37.0585 17.5429 37.6101 17.38C37.7181 17.3507 37.832 17.3507 37.9401 17.38L37.8701 17.37Z" fill="#FE691F"/>
<path d="M17.7402 31.05C17.7742 31.0325 17.812 31.0233 17.8502 31.0233C17.8885 31.0233 17.9262 31.0325 17.9602 31.05C19.6719 31.9326 21.4508 32.6783 23.2802 33.28C24.0102 33.55 24.7502 33.79 25.4702 34.09C27.2132 34.7619 28.7608 35.8583 29.9727 37.2797C31.1846 38.7012 32.0225 40.4027 32.4102 42.23C32.4433 42.3817 32.4667 42.5353 32.4802 42.69C32.221 41.5936 31.7997 40.5421 31.2302 39.57C29.8892 37.356 27.8053 35.6903 25.3502 34.87C23.0474 34.095 20.8426 33.0547 18.7802 31.77C18.4902 31.59 18.2102 31.37 17.9302 31.16L17.7402 31.05Z" fill="#FE691F"/>
<path d="M30.4799 45C30.3578 44.1101 30.1433 43.2354 29.8399 42.39C28.9173 39.9134 27.1115 37.8655 24.7699 36.64C22.668 35.5311 20.6844 34.2109 18.8499 32.7C18.4437 32.3404 18.0565 31.9599 17.6899 31.56C17.7699 31.51 17.8299 31.56 17.8899 31.56C19.3954 32.6885 20.9907 33.6919 22.6599 34.56C23.3999 34.97 24.1399 35.35 24.8599 35.78C26.4044 36.6666 27.717 37.9062 28.6903 39.3975C29.6636 40.8888 30.2701 42.5893 30.4599 44.36C30.4599 44.49 30.4599 44.62 30.4599 44.76C30.4599 44.9 30.4799 44.9 30.4799 45Z" fill="#FE691F"/>
<path d="M27.3198 16.85C27.3895 16.8208 27.4643 16.8058 27.5398 16.8058C27.6154 16.8058 27.6901 16.8208 27.7598 16.85C30.1865 17.6433 32.6165 18.4433 35.0498 19.25C35.2523 19.3213 35.4652 19.3584 35.6798 19.36H36.5598C36.1541 19.9408 35.5665 20.3701 34.8898 20.58C34.4344 20.7205 33.9431 20.6885 33.5098 20.49C32.7706 20.1814 32.0693 19.7888 31.4198 19.32C30.1681 18.3195 28.7894 17.4889 27.3198 16.85Z" fill="#FE691F"/>
<path d="M16.6499 25.82C16.2688 26.834 16.1251 27.9218 16.2299 29C15.8048 28.4624 15.6009 27.7828 15.6599 27.1C15.8358 26.0656 16.3003 25.102 16.9999 24.32C17.1615 24.1204 17.382 23.977 17.6299 23.91C17.8399 23.91 17.9799 23.91 18.0299 24.16C18.1299 24.62 18.1499 24.63 18.5699 24.47C18.8299 24.37 18.9499 24.47 19.0699 24.68C19.3699 25.39 19.7099 26.07 20.0699 26.77C20.1199 26.87 20.2099 26.98 20.1499 27.13L18.9999 25.59C18.8799 25.43 18.7599 25.24 18.5499 25.19C18.3399 25.14 18.2299 25.1 18.2799 25.41C18.3869 25.8675 18.5307 26.3157 18.7099 26.75C18.9049 27.1661 19.004 27.6206 18.9999 28.08C18.8199 27.67 18.6999 27.31 18.5199 26.98C18.3381 26.4174 18.0143 25.9111 17.5799 25.51C17.4499 25.42 17.5799 25.2 17.4999 25.02C17.3699 25.18 17.4099 25.36 17.3799 25.52C17.2899 25.99 17.2499 26.46 17.1599 26.92C17.0675 27.4238 17.1019 27.9427 17.2599 28.43C17.4038 28.9226 17.5174 29.4235 17.5999 29.93L16.5999 28.44C16.5488 28.338 16.5313 28.2225 16.5499 28.11C16.5399 27.35 16.6199 26.58 16.6499 25.82Z" fill="#FE691F"/>
<path d="M39.1102 15.22L37.7702 16.35C37.4351 16.6472 37.027 16.8501 36.5878 16.9379C36.1485 17.0258 35.6939 16.9954 35.2702 16.85C34.5353 16.6335 33.8222 16.3489 33.1402 16C32.3059 15.5393 31.4241 15.1705 30.5102 14.9C30.3907 14.8865 30.2804 14.8296 30.2002 14.74C30.6553 14.6448 31.1251 14.6448 31.5802 14.74C32.8602 14.93 34.1302 15.15 35.4102 15.33C36.5984 15.5871 37.8318 15.5459 39.0002 15.21H39.0902L39.1102 15.22Z" fill="#FE691F"/>
<path d="M31.29 12.66C31.8228 12.5031 32.3682 12.3927 32.92 12.33C33.8207 12.2 34.7301 12.1399 35.64 12.15C36.757 12.1505 37.8391 11.7615 38.7 11.05C39.1949 10.6517 39.6626 10.2207 40.1 9.75999C40.2 9.64999 40.29 9.51999 40.39 9.39999L40.47 9.46999C40.4 9.61999 40.34 9.77999 40.27 9.92999C40.04 10.42 39.82 10.93 39.6 11.41C39.402 12.0071 38.9994 12.5152 38.4634 12.8445C37.9273 13.1738 37.2922 13.3032 36.67 13.21C35.91 13.21 35.17 13.02 34.42 12.94L31.29 12.66Z" fill="#FE691F"/>
<path d="M25.5601 19.18C25.5976 19.1622 25.6386 19.153 25.6801 19.153C25.7216 19.153 25.7626 19.1622 25.8001 19.18C26.8438 19.7019 27.8236 20.3429 28.7201 21.09C29.7191 22.0381 30.9562 22.6981 32.3001 23C32.8988 23.121 33.5096 23.1713 34.1201 23.15C34.1201 23.25 34.0001 23.26 33.9301 23.29L32.2201 24.05C32.0425 24.1346 31.8413 24.1558 31.6501 24.11C30.7095 23.8801 29.8425 23.4157 29.1301 22.76C28.4835 22.1768 27.8756 21.5521 27.3101 20.89C26.772 20.2755 26.1869 19.7037 25.5601 19.18Z" fill="#FE691F"/>
<path d="M31.39 26.44C31.0058 26.8775 30.4836 27.1704 29.91 27.27C29.6853 27.3249 29.4511 27.3292 29.2246 27.2825C28.998 27.2358 28.7846 27.1393 28.6 27C27.652 26.2672 26.8252 25.3898 26.15 24.4C25.579 23.4822 24.9082 22.6303 24.15 21.86C24.07 21.79 23.88 21.69 23.99 21.56C24.1 21.43 24.2 21.62 24.3 21.68C25.1524 22.273 25.949 22.9425 26.68 23.68C27.09 24.08 27.51 24.47 27.95 24.84C28.915 25.699 30.1112 26.2554 31.39 26.44Z" fill="#FE691F"/>
<path d="M23.06 22.55C24.2201 23.3803 25.2541 24.3739 26.13 25.5C26.5817 26.0867 27.1021 26.6171 27.68 27.08C27.9918 27.3398 28.3265 27.5708 28.68 27.77C29.0534 27.9689 29.4545 28.1104 29.87 28.19C29.6127 28.4812 29.2761 28.6912 28.9014 28.7942C28.5267 28.8972 28.13 28.8888 27.76 28.77C27.3917 28.6357 27.0644 28.4084 26.81 28.11C26.2347 27.4656 25.7348 26.7577 25.32 26C24.7082 24.8423 23.9704 23.7557 23.12 22.76C23.081 22.714 23.0474 22.6637 23.02 22.61L23.06 22.55Z" fill="#FE691F"/>
<path d="M16.0798 30.47C15.6939 30.9899 15.359 31.5458 15.0798 32.13C15.0098 32.27 14.9798 32.52 14.7998 32.48C14.6198 32.44 14.6598 32.19 14.6598 32.03C14.6303 31.3842 14.6706 30.7372 14.7798 30.1C14.7798 30.1 14.7798 30.05 14.7798 29.97L14.3898 31.42C13.8598 30.62 14.1198 29.57 13.4698 28.86H13.3798L13.6598 30.53C13.3398 30.44 13.0098 30.02 12.6598 29.41C12.3098 28.8 12.7298 28.05 12.7698 27.41C12.9098 27.41 12.8798 27.51 12.8898 27.56C12.9698 27.83 13.0998 27.99 13.4198 27.96C13.7398 27.93 14.0698 27.96 14.4198 27.96C14.2298 28.22 14.0898 28.47 14.2398 28.77C14.3898 29.07 14.7398 28.88 14.9998 28.99C14.9459 29.1639 14.9025 29.3409 14.8698 29.52C14.8698 29.68 14.6598 29.8 14.7798 30.01L15.0898 29.57C15.0898 29.82 14.9898 30.06 15.0898 30.32C15.3213 30.147 15.4927 29.9056 15.5798 29.63C15.5798 29.51 15.5798 29.38 15.7998 29.4C16.0198 29.42 16.0998 29.45 16.1398 29.64C16.1548 29.823 16.1548 30.007 16.1398 30.19C16.0498 30.19 16.0598 30.31 16.0698 30.38C15.9798 30.38 15.9898 30.44 15.9998 30.5L16.0798 30.47Z" fill="#FE691F"/>
<path d="M30.5698 13.78C32.3046 13.5902 34.055 13.5902 35.7898 13.78C37.0604 13.9286 38.3458 13.6806 39.4698 13.07C39.5988 12.9841 39.746 12.9293 39.8998 12.91C39.4698 13.48 39.0998 14.05 38.6498 14.57C38.5047 14.7294 38.324 14.8524 38.1225 14.9288C37.9209 15.0053 37.7042 15.0331 37.4898 15.01C36.5862 14.9946 35.6871 14.8772 34.8098 14.66C33.4243 14.246 32.0057 13.9516 30.5698 13.78Z" fill="#FE691F"/>
<path d="M24.8198 20.41C24.9498 20.35 25.0298 20.41 25.1098 20.49C25.9874 21.04 26.8052 21.6801 27.5498 22.4C28.7492 23.5886 30.2669 24.4047 31.9198 24.75C32.1098 24.75 32.4098 24.75 32.4298 24.94C32.4498 25.13 32.1998 25.27 32.0298 25.39C31.7175 25.646 31.3288 25.7908 30.9251 25.8017C30.5214 25.8126 30.1255 25.6888 29.7998 25.45C28.964 24.8707 28.2134 24.1773 27.5698 23.39C26.7301 22.3283 25.8108 21.3321 24.8198 20.41Z" fill="#FE691F"/>
<path d="M16.4201 21.51C16.1501 21.27 16.0701 21.42 16.0201 21.68C15.9701 21.94 15.8101 22.49 15.6801 22.98L15.4801 22.09L14.9401 23.51C14.5301 22.79 14.1401 22.12 13.8001 21.42C13.7888 21.3931 13.783 21.3642 13.783 21.335C13.783 21.3058 13.7888 21.2769 13.8001 21.25C13.9035 20.8792 13.9274 20.4907 13.8701 20.11L14.7801 21.77C14.8801 21.4 14.9701 21.09 15.0501 20.77C15.0501 20.71 15.0501 20.63 15.1401 20.62C15.2301 20.61 15.2501 20.69 15.2801 20.75C15.3101 20.81 15.3301 20.95 15.4201 21.01C15.6401 20.55 15.5401 20.3 14.9301 19.81L14.6601 20.4C14.6022 20.3262 14.5737 20.2336 14.5801 20.14C14.5852 19.9953 14.5388 19.8535 14.449 19.7399C14.3593 19.6263 14.232 19.5484 14.0901 19.52C13.9251 19.4772 13.7505 19.4927 13.5956 19.5637C13.4408 19.6348 13.3152 19.7571 13.2401 19.91C13.1136 20.2353 12.927 20.5338 12.6901 20.79C12.6517 20.8293 12.6079 20.863 12.5601 20.89C12.595 20.5519 12.6585 20.2173 12.7501 19.89C12.851 19.6604 13.0069 19.4591 13.2039 19.3039C13.401 19.1487 13.6332 19.0444 13.8801 19C14.2437 18.8932 14.6328 18.9132 14.9835 19.0567C15.3343 19.2003 15.6257 19.4589 15.8101 19.79C16.1083 20.3251 16.3145 20.9066 16.4201 21.51Z" fill="#FE691F"/>
<path d="M28.4298 29.62C28.1678 29.8237 27.8738 29.9825 27.5598 30.09C27.2729 30.1961 26.9597 30.2088 26.6651 30.1262C26.3706 30.0436 26.1097 29.8699 25.9198 29.63C25.1107 28.7469 24.458 27.7324 23.9898 26.63C23.4931 25.4373 22.7964 24.3382 21.9298 23.38C21.8817 23.3271 21.8382 23.2702 21.7998 23.21C21.9198 23.21 21.9698 23.29 22.0298 23.33C22.9526 24.1292 23.7692 25.0433 24.4598 26.05C24.8898 26.64 25.3098 27.23 25.7898 27.78C26.4493 28.5271 27.2747 29.1093 28.1998 29.48L28.4298 29.62Z" fill="#FE691F"/>
<path d="M20 11.88C20.3786 11.7098 20.7855 11.6115 21.2 11.59C22.36 11.44 23.53 11.48 24.7 11.34C25.9314 11.2446 27.1315 10.9047 28.23 10.34C28.46 10.21 28.53 10.25 28.56 10.51C28.7 11.63 28.33 12.09 27.2 12.16C26.0717 12.2018 24.9418 12.1583 23.82 12.03C22.62 11.91 21.42 11.89 20.22 11.85L20 11.88Z" fill="#FE691F"/>
<path d="M27.9999 7.91C28.0499 8.25 28.1299 8.59 28.1599 8.91C28.1998 9.14857 28.1518 9.3935 28.025 9.59943C27.8981 9.80536 27.7009 9.95833 27.4699 10.03C26.974 10.2232 26.4511 10.3379 25.9199 10.37C24.0399 10.52 22.1499 10.6 20.2599 10.63H20.1099C21.2099 10.38 22.2399 10.11 23.2899 9.98C24.1677 9.88776 25.0328 9.69998 25.8699 9.42C26.6662 9.15743 27.3638 8.65866 27.8699 7.99C27.8699 7.99 27.8799 7.91 27.9999 7.91Z" fill="#FE691F"/>
<path d="M24.4601 30.3C23.9768 30.1153 23.5782 29.7594 23.3401 29.3C23.1028 28.9087 22.9083 28.493 22.7601 28.06C22.3672 26.7896 21.8233 25.5709 21.1401 24.43C21.9101 25.16 25.9201 30.16 26.0301 30.29C25.5157 30.4232 24.9762 30.4267 24.4601 30.3Z" fill="#FE691F"/>
<path d="M19.8398 8.57999C19.2552 9.07628 18.7008 9.60723 18.1798 10.17C17.5634 10.8538 17.1213 11.6765 16.8915 12.568C16.6617 13.4595 16.6508 14.3934 16.8598 15.29C16.8802 15.3397 16.8897 15.3931 16.8879 15.4467C16.8861 15.5003 16.873 15.5529 16.8493 15.6011C16.8257 15.6493 16.7922 15.6919 16.7509 15.7262C16.7096 15.7605 16.6615 15.7856 16.6098 15.8C16.3798 15.89 16.1598 16 15.9398 16.1C15.7198 16.2 15.7698 16.1 15.7898 16.01C15.8798 15.01 15.7898 14.01 15.9098 13.01C16.0949 11.8442 16.6865 10.7815 17.5798 10.01C18.2528 9.42556 18.9991 8.93139 19.7998 8.53999C19.7998 8.53999 19.8298 8.56999 19.8398 8.57999Z" fill="#FE691F"/>
<path d="M12.6902 25.34C12.9502 26.4 12.4702 27.34 12.3402 28.27C12.3402 28.58 12.2202 28.89 12.1402 29.27C11.9829 29.1268 11.8572 28.9523 11.7711 28.7577C11.685 28.5631 11.6404 28.3528 11.6402 28.14C11.6418 27.5242 11.7293 26.9116 11.9002 26.32C11.9231 26.268 11.9349 26.2118 11.9349 26.155C11.9349 26.0982 11.9231 26.042 11.9002 25.99L11.5402 26.7H11.4702L12.1102 24.19H12.1602C12.1602 24.34 12.2102 24.49 12.2402 24.64C12.2702 24.79 12.2402 24.84 12.3502 24.86C12.4007 24.8703 12.453 24.8674 12.502 24.8517C12.551 24.8359 12.5952 24.8078 12.6302 24.77C12.7633 24.6158 12.8621 24.4352 12.9202 24.24C12.9902 24.07 13.0502 23.9 13.1302 23.69L13.6302 24.56C13.9902 24.25 14.0002 23.79 14.1802 23.4C14.2202 24.2403 13.9888 25.0713 13.5202 25.77C13.4102 25.92 13.3202 25.94 13.1802 25.77C13.0402 25.6 12.8802 25.5 12.6902 25.34Z" fill="#FE691F"/>
<path d="M23.1501 36.52C23.0251 36.6952 22.8624 36.8402 22.6739 36.9443C22.4855 37.0484 22.2761 37.1089 22.0612 37.1213C21.8463 37.1338 21.6314 37.0979 21.4321 37.0164C21.2329 36.9348 21.0545 36.8096 20.9101 36.65C20.1944 36.0016 19.5837 35.2459 19.1001 34.41C18.5823 33.4853 17.9052 32.6592 17.1001 31.97C17.2501 31.91 17.3201 32.02 17.4101 32.08C18.1467 32.5821 18.8184 33.1733 19.4101 33.84C19.8877 34.3909 20.4023 34.9088 20.9501 35.39C21.531 35.8856 22.2138 36.2475 22.9501 36.45C23.0196 36.4644 23.0868 36.4879 23.1501 36.52Z" fill="#FE691F"/>
<path d="M27.2901 12.74C27.1161 12.9792 26.8712 13.1576 26.5901 13.25C26.186 13.3961 25.8028 13.5945 25.4501 13.84C25.2701 14 25.0401 13.93 24.8301 13.9C23.7201 13.72 22.6201 13.48 21.5001 13.34C20.8801 13.27 20.2501 13.26 19.6201 13.21C22.1584 12.832 24.7247 12.6748 27.2901 12.74Z" fill="#FE691F"/>
<path d="M20 25.57C20.15 25.57 20.17 25.66 20.23 25.74C21.1286 26.7985 21.8819 27.9722 22.47 29.23C22.6621 29.5979 22.9081 29.935 23.2 30.23C23.26 30.31 23.36 30.39 23.32 30.49C23.28 30.59 23.15 30.49 23.07 30.54H22.4C22.1595 30.5598 21.9207 30.4853 21.7341 30.3323C21.5475 30.1793 21.4277 29.9597 21.4 29.72C21.27 29.24 21.18 28.72 21.07 28.26C20.8261 27.3225 20.4667 26.4189 20 25.57Z" fill="#FE691F"/>
<path d="M20.8501 9.40001C21.6783 9.08592 22.5269 8.82866 23.3901 8.63001C24.0142 8.52262 24.5989 8.2525 25.0853 7.84693C25.5716 7.44135 25.9423 6.91466 26.1601 6.32001C26.239 6.11036 26.3326 5.90653 26.4401 5.71001C26.5148 6.32703 26.5349 6.94945 26.5001 7.57001C26.47 7.80065 26.383 8.02017 26.2468 8.20873C26.1106 8.39729 25.9296 8.54895 25.7201 8.65001C25.255 8.89054 24.7432 9.02703 24.2201 9.05001C23.1758 9.09746 22.1364 9.22113 21.1101 9.42001C21.068 9.43645 21.0228 9.4432 20.9778 9.43973C20.9328 9.43627 20.8891 9.42269 20.8501 9.40001Z" fill="#FE691F"/>
<path d="M15.6699 28.83C15.4358 28.6679 15.1799 28.54 14.9099 28.45C14.7899 28.45 14.7799 28.29 14.7399 28.2C14.5499 27.7 14.3599 27.2 14.1599 26.68C13.9699 26.97 13.9799 27.04 14.2799 27.53C13.6399 27.68 13.2799 27.31 13.4599 26.68C13.5021 26.5106 13.5768 26.351 13.6799 26.21C14.1108 25.5977 14.4011 24.8976 14.5299 24.16C14.5439 24.0819 14.564 24.005 14.5899 23.93L14.6899 23.82C14.7634 25.5297 15.0938 27.2186 15.6699 28.83Z" fill="#FE691F"/>
<path d="M18.54 8.7C18.54 8.57 18.59 8.49 18.65 8.4C19.554 7.02525 19.9337 5.37139 19.72 3.74C19.7098 3.60353 19.7098 3.46648 19.72 3.33C19.83 3.33 19.81 3.44 19.82 3.49C20.03 4.16 20.23 4.82 20.43 5.49C20.5298 5.86807 20.5603 6.26107 20.52 6.65C20.5136 6.94195 20.4354 7.22784 20.2924 7.48245C20.1494 7.73706 19.946 7.95258 19.7 8.11C19.3493 8.35616 18.9655 8.55143 18.56 8.69L18.54 8.7Z" fill="#FE691F"/>
<path d="M12.2899 21.74L12.6699 22.2L12.7699 21.6C12.9199 21.68 12.9399 21.87 13.1099 21.98C13.3099 21.45 13.0199 20.83 13.3899 20.31C13.6499 20.93 13.4599 21.6 13.7099 22.2L13.8699 22H13.9299L13.6799 23.88L13.4599 22.79L12.6899 24.3L12.7599 23C12.2299 23.47 12.0799 24.11 11.6499 24.62C11.6832 24.3434 11.7679 24.0754 11.8999 23.83C12.0362 23.5757 12.0719 23.2794 11.9999 23C11.9399 22.7824 11.935 22.5533 11.9856 22.3333C12.0362 22.1134 12.1408 21.9095 12.2899 21.74Z" fill="#FE691F"/>
<path d="M15.7598 19C16.3196 19.0026 16.877 19.0731 17.4198 19.21C17.8757 19.3552 18.3645 19.3615 18.824 19.2279C19.2834 19.0943 19.6928 18.827 19.9998 18.46C20.0262 18.4546 20.0534 18.4546 20.0798 18.46C19.7861 19.2536 19.2728 19.9472 18.5998 20.46C18.5368 20.4941 18.4664 20.512 18.3948 20.512C18.3232 20.512 18.2527 20.4941 18.1898 20.46L16.6598 20C16.5807 19.9786 16.5084 19.9373 16.4498 19.88C16.2482 19.5654 16.0172 19.2708 15.7598 19Z" fill="#FE691F"/>
<path d="M19.25 16.85C18.8663 17.5442 18.3417 18.1505 17.71 18.63C17.5792 18.7295 17.4259 18.7952 17.2637 18.8214C17.1015 18.8475 16.9354 18.8333 16.78 18.78C16.3577 18.6433 15.9116 18.5956 15.47 18.64H15.13C14.95 18.64 14.75 18.58 14.7 18.41C14.65 18.24 14.86 18.23 14.96 18.15C15.1529 18.0062 15.3725 17.9022 15.6059 17.8438C15.8394 17.7855 16.0821 17.774 16.32 17.81C17.1972 17.8933 18.074 17.6473 18.78 17.12L19.1 16.88C19.1 16.88 19.15 16.88 19.25 16.85Z" fill="#FE691F"/>
<path d="M17.3701 32.8C17.803 33.1792 18.1771 33.6207 18.4801 34.11C18.9733 34.9709 19.5675 35.7699 20.2501 36.49C20.4501 36.68 20.6601 36.85 20.8801 37.04C20.5284 37.1673 20.1438 37.1713 19.7895 37.0514C19.4352 36.9315 19.1322 36.6947 18.9301 36.38C18.6769 35.9938 18.4815 35.5727 18.3501 35.13C18.0953 34.3347 17.7602 33.5674 17.3501 32.84L17.3701 32.8Z" fill="#FE691F"/>
<path d="M19 26.54C19.16 26.54 19.18 26.64 19.22 26.72C19.7515 27.5195 20.172 28.3874 20.47 29.3C20.6133 29.7183 20.83 30.1078 21.11 30.45C21.24 30.63 21.17 30.68 20.99 30.7C20.623 30.7177 20.2629 30.5954 19.9826 30.3578C19.7023 30.1202 19.5227 29.785 19.48 29.42C19.37 28.72 19.4 28.01 19.24 27.32C19.1876 27.0523 19.1072 26.7908 19 26.54Z" fill="#FE691F"/>
<path d="M21.2798 8.14C21.5187 7.92758 21.8078 7.77958 22.1198 7.71C22.6936 7.55979 23.2046 7.23063 23.5786 6.77029C23.9526 6.30995 24.1702 5.74239 24.1998 5.15L24.2898 4.48C24.2898 4.48 24.2898 4.48 24.3598 4.48C24.5288 5.15821 24.6293 5.85169 24.6598 6.55C24.6284 6.84351 24.5082 7.12046 24.3152 7.34383C24.1222 7.5672 23.8656 7.72634 23.5798 7.8C22.8294 8.00438 22.0572 8.11852 21.2798 8.14Z" fill="#FE691F"/>
<path d="M19.4502 14.35C21.1936 14.1995 22.9468 14.1995 24.6902 14.35L23.6202 15.26C23.5402 15.32 23.4202 15.26 23.3202 15.26C22.0681 14.9289 20.7952 14.6817 19.5102 14.52H19.4602L19.4502 14.35Z" fill="#FE691F"/>
<path d="M13.3599 18.25C14.0097 17.8412 14.5903 17.3315 15.0799 16.74C15.1441 16.6732 15.2228 16.6219 15.3099 16.59C15.9697 16.3792 16.5936 16.069 17.1599 15.67C17.1593 15.8275 17.1104 15.9811 17.0199 16.11C16.847 16.4631 16.6393 16.7981 16.3999 17.11C16.3363 17.204 16.2516 17.2818 16.1527 17.3374C16.0537 17.3929 15.9432 17.4246 15.8299 17.43C15.5773 17.4461 15.3307 17.5139 15.1054 17.6292C14.8801 17.7444 14.6808 17.9047 14.5199 18.1C14.4413 18.1969 14.3353 18.2678 14.2157 18.3035C14.0962 18.3391 13.9687 18.3379 13.8499 18.3C13.7199 18.29 13.5799 18.28 13.3599 18.25Z" fill="#FE691F"/>
<path d="M16.1998 30.17C16.3698 29.96 16.3798 29.67 16.5198 29.45C16.9498 29.69 17.0298 30.64 16.8698 31.45C16.7098 31.45 16.7898 31.09 16.5398 31.2C16.4456 31.2443 16.3683 31.3179 16.3196 31.4099C16.2709 31.5019 16.2534 31.6072 16.2698 31.71C16.2698 32.06 16.3398 32.42 16.3698 32.78C16.411 33.1147 16.3873 33.4543 16.2998 33.78L15.4198 32.57C15.3498 32.47 15.4198 32.38 15.4198 32.28L15.9998 30.76C15.9998 30.67 16.0998 30.58 16.0698 30.47C16.1498 30.47 16.1198 30.39 16.1398 30.35C16.2198 30.35 16.1998 30.23 16.2098 30.16L16.1998 30.17Z" fill="#FE691F"/>
<path d="M20.6401 7.68999C21.4803 6.43937 22.046 5.02501 22.3001 3.53999C22.3001 4.21999 22.3801 4.89999 22.4301 5.53999C22.4816 5.87438 22.4577 6.21604 22.3601 6.53999C22.2508 6.90113 22.0197 7.21317 21.706 7.42288C21.3923 7.6326 21.0156 7.727 20.6401 7.68999Z" fill="#FE691F"/>
<path d="M28.6102 20.37C28.5002 20.37 28.4302 20.29 28.3502 20.23C27.0607 19.2892 25.643 18.5382 24.1402 18C24.0102 18 23.7402 18 23.8202 17.7C23.8332 17.6449 23.8581 17.5933 23.8931 17.5488C23.928 17.5043 23.9723 17.468 24.0227 17.4423C24.0731 17.4166 24.1286 17.4022 24.1851 17.4001C24.2417 17.3979 24.298 17.4082 24.3502 17.43C24.6181 17.5072 24.8765 17.6146 25.1202 17.75C26.4025 18.3738 27.5638 19.2203 28.5502 20.25C28.5502 20.25 28.6302 20.3 28.6102 20.37Z" fill="#FE691F"/>
<path d="M12.7202 18.17C12.9533 17.8094 13.1288 17.4147 13.2402 17C13.2746 16.8682 13.3477 16.7497 13.4502 16.66C14.0262 16.2006 14.5112 15.6376 14.8802 15L15.0002 14.84C15.0772 15.0237 15.1169 15.2208 15.1169 15.42C15.1169 15.6192 15.0772 15.8163 15.0002 16C14.5032 16.9572 13.7008 17.7209 12.7202 18.17Z" fill="#FE691F"/>
<path d="M11.4502 18.71C11.9842 17.4319 12.3376 16.0856 12.5002 14.71C12.7115 15.0367 12.8524 15.4039 12.9139 15.7882C12.9754 16.1724 12.9561 16.5652 12.8574 16.9416C12.7586 17.3179 12.5824 17.6696 12.3401 17.9741C12.0978 18.2785 11.7948 18.5292 11.4502 18.71Z" fill="#FE691F"/>
<path d="M19.2201 30.35C18.9927 30.3563 18.7679 30.3 18.5704 30.1871C18.3728 30.0742 18.2102 29.9092 18.1002 29.71C17.9369 29.4023 17.8543 29.0583 17.8602 28.71C17.9151 27.9844 17.9151 27.2556 17.8602 26.53C18.1799 26.9836 18.4138 27.492 18.5502 28.03C18.6139 28.8407 18.8419 29.6301 19.2201 30.35Z" fill="#FE691F"/>
<path d="M26.5502 23C26.4302 23 26.3802 22.93 26.3202 22.88C25.2482 21.9423 24.1048 21.0897 22.9002 20.33C22.7433 20.2305 22.596 20.1167 22.4602 19.99C22.4208 19.9602 22.3889 19.9216 22.3669 19.8774C22.3449 19.8331 22.3335 19.7844 22.3335 19.735C22.3335 19.6856 22.3449 19.6369 22.3669 19.5926C22.3889 19.5484 22.4208 19.5098 22.4602 19.48C22.5402 19.4 22.5902 19.38 22.6902 19.48C24.0768 20.3991 25.3202 21.5178 26.3802 22.8C26.4402 22.88 26.4702 22.96 26.5202 23.04L26.5502 23Z" fill="#FE691F"/>
<path d="M29.79 18.8C29.4464 18.6703 29.1122 18.5165 28.79 18.34C27.6418 17.7307 26.4078 17.2991 25.13 17.06C25.0171 17.0477 24.9061 17.0208 24.8 16.98C24.71 16.98 24.54 16.98 24.54 16.82C24.5468 16.7536 24.5719 16.6904 24.6125 16.6374C24.6531 16.5844 24.7077 16.5438 24.77 16.52C24.9141 16.4606 25.0759 16.4606 25.22 16.52C26.6977 16.9093 28.0979 17.5486 29.36 18.41C29.5231 18.5128 29.6655 18.645 29.78 18.8H29.79Z" fill="#FE691F"/>
<path d="M27.3698 21.67L26.6798 21.08C25.7613 20.2696 24.7307 19.596 23.6198 19.08C23.4878 19.0225 23.3634 18.9485 23.2498 18.86C23.1498 18.79 23.0298 18.71 23.0898 18.57C23.1162 18.5075 23.1589 18.4532 23.2134 18.4127C23.268 18.3723 23.3323 18.3472 23.3998 18.34C23.5629 18.3184 23.728 18.3615 23.8598 18.46C25.1741 19.2537 26.3413 20.2686 27.3098 21.46C27.3498 21.51 27.4198 21.56 27.3698 21.67Z" fill="#FE691F"/>
<path d="M30.8101 17.21C30.767 17.2328 30.7189 17.2447 30.6701 17.2447C30.6213 17.2447 30.5733 17.2328 30.5301 17.21C28.9442 16.5411 27.2502 16.165 25.5301 16.1C25.4301 16.1 25.2701 16.16 25.2501 16C25.2482 15.9277 25.267 15.8564 25.3042 15.7944C25.3413 15.7324 25.3955 15.6823 25.4601 15.65C25.619 15.5959 25.7913 15.5959 25.9501 15.65C27.3724 15.835 28.7603 16.2257 30.0701 16.81C30.3374 16.9011 30.5875 17.0363 30.8101 17.21Z" fill="#FE691F"/>
<path d="M9.8302 23.13C9.64335 22.9118 9.52707 22.6421 9.49672 22.3564C9.46637 22.0707 9.52337 21.7826 9.6602 21.53C9.9802 21.15 10.3402 20.79 10.7202 20.38C10.7202 21.25 11.4402 21.04 11.9202 21.15C11.8502 21.3217 11.7241 21.4646 11.5625 21.5554C11.4009 21.6462 11.2132 21.6795 11.0302 21.65C10.2802 21.65 10.1002 21.75 9.9502 22.49C9.9002 22.69 9.8802 22.89 9.8302 23.13Z" fill="#FE691F"/>
<path d="M21.9201 27.08C21.7901 27.08 21.7501 26.92 21.6901 26.83C21.0401 25.96 20.4201 25.07 19.6901 24.26C19.6413 24.2077 19.5977 24.1508 19.5601 24.09C19.4801 23.95 19.4201 23.81 19.5601 23.67C19.7001 23.53 19.8601 23.57 20.0101 23.67C20.2024 23.8056 20.3684 23.975 20.5001 24.17C21.0912 25.0479 21.5652 25.9993 21.9101 27C21.9154 27.0264 21.9188 27.0531 21.9201 27.08Z" fill="#FE691F"/>
<path d="M12.5001 19.4C12.3795 19.66 12.3181 19.9434 12.3201 20.23C12.3271 20.3151 12.3162 20.4006 12.2881 20.4812C12.2599 20.5618 12.2152 20.6356 12.1568 20.6978C12.0983 20.76 12.0275 20.8092 11.9488 20.8423C11.8702 20.8755 11.7854 20.8917 11.7001 20.89C11.3401 20.89 11.1301 20.68 11.0801 20.28C11.0854 20.2368 11.0854 20.1932 11.0801 20.15C11.0801 20.02 10.7901 20.03 10.8801 19.87C10.9916 19.5938 11.1745 19.3522 11.4101 19.17C11.7478 18.9833 12.1071 18.8389 12.4801 18.74C12.2801 18.94 12.0101 19.07 11.8201 19.28C11.6301 19.49 11.6401 19.47 11.7501 19.62C11.8601 19.77 11.9601 19.62 12.0601 19.62C12.1601 19.62 12.3201 19.39 12.5201 19.41L12.5001 19.4Z" fill="#FE691F"/>
<path d="M31.25 15.68C30.67 15.58 30.17 15.5 29.67 15.4C28.9307 15.2718 28.1792 15.2282 27.4301 15.27C27.0544 15.3097 26.6757 15.3097 26.3 15.27C26.16 15.27 25.9601 15.27 25.9501 15.1C25.9401 14.93 26.15 14.9 26.3 14.87C26.7982 14.81 27.3019 14.81 27.8 14.87C28.8409 14.9675 29.8674 15.1822 30.8601 15.51C31.0039 15.5273 31.1395 15.5864 31.25 15.68Z" fill="#FE691F"/>
<path d="M23.1098 15.8L22.2798 16.64C22.253 16.6619 22.2194 16.6739 22.1848 16.6739C22.1501 16.6739 22.1166 16.6619 22.0898 16.64C21.0834 16.247 20.055 15.9131 19.0098 15.64L23.1098 15.8Z" fill="#FE691F"/>
<path d="M24.2401 25.11C23.4246 24.1377 22.5133 23.2499 21.5201 22.46C21.3712 22.3361 21.234 22.1989 21.1101 22.05C21.0609 21.995 21.0337 21.9238 21.0337 21.85C21.0337 21.7762 21.0609 21.705 21.1101 21.65C21.2301 21.51 21.3701 21.55 21.5001 21.65C21.6854 21.7375 21.8544 21.8559 22.0001 22C22.8433 22.8784 23.5908 23.8438 24.2301 24.88C24.2401 24.94 24.2901 25 24.2401 25.11Z" fill="#FE691F"/>
<path d="M32.7998 14.59C30.8097 14.3321 28.7967 14.3019 26.7998 14.5C26.8394 14.3741 26.9159 14.263 27.0192 14.181C27.1226 14.099 27.2482 14.0499 27.3798 14.04C27.9518 13.9851 28.5278 13.9851 29.0998 14.04C30.3497 14.0855 31.5907 14.27 32.7998 14.59Z" fill="#FE691F"/>
<path d="M23.2598 26.33C23.0819 26.1649 22.9271 25.9766 22.7998 25.77C22.1536 24.8486 21.3906 24.0149 20.5298 23.29C20.4245 23.2223 20.3466 23.1196 20.3098 23C20.2943 22.9279 20.3014 22.8528 20.33 22.7848C20.3586 22.7169 20.4074 22.6593 20.4698 22.62C20.6098 22.52 20.6598 22.69 20.7198 22.75C21.7074 23.6621 22.5207 24.7464 23.1198 25.95C23.2028 26.0601 23.2516 26.1923 23.2598 26.33Z" fill="#FE691F"/>
<path d="M33.2399 13.25C31.8223 13.2136 30.4054 13.3479 29.0199 13.65C28.7334 13.7138 28.4364 13.7138 28.1499 13.65C28.7699 13.09 31.8099 12.67 33.2399 13.25Z" fill="#FE691F"/>
<path d="M17 32.92C17.24 33.38 17.5 33.83 17.71 34.31C17.8623 34.818 18.0702 35.3076 18.33 35.77C18.41 35.89 18.38 35.96 18.22 35.94C17.47 35.86 17.29 35.76 17.22 35.05C17.246 34.3596 17.1718 33.6691 17 33V32.92Z" fill="#FE691F"/>
<path d="M25.0699 23.74C24.0699 22.91 23.1299 21.99 22.0699 21.23C21.9236 21.1353 21.8006 21.0088 21.7099 20.86C21.5999 20.69 21.7099 20.56 21.8299 20.44C21.9499 20.32 22.0499 20.44 22.1199 20.55L25.0699 23.74Z" fill="#FE691F"/>
<path d="M21.7799 17.13L21.1699 17.82C21.0799 17.94 20.9899 17.89 20.9099 17.82C20.5632 17.5469 20.1793 17.3247 19.7699 17.16C19.7454 17.1533 19.7227 17.1416 19.7031 17.1255C19.6835 17.1095 19.6675 17.0895 19.6562 17.0668C19.6449 17.0442 19.6385 17.0194 19.6374 16.9941C19.6363 16.9688 19.6405 16.9435 19.6499 16.92C19.6499 16.82 19.7099 16.73 19.8299 16.75C20.4889 16.8251 21.1409 16.9522 21.7799 17.13Z" fill="#FE691F"/>
<path d="M17.2001 21.55C17.0916 21.5403 16.9894 21.4947 16.9098 21.4204C16.8301 21.3462 16.7774 21.2475 16.7601 21.14C16.7101 20.94 16.6801 20.72 16.6301 20.51C16.5801 20.3 16.6801 20.37 16.7701 20.39C17.1872 20.4985 17.5875 20.6633 17.9601 20.88C17.9795 20.8923 17.9942 20.911 18.0014 20.9329C18.0087 20.9547 18.0082 20.9785 18.0001 21C17.9244 21.1521 17.8112 21.2824 17.6713 21.3786C17.5313 21.4748 17.3691 21.5338 17.2001 21.55Z" fill="#FE691F"/>
<path d="M16.9 34.86C16.3699 34.58 16.3499 34.42 16.7199 33.17C16.9999 33.7 16.6899 34.28 16.9 34.86Z" fill="#FE691F"/>
<path d="M19.6799 3.16L19.6699 3.18L19.6799 3.16Z" fill="#FE691F"/>
<path d="M29.8599 18.85H29.9199C29.9199 18.9 29.9199 18.85 29.8699 18.85H29.8599Z" fill="#FE691F"/>
<path d="M19.7998 8.53999C19.7998 8.53999 19.8598 8.53999 19.8698 8.53999C19.8798 8.53999 19.8698 8.53999 19.8698 8.58999C19.8698 8.63999 19.8098 8.55999 19.7998 8.53999Z" fill="#FE691F"/>
<path d="M23.0002 22.54L22.9302 22.48C22.9902 22.48 23.0202 22.48 23.0102 22.53L23.0002 22.54Z" fill="#FE691F"/>
<path d="M23 22.54C23 22.49 23.06 22.54 23.09 22.54V22.6L23 22.54Z" fill="#FE691F"/>
<path d="M17.3301 32.84C17.3342 32.8168 17.3342 32.7931 17.3301 32.77C17.3301 32.77 17.3801 32.77 17.3901 32.77L17.3301 32.84Z" fill="#FE691F"/>
<path d="M29.87 18.84H29.79C29.79 18.84 29.85 18.84 29.84 18.91L29.87 18.84Z" fill="#FE691F"/>
</svg>
