<svg width="48" height="48" viewBox="0 0 48 48" fill="none" xmlns="http://www.w3.org/2000/svg">
<path d="M27.8899 20.64L21.3999 16.69L22.3999 20.01L28.1799 23.21C29.2625 23.9538 30.1898 24.9015 30.9099 26C32.189 27.9375 32.9436 30.1737 33.0999 32.49C33.1338 31.4887 33.097 30.4862 32.9899 29.49C32.6599 26.64 31.5199 22.78 27.8899 20.64Z" fill="#D9B66D"/>
<path d="M40.1798 25.86C40.1798 25.86 37.1798 24.26 36.0598 28.23H35.6398C39.4498 11.35 17.7298 16.79 17.0998 4C17.0998 4 15.9898 11.65 20.9998 16.1L27.9998 20.37C31.7198 22.58 32.8998 26.52 33.2298 29.44C33.4207 31.1866 33.3938 32.9501 33.1498 34.69C35.6665 32.5273 37.7647 29.9207 39.3398 27L41.5998 25.4L40.1798 25.86Z" fill="#D9B66D"/>
<path d="M30.6799 26.18C29.9716 25.1024 29.0615 24.172 27.9999 23.44L22.4599 20.38L23.1399 22.66L27.4699 25.13C28.3395 25.6159 29.0712 26.3151 29.5961 27.1619C30.1209 28.0086 30.4216 28.975 30.4699 29.97C30.4281 30.6682 30.2692 31.3545 29.9999 32C29.9825 32.0784 29.9591 32.1553 29.9299 32.23C28.9999 35 25.3299 41.33 12.1299 44C12.1299 44 23.9299 42.63 32.8399 35.05C33.1486 31.9338 32.3868 28.8054 30.6799 26.18Z" fill="#D9B66D"/>
<path d="M27.3698 25.37L23.2798 23L23.6098 24.1C23.7813 24.6892 24.086 25.2311 24.5004 25.6837C24.9149 26.1363 25.4279 26.4874 25.9998 26.71C27.2362 27.1515 28.3573 27.8658 29.2798 28.8C29.7579 29.3337 30.0523 30.0066 30.1198 30.72C30.1872 30.4792 30.2209 30.2301 30.2198 29.98C30.1719 29.0336 29.8855 28.1147 29.3872 27.3087C28.8889 26.5028 28.195 25.8358 27.3698 25.37Z" fill="#D9B66D"/>
</svg>
