<svg width="48" height="48" viewBox="0 0 48 48" fill="none" xmlns="http://www.w3.org/2000/svg">
<path d="M39.87 27.75L20.06 8C18.7976 6.61274 18.0034 4.86353 17.79 3V11.2C18.0307 12.5672 18.6913 13.8255 19.68 14.8L33.68 28.8H33.11L19.39 15.06C18.7004 14.3721 18.1563 13.5525 17.79 12.65V17.65C18.0332 19.0135 18.6936 20.2678 19.68 21.24L27.22 28.79H26.6L19.39 21.55C18.6985 20.8675 18.154 20.0508 17.79 19.15V23.95C17.7899 25.496 18.3926 26.9812 19.47 28.09L21.82 30.51H38.73C39.051 30.5126 39.3654 30.4193 39.6329 30.242C39.9005 30.0646 40.1089 29.8113 40.2314 29.5147C40.3539 29.218 40.385 28.8915 40.3206 28.5771C40.2562 28.2626 40.0993 27.9746 39.87 27.75Z" fill="#005AAB"/>
<path d="M39.8698 27.75L39.3798 27.27C39.2541 27.9707 38.8833 28.6039 38.3338 29.0564C37.7842 29.5089 37.0916 29.7512 36.3798 29.74L21.7798 30.47H38.7298C39.0426 30.465 39.3472 30.3689 39.6063 30.1935C39.8653 30.0181 40.0677 29.7711 40.1887 29.4825C40.3096 29.194 40.3438 28.8765 40.2872 28.5688C40.2306 28.2611 40.0855 27.9766 39.8698 27.75Z" fill="#004E99"/>
<path d="M18 4.06C17.9031 3.71254 17.8329 3.35817 17.79 3V3.9L18 4.06Z" fill="#005AAB"/>
<path d="M30.8699 39.2L39.8699 30C39.7016 30.1715 39.4984 30.3048 39.2742 30.3911C39.0499 30.4773 38.8097 30.5145 38.5699 30.5H13.3799C12.7292 30.5047 12.0934 30.6956 11.5477 31.05C11.0019 31.4044 10.569 31.9075 10.2999 32.5C9.54855 32.6699 8.87717 33.09 8.39572 33.6913C7.91428 34.2927 7.65132 35.0397 7.6499 35.81C7.65179 36.1488 7.70231 36.4856 7.7999 36.81C8.32005 36.3537 8.98798 36.1015 9.6799 36.1C10.1983 36.099 10.7069 36.2408 11.1499 36.51C11.2631 36.6087 11.3835 36.6989 11.5099 36.78L19.6699 45H26.5599L20.9399 39.38H21.5199L27.1499 45H34.3599L28.7099 39.2H30.8699ZM12.9999 33.78H12.3499L13.7199 32.41L13.8099 32.76C13.8386 32.882 13.8393 33.0089 13.8119 33.1312C13.7846 33.2535 13.7299 33.368 13.6519 33.4662C13.574 33.5643 13.4748 33.6435 13.3619 33.6979C13.249 33.7522 13.1252 33.7803 12.9999 33.78V33.78Z" fill="#C7AB73"/>
</svg>
